<svg xmlns="http://www.w3.org/2000/svg" xmlns:xlink="http://www.w3.org/1999/xlink" width="500" zoomAndPan="magnify" viewBox="0 0 375 374.999991" height="500" preserveAspectRatio="xMidYMid meet" version="1.0"><defs><clipPath id="427db74274"><path d="M 112.5 170.90625 L 262.5 170.90625 L 262.5 203.90625 L 112.5 203.90625 Z M 112.5 170.90625 " clip-rule="nonzero"/></clipPath><clipPath id="c1c7a60e7a"><path d="M 112.5 178.40625 L 112.5 196.59375 C 112.5 200.734375 115.859375 204.09375 120 204.09375 L 255 204.09375 C 259.140625 204.09375 262.5 200.734375 262.5 196.59375 L 262.5 178.40625 C 262.5 174.265625 259.140625 170.90625 255 170.90625 L 120 170.90625 C 115.859375 170.90625 112.5 174.265625 112.5 178.40625 Z M 112.5 178.40625 " clip-rule="nonzero"/></clipPath></defs><g clip-path="url(#427db74274)"><g clip-path="url(#c1c7a60e7a)"><path fill="#c4c3c3" d="M 112.738281 170.910156 L 262.261719 170.910156 C 262.261719 181.972656 262.261719 193.035156 262.261719 204.097656 C 212.421875 204.097656 162.578125 204.097656 112.738281 204.097656 C 112.738281 193.035156 112.738281 181.972656 112.738281 170.910156 " fill-opacity="1" fill-rule="nonzero"/></g></g></svg>