<svg xmlns="http://www.w3.org/2000/svg" xmlns:xlink="http://www.w3.org/1999/xlink" width="500" zoomAndPan="magnify" viewBox="0 0 375 374.999991" height="500" preserveAspectRatio="xMidYMid meet" version="1.0"><defs><clipPath id="c89c24dac3"><path d="M 6.570312 0 L 369.714844 0 L 369.714844 375 L 6.570312 375 Z M 6.570312 0 " clip-rule="nonzero"/></clipPath><clipPath id="e5e91e07b6"><path d="M 20.820312 0 L 355.464844 0 C 359.242188 0 362.867188 1.5 365.539062 4.171875 C 368.210938 6.847656 369.714844 10.46875 369.714844 14.25 L 369.714844 360.75 C 369.714844 364.527344 368.210938 368.152344 365.539062 370.828125 C 362.867188 373.5 359.242188 375 355.464844 375 L 20.820312 375 C 17.039062 375 13.414062 373.5 10.742188 370.828125 C 8.070312 368.152344 6.570312 364.527344 6.570312 360.75 L 6.570312 14.25 C 6.570312 10.46875 8.070312 6.847656 10.742188 4.171875 C 13.414062 1.5 17.039062 0 20.820312 0 Z M 20.820312 0 " clip-rule="nonzero"/></clipPath><clipPath id="c4f2fa0472"><path d="M 49.613281 113 L 282 113 L 282 375 L 49.613281 375 Z M 49.613281 113 " clip-rule="nonzero"/></clipPath><clipPath id="0f8b8b9997"><path d="M 126 0 L 325.613281 0 L 325.613281 164 L 126 164 Z M 126 0 " clip-rule="nonzero"/></clipPath><clipPath id="15dc8432c8"><path d="M 243 23 L 325.613281 23 L 325.613281 164 L 243 164 Z M 243 23 " clip-rule="nonzero"/></clipPath><clipPath id="6a0e05829c"><path d="M 275 91 L 325.613281 91 L 325.613281 164 L 275 164 Z M 275 91 " clip-rule="nonzero"/></clipPath></defs><g clip-path="url(#c89c24dac3)"><g clip-path="url(#e5e91e07b6)"><path fill="#272b2b" d="M 6.570312 0 L 369.714844 0 L 369.714844 374.492188 L 6.570312 374.492188 Z M 6.570312 0 " fill-opacity="1" fill-rule="nonzero"/></g></g><path fill="#c4c3c3" d="M 279.039062 131.484375 L 279.015625 118.585938 C 279.011719 117.703125 278.921875 116.839844 278.75 116.007812 L 52.351562 117.007812 C 52.1875 117.84375 52.101562 118.707031 52.105469 119.585938 L 52.199219 132.484375 L 57.890625 132.460938 C 57.890625 132.488281 57.898438 132.570312 57.90625 132.683594 C 57.90625 132.925781 57.90625 133.164062 57.9375 133.433594 L 82.460938 362.363281 C 83.0625 368.03125 88.160156 372.609375 93.84375 372.582031 L 239.523438 371.9375 C 245.203125 371.914062 250.257812 367.292969 250.8125 361.617188 L 272.925781 136.410156 L 272.945312 136.21875 L 272.945312 136.207031 L 273.3125 132.484375 C 273.339844 132.171875 273.34375 131.886719 273.332031 131.617188 L 273.34375 131.507812 L 279.039062 131.484375 " fill-opacity="1" fill-rule="nonzero"/><g clip-path="url(#c4f2fa0472)"><path fill="#330e12" d="M 279.039062 131.484375 L 281.453125 131.480469 L 281.429688 118.582031 L 281.429688 118.578125 C 281.425781 117.527344 281.3125 116.507812 281.117188 115.527344 L 280.722656 113.589844 L 50.355469 114.601562 L 49.980469 116.550781 C 49.796875 117.507812 49.691406 118.503906 49.691406 119.535156 L 49.691406 119.644531 L 52.105469 119.585938 L 49.691406 119.605469 L 49.804688 134.90625 L 57.902344 134.871094 L 57.890625 132.460938 L 55.476562 132.460938 L 55.480469 132.609375 C 55.488281 132.707031 55.492188 132.78125 55.5 132.882812 L 57.90625 132.683594 L 55.492188 132.664062 L 55.492188 132.792969 C 55.492188 133.023438 55.496094 133.335938 55.539062 133.691406 L 55.535156 133.6875 L 80.054688 362.621094 C 80.433594 366.09375 82.15625 369.167969 84.613281 371.378906 C 87.070312 373.59375 90.308594 374.988281 93.796875 374.992188 L 93.828125 374.992188 L 93.816406 373.550781 L 93.800781 374.992188 L 93.828125 374.992188 L 93.816406 373.550781 L 93.800781 374.992188 L 93.820312 372.914062 L 93.691406 374.988281 L 93.800781 374.992188 L 93.820312 372.914062 L 93.691406 374.988281 L 93.761719 374.992188 L 239.535156 374.347656 C 243.035156 374.332031 246.273438 372.914062 248.71875 370.675781 C 251.167969 368.4375 252.875 365.339844 253.21875 361.855469 L 275.328125 136.644531 L 275.347656 136.457031 L 275.347656 136.417969 L 275.714844 132.71875 L 275.714844 132.714844 C 275.746094 132.410156 275.75 132.128906 275.75 131.871094 C 275.75 131.753906 275.75 131.648438 275.746094 131.550781 L 273.332031 131.617188 L 275.742188 131.824219 L 275.75 131.714844 L 273.34375 131.507812 L 273.355469 133.917969 L 281.457031 133.882812 L 281.453125 131.480469 L 279.039062 131.484375 L 279.027344 129.074219 L 271.125 129.109375 L 270.917969 131.546875 L 270.921875 131.679688 L 270.921875 131.871094 C 270.921875 132 270.917969 132.121094 270.90625 132.25 L 270.90625 132.246094 L 270.542969 135.992188 L 270.539062 136.011719 L 270.523438 136.167969 L 270.523438 136.171875 L 248.410156 361.382812 C 248.199219 363.574219 247.097656 365.617188 245.460938 367.117188 C 243.824219 368.617188 241.691406 369.523438 239.511719 369.527344 L 93.832031 370.171875 L 93.84375 372.582031 L 93.988281 370.171875 L 93.789062 370.171875 L 93.796875 371.132812 L 93.796875 370.171875 L 93.789062 370.171875 L 93.796875 371.132812 L 93.796875 370.171875 C 91.625 370.171875 89.492188 369.285156 87.847656 367.800781 C 86.203125 366.320312 85.089844 364.285156 84.859375 362.105469 L 60.335938 133.175781 L 60.335938 133.171875 C 60.324219 133.070312 60.320312 132.96875 60.320312 132.792969 L 60.320312 132.589844 L 60.3125 132.484375 L 60.304688 132.375 L 60.304688 132.367188 L 58.753906 132.460938 L 60.304688 132.460938 C 60.304688 132.359375 60.304688 132.367188 60.304688 132.367188 L 58.753906 132.460938 L 60.304688 132.460938 L 60.304688 130.039062 L 54.59375 130.0625 L 54.519531 119.546875 L 54.519531 119.53125 L 54.441406 119.53125 L 54.519531 119.535156 L 54.519531 119.53125 L 54.441406 119.53125 L 54.519531 119.535156 C 54.519531 118.828125 54.589844 118.144531 54.722656 117.460938 L 52.351562 117.007812 L 52.359375 119.417969 L 278.761719 118.417969 L 278.75 116.007812 L 276.382812 116.484375 C 276.519531 117.175781 276.601562 117.875 276.601562 118.597656 L 276.601562 118.589844 L 276.625 131.488281 L 279.039062 131.484375 L 279.027344 129.074219 L 279.039062 131.484375 " fill-opacity="1" fill-rule="nonzero"/></g><path fill="#e7e6e6" d="M 106.359375 154.757812 C 106.039062 149.558594 100.371094 145.367188 93.707031 145.398438 C 87.039062 145.429688 81.996094 149.664062 82.441406 154.863281 L 98.816406 346.425781 C 99.261719 351.621094 103.929688 355.816406 109.242188 355.792969 C 114.558594 355.769531 118.601562 351.535156 118.277344 346.339844 L 106.359375 154.757812 " fill-opacity="1" fill-rule="nonzero"/><path fill="#330e12" d="M 106.359375 154.757812 L 108.769531 154.605469 C 108.664062 152.894531 108.117188 151.28125 107.257812 149.863281 C 105.96875 147.734375 104.007812 146.03125 101.6875 144.84375 C 99.359375 143.660156 96.644531 142.988281 93.773438 142.984375 L 93.742188 142.984375 L 93.605469 142.988281 L 93.707031 145.398438 L 93.695312 142.988281 C 90.011719 143.007812 86.675781 144.125 84.167969 146.089844 C 82.917969 147.070312 81.875 148.273438 81.144531 149.652344 C 80.410156 151.03125 79.996094 152.597656 79.996094 154.226562 C 79.996094 154.503906 80.007812 154.785156 80.035156 155.070312 L 80.035156 155.066406 L 96.410156 346.628906 C 96.695312 349.886719 98.277344 352.773438 100.574219 354.84375 C 102.867188 356.910156 105.910156 358.203125 109.199219 358.203125 L 109.230469 358.203125 L 109.21875 356.652344 L 109.199219 358.203125 L 109.230469 358.203125 L 109.21875 356.652344 L 109.199219 358.203125 L 109.222656 356.09375 L 109.085938 358.199219 L 109.199219 358.203125 L 109.222656 356.09375 L 109.085938 358.199219 L 109.171875 358.203125 L 109.253906 358.203125 C 112.429688 358.191406 115.316406 356.953125 117.382812 354.910156 C 119.457031 352.878906 120.714844 350.027344 120.710938 346.921875 C 120.710938 346.675781 120.703125 346.433594 120.6875 346.1875 L 108.769531 154.605469 L 106.359375 154.757812 L 103.953125 154.902344 L 115.867188 346.488281 C 115.878906 346.632812 115.882812 346.777344 115.882812 346.921875 C 115.878906 348.734375 115.167969 350.316406 113.992188 351.480469 C 112.8125 352.640625 111.171875 353.371094 109.230469 353.382812 L 109.242188 355.792969 L 109.398438 353.390625 L 109.21875 353.382812 L 109.191406 353.382812 L 109.199219 354.53125 L 109.199219 353.382812 L 109.191406 353.382812 L 109.199219 354.53125 L 109.199219 353.382812 C 107.199219 353.386719 105.269531 352.582031 103.808594 351.265625 C 102.34375 349.941406 101.382812 348.144531 101.222656 346.21875 L 84.84375 154.65625 C 84.832031 154.507812 84.824219 154.371094 84.824219 154.226562 C 84.828125 153.402344 85.023438 152.644531 85.410156 151.910156 C 85.988281 150.820312 87.015625 149.796875 88.449219 149.042969 C 89.878906 148.289062 91.683594 147.816406 93.71875 147.808594 L 93.777344 147.804688 L 93.808594 147.804688 L 93.742188 146.175781 L 93.742188 147.804688 L 93.808594 147.804688 L 93.742188 146.175781 L 93.742188 147.804688 L 93.773438 147.804688 C 96.582031 147.800781 99.167969 148.707031 100.996094 150.066406 C 101.910156 150.75 102.628906 151.53125 103.125 152.355469 C 103.621094 153.179688 103.894531 154.027344 103.953125 154.902344 L 106.359375 154.757812 " fill-opacity="1" fill-rule="nonzero"/><path fill="#e7e6e6" d="M 153.90625 154.546875 C 153.824219 149.347656 148.355469 145.15625 141.6875 145.1875 C 135.019531 145.21875 129.78125 149.453125 129.984375 154.652344 L 137.496094 346.253906 C 137.699219 351.453125 142.175781 355.648438 147.488281 355.625 C 152.800781 355.601562 157.039062 351.367188 156.957031 346.171875 L 153.90625 154.546875 " fill-opacity="1" fill-rule="nonzero"/><path fill="#330e12" d="M 153.90625 154.546875 L 156.320312 154.507812 C 156.296875 152.792969 155.820312 151.164062 155.015625 149.726562 C 153.808594 147.566406 151.90625 145.839844 149.613281 144.644531 C 147.320312 143.449219 144.625 142.777344 141.753906 142.777344 L 141.589844 142.777344 L 141.6875 145.1875 L 141.675781 142.777344 C 137.902344 142.796875 134.46875 143.96875 131.886719 145.988281 C 130.597656 147 129.519531 148.234375 128.757812 149.65625 C 127.996094 151.074219 127.5625 152.679688 127.5625 154.359375 C 127.5625 154.484375 127.566406 154.617188 127.574219 154.753906 L 127.570312 154.746094 L 135.085938 346.347656 C 135.214844 349.605469 136.675781 352.542969 138.902344 354.636719 C 141.125 356.734375 144.148438 358.035156 147.4375 358.035156 L 147.492188 358.035156 L 147.484375 357.597656 L 147.488281 358.035156 L 147.492188 358.035156 L 147.484375 357.597656 L 147.488281 358.035156 L 147.464844 355.902344 L 147.277344 358.027344 C 147.375 358.035156 147.441406 358.035156 147.472656 358.035156 C 147.480469 358.035156 147.488281 358.035156 147.488281 358.035156 L 147.464844 355.902344 L 147.277344 358.027344 L 147.382812 358.035156 L 147.496094 358.035156 C 150.765625 358.023438 153.746094 356.714844 155.890625 354.601562 C 158.039062 352.496094 159.375 349.550781 159.375 346.316406 L 159.371094 346.140625 L 159.371094 346.128906 L 156.320312 154.507812 L 151.492188 154.582031 L 154.542969 346.207031 L 154.542969 346.195312 L 154.546875 346.316406 C 154.542969 348.214844 153.777344 349.910156 152.5 351.167969 C 151.226562 352.421875 149.46875 353.203125 147.476562 353.210938 L 147.488281 355.625 L 147.695312 353.21875 C 147.574219 353.210938 147.488281 353.210938 147.445312 353.210938 L 147.410156 353.210938 L 147.4375 354.90625 L 147.4375 353.210938 L 147.410156 353.210938 L 147.4375 354.90625 L 147.4375 353.210938 C 145.433594 353.210938 143.589844 352.421875 142.214844 351.128906 C 140.847656 349.832031 139.988281 348.082031 139.910156 346.160156 L 132.394531 154.558594 L 132.394531 154.554688 L 132.390625 154.359375 C 132.394531 153.503906 132.605469 152.703125 133.019531 151.929688 C 133.632812 150.773438 134.734375 149.691406 136.238281 148.894531 C 137.738281 148.101562 139.617188 147.605469 141.695312 147.597656 L 141.738281 147.597656 L 141.78125 147.59375 L 141.722656 146.066406 L 141.722656 147.597656 L 141.78125 147.59375 L 141.722656 146.066406 L 141.722656 147.597656 L 141.753906 147.597656 C 144.566406 147.59375 147.082031 148.496094 148.816406 149.832031 C 149.683594 150.5 150.351562 151.269531 150.796875 152.070312 C 151.246094 152.878906 151.476562 153.707031 151.492188 154.582031 L 153.90625 154.546875 " fill-opacity="1" fill-rule="nonzero"/><path fill="#e7e6e6" d="M 201.453125 154.339844 C 201.609375 149.136719 196.335938 144.941406 189.664062 144.972656 C 183 145.003906 177.566406 149.242188 177.527344 154.441406 L 176.175781 346.082031 C 176.140625 351.28125 180.414062 355.480469 185.730469 355.453125 C 191.042969 355.429688 195.480469 351.195312 195.636719 345.996094 L 201.453125 154.339844 " fill-opacity="1" fill-rule="nonzero"/><path fill="#330e12" d="M 201.453125 154.339844 L 203.867188 154.40625 C 203.867188 154.308594 203.871094 154.210938 203.871094 154.109375 C 203.871094 152.429688 203.4375 150.816406 202.671875 149.398438 C 201.523438 147.265625 199.675781 145.5625 197.441406 144.390625 C 195.203125 143.21875 192.5625 142.5625 189.738281 142.5625 L 189.6875 142.5625 L 189.519531 142.566406 L 189.664062 144.972656 L 189.65625 142.5625 C 185.8125 142.585938 182.289062 143.796875 179.625 145.871094 C 178.296875 146.90625 177.183594 148.164062 176.386719 149.613281 C 175.59375 151.0625 175.125 152.703125 175.113281 154.425781 L 173.761719 346.070312 L 173.761719 346.058594 L 173.761719 346.152344 C 173.761719 349.394531 175.105469 352.347656 177.265625 354.457031 C 179.417969 356.570312 182.410156 357.863281 185.683594 357.863281 L 185.683594 355.9375 L 185.507812 357.855469 L 185.683594 357.863281 L 185.683594 355.9375 L 185.507812 357.855469 L 185.625 357.863281 L 185.742188 357.863281 C 189.042969 357.851562 192.070312 356.527344 194.285156 354.410156 C 196.5 352.296875 197.949219 349.34375 198.046875 346.074219 L 203.867188 154.410156 L 201.453125 154.339844 L 199.035156 154.265625 L 193.222656 345.925781 C 193.164062 347.851562 192.3125 349.617188 190.949219 350.925781 C 189.578125 352.230469 187.730469 353.035156 185.71875 353.042969 L 185.730469 355.453125 L 185.953125 353.054688 C 185.84375 353.042969 185.75 353.042969 185.683594 353.042969 C 183.691406 353.042969 181.929688 352.261719 180.644531 351.011719 C 179.367188 349.753906 178.59375 348.058594 178.589844 346.152344 L 178.589844 346.101562 L 179.941406 154.460938 C 179.949219 153.578125 180.179688 152.742188 180.621094 151.929688 C 181.28125 150.71875 182.464844 149.574219 184.035156 148.742188 C 185.609375 147.90625 187.558594 147.394531 189.675781 147.382812 L 189.75 147.382812 L 189.816406 147.378906 L 189.703125 145.578125 L 189.714844 147.382812 L 189.816406 147.378906 L 189.703125 145.578125 L 189.714844 147.382812 L 189.710938 146.882812 L 189.707031 147.382812 L 189.714844 147.382812 L 189.710938 146.882812 L 189.707031 147.382812 L 189.738281 147.382812 C 192.503906 147.378906 194.925781 148.253906 196.558594 149.535156 C 197.378906 150.175781 198.003906 150.910156 198.414062 151.679688 C 198.828125 152.453125 199.035156 153.25 199.039062 154.109375 L 199.035156 154.265625 L 201.453125 154.339844 " fill-opacity="1" fill-rule="nonzero"/><path fill="#e7e6e6" d="M 249 154.125 C 249.394531 148.925781 244.3125 144.734375 237.648438 144.761719 C 230.980469 144.792969 225.351562 149.03125 225.078125 154.234375 L 214.855469 345.914062 C 214.578125 351.113281 218.660156 355.308594 223.976562 355.289062 C 229.285156 355.265625 233.914062 351.027344 234.316406 345.828125 L 249 154.125 " fill-opacity="1" fill-rule="nonzero"/><path fill="#330e12" d="M 249 154.125 L 251.40625 154.308594 C 251.425781 154.054688 251.433594 153.804688 251.433594 153.554688 C 251.4375 151.925781 251.023438 150.355469 250.285156 148.976562 C 249.179688 146.902344 247.386719 145.242188 245.21875 144.109375 C 243.046875 142.976562 240.476562 142.351562 237.714844 142.351562 L 237.667969 142.351562 L 237.492188 142.359375 L 237.648438 144.761719 L 237.636719 142.351562 C 233.796875 142.375 230.238281 143.585938 227.511719 145.632812 C 226.148438 146.660156 224.992188 147.898438 224.140625 149.332031 C 223.292969 150.761719 222.753906 152.386719 222.660156 154.105469 L 212.441406 345.785156 C 212.429688 345.992188 212.425781 346.199219 212.425781 346.410156 C 212.421875 349.539062 213.691406 352.394531 215.773438 354.429688 C 217.851562 356.46875 220.75 357.699219 223.933594 357.699219 L 223.980469 357.695312 L 223.949219 355.6875 L 223.90625 357.695312 L 223.980469 357.695312 L 223.949219 355.6875 L 223.90625 357.695312 L 223.957031 355.421875 L 223.648438 357.675781 C 223.761719 357.691406 223.847656 357.695312 223.90625 357.695312 L 223.957031 355.421875 L 223.648438 357.675781 L 223.816406 357.699219 L 223.980469 357.699219 C 227.289062 357.679688 230.332031 356.371094 232.617188 354.277344 C 234.90625 352.1875 236.46875 349.277344 236.722656 346.011719 L 251.40625 154.308594 L 249 154.125 L 246.59375 153.945312 L 231.910156 345.644531 C 231.761719 347.574219 230.816406 349.382812 229.355469 350.722656 C 227.898438 352.054688 225.972656 352.867188 223.964844 352.875 L 223.976562 355.289062 L 224.300781 352.898438 C 224.132812 352.875 224.011719 352.875 223.953125 352.875 L 223.898438 352.875 L 223.933594 354.6875 L 223.933594 352.875 L 223.898438 352.875 L 223.933594 354.6875 L 223.933594 352.875 C 221.992188 352.871094 220.339844 352.144531 219.15625 350.984375 C 217.972656 349.820312 217.257812 348.238281 217.253906 346.410156 C 217.253906 346.289062 217.257812 346.167969 217.265625 346.042969 L 227.488281 154.363281 C 227.53125 153.476562 227.804688 152.625 228.292969 151.792969 C 229.03125 150.550781 230.289062 149.382812 231.925781 148.539062 C 233.554688 147.695312 235.542969 147.179688 237.660156 147.171875 L 237.730469 147.171875 L 237.800781 147.167969 L 237.683594 145.328125 L 237.695312 147.171875 L 237.800781 147.167969 L 237.683594 145.328125 L 237.695312 147.171875 L 237.6875 146.550781 L 237.6875 147.171875 L 237.695312 147.171875 L 237.6875 146.550781 L 237.6875 147.171875 L 237.714844 147.171875 C 240.421875 147.167969 242.734375 148.003906 244.277344 149.214844 C 245.050781 149.816406 245.632812 150.511719 246.019531 151.238281 C 246.402344 151.96875 246.605469 152.730469 246.605469 153.554688 C 246.605469 153.683594 246.601562 153.8125 246.59375 153.945312 L 249 154.125 " fill-opacity="1" fill-rule="nonzero"/><path fill="#c4c3c3" d="M 205.359375 53.09375 L 220.042969 34.117188 C 222.164062 31.378906 226.097656 30.878906 228.835938 32.992188 L 273.40625 67.390625 C 276.144531 69.503906 276.648438 73.4375 274.53125 76.171875 L 259.847656 95.144531 L 269.878906 102.890625 L 287.972656 79.515625 C 292.867188 73.191406 291.695312 64.070312 285.363281 59.183594 L 233.773438 19.363281 C 227.445312 14.476562 218.3125 15.644531 213.417969 21.96875 L 195.324219 45.347656 L 205.359375 53.09375 " fill-opacity="1" fill-rule="nonzero"/><path fill="#330e12" d="M 205.359375 53.09375 L 207.269531 54.566406 L 221.953125 35.589844 C 222.71875 34.605469 223.847656 34.101562 225.007812 34.097656 C 225.839844 34.097656 226.648438 34.351562 227.359375 34.898438 L 271.925781 69.300781 C 272.914062 70.0625 273.421875 71.1875 273.425781 72.347656 C 273.425781 73.171875 273.167969 73.988281 272.617188 74.699219 L 256.457031 95.578125 L 270.3125 106.277344 L 289.882812 80.988281 C 292.257812 77.921875 293.410156 74.269531 293.410156 70.667969 C 293.414062 65.621094 291.152344 60.601562 286.84375 57.277344 L 235.25 17.453125 C 232.179688 15.085938 228.523438 13.933594 224.917969 13.933594 C 219.863281 13.929688 214.835938 16.1875 211.507812 20.496094 L 191.9375 45.78125 L 205.792969 56.476562 L 207.269531 54.566406 L 205.359375 53.09375 L 206.835938 51.183594 L 198.710938 44.914062 L 215.328125 23.445312 C 217.710938 20.363281 221.285156 18.757812 224.917969 18.753906 C 227.507812 18.753906 230.09375 19.570312 232.296875 21.269531 L 283.890625 61.089844 C 286.96875 63.46875 288.578125 67.039062 288.582031 70.667969 C 288.578125 73.253906 287.765625 75.835938 286.0625 78.039062 L 269.449219 99.507812 L 263.230469 94.714844 L 276.4375 77.644531 C 277.65625 76.074219 278.257812 74.195312 278.253906 72.347656 C 278.257812 69.765625 277.089844 67.1875 274.878906 65.484375 L 230.3125 31.082031 C 228.738281 29.863281 226.855469 29.269531 225.007812 29.273438 C 222.421875 29.269531 219.839844 30.4375 218.132812 32.644531 L 203.449219 51.617188 L 205.359375 53.09375 L 206.835938 51.183594 L 205.359375 53.09375 " fill-opacity="1" fill-rule="nonzero"/><path fill="#c4c3c3" d="M 309.457031 160.03125 C 309.617188 159.847656 309.785156 159.671875 309.9375 159.472656 L 320.265625 146.125 C 324.734375 140.359375 323.667969 132.066406 317.890625 127.605469 L 159.277344 5.175781 C 153.5 0.714844 145.195312 1.777344 140.730469 7.550781 L 130.398438 20.898438 C 130.246094 21.09375 130.117188 21.296875 129.980469 21.5 L 309.457031 160.03125 " fill-opacity="1" fill-rule="nonzero"/><g clip-path="url(#0f8b8b9997)"><path fill="#330e12" d="M 309.457031 160.03125 L 311.28125 161.613281 C 311.394531 161.476562 311.601562 161.265625 311.847656 160.945312 L 311.84375 160.953125 L 322.175781 147.601562 C 324.371094 144.765625 325.441406 141.390625 325.441406 138.058594 C 325.445312 133.398438 323.347656 128.769531 319.367188 125.699219 L 160.75 3.269531 C 157.914062 1.074219 154.535156 0.00390625 151.199219 0.00390625 C 146.53125 0.00390625 141.894531 2.09375 138.820312 6.074219 L 128.550781 19.339844 L 128.496094 19.414062 C 128.246094 19.734375 128.089844 19.988281 127.980469 20.144531 L 126.707031 22.015625 L 309.785156 163.332031 L 311.28125 161.613281 L 309.457031 160.03125 L 310.933594 158.125 L 131.457031 19.589844 L 129.980469 21.5 L 131.972656 22.855469 C 132.148438 22.605469 132.246094 22.449219 132.304688 22.378906 L 142.640625 9.023438 C 144.773438 6.265625 147.957031 4.832031 151.199219 4.824219 C 153.511719 4.828125 155.824219 5.558594 157.796875 7.082031 L 316.414062 129.515625 C 319.171875 131.644531 320.609375 134.824219 320.613281 138.058594 C 320.609375 140.367188 319.882812 142.679688 318.355469 144.652344 L 308.023438 158 L 308.019531 158.003906 C 307.96875 158.078125 307.839844 158.21875 307.632812 158.453125 L 309.457031 160.03125 L 310.933594 158.125 L 309.457031 160.03125 " fill-opacity="1" fill-rule="nonzero"/></g><g clip-path="url(#15dc8432c8)"><path fill="#bdbcbd" d="M 309.785156 163.335938 L 301.222656 156.722656 L 309.785156 163.332031 L 311.28125 161.613281 C 311.328125 161.554688 311.394531 161.484375 311.472656 161.394531 C 311.449219 161.421875 311.425781 161.449219 311.398438 161.476562 L 309.785156 163.335938 M 311.652344 161.1875 C 311.714844 161.113281 311.777344 161.035156 311.847656 160.945312 L 311.84375 160.953125 L 318.347656 152.550781 L 311.84375 160.953125 C 311.78125 161.03125 311.71875 161.109375 311.652344 161.1875 M 322.761719 146.796875 C 324.5625 144.140625 325.441406 141.082031 325.441406 138.058594 C 325.441406 137.707031 325.429688 137.351562 325.40625 136.996094 C 325.644531 140.484375 324.722656 143.902344 322.761719 146.796875 M 325.148438 135.039062 C 324.441406 131.457031 322.480469 128.101562 319.367188 125.699219 L 279.25 94.726562 L 319.367188 125.699219 C 322.394531 128.035156 324.421875 131.320312 325.148438 135.039062 M 284.082031 88.484375 L 289.882812 80.988281 C 291.625 78.742188 292.707031 76.183594 293.164062 73.558594 C 292.710938 76.183594 291.628906 78.738281 289.882812 80.988281 L 284.082031 88.484375 M 270.667969 77.214844 L 272.621094 74.695312 C 272.640625 74.667969 272.65625 74.644531 272.679688 74.617188 C 272.65625 74.648438 272.640625 74.671875 272.617188 74.699219 L 270.667969 77.214844 M 293.164062 73.554688 C 293.164062 73.550781 293.167969 73.546875 293.167969 73.546875 C 293.167969 73.546875 293.164062 73.550781 293.164062 73.554688 M 272.785156 70.21875 C 272.554688 69.875 272.269531 69.558594 271.929688 69.300781 L 265.878906 64.632812 C 265.878906 64.632812 265.878906 64.632812 265.878906 64.628906 L 271.925781 69.300781 C 272.273438 69.5625 272.558594 69.878906 272.785156 70.21875 M 287.546875 57.851562 C 287.542969 57.847656 287.539062 57.84375 287.535156 57.839844 C 287.539062 57.84375 287.542969 57.847656 287.546875 57.851562 M 287.527344 57.832031 C 287.519531 57.828125 287.515625 57.820312 287.507812 57.816406 C 287.515625 57.820312 287.519531 57.828125 287.527344 57.832031 M 287.507812 57.816406 C 287.289062 57.632812 287.070312 57.453125 286.84375 57.277344 L 243.644531 23.933594 L 286.84375 57.277344 C 287.070312 57.453125 287.289062 57.632812 287.507812 57.816406 " fill-opacity="1" fill-rule="nonzero"/></g><path fill="#949293" d="M 275.425781 91.78125 L 275.175781 91.585938 C 274.351562 88.613281 273.464844 85.65625 272.519531 82.714844 L 276.4375 77.644531 C 277.65625 76.074219 278.257812 74.195312 278.253906 72.347656 C 278.257812 69.765625 277.089844 67.1875 274.878906 65.484375 L 261.894531 55.460938 C 260.117188 51.574219 258.246094 47.707031 256.285156 43.871094 C 255.046875 41.445312 253.722656 39.066406 252.324219 36.730469 L 283.890625 61.089844 C 286.96875 63.46875 288.578125 67.039062 288.582031 70.667969 C 288.578125 73.253906 287.765625 75.835938 286.0625 78.039062 L 275.425781 91.78125 " fill-opacity="1" fill-rule="nonzero"/><path fill="#290b0d" d="M 279.25 94.726562 L 275.425781 91.78125 L 286.0625 78.039062 C 287.765625 75.835938 288.578125 73.253906 288.582031 70.667969 C 288.578125 67.039062 286.96875 63.46875 283.890625 61.089844 L 252.324219 36.730469 C 249.941406 32.742188 247.339844 28.890625 244.5625 25.171875 C 244.257812 24.761719 243.953125 24.34375 243.644531 23.933594 L 286.84375 57.277344 C 287.070312 57.453125 287.289062 57.632812 287.507812 57.816406 C 287.515625 57.820312 287.519531 57.828125 287.527344 57.832031 C 287.53125 57.835938 287.53125 57.835938 287.535156 57.839844 C 287.539062 57.84375 287.542969 57.847656 287.546875 57.851562 C 292.171875 61.828125 294.148438 67.855469 293.167969 73.546875 C 293.167969 73.546875 293.164062 73.550781 293.164062 73.554688 C 293.164062 73.558594 293.164062 73.558594 293.164062 73.558594 C 292.707031 76.183594 291.625 78.742188 289.882812 80.988281 L 284.082031 88.484375 L 279.25 94.726562 M 272.519531 82.714844 C 271.925781 80.875 271.3125 79.039062 270.667969 77.214844 L 272.617188 74.699219 C 272.640625 74.671875 272.65625 74.648438 272.679688 74.617188 C 273.269531 73.816406 273.523438 72.84375 273.394531 71.855469 C 273.316406 71.261719 273.109375 70.710938 272.789062 70.222656 C 272.789062 70.222656 272.785156 70.21875 272.785156 70.21875 C 272.558594 69.878906 272.273438 69.5625 271.925781 69.300781 L 265.878906 64.628906 C 264.609375 61.558594 263.28125 58.5 261.894531 55.460938 L 274.878906 65.484375 C 277.089844 67.1875 278.257812 69.765625 278.253906 72.347656 C 278.257812 74.195312 277.65625 76.074219 276.4375 77.644531 L 272.519531 82.714844 " fill-opacity="1" fill-rule="nonzero"/><path fill="#949293" d="M 309.054688 156.671875 L 282.363281 136.070312 C 281.789062 123.476562 279.984375 111.195312 277.132812 99.191406 L 316.414062 129.515625 C 319.171875 131.644531 320.609375 134.824219 320.613281 138.058594 C 320.609375 140.367188 319.882812 142.679688 318.355469 144.652344 L 309.054688 156.671875 " fill-opacity="1" fill-rule="nonzero"/><g clip-path="url(#6a0e05829c)"><path fill="#290b0d" d="M 309.785156 163.332031 L 301.222656 156.722656 L 282.539062 142.300781 C 282.539062 142.109375 282.539062 141.917969 282.535156 141.726562 C 282.503906 139.832031 282.449219 137.949219 282.363281 136.070312 L 309.054688 156.671875 L 318.355469 144.652344 C 319.882812 142.679688 320.609375 140.367188 320.613281 138.058594 C 320.609375 134.824219 319.171875 131.644531 316.414062 129.515625 L 277.132812 99.191406 C 276.523438 96.640625 275.871094 94.109375 275.175781 91.585938 L 275.425781 91.78125 L 279.25 94.726562 L 319.367188 125.699219 C 322.480469 128.101562 324.441406 131.457031 325.148438 135.039062 C 325.214844 135.375 325.273438 135.71875 325.3125 136.066406 C 325.355469 136.378906 325.386719 136.6875 325.40625 136.996094 C 325.429688 137.351562 325.441406 137.707031 325.441406 138.058594 C 325.441406 141.082031 324.5625 144.140625 322.761719 146.796875 C 322.574219 147.070312 322.378906 147.339844 322.175781 147.597656 L 318.347656 152.550781 L 311.84375 160.953125 L 311.847656 160.945312 C 311.777344 161.035156 311.714844 161.113281 311.652344 161.1875 C 311.59375 161.257812 311.53125 161.328125 311.472656 161.394531 C 311.394531 161.484375 311.328125 161.554688 311.28125 161.613281 L 309.785156 163.332031 M 309.457031 160.03125 L 310.933594 158.125 L 309.457031 160.03125 " fill-opacity="1" fill-rule="nonzero"/></g><path fill="#bdbcbd" d="M 93.796875 374.992188 C 93.441406 374.992188 93.089844 374.976562 92.746094 374.949219 C 93.089844 374.976562 93.441406 374.992188 93.796875 374.992188 L 93.828125 374.992188 L 239.535156 374.347656 C 239.90625 374.347656 240.277344 374.328125 240.644531 374.296875 C 240.277344 374.328125 239.90625 374.347656 239.535156 374.347656 L 93.796875 374.992188 M 80.148438 363.292969 C 80.113281 363.070312 80.082031 362.847656 80.054688 362.621094 C 80.082031 362.847656 80.113281 363.070312 80.148438 363.292969 M 253.0625 362.949219 C 253.128906 362.589844 253.179688 362.222656 253.21875 361.855469 L 266.867188 222.828125 C 266.867188 222.824219 266.867188 222.824219 266.867188 222.824219 L 253.21875 361.855469 C 253.183594 362.222656 253.128906 362.589844 253.0625 362.949219 " fill-opacity="1" fill-rule="nonzero"/><path fill="#949293" d="M 93.847656 370.171875 L 93.789062 370.171875 C 93.789062 370.171875 93.785156 370.171875 93.785156 370.171875 C 91.617188 370.171875 89.492188 369.28125 87.847656 367.800781 C 86.203125 366.320312 85.089844 364.285156 84.859375 362.105469 L 84.421875 357.996094 C 89.851562 357.054688 95.242188 356 100.578125 354.847656 C 102.863281 356.902344 105.886719 358.191406 109.160156 358.203125 L 109.253906 358.203125 C 112.429688 358.191406 115.316406 356.953125 117.382812 354.910156 C 118.847656 353.476562 119.90625 351.628906 120.402344 349.574219 C 125.3125 348.023438 130.1875 346.316406 135.011719 344.480469 L 135.085938 346.347656 C 135.214844 349.605469 136.675781 352.542969 138.902344 354.636719 C 141.113281 356.71875 144.109375 358.019531 147.378906 358.035156 L 147.496094 358.035156 C 150.765625 358.023438 153.746094 356.714844 155.890625 354.601562 C 158.039062 352.496094 159.375 349.550781 159.375 346.316406 L 159.371094 346.140625 L 159.371094 346.128906 L 159.183594 334.078125 C 162.144531 332.664062 165.078125 331.214844 167.984375 329.734375 C 169.980469 328.726562 171.949219 327.667969 173.898438 326.570312 L 173.761719 346.070312 L 173.761719 346.058594 L 173.761719 346.152344 C 173.761719 349.394531 175.105469 352.347656 177.265625 354.457031 C 179.398438 356.550781 182.363281 357.847656 185.601562 357.863281 L 185.742188 357.863281 C 189.042969 357.851562 192.070312 356.527344 194.285156 354.410156 C 196.5 352.296875 197.949219 349.34375 198.046875 346.074219 L 199.15625 309.511719 C 204.589844 305.441406 209.949219 301.226562 215.054688 296.753906 L 212.441406 345.785156 C 212.429688 345.992188 212.425781 346.199219 212.425781 346.410156 C 212.421875 349.539062 213.691406 352.394531 215.773438 354.429688 C 217.820312 356.441406 220.667969 357.664062 223.796875 357.695312 L 223.816406 357.699219 L 223.980469 357.699219 C 227.289062 357.679688 230.332031 356.371094 232.617188 354.277344 C 234.90625 352.1875 236.46875 349.277344 236.722656 346.011719 L 242.855469 265.972656 C 245.730469 262.078125 248.503906 258.121094 251.195312 254.152344 C 254.824219 248.792969 257.859375 243.121094 260.59375 237.300781 L 248.410156 361.382812 C 248.199219 363.574219 247.097656 365.617188 245.460938 367.117188 C 243.824219 368.617188 241.691406 369.523438 239.511719 369.527344 L 93.847656 370.171875 " fill-opacity="1" fill-rule="nonzero"/><path fill="#290b0d" d="M 93.796875 374.992188 C 93.441406 374.992188 93.089844 374.976562 92.746094 374.949219 C 86.558594 374.4375 81.144531 369.457031 80.148438 363.292969 C 80.113281 363.070312 80.082031 362.847656 80.054688 362.621094 L 79.648438 358.796875 C 81.242188 358.542969 82.832031 358.277344 84.421875 357.996094 L 84.859375 362.105469 C 85.089844 364.285156 86.203125 366.320312 87.847656 367.800781 C 89.492188 369.28125 91.617188 370.171875 93.785156 370.171875 C 93.785156 370.171875 93.789062 370.171875 93.789062 370.171875 L 93.847656 370.171875 L 239.511719 369.527344 C 241.691406 369.523438 243.824219 368.617188 245.460938 367.117188 C 247.097656 365.617188 248.199219 363.574219 248.410156 361.382812 L 260.59375 237.300781 C 262.828125 232.546875 264.863281 227.695312 266.867188 222.828125 L 253.21875 361.855469 C 253.179688 362.222656 253.128906 362.589844 253.0625 362.949219 C 251.949219 368.9375 246.691406 373.742188 240.644531 374.296875 C 240.277344 374.328125 239.90625 374.347656 239.535156 374.347656 L 93.828125 374.992188 L 93.796875 374.992188 " fill-opacity="1" fill-rule="nonzero"/><path fill="#acabab" d="M 109.246094 353.382812 L 109.191406 353.382812 C 108.644531 353.382812 108.109375 353.320312 107.585938 353.210938 C 109.722656 352.671875 111.847656 352.101562 113.972656 351.496094 C 112.796875 352.644531 111.167969 353.367188 109.246094 353.382812 " fill-opacity="1" fill-rule="nonzero"/><path fill="#290b0d" d="M 109.171875 358.203125 L 109.160156 358.203125 C 105.886719 358.191406 102.863281 356.902344 100.578125 354.847656 C 100.679688 354.828125 100.777344 354.804688 100.878906 354.78125 C 103.121094 354.296875 105.355469 353.773438 107.585938 353.210938 C 108.109375 353.320312 108.644531 353.382812 109.191406 353.382812 L 109.246094 353.382812 C 111.167969 353.367188 112.796875 352.644531 113.972656 351.496094 C 116.121094 350.886719 118.265625 350.246094 120.402344 349.574219 C 119.90625 351.628906 118.847656 353.476562 117.382812 354.910156 C 115.316406 356.953125 112.429688 358.191406 109.253906 358.203125 L 109.171875 358.203125 " fill-opacity="1" fill-rule="nonzero"/><path fill="#acabab" d="M 147.519531 353.210938 C 147.492188 353.210938 147.476562 353.210938 147.457031 353.210938 C 147.453125 353.210938 147.449219 353.210938 147.445312 353.210938 L 147.414062 353.210938 C 145.417969 353.203125 143.582031 352.414062 142.214844 351.128906 C 140.847656 349.832031 139.988281 348.082031 139.910156 346.160156 L 139.769531 342.617188 C 144.703125 340.640625 149.578125 338.53125 154.386719 336.320312 L 154.542969 346.207031 L 154.546875 346.316406 C 154.542969 348.214844 153.777344 349.910156 152.5 351.167969 C 151.238281 352.414062 149.492188 353.191406 147.519531 353.210938 " fill-opacity="1" fill-rule="nonzero"/><path fill="#290b0d" d="M 147.382812 358.035156 L 147.378906 358.035156 C 144.109375 358.019531 141.113281 356.71875 138.902344 354.636719 C 136.675781 352.542969 135.214844 349.605469 135.085938 346.347656 L 135.011719 344.480469 C 136.601562 343.871094 138.191406 343.253906 139.769531 342.617188 L 139.910156 346.160156 C 139.988281 348.082031 140.847656 349.832031 142.214844 351.128906 C 143.582031 352.414062 145.417969 353.203125 147.414062 353.210938 L 147.445312 353.210938 C 147.449219 353.210938 147.453125 353.210938 147.457031 353.210938 C 147.476562 353.210938 147.492188 353.210938 147.519531 353.210938 C 149.492188 353.191406 151.238281 352.414062 152.5 351.167969 C 153.777344 349.910156 154.542969 348.214844 154.546875 346.316406 L 154.542969 346.203125 L 154.386719 336.320312 C 155.992188 335.582031 157.589844 334.835938 159.183594 334.078125 L 159.371094 346.128906 L 159.371094 346.140625 L 159.375 346.316406 C 159.375 349.550781 158.039062 352.496094 155.890625 354.601562 C 153.746094 356.714844 150.765625 358.023438 147.496094 358.035156 L 147.382812 358.035156 " fill-opacity="1" fill-rule="nonzero"/><path fill="#acabab" d="M 185.785156 353.042969 C 185.753906 353.042969 185.722656 353.042969 185.695312 353.042969 C 185.691406 353.042969 185.6875 353.042969 185.683594 353.042969 C 183.691406 353.042969 181.929688 352.261719 180.644531 351.011719 C 179.367188 349.753906 178.59375 348.058594 178.589844 346.152344 L 178.589844 346.101562 L 178.746094 323.726562 C 182.351562 321.53125 185.871094 319.195312 189.296875 316.726562 C 190.933594 315.546875 192.574219 314.359375 194.214844 313.164062 L 193.222656 345.925781 C 193.164062 347.851562 192.3125 349.617188 190.949219 350.925781 C 189.59375 352.21875 187.773438 353.019531 185.785156 353.042969 " fill-opacity="1" fill-rule="nonzero"/><path fill="#290b0d" d="M 185.625 357.863281 L 185.601562 357.863281 C 182.363281 357.847656 179.398438 356.550781 177.265625 354.457031 C 175.105469 352.347656 173.761719 349.394531 173.761719 346.152344 L 173.761719 346.058594 L 173.761719 346.070312 L 173.898438 326.570312 C 175.53125 325.652344 177.148438 324.703125 178.746094 323.726562 L 178.589844 346.101562 L 178.589844 346.152344 C 178.59375 348.058594 179.367188 349.753906 180.644531 351.011719 C 181.929688 352.261719 183.691406 353.042969 185.683594 353.042969 C 185.6875 353.042969 185.691406 353.042969 185.695312 353.042969 C 185.722656 353.042969 185.753906 353.042969 185.785156 353.042969 C 187.773438 353.019531 189.59375 352.21875 190.949219 350.925781 C 192.3125 349.617188 193.164062 347.851562 193.222656 345.925781 L 194.214844 313.164062 C 195.867188 311.957031 197.515625 310.738281 199.15625 309.511719 L 198.046875 346.074219 C 197.949219 349.34375 196.5 352.296875 194.285156 354.410156 C 192.070312 356.527344 189.042969 357.851562 185.742188 357.863281 L 185.625 357.863281 " fill-opacity="1" fill-rule="nonzero"/><path fill="#acabab" d="M 224.019531 352.875 C 223.992188 352.875 223.972656 352.875 223.953125 352.875 L 223.90625 352.875 C 221.980469 352.867188 220.339844 352.136719 219.15625 350.984375 C 217.972656 349.820312 217.257812 348.238281 217.253906 346.410156 C 217.253906 346.289062 217.257812 346.167969 217.265625 346.042969 L 220.136719 292.136719 C 221.335938 290.996094 222.519531 289.847656 223.679688 288.675781 C 228.554688 283.757812 233.136719 278.480469 237.46875 273.011719 L 231.910156 345.644531 C 231.761719 347.574219 230.816406 349.382812 229.355469 350.722656 C 227.914062 352.039062 226.007812 352.855469 224.019531 352.875 " fill-opacity="1" fill-rule="nonzero"/><path fill="#290b0d" d="M 223.816406 357.699219 L 223.796875 357.695312 C 220.667969 357.664062 217.820312 356.441406 215.773438 354.429688 C 213.691406 352.394531 212.421875 349.539062 212.425781 346.410156 C 212.425781 346.199219 212.429688 345.992188 212.441406 345.785156 L 215.054688 296.753906 C 216.78125 295.242188 218.476562 293.707031 220.136719 292.136719 L 217.265625 346.042969 C 217.257812 346.167969 217.253906 346.289062 217.253906 346.410156 C 217.257812 348.238281 217.972656 349.820312 219.15625 350.984375 C 220.339844 352.136719 221.980469 352.867188 223.90625 352.875 L 223.953125 352.875 C 223.972656 352.875 223.992188 352.875 224.019531 352.875 C 226.007812 352.855469 227.914062 352.039062 229.355469 350.722656 C 230.816406 349.382812 231.761719 347.574219 231.910156 345.644531 L 237.46875 273.011719 C 239.308594 270.699219 241.097656 268.347656 242.855469 265.972656 L 236.722656 346.011719 C 236.46875 349.277344 234.90625 352.1875 232.617188 354.277344 C 230.332031 356.371094 227.289062 357.679688 223.980469 357.699219 L 223.816406 357.699219 " fill-opacity="1" fill-rule="nonzero"/></svg>