<svg xmlns="http://www.w3.org/2000/svg" xmlns:xlink="http://www.w3.org/1999/xlink" width="500" zoomAndPan="magnify" viewBox="0 0 375 374.999991" height="500" preserveAspectRatio="xMidYMid meet" version="1.0"><defs><g/><clipPath id="c81b2b61c1"><path d="M 6.570312 0 L 369.714844 0 L 369.714844 375 L 6.570312 375 Z M 6.570312 0 " clip-rule="nonzero"/></clipPath><clipPath id="341d23c9a6"><path d="M 20.820312 0 L 355.464844 0 C 359.242188 0 362.867188 1.5 365.539062 4.171875 C 368.210938 6.847656 369.714844 10.46875 369.714844 14.25 L 369.714844 360.75 C 369.714844 364.527344 368.210938 368.152344 365.539062 370.828125 C 362.867188 373.5 359.242188 375 355.464844 375 L 20.820312 375 C 17.039062 375 13.414062 373.5 10.742188 370.828125 C 8.070312 368.152344 6.570312 364.527344 6.570312 360.75 L 6.570312 14.25 C 6.570312 10.46875 8.070312 6.847656 10.742188 4.171875 C 13.414062 1.5 17.039062 0 20.820312 0 Z M 20.820312 0 " clip-rule="nonzero"/></clipPath><clipPath id="8c49e659d6"><path d="M 238 138.109375 L 326.214844 138.109375 L 326.214844 216 L 238 216 Z M 238 138.109375 " clip-rule="nonzero"/></clipPath><clipPath id="edf7d62b30"><path d="M 194.09375 361.546875 C 245.511719 357.191406 311.847656 340.144531 323.023438 284.402344 C 325.535156 271.875 327.375 262.03125 325.070312 249.582031 C 321.378906 229.664062 317.734375 221.414062 305.367188 205.226562 C 302.445312 201.398438 293.96875 189.933594 292.277344 185.515625 C 287.097656 171.957031 288.101562 167 284.3125 145.230469 C 281.457031 128.808594 259.847656 166.003906 248.402344 166.347656 C 237.40625 166.679688 219.011719 165.347656 205.667969 163.191406 C 199.105469 162.128906 192.242188 161.59375 185.609375 162.320312 C 176.492188 163.324219 151.765625 163.765625 142.902344 160.1875 C 137.914062 158.171875 125.089844 134.386719 117.785156 138.851562 C 110.480469 143.320312 106.515625 168.097656 99.074219 186.992188 C 95.898438 195.042969 96.78125 196.34375 91.179688 202.339844 C 83.347656 210.722656 62.152344 227.230469 62.074219 272.152344 C 62.035156 293.300781 69.105469 323.824219 120.171875 348.554688 C 137.738281 357.058594 174.699219 363.554688 194.09375 361.546875 Z M 194.09375 361.546875 " clip-rule="evenodd"/></clipPath><clipPath id="10068bde18"><path d="M 62 161 L 326.214844 161 L 326.214844 354 L 62 354 Z M 62 161 " clip-rule="nonzero"/></clipPath><clipPath id="22d7a1c2a4"><path d="M 194.09375 361.546875 C 245.511719 357.191406 311.847656 340.144531 323.023438 284.402344 C 325.535156 271.875 327.375 262.03125 325.070312 249.582031 C 321.378906 229.664062 317.734375 221.414062 305.367188 205.226562 C 302.445312 201.398438 293.96875 189.933594 292.277344 185.515625 C 287.097656 171.957031 288.101562 167 284.3125 145.230469 C 281.457031 128.808594 259.847656 166.003906 248.402344 166.347656 C 237.40625 166.679688 219.011719 165.347656 205.667969 163.191406 C 199.105469 162.128906 192.242188 161.59375 185.609375 162.320312 C 176.492188 163.324219 151.765625 163.765625 142.902344 160.1875 C 137.914062 158.171875 125.089844 134.386719 117.785156 138.851562 C 110.480469 143.320312 106.515625 168.097656 99.074219 186.992188 C 95.898438 195.042969 96.78125 196.34375 91.179688 202.339844 C 83.347656 210.722656 62.152344 227.230469 62.074219 272.152344 C 62.035156 293.300781 69.105469 323.824219 120.171875 348.554688 C 137.738281 357.058594 174.699219 363.554688 194.09375 361.546875 Z M 194.09375 361.546875 " clip-rule="evenodd"/></clipPath></defs><g clip-path="url(#c81b2b61c1)"><g clip-path="url(#341d23c9a6)"><path fill="#ff3131" d="M 6.570312 0 L 369.714844 0 L 369.714844 374.492188 L 6.570312 374.492188 Z M 6.570312 0 " fill-opacity="1" fill-rule="nonzero"/></g></g><path fill="#f2e0d3" d="M 194.09375 361.546875 C 245.511719 357.191406 311.847656 340.144531 323.023438 284.402344 C 325.535156 271.875 327.375 262.03125 325.070312 249.582031 C 321.378906 229.664062 317.734375 221.414062 305.367188 205.226562 C 302.445312 201.398438 293.96875 189.933594 292.277344 185.515625 C 287.097656 171.957031 288.101562 167 284.3125 145.230469 C 281.457031 128.808594 259.847656 166.003906 248.402344 166.347656 C 237.40625 166.679688 219.011719 165.347656 205.667969 163.191406 C 199.105469 162.128906 192.242188 161.59375 185.609375 162.320312 C 176.492188 163.324219 151.765625 163.765625 142.902344 160.1875 C 137.914062 158.171875 125.089844 134.386719 117.785156 138.851562 C 110.480469 143.320312 106.515625 168.097656 99.074219 186.992188 C 95.898438 195.042969 96.78125 196.34375 91.179688 202.339844 C 83.347656 210.722656 62.152344 227.230469 62.074219 272.152344 C 62.035156 293.300781 69.105469 323.824219 120.171875 348.554688 C 137.738281 357.058594 174.699219 363.554688 194.09375 361.546875 Z M 194.09375 361.546875 " fill-opacity="1" fill-rule="evenodd"/><g clip-path="url(#8c49e659d6)"><g clip-path="url(#edf7d62b30)"><path fill="#eea065" d="M 244.929688 90.480469 C 238.40625 117.917969 231.855469 177.066406 251.796875 200.015625 C 275.289062 227.054688 338.457031 217.570312 358.558594 181.800781 " fill-opacity="1" fill-rule="evenodd"/></g></g><g clip-path="url(#10068bde18)"><g clip-path="url(#22d7a1c2a4)"><path fill="#343434" d="M 87.160156 161.410156 C 94.113281 168.636719 102.351562 175.089844 108.058594 183.394531 C 144.171875 235.914062 96.152344 256.875 49.414062 243.78125 Z M 295.796875 353.199219 C 292.566406 343.078125 284.921875 331.3125 286.980469 320.265625 C 294.886719 277.855469 316.964844 264.570312 350.699219 257.519531 Z M 295.796875 353.199219 " fill-opacity="1" fill-rule="evenodd"/></g></g><path fill="#484848" d="M 195.832031 292.035156 C 193.835938 295.910156 191.023438 298.003906 188.03125 298.835938 C 181.351562 300.691406 173.234375 295.859375 170.277344 288.195312 C 169.722656 286.765625 170.441406 285.15625 171.875 284.605469 C 173.308594 284.054688 174.921875 284.769531 175.472656 286.199219 C 177.367188 291.101562 182.261719 294.667969 186.539062 293.484375 C 188.242188 293.011719 189.738281 291.703125 190.875 289.496094 C 193.65625 284.085938 193.949219 279.578125 193.828125 274.074219 C 193.757812 271.0625 193.566406 267.777344 193.519531 263.957031 C 191.828125 263.050781 190.386719 261.441406 189.265625 260.089844 C 188.347656 258.988281 186.71875 256.8125 187.015625 255.183594 C 187.875 250.542969 192.601562 252.789062 195.339844 252.828125 C 197.269531 252.855469 199.183594 252.910156 201.113281 252.960938 C 210.046875 253.203125 204.363281 261.054688 199.21875 263.757812 C 199.476562 275.925781 199.1875 283.367188 201.058594 290.082031 C 201.5625 291.890625 202.425781 293.085938 203.605469 293.667969 C 204.824219 294.265625 206.285156 294.226562 207.746094 293.839844 C 211.269531 292.90625 214.839844 289.933594 216.253906 286.261719 C 216.808594 284.832031 218.421875 284.117188 219.851562 284.667969 C 221.285156 285.21875 222.007812 286.828125 221.453125 288.261719 C 219.40625 293.5625 214.265625 297.859375 209.175781 299.207031 C 206.332031 299.960938 203.515625 299.816406 201.144531 298.652344 C 198.84375 297.523438 196.890625 295.433594 195.832031 292.035156 Z M 245.011719 242.734375 C 254.921875 243.191406 252.703125 264.429688 244.445312 263.882812 C 234.058594 263.203125 236.339844 242.332031 245.011719 242.734375 Z M 146.308594 240.464844 C 156.214844 240.925781 154 262.164062 145.742188 261.621094 C 135.355469 260.9375 137.632812 240.066406 146.308594 240.464844 Z M 146.308594 240.464844 " fill-opacity="1" fill-rule="evenodd"/><path fill="#e9a581" d="M 126.335938 268.933594 C 132.503906 268.933594 137.511719 272.0625 137.511719 275.914062 C 137.511719 279.769531 132.503906 282.894531 126.335938 282.894531 C 120.171875 282.894531 115.160156 279.769531 115.160156 275.914062 C 115.160156 272.0625 120.171875 268.933594 126.335938 268.933594 Z M 264.191406 272.222656 C 270.355469 272.222656 275.367188 275.351562 275.367188 279.203125 C 275.367188 283.058594 270.355469 286.183594 264.191406 286.183594 C 258.023438 286.183594 253.015625 283.058594 253.015625 279.203125 C 253.015625 275.351562 258.023438 272.222656 264.191406 272.222656 Z M 264.191406 272.222656 " fill-opacity="1" fill-rule="evenodd"/><g fill="#ffffff" fill-opacity="1"><g transform="translate(157.402541, 105.48071)"><g><path d="M 47.3125 0 L 11.390625 0 L 11.390625 -11.1875 L 23.328125 -11.1875 L 23.328125 -61.171875 L 12.46875 -55.484375 L 9.359375 -65.578125 L 29.453125 -76.34375 L 35.046875 -76.34375 L 35.046875 -11.1875 L 47.3125 -11.1875 Z M 47.3125 0 "/></g></g></g></svg>