<svg xmlns="http://www.w3.org/2000/svg" xmlns:xlink="http://www.w3.org/1999/xlink" width="500" zoomAndPan="magnify" viewBox="0 0 375 374.999991" height="500" preserveAspectRatio="xMidYMid meet" version="1.0"><defs><g/><clipPath id="5642497538"><path d="M 6.570312 0 L 369.714844 0 L 369.714844 375 L 6.570312 375 Z M 6.570312 0 " clip-rule="nonzero"/></clipPath><clipPath id="c16aa48d31"><path d="M 20.820312 0 L 355.464844 0 C 359.242188 0 362.867188 1.5 365.539062 4.171875 C 368.210938 6.847656 369.714844 10.46875 369.714844 14.25 L 369.714844 360.75 C 369.714844 364.527344 368.210938 368.152344 365.539062 370.828125 C 362.867188 373.5 359.242188 375 355.464844 375 L 20.820312 375 C 17.039062 375 13.414062 373.5 10.742188 370.828125 C 8.070312 368.152344 6.570312 364.527344 6.570312 360.75 L 6.570312 14.25 C 6.570312 10.46875 8.070312 6.847656 10.742188 4.171875 C 13.414062 1.5 17.039062 0 20.820312 0 Z M 20.820312 0 " clip-rule="nonzero"/></clipPath><clipPath id="3410d78d45"><path d="M 149 213 L 267.871094 213 L 267.871094 303 L 149 303 Z M 149 213 " clip-rule="nonzero"/></clipPath><clipPath id="523ff2d46e"><path d="M 89.371094 140 L 209 140 L 209 230 L 89.371094 230 Z M 89.371094 140 " clip-rule="nonzero"/></clipPath></defs><g clip-path="url(#5642497538)"><g clip-path="url(#c16aa48d31)"><path fill="#b57c60" d="M 6.570312 0 L 369.714844 0 L 369.714844 374.492188 L 6.570312 374.492188 Z M 6.570312 0 " fill-opacity="1" fill-rule="nonzero"/></g></g><path fill="#885749" d="M 178.621094 372.886719 C 174.171875 372.886719 170.578125 369.289062 170.578125 364.855469 L 170.578125 219.679688 C 170.578125 215.246094 174.171875 211.648438 178.621094 211.648438 C 183.066406 211.648438 186.660156 215.246094 186.660156 219.679688 L 186.660156 364.855469 C 186.660156 369.289062 183.066406 372.886719 178.621094 372.886719 Z M 178.621094 372.886719 " fill-opacity="1" fill-rule="nonzero"/><g clip-path="url(#3410d78d45)"><path fill="#78a640" d="M 267.492188 272.765625 C 267.058594 270.679688 265.8125 268.855469 264.019531 267.691406 L 183.019531 214.777344 C 181.242188 213.613281 179.078125 213.203125 176.972656 213.636719 C 174.882812 214.082031 173.0625 215.324219 171.890625 217.109375 L 151.84375 247.722656 C 149.488281 251.316406 148.675781 255.601562 149.5625 259.8125 C 150.4375 264.003906 152.90625 267.617188 156.5 269.964844 L 193.382812 294.058594 C 202.257812 299.855469 212.261719 302.628906 222.152344 302.628906 C 239.359375 302.628906 256.242188 294.234375 266.351562 278.804688 C 267.523438 277.023438 267.925781 274.847656 267.492188 272.765625 Z M 267.492188 272.765625 " fill-opacity="1" fill-rule="nonzero"/></g><path fill="#ffd15b" d="M 183.027344 214.769531 L 152.375 194.742188 C 144.960938 189.90625 134.976562 191.976562 130.101562 199.390625 L 105.980469 236.238281 C 98.269531 248.003906 95.617188 262.070312 98.496094 275.84375 C 101.382812 289.609375 109.464844 301.429688 121.25 309.125 C 122.5625 309.984375 124.097656 310.433594 125.648438 310.433594 C 126.195312 310.433594 126.75 310.378906 127.296875 310.265625 C 129.386719 309.824219 131.203125 308.578125 132.378906 306.796875 L 185.351562 225.886719 C 187.785156 222.175781 186.742188 217.195312 183.027344 214.769531 Z M 183.027344 214.769531 " fill-opacity="1" fill-rule="nonzero"/><g clip-path="url(#523ff2d46e)"><path fill="#c1ddf2" d="M 207.679688 183.191406 C 206.800781 179 204.332031 175.382812 200.738281 173.039062 L 163.859375 148.945312 C 139.542969 133.066406 106.808594 139.894531 90.890625 164.1875 C 89.714844 165.972656 89.3125 168.148438 89.746094 170.226562 C 90.183594 172.316406 91.429688 174.140625 93.222656 175.304688 L 174.222656 228.214844 C 175.53125 229.074219 177.066406 229.523438 178.621094 229.523438 C 179.167969 229.523438 179.722656 229.46875 180.269531 229.355469 C 182.359375 228.914062 184.175781 227.667969 185.351562 225.886719 L 205.394531 195.269531 C 207.75 191.679688 208.5625 187.390625 207.679688 183.183594 Z M 207.679688 183.191406 " fill-opacity="1" fill-rule="nonzero"/></g><path fill="#f05874" d="M 176.972656 213.628906 C 179.078125 213.195312 181.242188 213.605469 183.019531 214.769531 L 227.136719 243.589844 L 251.257812 206.746094 C 258.96875 194.980469 261.621094 180.917969 258.742188 167.144531 C 255.855469 153.378906 247.777344 141.554688 235.988281 133.859375 C 234.210938 132.695312 232.050781 132.304688 229.941406 132.722656 C 227.851562 133.164062 226.035156 134.40625 224.859375 136.191406 L 171.890625 217.101562 C 173.0625 215.316406 174.882812 214.070312 176.972656 213.628906 Z M 176.972656 213.628906 " fill-opacity="1" fill-rule="nonzero"/><path fill="#e8eaee" d="M 192.820312 199.808594 C 180.855469 191.984375 164.742188 195.359375 156.910156 207.316406 C 153.117188 213.117188 151.8125 220.03125 153.226562 226.808594 C 154.652344 233.589844 158.625 239.402344 164.421875 243.195312 C 168.699219 245.988281 173.585938 247.425781 178.578125 247.425781 C 180.363281 247.425781 182.148438 247.242188 183.933594 246.871094 C 190.722656 245.460938 196.542969 241.484375 200.335938 235.691406 C 208.167969 223.734375 204.800781 207.640625 192.820312 199.816406 Z M 192.820312 199.808594 " fill-opacity="1" fill-rule="nonzero"/><g fill="#ffffff" fill-opacity="1"><g transform="translate(124.761125, 105.48071)"><g><path d="M 47.3125 0 L 11.390625 0 L 11.390625 -11.1875 L 23.328125 -11.1875 L 23.328125 -61.171875 L 12.46875 -55.484375 L 9.359375 -65.578125 L 29.453125 -76.34375 L 35.046875 -76.34375 L 35.046875 -11.1875 L 47.3125 -11.1875 Z M 47.3125 0 "/></g></g><g transform="translate(178.51834, 105.48071)"><g><path d="M 32.578125 1.078125 C 26.554688 1.078125 21.484375 -0.585938 17.359375 -3.921875 C 13.242188 -7.253906 10.144531 -11.820312 8.0625 -17.625 C 5.988281 -23.4375 4.953125 -30.101562 4.953125 -37.625 C 4.953125 -45.15625 5.988281 -51.820312 8.0625 -57.625 C 10.144531 -63.4375 13.242188 -68.007812 17.359375 -71.34375 C 21.484375 -74.675781 26.554688 -76.34375 32.578125 -76.34375 C 38.671875 -76.34375 43.757812 -74.675781 47.84375 -71.34375 C 51.925781 -68.007812 55.023438 -63.4375 57.140625 -57.625 C 59.253906 -51.820312 60.3125 -45.15625 60.3125 -37.625 C 60.3125 -30.101562 59.253906 -23.4375 57.140625 -17.625 C 55.023438 -11.820312 51.925781 -7.253906 47.84375 -3.921875 C 43.757812 -0.585938 38.671875 1.078125 32.578125 1.078125 Z M 32.578125 -9.46875 C 37.734375 -9.46875 41.765625 -11.898438 44.671875 -16.765625 C 47.578125 -21.640625 49.03125 -28.59375 49.03125 -37.625 C 49.03125 -46.65625 47.578125 -53.609375 44.671875 -58.484375 C 41.765625 -63.359375 37.734375 -65.796875 32.578125 -65.796875 C 27.421875 -65.796875 23.390625 -63.359375 20.484375 -58.484375 C 17.578125 -53.609375 16.125 -46.65625 16.125 -37.625 C 16.125 -28.59375 17.578125 -21.640625 20.484375 -16.765625 C 23.390625 -11.898438 27.421875 -9.46875 32.578125 -9.46875 Z M 32.578125 -9.46875 "/></g></g></g></svg>