<svg xmlns="http://www.w3.org/2000/svg" xmlns:xlink="http://www.w3.org/1999/xlink" width="500" zoomAndPan="magnify" viewBox="0 0 375 374.999991" height="500" preserveAspectRatio="xMidYMid meet" version="1.0"><defs><g/><clipPath id="604a773d3a"><path d="M 6.570312 0 L 369.714844 0 L 369.714844 375 L 6.570312 375 Z M 6.570312 0 " clip-rule="nonzero"/></clipPath><clipPath id="9e3c8b0b4a"><path d="M 20.820312 0 L 355.464844 0 C 359.242188 0 362.867188 1.5 365.539062 4.171875 C 368.210938 6.847656 369.714844 10.46875 369.714844 14.25 L 369.714844 360.75 C 369.714844 364.527344 368.210938 368.152344 365.539062 370.828125 C 362.867188 373.5 359.242188 375 355.464844 375 L 20.820312 375 C 17.039062 375 13.414062 373.5 10.742188 370.828125 C 8.070312 368.152344 6.570312 364.527344 6.570312 360.75 L 6.570312 14.25 C 6.570312 10.46875 8.070312 6.847656 10.742188 4.171875 C 13.414062 1.5 17.039062 0 20.820312 0 Z M 20.820312 0 " clip-rule="nonzero"/></clipPath></defs><g clip-path="url(#604a773d3a)"><g clip-path="url(#9e3c8b0b4a)"><path fill="#45b83a" d="M 6.570312 0 L 369.714844 0 L 369.714844 374.492188 L 6.570312 374.492188 Z M 6.570312 0 " fill-opacity="1" fill-rule="nonzero"/></g></g><path fill="#d9d9d9" d="M 288.589844 320.898438 L 202.894531 249.109375 L 223.042969 225.554688 L 229.570312 231.796875 C 241.488281 243.433594 251.984375 228.109375 251.984375 228.109375 L 295.96875 172.207031 L 292.847656 169.085938 L 242.339844 219.03125 L 237.796875 214.488281 L 283.765625 160.289062 L 281.214844 157.738281 L 230.703125 207.394531 L 226.164062 203.140625 L 274.6875 151.496094 L 272.132812 148.941406 L 219.070312 196.042969 L 214.53125 191.503906 L 263.335938 140.144531 L 260.214844 137.023438 L 204.882812 182.425781 C 204.882812 182.425781 189.84375 193.207031 201.761719 204.839844 L 208.285156 211.085938 L 183.597656 232.933594 L 179.910156 229.8125 L 186.4375 223.003906 L 100.171875 138.726562 C 78.324219 123.402344 85.132812 154.046875 85.132812 154.046875 C 97.621094 223.285156 159.761719 250.8125 159.761719 250.8125 L 165.722656 244.851562 L 167.707031 247.121094 L 88.824219 317.496094 C 74.917969 327.140625 88.253906 345.304688 89.675781 347.003906 C 91.378906 348.140625 109.820312 361.195312 119.1875 347.289062 L 186.4375 268.402344 L 258.796875 351.261719 C 267.308594 363.746094 285.1875 350.128906 286.605469 348.992188 C 288.023438 347.003906 301.359375 329.128906 288.589844 320.898438 Z M 288.589844 320.898438 " fill-opacity="1" fill-rule="nonzero"/><g fill="#ffffff" fill-opacity="1"><g transform="translate(130.523933, 105.48071)"><g><path d="M 47.3125 0 L 11.390625 0 L 11.390625 -11.1875 L 23.328125 -11.1875 L 23.328125 -61.171875 L 12.46875 -55.484375 L 9.359375 -65.578125 L 29.453125 -76.34375 L 35.046875 -76.34375 L 35.046875 -11.1875 L 47.3125 -11.1875 Z M 47.3125 0 "/></g></g><g transform="translate(184.281148, 105.48071)"><g><path d="M 47.3125 0 L 11.390625 0 L 11.390625 -11.1875 L 23.328125 -11.1875 L 23.328125 -61.171875 L 12.46875 -55.484375 L 9.359375 -65.578125 L 29.453125 -76.34375 L 35.046875 -76.34375 L 35.046875 -11.1875 L 47.3125 -11.1875 Z M 47.3125 0 "/></g></g></g></svg>