<svg xmlns="http://www.w3.org/2000/svg" xmlns:xlink="http://www.w3.org/1999/xlink" width="500" zoomAndPan="magnify" viewBox="0 0 375 374.999991" height="500" preserveAspectRatio="xMidYMid meet" version="1.0"><defs><g/><clipPath id="fba289f9bb"><path d="M 6.570312 0 L 369.714844 0 L 369.714844 375 L 6.570312 375 Z M 6.570312 0 " clip-rule="nonzero"/></clipPath><clipPath id="a539463ccf"><path d="M 20.820312 0 L 355.464844 0 C 359.242188 0 362.867188 1.5 365.539062 4.171875 C 368.210938 6.847656 369.714844 10.46875 369.714844 14.25 L 369.714844 360.75 C 369.714844 364.527344 368.210938 368.152344 365.539062 370.828125 C 362.867188 373.5 359.242188 375 355.464844 375 L 20.820312 375 C 17.039062 375 13.414062 373.5 10.742188 370.828125 C 8.070312 368.152344 6.570312 364.527344 6.570312 360.75 L 6.570312 14.25 C 6.570312 10.46875 8.070312 6.847656 10.742188 4.171875 C 13.414062 1.5 17.039062 0 20.820312 0 Z M 20.820312 0 " clip-rule="nonzero"/></clipPath><clipPath id="27eee89206"><path d="M 185 252 L 301.972656 252 L 301.972656 368.347656 L 185 368.347656 Z M 185 252 " clip-rule="nonzero"/></clipPath><clipPath id="7654dacdec"><path d="M 185 254 L 301.972656 254 L 301.972656 368.347656 L 185 368.347656 Z M 185 254 " clip-rule="nonzero"/></clipPath><clipPath id="2f2a8d706a"><path d="M 67 124.597656 L 220 124.597656 L 220 286 L 67 286 Z M 67 124.597656 " clip-rule="nonzero"/></clipPath></defs><g clip-path="url(#fba289f9bb)"><g clip-path="url(#a539463ccf)"><path fill="#00bf63" d="M 6.570312 0 L 369.714844 0 L 369.714844 374.492188 L 6.570312 374.492188 Z M 6.570312 0 " fill-opacity="1" fill-rule="nonzero"/></g></g><g clip-path="url(#27eee89206)"><path fill="#ffdf76" d="M 268.089844 266.542969 L 301.972656 300.644531 L 233.71875 368.347656 L 199.835938 334.25 C 181.128906 315.417969 181.234375 284.988281 200.078125 266.292969 C 206.195312 260.226562 213.539062 256.140625 221.300781 254.035156 C 225.5 252.886719 229.816406 252.328125 234.140625 252.34375 C 246.441406 252.394531 258.730469 257.132812 268.089844 266.542969 Z M 268.089844 266.542969 " fill-opacity="1" fill-rule="nonzero"/></g><g clip-path="url(#7654dacdec)"><path fill="#fdb15b" d="M 294.929688 293.5625 L 301.964844 300.644531 L 233.710938 368.347656 L 199.828125 334.25 C 181.117188 315.417969 181.226562 284.988281 200.070312 266.292969 C 206.1875 260.226562 213.53125 256.140625 221.292969 254.035156 C 228.902344 256.566406 234.910156 261.628906 226.316406 271.683594 C 210 290.796875 204.636719 297.96875 210.550781 308.734375 C 216.273438 319.121094 265.503906 339.714844 294.929688 293.5625 Z M 294.929688 293.5625 " fill-opacity="0.44" fill-rule="nonzero"/></g><g clip-path="url(#2f2a8d706a)"><path fill="#abb0b0" d="M 159.203125 141.265625 C 162.933594 145.421875 165.921875 150.140625 168.070312 155.316406 L 174.394531 170.527344 L 174.679688 171.210938 L 168.152344 173.917969 C 159.371094 177.5625 149.292969 173.410156 145.636719 164.632812 C 144.382812 161.617188 142.535156 158.875 140.25 156.570312 C 138.613281 154.921875 136.746094 153.492188 134.699219 152.347656 C 129.796875 149.605469 124.042969 148.578125 118.496094 149.457031 C 110.308594 150.753906 103.289062 155.984375 99.71875 163.464844 L 94.214844 175.015625 C 91.972656 179.710938 91.253906 184.910156 92.125 190.039062 C 92.996094 195.171875 95.402344 199.835938 99.066406 203.53125 C 106.652344 211.160156 115.542969 217.101562 125.503906 221.1875 C 135.46875 225.265625 145.972656 227.28125 156.738281 227.171875 L 173.023438 227.003906 C 176.300781 226.972656 179.453125 228.265625 181.769531 230.589844 L 219.234375 268.300781 C 218.097656 271.324219 216.714844 273.832031 215.226562 275.894531 C 209.382812 284.046875 201.996094 285.398438 201.996094 285.398438 L 168.136719 251.316406 L 156.988281 251.433594 C 142.960938 251.578125 129.269531 248.953125 116.289062 243.636719 C 103.308594 238.3125 91.714844 230.574219 81.835938 220.628906 C 74.617188 213.367188 69.902344 204.199219 68.1875 194.109375 C 66.472656 184.023438 67.894531 173.808594 72.300781 164.574219 L 77.8125 153.015625 C 84.8125 138.308594 98.613281 128.011719 114.714844 125.480469 C 120.253906 124.601562 125.839844 124.675781 131.335938 125.679688 C 136.6875 126.65625 141.808594 128.503906 146.566406 131.164062 C 151.316406 133.820312 155.574219 137.222656 159.203125 141.265625 Z M 159.203125 141.265625 " fill-opacity="1" fill-rule="nonzero"/></g><path fill="#707575" d="M 174.394531 170.515625 L 174.679688 171.203125 L 168.152344 173.910156 C 159.371094 177.554688 149.292969 173.402344 145.636719 164.625 C 144.382812 161.609375 142.535156 158.867188 140.25 156.558594 C 138.613281 154.914062 136.746094 153.484375 134.699219 152.339844 C 129.796875 149.597656 124.042969 148.570312 118.496094 149.449219 C 110.308594 150.742188 103.289062 155.976562 99.71875 163.457031 L 94.207031 175.015625 C 91.964844 179.710938 91.246094 184.910156 92.117188 190.039062 C 92.984375 195.171875 95.394531 199.835938 99.058594 203.53125 C 106.644531 211.160156 115.535156 217.101562 125.496094 221.1875 C 135.457031 225.265625 145.964844 227.28125 156.730469 227.171875 L 173.015625 227.003906 C 176.292969 226.972656 179.445312 228.265625 181.761719 230.589844 L 219.226562 268.300781 C 218.089844 271.324219 216.707031 273.832031 215.21875 275.894531 C 202.75 263.292969 178.550781 239.316406 178.550781 239.316406 C 178.550781 239.316406 94.96875 244.613281 83.578125 189.398438 C 80.589844 174.964844 85.875 160.003906 97.476562 150.910156 C 105.839844 144.351562 117.894531 140.296875 134.121094 147.175781 C 139.890625 149.625 145.035156 153.316406 149.300781 157.90625 C 153.523438 162.453125 161.839844 169.28125 174.394531 170.515625 Z M 174.394531 170.515625 " fill-opacity="0.22" fill-rule="nonzero"/><path fill="#ffffff" d="M 222.121094 280.023438 C 219.484375 282.984375 216.582031 286.226562 217.050781 289.828125 C 217.445312 292.835938 220.203125 296.15625 223.375 296.65625 C 230.222656 297.742188 238.394531 285.589844 241.472656 275.621094 C 243.265625 269.828125 246.375 262.976562 242.929688 258.773438 C 240.234375 255.488281 233.972656 254.109375 231.871094 256.640625 C 230.609375 258.160156 233 260.015625 232.691406 264.457031 C 232.339844 269.5625 228.792969 273.496094 226.929688 275.570312 C 224.753906 277.976562 224.402344 277.46875 222.121094 280.023438 Z M 222.121094 280.023438 " fill-opacity="0.22" fill-rule="nonzero"/><path fill="#ffffff" d="M 109.628906 138.765625 C 109.863281 138.667969 110.097656 138.566406 110.332031 138.476562 C 109.964844 138.625 109.597656 138.765625 109.230469 138.917969 C 112.296875 137.6875 115.519531 136.855469 118.796875 136.4375 C 118.414062 136.484375 118.019531 136.535156 117.636719 136.578125 C 118.648438 136.453125 119.660156 136.367188 120.671875 136.320312 C 121.882812 136.261719 123.046875 135.859375 123.925781 134.980469 C 124.726562 134.1875 125.328125 132.882812 125.28125 131.738281 C 125.230469 130.550781 124.84375 129.316406 123.941406 128.488281 C 123.070312 127.6875 121.917969 127.074219 120.695312 127.132812 C 118.027344 127.257812 115.34375 127.601562 112.734375 128.195312 C 110.105469 128.796875 107.589844 129.699219 105.105469 130.753906 C 104.078125 131.1875 103.191406 132.542969 102.921875 133.578125 C 102.636719 134.648438 102.761719 136.058594 103.359375 137.011719 C 103.992188 138.03125 104.972656 138.933594 106.183594 139.195312 C 106.570312 139.242188 106.960938 139.292969 107.347656 139.34375 C 108.167969 139.351562 108.929688 139.160156 109.628906 138.765625 Z M 109.628906 138.765625 " fill-opacity="0.22" fill-rule="nonzero"/><path fill="#ffffff" d="M 132.078125 136.425781 C 132.917969 136.425781 133.734375 136.476562 134.5625 136.585938 C 134.179688 136.535156 133.785156 136.484375 133.402344 136.4375 C 135.351562 136.695312 137.242188 137.230469 139.054688 137.972656 C 138.6875 137.824219 138.320312 137.671875 137.953125 137.523438 C 140.402344 138.542969 142.667969 139.914062 144.777344 141.527344 C 144.449219 141.273438 144.125 141.023438 143.796875 140.773438 C 147.996094 144.023438 151.449219 148.078125 154.863281 152.105469 C 155.589844 152.957031 157.023438 153.460938 158.109375 153.460938 C 159.238281 153.460938 160.585938 152.96875 161.363281 152.121094 C 162.164062 151.246094 162.769531 150.101562 162.71875 148.878906 C 162.667969 147.609375 162.207031 146.597656 161.378906 145.628906 C 158.359375 142.058594 155.316406 138.464844 151.734375 135.441406 C 148.105469 132.375 144.125 129.882812 139.574219 128.421875 C 137.183594 127.652344 134.621094 127.257812 132.113281 127.25 C 130.933594 127.25 129.695312 127.753906 128.859375 128.589844 C 128.058594 129.382812 127.453125 130.6875 127.503906 131.832031 C 127.597656 134.304688 129.511719 136.425781 132.078125 136.425781 Z M 132.078125 136.425781 " fill-opacity="0.22" fill-rule="nonzero"/><g fill="#ffffff" fill-opacity="1"><g transform="translate(127.936106, 105.48071)"><g><path d="M 47.3125 0 L 11.390625 0 L 11.390625 -11.1875 L 23.328125 -11.1875 L 23.328125 -61.171875 L 12.46875 -55.484375 L 9.359375 -65.578125 L 29.453125 -76.34375 L 35.046875 -76.34375 L 35.046875 -11.1875 L 47.3125 -11.1875 Z M 47.3125 0 "/></g></g><g transform="translate(181.693321, 105.48071)"><g><path d="M 55.484375 -11.1875 L 55.484375 0 L 10 0 L 6.453125 -8.8125 L 29.453125 -34.734375 C 32.398438 -38.023438 35.085938 -41.316406 37.515625 -44.609375 C 39.953125 -47.910156 41.171875 -51.28125 41.171875 -54.71875 C 41.171875 -58.300781 40.128906 -61.003906 38.046875 -62.828125 C 35.972656 -64.660156 33.253906 -65.578125 29.890625 -65.578125 C 28.242188 -65.578125 26.414062 -65.078125 24.40625 -64.078125 C 22.394531 -63.078125 20.492188 -61.5 18.703125 -59.34375 C 16.910156 -57.195312 15.476562 -54.367188 14.40625 -50.859375 L 5.484375 -56.453125 C 7.421875 -63.109375 10.769531 -68.085938 15.53125 -71.390625 C 20.300781 -74.691406 25.550781 -76.34375 31.28125 -76.34375 C 35.375 -76.34375 39.066406 -75.5 42.359375 -73.8125 C 45.660156 -72.125 48.273438 -69.738281 50.203125 -66.65625 C 52.140625 -63.570312 53.109375 -59.878906 53.109375 -55.578125 C 53.109375 -50.640625 51.617188 -45.75 48.640625 -40.90625 C 45.671875 -36.070312 42.035156 -31.289062 37.734375 -26.5625 L 23.65625 -11.1875 Z M 55.484375 -11.1875 "/></g></g></g></svg>