<svg xmlns="http://www.w3.org/2000/svg" xmlns:xlink="http://www.w3.org/1999/xlink" width="500" zoomAndPan="magnify" viewBox="0 0 375 374.999991" height="500" preserveAspectRatio="xMidYMid meet" version="1.0"><defs><g/><clipPath id="a52bed0f93"><path d="M 6.570312 0 L 369.714844 0 L 369.714844 375 L 6.570312 375 Z M 6.570312 0 " clip-rule="nonzero"/></clipPath><clipPath id="18c4345983"><path d="M 20.820312 0 L 355.464844 0 C 359.242188 0 362.867188 1.5 365.539062 4.171875 C 368.210938 6.847656 369.714844 10.46875 369.714844 14.25 L 369.714844 360.75 C 369.714844 364.527344 368.210938 368.152344 365.539062 370.828125 C 362.867188 373.5 359.242188 375 355.464844 375 L 20.820312 375 C 17.039062 375 13.414062 373.5 10.742188 370.828125 C 8.070312 368.152344 6.570312 364.527344 6.570312 360.75 L 6.570312 14.25 C 6.570312 10.46875 8.070312 6.847656 10.742188 4.171875 C 13.414062 1.5 17.039062 0 20.820312 0 Z M 20.820312 0 " clip-rule="nonzero"/></clipPath><clipPath id="1a41f7eb19"><path d="M 100.71875 134.605469 L 282.21875 134.605469 L 282.21875 370.855469 L 100.71875 370.855469 Z M 100.71875 134.605469 " clip-rule="nonzero"/></clipPath></defs><g clip-path="url(#a52bed0f93)"><g clip-path="url(#18c4345983)"><path fill="#d896d1" d="M 6.570312 0 L 369.714844 0 L 369.714844 374.492188 L 6.570312 374.492188 Z M 6.570312 0 " fill-opacity="1" fill-rule="nonzero"/></g></g><g clip-path="url(#1a41f7eb19)"><path fill="#1b1c2a" d="M 227.8125 252.695312 L 282.277344 252.695312 L 191.5 134.679688 L 100.71875 252.695312 L 155.1875 252.695312 L 155.1875 370.707031 L 227.8125 370.707031 Z M 227.8125 252.695312 " fill-opacity="1" fill-rule="nonzero"/></g><g fill="#ffffff" fill-opacity="1"><g transform="translate(128.958189, 105.48071)"><g><path d="M 47.3125 0 L 11.390625 0 L 11.390625 -11.1875 L 23.328125 -11.1875 L 23.328125 -61.171875 L 12.46875 -55.484375 L 9.359375 -65.578125 L 29.453125 -76.34375 L 35.046875 -76.34375 L 35.046875 -11.1875 L 47.3125 -11.1875 Z M 47.3125 0 "/></g></g><g transform="translate(182.715404, 105.48071)"><g><path d="M 11.1875 -20.53125 C 12.257812 -18.957031 13.566406 -17.273438 15.109375 -15.484375 C 16.648438 -13.691406 18.476562 -12.1875 20.59375 -10.96875 C 22.707031 -9.75 25.125 -9.140625 27.84375 -9.140625 C 30 -9.140625 32.148438 -9.691406 34.296875 -10.796875 C 36.441406 -11.910156 38.25 -13.5625 39.71875 -15.75 C 41.195312 -17.9375 41.9375 -20.609375 41.9375 -23.765625 C 41.9375 -26.984375 41.34375 -29.5625 40.15625 -31.5 C 38.976562 -33.4375 37.421875 -34.832031 35.484375 -35.6875 C 33.546875 -36.550781 31.429688 -36.984375 29.140625 -36.984375 C 26.910156 -36.984375 24.664062 -36.640625 22.40625 -35.953125 C 20.15625 -35.273438 18.0625 -34.546875 16.125 -33.765625 L 12.90625 -42.25 L 33.109375 -64.515625 L 6.34375 -64.515625 L 6.34375 -75.265625 L 49.453125 -75.265625 L 51.609375 -70.953125 L 30.53125 -47.625 C 34.6875 -47.625 38.46875 -46.601562 41.875 -44.5625 C 45.28125 -42.519531 48.003906 -39.742188 50.046875 -36.234375 C 52.085938 -32.722656 53.109375 -28.78125 53.109375 -24.40625 C 53.109375 -19.25 51.867188 -14.75 49.390625 -10.90625 C 46.921875 -7.070312 43.695312 -4.113281 39.71875 -2.03125 C 35.75 0.0390625 31.503906 1.078125 26.984375 1.078125 C 22.753906 1.078125 19.113281 0.378906 16.0625 -1.015625 C 13.019531 -2.421875 10.390625 -4.335938 8.171875 -6.765625 C 5.953125 -9.203125 3.945312 -11.894531 2.15625 -14.84375 Z M 11.1875 -20.53125 "/></g></g></g></svg>