<svg xmlns="http://www.w3.org/2000/svg" xmlns:xlink="http://www.w3.org/1999/xlink" width="500" zoomAndPan="magnify" viewBox="0 0 375 374.999991" height="500" preserveAspectRatio="xMidYMid meet" version="1.0"><defs><g/><clipPath id="5c2311986e"><path d="M 6.570312 0 L 369.714844 0 L 369.714844 375 L 6.570312 375 Z M 6.570312 0 " clip-rule="nonzero"/></clipPath><clipPath id="124df35b2a"><path d="M 20.820312 0 L 355.464844 0 C 359.242188 0 362.867188 1.5 365.539062 4.171875 C 368.210938 6.847656 369.714844 10.46875 369.714844 14.25 L 369.714844 360.75 C 369.714844 364.527344 368.210938 368.152344 365.539062 370.828125 C 362.867188 373.5 359.242188 375 355.464844 375 L 20.820312 375 C 17.039062 375 13.414062 373.5 10.742188 370.828125 C 8.070312 368.152344 6.570312 364.527344 6.570312 360.75 L 6.570312 14.25 C 6.570312 10.46875 8.070312 6.847656 10.742188 4.171875 C 13.414062 1.5 17.039062 0 20.820312 0 Z M 20.820312 0 " clip-rule="nonzero"/></clipPath></defs><g clip-path="url(#5c2311986e)"><g clip-path="url(#124df35b2a)"><path fill="#46c682" d="M 6.570312 0 L 369.714844 0 L 369.714844 374.492188 L 6.570312 374.492188 Z M 6.570312 0 " fill-opacity="1" fill-rule="nonzero"/></g></g><path fill="#ffffff" d="M 317.40625 246.085938 C 315.496094 242.851562 311.761719 241.019531 308.03125 240.570312 C 304.304688 240.121094 300.484375 240.726562 296.886719 241.769531 C 291.488281 243.332031 286.902344 245.519531 281.734375 246.449219 C 277.730469 247.167969 274.644531 244.589844 274.847656 240.53125 C 275.34375 230.425781 276.144531 221.480469 276.144531 214.363281 C 276.144531 176.734375 271.628906 157.507812 242.957031 148.433594 C 222.390625 141.917969 196.832031 143.816406 177.417969 172.636719 C 168.855469 185.34375 166.796875 196.558594 158.550781 206.515625 C 155.746094 209.894531 151.722656 211.609375 149.261719 207.96875 C 147.074219 204.75 141.097656 195.449219 138.648438 192.410156 C 136.296875 189.484375 133.75 186.605469 130.507812 184.710938 C 127.265625 182.820312 123.183594 182.015625 119.707031 183.429688 C 115.257812 185.234375 112.789062 190.289062 112.738281 195.089844 C 112.691406 199.886719 114.625 204.476562 116.804688 208.75 C 122.414062 219.695312 129.894531 229.554688 137.332031 239.347656 L 137.390625 239.425781 C 138.394531 240.746094 139.226562 242.167969 139.886719 243.691406 C 140.546875 245.214844 141.011719 246.796875 141.285156 248.433594 C 141.554688 250.074219 141.628906 251.71875 141.496094 253.375 C 141.367188 255.03125 141.039062 256.644531 140.515625 258.21875 C 136.847656 269.1875 132.164062 279.699219 125.375 289.019531 C 117.449219 299.898438 106.222656 309.066406 92.972656 311.453125 C 87.257812 312.480469 81.363281 312.222656 75.613281 313.003906 C 69.859375 313.785156 63.90625 315.835938 60.28125 320.378906 C 56.660156 324.925781 56.40625 332.441406 60.957031 336.054688 C 64.851562 339.15625 70.410156 338.453125 75.382812 338.183594 C 101.820312 336.761719 126.3125 352.027344 152.605469 355.121094 C 172.734375 357.488281 193.410156 352.46875 211.0625 342.503906 C 228.714844 332.535156 238.726562 322.492188 250.066406 305.699219 C 253.796875 300.109375 257.058594 294.257812 259.859375 288.148438 C 260.3125 287.160156 260.871094 286.230469 261.527344 285.359375 C 262.1875 284.492188 262.929688 283.703125 263.757812 282.996094 C 264.585938 282.289062 265.480469 281.679688 266.445312 281.164062 C 267.40625 280.652344 268.410156 280.25 269.460938 279.953125 L 269.527344 279.9375 C 281.375 276.640625 293.296875 273.320312 304.386719 268 C 308.710938 265.921875 313.027344 263.441406 315.890625 259.585938 C 318.757812 255.726562 319.855469 250.214844 317.40625 246.085938 Z M 192.550781 222.09375 C 190.613281 221.386719 189.207031 219.605469 188.550781 217.652344 C 187.890625 215.699219 187.890625 213.585938 188.089844 211.53125 C 188.625 205.917969 190.675781 200.320312 194.566406 196.238281 C 198.457031 192.152344 204.335938 189.796875 209.875 190.863281 C 217.382812 192.3125 215.523438 200.695312 213.097656 205.441406 C 210.675781 210.1875 206.859375 214.058594 203.023438 217.753906 C 200.144531 220.523438 196.300781 223.464844 192.550781 222.09375 Z M 218.59375 241.304688 C 218.285156 242.890625 217.746094 244.394531 216.976562 245.816406 C 216.210938 247.238281 215.246094 248.515625 214.089844 249.644531 C 211.960938 251.695312 209.191406 252.894531 206.972656 251.675781 C 203.996094 250.058594 203.164062 244.417969 204.761719 240.230469 C 206.363281 236.042969 209.777344 232.511719 213.089844 232.605469 C 218.867188 232.78125 219.230469 237.976562 218.59375 241.304688 Z M 244.257812 226.6875 C 242.808594 228.652344 241.019531 230.460938 238.789062 231.453125 C 236.5625 232.449219 233.835938 232.570312 231.746094 231.304688 C 229.523438 229.957031 228.390625 227.359375 227.800781 224.835938 C 225.1875 213.761719 230.738281 194.269531 241.855469 196.699219 C 255.277344 199.628906 250.25 218.601562 244.257812 226.6875 Z M 244.257812 226.6875 " fill-opacity="1" fill-rule="nonzero"/><g fill="#ffffff" fill-opacity="1"><g transform="translate(124.065239, 105.48071)"><g><path d="M 47.3125 0 L 11.390625 0 L 11.390625 -11.1875 L 23.328125 -11.1875 L 23.328125 -61.171875 L 12.46875 -55.484375 L 9.359375 -65.578125 L 29.453125 -76.34375 L 35.046875 -76.34375 L 35.046875 -11.1875 L 47.3125 -11.1875 Z M 47.3125 0 "/></g></g><g transform="translate(177.822454, 105.48071)"><g><path d="M 37.84375 0 L 37.84375 -20.421875 L 8.171875 -20.421875 L 3.21875 -30.109375 L 40.109375 -75.265625 L 49.03125 -75.265625 L 49.03125 -31.078125 L 62.140625 -31.078125 L 62.140625 -20.421875 L 49.03125 -20.421875 L 49.03125 0 Z M 16.875 -31.078125 L 37.84375 -31.078125 L 37.84375 -56.65625 Z M 16.875 -31.078125 "/></g></g></g></svg>