<svg xmlns="http://www.w3.org/2000/svg" xmlns:xlink="http://www.w3.org/1999/xlink" width="500" zoomAndPan="magnify" viewBox="0 0 375 374.999991" height="500" preserveAspectRatio="xMidYMid meet" version="1.0"><defs><filter x="0%" y="0%" width="100%" height="100%" id="f4cca6ec6e"><feColorMatrix values="0 0 0 0 1 0 0 0 0 1 0 0 0 0 1 0 0 0 1 0" color-interpolation-filters="sRGB"/></filter><g/><clipPath id="3c74ac3f46"><path d="M 6.945312 0 L 369.335938 0 L 369.335938 373.714844 L 6.945312 373.714844 Z M 6.945312 0 " clip-rule="nonzero"/></clipPath><clipPath id="ad1ccb34a3"><path d="M 21.195312 0 L 355.085938 0 C 358.863281 0 362.488281 1.5 365.160156 4.171875 C 367.835938 6.847656 369.335938 10.46875 369.335938 14.25 L 369.335938 359.972656 C 369.335938 363.75 367.835938 367.375 365.160156 370.046875 C 362.488281 372.71875 358.863281 374.222656 355.085938 374.222656 L 21.195312 374.222656 C 17.414062 374.222656 13.789062 372.71875 11.117188 370.046875 C 8.445312 367.375 6.945312 363.75 6.945312 359.972656 L 6.945312 14.25 C 6.945312 10.46875 8.445312 6.847656 11.117188 4.171875 C 13.789062 1.5 17.414062 0 21.195312 0 Z M 21.195312 0 " clip-rule="nonzero"/></clipPath><linearGradient x1="0" gradientTransform="matrix(1.415592, 0, 0, 1.415592, 6.944067, 0)" y1="0" x2="0" gradientUnits="userSpaceOnUse" y2="263.999983" id="a2c335c389"><stop stop-opacity="1" stop-color="rgb(100%, 56.898499%, 0%)" offset="0"/><stop stop-opacity="1" stop-color="rgb(99.74823%, 56.802368%, 0.233459%)" offset="0.00390625"/><stop stop-opacity="1" stop-color="rgb(99.497986%, 56.706238%, 0.466919%)" offset="0.0078125"/><stop stop-opacity="1" stop-color="rgb(99.246216%, 56.610107%, 0.700378%)" offset="0.0117188"/><stop stop-opacity="1" stop-color="rgb(98.995972%, 56.513977%, 0.935364%)" offset="0.015625"/><stop stop-opacity="1" stop-color="rgb(98.744202%, 56.417847%, 1.168823%)" offset="0.0195312"/><stop stop-opacity="1" stop-color="rgb(98.493958%, 56.321716%, 1.403809%)" offset="0.0234375"/><stop stop-opacity="1" stop-color="rgb(98.242188%, 56.22406%, 1.637268%)" offset="0.0273438"/><stop stop-opacity="1" stop-color="rgb(97.991943%, 56.12793%, 1.872253%)" offset="0.03125"/><stop stop-opacity="1" stop-color="rgb(97.741699%, 56.031799%, 2.105713%)" offset="0.0351562"/><stop stop-opacity="1" stop-color="rgb(97.491455%, 55.935669%, 2.340698%)" offset="0.0390625"/><stop stop-opacity="1" stop-color="rgb(97.239685%, 55.839539%, 2.574158%)" offset="0.0429688"/><stop stop-opacity="1" stop-color="rgb(96.989441%, 55.743408%, 2.807617%)" offset="0.046875"/><stop stop-opacity="1" stop-color="rgb(96.737671%, 55.645752%, 3.041077%)" offset="0.0507812"/><stop stop-opacity="1" stop-color="rgb(96.487427%, 55.549622%, 3.276062%)" offset="0.0546875"/><stop stop-opacity="1" stop-color="rgb(96.235657%, 55.453491%, 3.509521%)" offset="0.0585938"/><stop stop-opacity="1" stop-color="rgb(95.985413%, 55.357361%, 3.744507%)" offset="0.0625"/><stop stop-opacity="1" stop-color="rgb(95.733643%, 55.26123%, 3.977966%)" offset="0.0664062"/><stop stop-opacity="1" stop-color="rgb(95.483398%, 55.1651%, 4.212952%)" offset="0.0703125"/><stop stop-opacity="1" stop-color="rgb(95.233154%, 55.067444%, 4.446411%)" offset="0.0742188"/><stop stop-opacity="1" stop-color="rgb(94.98291%, 54.971313%, 4.681396%)" offset="0.078125"/><stop stop-opacity="1" stop-color="rgb(94.73114%, 54.875183%, 4.914856%)" offset="0.0820312"/><stop stop-opacity="1" stop-color="rgb(94.480896%, 54.779053%, 5.148315%)" offset="0.0859375"/><stop stop-opacity="1" stop-color="rgb(94.229126%, 54.682922%, 5.381775%)" offset="0.0898438"/><stop stop-opacity="1" stop-color="rgb(93.978882%, 54.586792%, 5.61676%)" offset="0.09375"/><stop stop-opacity="1" stop-color="rgb(93.727112%, 54.490662%, 5.85022%)" offset="0.0976562"/><stop stop-opacity="1" stop-color="rgb(93.476868%, 54.394531%, 6.085205%)" offset="0.101562"/><stop stop-opacity="1" stop-color="rgb(93.225098%, 54.296875%, 6.318665%)" offset="0.105469"/><stop stop-opacity="1" stop-color="rgb(92.974854%, 54.200745%, 6.55365%)" offset="0.109375"/><stop stop-opacity="1" stop-color="rgb(92.724609%, 54.104614%, 6.787109%)" offset="0.113281"/><stop stop-opacity="1" stop-color="rgb(92.474365%, 54.008484%, 7.022095%)" offset="0.117188"/><stop stop-opacity="1" stop-color="rgb(92.222595%, 53.912354%, 7.255554%)" offset="0.121094"/><stop stop-opacity="1" stop-color="rgb(91.972351%, 53.816223%, 7.489014%)" offset="0.125"/><stop stop-opacity="1" stop-color="rgb(91.720581%, 53.718567%, 7.722473%)" offset="0.128906"/><stop stop-opacity="1" stop-color="rgb(91.470337%, 53.622437%, 7.957458%)" offset="0.132812"/><stop stop-opacity="1" stop-color="rgb(91.218567%, 53.526306%, 8.190918%)" offset="0.136719"/><stop stop-opacity="1" stop-color="rgb(90.968323%, 53.430176%, 8.425903%)" offset="0.140625"/><stop stop-opacity="1" stop-color="rgb(90.718079%, 53.334045%, 8.659363%)" offset="0.144531"/><stop stop-opacity="1" stop-color="rgb(90.467834%, 53.237915%, 8.894348%)" offset="0.148438"/><stop stop-opacity="1" stop-color="rgb(90.216064%, 53.140259%, 9.127808%)" offset="0.152344"/><stop stop-opacity="1" stop-color="rgb(89.96582%, 53.044128%, 9.362793%)" offset="0.15625"/><stop stop-opacity="1" stop-color="rgb(89.71405%, 52.947998%, 9.596252%)" offset="0.160156"/><stop stop-opacity="1" stop-color="rgb(89.463806%, 52.851868%, 9.829712%)" offset="0.164062"/><stop stop-opacity="1" stop-color="rgb(89.212036%, 52.755737%, 10.063171%)" offset="0.167969"/><stop stop-opacity="1" stop-color="rgb(88.961792%, 52.659607%, 10.298157%)" offset="0.171875"/><stop stop-opacity="1" stop-color="rgb(88.710022%, 52.563477%, 10.531616%)" offset="0.175781"/><stop stop-opacity="1" stop-color="rgb(88.459778%, 52.467346%, 10.766602%)" offset="0.179688"/><stop stop-opacity="1" stop-color="rgb(88.209534%, 52.36969%, 11.000061%)" offset="0.183594"/><stop stop-opacity="1" stop-color="rgb(87.95929%, 52.27356%, 11.235046%)" offset="0.1875"/><stop stop-opacity="1" stop-color="rgb(87.70752%, 52.177429%, 11.468506%)" offset="0.191406"/><stop stop-opacity="1" stop-color="rgb(87.457275%, 52.081299%, 11.703491%)" offset="0.195312"/><stop stop-opacity="1" stop-color="rgb(87.205505%, 51.985168%, 11.936951%)" offset="0.199219"/><stop stop-opacity="1" stop-color="rgb(86.955261%, 51.889038%, 12.17041%)" offset="0.203125"/><stop stop-opacity="1" stop-color="rgb(86.703491%, 51.791382%, 12.40387%)" offset="0.207031"/><stop stop-opacity="1" stop-color="rgb(86.453247%, 51.695251%, 12.638855%)" offset="0.210938"/><stop stop-opacity="1" stop-color="rgb(86.201477%, 51.599121%, 12.872314%)" offset="0.214844"/><stop stop-opacity="1" stop-color="rgb(85.951233%, 51.502991%, 13.1073%)" offset="0.21875"/><stop stop-opacity="1" stop-color="rgb(85.700989%, 51.40686%, 13.340759%)" offset="0.222656"/><stop stop-opacity="1" stop-color="rgb(85.450745%, 51.31073%, 13.575745%)" offset="0.226562"/><stop stop-opacity="1" stop-color="rgb(85.198975%, 51.213074%, 13.809204%)" offset="0.230469"/><stop stop-opacity="1" stop-color="rgb(84.94873%, 51.116943%, 14.044189%)" offset="0.234375"/><stop stop-opacity="1" stop-color="rgb(84.69696%, 51.020813%, 14.277649%)" offset="0.238281"/><stop stop-opacity="1" stop-color="rgb(84.446716%, 50.924683%, 14.511108%)" offset="0.242188"/><stop stop-opacity="1" stop-color="rgb(84.194946%, 50.828552%, 14.744568%)" offset="0.246094"/><stop stop-opacity="1" stop-color="rgb(83.944702%, 50.732422%, 14.979553%)" offset="0.25"/><stop stop-opacity="1" stop-color="rgb(83.694458%, 50.636292%, 15.213013%)" offset="0.253906"/><stop stop-opacity="1" stop-color="rgb(83.444214%, 50.540161%, 15.447998%)" offset="0.257812"/><stop stop-opacity="1" stop-color="rgb(83.192444%, 50.442505%, 15.681458%)" offset="0.261719"/><stop stop-opacity="1" stop-color="rgb(82.9422%, 50.346375%, 15.916443%)" offset="0.265625"/><stop stop-opacity="1" stop-color="rgb(82.69043%, 50.250244%, 16.149902%)" offset="0.269531"/><stop stop-opacity="1" stop-color="rgb(82.440186%, 50.154114%, 16.384888%)" offset="0.273438"/><stop stop-opacity="1" stop-color="rgb(82.188416%, 50.057983%, 16.618347%)" offset="0.277344"/><stop stop-opacity="1" stop-color="rgb(81.938171%, 49.961853%, 16.851807%)" offset="0.28125"/><stop stop-opacity="1" stop-color="rgb(81.686401%, 49.864197%, 17.085266%)" offset="0.285156"/><stop stop-opacity="1" stop-color="rgb(81.436157%, 49.768066%, 17.320251%)" offset="0.289062"/><stop stop-opacity="1" stop-color="rgb(81.185913%, 49.671936%, 17.553711%)" offset="0.292969"/><stop stop-opacity="1" stop-color="rgb(80.935669%, 49.575806%, 17.788696%)" offset="0.296875"/><stop stop-opacity="1" stop-color="rgb(80.683899%, 49.479675%, 18.022156%)" offset="0.300781"/><stop stop-opacity="1" stop-color="rgb(80.433655%, 49.383545%, 18.257141%)" offset="0.304688"/><stop stop-opacity="1" stop-color="rgb(80.181885%, 49.287415%, 18.490601%)" offset="0.308594"/><stop stop-opacity="1" stop-color="rgb(79.931641%, 49.191284%, 18.725586%)" offset="0.3125"/><stop stop-opacity="1" stop-color="rgb(79.679871%, 49.093628%, 18.959045%)" offset="0.316406"/><stop stop-opacity="1" stop-color="rgb(79.429626%, 48.997498%, 19.192505%)" offset="0.320312"/><stop stop-opacity="1" stop-color="rgb(79.177856%, 48.901367%, 19.425964%)" offset="0.324219"/><stop stop-opacity="1" stop-color="rgb(78.927612%, 48.805237%, 19.66095%)" offset="0.328125"/><stop stop-opacity="1" stop-color="rgb(78.677368%, 48.709106%, 19.894409%)" offset="0.332031"/><stop stop-opacity="1" stop-color="rgb(78.427124%, 48.612976%, 20.129395%)" offset="0.335938"/><stop stop-opacity="1" stop-color="rgb(78.175354%, 48.51532%, 20.362854%)" offset="0.339844"/><stop stop-opacity="1" stop-color="rgb(77.92511%, 48.419189%, 20.597839%)" offset="0.34375"/><stop stop-opacity="1" stop-color="rgb(77.67334%, 48.323059%, 20.831299%)" offset="0.347656"/><stop stop-opacity="1" stop-color="rgb(77.423096%, 48.226929%, 21.066284%)" offset="0.351562"/><stop stop-opacity="1" stop-color="rgb(77.171326%, 48.130798%, 21.299744%)" offset="0.355469"/><stop stop-opacity="1" stop-color="rgb(76.921082%, 48.034668%, 21.533203%)" offset="0.359375"/><stop stop-opacity="1" stop-color="rgb(76.669312%, 47.937012%, 21.766663%)" offset="0.363281"/><stop stop-opacity="1" stop-color="rgb(76.419067%, 47.840881%, 22.001648%)" offset="0.367188"/><stop stop-opacity="1" stop-color="rgb(76.168823%, 47.744751%, 22.235107%)" offset="0.371094"/><stop stop-opacity="1" stop-color="rgb(75.918579%, 47.648621%, 22.470093%)" offset="0.375"/><stop stop-opacity="1" stop-color="rgb(75.666809%, 47.55249%, 22.703552%)" offset="0.378906"/><stop stop-opacity="1" stop-color="rgb(75.416565%, 47.45636%, 22.938538%)" offset="0.382812"/><stop stop-opacity="1" stop-color="rgb(75.164795%, 47.360229%, 23.171997%)" offset="0.386719"/><stop stop-opacity="1" stop-color="rgb(74.914551%, 47.264099%, 23.406982%)" offset="0.390625"/><stop stop-opacity="1" stop-color="rgb(74.662781%, 47.166443%, 23.640442%)" offset="0.394531"/><stop stop-opacity="1" stop-color="rgb(74.412537%, 47.070312%, 23.873901%)" offset="0.398438"/><stop stop-opacity="1" stop-color="rgb(74.162292%, 46.974182%, 24.107361%)" offset="0.402344"/><stop stop-opacity="1" stop-color="rgb(73.912048%, 46.878052%, 24.342346%)" offset="0.40625"/><stop stop-opacity="1" stop-color="rgb(73.660278%, 46.781921%, 24.575806%)" offset="0.410156"/><stop stop-opacity="1" stop-color="rgb(73.410034%, 46.685791%, 24.810791%)" offset="0.414062"/><stop stop-opacity="1" stop-color="rgb(73.158264%, 46.588135%, 25.04425%)" offset="0.417969"/><stop stop-opacity="1" stop-color="rgb(72.90802%, 46.492004%, 25.279236%)" offset="0.421875"/><stop stop-opacity="1" stop-color="rgb(72.65625%, 46.395874%, 25.512695%)" offset="0.425781"/><stop stop-opacity="1" stop-color="rgb(72.406006%, 46.299744%, 25.747681%)" offset="0.429688"/><stop stop-opacity="1" stop-color="rgb(72.154236%, 46.203613%, 25.98114%)" offset="0.433594"/><stop stop-opacity="1" stop-color="rgb(71.903992%, 46.107483%, 26.2146%)" offset="0.4375"/><stop stop-opacity="1" stop-color="rgb(71.653748%, 46.009827%, 26.448059%)" offset="0.441406"/><stop stop-opacity="1" stop-color="rgb(71.403503%, 45.913696%, 26.683044%)" offset="0.445312"/><stop stop-opacity="1" stop-color="rgb(71.151733%, 45.817566%, 26.916504%)" offset="0.449219"/><stop stop-opacity="1" stop-color="rgb(70.901489%, 45.721436%, 27.151489%)" offset="0.453125"/><stop stop-opacity="1" stop-color="rgb(70.649719%, 45.625305%, 27.384949%)" offset="0.457031"/><stop stop-opacity="1" stop-color="rgb(70.399475%, 45.529175%, 27.619934%)" offset="0.460938"/><stop stop-opacity="1" stop-color="rgb(70.147705%, 45.433044%, 27.853394%)" offset="0.464844"/><stop stop-opacity="1" stop-color="rgb(69.897461%, 45.336914%, 28.088379%)" offset="0.46875"/><stop stop-opacity="1" stop-color="rgb(69.645691%, 45.239258%, 28.321838%)" offset="0.472656"/><stop stop-opacity="1" stop-color="rgb(69.395447%, 45.143127%, 28.555298%)" offset="0.476562"/><stop stop-opacity="1" stop-color="rgb(69.145203%, 45.046997%, 28.788757%)" offset="0.480469"/><stop stop-opacity="1" stop-color="rgb(68.894958%, 44.950867%, 29.023743%)" offset="0.484375"/><stop stop-opacity="1" stop-color="rgb(68.643188%, 44.854736%, 29.257202%)" offset="0.488281"/><stop stop-opacity="1" stop-color="rgb(68.392944%, 44.758606%, 29.492188%)" offset="0.492188"/><stop stop-opacity="1" stop-color="rgb(68.141174%, 44.66095%, 29.725647%)" offset="0.496094"/><stop stop-opacity="1" stop-color="rgb(67.89093%, 44.564819%, 29.960632%)" offset="0.5"/><stop stop-opacity="1" stop-color="rgb(67.63916%, 44.468689%, 30.194092%)" offset="0.503906"/><stop stop-opacity="1" stop-color="rgb(67.388916%, 44.372559%, 30.429077%)" offset="0.507812"/><stop stop-opacity="1" stop-color="rgb(67.138672%, 44.276428%, 30.662537%)" offset="0.511719"/><stop stop-opacity="1" stop-color="rgb(66.888428%, 44.180298%, 30.895996%)" offset="0.515625"/><stop stop-opacity="1" stop-color="rgb(66.636658%, 44.082642%, 31.129456%)" offset="0.519531"/><stop stop-opacity="1" stop-color="rgb(66.386414%, 43.986511%, 31.364441%)" offset="0.523438"/><stop stop-opacity="1" stop-color="rgb(66.134644%, 43.890381%, 31.5979%)" offset="0.527344"/><stop stop-opacity="1" stop-color="rgb(65.884399%, 43.79425%, 31.832886%)" offset="0.53125"/><stop stop-opacity="1" stop-color="rgb(65.632629%, 43.69812%, 32.066345%)" offset="0.535156"/><stop stop-opacity="1" stop-color="rgb(65.382385%, 43.60199%, 32.301331%)" offset="0.539062"/><stop stop-opacity="1" stop-color="rgb(65.130615%, 43.505859%, 32.53479%)" offset="0.542969"/><stop stop-opacity="1" stop-color="rgb(64.880371%, 43.409729%, 32.769775%)" offset="0.546875"/><stop stop-opacity="1" stop-color="rgb(64.630127%, 43.312073%, 33.003235%)" offset="0.550781"/><stop stop-opacity="1" stop-color="rgb(64.379883%, 43.215942%, 33.236694%)" offset="0.554688"/><stop stop-opacity="1" stop-color="rgb(64.128113%, 43.119812%, 33.470154%)" offset="0.558594"/><stop stop-opacity="1" stop-color="rgb(63.877869%, 43.023682%, 33.705139%)" offset="0.5625"/><stop stop-opacity="1" stop-color="rgb(63.626099%, 42.927551%, 33.938599%)" offset="0.566406"/><stop stop-opacity="1" stop-color="rgb(63.375854%, 42.831421%, 34.173584%)" offset="0.570312"/><stop stop-opacity="1" stop-color="rgb(63.124084%, 42.733765%, 34.407043%)" offset="0.574219"/><stop stop-opacity="1" stop-color="rgb(62.87384%, 42.637634%, 34.642029%)" offset="0.578125"/><stop stop-opacity="1" stop-color="rgb(62.62207%, 42.541504%, 34.875488%)" offset="0.582031"/><stop stop-opacity="1" stop-color="rgb(62.371826%, 42.445374%, 35.110474%)" offset="0.585938"/><stop stop-opacity="1" stop-color="rgb(62.121582%, 42.349243%, 35.343933%)" offset="0.589844"/><stop stop-opacity="1" stop-color="rgb(61.871338%, 42.253113%, 35.577393%)" offset="0.59375"/><stop stop-opacity="1" stop-color="rgb(61.619568%, 42.155457%, 35.810852%)" offset="0.597656"/><stop stop-opacity="1" stop-color="rgb(61.369324%, 42.059326%, 36.045837%)" offset="0.601562"/><stop stop-opacity="1" stop-color="rgb(61.117554%, 41.963196%, 36.279297%)" offset="0.605469"/><stop stop-opacity="1" stop-color="rgb(60.86731%, 41.867065%, 36.514282%)" offset="0.609375"/><stop stop-opacity="1" stop-color="rgb(60.61554%, 41.770935%, 36.747742%)" offset="0.613281"/><stop stop-opacity="1" stop-color="rgb(60.365295%, 41.674805%, 36.982727%)" offset="0.617188"/><stop stop-opacity="1" stop-color="rgb(60.113525%, 41.578674%, 37.216187%)" offset="0.621094"/><stop stop-opacity="1" stop-color="rgb(59.863281%, 41.482544%, 37.451172%)" offset="0.625"/><stop stop-opacity="1" stop-color="rgb(59.613037%, 41.384888%, 37.684631%)" offset="0.628906"/><stop stop-opacity="1" stop-color="rgb(59.362793%, 41.288757%, 37.918091%)" offset="0.632812"/><stop stop-opacity="1" stop-color="rgb(59.111023%, 41.192627%, 38.15155%)" offset="0.636719"/><stop stop-opacity="1" stop-color="rgb(58.860779%, 41.096497%, 38.386536%)" offset="0.640625"/><stop stop-opacity="1" stop-color="rgb(58.609009%, 41.000366%, 38.619995%)" offset="0.644531"/><stop stop-opacity="1" stop-color="rgb(58.358765%, 40.904236%, 38.85498%)" offset="0.648438"/><stop stop-opacity="1" stop-color="rgb(58.106995%, 40.80658%, 39.08844%)" offset="0.652344"/><stop stop-opacity="1" stop-color="rgb(57.85675%, 40.710449%, 39.323425%)" offset="0.65625"/><stop stop-opacity="1" stop-color="rgb(57.606506%, 40.614319%, 39.556885%)" offset="0.660156"/><stop stop-opacity="1" stop-color="rgb(57.356262%, 40.518188%, 39.79187%)" offset="0.664062"/><stop stop-opacity="1" stop-color="rgb(57.104492%, 40.422058%, 40.02533%)" offset="0.667969"/><stop stop-opacity="1" stop-color="rgb(56.854248%, 40.325928%, 40.258789%)" offset="0.671875"/><stop stop-opacity="1" stop-color="rgb(56.602478%, 40.228271%, 40.492249%)" offset="0.675781"/><stop stop-opacity="1" stop-color="rgb(56.352234%, 40.132141%, 40.727234%)" offset="0.679688"/><stop stop-opacity="1" stop-color="rgb(56.100464%, 40.036011%, 40.960693%)" offset="0.683594"/><stop stop-opacity="1" stop-color="rgb(55.85022%, 39.93988%, 41.195679%)" offset="0.6875"/><stop stop-opacity="1" stop-color="rgb(55.59845%, 39.84375%, 41.429138%)" offset="0.691406"/><stop stop-opacity="1" stop-color="rgb(55.348206%, 39.74762%, 41.664124%)" offset="0.695312"/><stop stop-opacity="1" stop-color="rgb(55.097961%, 39.651489%, 41.897583%)" offset="0.699219"/><stop stop-opacity="1" stop-color="rgb(54.847717%, 39.555359%, 42.132568%)" offset="0.703125"/><stop stop-opacity="1" stop-color="rgb(54.595947%, 39.457703%, 42.366028%)" offset="0.707031"/><stop stop-opacity="1" stop-color="rgb(54.345703%, 39.361572%, 42.599487%)" offset="0.710938"/><stop stop-opacity="1" stop-color="rgb(54.093933%, 39.265442%, 42.832947%)" offset="0.714844"/><stop stop-opacity="1" stop-color="rgb(53.843689%, 39.169312%, 43.067932%)" offset="0.71875"/><stop stop-opacity="1" stop-color="rgb(53.591919%, 39.073181%, 43.301392%)" offset="0.722656"/><stop stop-opacity="1" stop-color="rgb(53.341675%, 38.977051%, 43.536377%)" offset="0.726562"/><stop stop-opacity="1" stop-color="rgb(53.089905%, 38.879395%, 43.769836%)" offset="0.730469"/><stop stop-opacity="1" stop-color="rgb(52.839661%, 38.783264%, 44.004822%)" offset="0.734375"/><stop stop-opacity="1" stop-color="rgb(52.589417%, 38.687134%, 44.238281%)" offset="0.738281"/><stop stop-opacity="1" stop-color="rgb(52.339172%, 38.591003%, 44.473267%)" offset="0.742188"/><stop stop-opacity="1" stop-color="rgb(52.087402%, 38.494873%, 44.706726%)" offset="0.746094"/><stop stop-opacity="1" stop-color="rgb(51.837158%, 38.398743%, 44.940186%)" offset="0.75"/><stop stop-opacity="1" stop-color="rgb(51.585388%, 38.301086%, 45.173645%)" offset="0.753906"/><stop stop-opacity="1" stop-color="rgb(51.335144%, 38.204956%, 45.40863%)" offset="0.757812"/><stop stop-opacity="1" stop-color="rgb(51.083374%, 38.108826%, 45.64209%)" offset="0.761719"/><stop stop-opacity="1" stop-color="rgb(50.83313%, 38.012695%, 45.877075%)" offset="0.765625"/><stop stop-opacity="1" stop-color="rgb(50.582886%, 37.916565%, 46.110535%)" offset="0.769531"/><stop stop-opacity="1" stop-color="rgb(50.332642%, 37.820435%, 46.34552%)" offset="0.773438"/><stop stop-opacity="1" stop-color="rgb(50.080872%, 37.724304%, 46.578979%)" offset="0.777344"/><stop stop-opacity="1" stop-color="rgb(49.830627%, 37.628174%, 46.813965%)" offset="0.78125"/><stop stop-opacity="1" stop-color="rgb(49.578857%, 37.530518%, 47.047424%)" offset="0.785156"/><stop stop-opacity="1" stop-color="rgb(49.328613%, 37.434387%, 47.280884%)" offset="0.789062"/><stop stop-opacity="1" stop-color="rgb(49.076843%, 37.338257%, 47.514343%)" offset="0.792969"/><stop stop-opacity="1" stop-color="rgb(48.826599%, 37.242126%, 47.749329%)" offset="0.796875"/><stop stop-opacity="1" stop-color="rgb(48.574829%, 37.145996%, 47.982788%)" offset="0.800781"/><stop stop-opacity="1" stop-color="rgb(48.324585%, 37.049866%, 48.217773%)" offset="0.804688"/><stop stop-opacity="1" stop-color="rgb(48.074341%, 36.952209%, 48.451233%)" offset="0.808594"/><stop stop-opacity="1" stop-color="rgb(47.824097%, 36.856079%, 48.686218%)" offset="0.8125"/><stop stop-opacity="1" stop-color="rgb(47.572327%, 36.759949%, 48.919678%)" offset="0.816406"/><stop stop-opacity="1" stop-color="rgb(47.322083%, 36.663818%, 49.154663%)" offset="0.820312"/><stop stop-opacity="1" stop-color="rgb(47.070312%, 36.567688%, 49.388123%)" offset="0.824219"/><stop stop-opacity="1" stop-color="rgb(46.820068%, 36.471558%, 49.621582%)" offset="0.828125"/><stop stop-opacity="1" stop-color="rgb(46.568298%, 36.373901%, 49.855042%)" offset="0.832031"/><stop stop-opacity="1" stop-color="rgb(46.318054%, 36.277771%, 50.090027%)" offset="0.835938"/><stop stop-opacity="1" stop-color="rgb(46.066284%, 36.181641%, 50.323486%)" offset="0.839844"/><stop stop-opacity="1" stop-color="rgb(45.81604%, 36.08551%, 50.558472%)" offset="0.84375"/><stop stop-opacity="1" stop-color="rgb(45.565796%, 35.98938%, 50.791931%)" offset="0.847656"/><stop stop-opacity="1" stop-color="rgb(45.315552%, 35.89325%, 51.026917%)" offset="0.851562"/><stop stop-opacity="1" stop-color="rgb(45.063782%, 35.797119%, 51.260376%)" offset="0.855469"/><stop stop-opacity="1" stop-color="rgb(44.813538%, 35.700989%, 51.495361%)" offset="0.859375"/><stop stop-opacity="1" stop-color="rgb(44.561768%, 35.603333%, 51.728821%)" offset="0.863281"/><stop stop-opacity="1" stop-color="rgb(44.311523%, 35.507202%, 51.96228%)" offset="0.867188"/><stop stop-opacity="1" stop-color="rgb(44.059753%, 35.411072%, 52.19574%)" offset="0.871094"/><stop stop-opacity="1" stop-color="rgb(43.809509%, 35.314941%, 52.430725%)" offset="0.875"/><stop stop-opacity="1" stop-color="rgb(43.557739%, 35.218811%, 52.664185%)" offset="0.878906"/><stop stop-opacity="1" stop-color="rgb(43.307495%, 35.122681%, 52.89917%)" offset="0.882812"/><stop stop-opacity="1" stop-color="rgb(43.057251%, 35.025024%, 53.132629%)" offset="0.886719"/><stop stop-opacity="1" stop-color="rgb(42.807007%, 34.928894%, 53.367615%)" offset="0.890625"/><stop stop-opacity="1" stop-color="rgb(42.555237%, 34.832764%, 53.601074%)" offset="0.894531"/><stop stop-opacity="1" stop-color="rgb(42.304993%, 34.736633%, 53.83606%)" offset="0.898438"/><stop stop-opacity="1" stop-color="rgb(42.053223%, 34.640503%, 54.069519%)" offset="0.902344"/><stop stop-opacity="1" stop-color="rgb(41.802979%, 34.544373%, 54.302979%)" offset="0.90625"/><stop stop-opacity="1" stop-color="rgb(41.551208%, 34.446716%, 54.536438%)" offset="0.910156"/><stop stop-opacity="1" stop-color="rgb(41.300964%, 34.350586%, 54.771423%)" offset="0.914062"/><stop stop-opacity="1" stop-color="rgb(41.05072%, 34.254456%, 55.004883%)" offset="0.917969"/><stop stop-opacity="1" stop-color="rgb(40.800476%, 34.158325%, 55.239868%)" offset="0.921875"/><stop stop-opacity="1" stop-color="rgb(40.548706%, 34.062195%, 55.473328%)" offset="0.925781"/><stop stop-opacity="1" stop-color="rgb(40.298462%, 33.966064%, 55.708313%)" offset="0.929688"/><stop stop-opacity="1" stop-color="rgb(40.046692%, 33.869934%, 55.941772%)" offset="0.933594"/><stop stop-opacity="1" stop-color="rgb(39.796448%, 33.773804%, 56.176758%)" offset="0.9375"/><stop stop-opacity="1" stop-color="rgb(39.544678%, 33.676147%, 56.410217%)" offset="0.941406"/><stop stop-opacity="1" stop-color="rgb(39.294434%, 33.580017%, 56.643677%)" offset="0.945312"/><stop stop-opacity="1" stop-color="rgb(39.042664%, 33.483887%, 56.877136%)" offset="0.949219"/><stop stop-opacity="1" stop-color="rgb(38.792419%, 33.387756%, 57.112122%)" offset="0.953125"/><stop stop-opacity="1" stop-color="rgb(38.542175%, 33.291626%, 57.345581%)" offset="0.957031"/><stop stop-opacity="1" stop-color="rgb(38.291931%, 33.195496%, 57.580566%)" offset="0.960938"/><stop stop-opacity="1" stop-color="rgb(38.040161%, 33.097839%, 57.814026%)" offset="0.964844"/><stop stop-opacity="1" stop-color="rgb(37.789917%, 33.001709%, 58.049011%)" offset="0.96875"/><stop stop-opacity="1" stop-color="rgb(37.538147%, 32.905579%, 58.282471%)" offset="0.972656"/><stop stop-opacity="1" stop-color="rgb(37.287903%, 32.809448%, 58.517456%)" offset="0.976562"/><stop stop-opacity="1" stop-color="rgb(37.036133%, 32.713318%, 58.750916%)" offset="0.980469"/><stop stop-opacity="1" stop-color="rgb(36.785889%, 32.617188%, 58.984375%)" offset="0.984375"/><stop stop-opacity="1" stop-color="rgb(36.534119%, 32.519531%, 59.217834%)" offset="0.988281"/><stop stop-opacity="1" stop-color="rgb(36.283875%, 32.423401%, 59.45282%)" offset="0.992188"/><stop stop-opacity="1" stop-color="rgb(36.03363%, 32.327271%, 59.686279%)" offset="0.996094"/><stop stop-opacity="1" stop-color="rgb(35.783386%, 32.23114%, 59.921265%)" offset="1"/></linearGradient><mask id="b73cc2b44f"><g filter="url(#f4cca6ec6e)"><rect x="-37.5" width="450" fill="#000000" y="-37.499999" height="449.999989" fill-opacity="0.8"/></g></mask><clipPath id="f1446f32f8"><rect x="0" width="107" y="0" height="94"/></clipPath><mask id="7f1a99de63"><g filter="url(#f4cca6ec6e)"><rect x="-37.5" width="450" fill="#000000" y="-37.499999" height="449.999989" fill-opacity="0.8"/></g></mask><clipPath id="299bc9f6aa"><path d="M 3 2 L 28 2 L 28 57 L 3 57 Z M 3 2 " clip-rule="nonzero"/></clipPath><clipPath id="f005f4e9da"><path d="M -9.546875 4.496094 C -9.546875 4.496094 -2.140625 28.902344 7.746094 40.015625 C 17.632812 51.132812 25.652344 56.703125 25.652344 56.703125 C 25.652344 56.703125 28.4375 56.398438 33.367188 39.710938 C 38.296875 23.023438 30.886719 -1.660156 30.886719 -1.660156 L -7.402344 -12.164062 L -9.574219 4.523438 Z M -9.546875 4.496094 " clip-rule="nonzero"/></clipPath><clipPath id="f0431d9314"><path d="M 22 13 L 31.199219 13 L 31.199219 57 L 22 57 Z M 22 13 " clip-rule="nonzero"/></clipPath><clipPath id="8992aac5e5"><path d="M -9.546875 4.496094 C -9.546875 4.496094 -2.140625 28.902344 7.746094 40.015625 C 17.632812 51.132812 25.652344 56.703125 25.652344 56.703125 C 25.652344 56.703125 28.4375 56.398438 33.367188 39.710938 C 38.296875 23.023438 30.886719 -1.660156 30.886719 -1.660156 L -7.402344 -12.164062 L -9.574219 4.523438 Z M -9.546875 4.496094 " clip-rule="nonzero"/></clipPath><clipPath id="710b7bace1"><rect x="0" width="32" y="0" height="65"/></clipPath></defs><g clip-path="url(#3c74ac3f46)"><g clip-path="url(#ad1ccb34a3)"><path fill="url(#a2c335c389)" d="M 6.945312 0 L 6.945312 373.714844 L 369.335938 373.714844 L 369.335938 0 Z M 6.945312 0 " fill-rule="nonzero"/></g></g><path fill="#a55f3b" d="M 93.945312 273.410156 C 93.945312 273.410156 67.628906 212.453125 115.976562 166.320312 C 184.203125 101.238281 239.148438 150.941406 239.148438 150.941406 C 239.148438 150.941406 263.488281 144.421875 282.871094 162.140625 C 331.160156 206.242188 300.722656 265.023438 300.722656 265.023438 Z M 93.945312 273.410156 " fill-opacity="1" fill-rule="nonzero"/><path fill="#fad7d0" d="M 122.574219 209.109375 C 122.574219 209.109375 57.546875 316.898438 148.585938 352.222656 C 239.621094 387.523438 289.777344 318.765625 297.210938 281.601562 C 297.910156 278.203125 292.03125 261.097656 292.28125 257.667969 C 294.84375 223.515625 283.84375 202.203125 261.902344 188.691406 C 237.753906 173.8125 200.605469 157.097656 174.59375 166.375 C 148.585938 175.679688 122.574219 209.109375 122.574219 209.109375 Z M 122.574219 209.109375 " fill-opacity="1" fill-rule="nonzero"/><path fill="#a55f3b" d="M 240.875 186.265625 C 240.875 186.265625 237.003906 209.363281 211.496094 227.21875 C 191.640625 241.121094 174.761719 240.871094 174.761719 240.871094 C 174.761719 240.871094 199.9375 229.308594 209.40625 218.832031 C 218.847656 208.332031 223.050781 194.679688 223.050781 194.679688 C 223.050781 194.679688 208.347656 215.65625 187.351562 223.011719 C 166.351562 230.367188 145.382812 228.277344 125.441406 241.902344 C 105.503906 255.550781 101.296875 269.203125 101.296875 269.203125 C 101.296875 269.203125 79.269531 237.695312 112.855469 200.949219 C 146.441406 164.203125 181.085938 156.847656 208.347656 158.964844 C 235.640625 161.054688 251.375 176.820312 251.375 176.820312 C 251.375 176.820312 269.390625 172.753906 281.8125 186.265625 C 305.957031 212.511719 295.457031 269.203125 295.457031 269.203125 C 295.457031 269.203125 278.664062 261.847656 260.8125 235.605469 C 246.25 214.152344 240.875 186.265625 240.875 186.265625 Z M 240.875 186.265625 " fill-opacity="1" fill-rule="nonzero"/><g mask="url(#b73cc2b44f)"><g transform="matrix(1, 0, 0, 1, 89, 182)"><g clip-path="url(#f1446f32f8)"><path fill="#b57c60" d="M 11.242188 87.0625 C 11.074219 87.0625 10.90625 87.0625 10.710938 86.980469 C 9.679688 86.703125 9.066406 85.617188 9.347656 84.585938 C 9.738281 83.164062 19.261719 49.285156 50.03125 36.75 C 56.800781 33.992188 64.738281 31.261719 72.421875 28.617188 C 84.816406 24.351562 97.625 19.921875 101.609375 16.582031 C 102.445312 15.882812 103.667969 15.996094 104.367188 16.804688 C 105.0625 17.640625 104.949219 18.863281 104.113281 19.5625 C 99.601562 23.378906 87.601562 27.5 73.703125 32.292969 C 66.074219 34.910156 58.164062 37.640625 51.507812 40.34375 C 22.574219 52.128906 13.21875 85.253906 13.132812 85.558594 C 12.882812 86.421875 12.105469 87.007812 11.242188 87.007812 Z M 11.242188 87.0625 " fill-opacity="1" fill-rule="nonzero"/><path fill="#b57c60" d="M 8.09375 90.210938 C 7.089844 90.210938 6.253906 89.460938 6.144531 88.457031 C 6.03125 87.316406 3.609375 60.125 17.03125 39.980469 C 30.929688 19.117188 46.914062 12.652344 47.582031 12.375 C 48.585938 11.984375 49.726562 12.484375 50.117188 13.460938 C 50.507812 14.464844 50.03125 15.605469 49.03125 15.996094 C 48.863281 16.050781 33.492188 22.347656 20.292969 42.128906 C 7.621094 61.128906 10.015625 87.789062 10.042969 88.066406 C 10.152344 89.152344 9.347656 90.101562 8.289062 90.210938 C 8.234375 90.210938 8.148438 90.210938 8.09375 90.210938 Z M 8.09375 90.210938 " fill-opacity="1" fill-rule="nonzero"/><path fill="#b57c60" d="M 4.945312 89.152344 C 4 89.152344 3.191406 88.484375 3.023438 87.539062 C 2.773438 86.003906 -3.242188 49.898438 8.425781 25.46875 C 15.863281 9.894531 26.417969 1.980469 26.863281 1.648438 C 27.726562 1.007812 28.953125 1.203125 29.59375 2.066406 C 30.234375 2.929688 30.066406 4.15625 29.175781 4.796875 C 29.0625 4.878906 18.925781 12.539062 11.9375 27.167969 C 0.796875 50.484375 6.785156 86.535156 6.839844 86.898438 C 7.035156 87.957031 6.3125 88.957031 5.253906 89.152344 C 5.140625 89.152344 5.03125 89.179688 4.917969 89.179688 Z M 4.945312 89.152344 " fill-opacity="1" fill-rule="nonzero"/></g></g></g><g mask="url(#7f1a99de63)"><g transform="matrix(1, 0, 0, 1, 270, 213)"><g clip-path="url(#710b7bace1)"><g clip-path="url(#299bc9f6aa)"><g clip-path="url(#f005f4e9da)"><path fill="#b57c60" d="M 25.429688 58.152344 C 24.871094 58.152344 24.34375 57.929688 23.953125 57.484375 C 23.59375 57.066406 14.707031 46.757812 8.886719 30.601562 C 3.679688 16.113281 3.316406 5.304688 3.289062 4.832031 C 3.261719 3.746094 4.097656 2.851562 5.183594 2.824219 C 6.269531 2.769531 7.160156 3.632812 7.1875 4.71875 C 7.1875 4.832031 7.550781 15.417969 12.535156 29.261719 C 18.105469 44.699219 26.765625 54.808594 26.878906 54.894531 C 27.574219 55.703125 27.492188 56.957031 26.683594 57.652344 C 26.320312 57.988281 25.847656 58.125 25.402344 58.125 Z M 25.429688 58.152344 " fill-opacity="1" fill-rule="nonzero"/></g></g><g clip-path="url(#f0431d9314)"><g clip-path="url(#8992aac5e5)"><path fill="#b57c60" d="M 25.429688 64.476562 C 25.207031 64.476562 25.011719 64.449219 24.789062 64.367188 C 23.757812 64.003906 23.230469 62.890625 23.5625 61.886719 C 23.621094 61.773438 27.65625 49.796875 27.074219 36.730469 C 26.488281 23.859375 22.421875 16.699219 22.394531 16.617188 C 21.867188 15.667969 22.171875 14.5 23.117188 13.941406 C 24.039062 13.410156 25.234375 13.71875 25.792969 14.636719 C 25.988281 14.945312 30.359375 22.632812 31 36.535156 C 31.640625 50.382812 27.460938 62.640625 27.296875 63.167969 C 27.015625 63.976562 26.265625 64.476562 25.457031 64.476562 Z M 25.429688 64.476562 " fill-opacity="1" fill-rule="nonzero"/></g></g></g></g></g><path fill="#fad7d0" d="M 289.023438 275.804688 C 289.023438 275.804688 295.011719 253.324219 310.96875 268.089844 C 320.242188 276.667969 310.078125 307.539062 293.175781 313.609375 C 276.269531 319.65625 282.007812 306.144531 282.007812 306.144531 Z M 289.023438 275.804688 " fill-opacity="1" fill-rule="nonzero"/><path fill="#fad7d0" d="M 107.648438 277.476562 C 107.648438 277.476562 103.304688 256.359375 87.320312 270.429688 C 78.519531 278.175781 87.988281 306.757812 103.636719 312.273438 C 119.289062 317.789062 114.023438 305.363281 114.023438 305.363281 L 107.648438 277.449219 Z M 107.648438 277.476562 " fill-opacity="1" fill-rule="nonzero"/><path fill="#a55f3b" d="M 148.695312 280.179688 C 148.695312 286.335938 145.800781 291.269531 142.261719 291.296875 C 138.699219 291.296875 135.859375 286.308594 135.859375 280.152344 C 135.859375 274.023438 138.78125 269.0625 142.292969 269.035156 C 145.855469 269.035156 148.695312 274.023438 148.695312 280.152344 Z M 148.695312 280.179688 " fill-opacity="1" fill-rule="nonzero"/><path fill="#a55f3b" d="M 249.589844 280.179688 C 249.589844 286.335938 246.695312 291.269531 243.160156 291.296875 C 239.59375 291.296875 236.753906 286.308594 236.753906 280.152344 C 236.753906 274.023438 239.675781 269.0625 243.1875 269.035156 C 246.75 269.035156 249.589844 274.023438 249.589844 280.152344 Z M 249.589844 280.179688 " fill-opacity="1" fill-rule="nonzero"/><path fill="#a55f3b" d="M 182.671875 319.320312 C 184.84375 320.464844 185.957031 322.554688 185.207031 323.976562 C 184.480469 325.394531 182.085938 325.617188 179.941406 324.449219 C 177.769531 323.277344 176.628906 321.1875 177.378906 319.796875 C 178.160156 318.375 180.5 318.152344 182.671875 319.320312 Z M 182.671875 319.320312 " fill-opacity="1" fill-rule="nonzero"/><path fill="#a55f3b" d="M 198.992188 346.429688 C 190.636719 346.429688 184.871094 341.554688 184.566406 341.304688 C 183.507812 340.410156 183.394531 338.824219 184.285156 337.765625 C 185.179688 336.707031 186.765625 336.59375 187.824219 337.488281 C 188.101562 337.710938 194.480469 343.003906 203 340.914062 C 211.941406 338.710938 213.640625 332.164062 213.695312 331.886719 C 214.027344 330.550781 215.367188 329.714844 216.703125 330.019531 C 218.039062 330.328125 218.875 331.664062 218.566406 333 C 218.484375 333.390625 216.230469 342.808594 204.171875 345.789062 C 202.332031 346.234375 200.605469 346.429688 198.964844 346.429688 Z M 198.992188 346.429688 " fill-opacity="1" fill-rule="nonzero"/><path fill="#f7c1b3" d="M 270.617188 309.820312 C 270.617188 313.417969 265.492188 316.3125 259.199219 316.3125 C 252.90625 316.3125 247.78125 313.417969 247.78125 309.820312 C 247.78125 306.226562 252.90625 303.332031 259.199219 303.332031 C 265.492188 303.332031 270.617188 306.226562 270.617188 309.820312 Z M 270.617188 309.820312 " fill-opacity="1" fill-rule="nonzero"/><path fill="#f7c1b3" d="M 140.675781 309.820312 C 140.675781 310.25 140.601562 310.671875 140.457031 311.089844 C 140.308594 311.507812 140.09375 311.914062 139.808594 312.304688 C 139.519531 312.699219 139.167969 313.074219 138.75 313.429688 C 138.335938 313.78125 137.863281 314.109375 137.332031 314.414062 C 136.800781 314.714844 136.226562 314.984375 135.601562 315.21875 C 134.976562 315.457031 134.320312 315.65625 133.628906 315.820312 C 132.933594 315.984375 132.222656 316.105469 131.484375 316.1875 C 130.75 316.273438 130.007812 316.3125 129.257812 316.3125 C 128.507812 316.3125 127.765625 316.273438 127.03125 316.1875 C 126.296875 316.105469 125.582031 315.984375 124.890625 315.820312 C 124.195312 315.65625 123.539062 315.457031 122.914062 315.21875 C 122.292969 314.984375 121.714844 314.714844 121.183594 314.414062 C 120.65625 314.109375 120.179688 313.78125 119.765625 313.429688 C 119.347656 313.074219 118.996094 312.699219 118.710938 312.304688 C 118.421875 311.914062 118.207031 311.507812 118.058594 311.089844 C 117.914062 310.671875 117.839844 310.25 117.839844 309.820312 C 117.839844 309.394531 117.914062 308.972656 118.058594 308.554688 C 118.207031 308.136719 118.421875 307.730469 118.710938 307.339844 C 118.996094 306.945312 119.347656 306.570312 119.765625 306.214844 C 120.179688 305.863281 120.65625 305.535156 121.183594 305.230469 C 121.714844 304.929688 122.292969 304.660156 122.914062 304.425781 C 123.539062 304.1875 124.195312 303.988281 124.890625 303.824219 C 125.582031 303.660156 126.296875 303.539062 127.03125 303.457031 C 127.765625 303.371094 128.507812 303.332031 129.257812 303.332031 C 130.007812 303.332031 130.75 303.371094 131.484375 303.457031 C 132.222656 303.539062 132.933594 303.660156 133.628906 303.824219 C 134.320312 303.988281 134.976562 304.1875 135.601562 304.425781 C 136.226562 304.660156 136.800781 304.929688 137.332031 305.230469 C 137.863281 305.535156 138.335938 305.863281 138.75 306.214844 C 139.167969 306.570312 139.519531 306.945312 139.808594 307.339844 C 140.09375 307.730469 140.308594 308.136719 140.457031 308.554688 C 140.601562 308.972656 140.675781 309.394531 140.675781 309.820312 Z M 140.675781 309.820312 " fill-opacity="1" fill-rule="nonzero"/><g fill="#ffffff" fill-opacity="1"><g transform="translate(127.886148, 105.261718)"><g><path d="M 47.203125 0 L 11.375 0 L 11.375 -11.15625 L 23.28125 -11.15625 L 23.28125 -61.046875 L 12.453125 -55.359375 L 9.328125 -65.453125 L 29.40625 -76.1875 L 34.984375 -76.1875 L 34.984375 -11.15625 L 47.203125 -11.15625 Z M 47.203125 0 "/></g></g><g transform="translate(181.531756, 105.261718)"><g><path d="M 29.40625 -76.390625 C 34.125 -76.390625 38.445312 -75.28125 42.375 -73.0625 C 46.3125 -70.851562 49.457031 -67.851562 51.8125 -64.0625 C 54.175781 -60.269531 55.359375 -56.007812 55.359375 -51.28125 C 55.359375 -46.707031 54.285156 -41.613281 52.140625 -36 C 49.992188 -30.382812 47.53125 -24.609375 44.75 -18.671875 L 35.84375 0 L 24.46875 0 L 24.03125 -1.078125 L 37.546875 -29.71875 C 35.835938 -28.570312 34 -27.675781 32.03125 -27.03125 C 30.0625 -26.394531 28.003906 -26.078125 25.859375 -26.078125 C 21.785156 -26.078125 18.03125 -27.148438 14.59375 -29.296875 C 11.15625 -31.441406 8.398438 -34.300781 6.328125 -37.875 C 4.253906 -41.445312 3.21875 -45.347656 3.21875 -49.578125 C 3.21875 -54.796875 4.378906 -59.425781 6.703125 -63.46875 C 9.023438 -67.507812 12.171875 -70.671875 16.140625 -72.953125 C 20.117188 -75.242188 24.539062 -76.390625 29.40625 -76.390625 Z M 28.546875 -65.671875 C 24.960938 -65.671875 21.828125 -64.378906 19.140625 -61.796875 C 16.460938 -59.222656 15.125 -55.613281 15.125 -50.96875 C 15.125 -48.675781 15.675781 -46.4375 16.78125 -44.25 C 17.894531 -42.070312 19.453125 -40.285156 21.453125 -38.890625 C 23.460938 -37.492188 25.753906 -36.796875 28.328125 -36.796875 C 31.398438 -36.796875 34.007812 -37.457031 36.15625 -38.78125 C 38.300781 -40.101562 39.960938 -41.835938 41.140625 -43.984375 C 42.328125 -46.128906 42.921875 -48.421875 42.921875 -50.859375 C 42.921875 -53.503906 42.347656 -55.9375 41.203125 -58.15625 C 40.054688 -60.375 38.410156 -62.179688 36.265625 -63.578125 C 34.117188 -64.972656 31.546875 -65.671875 28.546875 -65.671875 Z M 28.546875 -65.671875 "/></g></g></g></svg>