<svg xmlns="http://www.w3.org/2000/svg" xmlns:xlink="http://www.w3.org/1999/xlink" width="500" zoomAndPan="magnify" viewBox="0 0 375 374.999991" height="500" preserveAspectRatio="xMidYMid meet" version="1.0"><defs><g/><clipPath id="479f28c4a3"><path d="M 6.640625 0 L 369.640625 0 L 369.640625 375 L 6.640625 375 Z M 6.640625 0 " clip-rule="nonzero"/></clipPath><clipPath id="b38c3c588a"><path d="M 20.890625 0 L 355.390625 0 C 359.171875 0 362.796875 1.5 365.46875 4.171875 C 368.140625 6.847656 369.640625 10.46875 369.640625 14.25 L 369.640625 360.601562 C 369.640625 364.378906 368.140625 368.003906 365.46875 370.675781 C 362.796875 373.351562 359.171875 374.851562 355.390625 374.851562 L 20.890625 374.851562 C 17.109375 374.851562 13.488281 373.351562 10.8125 370.675781 C 8.140625 368.003906 6.640625 364.378906 6.640625 360.601562 L 6.640625 14.25 C 6.640625 10.46875 8.140625 6.847656 10.8125 4.171875 C 13.488281 1.5 17.109375 0 20.890625 0 Z M 20.890625 0 " clip-rule="nonzero"/></clipPath><clipPath id="6bcbf776d6"><path d="M 208 174 L 326 174 L 326 270 L 208 270 Z M 208 174 " clip-rule="nonzero"/></clipPath><clipPath id="d637f81bfb"><path d="M 98.226562 74.539062 L 351.222656 149.964844 L 274.9375 405.835938 L 21.941406 330.410156 Z M 98.226562 74.539062 " clip-rule="nonzero"/></clipPath><clipPath id="e18d8c20b0"><path d="M 98.226562 74.539062 L 351.222656 149.964844 L 274.9375 405.835938 L 21.941406 330.410156 Z M 98.226562 74.539062 " clip-rule="nonzero"/></clipPath><clipPath id="628f92fab8"><path d="M 206 172 L 328 172 L 328 272 L 206 272 Z M 206 172 " clip-rule="nonzero"/></clipPath><clipPath id="8db5a7fe14"><path d="M 98.226562 74.539062 L 351.222656 149.964844 L 274.9375 405.835938 L 21.941406 330.410156 Z M 98.226562 74.539062 " clip-rule="nonzero"/></clipPath><clipPath id="b5f1921028"><path d="M 98.226562 74.539062 L 351.222656 149.964844 L 274.9375 405.835938 L 21.941406 330.410156 Z M 98.226562 74.539062 " clip-rule="nonzero"/></clipPath><clipPath id="5cf6c3966f"><path d="M 25 145 L 344 145 L 344 329 L 25 329 Z M 25 145 " clip-rule="nonzero"/></clipPath><clipPath id="a3a0c461b9"><path d="M 98.226562 74.539062 L 351.222656 149.964844 L 274.9375 405.835938 L 21.941406 330.410156 Z M 98.226562 74.539062 " clip-rule="nonzero"/></clipPath><clipPath id="b27cda82b7"><path d="M 98.226562 74.539062 L 351.222656 149.964844 L 274.9375 405.835938 L 21.941406 330.410156 Z M 98.226562 74.539062 " clip-rule="nonzero"/></clipPath><clipPath id="b95588e644"><path d="M 22 142 L 346 142 L 346 332 L 22 332 Z M 22 142 " clip-rule="nonzero"/></clipPath><clipPath id="7a1add2976"><path d="M 98.226562 74.539062 L 351.222656 149.964844 L 274.9375 405.835938 L 21.941406 330.410156 Z M 98.226562 74.539062 " clip-rule="nonzero"/></clipPath><clipPath id="310c0596e1"><path d="M 98.226562 74.539062 L 351.222656 149.964844 L 274.9375 405.835938 L 21.941406 330.410156 Z M 98.226562 74.539062 " clip-rule="nonzero"/></clipPath><clipPath id="1373e10022"><path d="M 25 287 L 80 287 L 80 329 L 25 329 Z M 25 287 " clip-rule="nonzero"/></clipPath><clipPath id="44d3a1d1e8"><path d="M 98.226562 74.539062 L 351.222656 149.964844 L 274.9375 405.835938 L 21.941406 330.410156 Z M 98.226562 74.539062 " clip-rule="nonzero"/></clipPath><clipPath id="fa65549389"><path d="M 98.226562 74.539062 L 351.222656 149.964844 L 274.9375 405.835938 L 21.941406 330.410156 Z M 98.226562 74.539062 " clip-rule="nonzero"/></clipPath><clipPath id="9d13d6921b"><path d="M 22 284 L 82 284 L 82 332 L 22 332 Z M 22 284 " clip-rule="nonzero"/></clipPath><clipPath id="22a4f6897e"><path d="M 98.226562 74.539062 L 351.222656 149.964844 L 274.9375 405.835938 L 21.941406 330.410156 Z M 98.226562 74.539062 " clip-rule="nonzero"/></clipPath><clipPath id="76dceccd93"><path d="M 98.226562 74.539062 L 351.222656 149.964844 L 274.9375 405.835938 L 21.941406 330.410156 Z M 98.226562 74.539062 " clip-rule="nonzero"/></clipPath><clipPath id="e011bbbf62"><path d="M 170 220 L 201 220 L 201 262 L 170 262 Z M 170 220 " clip-rule="nonzero"/></clipPath><clipPath id="946f6011fb"><path d="M 98.226562 74.539062 L 351.222656 149.964844 L 274.9375 405.835938 L 21.941406 330.410156 Z M 98.226562 74.539062 " clip-rule="nonzero"/></clipPath><clipPath id="bd0977e53e"><path d="M 98.226562 74.539062 L 351.222656 149.964844 L 274.9375 405.835938 L 21.941406 330.410156 Z M 98.226562 74.539062 " clip-rule="nonzero"/></clipPath><clipPath id="14323bbe33"><path d="M 167 218 L 203 218 L 203 264 L 167 264 Z M 167 218 " clip-rule="nonzero"/></clipPath><clipPath id="c6a9b3aea7"><path d="M 98.226562 74.539062 L 351.222656 149.964844 L 274.9375 405.835938 L 21.941406 330.410156 Z M 98.226562 74.539062 " clip-rule="nonzero"/></clipPath><clipPath id="84087b8e29"><path d="M 98.226562 74.539062 L 351.222656 149.964844 L 274.9375 405.835938 L 21.941406 330.410156 Z M 98.226562 74.539062 " clip-rule="nonzero"/></clipPath><clipPath id="87db285d32"><path d="M 304 145 L 344 145 L 344 188 L 304 188 Z M 304 145 " clip-rule="nonzero"/></clipPath><clipPath id="4da6ff3f1d"><path d="M 98.226562 74.539062 L 351.222656 149.964844 L 274.9375 405.835938 L 21.941406 330.410156 Z M 98.226562 74.539062 " clip-rule="nonzero"/></clipPath><clipPath id="c71d86ef3c"><path d="M 98.226562 74.539062 L 351.222656 149.964844 L 274.9375 405.835938 L 21.941406 330.410156 Z M 98.226562 74.539062 " clip-rule="nonzero"/></clipPath><clipPath id="ce4b45e015"><path d="M 302 142 L 346 142 L 346 190 L 302 190 Z M 302 142 " clip-rule="nonzero"/></clipPath><clipPath id="c1049cde78"><path d="M 98.226562 74.539062 L 351.222656 149.964844 L 274.9375 405.835938 L 21.941406 330.410156 Z M 98.226562 74.539062 " clip-rule="nonzero"/></clipPath><clipPath id="117d665ec4"><path d="M 98.226562 74.539062 L 351.222656 149.964844 L 274.9375 405.835938 L 21.941406 330.410156 Z M 98.226562 74.539062 " clip-rule="nonzero"/></clipPath><clipPath id="c33d02effa"><path d="M 308 179 L 326 179 L 326 186 L 308 186 Z M 308 179 " clip-rule="nonzero"/></clipPath><clipPath id="7565b2f88b"><path d="M 98.226562 74.539062 L 351.222656 149.964844 L 274.9375 405.835938 L 21.941406 330.410156 Z M 98.226562 74.539062 " clip-rule="nonzero"/></clipPath><clipPath id="ba2d3c96ff"><path d="M 98.226562 74.539062 L 351.222656 149.964844 L 274.9375 405.835938 L 21.941406 330.410156 Z M 98.226562 74.539062 " clip-rule="nonzero"/></clipPath><clipPath id="651b7a1378"><path d="M 304 182 L 320 182 L 320 189 L 304 189 Z M 304 182 " clip-rule="nonzero"/></clipPath><clipPath id="97ff51a0ad"><path d="M 98.226562 74.539062 L 351.222656 149.964844 L 274.9375 405.835938 L 21.941406 330.410156 Z M 98.226562 74.539062 " clip-rule="nonzero"/></clipPath><clipPath id="9e1950d126"><path d="M 98.226562 74.539062 L 351.222656 149.964844 L 274.9375 405.835938 L 21.941406 330.410156 Z M 98.226562 74.539062 " clip-rule="nonzero"/></clipPath><clipPath id="37fec4f17c"><path d="M 299 186 L 314 186 L 314 193 L 299 193 Z M 299 186 " clip-rule="nonzero"/></clipPath><clipPath id="e4470315e4"><path d="M 98.226562 74.539062 L 351.222656 149.964844 L 274.9375 405.835938 L 21.941406 330.410156 Z M 98.226562 74.539062 " clip-rule="nonzero"/></clipPath><clipPath id="384e23aabf"><path d="M 98.226562 74.539062 L 351.222656 149.964844 L 274.9375 405.835938 L 21.941406 330.410156 Z M 98.226562 74.539062 " clip-rule="nonzero"/></clipPath><clipPath id="cbb66d6e90"><path d="M 293 189 L 308 189 L 308 196 L 293 196 Z M 293 189 " clip-rule="nonzero"/></clipPath><clipPath id="791ecbef30"><path d="M 98.226562 74.539062 L 351.222656 149.964844 L 274.9375 405.835938 L 21.941406 330.410156 Z M 98.226562 74.539062 " clip-rule="nonzero"/></clipPath><clipPath id="933820d192"><path d="M 98.226562 74.539062 L 351.222656 149.964844 L 274.9375 405.835938 L 21.941406 330.410156 Z M 98.226562 74.539062 " clip-rule="nonzero"/></clipPath><clipPath id="503c5809e5"><path d="M 288 193 L 302 193 L 302 199 L 288 199 Z M 288 193 " clip-rule="nonzero"/></clipPath><clipPath id="cf34c022c9"><path d="M 98.226562 74.539062 L 351.222656 149.964844 L 274.9375 405.835938 L 21.941406 330.410156 Z M 98.226562 74.539062 " clip-rule="nonzero"/></clipPath><clipPath id="ccc9a379fe"><path d="M 98.226562 74.539062 L 351.222656 149.964844 L 274.9375 405.835938 L 21.941406 330.410156 Z M 98.226562 74.539062 " clip-rule="nonzero"/></clipPath><clipPath id="cc00e694f4"><path d="M 282 196 L 296 196 L 296 203 L 282 203 Z M 282 196 " clip-rule="nonzero"/></clipPath><clipPath id="c5b65213c6"><path d="M 98.226562 74.539062 L 351.222656 149.964844 L 274.9375 405.835938 L 21.941406 330.410156 Z M 98.226562 74.539062 " clip-rule="nonzero"/></clipPath><clipPath id="503f7fef65"><path d="M 98.226562 74.539062 L 351.222656 149.964844 L 274.9375 405.835938 L 21.941406 330.410156 Z M 98.226562 74.539062 " clip-rule="nonzero"/></clipPath><clipPath id="124d983e81"><path d="M 276 199 L 290 199 L 290 206 L 276 206 Z M 276 199 " clip-rule="nonzero"/></clipPath><clipPath id="2c82dfd154"><path d="M 98.226562 74.539062 L 351.222656 149.964844 L 274.9375 405.835938 L 21.941406 330.410156 Z M 98.226562 74.539062 " clip-rule="nonzero"/></clipPath><clipPath id="0280cb8364"><path d="M 98.226562 74.539062 L 351.222656 149.964844 L 274.9375 405.835938 L 21.941406 330.410156 Z M 98.226562 74.539062 " clip-rule="nonzero"/></clipPath><clipPath id="73dfad8248"><path d="M 270 203 L 284 203 L 284 209 L 270 209 Z M 270 203 " clip-rule="nonzero"/></clipPath><clipPath id="4c5e894f56"><path d="M 98.226562 74.539062 L 351.222656 149.964844 L 274.9375 405.835938 L 21.941406 330.410156 Z M 98.226562 74.539062 " clip-rule="nonzero"/></clipPath><clipPath id="6bf132997a"><path d="M 98.226562 74.539062 L 351.222656 149.964844 L 274.9375 405.835938 L 21.941406 330.410156 Z M 98.226562 74.539062 " clip-rule="nonzero"/></clipPath><clipPath id="8f5b3b36f2"><path d="M 264 206 L 279 206 L 279 212 L 264 212 Z M 264 206 " clip-rule="nonzero"/></clipPath><clipPath id="5a6e7f6ab3"><path d="M 98.226562 74.539062 L 351.222656 149.964844 L 274.9375 405.835938 L 21.941406 330.410156 Z M 98.226562 74.539062 " clip-rule="nonzero"/></clipPath><clipPath id="abbc02c965"><path d="M 98.226562 74.539062 L 351.222656 149.964844 L 274.9375 405.835938 L 21.941406 330.410156 Z M 98.226562 74.539062 " clip-rule="nonzero"/></clipPath><clipPath id="f46d2edb78"><path d="M 258 209 L 273 209 L 273 215 L 258 215 Z M 258 209 " clip-rule="nonzero"/></clipPath><clipPath id="2e72fd5006"><path d="M 98.226562 74.539062 L 351.222656 149.964844 L 274.9375 405.835938 L 21.941406 330.410156 Z M 98.226562 74.539062 " clip-rule="nonzero"/></clipPath><clipPath id="8297b868fd"><path d="M 98.226562 74.539062 L 351.222656 149.964844 L 274.9375 405.835938 L 21.941406 330.410156 Z M 98.226562 74.539062 " clip-rule="nonzero"/></clipPath><clipPath id="5928e5c907"><path d="M 252 213 L 266 213 L 266 219 L 252 219 Z M 252 213 " clip-rule="nonzero"/></clipPath><clipPath id="f40810c04a"><path d="M 98.226562 74.539062 L 351.222656 149.964844 L 274.9375 405.835938 L 21.941406 330.410156 Z M 98.226562 74.539062 " clip-rule="nonzero"/></clipPath><clipPath id="a6f433df5d"><path d="M 98.226562 74.539062 L 351.222656 149.964844 L 274.9375 405.835938 L 21.941406 330.410156 Z M 98.226562 74.539062 " clip-rule="nonzero"/></clipPath><clipPath id="90fef45ec3"><path d="M 246 216 L 261 216 L 261 222 L 246 222 Z M 246 216 " clip-rule="nonzero"/></clipPath><clipPath id="9b51edfc64"><path d="M 98.226562 74.539062 L 351.222656 149.964844 L 274.9375 405.835938 L 21.941406 330.410156 Z M 98.226562 74.539062 " clip-rule="nonzero"/></clipPath><clipPath id="94c2ce0165"><path d="M 98.226562 74.539062 L 351.222656 149.964844 L 274.9375 405.835938 L 21.941406 330.410156 Z M 98.226562 74.539062 " clip-rule="nonzero"/></clipPath><clipPath id="ae29a21575"><path d="M 239 219 L 255 219 L 255 225 L 239 225 Z M 239 219 " clip-rule="nonzero"/></clipPath><clipPath id="b3901cb4ff"><path d="M 98.226562 74.539062 L 351.222656 149.964844 L 274.9375 405.835938 L 21.941406 330.410156 Z M 98.226562 74.539062 " clip-rule="nonzero"/></clipPath><clipPath id="941cf2885b"><path d="M 98.226562 74.539062 L 351.222656 149.964844 L 274.9375 405.835938 L 21.941406 330.410156 Z M 98.226562 74.539062 " clip-rule="nonzero"/></clipPath><clipPath id="2f60b267c5"><path d="M 233 222 L 248 222 L 248 229 L 233 229 Z M 233 222 " clip-rule="nonzero"/></clipPath><clipPath id="5b2ce8bd77"><path d="M 98.226562 74.539062 L 351.222656 149.964844 L 274.9375 405.835938 L 21.941406 330.410156 Z M 98.226562 74.539062 " clip-rule="nonzero"/></clipPath><clipPath id="a72b826e00"><path d="M 98.226562 74.539062 L 351.222656 149.964844 L 274.9375 405.835938 L 21.941406 330.410156 Z M 98.226562 74.539062 " clip-rule="nonzero"/></clipPath><clipPath id="fb5515812d"><path d="M 226 225 L 243 225 L 243 232 L 226 232 Z M 226 225 " clip-rule="nonzero"/></clipPath><clipPath id="414cfe8418"><path d="M 98.226562 74.539062 L 351.222656 149.964844 L 274.9375 405.835938 L 21.941406 330.410156 Z M 98.226562 74.539062 " clip-rule="nonzero"/></clipPath><clipPath id="eb58c156b1"><path d="M 98.226562 74.539062 L 351.222656 149.964844 L 274.9375 405.835938 L 21.941406 330.410156 Z M 98.226562 74.539062 " clip-rule="nonzero"/></clipPath><clipPath id="418a79b935"><path d="M 216 227 L 236 227 L 236 235 L 216 235 Z M 216 227 " clip-rule="nonzero"/></clipPath><clipPath id="eaa70934ee"><path d="M 98.226562 74.539062 L 351.222656 149.964844 L 274.9375 405.835938 L 21.941406 330.410156 Z M 98.226562 74.539062 " clip-rule="nonzero"/></clipPath><clipPath id="076b469e2a"><path d="M 98.226562 74.539062 L 351.222656 149.964844 L 274.9375 405.835938 L 21.941406 330.410156 Z M 98.226562 74.539062 " clip-rule="nonzero"/></clipPath><clipPath id="2689d58ad4"><path d="M 206 229 L 231 229 L 231 238 L 206 238 Z M 206 229 " clip-rule="nonzero"/></clipPath><clipPath id="e5cb1581d2"><path d="M 98.226562 74.539062 L 351.222656 149.964844 L 274.9375 405.835938 L 21.941406 330.410156 Z M 98.226562 74.539062 " clip-rule="nonzero"/></clipPath><clipPath id="0afd553c4b"><path d="M 98.226562 74.539062 L 351.222656 149.964844 L 274.9375 405.835938 L 21.941406 330.410156 Z M 98.226562 74.539062 " clip-rule="nonzero"/></clipPath><clipPath id="6ef4fb19ce"><path d="M 196 231 L 225 231 L 225 241 L 196 241 Z M 196 231 " clip-rule="nonzero"/></clipPath><clipPath id="4951da5afa"><path d="M 98.226562 74.539062 L 351.222656 149.964844 L 274.9375 405.835938 L 21.941406 330.410156 Z M 98.226562 74.539062 " clip-rule="nonzero"/></clipPath><clipPath id="a245cbe6e0"><path d="M 98.226562 74.539062 L 351.222656 149.964844 L 274.9375 405.835938 L 21.941406 330.410156 Z M 98.226562 74.539062 " clip-rule="nonzero"/></clipPath><clipPath id="851ff1a3da"><path d="M 183 233 L 219 233 L 219 245 L 183 245 Z M 183 233 " clip-rule="nonzero"/></clipPath><clipPath id="94c0c868eb"><path d="M 98.226562 74.539062 L 351.222656 149.964844 L 274.9375 405.835938 L 21.941406 330.410156 Z M 98.226562 74.539062 " clip-rule="nonzero"/></clipPath><clipPath id="8a0dfd985b"><path d="M 98.226562 74.539062 L 351.222656 149.964844 L 274.9375 405.835938 L 21.941406 330.410156 Z M 98.226562 74.539062 " clip-rule="nonzero"/></clipPath><clipPath id="a5acf64f6c"><path d="M 185 238 L 213 238 L 213 248 L 185 248 Z M 185 238 " clip-rule="nonzero"/></clipPath><clipPath id="50b2081550"><path d="M 98.226562 74.539062 L 351.222656 149.964844 L 274.9375 405.835938 L 21.941406 330.410156 Z M 98.226562 74.539062 " clip-rule="nonzero"/></clipPath><clipPath id="4936890b6c"><path d="M 98.226562 74.539062 L 351.222656 149.964844 L 274.9375 405.835938 L 21.941406 330.410156 Z M 98.226562 74.539062 " clip-rule="nonzero"/></clipPath><clipPath id="a4f69beb60"><path d="M 191 245 L 207 245 L 207 252 L 191 252 Z M 191 245 " clip-rule="nonzero"/></clipPath><clipPath id="c7a6ab8bea"><path d="M 98.226562 74.539062 L 351.222656 149.964844 L 274.9375 405.835938 L 21.941406 330.410156 Z M 98.226562 74.539062 " clip-rule="nonzero"/></clipPath><clipPath id="92f39e9e2c"><path d="M 98.226562 74.539062 L 351.222656 149.964844 L 274.9375 405.835938 L 21.941406 330.410156 Z M 98.226562 74.539062 " clip-rule="nonzero"/></clipPath><clipPath id="cbad0f08cf"><path d="M 171 244 L 201 244 L 201 255 L 171 255 Z M 171 244 " clip-rule="nonzero"/></clipPath><clipPath id="9347459a35"><path d="M 98.226562 74.539062 L 351.222656 149.964844 L 274.9375 405.835938 L 21.941406 330.410156 Z M 98.226562 74.539062 " clip-rule="nonzero"/></clipPath><clipPath id="22fad6bba1"><path d="M 98.226562 74.539062 L 351.222656 149.964844 L 274.9375 405.835938 L 21.941406 330.410156 Z M 98.226562 74.539062 " clip-rule="nonzero"/></clipPath><clipPath id="6f34613d6c"><path d="M 166 248 L 195 248 L 195 258 L 166 258 Z M 166 248 " clip-rule="nonzero"/></clipPath><clipPath id="a3dfdc254d"><path d="M 98.226562 74.539062 L 351.222656 149.964844 L 274.9375 405.835938 L 21.941406 330.410156 Z M 98.226562 74.539062 " clip-rule="nonzero"/></clipPath><clipPath id="cfefd7dc06"><path d="M 98.226562 74.539062 L 351.222656 149.964844 L 274.9375 405.835938 L 21.941406 330.410156 Z M 98.226562 74.539062 " clip-rule="nonzero"/></clipPath><clipPath id="692851364c"><path d="M 163 252 L 189 252 L 189 261 L 163 261 Z M 163 252 " clip-rule="nonzero"/></clipPath><clipPath id="fc50098011"><path d="M 98.226562 74.539062 L 351.222656 149.964844 L 274.9375 405.835938 L 21.941406 330.410156 Z M 98.226562 74.539062 " clip-rule="nonzero"/></clipPath><clipPath id="7b7b19a4e1"><path d="M 98.226562 74.539062 L 351.222656 149.964844 L 274.9375 405.835938 L 21.941406 330.410156 Z M 98.226562 74.539062 " clip-rule="nonzero"/></clipPath><clipPath id="3d94ae2347"><path d="M 160 256 L 184 256 L 184 265 L 160 265 Z M 160 256 " clip-rule="nonzero"/></clipPath><clipPath id="1059cc6c2a"><path d="M 98.226562 74.539062 L 351.222656 149.964844 L 274.9375 405.835938 L 21.941406 330.410156 Z M 98.226562 74.539062 " clip-rule="nonzero"/></clipPath><clipPath id="39509b4ea1"><path d="M 98.226562 74.539062 L 351.222656 149.964844 L 274.9375 405.835938 L 21.941406 330.410156 Z M 98.226562 74.539062 " clip-rule="nonzero"/></clipPath><clipPath id="7e9125b9f0"><path d="M 155 259 L 178 259 L 178 268 L 155 268 Z M 155 259 " clip-rule="nonzero"/></clipPath><clipPath id="870f96d853"><path d="M 98.226562 74.539062 L 351.222656 149.964844 L 274.9375 405.835938 L 21.941406 330.410156 Z M 98.226562 74.539062 " clip-rule="nonzero"/></clipPath><clipPath id="878eff8439"><path d="M 98.226562 74.539062 L 351.222656 149.964844 L 274.9375 405.835938 L 21.941406 330.410156 Z M 98.226562 74.539062 " clip-rule="nonzero"/></clipPath><clipPath id="bf080a08bf"><path d="M 152 263 L 171 263 L 171 271 L 152 271 Z M 152 263 " clip-rule="nonzero"/></clipPath><clipPath id="edc9746869"><path d="M 98.226562 74.539062 L 351.222656 149.964844 L 274.9375 405.835938 L 21.941406 330.410156 Z M 98.226562 74.539062 " clip-rule="nonzero"/></clipPath><clipPath id="6261bfb119"><path d="M 98.226562 74.539062 L 351.222656 149.964844 L 274.9375 405.835938 L 21.941406 330.410156 Z M 98.226562 74.539062 " clip-rule="nonzero"/></clipPath><clipPath id="2b2947c7ba"><path d="M 147 267 L 166 267 L 166 274 L 147 274 Z M 147 267 " clip-rule="nonzero"/></clipPath><clipPath id="255439993c"><path d="M 98.226562 74.539062 L 351.222656 149.964844 L 274.9375 405.835938 L 21.941406 330.410156 Z M 98.226562 74.539062 " clip-rule="nonzero"/></clipPath><clipPath id="0d1cbaf95a"><path d="M 98.226562 74.539062 L 351.222656 149.964844 L 274.9375 405.835938 L 21.941406 330.410156 Z M 98.226562 74.539062 " clip-rule="nonzero"/></clipPath><clipPath id="2eb0b258e1"><path d="M 139 270 L 160 270 L 160 277 L 139 277 Z M 139 270 " clip-rule="nonzero"/></clipPath><clipPath id="66817eef6f"><path d="M 98.226562 74.539062 L 351.222656 149.964844 L 274.9375 405.835938 L 21.941406 330.410156 Z M 98.226562 74.539062 " clip-rule="nonzero"/></clipPath><clipPath id="65e967f808"><path d="M 98.226562 74.539062 L 351.222656 149.964844 L 274.9375 405.835938 L 21.941406 330.410156 Z M 98.226562 74.539062 " clip-rule="nonzero"/></clipPath><clipPath id="c2ce30879f"><path d="M 138 274 L 154 274 L 154 281 L 138 281 Z M 138 274 " clip-rule="nonzero"/></clipPath><clipPath id="5719c132d1"><path d="M 98.226562 74.539062 L 351.222656 149.964844 L 274.9375 405.835938 L 21.941406 330.410156 Z M 98.226562 74.539062 " clip-rule="nonzero"/></clipPath><clipPath id="1c81945a4c"><path d="M 98.226562 74.539062 L 351.222656 149.964844 L 274.9375 405.835938 L 21.941406 330.410156 Z M 98.226562 74.539062 " clip-rule="nonzero"/></clipPath><clipPath id="a076933ea2"><path d="M 134 278 L 148 278 L 148 284 L 134 284 Z M 134 278 " clip-rule="nonzero"/></clipPath><clipPath id="5fa0d439cc"><path d="M 98.226562 74.539062 L 351.222656 149.964844 L 274.9375 405.835938 L 21.941406 330.410156 Z M 98.226562 74.539062 " clip-rule="nonzero"/></clipPath><clipPath id="b82e72ac29"><path d="M 98.226562 74.539062 L 351.222656 149.964844 L 274.9375 405.835938 L 21.941406 330.410156 Z M 98.226562 74.539062 " clip-rule="nonzero"/></clipPath><clipPath id="f93a741559"><path d="M 129 282 L 142 282 L 142 288 L 129 288 Z M 129 282 " clip-rule="nonzero"/></clipPath><clipPath id="a8b51b293a"><path d="M 98.226562 74.539062 L 351.222656 149.964844 L 274.9375 405.835938 L 21.941406 330.410156 Z M 98.226562 74.539062 " clip-rule="nonzero"/></clipPath><clipPath id="c0f75a7382"><path d="M 98.226562 74.539062 L 351.222656 149.964844 L 274.9375 405.835938 L 21.941406 330.410156 Z M 98.226562 74.539062 " clip-rule="nonzero"/></clipPath><clipPath id="e3971c3563"><path d="M 127 286 L 136 286 L 136 291 L 127 291 Z M 127 286 " clip-rule="nonzero"/></clipPath><clipPath id="0bb9704a14"><path d="M 98.226562 74.539062 L 351.222656 149.964844 L 274.9375 405.835938 L 21.941406 330.410156 Z M 98.226562 74.539062 " clip-rule="nonzero"/></clipPath><clipPath id="9baeca5efa"><path d="M 98.226562 74.539062 L 351.222656 149.964844 L 274.9375 405.835938 L 21.941406 330.410156 Z M 98.226562 74.539062 " clip-rule="nonzero"/></clipPath><clipPath id="053bcb6a2d"><path d="M 121 289 L 130 289 L 130 294 L 121 294 Z M 121 289 " clip-rule="nonzero"/></clipPath><clipPath id="a166f96f63"><path d="M 98.226562 74.539062 L 351.222656 149.964844 L 274.9375 405.835938 L 21.941406 330.410156 Z M 98.226562 74.539062 " clip-rule="nonzero"/></clipPath><clipPath id="326ee3d457"><path d="M 98.226562 74.539062 L 351.222656 149.964844 L 274.9375 405.835938 L 21.941406 330.410156 Z M 98.226562 74.539062 " clip-rule="nonzero"/></clipPath><clipPath id="85c441121b"><path d="M 115 293 L 124 293 L 124 298 L 115 298 Z M 115 293 " clip-rule="nonzero"/></clipPath><clipPath id="29295d0cdb"><path d="M 98.226562 74.539062 L 351.222656 149.964844 L 274.9375 405.835938 L 21.941406 330.410156 Z M 98.226562 74.539062 " clip-rule="nonzero"/></clipPath><clipPath id="4d252c4057"><path d="M 98.226562 74.539062 L 351.222656 149.964844 L 274.9375 405.835938 L 21.941406 330.410156 Z M 98.226562 74.539062 " clip-rule="nonzero"/></clipPath><clipPath id="a650e50154"><path d="M 108 296 L 118 296 L 118 301 L 108 301 Z M 108 296 " clip-rule="nonzero"/></clipPath><clipPath id="05d0414c7c"><path d="M 98.226562 74.539062 L 351.222656 149.964844 L 274.9375 405.835938 L 21.941406 330.410156 Z M 98.226562 74.539062 " clip-rule="nonzero"/></clipPath><clipPath id="63c92b577c"><path d="M 98.226562 74.539062 L 351.222656 149.964844 L 274.9375 405.835938 L 21.941406 330.410156 Z M 98.226562 74.539062 " clip-rule="nonzero"/></clipPath><clipPath id="918eb727bc"><path d="M 102 299 L 112 299 L 112 304 L 102 304 Z M 102 299 " clip-rule="nonzero"/></clipPath><clipPath id="5e1ad13fdb"><path d="M 98.226562 74.539062 L 351.222656 149.964844 L 274.9375 405.835938 L 21.941406 330.410156 Z M 98.226562 74.539062 " clip-rule="nonzero"/></clipPath><clipPath id="34e7c91da8"><path d="M 98.226562 74.539062 L 351.222656 149.964844 L 274.9375 405.835938 L 21.941406 330.410156 Z M 98.226562 74.539062 " clip-rule="nonzero"/></clipPath><clipPath id="771531a9a3"><path d="M 97 302 L 106 302 L 106 307 L 97 307 Z M 97 302 " clip-rule="nonzero"/></clipPath><clipPath id="0a8610e27b"><path d="M 98.226562 74.539062 L 351.222656 149.964844 L 274.9375 405.835938 L 21.941406 330.410156 Z M 98.226562 74.539062 " clip-rule="nonzero"/></clipPath><clipPath id="2678ecb962"><path d="M 98.226562 74.539062 L 351.222656 149.964844 L 274.9375 405.835938 L 21.941406 330.410156 Z M 98.226562 74.539062 " clip-rule="nonzero"/></clipPath><clipPath id="bc25a1ff1f"><path d="M 90 306 L 100 306 L 100 310 L 90 310 Z M 90 306 " clip-rule="nonzero"/></clipPath><clipPath id="25e930a630"><path d="M 98.226562 74.539062 L 351.222656 149.964844 L 274.9375 405.835938 L 21.941406 330.410156 Z M 98.226562 74.539062 " clip-rule="nonzero"/></clipPath><clipPath id="362c975817"><path d="M 98.226562 74.539062 L 351.222656 149.964844 L 274.9375 405.835938 L 21.941406 330.410156 Z M 98.226562 74.539062 " clip-rule="nonzero"/></clipPath><clipPath id="6a6f2666c9"><path d="M 84 309 L 95 309 L 95 314 L 84 314 Z M 84 309 " clip-rule="nonzero"/></clipPath><clipPath id="1e648879db"><path d="M 98.226562 74.539062 L 351.222656 149.964844 L 274.9375 405.835938 L 21.941406 330.410156 Z M 98.226562 74.539062 " clip-rule="nonzero"/></clipPath><clipPath id="1a3c96ae05"><path d="M 98.226562 74.539062 L 351.222656 149.964844 L 274.9375 405.835938 L 21.941406 330.410156 Z M 98.226562 74.539062 " clip-rule="nonzero"/></clipPath><clipPath id="0f898a97e4"><path d="M 71 310 L 89 310 L 89 317 L 71 317 Z M 71 310 " clip-rule="nonzero"/></clipPath><clipPath id="dad990ee35"><path d="M 98.226562 74.539062 L 351.222656 149.964844 L 274.9375 405.835938 L 21.941406 330.410156 Z M 98.226562 74.539062 " clip-rule="nonzero"/></clipPath><clipPath id="0cce6b2096"><path d="M 98.226562 74.539062 L 351.222656 149.964844 L 274.9375 405.835938 L 21.941406 330.410156 Z M 98.226562 74.539062 " clip-rule="nonzero"/></clipPath><clipPath id="de536ef3cb"><path d="M 69 314 L 83 314 L 83 320 L 69 320 Z M 69 314 " clip-rule="nonzero"/></clipPath><clipPath id="edb4de6eaf"><path d="M 98.226562 74.539062 L 351.222656 149.964844 L 274.9375 405.835938 L 21.941406 330.410156 Z M 98.226562 74.539062 " clip-rule="nonzero"/></clipPath><clipPath id="2f543b1057"><path d="M 98.226562 74.539062 L 351.222656 149.964844 L 274.9375 405.835938 L 21.941406 330.410156 Z M 98.226562 74.539062 " clip-rule="nonzero"/></clipPath></defs><g clip-path="url(#479f28c4a3)"><g clip-path="url(#b38c3c588a)"><path fill="#fad02c" d="M 6.640625 0 L 369.640625 0 L 369.640625 374.34375 L 6.640625 374.34375 Z M 6.640625 0 " fill-opacity="1" fill-rule="nonzero"/></g></g><g fill="#ffffff" fill-opacity="1"><g transform="translate(154.827676, 105.438853)"><g><path d="M 55.453125 -11.171875 L 55.453125 0 L 10 0 L 6.453125 -8.8125 L 29.453125 -34.71875 C 32.390625 -38.007812 35.070312 -41.300781 37.5 -44.59375 C 39.9375 -47.894531 41.15625 -51.265625 41.15625 -54.703125 C 41.15625 -58.285156 40.113281 -60.988281 38.03125 -62.8125 C 35.957031 -64.644531 33.238281 -65.5625 29.875 -65.5625 C 28.226562 -65.5625 26.398438 -65.054688 24.390625 -64.046875 C 22.390625 -63.046875 20.492188 -61.46875 18.703125 -59.3125 C 16.910156 -57.164062 15.476562 -54.335938 14.40625 -50.828125 L 5.484375 -56.421875 C 7.410156 -63.085938 10.753906 -68.066406 15.515625 -71.359375 C 20.285156 -74.648438 25.535156 -76.296875 31.265625 -76.296875 C 35.359375 -76.296875 39.050781 -75.453125 42.34375 -73.765625 C 45.632812 -72.085938 48.25 -69.707031 50.1875 -66.625 C 52.125 -63.550781 53.09375 -59.863281 53.09375 -55.5625 C 53.09375 -50.613281 51.601562 -45.722656 48.625 -40.890625 C 45.65625 -36.054688 42.019531 -31.273438 37.71875 -26.546875 L 23.640625 -11.171875 Z M 55.453125 -11.171875 "/></g></g></g><g clip-path="url(#6bcbf776d6)"><g clip-path="url(#d637f81bfb)"><g clip-path="url(#e18d8c20b0)"><path fill="#d9d9d9" d="M 322.738281 194.472656 L 311.8125 174.59375 L 300.339844 180.894531 L 305.03125 189.429688 C 309.785156 198.082031 306.625 208.957031 297.972656 213.707031 L 208.609375 262.804688 C 214.652344 269.25 224.503906 271.058594 232.605469 266.605469 L 314.90625 221.390625 C 324.5 216.121094 328.007812 204.070312 322.738281 194.472656 " fill-opacity="1" fill-rule="nonzero"/></g></g></g><g clip-path="url(#628f92fab8)"><g clip-path="url(#8db5a7fe14)"><g clip-path="url(#b5f1921028)"><path fill="#1b1c2a" d="M 212.578125 263.261719 C 214.21875 264.488281 216.074219 265.421875 218.058594 266.011719 C 222.582031 267.363281 227.355469 266.851562 231.492188 264.578125 L 313.789062 219.363281 C 317.890625 217.113281 320.867188 213.398438 322.171875 208.90625 C 323.480469 204.417969 322.957031 199.6875 320.707031 195.589844 L 310.894531 177.738281 L 303.480469 181.808594 L 307.058594 188.316406 C 309.65625 193.046875 310.253906 198.5 308.746094 203.679688 C 307.242188 208.855469 303.808594 213.140625 299.082031 215.738281 Z M 216.738281 270.449219 C 212.980469 269.328125 209.585938 267.230469 206.917969 264.386719 C 206.429688 263.863281 206.210938 263.148438 206.324219 262.441406 C 206.433594 261.734375 206.867188 261.121094 207.492188 260.777344 L 296.855469 211.679688 C 300.5 209.679688 303.144531 206.378906 304.304688 202.386719 C 305.464844 198.394531 305.003906 194.191406 303.003906 190.542969 L 298.3125 182.007812 C 298.015625 181.472656 297.945312 180.835938 298.117188 180.246094 C 298.289062 179.660156 298.6875 179.160156 299.226562 178.867188 L 310.695312 172.566406 C 311.8125 171.949219 313.222656 172.359375 313.835938 173.480469 L 324.761719 193.359375 C 327.605469 198.542969 328.265625 204.523438 326.613281 210.199219 C 324.964844 215.878906 321.199219 220.570312 316.019531 223.417969 L 233.71875 268.632812 C 228.488281 271.511719 222.457031 272.152344 216.738281 270.449219 " fill-opacity="1" fill-rule="nonzero"/></g></g></g><g clip-path="url(#5cf6c3966f)"><g clip-path="url(#a3a0c461b9)"><g clip-path="url(#b27cda82b7)"><path fill="#1f628e" d="M 80.882812 320.734375 C 71.375 325.953125 25.167969 328.929688 25.167969 328.929688 C 25.167969 328.929688 52.460938 291.527344 61.964844 286.308594 L 314.542969 147.539062 C 324.046875 142.320312 335.988281 145.789062 341.214844 155.300781 C 346.4375 164.804688 342.964844 176.746094 333.453125 181.972656 L 80.882812 320.734375 " fill-opacity="1" fill-rule="nonzero"/></g></g></g><g clip-path="url(#b95588e644)"><g clip-path="url(#7a1add2976)"><g clip-path="url(#310c0596e1)"><path fill="#1b1c2a" d="M 328.949219 148.152344 C 324.472656 146.816406 319.75 147.320312 315.652344 149.570312 L 63.078125 288.335938 C 56.480469 291.960938 39.078125 314.148438 30.015625 326.269531 C 45.105469 325.117188 73.167969 322.332031 79.765625 318.707031 L 332.339844 179.945312 C 336.398438 177.714844 339.34375 174.039062 340.636719 169.59375 C 341.929688 165.152344 341.414062 160.46875 339.183594 156.414062 C 336.976562 152.394531 333.34375 149.460938 328.949219 148.152344 Z M 24.507812 331.148438 C 23.9375 330.976562 23.441406 330.585938 23.140625 330.046875 C 22.710938 329.257812 22.769531 328.292969 23.300781 327.566406 C 24.425781 326.023438 51.007812 289.6875 60.851562 284.28125 L 313.425781 145.511719 C 318.617188 142.664062 324.597656 142.023438 330.269531 143.714844 C 335.839844 145.375 340.445312 149.09375 343.238281 154.1875 C 346.066406 159.324219 346.71875 165.257812 345.078125 170.886719 C 343.441406 176.515625 339.710938 181.175781 334.566406 184 L 81.996094 322.761719 C 72.152344 328.167969 27.226562 331.117188 25.316406 331.238281 C 25.039062 331.257812 24.765625 331.226562 24.507812 331.148438 " fill-opacity="1" fill-rule="nonzero"/></g></g></g><g clip-path="url(#1373e10022)"><g clip-path="url(#44d3a1d1e8)"><g clip-path="url(#fa65549389)"><path fill="#d9d9d9" d="M 60.644531 287.164062 C 50.167969 294.671875 25.167969 328.929688 25.167969 328.929688 C 25.167969 328.929688 67.492188 326.203125 79.449219 321.386719 L 60.644531 287.164062 " fill-opacity="1" fill-rule="nonzero"/></g></g></g><g clip-path="url(#9d13d6921b)"><g clip-path="url(#22a4f6897e)"><g clip-path="url(#76dceccd93)"><path fill="#1b1c2a" d="M 59.945312 290.691406 C 51.398438 298.1875 36.402344 317.757812 30.035156 326.257812 C 40.625 325.441406 65.183594 323.28125 76.09375 320.085938 Z M 24.507812 331.148438 C 23.9375 330.976562 23.441406 330.585938 23.140625 330.046875 C 22.710938 329.257812 22.769531 328.292969 23.300781 327.566406 C 24.332031 326.15625 48.640625 292.917969 59.296875 285.28125 C 59.835938 284.894531 60.511719 284.757812 61.15625 284.90625 C 61.808594 285.054688 62.355469 285.46875 62.671875 286.046875 L 81.476562 320.273438 C 81.796875 320.851562 81.847656 321.542969 81.628906 322.167969 C 81.40625 322.789062 80.925781 323.289062 80.3125 323.535156 C 68.152344 328.433594 27.0625 331.128906 25.316406 331.242188 C 25.039062 331.257812 24.765625 331.226562 24.507812 331.148438 " fill-opacity="1" fill-rule="nonzero"/></g></g></g><g clip-path="url(#e011bbbf62)"><g clip-path="url(#946f6011fb)"><g clip-path="url(#bd0977e53e)"><path fill="#1b1c2a" d="M 181.703125 220.523438 L 170.265625 226.804688 L 189.179688 261.234375 L 200.617188 254.949219 L 181.703125 220.523438 " fill-opacity="1" fill-rule="nonzero"/></g></g></g><g clip-path="url(#14323bbe33)"><g clip-path="url(#c6a9b3aea7)"><g clip-path="url(#84087b8e29)"><path fill="#1b1c2a" d="M 173.410156 227.71875 L 190.09375 258.09375 L 197.476562 254.035156 L 180.789062 223.664062 Z M 188.519531 263.453125 C 187.9375 263.277344 187.445312 262.882812 187.152344 262.347656 L 168.238281 227.917969 C 167.621094 226.800781 168.03125 225.390625 169.152344 224.777344 L 180.589844 218.492188 C 181.710938 217.875 183.117188 218.289062 183.730469 219.410156 L 202.644531 253.835938 C 203.261719 254.953125 202.851562 256.363281 201.730469 256.976562 L 190.292969 263.261719 C 189.753906 263.558594 189.125 263.628906 188.535156 263.457031 C 188.527344 263.453125 188.523438 263.453125 188.519531 263.453125 " fill-opacity="1" fill-rule="nonzero"/></g></g></g><g clip-path="url(#87db285d32)"><g clip-path="url(#4da6ff3f1d)"><g clip-path="url(#c71d86ef3c)"><path fill="#d9d9d9" d="M 323.753906 187.300781 L 333.453125 181.972656 C 342.964844 176.746094 346.4375 164.804688 341.214844 155.300781 C 335.988281 145.789062 324.046875 142.320312 314.542969 147.539062 L 304.839844 152.871094 L 323.753906 187.300781 " fill-opacity="1" fill-rule="nonzero"/></g></g></g><g clip-path="url(#ce4b45e015)"><g clip-path="url(#c1049cde78)"><g clip-path="url(#117d665ec4)"><path fill="#1b1c2a" d="M 307.980469 153.785156 L 324.664062 184.160156 L 332.339844 179.945312 C 336.398438 177.714844 339.34375 174.039062 340.636719 169.59375 C 341.929688 165.152344 341.414062 160.46875 339.183594 156.414062 C 336.976562 152.394531 333.34375 149.460938 328.949219 148.152344 C 324.472656 146.816406 319.75 147.320312 315.652344 149.570312 Z M 323.09375 189.515625 C 322.53125 189.347656 322.03125 188.96875 321.730469 188.414062 L 302.8125 153.984375 C 302.199219 152.867188 302.605469 151.460938 303.726562 150.84375 L 313.425781 145.511719 C 318.617188 142.664062 324.597656 142.023438 330.269531 143.714844 C 335.839844 145.375 340.445312 149.09375 343.238281 154.1875 C 346.066406 159.324219 346.71875 165.257812 345.078125 170.886719 C 343.441406 176.515625 339.710938 181.175781 334.566406 184 L 324.871094 189.328125 C 324.304688 189.640625 323.667969 189.6875 323.09375 189.515625 " fill-opacity="1" fill-rule="nonzero"/></g></g></g><g clip-path="url(#c33d02effa)"><g clip-path="url(#7565b2f88b)"><g clip-path="url(#ba2d3c96ff)"><path fill="#1b1c2a" d="M 308.898438 180.980469 C 308.410156 180.832031 308.132812 180.324219 308.273438 179.835938 C 308.417969 179.34375 308.925781 179.0625 309.417969 179.203125 L 324.894531 183.671875 C 325.386719 183.773438 325.667969 184.324219 325.523438 184.816406 C 325.382812 185.308594 324.871094 185.589844 324.378906 185.449219 L 308.90625 180.980469 C 308.902344 180.980469 308.902344 180.980469 308.898438 180.980469 " fill-opacity="1" fill-rule="nonzero"/></g></g></g><g clip-path="url(#651b7a1378)"><g clip-path="url(#97ff51a0ad)"><g clip-path="url(#9e1950d126)"><path fill="#1b1c2a" d="M 304.742188 184.769531 C 304.253906 184.621094 303.976562 184.113281 304.117188 183.625 C 304.257812 183.132812 304.769531 182.851562 305.261719 182.992188 C 309.691406 184.273438 314.117188 185.550781 318.546875 186.828125 C 318.550781 186.828125 318.554688 186.828125 318.554688 186.828125 C 319.042969 186.976562 319.320312 187.484375 319.179688 187.972656 C 319.039062 188.464844 318.527344 188.746094 318.035156 188.605469 C 313.605469 187.328125 309.175781 186.050781 304.75 184.769531 C 304.746094 184.769531 304.746094 184.769531 304.742188 184.769531 " fill-opacity="1" fill-rule="nonzero"/></g></g></g><g clip-path="url(#37fec4f17c)"><g clip-path="url(#e4470315e4)"><g clip-path="url(#384e23aabf)"><path fill="#1b1c2a" d="M 299.71875 188.308594 C 299.230469 188.164062 298.953125 187.652344 299.09375 187.164062 C 299.234375 186.671875 299.75 186.390625 300.238281 186.53125 L 312.992188 190.210938 C 313.488281 190.339844 313.765625 190.863281 313.625 191.355469 C 313.484375 191.847656 312.96875 192.132812 312.476562 191.988281 L 299.726562 188.308594 C 299.722656 188.308594 299.71875 188.308594 299.71875 188.308594 " fill-opacity="1" fill-rule="nonzero"/></g></g></g><g clip-path="url(#cbb66d6e90)"><g clip-path="url(#791ecbef30)"><g clip-path="url(#933820d192)"><path fill="#1b1c2a" d="M 294.425781 191.773438 C 293.949219 191.628906 293.667969 191.132812 293.796875 190.648438 C 293.929688 190.152344 294.433594 189.859375 294.929688 189.992188 C 298.597656 190.96875 302.511719 192.105469 307.25 193.5625 C 307.738281 193.714844 308.011719 194.230469 307.863281 194.71875 C 307.714844 195.203125 307.199219 195.480469 306.714844 195.335938 C 306.710938 195.335938 306.707031 195.332031 306.707031 195.332031 C 301.992188 193.878906 298.09375 192.75 294.453125 191.78125 C 294.445312 191.777344 294.433594 191.773438 294.425781 191.773438 " fill-opacity="1" fill-rule="nonzero"/></g></g></g><g clip-path="url(#503c5809e5)"><g clip-path="url(#cf34c022c9)"><g clip-path="url(#ccc9a379fe)"><path fill="#1b1c2a" d="M 299.402344 198.527344 C 295.632812 197.40625 292.222656 196.3125 289 195.195312 C 288.515625 195.023438 288.261719 194.5 288.429688 194.015625 C 288.597656 193.535156 289.132812 193.285156 289.605469 193.445312 C 293.042969 194.636719 296.695312 195.796875 300.78125 197.007812 C 300.78125 197.007812 300.78125 197.007812 300.785156 197.007812 C 301.273438 197.152344 301.550781 197.667969 301.40625 198.15625 C 301.261719 198.648438 300.75 198.929688 300.257812 198.78125 C 299.972656 198.699219 299.6875 198.613281 299.402344 198.527344 " fill-opacity="1" fill-rule="nonzero"/></g></g></g><g clip-path="url(#cc00e694f4)"><g clip-path="url(#c5b65213c6)"><g clip-path="url(#503f7fef65)"><path fill="#1b1c2a" d="M 293.546875 201.796875 C 289.859375 200.699219 286.445312 199.617188 283.148438 198.492188 C 282.664062 198.328125 282.40625 197.800781 282.570312 197.320312 C 282.734375 196.835938 283.253906 196.5625 283.746094 196.738281 C 287.289062 197.945312 290.972656 199.105469 294.992188 200.296875 C 294.992188 200.296875 294.996094 200.296875 294.996094 200.296875 C 295.484375 200.445312 295.765625 200.957031 295.617188 201.449219 C 295.472656 201.9375 294.957031 202.21875 294.46875 202.074219 C 294.160156 201.980469 293.851562 201.890625 293.546875 201.796875 " fill-opacity="1" fill-rule="nonzero"/></g></g></g><g clip-path="url(#124d983e81)"><g clip-path="url(#2c82dfd154)"><g clip-path="url(#0280cb8364)"><path fill="#1b1c2a" d="M 288.382812 205.316406 C 288.382812 205.316406 288.378906 205.316406 288.378906 205.316406 C 284.367188 204.09375 280.664062 202.921875 277.058594 201.726562 C 276.574219 201.5625 276.3125 201.042969 276.472656 200.554688 C 276.632812 200.070312 277.144531 199.8125 277.640625 199.96875 C 281.230469 201.15625 284.921875 202.328125 288.914062 203.542969 C 289.40625 203.691406 289.679688 204.210938 289.53125 204.695312 C 289.382812 205.183594 288.871094 205.460938 288.382812 205.316406 " fill-opacity="1" fill-rule="nonzero"/></g></g></g><g clip-path="url(#73dfad8248)"><g clip-path="url(#4c5e894f56)"><g clip-path="url(#6bf132997a)"><path fill="#1b1c2a" d="M 282.078125 208.667969 C 282.074219 208.664062 282.066406 208.664062 282.058594 208.660156 C 278.351562 207.476562 274.722656 206.257812 271.285156 205.046875 C 270.800781 204.878906 270.550781 204.351562 270.71875 203.867188 C 270.886719 203.382812 271.417969 203.117188 271.898438 203.300781 C 275.320312 204.507812 278.929688 205.71875 282.625 206.902344 C 283.109375 207.054688 283.378906 207.578125 283.222656 208.0625 C 283.070312 208.542969 282.558594 208.8125 282.078125 208.667969 " fill-opacity="1" fill-rule="nonzero"/></g></g></g><g clip-path="url(#8f5b3b36f2)"><g clip-path="url(#5a6e7f6ab3)"><g clip-path="url(#abbc02c965)"><path fill="#1b1c2a" d="M 265.1875 208.28125 C 264.699219 208.132812 264.417969 207.621094 264.5625 207.132812 C 264.707031 206.640625 265.21875 206.363281 265.710938 206.507812 C 269.640625 207.65625 273.566406 208.808594 277.492188 209.953125 C 277.996094 210.066406 278.265625 210.609375 278.121094 211.101562 C 277.980469 211.59375 277.464844 211.875 276.976562 211.730469 C 273.046875 210.585938 269.117188 209.433594 265.191406 208.28125 C 265.191406 208.28125 265.1875 208.28125 265.1875 208.28125 " fill-opacity="1" fill-rule="nonzero"/></g></g></g><g clip-path="url(#f46d2edb78)"><g clip-path="url(#2e72fd5006)"><g clip-path="url(#8297b868fd)"><path fill="#1b1c2a" d="M 259.257812 211.558594 C 258.777344 211.414062 258.496094 210.917969 258.625 210.429688 C 258.757812 209.9375 259.265625 209.644531 259.761719 209.777344 C 263.523438 210.785156 267.347656 211.84375 271.441406 213.015625 C 271.925781 213.117188 272.222656 213.664062 272.078125 214.15625 C 271.9375 214.648438 271.425781 214.933594 270.9375 214.792969 C 266.847656 213.625 263.039062 212.570312 259.28125 211.566406 C 259.273438 211.5625 259.261719 211.558594 259.257812 211.558594 " fill-opacity="1" fill-rule="nonzero"/></g></g></g><g clip-path="url(#5928e5c907)"><g clip-path="url(#f40810c04a)"><g clip-path="url(#a6f433df5d)"><path fill="#1b1c2a" d="M 253.539062 214.898438 C 253.054688 214.75 252.773438 214.242188 252.914062 213.753906 C 253.058594 213.261719 253.570312 212.980469 254.0625 213.121094 L 265.195312 216.34375 C 265.199219 216.34375 265.203125 216.34375 265.203125 216.34375 C 265.691406 216.492188 265.96875 217.003906 265.828125 217.488281 C 265.6875 217.980469 265.175781 218.261719 264.683594 218.121094 L 253.546875 214.898438 C 253.546875 214.898438 253.542969 214.898438 253.539062 214.898438 " fill-opacity="1" fill-rule="nonzero"/></g></g></g><g clip-path="url(#90fef45ec3)"><g clip-path="url(#9b51edfc64)"><g clip-path="url(#94c2ce0165)"><path fill="#1b1c2a" d="M 246.800781 217.941406 C 246.316406 217.796875 246.035156 217.289062 246.175781 216.800781 C 246.316406 216.308594 246.828125 216.023438 247.324219 216.164062 L 259.726562 219.738281 C 259.730469 219.738281 259.734375 219.742188 259.734375 219.742188 C 260.222656 219.886719 260.5 220.394531 260.359375 220.882812 C 260.21875 221.375 259.707031 221.660156 259.214844 221.519531 L 246.8125 217.945312 C 246.808594 217.945312 246.804688 217.945312 246.800781 217.941406 " fill-opacity="1" fill-rule="nonzero"/></g></g></g><g clip-path="url(#ae29a21575)"><g clip-path="url(#b3901cb4ff)"><g clip-path="url(#941cf2885b)"><path fill="#1b1c2a" d="M 240.636719 221.152344 C 240.152344 221.007812 239.875 220.496094 240.011719 220.011719 C 240.152344 219.519531 240.664062 219.234375 241.15625 219.375 L 253.640625 222.957031 C 253.644531 222.957031 253.648438 222.957031 253.648438 222.960938 C 254.136719 223.105469 254.417969 223.613281 254.277344 224.101562 C 254.132812 224.59375 253.621094 224.875 253.132812 224.734375 L 240.648438 221.152344 C 240.644531 221.152344 240.640625 221.152344 240.636719 221.152344 " fill-opacity="1" fill-rule="nonzero"/></g></g></g><g clip-path="url(#2f60b267c5)"><g clip-path="url(#5b2ce8bd77)"><g clip-path="url(#a72b826e00)"><path fill="#1b1c2a" d="M 246.558594 228.03125 C 246.554688 228.03125 246.554688 228.03125 246.554688 228.03125 C 242.421875 226.785156 238.292969 225.535156 234.167969 224.273438 C 233.675781 224.125 233.402344 223.605469 233.550781 223.117188 C 233.699219 222.632812 234.214844 222.355469 234.699219 222.5 C 234.703125 222.503906 234.703125 222.503906 234.707031 222.503906 C 238.832031 223.761719 242.960938 225.015625 247.089844 226.257812 C 247.578125 226.40625 247.855469 226.921875 247.707031 227.414062 C 247.5625 227.902344 247.046875 228.179688 246.558594 228.03125 " fill-opacity="1" fill-rule="nonzero"/></g></g></g><g clip-path="url(#fb5515812d)"><g clip-path="url(#414cfe8418)"><g clip-path="url(#eb58c156b1)"><path fill="#1b1c2a" d="M 226.925781 227.175781 C 226.445312 227.03125 226.164062 226.523438 226.304688 226.035156 C 226.445312 225.542969 226.953125 225.257812 227.445312 225.398438 C 232.105469 226.722656 236.757812 228.054688 241.410156 229.394531 C 241.914062 229.519531 242.183594 230.046875 242.042969 230.539062 C 241.902344 231.03125 241.386719 231.316406 240.898438 231.175781 C 236.246094 229.832031 231.597656 228.5 226.941406 227.179688 C 226.9375 227.175781 226.933594 227.175781 226.925781 227.175781 " fill-opacity="1" fill-rule="nonzero"/></g></g></g><g clip-path="url(#418a79b935)"><g clip-path="url(#eaa70934ee)"><g clip-path="url(#076b469e2a)"><path fill="#1b1c2a" d="M 222.464844 230.933594 C 220.597656 230.375 218.832031 229.847656 217.324219 229.394531 C 216.835938 229.246094 216.558594 228.730469 216.707031 228.242188 C 216.855469 227.753906 217.371094 227.472656 217.855469 227.621094 C 217.859375 227.621094 217.859375 227.621094 217.859375 227.621094 C 221.148438 228.613281 225.6875 229.960938 229.796875 231.183594 L 235.300781 232.820312 C 235.789062 232.964844 236.066406 233.480469 235.921875 233.96875 C 235.777344 234.460938 235.261719 234.738281 234.769531 234.59375 L 229.265625 232.957031 C 227.039062 232.292969 224.679688 231.59375 222.464844 230.933594 " fill-opacity="1" fill-rule="nonzero"/></g></g></g><g clip-path="url(#2689d58ad4)"><g clip-path="url(#e5cb1581d2)"><g clip-path="url(#0afd553c4b)"><path fill="#1b1c2a" d="M 207.050781 231.417969 C 206.566406 231.273438 206.289062 230.769531 206.425781 230.28125 C 206.5625 229.789062 207.074219 229.5 207.566406 229.640625 C 211.132812 230.640625 219.613281 233.070312 225.417969 234.730469 L 229.667969 235.949219 C 229.671875 235.949219 229.675781 235.949219 229.675781 235.949219 C 230.164062 236.09375 230.441406 236.605469 230.304688 237.089844 C 230.160156 237.582031 229.648438 237.867188 229.160156 237.726562 L 224.910156 236.511719 C 219.105469 234.851562 210.632812 232.421875 207.066406 231.421875 C 207.0625 231.421875 207.058594 231.417969 207.050781 231.417969 " fill-opacity="1" fill-rule="nonzero"/></g></g></g><g clip-path="url(#6ef4fb19ce)"><g clip-path="url(#4951da5afa)"><g clip-path="url(#a245cbe6e0)"><path fill="#1b1c2a" d="M 196.773438 233.4375 C 196.300781 233.296875 196.019531 232.804688 196.144531 232.320312 C 196.273438 231.824219 196.78125 231.527344 197.273438 231.65625 C 200.148438 232.40625 207.871094 234.570312 214.683594 236.476562 C 218.738281 237.613281 222.34375 238.621094 224.089844 239.097656 C 224.554688 239.25 224.871094 239.738281 224.738281 240.234375 C 224.605469 240.726562 224.09375 241.015625 223.601562 240.882812 C 221.855469 240.40625 218.246094 239.394531 214.183594 238.257812 C 207.378906 236.351562 199.667969 234.191406 196.804688 233.449219 C 196.796875 233.445312 196.785156 233.441406 196.773438 233.4375 " fill-opacity="1" fill-rule="nonzero"/></g></g></g><g clip-path="url(#851ff1a3da)"><g clip-path="url(#94c0c868eb)"><g clip-path="url(#8a0dfd985b)"><path fill="#1b1c2a" d="M 184.351562 234.847656 C 183.871094 234.703125 183.589844 234.199219 183.726562 233.710938 C 183.863281 233.21875 184.375 232.929688 184.867188 233.066406 C 187.382812 233.765625 195.445312 236.066406 203.246094 238.296875 C 209.855469 240.183594 216.148438 241.980469 218.300781 242.582031 C 218.304688 242.582031 218.308594 242.585938 218.316406 242.585938 C 218.796875 242.730469 219.078125 243.234375 218.941406 243.722656 C 218.804688 244.214844 218.292969 244.5 217.800781 244.363281 C 215.648438 243.761719 209.351562 241.964844 202.738281 240.074219 C 194.941406 237.851562 186.882812 235.550781 184.371094 234.851562 C 184.363281 234.847656 184.359375 234.847656 184.351562 234.847656 " fill-opacity="1" fill-rule="nonzero"/></g></g></g><g clip-path="url(#a5acf64f6c)"><g clip-path="url(#50b2081550)"><g clip-path="url(#4936890b6c)"><path fill="#1b1c2a" d="M 195.707031 243.238281 C 191.789062 242.070312 188.324219 241.027344 186.617188 240.488281 C 186.132812 240.332031 185.863281 239.8125 186.015625 239.328125 C 186.167969 238.84375 186.679688 238.574219 187.164062 238.71875 C 187.167969 238.71875 187.171875 238.722656 187.175781 238.722656 C 189.878906 239.578125 197.382812 241.808594 203.414062 243.597656 C 207.125 244.695312 210.414062 245.675781 212.042969 246.171875 C 212.535156 246.320312 212.808594 246.835938 212.660156 247.324219 C 212.511719 247.8125 212 248.089844 211.511719 247.941406 C 211.511719 247.941406 211.507812 247.941406 211.507812 247.941406 C 209.878906 247.449219 206.59375 246.472656 202.886719 245.371094 C 200.519531 244.667969 198.035156 243.929688 195.707031 243.238281 " fill-opacity="1" fill-rule="nonzero"/></g></g></g><g clip-path="url(#a4f69beb60)"><g clip-path="url(#c7a6ab8bea)"><g clip-path="url(#92f39e9e2c)"><path fill="#1b1c2a" d="M 205.347656 251.339844 C 205.34375 251.335938 205.339844 251.335938 205.335938 251.335938 C 201.058594 249.988281 196.765625 248.597656 192.582031 247.195312 C 192.09375 247.035156 191.835938 246.511719 191.996094 246.023438 C 192.160156 245.539062 192.695312 245.269531 193.167969 245.441406 C 197.34375 246.839844 201.625 248.226562 205.890625 249.566406 C 206.378906 249.722656 206.648438 250.242188 206.496094 250.730469 C 206.34375 251.210938 205.832031 251.480469 205.347656 251.339844 " fill-opacity="1" fill-rule="nonzero"/></g></g></g><g clip-path="url(#cbad0f08cf)"><g clip-path="url(#9347459a35)"><g clip-path="url(#22fad6bba1)"><path fill="#1b1c2a" d="M 172.277344 246.332031 C 171.789062 246.183594 171.507812 245.671875 171.652344 245.183594 C 171.796875 244.691406 172.3125 244.410156 172.800781 244.554688 C 176.109375 245.523438 189.003906 249.253906 196.109375 251.308594 L 200.078125 252.457031 C 200.082031 252.457031 200.082031 252.457031 200.085938 252.460938 C 200.574219 252.605469 200.851562 253.117188 200.710938 253.605469 C 200.570312 254.09375 200.054688 254.378906 199.566406 254.234375 L 195.597656 253.085938 C 188.488281 251.03125 175.589844 247.300781 172.28125 246.332031 C 172.277344 246.332031 172.277344 246.332031 172.277344 246.332031 " fill-opacity="1" fill-rule="nonzero"/></g></g></g><g clip-path="url(#6f34613d6c)"><g clip-path="url(#a3dfdc254d)"><g clip-path="url(#cfefd7dc06)"><path fill="#1b1c2a" d="M 167.34375 249.894531 C 166.863281 249.75 166.585938 249.25 166.71875 248.765625 C 166.851562 248.269531 167.359375 247.980469 167.851562 248.113281 C 170.734375 248.898438 180.253906 251.609375 187.203125 253.589844 C 190.371094 254.492188 193.023438 255.25 194.320312 255.617188 C 194.800781 255.765625 195.101562 256.265625 194.960938 256.757812 C 194.824219 257.25 194.3125 257.535156 193.820312 257.394531 C 192.519531 257.027344 189.863281 256.273438 186.695312 255.371094 C 179.75 253.390625 170.234375 250.683594 167.367188 249.902344 C 167.359375 249.898438 167.351562 249.894531 167.34375 249.894531 " fill-opacity="1" fill-rule="nonzero"/></g></g></g><g clip-path="url(#692851364c)"><g clip-path="url(#fc50098011)"><g clip-path="url(#7b7b19a4e1)"><path fill="#1b1c2a" d="M 163.75 253.847656 C 163.261719 253.699219 162.984375 253.1875 163.125 252.703125 C 163.269531 252.210938 163.78125 251.925781 164.273438 252.070312 C 166.351562 252.675781 171.300781 254.105469 176.246094 255.535156 C 181.1875 256.96875 186.128906 258.394531 188.203125 259 C 188.679688 259.15625 188.980469 259.65625 188.835938 260.144531 C 188.695312 260.636719 188.179688 260.921875 187.691406 260.777344 C 185.613281 260.171875 180.671875 258.746094 175.730469 257.316406 C 170.785156 255.882812 165.835938 254.453125 163.757812 253.847656 C 163.753906 253.847656 163.753906 253.847656 163.75 253.847656 " fill-opacity="1" fill-rule="nonzero"/></g></g></g><g clip-path="url(#3d94ae2347)"><g clip-path="url(#1059cc6c2a)"><g clip-path="url(#39509b4ea1)"><path fill="#1b1c2a" d="M 161.414062 258.160156 C 160.929688 258.015625 160.648438 257.503906 160.789062 257.015625 C 160.933594 256.523438 161.445312 256.242188 161.9375 256.382812 L 182.535156 262.339844 C 182.535156 262.339844 182.539062 262.339844 182.542969 262.339844 C 183.027344 262.484375 183.308594 262.996094 183.167969 263.484375 C 183.023438 263.972656 182.511719 264.257812 182.019531 264.117188 L 161.421875 258.160156 C 161.417969 258.160156 161.417969 258.160156 161.414062 258.160156 " fill-opacity="1" fill-rule="nonzero"/></g></g></g><g clip-path="url(#7e9125b9f0)"><g clip-path="url(#870f96d853)"><g clip-path="url(#878eff8439)"><path fill="#1b1c2a" d="M 155.917969 261.5625 C 155.429688 261.417969 155.148438 260.910156 155.289062 260.421875 C 155.433594 259.929688 155.945312 259.644531 156.4375 259.785156 L 176.542969 265.578125 C 176.542969 265.578125 176.546875 265.578125 176.546875 265.582031 C 177.035156 265.726562 177.316406 266.234375 177.171875 266.722656 C 177.03125 267.214844 176.519531 267.5 176.027344 267.355469 L 155.925781 261.566406 C 155.921875 261.5625 155.917969 261.5625 155.917969 261.5625 " fill-opacity="1" fill-rule="nonzero"/></g></g></g><g clip-path="url(#bf080a08bf)"><g clip-path="url(#edc9746869)"><g clip-path="url(#6261bfb119)"><path fill="#1b1c2a" d="M 162.097656 268.445312 C 158.742188 267.445312 155.28125 266.410156 152.90625 265.683594 C 152.414062 265.535156 152.140625 265.015625 152.289062 264.527344 C 152.4375 264.042969 152.953125 263.765625 153.4375 263.910156 C 153.441406 263.910156 153.445312 263.914062 153.445312 263.914062 C 156.710938 264.910156 162.015625 266.492188 166.285156 267.761719 L 170.015625 268.871094 C 170.503906 269.019531 170.78125 269.535156 170.636719 270.023438 C 170.492188 270.515625 169.972656 270.792969 169.484375 270.648438 L 165.757812 269.539062 C 164.59375 269.191406 163.351562 268.820312 162.097656 268.445312 " fill-opacity="1" fill-rule="nonzero"/></g></g></g><g clip-path="url(#2b2947c7ba)"><g clip-path="url(#255439993c)"><g clip-path="url(#0d1cbaf95a)"><path fill="#1b1c2a" d="M 148.179688 269.308594 C 147.703125 269.164062 147.421875 268.667969 147.550781 268.183594 C 147.683594 267.6875 148.191406 267.394531 148.683594 267.523438 C 152.839844 268.632812 158.28125 270.125 162.816406 271.371094 L 165.128906 272.003906 C 165.628906 272.109375 165.914062 272.652344 165.777344 273.140625 C 165.640625 273.636719 165.132812 273.925781 164.640625 273.789062 L 162.328125 273.15625 C 157.792969 271.910156 152.359375 270.421875 148.207031 269.316406 C 148.199219 269.3125 148.1875 269.308594 148.179688 269.308594 " fill-opacity="1" fill-rule="nonzero"/></g></g></g><g clip-path="url(#2eb0b258e1)"><g clip-path="url(#66817eef6f)"><g clip-path="url(#65e967f808)"><path fill="#1b1c2a" d="M 139.933594 271.917969 C 139.464844 271.777344 139.183594 271.292969 139.300781 270.8125 C 139.421875 270.3125 139.925781 270.011719 140.421875 270.132812 C 144.5 271.132812 151.398438 272.992188 156.433594 274.351562 L 159.066406 275.058594 C 159.566406 275.214844 159.851562 275.699219 159.71875 276.195312 C 159.585938 276.6875 159.078125 276.980469 158.585938 276.847656 L 155.949219 276.136719 C 150.921875 274.78125 144.039062 272.921875 139.980469 271.929688 C 139.964844 271.925781 139.949219 271.921875 139.933594 271.917969 " fill-opacity="1" fill-rule="nonzero"/></g></g></g><g clip-path="url(#c2ce30879f)"><g clip-path="url(#5719c132d1)"><g clip-path="url(#1c81945a4c)"><path fill="#1b1c2a" d="M 145.550781 278.601562 C 143.625 278.027344 141.722656 277.453125 139.484375 276.777344 C 138.996094 276.632812 138.71875 276.113281 138.867188 275.625 C 139.015625 275.136719 139.527344 274.859375 140.015625 275.003906 C 140.019531 275.003906 140.019531 275.003906 140.019531 275.007812 C 144.679688 276.410156 147.871094 277.371094 152.898438 278.835938 C 152.902344 278.835938 152.902344 278.835938 152.90625 278.835938 C 153.394531 278.980469 153.671875 279.492188 153.53125 279.984375 C 153.386719 280.472656 152.875 280.753906 152.382812 280.613281 C 149.761719 279.847656 147.640625 279.222656 145.550781 278.601562 " fill-opacity="1" fill-rule="nonzero"/></g></g></g><g clip-path="url(#a076933ea2)"><g clip-path="url(#5fa0d439cc)"><g clip-path="url(#b82e72ac29)"><path fill="#1b1c2a" d="M 145.910156 283.933594 C 145.910156 283.933594 145.910156 283.933594 145.90625 283.933594 C 142.65625 282.953125 141.035156 282.425781 138.792969 281.695312 C 137.738281 281.355469 136.558594 280.972656 135.019531 280.480469 C 134.535156 280.324219 134.265625 279.800781 134.421875 279.316406 C 134.578125 278.828125 135.09375 278.570312 135.582031 278.714844 C 137.128906 279.210938 138.308594 279.59375 139.363281 279.9375 C 141.597656 280.660156 143.210938 281.1875 146.441406 282.160156 C 146.933594 282.308594 147.210938 282.824219 147.0625 283.316406 C 146.914062 283.804688 146.398438 284.082031 145.910156 283.933594 " fill-opacity="1" fill-rule="nonzero"/></g></g></g><g clip-path="url(#f93a741559)"><g clip-path="url(#a8b51b293a)"><g clip-path="url(#c0f75a7382)"><path fill="#1b1c2a" d="M 130.488281 284.160156 C 130.007812 284.015625 129.726562 283.511719 129.863281 283.023438 C 130 282.53125 130.511719 282.242188 131.003906 282.378906 L 133.890625 283.183594 C 136.339844 283.867188 137.128906 284.085938 141.054688 285.21875 C 141.058594 285.222656 141.058594 285.222656 141.0625 285.222656 C 141.546875 285.367188 141.828125 285.878906 141.6875 286.367188 C 141.542969 286.859375 141.03125 287.140625 140.539062 287 C 136.625 285.867188 135.835938 285.648438 133.394531 284.96875 L 130.503906 284.164062 C 130.5 284.164062 130.496094 284.160156 130.488281 284.160156 " fill-opacity="1" fill-rule="nonzero"/></g></g></g><g clip-path="url(#e3971c3563)"><g clip-path="url(#0bb9704a14)"><g clip-path="url(#9baeca5efa)"><path fill="#1b1c2a" d="M 133.101562 290.011719 C 131.53125 289.542969 131.269531 289.453125 130.992188 289.355469 C 130.703125 289.253906 130.378906 289.144531 127.9375 288.414062 C 127.449219 288.269531 127.167969 287.753906 127.316406 287.265625 C 127.460938 286.773438 127.976562 286.492188 128.464844 286.640625 C 130.933594 287.378906 131.28125 287.496094 131.605469 287.609375 C 131.910156 287.714844 132.199219 287.816406 134.679688 288.550781 C 135.167969 288.695312 135.449219 289.207031 135.304688 289.699219 C 135.160156 290.191406 134.644531 290.46875 134.152344 290.324219 C 133.75 290.203125 133.402344 290.101562 133.101562 290.011719 " fill-opacity="1" fill-rule="nonzero"/></g></g></g><g clip-path="url(#053bcb6a2d)"><g clip-path="url(#a166f96f63)"><g clip-path="url(#326ee3d457)"><path fill="#1b1c2a" d="M 121.703125 291.601562 C 121.222656 291.457031 120.941406 290.953125 121.074219 290.46875 C 121.210938 289.976562 121.722656 289.6875 122.214844 289.824219 C 124.636719 290.496094 125.175781 290.625 125.695312 290.746094 C 126.242188 290.878906 126.761719 291 129.285156 291.707031 C 129.78125 291.816406 130.066406 292.355469 129.929688 292.847656 C 129.789062 293.339844 129.277344 293.628906 128.785156 293.492188 C 126.296875 292.796875 125.792969 292.675781 125.265625 292.546875 C 124.730469 292.417969 124.175781 292.285156 121.722656 291.605469 C 121.714844 291.605469 121.710938 291.605469 121.703125 291.601562 " fill-opacity="1" fill-rule="nonzero"/></g></g></g><g clip-path="url(#85c441121b)"><g clip-path="url(#29295d0cdb)"><g clip-path="url(#4d252c4057)"><path fill="#1b1c2a" d="M 122.484375 297.089844 C 122.484375 297.089844 122.484375 297.089844 122.480469 297.089844 C 119.933594 296.320312 119.574219 296.175781 119.117188 295.996094 C 118.75 295.847656 118.289062 295.664062 116 294.945312 C 115.511719 294.792969 115.242188 294.273438 115.394531 293.785156 C 115.546875 293.300781 116.058594 293.03125 116.542969 293.175781 C 116.546875 293.175781 116.550781 293.175781 116.554688 293.179688 C 118.910156 293.917969 119.382812 294.109375 119.804688 294.273438 C 120.203125 294.433594 120.546875 294.570312 123.015625 295.316406 C 123.503906 295.464844 123.78125 295.976562 123.632812 296.46875 C 123.488281 296.957031 122.972656 297.234375 122.484375 297.089844 " fill-opacity="1" fill-rule="nonzero"/></g></g></g><g clip-path="url(#a650e50154)"><g clip-path="url(#05d0414c7c)"><g clip-path="url(#63c92b577c)"><path fill="#1b1c2a" d="M 115.667969 300.054688 C 113.664062 299.457031 113.238281 299.308594 112.671875 299.105469 C 112.15625 298.921875 111.515625 298.695312 109.332031 298.011719 C 108.84375 297.859375 108.574219 297.339844 108.726562 296.855469 C 108.875 296.367188 109.386719 296.097656 109.871094 296.242188 C 109.875 296.242188 109.878906 296.246094 109.886719 296.246094 C 112.101562 296.9375 112.761719 297.171875 113.292969 297.363281 C 113.894531 297.574219 114.320312 297.726562 116.914062 298.496094 C 117.402344 298.640625 117.683594 299.15625 117.539062 299.644531 C 117.394531 300.132812 116.878906 300.414062 116.386719 300.269531 C 116.128906 300.191406 115.886719 300.121094 115.667969 300.054688 " fill-opacity="1" fill-rule="nonzero"/></g></g></g><g clip-path="url(#918eb727bc)"><g clip-path="url(#5e1ad13fdb)"><g clip-path="url(#34e7c91da8)"><path fill="#1b1c2a" d="M 103.535156 301.328125 C 103.054688 301.183594 102.773438 300.683594 102.90625 300.199219 C 103.039062 299.703125 103.550781 299.414062 104.042969 299.546875 C 106.152344 300.121094 106.820312 300.289062 107.308594 300.410156 C 107.9375 300.566406 108.285156 300.652344 111.007812 301.433594 C 111.496094 301.554688 111.785156 302.089844 111.644531 302.578125 C 111.503906 303.070312 110.992188 303.355469 110.5 303.214844 C 107.808594 302.441406 107.472656 302.359375 106.859375 302.207031 C 106.367188 302.082031 105.691406 301.917969 103.554688 301.332031 C 103.546875 301.332031 103.542969 301.328125 103.535156 301.328125 " fill-opacity="1" fill-rule="nonzero"/></g></g></g><g clip-path="url(#771531a9a3)"><g clip-path="url(#0a8610e27b)"><g clip-path="url(#2678ecb962)"><path fill="#1b1c2a" d="M 97.742188 304.644531 C 97.261719 304.503906 96.984375 304.003906 97.113281 303.515625 C 97.246094 303.023438 97.753906 302.730469 98.25 302.863281 C 100.609375 303.5 101.144531 303.621094 101.667969 303.730469 C 102.21875 303.851562 102.738281 303.964844 105.242188 304.652344 C 105.246094 304.65625 105.253906 304.65625 105.261719 304.660156 C 105.742188 304.800781 106.023438 305.304688 105.890625 305.789062 C 105.753906 306.285156 105.242188 306.574219 104.75 306.4375 C 102.296875 305.761719 101.800781 305.65625 101.273438 305.542969 C 100.730469 305.421875 100.171875 305.300781 97.765625 304.652344 C 97.757812 304.648438 97.75 304.648438 97.742188 304.644531 " fill-opacity="1" fill-rule="nonzero"/></g></g></g><g clip-path="url(#bc25a1ff1f)"><g clip-path="url(#25e930a630)"><g clip-path="url(#362c975817)"><path fill="#1b1c2a" d="M 91.433594 307.8125 C 90.949219 307.667969 90.667969 307.160156 90.808594 306.667969 C 90.953125 306.179688 91.464844 305.894531 91.957031 306.039062 L 99.050781 308.089844 C 99.054688 308.089844 99.058594 308.089844 99.058594 308.089844 C 99.546875 308.234375 99.824219 308.746094 99.683594 309.234375 C 99.542969 309.726562 99.03125 310.011719 98.539062 309.867188 L 91.441406 307.816406 C 91.441406 307.816406 91.4375 307.8125 91.433594 307.8125 " fill-opacity="1" fill-rule="nonzero"/></g></g></g><g clip-path="url(#6a6f2666c9)"><g clip-path="url(#1e648879db)"><g clip-path="url(#1a3c96ae05)"><path fill="#1b1c2a" d="M 85.5 311.089844 C 85.015625 310.945312 84.734375 310.433594 84.875 309.945312 C 85.019531 309.457031 85.53125 309.171875 86.023438 309.3125 L 93.464844 311.460938 C 93.929688 311.578125 94.238281 312.117188 94.097656 312.609375 C 93.957031 313.101562 93.441406 313.382812 92.953125 313.238281 L 85.507812 311.09375 C 85.503906 311.09375 85.503906 311.089844 85.5 311.089844 " fill-opacity="1" fill-rule="nonzero"/></g></g></g><g clip-path="url(#0f898a97e4)"><g clip-path="url(#dad990ee35)"><g clip-path="url(#0cce6b2096)"><path fill="#1b1c2a" d="M 72.394531 312.296875 C 71.90625 312.152344 71.628906 311.640625 71.769531 311.152344 C 71.910156 310.664062 72.425781 310.378906 72.914062 310.519531 L 87.484375 314.726562 C 87.488281 314.726562 87.488281 314.726562 87.492188 314.726562 C 87.980469 314.871094 88.257812 315.382812 88.117188 315.871094 C 87.976562 316.359375 87.460938 316.644531 86.972656 316.503906 L 72.402344 312.300781 C 72.398438 312.300781 72.398438 312.296875 72.394531 312.296875 " fill-opacity="1" fill-rule="nonzero"/></g></g></g><g clip-path="url(#de536ef3cb)"><g clip-path="url(#edb4de6eaf)"><g clip-path="url(#2f543b1057)"><path fill="#1b1c2a" d="M 70.632812 316.78125 C 70.148438 316.636719 69.867188 316.125 70.007812 315.636719 C 70.152344 315.144531 70.664062 314.863281 71.15625 315.003906 L 81.46875 317.976562 C 81.953125 318.125 82.242188 318.632812 82.097656 319.125 C 81.957031 319.617188 81.445312 319.898438 80.953125 319.757812 L 70.640625 316.78125 C 70.640625 316.78125 70.636719 316.78125 70.632812 316.78125 " fill-opacity="1" fill-rule="nonzero"/></g></g></g></svg>