<svg xmlns="http://www.w3.org/2000/svg" xmlns:xlink="http://www.w3.org/1999/xlink" width="500" zoomAndPan="magnify" viewBox="0 0 375 374.999991" height="500" preserveAspectRatio="xMidYMid meet" version="1.0"><defs><g/><clipPath id="510b24d744"><path d="M 6.570312 0 L 369.714844 0 L 369.714844 375 L 6.570312 375 Z M 6.570312 0 " clip-rule="nonzero"/></clipPath><clipPath id="169a020e5a"><path d="M 20.820312 0 L 355.464844 0 C 359.242188 0 362.867188 1.5 365.539062 4.171875 C 368.210938 6.847656 369.714844 10.46875 369.714844 14.25 L 369.714844 360.75 C 369.714844 364.527344 368.210938 368.152344 365.539062 370.828125 C 362.867188 373.5 359.242188 375 355.464844 375 L 20.820312 375 C 17.039062 375 13.414062 373.5 10.742188 370.828125 C 8.070312 368.152344 6.570312 364.527344 6.570312 360.75 L 6.570312 14.25 C 6.570312 10.46875 8.070312 6.847656 10.742188 4.171875 C 13.414062 1.5 17.039062 0 20.820312 0 Z M 20.820312 0 " clip-rule="nonzero"/></clipPath></defs><g clip-path="url(#510b24d744)"><g clip-path="url(#169a020e5a)"><path fill="#a7825d" d="M 6.570312 0 L 369.714844 0 L 369.714844 374.492188 L 6.570312 374.492188 Z M 6.570312 0 " fill-opacity="1" fill-rule="nonzero"/></g></g><path fill="#b63f2f" d="M 58.070312 253.054688 C 63.160156 271.628906 68.875 305.925781 68.875 305.925781 C 125.277344 335.929688 225.226562 345.21875 303.050781 305.925781 C 305.195312 283.777344 310.902344 242.339844 310.902344 242.339844 Z M 58.070312 253.054688 " fill-opacity="1" fill-rule="nonzero"/><path fill="#fae08d" d="M 58.878906 205.902344 C 83.152344 202.328125 123.847656 155.175781 178.816406 151.601562 C 233.789062 148.027344 284.488281 215.90625 313.753906 213.046875 C 290.195312 263.773438 202.378906 272.34375 174.539062 269.484375 C 146.691406 266.632812 48.167969 265.917969 58.878906 205.902344 Z M 58.878906 205.902344 " fill-opacity="1" fill-rule="nonzero"/><path fill="#ef9c38" d="M 58.878906 205.902344 C 65.300781 210.902344 56.695312 234.09375 70.398438 233.351562 C 84.101562 232.613281 89.578125 236.710938 98.859375 240.242188 C 108.140625 243.773438 111.707031 261.632812 122.417969 259.488281 C 133.128906 257.34375 145.976562 251.628906 155.972656 254.488281 C 165.96875 257.351562 173.824219 262.707031 181.675781 259.667969 C 189.527344 256.628906 198.8125 248.769531 206.664062 251.628906 C 214.515625 254.488281 219.511719 265.203125 230.222656 255.914062 C 240.933594 246.625 255.210938 240.910156 265.921875 240.195312 C 276.632812 239.480469 288.660156 247.832031 290.929688 236.667969 C 293.207031 225.5 298.050781 215.191406 313.753906 213.050781 C 313.753906 213.050781 315.898438 191.621094 338.742188 198.765625 C 361.585938 205.910156 337.3125 229.109375 328.746094 228.941406 C 324.464844 252.351562 314.46875 260.945312 300.1875 260.574219 C 285.910156 260.210938 283.050781 284.5 263.773438 286.640625 C 244.492188 288.777344 231.644531 281.640625 222.363281 286.640625 C 213.082031 291.636719 209.515625 302.355469 198.089844 297.355469 C 186.664062 292.359375 178.097656 283.070312 167.390625 288.785156 C 156.6875 294.496094 145.976562 306.382812 138.117188 298.652344 C 130.265625 290.921875 128.121094 282.347656 114.558594 281.640625 C 100.996094 280.925781 91 291.644531 84.574219 283.070312 C 78.152344 274.496094 82.429688 263.777344 72.433594 262.347656 C 62.4375 260.917969 66.011719 268.777344 53.15625 262.347656 C 40.308594 255.921875 46.019531 239.488281 44.589844 229.484375 C 43.160156 219.480469 19.601562 222.339844 33.878906 203.765625 C 48.15625 185.1875 63 185.1875 69.5 202.335938 C 69.507812 202.328125 66.730469 208.761719 58.878906 205.902344 Z M 58.878906 205.902344 " fill-opacity="1" fill-rule="nonzero"/><path fill="#ef9c38" d="M 85.582031 224.066406 C 85.367188 224.066406 85.148438 224.050781 84.9375 224.027344 C 83.210938 223.828125 81.800781 222.84375 80.746094 221.109375 C 79.25 218.644531 79.625 216.761719 80.203125 215.617188 C 82.304688 211.496094 90.1875 210.039062 101.378906 209.125 C 102.042969 209.074219 102.671875 209.4375 102.953125 210.039062 C 103.234375 210.644531 103.113281 211.359375 102.648438 211.832031 C 95.074219 219.539062 89.773438 224.066406 85.582031 224.066406 Z M 97.257812 212.714844 C 91.757812 213.300781 84.363281 214.496094 83.050781 217.066406 C 82.933594 217.292969 82.585938 217.988281 83.472656 219.449219 C 84.171875 220.605469 84.855469 220.800781 85.308594 220.859375 C 87.898438 221.160156 92.410156 217.433594 97.257812 212.714844 Z M 97.257812 212.714844 " fill-opacity="1" fill-rule="nonzero"/><path fill="#ef9c38" d="M 129.953125 246.179688 C 129.121094 246.179688 128.253906 245.96875 127.355469 245.550781 C 124.894531 244.410156 124.203125 242.730469 124.0625 241.53125 C 123.554688 237.242188 128.867188 232.058594 136.996094 225.601562 C 137.515625 225.1875 138.238281 225.144531 138.8125 225.488281 C 139.378906 225.832031 139.679688 226.496094 139.550781 227.15625 C 137.542969 237.71875 135.777344 243.789062 132.171875 245.640625 C 131.46875 245.992188 130.730469 246.179688 129.953125 246.179688 Z M 128.703125 242.65625 C 129.78125 243.152344 130.367188 242.972656 130.71875 242.792969 C 132.917969 241.664062 134.5 235.867188 135.566406 230.882812 C 131.777344 234.085938 126.941406 238.65625 127.234375 241.148438 C 127.257812 241.363281 127.335938 242.023438 128.703125 242.65625 Z M 128.703125 242.65625 " fill-opacity="1" fill-rule="nonzero"/><path fill="#ef9c38" d="M 179.378906 250.058594 C 177.078125 250.058594 175.789062 249.050781 175.085938 248.144531 C 172.265625 244.472656 174.332031 236.722656 178.3125 226.222656 C 178.550781 225.601562 179.144531 225.195312 179.808594 225.195312 C 179.808594 225.195312 179.8125 225.195312 179.820312 225.195312 C 180.484375 225.199219 181.082031 225.617188 181.304688 226.242188 C 185.195312 236.914062 187.003906 243.808594 184.710938 247.472656 C 183.792969 248.949219 182.300781 249.804688 180.277344 250.015625 C 179.960938 250.039062 179.660156 250.058594 179.378906 250.058594 Z M 179.945312 246.835938 L 180.113281 248.425781 L 179.945312 246.835938 C 181.285156 246.695312 181.765625 246.164062 182.007812 245.78125 C 183.390625 243.5625 181.960938 237.890625 179.78125 231.488281 C 177.957031 236.710938 175.859375 243.910156 177.617188 246.199219 C 177.773438 246.394531 178.242188 247.007812 179.945312 246.835938 Z M 179.945312 246.835938 " fill-opacity="1" fill-rule="nonzero"/><path fill="#ef9c38" d="M 230.859375 239.929688 C 230.199219 239.929688 229.625 239.773438 229.171875 239.582031 C 225.363281 237.976562 223.5625 231.238281 222.03125 221.621094 C 221.929688 220.960938 222.242188 220.3125 222.816406 219.980469 C 223.390625 219.652344 224.113281 219.710938 224.628906 220.136719 C 232.457031 226.65625 236.667969 230.921875 236.511719 234.765625 C 236.449219 236.339844 235.652344 237.6875 234.140625 238.753906 C 232.894531 239.636719 231.785156 239.929688 230.859375 239.929688 Z M 225.929688 225.429688 C 226.804688 229.9375 228.285156 235.742188 230.40625 236.640625 C 230.59375 236.71875 231.15625 236.960938 232.304688 236.144531 C 233.191406 235.515625 233.3125 234.980469 233.324219 234.636719 C 233.414062 232.421875 229.433594 228.507812 225.929688 225.429688 Z M 225.929688 225.429688 " fill-opacity="1" fill-rule="nonzero"/><path fill="#ef9c38" d="M 276.347656 223.203125 C 272.722656 223.203125 268.976562 218.554688 264.472656 211.578125 C 264.117188 211.023438 264.136719 210.300781 264.53125 209.765625 C 264.925781 209.230469 265.609375 209 266.246094 209.175781 C 274.699219 211.558594 279.515625 213.441406 280.746094 216.582031 C 281.105469 217.496094 281.308594 218.957031 280.238281 220.726562 C 279.011719 222.742188 277.480469 223.191406 276.410156 223.203125 C 276.382812 223.203125 276.367188 223.203125 276.347656 223.203125 Z M 269.589844 213.492188 C 271.742188 216.53125 274.566406 220.011719 276.339844 220.011719 C 276.347656 220.011719 276.351562 220.011719 276.359375 220.011719 C 276.503906 220.011719 276.941406 220.003906 277.507812 219.074219 C 277.984375 218.28125 277.839844 217.910156 277.78125 217.75 C 277.15625 216.175781 273.199219 214.636719 269.589844 213.492188 Z M 269.589844 213.492188 " fill-opacity="1" fill-rule="nonzero"/><path fill="#ef9c38" d="M 117.015625 191.238281 C 116.511719 191.238281 116.019531 191.003906 115.707031 190.5625 C 115.203125 189.839844 115.375 188.84375 116.089844 188.339844 L 124.703125 182.269531 C 125.421875 181.765625 126.417969 181.9375 126.921875 182.652344 C 127.425781 183.375 127.253906 184.371094 126.539062 184.875 L 117.925781 190.945312 C 117.652344 191.144531 117.328125 191.238281 117.015625 191.238281 Z M 117.015625 191.238281 " fill-opacity="1" fill-rule="nonzero"/><path fill="#ef9c38" d="M 125.625 206.675781 C 125.332031 206.675781 125.03125 206.59375 124.765625 206.417969 C 124.023438 205.941406 123.816406 204.953125 124.285156 204.210938 C 126.335938 201.03125 128.597656 197.789062 130.996094 194.355469 C 135.457031 187.964844 140.070312 181.355469 143.539062 174.757812 C 143.949219 173.976562 144.910156 173.675781 145.695312 174.085938 C 146.472656 174.496094 146.773438 175.457031 146.367188 176.242188 C 142.800781 183.023438 138.128906 189.714844 133.613281 196.179688 C 131.234375 199.589844 128.988281 202.804688 126.964844 205.941406 C 126.660156 206.414062 126.148438 206.675781 125.625 206.675781 Z M 125.625 206.675781 " fill-opacity="1" fill-rule="nonzero"/><path fill="#ef9c38" d="M 175.378906 210.433594 C 174.511719 210.433594 173.804688 209.738281 173.785156 208.871094 C 173.773438 208.144531 173.445312 190.996094 173.789062 186.484375 C 173.855469 185.601562 174.621094 184.949219 175.5 185.015625 C 176.382812 185.078125 177.039062 185.851562 176.96875 186.726562 C 176.636719 191.09375 176.96875 208.636719 176.972656 208.808594 C 176.992188 209.6875 176.292969 210.417969 175.410156 210.433594 C 175.40625 210.433594 175.390625 210.433594 175.378906 210.433594 Z M 175.378906 210.433594 " fill-opacity="1" fill-rule="nonzero"/><path fill="#ef9c38" d="M 210.503906 206.675781 C 209.871094 206.675781 209.273438 206.296875 209.023438 205.671875 C 208.757812 205.003906 207.921875 202.996094 206.792969 200.285156 C 203.25 191.78125 197.324219 177.546875 196.09375 173.863281 C 195.8125 173.027344 196.265625 172.121094 197.101562 171.84375 C 197.9375 171.5625 198.835938 172.015625 199.117188 172.855469 C 200.308594 176.429688 206.433594 191.148438 209.734375 199.058594 C 210.867188 201.792969 211.710938 203.816406 211.984375 204.492188 C 212.308594 205.308594 211.914062 206.242188 211.097656 206.566406 C 210.898438 206.636719 210.703125 206.675781 210.503906 206.675781 Z M 210.503906 206.675781 " fill-opacity="1" fill-rule="nonzero"/><path fill="#ef9c38" d="M 234.917969 194.847656 C 234.234375 194.847656 233.609375 194.40625 233.394531 193.722656 C 233.035156 192.71875 229.425781 188.992188 226.789062 186.273438 C 222.160156 181.492188 219.054688 178.195312 218.164062 176.136719 C 217.820312 175.324219 218.191406 174.386719 219 174.039062 C 219.8125 173.695312 220.75 174.066406 221.09375 174.878906 C 221.816406 176.554688 225.839844 180.710938 229.074219 184.050781 C 233.445312 188.5625 235.9375 191.195312 236.4375 192.777344 C 236.699219 193.621094 236.226562 194.515625 235.390625 194.777344 C 235.238281 194.820312 235.078125 194.847656 234.917969 194.847656 Z M 234.917969 194.847656 " fill-opacity="1" fill-rule="nonzero"/><path fill="#ef9c38" d="M 258.859375 199.320312 C 258.484375 199.320312 258.109375 199.1875 257.808594 198.917969 C 252.296875 194.046875 245.878906 188.730469 244.558594 188.167969 C 243.761719 187.996094 243.210938 187.25 243.308594 186.417969 C 243.410156 185.542969 244.199219 184.917969 245.082031 185.019531 C 245.605469 185.085938 247.1875 185.269531 259.917969 196.523438 C 260.582031 197.105469 260.640625 198.113281 260.058594 198.777344 C 259.742188 199.136719 259.308594 199.320312 258.859375 199.320312 Z M 244.703125 188.195312 Z M 244.703125 188.195312 " fill-opacity="1" fill-rule="nonzero"/><g fill="#ffffff" fill-opacity="1"><g transform="translate(127.936106, 105.48071)"><g><path d="M 55.484375 -11.1875 L 55.484375 0 L 10 0 L 6.453125 -8.8125 L 29.453125 -34.734375 C 32.398438 -38.023438 35.085938 -41.316406 37.515625 -44.609375 C 39.953125 -47.910156 41.171875 -51.28125 41.171875 -54.71875 C 41.171875 -58.300781 40.128906 -61.003906 38.046875 -62.828125 C 35.972656 -64.660156 33.253906 -65.578125 29.890625 -65.578125 C 28.242188 -65.578125 26.414062 -65.078125 24.40625 -64.078125 C 22.394531 -63.078125 20.492188 -61.5 18.703125 -59.34375 C 16.910156 -57.195312 15.476562 -54.367188 14.40625 -50.859375 L 5.484375 -56.453125 C 7.421875 -63.109375 10.769531 -68.085938 15.53125 -71.390625 C 20.300781 -74.691406 25.550781 -76.34375 31.28125 -76.34375 C 35.375 -76.34375 39.066406 -75.5 42.359375 -73.8125 C 45.660156 -72.125 48.273438 -69.738281 50.203125 -66.65625 C 52.140625 -63.570312 53.109375 -59.878906 53.109375 -55.578125 C 53.109375 -50.640625 51.617188 -45.75 48.640625 -40.90625 C 45.671875 -36.070312 42.035156 -31.289062 37.734375 -26.5625 L 23.65625 -11.1875 Z M 55.484375 -11.1875 "/></g></g></g><g fill="#ffffff" fill-opacity="1"><g transform="translate(186.854025, 105.48071)"><g><path d="M 47.3125 0 L 11.390625 0 L 11.390625 -11.1875 L 23.328125 -11.1875 L 23.328125 -61.171875 L 12.46875 -55.484375 L 9.359375 -65.578125 L 29.453125 -76.34375 L 35.046875 -76.34375 L 35.046875 -11.1875 L 47.3125 -11.1875 Z M 47.3125 0 "/></g></g></g></svg>