<svg xmlns="http://www.w3.org/2000/svg" xmlns:xlink="http://www.w3.org/1999/xlink" width="500" zoomAndPan="magnify" viewBox="0 0 375 374.999991" height="500" preserveAspectRatio="xMidYMid meet" version="1.0"><defs><g/><clipPath id="acdb61b8b3"><path d="M 7.472656 0 L 368.804688 0 L 368.804688 373 L 7.472656 373 Z M 7.472656 0 " clip-rule="nonzero"/></clipPath><clipPath id="16ba8d9369"><path d="M 21.722656 0 L 354.554688 0 C 362.425781 0 368.804688 6.378906 368.804688 14.25 L 368.804688 358.878906 C 368.804688 366.746094 362.425781 373.128906 354.554688 373.128906 L 21.722656 373.128906 C 13.851562 373.128906 7.472656 366.746094 7.472656 358.878906 L 7.472656 14.25 C 7.472656 6.378906 13.851562 0 21.722656 0 Z M 21.722656 0 " clip-rule="nonzero"/></clipPath></defs><g clip-path="url(#acdb61b8b3)"><g clip-path="url(#16ba8d9369)"><path fill="#a3c14a" d="M 7.472656 0 L 368.804688 0 L 368.804688 372.625 L 7.472656 372.625 Z M 7.472656 0 " fill-opacity="1" fill-rule="nonzero"/></g></g><path fill="#e28e64" d="M 199.484375 350.925781 C 199.484375 351.6875 200.058594 349.261719 199.3125 349.40625 C 196.339844 349.972656 193.726562 351.761719 191.1875 353.257812 C 189.910156 354.023438 188.609375 354.808594 187.222656 355.34375 C 186.09375 355.789062 181.074219 356.769531 181.097656 358.535156 C 181.125 360.257812 186.132812 358.488281 186.964844 358.757812 C 186.226562 359.175781 185.664062 359.46875 185.113281 359.761719 C 183.566406 360.644531 182.007812 361.53125 180.535156 362.414062 C 179.8125 362.878906 179.148438 363.589844 179.734375 364.378906 C 180.3125 365.1875 181.320312 365.113281 182.226562 364.746094 C 183.050781 364.476562 183.824219 364.082031 184.570312 363.664062 C 185.996094 362.957031 186.09375 362.660156 188.128906 361.996094 C 186.695312 363.449219 184.363281 366.585938 183.726562 367.347656 C 183.0625 368.0625 182.425781 368.945312 183.429688 369.679688 C 184.351562 370.367188 185.320312 369.800781 186.082031 369.164062 C 186.792969 368.550781 187.457031 367.9375 188.191406 367.347656 C 189.148438 366.539062 191.554688 364.109375 192.535156 363.347656 C 192.167969 365.164062 189.675781 368.253906 189.519531 369.976562 C 189.273438 372.230469 191.507812 370.90625 192.425781 370.121094 C 193.8125 368.96875 194.894531 367.519531 195.800781 366.023438 C 196.023438 365.652344 198.328125 363.347656 198.613281 363.398438 C 199.238281 363.46875 199.410156 364.035156 199.347656 364.523438 C 199.179688 366.070312 198.011719 369.582031 198.648438 370.195312 C 200 371.347656 201.226562 369.140625 201.667969 368.207031 C 202.453125 366.464844 203.238281 364.914062 205.5 364.082031 C 205.5 364.082031 215.84375 359.714844 213.035156 353.457031 Z M 199.484375 350.925781 " fill-opacity="1" fill-rule="evenodd"/><path fill="#d37a53" d="M 205.5 283.242188 C 205.5 294.847656 192.304688 304.25 176.042969 304.25 C 159.773438 304.25 146.582031 294.847656 146.582031 283.242188 C 146.582031 271.65625 159.773438 262.257812 176.042969 262.257812 C 192.304688 262.257812 205.5 271.65625 205.5 283.242188 Z M 205.5 283.242188 " fill-opacity="1" fill-rule="evenodd"/><path fill="#e28e64" d="M 134.269531 347.417969 C 133.804688 347.34375 132.40625 348.324219 131.839844 348.570312 C 130.882812 349.015625 129.890625 349.453125 128.882812 349.847656 C 125.117188 351.269531 120.796875 352.203125 116.808594 352.886719 C 114.464844 353.28125 115.863281 355.296875 117.199219 355.492188 C 119.421875 355.761719 121.398438 355.492188 123.542969 354.730469 C 121.050781 355.640625 118.785156 357.503906 116.230469 358.042969 C 114.070312 358.535156 114.78125 360.839844 116.953125 360.839844 C 118.855469 360.816406 123.214844 358.976562 124.929688 358.289062 C 123.582031 358.828125 121.457031 360.179688 120.253906 360.988281 C 118.980469 361.847656 116.878906 364.816406 119.726562 364.621094 C 122.464844 364.375 125.730469 361.824219 127.839844 360.351562 C 127.839844 360.351562 125.09375 363.050781 123.800781 365.234375 C 123.261719 366.140625 122.683594 367.269531 123.886719 367.8125 C 125.53125 368.597656 128.84375 365.085938 130.121094 364.152344 C 131.421875 363.199219 132.796875 361.824219 134.269531 361.085938 C 134.269531 361.085938 136.476562 359.957031 137.875 361.378906 C 138.464844 362.558594 139.152344 363.714844 139.988281 364.746094 C 140.492188 365.359375 141.117188 366.21875 141.878906 366.535156 C 143.253906 367.125 144.652344 366.046875 144.699219 364.671875 C 144.75 362.953125 143.300781 361.429688 143.042969 359.761719 C 142.835938 358.386719 144.085938 356.152344 144.503906 354.804688 C 145.070312 352.890625 145.585938 350.878906 145.78125 348.890625 Z M 134.269531 347.417969 " fill-opacity="1" fill-rule="evenodd"/><path fill="#ffb531" d="M 187.382812 332.71875 C 176.140625 330.511719 166.816406 324.941406 159.132812 316.472656 C 157.046875 316.027344 155.769531 314.582031 154.664062 312.886719 C 149.132812 304.296875 145.957031 294.871094 144.359375 284.859375 C 144.089844 283.117188 144.851562 281.667969 145.5625 280.148438 C 145.757812 279.757812 145.929688 279.386719 146.136719 278.996094 C 149.734375 277.546875 150.25 277.742188 151.230469 281.253906 C 152.261719 284.960938 157.734375 289.03125 162.203125 289.476562 C 167.996094 290.113281 172.902344 288.199219 177.074219 284.34375 C 179.761719 281.867188 182.15625 279.070312 183.429688 275.582031 C 184.558594 272.539062 187.433594 271.902344 189.996094 270.800781 C 190.476562 269.496094 191.742188 269.351562 192.78125 269.082031 C 196.378906 268.027344 196.90625 268.515625 199.054688 265.273438 C 199.507812 264.585938 221.007812 269.300781 230.363281 268.617188 C 250.582031 267.164062 270.257812 278.726562 273.054688 299.882812 C 273.976562 306.972656 273.363281 314.1875 271.199219 321.132812 C 270.734375 322.605469 269.066406 327.738281 267.273438 328.402344 C 251.542969 326.507812 239.292969 327.929688 226.605469 336.890625 C 224.839844 338.144531 223.011719 339.125 220.835938 337.921875 C 218.503906 336.667969 217.167969 334.730469 217.453125 332.054688 C 218.234375 324.128906 218.039062 316.226562 217.992188 308.324219 C 217.90625 301.15625 216.578125 294.234375 214.136719 287.5625 C 212.886719 284.074219 210.894531 280.957031 208.011719 278.601562 C 200.296875 272.390625 193.71875 273.574219 187.75 280.390625 C 181.246094 287.851562 181.125 296.539062 184.4375 305.402344 C 186.695312 311.339844 189.027344 317.230469 189.738281 323.636719 C 189.996094 326.042969 189.996094 328.398438 189.9375 330.800781 C 189.910156 332.472656 189.25 333.453125 187.382812 332.71875 Z M 187.382812 332.71875 " fill-opacity="1" fill-rule="evenodd"/><path fill="#ffd181" d="M 145.5625 280.148438 C 146.226562 293.15625 150.175781 304.910156 158.300781 315.191406 C 158.617188 315.585938 158.851562 316.027344 159.132812 316.472656 C 157.5625 317.300781 157.757812 318.945312 157.5 320.296875 C 156.015625 327.515625 154.617188 334.730469 153.316406 341.96875 C 152.605469 345.847656 152.1875 352.253906 148.285156 354.460938 C 143.398438 357.210938 133.804688 353.234375 129.253906 351.46875 C 125.507812 349.996094 124.308594 348.789062 124.773438 344.617188 C 125.535156 337.699219 128.246094 330.605469 129.929688 323.832031 C 131.363281 317.941406 132.726562 312.003906 134.246094 306.089844 C 135.976562 299.367188 137.855469 292.664062 141.046875 286.429688 C 142.222656 284.125 143.621094 281.964844 145.5625 280.148438 Z M 145.5625 280.148438 " fill-opacity="1" fill-rule="evenodd"/><path fill="#ffd181" d="M 269.65625 325.257812 C 267.839844 333.0625 264.402344 336.839844 262.953125 343.222656 C 261.628906 349.015625 259.984375 354.730469 257.246094 360.058594 C 256.230469 362.023438 256.523438 362.878906 258.917969 362.660156 C 260.253906 362.5625 261.605469 362.757812 262.957031 362.785156 C 258.550781 362.90625 254.90625 364.574219 250.980469 366.757812 C 239.296875 373.3125 223.320312 366.929688 218.457031 354.488281 C 218.164062 353.703125 217.894531 352.941406 217.425781 351.667969 C 215.363281 358.390625 186.589844 359.222656 187.1875 351.226562 C 187.484375 347.175781 188.710938 339.394531 189.003906 335.320312 C 189.089844 333.800781 188.464844 333.257812 187.382812 332.71875 C 188.953125 332.667969 188.734375 331.640625 188.734375 330.535156 C 188.757812 322.953125 187.3125 315.636719 184.195312 308.667969 C 181.324219 302.238281 180.097656 295.5625 181.824219 288.59375 C 183.277344 282.800781 186.6875 278.285156 191.769531 275.144531 C 197.167969 271.828125 203.832031 272.882812 209.035156 277.570312 C 214.65625 282.652344 216.738281 289.328125 218.042969 296.371094 C 220.078125 307.539062 219.722656 318.777344 218.816406 329.972656 C 218.679688 331.691406 218.164062 333.578125 219.21875 335.171875 C 221.011719 337.777344 222.976562 337.875 225.785156 335.859375 C 237.347656 327.519531 250.050781 322.632812 264.542969 323.296875 C 266.09375 323.339844 268.472656 323.90625 269.65625 325.257812 Z M 269.65625 325.257812 " fill-opacity="1" fill-rule="evenodd"/><path fill="#ffd181" d="M 286.292969 336.472656 C 281.632812 334.484375 276.355469 337.921875 274.121094 342.4375 C 269.898438 341.96875 264.378906 342.144531 257.039062 343.269531 L 232.570312 367.863281 C 232.570312 367.863281 252.988281 374.808594 283.890625 360.304688 C 289.558594 363.589844 299.007812 363.835938 301.855469 358.460938 C 305.144531 352.277344 291.328125 338.65625 286.292969 336.472656 Z M 286.292969 336.472656 " fill-opacity="1" fill-rule="evenodd"/><path fill="#e28e64" d="M 203.867188 267.335938 C 180.683594 281.421875 155.4375 282.648438 130.574219 276.5625 C 113.824219 272.488281 94.335938 260.742188 101.636719 240.140625 C 102.964844 236.390625 103.835938 232.546875 103.796875 228.558594 C 103.75 225.640625 103.183594 222.78125 102.339844 220.003906 C 92.890625 188.136719 116.425781 153.726562 147.757812 146.476562 C 166.289062 142.195312 186.796875 142.660156 204.234375 150.746094 C 223.070312 159.472656 231.4375 169.9375 234.910156 189.792969 C 237.5 204.273438 235.207031 234.472656 225.464844 245.761719 C 219.351562 252.832031 212.308594 262.269531 203.867188 267.335938 Z M 203.867188 267.335938 " fill-opacity="1" fill-rule="evenodd"/><path fill="#db744b" d="M 103.210938 247.726562 C 103.210938 247.136719 103.210938 246.585938 103.210938 245.984375 C 103.382812 241.417969 107.46875 239.824219 110.808594 242.128906 C 115.996094 245.601562 118.746094 251.246094 117.898438 257.691406 C 117.371094 261.285156 113.382812 262.992188 110.242188 260.796875 C 106.03125 257.875 103.429688 253.875 103.210938 248.574219 C 103.210938 248.242188 103.210938 247.960938 103.210938 247.726562 Z M 103.210938 247.726562 " fill-opacity="1" fill-rule="evenodd"/><path fill="#4d230e" d="M 123.261719 232.21875 C 123.261719 234.363281 122.992188 236.546875 121.742188 238.328125 C 119.789062 241.273438 116.722656 241.40625 114.746094 238.472656 C 112.460938 235.246094 112.402344 231.539062 113.457031 227.859375 C 113.691406 226.914062 114.058594 225.980469 114.625 225.160156 C 116.265625 222.726562 118.773438 222.460938 120.832031 224.644531 C 122.269531 226.1875 122.917969 228.15625 123.164062 230.242188 C 123.238281 230.890625 123.238281 231.539062 123.261719 232.21875 Z M 123.261719 232.21875 " fill-opacity="1" fill-rule="evenodd"/><path fill="#e28e64" d="M 223.902344 220.007812 C 225.019531 217.394531 236.816406 219.332031 238.535156 220.167969 C 247.367188 224.609375 244.855469 236.363281 241.355469 243.410156 C 239.488281 247.238281 236.71875 251.472656 232.824219 253.480469 C 229.6875 255.089844 219.855469 255.445312 217.929688 251.472656 L 213.890625 243.054688 C 213.890625 243.054688 223.855469 220.054688 223.902344 220.007812 Z M 223.902344 220.007812 " fill-opacity="1" fill-rule="evenodd"/><path fill="#cc5858" d="M 137.511719 258.894531 C 132.441406 258.894531 127.71875 256.148438 125.226562 251.667969 C 124.785156 250.878906 125.054688 249.875 125.851562 249.433594 C 126.625 248.980469 127.667969 249.25 128.085938 250.058594 C 130.160156 253.738281 134.125 255.914062 138.355469 255.566406 C 142.125 255.300781 145.375 253.113281 147.144531 249.875 C 147.585938 249.050781 148.589844 248.769531 149.378906 249.199219 C 150.164062 249.601562 150.46875 250.613281 150.042969 251.421875 C 147.769531 255.691406 143.5 258.464844 138.636719 258.828125 C 138.257812 258.894531 137.878906 258.894531 137.511719 258.894531 Z M 137.511719 258.894531 " fill-opacity="1" fill-rule="nonzero"/><path fill="#4d230e" d="M 112.351562 214.65625 C 112.109375 214.65625 111.886719 214.546875 111.703125 214.375 C 111.398438 214.007812 111.421875 213.476562 111.789062 213.148438 C 114.148438 211 119.902344 207.980469 124.578125 212.019531 C 124.933594 212.339844 124.980469 212.878906 124.664062 213.21875 C 124.34375 213.613281 123.816406 213.640625 123.449219 213.320312 C 118.722656 209.304688 112.96875 214.398438 112.917969 214.445312 C 112.769531 214.570312 112.539062 214.65625 112.351562 214.65625 Z M 112.351562 214.65625 " fill-opacity="1" fill-rule="nonzero"/><path fill="#4d230e" d="M 165.992188 213.171875 C 165.761719 213.171875 165.5625 213.097656 165.394531 212.953125 C 165.171875 212.753906 159.5 207.980469 154.898438 212.089844 C 154.554688 212.386719 153.992188 212.359375 153.683594 212.039062 C 153.339844 211.671875 153.367188 211.121094 153.734375 210.8125 C 158.3125 206.679688 164.117188 209.585938 166.558594 211.648438 C 166.875 211.992188 166.976562 212.53125 166.632812 212.828125 C 166.484375 213.074219 166.214844 213.171875 165.992188 213.171875 Z M 165.992188 213.171875 " fill-opacity="1" fill-rule="nonzero"/><path fill="#4d230e" d="M 165.394531 232.472656 C 165.269531 237.519531 162.53125 241.628906 159.207031 241.53125 C 155.933594 241.484375 153.292969 237.273438 153.4375 232.195312 C 153.515625 227.113281 156.296875 223.050781 159.601562 223.097656 C 162.9375 223.1875 165.488281 227.371094 165.394531 232.472656 Z M 165.394531 232.472656 " fill-opacity="1" fill-rule="evenodd"/><path fill="#db744b" d="M 191.039062 251.789062 C 190.894531 258.917969 184.011719 264.578125 175.726562 264.34375 C 167.382812 264.171875 160.828125 258.269531 160.949219 251.164062 C 161.109375 244.011719 167.996094 238.378906 176.277344 238.574219 C 184.597656 238.746094 191.164062 244.660156 191.039062 251.789062 Z M 191.039062 251.789062 " fill-opacity="1" fill-rule="evenodd"/><path fill="#4d230e" d="M 147.878906 148.246094 C 149.574219 153.902344 146.394531 159.878906 140.75 161.585938 C 135.105469 163.328125 129.101562 160.136719 127.386719 154.457031 C 125.640625 148.796875 128.855469 142.835938 134.527344 141.140625 C 140.171875 139.445312 146.125 142.636719 147.878906 148.246094 Z M 147.878906 148.246094 " fill-opacity="1" fill-rule="nonzero"/><path fill="#4d230e" d="M 163.332031 153.226562 C 165.292969 159.695312 162.335938 166.421875 156.703125 168.0625 C 151.121094 169.855469 144.921875 165.925781 142.921875 159.398438 C 140.933594 152.921875 143.964844 146.207031 149.523438 144.503906 C 155.207031 142.761719 161.320312 146.683594 163.332031 153.226562 Z M 163.332031 153.226562 " fill-opacity="1" fill-rule="nonzero"/><path fill="#4d230e" d="M 164.433594 137.238281 C 166.191406 142.910156 162.484375 149.066406 156.210938 150.933594 C 149.941406 152.847656 143.523438 149.765625 141.765625 144.109375 C 140.050781 138.519531 143.695312 132.378906 150.015625 130.453125 C 156.25 128.535156 162.765625 131.558594 164.433594 137.238281 Z M 164.433594 137.238281 " fill-opacity="1" fill-rule="nonzero"/><path fill="#4d230e" d="M 198.28125 141.535156 C 200.039062 147.191406 196.390625 153.300781 190.007812 155.191406 C 183.8125 157.054688 177.332031 154.074219 175.613281 148.394531 C 173.871094 142.734375 177.578125 136.601562 183.835938 134.722656 C 190.109375 132.824219 196.601562 135.851562 198.28125 141.535156 Z M 198.28125 141.535156 " fill-opacity="1" fill-rule="nonzero"/><path fill="#4d230e" d="M 182.535156 136.058594 C 184.277344 141.707031 180.660156 147.816406 174.261719 149.667969 C 168.0625 151.605469 161.5625 148.589844 159.855469 142.957031 C 158.113281 137.265625 161.832031 131.113281 168.089844 129.273438 C 174.339844 127.347656 180.839844 130.402344 182.535156 136.058594 Z M 182.535156 136.058594 " fill-opacity="1" fill-rule="nonzero"/><path fill="#4d230e" d="M 183.332031 154 C 185.308594 160.527344 182.292969 167.230469 176.671875 168.921875 C 170.976562 170.652344 164.816406 166.738281 162.863281 160.269531 C 160.925781 153.730469 163.847656 147.015625 169.515625 145.375 C 175.148438 143.617188 181.382812 147.484375 183.332031 154 Z M 183.332031 154 " fill-opacity="1" fill-rule="nonzero"/><path fill="#4d230e" d="M 176.84375 147.042969 C 178.535156 152.722656 175.347656 158.664062 169.714844 160.359375 C 164.042969 162.097656 158.113281 158.921875 156.410156 153.277344 C 154.703125 147.65625 157.882812 141.617188 163.476562 139.988281 C 169.171875 138.21875 175.148438 141.460938 176.84375 147.042969 Z M 176.84375 147.042969 " fill-opacity="1" fill-rule="nonzero"/><path fill="#4d230e" d="M 203.621094 154.027344 C 205.335938 159.695312 202.121094 165.65625 196.527344 167.386719 C 190.832031 169.042969 184.867188 165.941406 183.171875 160.160156 C 181.457031 154.574219 184.632812 148.613281 190.277344 146.917969 C 195.898438 145.203125 201.902344 148.34375 203.621094 154.027344 Z M 203.621094 154.027344 " fill-opacity="1" fill-rule="nonzero"/><path fill="#d3754c" d="M 229.523438 231.800781 C 229.523438 231.800781 235.78125 222.828125 237.894531 234.363281 C 237.894531 234.363281 239.394531 243.53125 225.253906 246.550781 " fill-opacity="1" fill-rule="evenodd"/><g fill="#ffffff" fill-opacity="1"><g transform="translate(125.658605, 104.954023)"><g><path d="M 55.203125 -11.125 L 55.203125 0 L 9.953125 0 L 6.421875 -8.765625 L 29.3125 -34.5625 C 32.238281 -37.84375 34.910156 -41.117188 37.328125 -44.390625 C 39.753906 -47.671875 40.96875 -51.023438 40.96875 -54.453125 C 40.96875 -58.015625 39.929688 -60.707031 37.859375 -62.53125 C 35.796875 -64.351562 33.085938 -65.265625 29.734375 -65.265625 C 28.097656 -65.265625 26.28125 -64.765625 24.28125 -63.765625 C 22.289062 -62.765625 20.398438 -61.191406 18.609375 -59.046875 C 16.828125 -56.910156 15.398438 -54.097656 14.328125 -50.609375 L 5.453125 -56.171875 C 7.378906 -62.796875 10.710938 -67.75 15.453125 -71.03125 C 20.203125 -74.3125 25.425781 -75.953125 31.125 -75.953125 C 35.195312 -75.953125 38.875 -75.113281 42.15625 -73.4375 C 45.4375 -71.769531 48.035156 -69.398438 49.953125 -66.328125 C 51.878906 -63.265625 52.84375 -59.59375 52.84375 -55.3125 C 52.84375 -50.382812 51.363281 -45.515625 48.40625 -40.703125 C 45.445312 -35.890625 41.828125 -31.128906 37.546875 -26.421875 L 23.53125 -11.125 Z M 55.203125 -11.125 "/></g></g></g><g fill="#ffffff" fill-opacity="1"><g transform="translate(184.282334, 104.954023)"><g><path d="M 55.203125 -11.125 L 55.203125 0 L 9.953125 0 L 6.421875 -8.765625 L 29.3125 -34.5625 C 32.238281 -37.84375 34.910156 -41.117188 37.328125 -44.390625 C 39.753906 -47.671875 40.96875 -51.023438 40.96875 -54.453125 C 40.96875 -58.015625 39.929688 -60.707031 37.859375 -62.53125 C 35.796875 -64.351562 33.085938 -65.265625 29.734375 -65.265625 C 28.097656 -65.265625 26.28125 -64.765625 24.28125 -63.765625 C 22.289062 -62.765625 20.398438 -61.191406 18.609375 -59.046875 C 16.828125 -56.910156 15.398438 -54.097656 14.328125 -50.609375 L 5.453125 -56.171875 C 7.378906 -62.796875 10.710938 -67.75 15.453125 -71.03125 C 20.203125 -74.3125 25.425781 -75.953125 31.125 -75.953125 C 35.195312 -75.953125 38.875 -75.113281 42.15625 -73.4375 C 45.4375 -71.769531 48.035156 -69.398438 49.953125 -66.328125 C 51.878906 -63.265625 52.84375 -59.59375 52.84375 -55.3125 C 52.84375 -50.382812 51.363281 -45.515625 48.40625 -40.703125 C 45.445312 -35.890625 41.828125 -31.128906 37.546875 -26.421875 L 23.53125 -11.125 Z M 55.203125 -11.125 "/></g></g></g></svg>