<svg xmlns="http://www.w3.org/2000/svg" xmlns:xlink="http://www.w3.org/1999/xlink" width="500" zoomAndPan="magnify" viewBox="0 0 375 374.999991" height="500" preserveAspectRatio="xMidYMid meet" version="1.0"><defs><g/><clipPath id="fa7c04d15d"><path d="M 6.570312 0 L 369.714844 0 L 369.714844 375 L 6.570312 375 Z M 6.570312 0 " clip-rule="nonzero"/></clipPath><clipPath id="31aa05f722"><path d="M 20.820312 0 L 355.464844 0 C 359.242188 0 362.867188 1.5 365.539062 4.171875 C 368.210938 6.847656 369.714844 10.46875 369.714844 14.25 L 369.714844 360.75 C 369.714844 364.527344 368.210938 368.152344 365.539062 370.828125 C 362.867188 373.5 359.242188 375 355.464844 375 L 20.820312 375 C 17.039062 375 13.414062 373.5 10.742188 370.828125 C 8.070312 368.152344 6.570312 364.527344 6.570312 360.75 L 6.570312 14.25 C 6.570312 10.46875 8.070312 6.847656 10.742188 4.171875 C 13.414062 1.5 17.039062 0 20.820312 0 Z M 20.820312 0 " clip-rule="nonzero"/></clipPath><clipPath id="308cf992fc"><path d="M 127 286 L 263 286 L 263 364.15625 L 127 364.15625 Z M 127 286 " clip-rule="nonzero"/></clipPath><clipPath id="f7b748b526"><path d="M 43.121094 141 L 155 141 L 155 294 L 43.121094 294 Z M 43.121094 141 " clip-rule="nonzero"/></clipPath><clipPath id="d5ddf0e94e"><path d="M 135 292 L 263 292 L 263 364.15625 L 135 364.15625 Z M 135 292 " clip-rule="nonzero"/></clipPath></defs><g clip-path="url(#fa7c04d15d)"><g clip-path="url(#31aa05f722)"><path fill="#ff5757" d="M 6.570312 0 L 369.714844 0 L 369.714844 374.492188 L 6.570312 374.492188 Z M 6.570312 0 " fill-opacity="1" fill-rule="nonzero"/></g></g><path fill="#f9f3db" d="M 88.289062 300.949219 C 73.980469 279.324219 68.710938 252.167969 72.679688 226.550781 C 76.640625 200.992188 90.03125 176.539062 111.007812 161.371094 C 133.082031 145.402344 161.347656 140.710938 188.582031 139.644531 C 205.566406 138.980469 222.726562 139.558594 239.269531 143.441406 C 255.816406 147.324219 271.792969 154.660156 284.207031 166.25 C 298.375 179.476562 307.308594 197.816406 310.53125 216.917969 C 313.746094 236.019531 311.449219 255.820312 305.4375 274.234375 C 298.046875 296.875 284.609375 318.089844 264.988281 331.613281 C 243.117188 346.6875 215.429688 351.09375 188.875 350.140625 C 166.804688 349.351562 144.519531 345.003906 125.117188 334.464844 C 110.382812 326.460938 97.539062 314.925781 88.289062 300.949219 " fill-opacity="1" fill-rule="nonzero"/><path fill="#f1e4b4" d="M 231.636719 141.90625 C 253.929688 160.179688 270.484375 185.453125 277.933594 213.300781 C 281.609375 227.03125 283.136719 241.445312 281.253906 255.53125 C 279.367188 269.617188 273.953125 283.375 264.816406 294.269531 C 253.523438 307.738281 237.238281 316.160156 220.515625 321.632812 C 189.378906 331.828125 155.265625 332.761719 123.609375 324.289062 C 115.914062 322.230469 108.375 319.609375 101.050781 316.480469 C 108.15625 323.582031 116.285156 329.667969 125.113281 334.464844 C 144.519531 345.003906 166.800781 349.351562 188.875 350.140625 C 215.425781 351.09375 243.117188 346.6875 264.988281 331.613281 C 284.609375 318.089844 298.046875 296.871094 305.4375 274.234375 C 311.449219 255.816406 313.75 236.019531 310.53125 216.917969 C 307.3125 197.816406 298.371094 179.480469 284.207031 166.253906 C 271.792969 154.664062 255.816406 147.324219 239.269531 143.441406 C 236.742188 142.847656 234.195312 142.355469 231.636719 141.90625 " fill-opacity="1" fill-rule="nonzero"/><g clip-path="url(#308cf992fc)"><path fill="#ebd692" d="M 177.585938 287.714844 C 165.039062 289.152344 152.417969 292.683594 142.324219 300.261719 C 138.738281 302.953125 135.5 306.144531 132.980469 309.855469 C 130.464844 313.566406 128.683594 317.8125 128.074219 322.253906 C 127.179688 328.761719 128.882812 335.550781 132.546875 341.011719 C 135.480469 345.378906 139.589844 348.882812 144.109375 351.589844 C 148.628906 354.296875 153.566406 356.242188 158.566406 357.902344 C 170.175781 361.761719 182.34375 364.148438 194.582031 364.144531 C 210.636719 364.140625 226.601562 359.988281 240.925781 352.742188 C 247.246094 349.546875 253.414062 345.625 257.625 339.9375 C 261.160156 335.164062 263.160156 329.222656 262.957031 323.292969 C 262.804688 318.816406 261.417969 314.417969 259.191406 310.535156 C 256.964844 306.644531 253.910156 303.261719 250.425781 300.445312 C 244.492188 295.640625 237.34375 292.484375 229.960938 290.523438 C 222.582031 288.5625 214.9375 287.75 207.3125 287.269531 C 197.410156 286.648438 187.445312 286.585938 177.585938 287.714844 " fill-opacity="1" fill-rule="nonzero"/></g><path fill="#4f4c4c" d="M 191.796875 307.675781 C 187.808594 307.136719 184.101562 305.027344 181.410156 302.039062 C 178.714844 299.054688 177.023438 295.230469 176.363281 291.269531 C 176.058594 289.441406 175.972656 287.5625 176.269531 285.730469 C 176.5625 283.902344 177.273438 282.121094 178.4375 280.679688 C 179.390625 279.503906 180.632812 278.578125 181.992188 277.914062 C 183.347656 277.246094 184.824219 276.835938 186.320312 276.601562 C 189.308594 276.132812 192.359375 276.375 195.378906 276.527344 C 198.265625 276.671875 201.175781 276.738281 203.992188 277.382812 C 206.804688 278.03125 209.5625 279.304688 211.445312 281.492188 C 213.152344 283.480469 214.023438 286.121094 214.074219 288.742188 C 214.128906 291.363281 213.398438 293.964844 212.214844 296.300781 C 209.972656 300.71875 206.078125 304.242188 201.523438 306.195312 C 198.472656 307.5 195.089844 308.121094 191.796875 307.679688 L 191.796875 307.675781 " fill-opacity="1" fill-rule="nonzero"/><path fill="#f2a046" d="M 172.464844 140.757812 C 150.480469 142.996094 128.746094 148.539062 111.007812 161.367188 C 90.03125 176.539062 76.640625 200.988281 72.679688 226.550781 C 68.710938 252.167969 73.980469 279.324219 88.289062 300.953125 C 88.363281 301.054688 88.441406 301.15625 88.511719 301.257812 C 103.257812 295.28125 116.914062 286.605469 128.480469 275.6875 C 148.863281 256.449219 162.535156 230.683594 169.160156 203.472656 C 174.140625 183.015625 175.242188 161.625 172.464844 140.757812 " fill-opacity="1" fill-rule="nonzero"/><path fill="#4f4c4c" d="M 193.894531 305.824219 C 193.246094 305.792969 192.722656 306.300781 192.734375 306.949219 L 192.777344 325.046875 C 192.777344 325.691406 193.304688 326.246094 193.953125 326.285156 C 194.605469 326.320312 195.132812 325.824219 195.132812 325.175781 L 195.089844 307.078125 C 195.101562 306.417969 194.5625 305.847656 193.894531 305.824219 " fill-opacity="1" fill-rule="nonzero"/><path fill="#4f4c4c" d="M 193.898438 323.917969 C 193.339844 323.914062 192.878906 324.296875 192.789062 324.839844 C 192.445312 326.832031 191.53125 328.71875 190.183594 330.183594 C 188.835938 331.648438 187.035156 332.726562 185.078125 333.234375 C 182.691406 333.855469 180.03125 333.636719 177.691406 332.625 C 175.347656 331.617188 173.308594 329.808594 172.015625 327.605469 C 171.683594 327.027344 170.957031 326.800781 170.394531 327.109375 C 169.835938 327.414062 169.660156 328.128906 170.003906 328.703125 C 171.578125 331.382812 174.015625 333.542969 176.859375 334.773438 C 179.707031 335.996094 182.886719 336.261719 185.789062 335.507812 C 188.164062 334.886719 190.324219 333.605469 191.957031 331.824219 C 193.59375 330.042969 194.6875 327.785156 195.105469 325.363281 C 195.242188 324.628906 194.652344 323.921875 193.898438 323.914062 L 193.898438 323.917969 " fill-opacity="1" fill-rule="nonzero"/><path fill="#4f4c4c" d="M 193.996094 323.921875 C 194.550781 323.976562 195.015625 324.414062 195.105469 324.96875 C 195.535156 327.394531 196.796875 329.726562 198.625 331.457031 C 200.457031 333.179688 202.871094 334.332031 205.316406 334.617188 C 207.695312 334.894531 210.148438 334.367188 212.128906 333.167969 C 214.113281 331.96875 215.667969 330.066406 216.453125 327.875 C 216.621094 327.210938 217.332031 326.871094 217.984375 327.136719 C 218.640625 327.402344 218.953125 328.160156 218.65625 328.769531 C 217.699219 331.445312 215.835938 333.726562 213.414062 335.191406 C 210.996094 336.65625 208.078125 337.269531 205.179688 336.933594 C 202.191406 336.582031 199.3125 335.226562 197.078125 333.121094 C 194.84375 331.011719 193.320312 328.214844 192.796875 325.253906 C 192.648438 324.5 193.238281 323.851562 193.996094 323.921875 " fill-opacity="1" fill-rule="nonzero"/><g clip-path="url(#f7b748b526)"><path fill="#d0823c" d="M 110.523438 144.28125 C 93.726562 149.125 78.96875 159.976562 68.109375 173.65625 C 52.777344 192.96875 45.066406 217.648438 43.933594 242.269531 C 43.535156 250.960938 43.9375 259.808594 46.574219 268.101562 C 49.21875 276.394531 54.277344 284.140625 61.65625 288.757812 C 65.441406 291.128906 69.78125 292.632812 74.230469 292.996094 C 78.679688 293.355469 83.238281 292.550781 87.242188 290.578125 C 91.347656 288.554688 94.804688 285.359375 97.527344 281.679688 C 100.25 278.003906 102.265625 273.847656 103.929688 269.585938 C 110.480469 252.800781 111.601562 234.488281 113.550781 216.574219 C 114.148438 211.101562 114.835938 205.613281 116.351562 200.320312 C 117.871094 195.027344 120.257812 189.90625 123.925781 185.796875 C 127.375 181.929688 131.816406 179.101562 136.242188 176.402344 C 140.667969 173.703125 145.1875 171.050781 148.898438 167.4375 C 150.628906 165.757812 152.175781 163.867188 153.230469 161.699219 C 154.28125 159.535156 154.816406 157.082031 154.484375 154.699219 C 154.238281 152.9375 153.523438 151.253906 152.5 149.796875 C 151.476562 148.34375 150.148438 147.113281 148.671875 146.117188 C 145.714844 144.132812 142.207031 143.121094 138.699219 142.488281 C 129.355469 140.808594 119.644531 141.648438 110.523438 144.28125 " fill-opacity="1" fill-rule="nonzero"/></g><path fill="#f2a046" d="M 214.089844 139.839844 C 211.152344 139.648438 208.210938 139.546875 205.265625 139.484375 C 206.492188 152.996094 209.054688 166.378906 213.027344 179.347656 C 218.816406 198.246094 227.496094 216.296875 239.003906 232.371094 C 255.023438 254.757812 276.621094 273.050781 301.167969 285.527344 C 302.757812 281.824219 304.191406 278.050781 305.4375 274.234375 C 311.449219 255.820312 313.75 236.015625 310.53125 216.917969 C 307.3125 197.816406 298.375 179.472656 284.207031 166.25 C 271.792969 154.660156 255.816406 147.324219 239.269531 143.441406 C 231 141.5 222.570312 140.386719 214.089844 139.839844 " fill-opacity="1" fill-rule="nonzero"/><path fill="#f29739" d="M 231.636719 141.90625 C 253.929688 160.179688 270.484375 185.453125 277.933594 213.300781 C 281.609375 227.03125 283.136719 241.445312 281.253906 255.53125 C 280.546875 260.816406 279.339844 266.046875 277.632812 271.105469 C 285.082031 276.515625 292.957031 281.355469 301.167969 285.527344 C 301.167969 285.523438 301.175781 285.523438 301.175781 285.515625 C 301.910156 283.796875 302.601562 282.0625 303.269531 280.324219 C 303.359375 280.085938 303.449219 279.851562 303.539062 279.613281 C 304.183594 277.894531 304.796875 276.171875 305.371094 274.429688 C 305.394531 274.367188 305.414062 274.304688 305.4375 274.242188 C 305.441406 274.238281 305.4375 274.238281 305.4375 274.234375 C 306.1875 271.933594 306.882812 269.613281 307.511719 267.273438 C 307.515625 267.269531 307.511719 267.269531 307.511719 267.269531 C 308.144531 264.929688 308.71875 262.570312 309.226562 260.199219 C 309.226562 260.199219 309.226562 260.195312 309.226562 260.195312 C 309.730469 257.824219 310.171875 255.441406 310.542969 253.046875 C 312.402344 241.070312 312.542969 228.859375 310.53125 216.917969 C 309.328125 209.757812 307.316406 202.703125 304.527344 195.984375 C 304.527344 195.984375 304.527344 195.984375 304.527344 195.980469 C 303.597656 193.738281 302.578125 191.542969 301.476562 189.386719 C 301.476562 189.382812 301.476562 189.382812 301.476562 189.382812 C 300.375 187.226562 299.1875 185.117188 297.917969 183.0625 C 297.917969 183.0625 297.917969 183.058594 297.917969 183.058594 C 297.277344 182.03125 296.621094 181.019531 295.941406 180.019531 C 295.941406 180.019531 295.945312 180.019531 295.941406 180.019531 C 295.265625 179.019531 294.566406 178.035156 293.84375 177.066406 C 293.84375 177.066406 293.847656 177.0625 293.84375 177.0625 C 293.125 176.09375 292.382812 175.140625 291.625 174.203125 C 291.625 174.203125 291.625 174.199219 291.625 174.199219 C 290.863281 173.265625 290.078125 172.347656 289.277344 171.445312 C 289.273438 171.445312 289.277344 171.441406 289.277344 171.441406 C 288.472656 170.539062 287.652344 169.660156 286.804688 168.792969 C 285.964844 167.925781 285.09375 167.082031 284.210938 166.257812 C 282.660156 164.808594 281.050781 163.421875 279.394531 162.105469 C 279.394531 162.105469 279.390625 162.105469 279.390625 162.105469 C 272.761719 156.832031 265.335938 152.601562 257.488281 149.308594 C 251.601562 146.84375 245.476562 144.898438 239.273438 143.441406 C 237.675781 143.066406 236.0625 142.75 234.453125 142.433594 C 233.527344 142.257812 232.601562 142.078125 231.671875 141.914062 C 231.664062 141.910156 231.648438 141.910156 231.640625 141.910156 L 231.636719 141.90625 " fill-opacity="1" fill-rule="nonzero"/><path fill="#d0823c" d="M 280.144531 142.164062 C 296.398438 148.589844 310.046875 160.804688 319.546875 175.460938 C 332.960938 196.148438 338.265625 221.457031 337.03125 246.070312 C 336.59375 254.757812 335.347656 263.527344 331.925781 271.527344 C 328.503906 279.53125 322.726562 286.757812 314.933594 290.652344 C 310.941406 292.648438 306.476562 293.730469 302.011719 293.664062 C 297.546875 293.597656 293.089844 292.359375 289.292969 290.015625 C 285.394531 287.613281 282.265625 284.09375 279.90625 280.175781 C 277.550781 276.253906 275.941406 271.925781 274.691406 267.523438 C 269.78125 250.1875 270.425781 231.851562 270.199219 213.835938 C 270.128906 208.332031 269.972656 202.800781 268.96875 197.386719 C 267.964844 191.972656 266.078125 186.648438 262.824219 182.207031 C 259.757812 178.027344 255.609375 174.789062 251.460938 171.679688 C 247.316406 168.570312 243.074219 165.496094 239.71875 161.542969 C 238.164062 159.707031 236.804688 157.675781 235.964844 155.421875 C 235.125 153.167969 234.828125 150.671875 235.386719 148.332031 C 235.800781 146.601562 236.671875 144.992188 237.828125 143.644531 C 238.988281 142.289062 240.429688 141.191406 241.996094 140.34375 C 245.128906 138.652344 248.71875 137.980469 252.269531 137.683594 C 261.730469 136.902344 271.316406 138.671875 280.144531 142.164062 " fill-opacity="1" fill-rule="nonzero"/><path fill="#ffffff" d="M 170.703125 257.882812 C 170.183594 269.003906 160.734375 277.601562 149.597656 277.082031 C 138.460938 276.5625 129.855469 267.125 130.371094 256.003906 C 130.621094 250.660156 132.984375 245.640625 136.945312 242.039062 C 140.902344 238.4375 146.132812 236.554688 151.480469 236.804688 C 156.828125 237.054688 161.855469 239.414062 165.460938 243.367188 C 169.066406 247.320312 170.949219 252.542969 170.703125 257.882812 " fill-opacity="1" fill-rule="nonzero"/><path fill="#4f4c4c" d="M 164.546875 257.59375 C 164.183594 265.320312 157.621094 271.292969 149.882812 270.933594 C 142.144531 270.574219 136.167969 264.015625 136.527344 256.289062 C 136.703125 252.578125 138.347656 249.089844 141.09375 246.585938 C 143.84375 244.089844 147.476562 242.78125 151.191406 242.953125 C 154.90625 243.125 158.402344 244.765625 160.90625 247.511719 C 163.410156 250.257812 164.71875 253.882812 164.546875 257.59375 " fill-opacity="1" fill-rule="nonzero"/><path fill="#484545" d="M 159.539062 246.230469 C 161.175781 248.957031 162.039062 252.15625 161.886719 255.335938 C 161.699219 259.414062 159.859375 263.449219 156.710938 266.054688 C 154.359375 268 151.339844 269.113281 148.285156 269.164062 C 145.714844 269.210938 143.148438 268.496094 140.953125 267.160156 C 143.386719 269.441406 146.554688 270.777344 149.886719 270.933594 C 157.621094 271.292969 164.183594 265.320312 164.542969 257.59375 C 164.742188 253.234375 162.890625 249.03125 159.539062 246.230469 " fill-opacity="1" fill-rule="nonzero"/><path fill="#ffffff" d="M 164.277344 251.035156 C 164.121094 254.390625 161.273438 256.980469 157.914062 256.824219 C 154.554688 256.667969 151.964844 253.824219 152.121094 250.46875 C 152.277344 247.117188 155.125 244.527344 158.484375 244.683594 C 161.839844 244.839844 164.433594 247.683594 164.277344 251.035156 " fill-opacity="1" fill-rule="nonzero"/><path fill="#f4f4f4" d="M 159.539062 246.230469 C 161.175781 248.957031 162.039062 252.15625 161.886719 255.335938 C 161.886719 255.421875 161.871094 255.507812 161.863281 255.601562 C 162.800781 254.894531 163.511719 253.933594 163.917969 252.832031 C 163.125 250.257812 161.605469 247.964844 159.539062 246.230469 " fill-opacity="1" fill-rule="nonzero"/><path fill="#f4f4f4" d="M 156.523438 237.710938 C 159.648438 239.625 162.316406 242.296875 164.148438 245.46875 C 166.777344 250.019531 167.691406 255.574219 166.402344 260.667969 C 165.46875 264.363281 163.363281 267.804688 160.300781 270.082031 C 156.875 272.640625 152.453125 273.617188 148.179688 273.476562 C 143.523438 273.316406 138.910156 271.882812 134.992188 269.371094 C 134.75 269.214844 134.519531 269.046875 134.285156 268.882812 C 137.886719 273.78125 143.515625 276.792969 149.597656 277.082031 C 160.734375 277.597656 170.183594 269.003906 170.703125 257.882812 C 171.117188 248.722656 165.292969 240.429688 156.523438 237.710938 " fill-opacity="1" fill-rule="nonzero"/><path fill="#ffffff" d="M 262.964844 259.15625 C 262.445312 270.277344 253 278.871094 241.859375 278.355469 C 230.726562 277.832031 222.121094 268.398438 222.636719 257.273438 C 222.886719 251.933594 225.25 246.910156 229.210938 243.308594 C 233.167969 239.710938 238.394531 237.828125 243.742188 238.074219 C 249.089844 238.324219 254.121094 240.6875 257.726562 244.640625 C 261.332031 248.59375 263.214844 253.816406 262.964844 259.15625 " fill-opacity="1" fill-rule="nonzero"/><path fill="#4f4c4c" d="M 256.808594 258.867188 C 256.449219 266.59375 249.882812 272.566406 242.148438 272.207031 C 234.410156 271.84375 228.433594 265.289062 228.792969 257.5625 C 228.96875 253.851562 230.609375 250.359375 233.359375 247.859375 C 236.109375 245.359375 239.742188 244.050781 243.457031 244.222656 C 247.171875 244.398438 250.664062 246.035156 253.171875 248.785156 C 255.675781 251.527344 256.984375 255.15625 256.808594 258.867188 " fill-opacity="1" fill-rule="nonzero"/><path fill="#484545" d="M 251.804688 247.503906 C 253.441406 250.230469 254.300781 253.425781 254.152344 256.605469 C 253.964844 260.6875 252.125 264.722656 248.976562 267.328125 C 246.625 269.269531 243.601562 270.382812 240.550781 270.4375 C 237.980469 270.484375 235.414062 269.769531 233.214844 268.433594 C 235.652344 270.714844 238.816406 272.050781 242.148438 272.207031 C 249.886719 272.566406 256.449219 266.59375 256.808594 258.867188 C 257.007812 254.503906 255.15625 250.304688 251.804688 247.503906 " fill-opacity="1" fill-rule="nonzero"/><path fill="#ffffff" d="M 256.539062 252.308594 C 256.386719 255.660156 253.535156 258.253906 250.179688 258.097656 C 246.820312 257.941406 244.226562 255.09375 244.386719 251.742188 C 244.539062 248.390625 247.390625 245.800781 250.746094 245.953125 C 254.101562 246.113281 256.699219 248.957031 256.539062 252.308594 " fill-opacity="1" fill-rule="nonzero"/><path fill="#f4f4f4" d="M 251.804688 247.503906 C 253.441406 250.230469 254.300781 253.425781 254.152344 256.605469 C 254.148438 256.695312 254.132812 256.78125 254.128906 256.871094 C 255.066406 256.167969 255.777344 255.207031 256.179688 254.105469 C 255.390625 251.527344 253.871094 249.238281 251.804688 247.503906 " fill-opacity="1" fill-rule="nonzero"/><path fill="#f4f4f4" d="M 248.785156 238.984375 C 251.914062 240.898438 254.578125 243.570312 256.414062 246.742188 C 259.042969 251.292969 259.957031 256.847656 258.667969 261.9375 C 257.734375 265.636719 255.625 269.078125 252.566406 271.355469 C 249.140625 273.910156 244.71875 274.890625 240.441406 274.746094 C 235.785156 274.589844 231.175781 273.15625 227.257812 270.644531 C 227.011719 270.488281 226.785156 270.320312 226.550781 270.15625 C 230.152344 275.054688 235.78125 278.066406 241.859375 278.351562 C 253 278.871094 262.445312 270.277344 262.964844 259.15625 C 263.382812 249.992188 257.554688 241.703125 248.785156 238.984375 " fill-opacity="1" fill-rule="nonzero"/><g clip-path="url(#d5ddf0e94e)"><path fill="#e6ca79" d="M 237.3125 292.949219 C 241 296.546875 243.847656 301 245.375 305.921875 C 247.679688 313.335938 247.058594 321.652344 243.515625 328.566406 C 239.65625 336.113281 232.664062 341.640625 225.175781 345.644531 C 215.933594 350.589844 205.691406 353.546875 195.292969 354.910156 C 175.121094 357.546875 154.242188 354 135.9375 345.167969 C 138.339844 347.667969 141.128906 349.804688 144.105469 351.589844 C 148.628906 354.296875 153.566406 356.242188 158.566406 357.902344 C 170.179688 361.761719 182.339844 364.148438 194.578125 364.148438 C 210.636719 364.144531 226.601562 359.988281 240.925781 352.746094 C 247.246094 349.550781 253.414062 345.625 257.628906 339.9375 C 261.160156 335.167969 263.160156 329.222656 262.957031 323.292969 C 262.804688 318.816406 261.417969 314.417969 259.191406 310.535156 C 256.964844 306.644531 253.910156 303.257812 250.425781 300.445312 C 246.492188 297.261719 242.019531 294.816406 237.3125 292.949219 " fill-opacity="1" fill-rule="nonzero"/></g><path fill="#cd7830" d="M 144.015625 143.847656 C 144.855469 145.648438 145.328125 147.613281 145.324219 149.601562 C 145.316406 153.199219 143.851562 156.691406 141.769531 159.628906 C 139.683594 162.566406 136.992188 165.015625 134.253906 167.359375 C 126.597656 173.894531 118.207031 179.910156 112.683594 188.316406 C 105.503906 199.238281 104.023438 212.835938 103.066406 225.867188 C 102.503906 233.578125 102.042969 241.320312 100.589844 248.914062 C 99.136719 256.507812 96.632812 264.007812 92.28125 270.402344 C 86.582031 278.785156 77.890625 284.902344 68.382812 288.445312 C 66.875 289.007812 65.34375 289.5 63.796875 289.933594 C 67.042969 291.605469 70.59375 292.695312 74.226562 292.992188 C 78.679688 293.347656 83.238281 292.550781 87.238281 290.578125 C 91.347656 288.558594 94.804688 285.359375 97.527344 281.679688 C 100.246094 278.003906 102.269531 273.847656 103.933594 269.585938 C 110.480469 252.796875 111.597656 234.484375 113.550781 216.574219 C 114.148438 211.101562 114.835938 205.613281 116.351562 200.320312 C 117.871094 195.027344 120.257812 189.90625 123.929688 185.796875 C 127.378906 181.929688 131.816406 179.101562 136.242188 176.402344 C 140.671875 173.703125 145.1875 171.050781 148.902344 167.433594 C 150.628906 165.757812 152.175781 163.867188 153.230469 161.699219 C 154.28125 159.535156 154.816406 157.085938 154.484375 154.699219 C 154.242188 152.9375 153.523438 151.253906 152.5 149.796875 C 151.480469 148.339844 150.148438 147.109375 148.671875 146.117188 C 147.230469 145.148438 145.65625 144.421875 144.015625 143.847656 " fill-opacity="1" fill-rule="nonzero"/><path fill="#cd7830" d="M 255.820312 137.511719 C 254.636719 137.527344 253.449219 137.589844 252.269531 137.6875 C 249.160156 137.945312 246.042969 138.535156 243.207031 139.800781 C 251.191406 139.824219 259.171875 140.996094 266.804688 143.320312 C 287.699219 149.667969 305.746094 164.738281 315.855469 184.074219 C 325.398438 202.339844 327.832031 223.613281 326.566406 244.175781 C 326.25 249.375 325.699219 254.597656 324.117188 259.5625 C 322.535156 264.523438 319.855469 269.238281 315.855469 272.578125 C 310.964844 276.644531 304.484375 278.363281 298.132812 278.75 C 291.179688 279.179688 284.15625 278.097656 277.621094 275.699219 C 278.304688 277.230469 279.039062 278.734375 279.90625 280.175781 C 282.261719 284.09375 285.394531 287.609375 289.289062 290.011719 C 293.089844 292.359375 297.546875 293.59375 302.011719 293.660156 C 306.480469 293.734375 310.941406 292.648438 314.933594 290.652344 C 322.726562 286.757812 328.503906 279.53125 331.929688 271.527344 C 335.347656 263.527344 336.59375 254.757812 337.035156 246.070312 C 338.265625 221.457031 332.957031 196.148438 319.546875 175.460938 C 310.046875 160.804688 296.398438 148.589844 280.144531 142.164062 C 272.417969 139.105469 264.117188 137.375 255.820312 137.511719 " fill-opacity="1" fill-rule="nonzero"/><path fill="#433f40" d="M 203.992188 277.382812 C 205.898438 282.980469 205.367188 289.402344 202.453125 294.558594 C 200.726562 297.609375 198.238281 300.199219 195.3125 302.125 C 192.507812 303.972656 189.296875 305.179688 185.984375 305.699219 C 187.78125 306.703125 189.757812 307.398438 191.800781 307.675781 C 195.089844 308.117188 198.472656 307.5 201.523438 306.195312 C 206.078125 304.246094 209.972656 300.71875 212.210938 296.300781 C 213.398438 293.960938 214.125 291.359375 214.074219 288.738281 C 214.015625 286.117188 213.152344 283.480469 211.441406 281.492188 C 209.5625 279.304688 206.808594 278.027344 203.992188 277.382812 " fill-opacity="1" fill-rule="nonzero"/><g fill="#ffffff" fill-opacity="1"><g transform="translate(121.477412, 105.48071)"><g><path d="M 55.484375 -11.1875 L 55.484375 0 L 10 0 L 6.453125 -8.8125 L 29.453125 -34.734375 C 32.398438 -38.023438 35.085938 -41.316406 37.515625 -44.609375 C 39.953125 -47.910156 41.171875 -51.28125 41.171875 -54.71875 C 41.171875 -58.300781 40.128906 -61.003906 38.046875 -62.828125 C 35.972656 -64.660156 33.253906 -65.578125 29.890625 -65.578125 C 28.242188 -65.578125 26.414062 -65.078125 24.40625 -64.078125 C 22.394531 -63.078125 20.492188 -61.5 18.703125 -59.34375 C 16.910156 -57.195312 15.476562 -54.367188 14.40625 -50.859375 L 5.484375 -56.453125 C 7.421875 -63.109375 10.769531 -68.085938 15.53125 -71.390625 C 20.300781 -74.691406 25.550781 -76.34375 31.28125 -76.34375 C 35.375 -76.34375 39.066406 -75.5 42.359375 -73.8125 C 45.660156 -72.125 48.273438 -69.738281 50.203125 -66.65625 C 52.140625 -63.570312 53.109375 -59.878906 53.109375 -55.578125 C 53.109375 -50.640625 51.617188 -45.75 48.640625 -40.90625 C 45.671875 -36.070312 42.035156 -31.289062 37.734375 -26.5625 L 23.65625 -11.1875 Z M 55.484375 -11.1875 "/></g></g></g><g fill="#ffffff" fill-opacity="1"><g transform="translate(180.39533, 105.48071)"><g><path d="M 37.84375 0 L 37.84375 -20.421875 L 8.171875 -20.421875 L 3.21875 -30.109375 L 40.109375 -75.265625 L 49.03125 -75.265625 L 49.03125 -31.078125 L 62.140625 -31.078125 L 62.140625 -20.421875 L 49.03125 -20.421875 L 49.03125 0 Z M 16.875 -31.078125 L 37.84375 -31.078125 L 37.84375 -56.65625 Z M 16.875 -31.078125 "/></g></g></g></svg>