<svg xmlns="http://www.w3.org/2000/svg" xmlns:xlink="http://www.w3.org/1999/xlink" width="500" zoomAndPan="magnify" viewBox="0 0 375 374.999991" height="500" preserveAspectRatio="xMidYMid meet" version="1.0"><defs><g/><clipPath id="1bdf09dce0"><path d="M 6.570312 0 L 369.714844 0 L 369.714844 375 L 6.570312 375 Z M 6.570312 0 " clip-rule="nonzero"/></clipPath><clipPath id="34d49d3a89"><path d="M 20.820312 0 L 355.464844 0 C 359.242188 0 362.867188 1.5 365.539062 4.171875 C 368.210938 6.847656 369.714844 10.46875 369.714844 14.25 L 369.714844 360.75 C 369.714844 364.527344 368.210938 368.152344 365.539062 370.828125 C 362.867188 373.5 359.242188 375 355.464844 375 L 20.820312 375 C 17.039062 375 13.414062 373.5 10.742188 370.828125 C 8.070312 368.152344 6.570312 364.527344 6.570312 360.75 L 6.570312 14.25 C 6.570312 10.46875 8.070312 6.847656 10.742188 4.171875 C 13.414062 1.5 17.039062 0 20.820312 0 Z M 20.820312 0 " clip-rule="nonzero"/></clipPath><clipPath id="1c3dea151f"><path d="M 94.710938 131.875 L 287.460938 131.875 L 287.460938 369.625 L 94.710938 369.625 Z M 94.710938 131.875 " clip-rule="nonzero"/></clipPath></defs><g clip-path="url(#1bdf09dce0)"><g clip-path="url(#34d49d3a89)"><path fill="#d103d1" d="M 6.570312 0 L 369.714844 0 L 369.714844 374.492188 L 6.570312 374.492188 Z M 6.570312 0 " fill-opacity="1" fill-rule="nonzero"/></g></g><g clip-path="url(#1c3dea151f)"><path fill="#f4ead2" d="M 233.738281 279.089844 L 233.738281 232.523438 L 191.144531 195.789062 L 148.546875 232.523438 L 148.546875 279.089844 L 148.019531 279.089844 L 116.09375 307.535156 L 116.09375 369.847656 L 169.753906 369.847656 L 169.753906 331.621094 C 169.757812 330.921875 169.792969 330.226562 169.863281 329.53125 C 169.9375 328.835938 170.039062 328.148438 170.179688 327.460938 C 170.320312 326.777344 170.492188 326.101562 170.695312 325.433594 C 170.902344 324.765625 171.136719 324.109375 171.40625 323.464844 C 171.675781 322.820312 171.976562 322.191406 172.308594 321.574219 C 172.640625 320.960938 173 320.363281 173.390625 319.78125 C 173.777344 319.203125 174.195312 318.644531 174.640625 318.105469 C 175.085938 317.566406 175.554688 317.050781 176.050781 316.558594 C 176.546875 316.0625 177.0625 315.597656 177.605469 315.152344 C 178.144531 314.710938 178.707031 314.296875 179.289062 313.910156 C 179.867188 313.523438 180.46875 313.164062 181.085938 312.835938 C 181.699219 312.507812 182.332031 312.210938 182.976562 311.945312 C 183.625 311.675781 184.28125 311.441406 184.949219 311.242188 C 185.617188 311.039062 186.296875 310.871094 186.980469 310.734375 C 187.664062 310.597656 188.355469 310.496094 189.050781 310.425781 C 189.746094 310.359375 190.445312 310.324219 191.140625 310.324219 C 191.839844 310.324219 192.539062 310.359375 193.234375 310.425781 C 193.929688 310.496094 194.617188 310.597656 195.304688 310.734375 C 195.988281 310.871094 196.664062 311.039062 197.335938 311.242188 C 198.003906 311.441406 198.660156 311.675781 199.304688 311.945312 C 199.953125 312.210938 200.582031 312.507812 201.199219 312.835938 C 201.816406 313.164062 202.414062 313.523438 202.996094 313.910156 C 203.578125 314.296875 204.140625 314.710938 204.679688 315.152344 C 205.222656 315.597656 205.738281 316.0625 206.234375 316.558594 C 206.730469 317.050781 207.199219 317.566406 207.644531 318.105469 C 208.089844 318.644531 208.503906 319.203125 208.894531 319.78125 C 209.285156 320.363281 209.644531 320.960938 209.976562 321.574219 C 210.308594 322.191406 210.609375 322.820312 210.875 323.464844 C 211.144531 324.109375 211.382812 324.765625 211.589844 325.433594 C 211.792969 326.101562 211.964844 326.777344 212.105469 327.460938 C 212.242188 328.148438 212.347656 328.835938 212.417969 329.53125 C 212.492188 330.226562 212.527344 330.921875 212.53125 331.621094 L 212.53125 369.847656 L 266.191406 369.847656 L 266.191406 307.53125 L 234.265625 279.089844 Z M 191.144531 260.921875 C 190.351562 260.921875 189.566406 260.84375 188.785156 260.691406 C 188.007812 260.535156 187.253906 260.304688 186.519531 260.003906 C 185.789062 259.699219 185.089844 259.328125 184.433594 258.886719 C 183.773438 258.445312 183.164062 257.945312 182.601562 257.382812 C 182.039062 256.824219 181.539062 256.214844 181.101562 255.554688 C 180.660156 254.894531 180.285156 254.199219 179.984375 253.464844 C 179.679688 252.734375 179.449219 251.976562 179.296875 251.199219 C 179.140625 250.421875 179.0625 249.636719 179.0625 248.84375 C 179.0625 248.050781 179.140625 247.265625 179.296875 246.488281 C 179.449219 245.707031 179.679688 244.953125 179.984375 244.21875 C 180.285156 243.488281 180.660156 242.792969 181.097656 242.132812 C 181.539062 241.472656 182.039062 240.863281 182.601562 240.300781 C 183.164062 239.742188 183.773438 239.242188 184.433594 238.800781 C 185.089844 238.359375 185.789062 237.988281 186.519531 237.683594 C 187.253906 237.378906 188.007812 237.152344 188.785156 236.996094 C 189.5625 236.839844 190.347656 236.765625 191.144531 236.765625 C 191.9375 236.765625 192.722656 236.839844 193.5 236.996094 C 194.277344 237.152344 195.03125 237.378906 195.765625 237.683594 C 196.496094 237.988281 197.195312 238.359375 197.851562 238.800781 C 198.511719 239.238281 199.121094 239.742188 199.683594 240.300781 C 200.246094 240.863281 200.746094 241.472656 201.1875 242.132812 C 201.625 242.792969 202 243.488281 202.300781 244.21875 C 202.605469 244.953125 202.835938 245.707031 202.988281 246.484375 C 203.144531 247.265625 203.222656 248.050781 203.222656 248.84375 C 203.222656 249.636719 203.144531 250.421875 202.988281 251.199219 C 202.832031 251.976562 202.601562 252.730469 202.296875 253.464844 C 201.996094 254.195312 201.621094 254.890625 201.183594 255.550781 C 200.742188 256.210938 200.242188 256.820312 199.679688 257.378906 C 199.121094 257.941406 198.507812 258.441406 197.851562 258.882812 C 197.191406 259.324219 196.496094 259.695312 195.761719 260 C 195.03125 260.300781 194.277344 260.53125 193.5 260.6875 C 192.722656 260.84375 191.9375 260.921875 191.144531 260.921875 Z M 185.972656 176.488281 L 185.972656 157 L 171.292969 157 L 171.292969 146.660156 L 185.972656 146.660156 L 185.972656 131.980469 L 196.3125 131.980469 L 196.3125 146.660156 L 210.992188 146.660156 L 210.992188 157 L 196.3125 157 L 196.3125 176.488281 L 258.492188 230.109375 L 250.617188 239.238281 L 191.140625 187.949219 L 131.667969 239.238281 L 123.796875 230.109375 Z M 141.59375 274.394531 L 102.730469 309.019531 L 94.710938 300.023438 L 141.59375 258.25 Z M 287.574219 300.023438 L 279.554688 309.019531 L 240.6875 274.394531 L 240.6875 258.25 Z M 287.574219 300.023438 " fill-opacity="1" fill-rule="nonzero"/></g><g fill="#ffffff" fill-opacity="1"><g transform="translate(124.282703, 105.48071)"><g><path d="M 55.484375 -11.1875 L 55.484375 0 L 10 0 L 6.453125 -8.8125 L 29.453125 -34.734375 C 32.398438 -38.023438 35.085938 -41.316406 37.515625 -44.609375 C 39.953125 -47.910156 41.171875 -51.28125 41.171875 -54.71875 C 41.171875 -58.300781 40.128906 -61.003906 38.046875 -62.828125 C 35.972656 -64.660156 33.253906 -65.578125 29.890625 -65.578125 C 28.242188 -65.578125 26.414062 -65.078125 24.40625 -64.078125 C 22.394531 -63.078125 20.492188 -61.5 18.703125 -59.34375 C 16.910156 -57.195312 15.476562 -54.367188 14.40625 -50.859375 L 5.484375 -56.453125 C 7.421875 -63.109375 10.769531 -68.085938 15.53125 -71.390625 C 20.300781 -74.691406 25.550781 -76.34375 31.28125 -76.34375 C 35.375 -76.34375 39.066406 -75.5 42.359375 -73.8125 C 45.660156 -72.125 48.273438 -69.738281 50.203125 -66.65625 C 52.140625 -63.570312 53.109375 -59.878906 53.109375 -55.578125 C 53.109375 -50.640625 51.617188 -45.75 48.640625 -40.90625 C 45.671875 -36.070312 42.035156 -31.289062 37.734375 -26.5625 L 23.65625 -11.1875 Z M 55.484375 -11.1875 "/></g></g></g><g fill="#ffffff" fill-opacity="1"><g transform="translate(183.200622, 105.48071)"><g><path d="M 27.625 0.75 C 22.175781 0.75 17.5 -0.503906 13.59375 -3.015625 C 9.6875 -5.523438 6.550781 -8.640625 4.1875 -12.359375 L 10.640625 -19.5625 C 13.222656 -16.695312 15.785156 -14.367188 18.328125 -12.578125 C 20.867188 -10.785156 23.96875 -9.890625 27.625 -9.890625 C 30.632812 -9.890625 33.320312 -10.550781 35.6875 -11.875 C 38.0625 -13.207031 39.925781 -14.984375 41.28125 -17.203125 C 42.644531 -19.421875 43.328125 -21.859375 43.328125 -24.515625 C 43.328125 -27.453125 42.660156 -30.046875 41.328125 -32.296875 C 40.003906 -34.554688 38.210938 -36.332031 35.953125 -37.625 C 33.703125 -38.914062 31.210938 -39.5625 28.484375 -39.5625 C 24.835938 -39.5625 21.773438 -38.988281 19.296875 -37.84375 C 16.828125 -36.695312 14.875 -35.765625 13.4375 -35.046875 L 7.3125 -43.328125 L 11.71875 -75.265625 L 52.359375 -75.265625 L 52.359375 -64.515625 L 20.96875 -64.515625 L 18.5 -47.84375 C 20.144531 -48.5625 22.039062 -49.148438 24.1875 -49.609375 C 26.34375 -50.078125 28.457031 -50.3125 30.53125 -50.3125 C 34.90625 -50.3125 38.898438 -49.304688 42.515625 -47.296875 C 46.140625 -45.296875 49.0625 -42.445312 51.28125 -38.75 C 53.507812 -35.0625 54.625 -30.675781 54.625 -25.59375 C 54.625 -20.570312 53.421875 -16.070312 51.015625 -12.09375 C 48.617188 -8.113281 45.394531 -4.976562 41.34375 -2.6875 C 37.289062 -0.394531 32.71875 0.75 27.625 0.75 Z M 27.625 0.75 "/></g></g></g></svg>