<svg xmlns="http://www.w3.org/2000/svg" xmlns:xlink="http://www.w3.org/1999/xlink" width="500" zoomAndPan="magnify" viewBox="0 0 375 374.999991" height="500" preserveAspectRatio="xMidYMid meet" version="1.0"><defs><g/><clipPath id="487f323f66"><path d="M 6.964844 0 L 369.3125 0 L 369.3125 374 L 6.964844 374 Z M 6.964844 0 " clip-rule="nonzero"/></clipPath><clipPath id="27befaf27b"><path d="M 21.214844 0 L 355.0625 0 C 362.933594 0 369.3125 6.378906 369.3125 14.25 L 369.3125 359.925781 C 369.3125 367.796875 362.933594 374.175781 355.0625 374.175781 L 21.214844 374.175781 C 13.34375 374.175781 6.964844 367.796875 6.964844 359.925781 L 6.964844 14.25 C 6.964844 6.378906 13.34375 0 21.214844 0 Z M 21.214844 0 " clip-rule="nonzero"/></clipPath><clipPath id="fbbe863d26"><path d="M 87 134 L 307 134 L 307 357 L 87 357 Z M 87 134 " clip-rule="nonzero"/></clipPath><clipPath id="3798ab3840"><path d="M 146.628906 99.0625 L 313.273438 146.449219 L 243.941406 390.28125 L 77.296875 342.898438 Z M 146.628906 99.0625 " clip-rule="nonzero"/></clipPath><clipPath id="2f76ee07e2"><path d="M 146.628906 99.0625 L 313.273438 146.449219 L 243.941406 390.28125 L 77.296875 342.898438 Z M 146.628906 99.0625 " clip-rule="nonzero"/></clipPath><clipPath id="4e984544d1"><path d="M 146.628906 99.0625 L 313.273438 146.449219 L 243.941406 390.28125 L 77.296875 342.898438 Z M 146.628906 99.0625 " clip-rule="nonzero"/></clipPath><clipPath id="b98ef9a760"><path d="M 86 134 L 308 134 L 308 358 L 86 358 Z M 86 134 " clip-rule="nonzero"/></clipPath><clipPath id="d1213f5896"><path d="M 146.628906 99.0625 L 313.273438 146.449219 L 243.941406 390.28125 L 77.296875 342.898438 Z M 146.628906 99.0625 " clip-rule="nonzero"/></clipPath><clipPath id="0b908847b1"><path d="M 146.628906 99.0625 L 313.273438 146.449219 L 243.941406 390.28125 L 77.296875 342.898438 Z M 146.628906 99.0625 " clip-rule="nonzero"/></clipPath><clipPath id="4e94d12013"><path d="M 146.628906 99.0625 L 313.273438 146.449219 L 243.941406 390.28125 L 77.296875 342.898438 Z M 146.628906 99.0625 " clip-rule="nonzero"/></clipPath><clipPath id="3ea6ded110"><path d="M 127 180 L 144 180 L 144 228 L 127 228 Z M 127 180 " clip-rule="nonzero"/></clipPath><clipPath id="f94c9d4ef8"><path d="M 146.628906 99.0625 L 313.273438 146.449219 L 243.941406 390.28125 L 77.296875 342.898438 Z M 146.628906 99.0625 " clip-rule="nonzero"/></clipPath><clipPath id="3ba470c14e"><path d="M 146.628906 99.0625 L 313.273438 146.449219 L 243.941406 390.28125 L 77.296875 342.898438 Z M 146.628906 99.0625 " clip-rule="nonzero"/></clipPath><clipPath id="92c5144b5b"><path d="M 146.628906 99.0625 L 313.273438 146.449219 L 243.941406 390.28125 L 77.296875 342.898438 Z M 146.628906 99.0625 " clip-rule="nonzero"/></clipPath><clipPath id="7df468c7db"><path d="M 126 179 L 145 179 L 145 229 L 126 229 Z M 126 179 " clip-rule="nonzero"/></clipPath><clipPath id="bcee2fddad"><path d="M 146.628906 99.0625 L 313.273438 146.449219 L 243.941406 390.28125 L 77.296875 342.898438 Z M 146.628906 99.0625 " clip-rule="nonzero"/></clipPath><clipPath id="a5dfec9146"><path d="M 146.628906 99.0625 L 313.273438 146.449219 L 243.941406 390.28125 L 77.296875 342.898438 Z M 146.628906 99.0625 " clip-rule="nonzero"/></clipPath><clipPath id="1c6d7b9ff1"><path d="M 146.628906 99.0625 L 313.273438 146.449219 L 243.941406 390.28125 L 77.296875 342.898438 Z M 146.628906 99.0625 " clip-rule="nonzero"/></clipPath><clipPath id="0e0ec698af"><path d="M 136 198 L 161 198 L 161 228 L 136 228 Z M 136 198 " clip-rule="nonzero"/></clipPath><clipPath id="8ec6d6786f"><path d="M 146.628906 99.0625 L 313.273438 146.449219 L 243.941406 390.28125 L 77.296875 342.898438 Z M 146.628906 99.0625 " clip-rule="nonzero"/></clipPath><clipPath id="39731fa2d3"><path d="M 146.628906 99.0625 L 313.273438 146.449219 L 243.941406 390.28125 L 77.296875 342.898438 Z M 146.628906 99.0625 " clip-rule="nonzero"/></clipPath><clipPath id="f49e7bf244"><path d="M 146.628906 99.0625 L 313.273438 146.449219 L 243.941406 390.28125 L 77.296875 342.898438 Z M 146.628906 99.0625 " clip-rule="nonzero"/></clipPath><clipPath id="5ed4379fd3"><path d="M 135 198 L 161 198 L 161 229 L 135 229 Z M 135 198 " clip-rule="nonzero"/></clipPath><clipPath id="a38b70caa6"><path d="M 146.628906 99.0625 L 313.273438 146.449219 L 243.941406 390.28125 L 77.296875 342.898438 Z M 146.628906 99.0625 " clip-rule="nonzero"/></clipPath><clipPath id="236909fd0a"><path d="M 146.628906 99.0625 L 313.273438 146.449219 L 243.941406 390.28125 L 77.296875 342.898438 Z M 146.628906 99.0625 " clip-rule="nonzero"/></clipPath><clipPath id="e3171dd06c"><path d="M 146.628906 99.0625 L 313.273438 146.449219 L 243.941406 390.28125 L 77.296875 342.898438 Z M 146.628906 99.0625 " clip-rule="nonzero"/></clipPath><clipPath id="ed1632d9f7"><path d="M 134 168 L 266 168 L 266 212 L 134 212 Z M 134 168 " clip-rule="nonzero"/></clipPath><clipPath id="d511ac4676"><path d="M 146.628906 99.0625 L 313.273438 146.449219 L 243.941406 390.28125 L 77.296875 342.898438 Z M 146.628906 99.0625 " clip-rule="nonzero"/></clipPath><clipPath id="73f23b47db"><path d="M 146.628906 99.0625 L 313.273438 146.449219 L 243.941406 390.28125 L 77.296875 342.898438 Z M 146.628906 99.0625 " clip-rule="nonzero"/></clipPath><clipPath id="1eb7a11f7c"><path d="M 146.628906 99.0625 L 313.273438 146.449219 L 243.941406 390.28125 L 77.296875 342.898438 Z M 146.628906 99.0625 " clip-rule="nonzero"/></clipPath><clipPath id="e0d2b19ddf"><path d="M 133 167 L 266 167 L 266 213 L 133 213 Z M 133 167 " clip-rule="nonzero"/></clipPath><clipPath id="952319fadc"><path d="M 146.628906 99.0625 L 313.273438 146.449219 L 243.941406 390.28125 L 77.296875 342.898438 Z M 146.628906 99.0625 " clip-rule="nonzero"/></clipPath><clipPath id="8c69f42ab5"><path d="M 146.628906 99.0625 L 313.273438 146.449219 L 243.941406 390.28125 L 77.296875 342.898438 Z M 146.628906 99.0625 " clip-rule="nonzero"/></clipPath><clipPath id="10129bd0b2"><path d="M 146.628906 99.0625 L 313.273438 146.449219 L 243.941406 390.28125 L 77.296875 342.898438 Z M 146.628906 99.0625 " clip-rule="nonzero"/></clipPath><clipPath id="eaa626bb26"><path d="M 299 165 L 306 165 L 306 174 L 299 174 Z M 299 165 " clip-rule="nonzero"/></clipPath><clipPath id="f4a75b9d5c"><path d="M 146.628906 99.0625 L 313.273438 146.449219 L 243.941406 390.28125 L 77.296875 342.898438 Z M 146.628906 99.0625 " clip-rule="nonzero"/></clipPath><clipPath id="0b41389d23"><path d="M 146.628906 99.0625 L 313.273438 146.449219 L 243.941406 390.28125 L 77.296875 342.898438 Z M 146.628906 99.0625 " clip-rule="nonzero"/></clipPath><clipPath id="0028823d98"><path d="M 146.628906 99.0625 L 313.273438 146.449219 L 243.941406 390.28125 L 77.296875 342.898438 Z M 146.628906 99.0625 " clip-rule="nonzero"/></clipPath><clipPath id="e9b6fa3cf8"><path d="M 298 164 L 306 164 L 306 175 L 298 175 Z M 298 164 " clip-rule="nonzero"/></clipPath><clipPath id="c87c5fa943"><path d="M 146.628906 99.0625 L 313.273438 146.449219 L 243.941406 390.28125 L 77.296875 342.898438 Z M 146.628906 99.0625 " clip-rule="nonzero"/></clipPath><clipPath id="18d9e7b7f4"><path d="M 146.628906 99.0625 L 313.273438 146.449219 L 243.941406 390.28125 L 77.296875 342.898438 Z M 146.628906 99.0625 " clip-rule="nonzero"/></clipPath><clipPath id="20fd019a5d"><path d="M 146.628906 99.0625 L 313.273438 146.449219 L 243.941406 390.28125 L 77.296875 342.898438 Z M 146.628906 99.0625 " clip-rule="nonzero"/></clipPath><clipPath id="f0987e510b"><path d="M 231 136 L 304 136 L 304 188 L 231 188 Z M 231 136 " clip-rule="nonzero"/></clipPath><clipPath id="82d2201ac5"><path d="M 146.628906 99.0625 L 313.273438 146.449219 L 243.941406 390.28125 L 77.296875 342.898438 Z M 146.628906 99.0625 " clip-rule="nonzero"/></clipPath><clipPath id="bb050d2c81"><path d="M 146.628906 99.0625 L 313.273438 146.449219 L 243.941406 390.28125 L 77.296875 342.898438 Z M 146.628906 99.0625 " clip-rule="nonzero"/></clipPath><clipPath id="a5c13f6d5b"><path d="M 146.628906 99.0625 L 313.273438 146.449219 L 243.941406 390.28125 L 77.296875 342.898438 Z M 146.628906 99.0625 " clip-rule="nonzero"/></clipPath><clipPath id="329865c858"><path d="M 230 135 L 304 135 L 304 189 L 230 189 Z M 230 135 " clip-rule="nonzero"/></clipPath><clipPath id="866adadbde"><path d="M 146.628906 99.0625 L 313.273438 146.449219 L 243.941406 390.28125 L 77.296875 342.898438 Z M 146.628906 99.0625 " clip-rule="nonzero"/></clipPath><clipPath id="67733e7fd6"><path d="M 146.628906 99.0625 L 313.273438 146.449219 L 243.941406 390.28125 L 77.296875 342.898438 Z M 146.628906 99.0625 " clip-rule="nonzero"/></clipPath><clipPath id="67ac693c2c"><path d="M 146.628906 99.0625 L 313.273438 146.449219 L 243.941406 390.28125 L 77.296875 342.898438 Z M 146.628906 99.0625 " clip-rule="nonzero"/></clipPath><clipPath id="bb83872141"><path d="M 126 207 L 267 207 L 267 353 L 126 353 Z M 126 207 " clip-rule="nonzero"/></clipPath><clipPath id="48a9524fe7"><path d="M 146.628906 99.0625 L 313.273438 146.449219 L 243.941406 390.28125 L 77.296875 342.898438 Z M 146.628906 99.0625 " clip-rule="nonzero"/></clipPath><clipPath id="3467721868"><path d="M 146.628906 99.0625 L 313.273438 146.449219 L 243.941406 390.28125 L 77.296875 342.898438 Z M 146.628906 99.0625 " clip-rule="nonzero"/></clipPath><clipPath id="bd200c2edc"><path d="M 146.628906 99.0625 L 313.273438 146.449219 L 243.941406 390.28125 L 77.296875 342.898438 Z M 146.628906 99.0625 " clip-rule="nonzero"/></clipPath><clipPath id="fdc814ca68"><path d="M 126 206 L 268 206 L 268 353 L 126 353 Z M 126 206 " clip-rule="nonzero"/></clipPath><clipPath id="1dc8e7c96a"><path d="M 146.628906 99.0625 L 313.273438 146.449219 L 243.941406 390.28125 L 77.296875 342.898438 Z M 146.628906 99.0625 " clip-rule="nonzero"/></clipPath><clipPath id="49f26baab9"><path d="M 146.628906 99.0625 L 313.273438 146.449219 L 243.941406 390.28125 L 77.296875 342.898438 Z M 146.628906 99.0625 " clip-rule="nonzero"/></clipPath><clipPath id="aab769ed14"><path d="M 146.628906 99.0625 L 313.273438 146.449219 L 243.941406 390.28125 L 77.296875 342.898438 Z M 146.628906 99.0625 " clip-rule="nonzero"/></clipPath><clipPath id="9195a2b87e"><path d="M 90 189 L 160 189 L 160 351 L 90 351 Z M 90 189 " clip-rule="nonzero"/></clipPath><clipPath id="827acd369f"><path d="M 146.628906 99.0625 L 313.273438 146.449219 L 243.941406 390.28125 L 77.296875 342.898438 Z M 146.628906 99.0625 " clip-rule="nonzero"/></clipPath><clipPath id="dc7329deea"><path d="M 146.628906 99.0625 L 313.273438 146.449219 L 243.941406 390.28125 L 77.296875 342.898438 Z M 146.628906 99.0625 " clip-rule="nonzero"/></clipPath><clipPath id="88b3f78309"><path d="M 146.628906 99.0625 L 313.273438 146.449219 L 243.941406 390.28125 L 77.296875 342.898438 Z M 146.628906 99.0625 " clip-rule="nonzero"/></clipPath><clipPath id="a98879c250"><path d="M 90 189 L 161 189 L 161 352 L 90 352 Z M 90 189 " clip-rule="nonzero"/></clipPath><clipPath id="034562d265"><path d="M 146.628906 99.0625 L 313.273438 146.449219 L 243.941406 390.28125 L 77.296875 342.898438 Z M 146.628906 99.0625 " clip-rule="nonzero"/></clipPath><clipPath id="5a78df772b"><path d="M 146.628906 99.0625 L 313.273438 146.449219 L 243.941406 390.28125 L 77.296875 342.898438 Z M 146.628906 99.0625 " clip-rule="nonzero"/></clipPath><clipPath id="a961ba03cf"><path d="M 146.628906 99.0625 L 313.273438 146.449219 L 243.941406 390.28125 L 77.296875 342.898438 Z M 146.628906 99.0625 " clip-rule="nonzero"/></clipPath><clipPath id="7daf9df6d1"><path d="M 153 230 L 244 230 L 244 337 L 153 337 Z M 153 230 " clip-rule="nonzero"/></clipPath><clipPath id="beca73beec"><path d="M 146.628906 99.0625 L 313.273438 146.449219 L 243.941406 390.28125 L 77.296875 342.898438 Z M 146.628906 99.0625 " clip-rule="nonzero"/></clipPath><clipPath id="a6bf061376"><path d="M 146.628906 99.0625 L 313.273438 146.449219 L 243.941406 390.28125 L 77.296875 342.898438 Z M 146.628906 99.0625 " clip-rule="nonzero"/></clipPath><clipPath id="6dc03ba51e"><path d="M 146.628906 99.0625 L 313.273438 146.449219 L 243.941406 390.28125 L 77.296875 342.898438 Z M 146.628906 99.0625 " clip-rule="nonzero"/></clipPath><clipPath id="e0b86d9b93"><path d="M 159 235 L 242 235 L 242 336 L 159 336 Z M 159 235 " clip-rule="nonzero"/></clipPath><clipPath id="aae5a7f476"><path d="M 146.628906 99.0625 L 313.273438 146.449219 L 243.941406 390.28125 L 77.296875 342.898438 Z M 146.628906 99.0625 " clip-rule="nonzero"/></clipPath><clipPath id="d3fd05a01a"><path d="M 146.628906 99.0625 L 313.273438 146.449219 L 243.941406 390.28125 L 77.296875 342.898438 Z M 146.628906 99.0625 " clip-rule="nonzero"/></clipPath><clipPath id="eb76ab0a41"><path d="M 146.628906 99.0625 L 313.273438 146.449219 L 243.941406 390.28125 L 77.296875 342.898438 Z M 146.628906 99.0625 " clip-rule="nonzero"/></clipPath><clipPath id="65b0500b01"><path d="M 201 239 L 229 239 L 229 280 L 201 280 Z M 201 239 " clip-rule="nonzero"/></clipPath><clipPath id="7a71e28911"><path d="M 146.628906 99.0625 L 313.273438 146.449219 L 243.941406 390.28125 L 77.296875 342.898438 Z M 146.628906 99.0625 " clip-rule="nonzero"/></clipPath><clipPath id="48f39551a2"><path d="M 146.628906 99.0625 L 313.273438 146.449219 L 243.941406 390.28125 L 77.296875 342.898438 Z M 146.628906 99.0625 " clip-rule="nonzero"/></clipPath><clipPath id="06a0a9b149"><path d="M 146.628906 99.0625 L 313.273438 146.449219 L 243.941406 390.28125 L 77.296875 342.898438 Z M 146.628906 99.0625 " clip-rule="nonzero"/></clipPath><clipPath id="116a6ed1ba"><path d="M 203 247 L 238 247 L 238 282 L 203 282 Z M 203 247 " clip-rule="nonzero"/></clipPath><clipPath id="dbff1fad3e"><path d="M 146.628906 99.0625 L 313.273438 146.449219 L 243.941406 390.28125 L 77.296875 342.898438 Z M 146.628906 99.0625 " clip-rule="nonzero"/></clipPath><clipPath id="e67cb21a6d"><path d="M 146.628906 99.0625 L 313.273438 146.449219 L 243.941406 390.28125 L 77.296875 342.898438 Z M 146.628906 99.0625 " clip-rule="nonzero"/></clipPath><clipPath id="2732f67c03"><path d="M 146.628906 99.0625 L 313.273438 146.449219 L 243.941406 390.28125 L 77.296875 342.898438 Z M 146.628906 99.0625 " clip-rule="nonzero"/></clipPath><clipPath id="a7ddfd0a43"><path d="M 205 273 L 237 273 L 237 296 L 205 296 Z M 205 273 " clip-rule="nonzero"/></clipPath><clipPath id="7655d8585e"><path d="M 146.628906 99.0625 L 313.273438 146.449219 L 243.941406 390.28125 L 77.296875 342.898438 Z M 146.628906 99.0625 " clip-rule="nonzero"/></clipPath><clipPath id="9396adfd41"><path d="M 146.628906 99.0625 L 313.273438 146.449219 L 243.941406 390.28125 L 77.296875 342.898438 Z M 146.628906 99.0625 " clip-rule="nonzero"/></clipPath><clipPath id="7a7b959908"><path d="M 146.628906 99.0625 L 313.273438 146.449219 L 243.941406 390.28125 L 77.296875 342.898438 Z M 146.628906 99.0625 " clip-rule="nonzero"/></clipPath><clipPath id="6a0550ab2f"><path d="M 202 288 L 223 288 L 223 318 L 202 318 Z M 202 288 " clip-rule="nonzero"/></clipPath><clipPath id="51e8ea8fa8"><path d="M 146.628906 99.0625 L 313.273438 146.449219 L 243.941406 390.28125 L 77.296875 342.898438 Z M 146.628906 99.0625 " clip-rule="nonzero"/></clipPath><clipPath id="4141c54150"><path d="M 146.628906 99.0625 L 313.273438 146.449219 L 243.941406 390.28125 L 77.296875 342.898438 Z M 146.628906 99.0625 " clip-rule="nonzero"/></clipPath><clipPath id="d2b9f4d35b"><path d="M 146.628906 99.0625 L 313.273438 146.449219 L 243.941406 390.28125 L 77.296875 342.898438 Z M 146.628906 99.0625 " clip-rule="nonzero"/></clipPath><clipPath id="b9a374635e"><path d="M 190 289 L 207 289 L 207 328 L 190 328 Z M 190 289 " clip-rule="nonzero"/></clipPath><clipPath id="27b1fb9ae6"><path d="M 146.628906 99.0625 L 313.273438 146.449219 L 243.941406 390.28125 L 77.296875 342.898438 Z M 146.628906 99.0625 " clip-rule="nonzero"/></clipPath><clipPath id="5dc4e4a2b1"><path d="M 146.628906 99.0625 L 313.273438 146.449219 L 243.941406 390.28125 L 77.296875 342.898438 Z M 146.628906 99.0625 " clip-rule="nonzero"/></clipPath><clipPath id="7db0a13e77"><path d="M 146.628906 99.0625 L 313.273438 146.449219 L 243.941406 390.28125 L 77.296875 342.898438 Z M 146.628906 99.0625 " clip-rule="nonzero"/></clipPath><clipPath id="ed5e5b0ae8"><path d="M 187 244 L 203 244 L 203 279 L 187 279 Z M 187 244 " clip-rule="nonzero"/></clipPath><clipPath id="27ffa6350b"><path d="M 146.628906 99.0625 L 313.273438 146.449219 L 243.941406 390.28125 L 77.296875 342.898438 Z M 146.628906 99.0625 " clip-rule="nonzero"/></clipPath><clipPath id="d71f8a85e8"><path d="M 146.628906 99.0625 L 313.273438 146.449219 L 243.941406 390.28125 L 77.296875 342.898438 Z M 146.628906 99.0625 " clip-rule="nonzero"/></clipPath><clipPath id="62983dc718"><path d="M 146.628906 99.0625 L 313.273438 146.449219 L 243.941406 390.28125 L 77.296875 342.898438 Z M 146.628906 99.0625 " clip-rule="nonzero"/></clipPath><clipPath id="497b79f6df"><path d="M 164 258 L 195 258 L 195 292 L 164 292 Z M 164 258 " clip-rule="nonzero"/></clipPath><clipPath id="1cd84fe3c5"><path d="M 146.628906 99.0625 L 313.273438 146.449219 L 243.941406 390.28125 L 77.296875 342.898438 Z M 146.628906 99.0625 " clip-rule="nonzero"/></clipPath><clipPath id="50bb2866e2"><path d="M 146.628906 99.0625 L 313.273438 146.449219 L 243.941406 390.28125 L 77.296875 342.898438 Z M 146.628906 99.0625 " clip-rule="nonzero"/></clipPath><clipPath id="0d0ecf2e4e"><path d="M 146.628906 99.0625 L 313.273438 146.449219 L 243.941406 390.28125 L 77.296875 342.898438 Z M 146.628906 99.0625 " clip-rule="nonzero"/></clipPath><clipPath id="bebef9e268"><path d="M 161 287 L 196 287 L 196 322 L 161 322 Z M 161 287 " clip-rule="nonzero"/></clipPath><clipPath id="b79695d790"><path d="M 146.628906 99.0625 L 313.273438 146.449219 L 243.941406 390.28125 L 77.296875 342.898438 Z M 146.628906 99.0625 " clip-rule="nonzero"/></clipPath><clipPath id="4cd90c08e7"><path d="M 146.628906 99.0625 L 313.273438 146.449219 L 243.941406 390.28125 L 77.296875 342.898438 Z M 146.628906 99.0625 " clip-rule="nonzero"/></clipPath><clipPath id="2b85bcfe84"><path d="M 146.628906 99.0625 L 313.273438 146.449219 L 243.941406 390.28125 L 77.296875 342.898438 Z M 146.628906 99.0625 " clip-rule="nonzero"/></clipPath><clipPath id="ba3c8c9081"><path d="M 173 290 L 198 290 L 198 328 L 173 328 Z M 173 290 " clip-rule="nonzero"/></clipPath><clipPath id="5287ffb001"><path d="M 146.628906 99.0625 L 313.273438 146.449219 L 243.941406 390.28125 L 77.296875 342.898438 Z M 146.628906 99.0625 " clip-rule="nonzero"/></clipPath><clipPath id="7a61ad5f54"><path d="M 146.628906 99.0625 L 313.273438 146.449219 L 243.941406 390.28125 L 77.296875 342.898438 Z M 146.628906 99.0625 " clip-rule="nonzero"/></clipPath><clipPath id="3f58cca65a"><path d="M 146.628906 99.0625 L 313.273438 146.449219 L 243.941406 390.28125 L 77.296875 342.898438 Z M 146.628906 99.0625 " clip-rule="nonzero"/></clipPath><clipPath id="2e7a7aab17"><path d="M 179 303 L 189 303 L 189 319 L 179 319 Z M 179 303 " clip-rule="nonzero"/></clipPath><clipPath id="8bf42de34d"><path d="M 146.628906 99.0625 L 313.273438 146.449219 L 243.941406 390.28125 L 77.296875 342.898438 Z M 146.628906 99.0625 " clip-rule="nonzero"/></clipPath><clipPath id="05bbe933bf"><path d="M 146.628906 99.0625 L 313.273438 146.449219 L 243.941406 390.28125 L 77.296875 342.898438 Z M 146.628906 99.0625 " clip-rule="nonzero"/></clipPath><clipPath id="aceafc98c2"><path d="M 146.628906 99.0625 L 313.273438 146.449219 L 243.941406 390.28125 L 77.296875 342.898438 Z M 146.628906 99.0625 " clip-rule="nonzero"/></clipPath><clipPath id="5380bf0c86"><path d="M 181 311 L 189 311 L 189 323 L 181 323 Z M 181 311 " clip-rule="nonzero"/></clipPath><clipPath id="873d23f958"><path d="M 146.628906 99.0625 L 313.273438 146.449219 L 243.941406 390.28125 L 77.296875 342.898438 Z M 146.628906 99.0625 " clip-rule="nonzero"/></clipPath><clipPath id="1296bd338a"><path d="M 146.628906 99.0625 L 313.273438 146.449219 L 243.941406 390.28125 L 77.296875 342.898438 Z M 146.628906 99.0625 " clip-rule="nonzero"/></clipPath><clipPath id="0fda22d31c"><path d="M 146.628906 99.0625 L 313.273438 146.449219 L 243.941406 390.28125 L 77.296875 342.898438 Z M 146.628906 99.0625 " clip-rule="nonzero"/></clipPath><clipPath id="45cbd4eb56"><path d="M 196 300 L 200 300 L 200 312 L 196 312 Z M 196 300 " clip-rule="nonzero"/></clipPath><clipPath id="da49bae56a"><path d="M 146.628906 99.0625 L 313.273438 146.449219 L 243.941406 390.28125 L 77.296875 342.898438 Z M 146.628906 99.0625 " clip-rule="nonzero"/></clipPath><clipPath id="f877d1775b"><path d="M 146.628906 99.0625 L 313.273438 146.449219 L 243.941406 390.28125 L 77.296875 342.898438 Z M 146.628906 99.0625 " clip-rule="nonzero"/></clipPath><clipPath id="27e1348eec"><path d="M 146.628906 99.0625 L 313.273438 146.449219 L 243.941406 390.28125 L 77.296875 342.898438 Z M 146.628906 99.0625 " clip-rule="nonzero"/></clipPath><clipPath id="d4bb935838"><path d="M 200 306 L 203 306 L 203 317 L 200 317 Z M 200 306 " clip-rule="nonzero"/></clipPath><clipPath id="0e50939985"><path d="M 146.628906 99.0625 L 313.273438 146.449219 L 243.941406 390.28125 L 77.296875 342.898438 Z M 146.628906 99.0625 " clip-rule="nonzero"/></clipPath><clipPath id="457c33dba2"><path d="M 146.628906 99.0625 L 313.273438 146.449219 L 243.941406 390.28125 L 77.296875 342.898438 Z M 146.628906 99.0625 " clip-rule="nonzero"/></clipPath><clipPath id="21541b3122"><path d="M 146.628906 99.0625 L 313.273438 146.449219 L 243.941406 390.28125 L 77.296875 342.898438 Z M 146.628906 99.0625 " clip-rule="nonzero"/></clipPath><clipPath id="9b6012bd7b"><path d="M 207 293 L 220 293 L 220 304 L 207 304 Z M 207 293 " clip-rule="nonzero"/></clipPath><clipPath id="49ceeed83d"><path d="M 146.628906 99.0625 L 313.273438 146.449219 L 243.941406 390.28125 L 77.296875 342.898438 Z M 146.628906 99.0625 " clip-rule="nonzero"/></clipPath><clipPath id="63aa0441f5"><path d="M 146.628906 99.0625 L 313.273438 146.449219 L 243.941406 390.28125 L 77.296875 342.898438 Z M 146.628906 99.0625 " clip-rule="nonzero"/></clipPath><clipPath id="0f075db42e"><path d="M 146.628906 99.0625 L 313.273438 146.449219 L 243.941406 390.28125 L 77.296875 342.898438 Z M 146.628906 99.0625 " clip-rule="nonzero"/></clipPath><clipPath id="c245ca8ba2"><path d="M 208 302 L 213 302 L 213 313 L 208 313 Z M 208 302 " clip-rule="nonzero"/></clipPath><clipPath id="761df69d3a"><path d="M 146.628906 99.0625 L 313.273438 146.449219 L 243.941406 390.28125 L 77.296875 342.898438 Z M 146.628906 99.0625 " clip-rule="nonzero"/></clipPath><clipPath id="7d192b6739"><path d="M 146.628906 99.0625 L 313.273438 146.449219 L 243.941406 390.28125 L 77.296875 342.898438 Z M 146.628906 99.0625 " clip-rule="nonzero"/></clipPath><clipPath id="3913a0f792"><path d="M 146.628906 99.0625 L 313.273438 146.449219 L 243.941406 390.28125 L 77.296875 342.898438 Z M 146.628906 99.0625 " clip-rule="nonzero"/></clipPath><clipPath id="0dfa21a978"><path d="M 211 285 L 228 285 L 228 292 L 211 292 Z M 211 285 " clip-rule="nonzero"/></clipPath><clipPath id="ceaaea3a08"><path d="M 146.628906 99.0625 L 313.273438 146.449219 L 243.941406 390.28125 L 77.296875 342.898438 Z M 146.628906 99.0625 " clip-rule="nonzero"/></clipPath><clipPath id="1ebe810337"><path d="M 146.628906 99.0625 L 313.273438 146.449219 L 243.941406 390.28125 L 77.296875 342.898438 Z M 146.628906 99.0625 " clip-rule="nonzero"/></clipPath><clipPath id="057a674de5"><path d="M 146.628906 99.0625 L 313.273438 146.449219 L 243.941406 390.28125 L 77.296875 342.898438 Z M 146.628906 99.0625 " clip-rule="nonzero"/></clipPath><clipPath id="6a53585efb"><path d="M 223 283 L 230 283 L 230 287 L 223 287 Z M 223 283 " clip-rule="nonzero"/></clipPath><clipPath id="0fd3cfa60f"><path d="M 146.628906 99.0625 L 313.273438 146.449219 L 243.941406 390.28125 L 77.296875 342.898438 Z M 146.628906 99.0625 " clip-rule="nonzero"/></clipPath><clipPath id="432505811c"><path d="M 146.628906 99.0625 L 313.273438 146.449219 L 243.941406 390.28125 L 77.296875 342.898438 Z M 146.628906 99.0625 " clip-rule="nonzero"/></clipPath><clipPath id="9f2055c907"><path d="M 146.628906 99.0625 L 313.273438 146.449219 L 243.941406 390.28125 L 77.296875 342.898438 Z M 146.628906 99.0625 " clip-rule="nonzero"/></clipPath><clipPath id="b459ffb7ff"><path d="M 216 266 L 231 266 L 231 275 L 216 275 Z M 216 266 " clip-rule="nonzero"/></clipPath><clipPath id="db52cb9b18"><path d="M 146.628906 99.0625 L 313.273438 146.449219 L 243.941406 390.28125 L 77.296875 342.898438 Z M 146.628906 99.0625 " clip-rule="nonzero"/></clipPath><clipPath id="2826d7d666"><path d="M 146.628906 99.0625 L 313.273438 146.449219 L 243.941406 390.28125 L 77.296875 342.898438 Z M 146.628906 99.0625 " clip-rule="nonzero"/></clipPath><clipPath id="f307383850"><path d="M 146.628906 99.0625 L 313.273438 146.449219 L 243.941406 390.28125 L 77.296875 342.898438 Z M 146.628906 99.0625 " clip-rule="nonzero"/></clipPath><clipPath id="0da3ab0826"><path d="M 221 255 L 232 255 L 232 265 L 221 265 Z M 221 255 " clip-rule="nonzero"/></clipPath><clipPath id="849976759c"><path d="M 146.628906 99.0625 L 313.273438 146.449219 L 243.941406 390.28125 L 77.296875 342.898438 Z M 146.628906 99.0625 " clip-rule="nonzero"/></clipPath><clipPath id="8d062e176a"><path d="M 146.628906 99.0625 L 313.273438 146.449219 L 243.941406 390.28125 L 77.296875 342.898438 Z M 146.628906 99.0625 " clip-rule="nonzero"/></clipPath><clipPath id="a3f3ec6c45"><path d="M 146.628906 99.0625 L 313.273438 146.449219 L 243.941406 390.28125 L 77.296875 342.898438 Z M 146.628906 99.0625 " clip-rule="nonzero"/></clipPath><clipPath id="8c35b0d512"><path d="M 208 266 L 219 266 L 219 277 L 208 277 Z M 208 266 " clip-rule="nonzero"/></clipPath><clipPath id="a7406d75ff"><path d="M 146.628906 99.0625 L 313.273438 146.449219 L 243.941406 390.28125 L 77.296875 342.898438 Z M 146.628906 99.0625 " clip-rule="nonzero"/></clipPath><clipPath id="632f39dbda"><path d="M 146.628906 99.0625 L 313.273438 146.449219 L 243.941406 390.28125 L 77.296875 342.898438 Z M 146.628906 99.0625 " clip-rule="nonzero"/></clipPath><clipPath id="be254d7960"><path d="M 146.628906 99.0625 L 313.273438 146.449219 L 243.941406 390.28125 L 77.296875 342.898438 Z M 146.628906 99.0625 " clip-rule="nonzero"/></clipPath><clipPath id="1a4d9931d3"><path d="M 205 255 L 218 255 L 218 270 L 205 270 Z M 205 255 " clip-rule="nonzero"/></clipPath><clipPath id="7bcda18dc9"><path d="M 146.628906 99.0625 L 313.273438 146.449219 L 243.941406 390.28125 L 77.296875 342.898438 Z M 146.628906 99.0625 " clip-rule="nonzero"/></clipPath><clipPath id="785a105672"><path d="M 146.628906 99.0625 L 313.273438 146.449219 L 243.941406 390.28125 L 77.296875 342.898438 Z M 146.628906 99.0625 " clip-rule="nonzero"/></clipPath><clipPath id="d2cc76f6ac"><path d="M 146.628906 99.0625 L 313.273438 146.449219 L 243.941406 390.28125 L 77.296875 342.898438 Z M 146.628906 99.0625 " clip-rule="nonzero"/></clipPath><clipPath id="ad60c5e281"><path d="M 208 247 L 212 247 L 212 256 L 208 256 Z M 208 247 " clip-rule="nonzero"/></clipPath><clipPath id="a6bcfe77f6"><path d="M 146.628906 99.0625 L 313.273438 146.449219 L 243.941406 390.28125 L 77.296875 342.898438 Z M 146.628906 99.0625 " clip-rule="nonzero"/></clipPath><clipPath id="d1356b93ee"><path d="M 146.628906 99.0625 L 313.273438 146.449219 L 243.941406 390.28125 L 77.296875 342.898438 Z M 146.628906 99.0625 " clip-rule="nonzero"/></clipPath><clipPath id="bf23acb847"><path d="M 146.628906 99.0625 L 313.273438 146.449219 L 243.941406 390.28125 L 77.296875 342.898438 Z M 146.628906 99.0625 " clip-rule="nonzero"/></clipPath><clipPath id="7a4d67f1f3"><path d="M 217 244 L 219 244 L 219 249 L 217 249 Z M 217 244 " clip-rule="nonzero"/></clipPath><clipPath id="32d3bed0eb"><path d="M 146.628906 99.0625 L 313.273438 146.449219 L 243.941406 390.28125 L 77.296875 342.898438 Z M 146.628906 99.0625 " clip-rule="nonzero"/></clipPath><clipPath id="e95df901f7"><path d="M 146.628906 99.0625 L 313.273438 146.449219 L 243.941406 390.28125 L 77.296875 342.898438 Z M 146.628906 99.0625 " clip-rule="nonzero"/></clipPath><clipPath id="db3548e7f4"><path d="M 146.628906 99.0625 L 313.273438 146.449219 L 243.941406 390.28125 L 77.296875 342.898438 Z M 146.628906 99.0625 " clip-rule="nonzero"/></clipPath><clipPath id="178ade0198"><path d="M 218 245 L 221 245 L 221 252 L 218 252 Z M 218 245 " clip-rule="nonzero"/></clipPath><clipPath id="d8cd2262ce"><path d="M 146.628906 99.0625 L 313.273438 146.449219 L 243.941406 390.28125 L 77.296875 342.898438 Z M 146.628906 99.0625 " clip-rule="nonzero"/></clipPath><clipPath id="e78d15a8a8"><path d="M 146.628906 99.0625 L 313.273438 146.449219 L 243.941406 390.28125 L 77.296875 342.898438 Z M 146.628906 99.0625 " clip-rule="nonzero"/></clipPath><clipPath id="d5409d1359"><path d="M 146.628906 99.0625 L 313.273438 146.449219 L 243.941406 390.28125 L 77.296875 342.898438 Z M 146.628906 99.0625 " clip-rule="nonzero"/></clipPath><clipPath id="6713b60884"><path d="M 195 258 L 199 258 L 199 272 L 195 272 Z M 195 258 " clip-rule="nonzero"/></clipPath><clipPath id="3401e1e8dc"><path d="M 146.628906 99.0625 L 313.273438 146.449219 L 243.941406 390.28125 L 77.296875 342.898438 Z M 146.628906 99.0625 " clip-rule="nonzero"/></clipPath><clipPath id="498d2c528d"><path d="M 146.628906 99.0625 L 313.273438 146.449219 L 243.941406 390.28125 L 77.296875 342.898438 Z M 146.628906 99.0625 " clip-rule="nonzero"/></clipPath><clipPath id="d4735c2058"><path d="M 146.628906 99.0625 L 313.273438 146.449219 L 243.941406 390.28125 L 77.296875 342.898438 Z M 146.628906 99.0625 " clip-rule="nonzero"/></clipPath><clipPath id="95249d913a"><path d="M 190 255 L 194 255 L 194 266 L 190 266 Z M 190 255 " clip-rule="nonzero"/></clipPath><clipPath id="9d5a7ef710"><path d="M 146.628906 99.0625 L 313.273438 146.449219 L 243.941406 390.28125 L 77.296875 342.898438 Z M 146.628906 99.0625 " clip-rule="nonzero"/></clipPath><clipPath id="45b42ceff1"><path d="M 146.628906 99.0625 L 313.273438 146.449219 L 243.941406 390.28125 L 77.296875 342.898438 Z M 146.628906 99.0625 " clip-rule="nonzero"/></clipPath><clipPath id="4fbdc52c1d"><path d="M 146.628906 99.0625 L 313.273438 146.449219 L 243.941406 390.28125 L 77.296875 342.898438 Z M 146.628906 99.0625 " clip-rule="nonzero"/></clipPath><clipPath id="e2761ded80"><path d="M 181 262 L 189 262 L 189 276 L 181 276 Z M 181 262 " clip-rule="nonzero"/></clipPath><clipPath id="6b03d46b3b"><path d="M 146.628906 99.0625 L 313.273438 146.449219 L 243.941406 390.28125 L 77.296875 342.898438 Z M 146.628906 99.0625 " clip-rule="nonzero"/></clipPath><clipPath id="470ea06fa2"><path d="M 146.628906 99.0625 L 313.273438 146.449219 L 243.941406 390.28125 L 77.296875 342.898438 Z M 146.628906 99.0625 " clip-rule="nonzero"/></clipPath><clipPath id="12a949badf"><path d="M 146.628906 99.0625 L 313.273438 146.449219 L 243.941406 390.28125 L 77.296875 342.898438 Z M 146.628906 99.0625 " clip-rule="nonzero"/></clipPath><clipPath id="360fa4d329"><path d="M 176 268 L 188 268 L 188 278 L 176 278 Z M 176 268 " clip-rule="nonzero"/></clipPath><clipPath id="28c032612a"><path d="M 146.628906 99.0625 L 313.273438 146.449219 L 243.941406 390.28125 L 77.296875 342.898438 Z M 146.628906 99.0625 " clip-rule="nonzero"/></clipPath><clipPath id="7926dcdb76"><path d="M 146.628906 99.0625 L 313.273438 146.449219 L 243.941406 390.28125 L 77.296875 342.898438 Z M 146.628906 99.0625 " clip-rule="nonzero"/></clipPath><clipPath id="8bd94b72c0"><path d="M 146.628906 99.0625 L 313.273438 146.449219 L 243.941406 390.28125 L 77.296875 342.898438 Z M 146.628906 99.0625 " clip-rule="nonzero"/></clipPath><clipPath id="31983c95c9"><path d="M 171 283 L 189 283 L 189 290 L 171 290 Z M 171 283 " clip-rule="nonzero"/></clipPath><clipPath id="78a129c277"><path d="M 146.628906 99.0625 L 313.273438 146.449219 L 243.941406 390.28125 L 77.296875 342.898438 Z M 146.628906 99.0625 " clip-rule="nonzero"/></clipPath><clipPath id="42c1ec4219"><path d="M 146.628906 99.0625 L 313.273438 146.449219 L 243.941406 390.28125 L 77.296875 342.898438 Z M 146.628906 99.0625 " clip-rule="nonzero"/></clipPath><clipPath id="e2aa6fc3cd"><path d="M 146.628906 99.0625 L 313.273438 146.449219 L 243.941406 390.28125 L 77.296875 342.898438 Z M 146.628906 99.0625 " clip-rule="nonzero"/></clipPath><clipPath id="74eff53280"><path d="M 167 295 L 180 295 L 180 301 L 167 301 Z M 167 295 " clip-rule="nonzero"/></clipPath><clipPath id="99e23a0e48"><path d="M 146.628906 99.0625 L 313.273438 146.449219 L 243.941406 390.28125 L 77.296875 342.898438 Z M 146.628906 99.0625 " clip-rule="nonzero"/></clipPath><clipPath id="2ed26d7db2"><path d="M 146.628906 99.0625 L 313.273438 146.449219 L 243.941406 390.28125 L 77.296875 342.898438 Z M 146.628906 99.0625 " clip-rule="nonzero"/></clipPath><clipPath id="7310ea3ee3"><path d="M 146.628906 99.0625 L 313.273438 146.449219 L 243.941406 390.28125 L 77.296875 342.898438 Z M 146.628906 99.0625 " clip-rule="nonzero"/></clipPath><clipPath id="27b332df4c"><path d="M 173 295 L 185 295 L 185 309 L 173 309 Z M 173 295 " clip-rule="nonzero"/></clipPath><clipPath id="a6796394fb"><path d="M 146.628906 99.0625 L 313.273438 146.449219 L 243.941406 390.28125 L 77.296875 342.898438 Z M 146.628906 99.0625 " clip-rule="nonzero"/></clipPath><clipPath id="05f35578a2"><path d="M 146.628906 99.0625 L 313.273438 146.449219 L 243.941406 390.28125 L 77.296875 342.898438 Z M 146.628906 99.0625 " clip-rule="nonzero"/></clipPath><clipPath id="6682b93b56"><path d="M 146.628906 99.0625 L 313.273438 146.449219 L 243.941406 390.28125 L 77.296875 342.898438 Z M 146.628906 99.0625 " clip-rule="nonzero"/></clipPath><clipPath id="7f558c80a1"><path d="M 155 231 L 219 231 L 219 320 L 155 320 Z M 155 231 " clip-rule="nonzero"/></clipPath><clipPath id="69581c6bad"><path d="M 146.628906 99.0625 L 313.273438 146.449219 L 243.941406 390.28125 L 77.296875 342.898438 Z M 146.628906 99.0625 " clip-rule="nonzero"/></clipPath><clipPath id="044e96fcad"><path d="M 146.628906 99.0625 L 313.273438 146.449219 L 243.941406 390.28125 L 77.296875 342.898438 Z M 146.628906 99.0625 " clip-rule="nonzero"/></clipPath><clipPath id="74c3d6c761"><path d="M 146.628906 99.0625 L 313.273438 146.449219 L 243.941406 390.28125 L 77.296875 342.898438 Z M 146.628906 99.0625 " clip-rule="nonzero"/></clipPath><clipPath id="a95bd6d16e"><path d="M 154 231 L 219 231 L 219 320 L 154 320 Z M 154 231 " clip-rule="nonzero"/></clipPath><clipPath id="bbf3b8a1e2"><path d="M 146.628906 99.0625 L 313.273438 146.449219 L 243.941406 390.28125 L 77.296875 342.898438 Z M 146.628906 99.0625 " clip-rule="nonzero"/></clipPath><clipPath id="e4753fc9bb"><path d="M 146.628906 99.0625 L 313.273438 146.449219 L 243.941406 390.28125 L 77.296875 342.898438 Z M 146.628906 99.0625 " clip-rule="nonzero"/></clipPath><clipPath id="43cd358e34"><path d="M 146.628906 99.0625 L 313.273438 146.449219 L 243.941406 390.28125 L 77.296875 342.898438 Z M 146.628906 99.0625 " clip-rule="nonzero"/></clipPath></defs><g clip-path="url(#487f323f66)"><g clip-path="url(#27befaf27b)"><path fill="#00a8a8" d="M 6.964844 0 L 369.3125 0 L 369.3125 373.671875 L 6.964844 373.671875 Z M 6.964844 0 " fill-opacity="1" fill-rule="nonzero"/></g></g><g clip-path="url(#fbbe863d26)"><g clip-path="url(#3798ab3840)"><g clip-path="url(#2f76ee07e2)"><g clip-path="url(#4e984544d1)"><path fill="#000000" d="M 87.359375 310.027344 C 92.976562 296.800781 98.730469 279.421875 105.179688 256.574219 C 111.621094 233.578125 118.148438 206.605469 125.425781 173.980469 C 134.625 173.453125 147.558594 172.367188 165.238281 171.007812 C 182.988281 169.574219 204.253906 167.664062 230.457031 165.488281 L 235.703125 172.171875 C 241.460938 161.132812 246.511719 152.753906 251.527344 146.507812 C 256.433594 140.136719 260.933594 135.695312 265.121094 134.886719 C 269.242188 133.960938 269.527344 136.472656 276.339844 141.507812 C 283.21875 146.464844 292.875 154.214844 305.890625 164.730469 C 306.714844 167.203125 306.671875 169.191406 305.539062 170.824219 C 304.421875 172.414062 302.441406 173.519531 299.371094 174.265625 C 291.824219 169.308594 285.46875 164.6875 279.996094 160.132812 C 274.609375 155.453125 270.160156 151.328125 266.839844 147.097656 C 261.597656 151.46875 257.070312 156.328125 253.136719 161.453125 C 249.132812 166.652344 245.960938 171.945312 243.253906 177.941406 L 269.140625 203.171875 C 266.300781 218.851562 261.667969 238.167969 254.945312 262.132812 C 248.226562 286.097656 239.71875 313.511719 229.207031 345.785156 C 207.617188 349.84375 188.527344 352.800781 170.882812 354.550781 C 153.234375 356.300781 137.953125 356.765625 124.234375 356.25 C 117.84375 349.90625 111.75 343.027344 105.515625 335.296875 C 99.328125 327.582031 93.351562 319.117188 87.359375 310.027344 Z M 87.359375 310.027344 " fill-opacity="1" fill-rule="evenodd"/></g></g></g></g><g clip-path="url(#b98ef9a760)"><g clip-path="url(#d1213f5896)"><g clip-path="url(#0b908847b1)"><g clip-path="url(#4e94d12013)"><path stroke-linecap="butt" transform="matrix(1.224333, 0.348139, -0.348238, 1.224681, 146.349165, 100.306832)" fill="none" stroke-linejoin="miter" d="M 0.486817 171.106632 C 1.889507 159.907884 2.503275 145.542851 2.467373 126.897049 C 2.393672 108.140788 1.530447 86.361946 0.0194266 60.15189 C 6.857703 57.777383 16.397913 54.178686 29.465857 49.35389 C 42.570986 44.457922 58.230373 38.446725 77.563812 31.174216 L 82.964275 35.096447 C 84.943271 25.520053 86.959584 18.105172 89.40762 12.30909 C 91.746144 6.442072 94.192319 2.120118 97.182947 0.609727 C 100.098214 -0.97493 100.853405 0.861309 107.083348 3.201731 C 113.346686 5.468868 122.308924 9.24936 134.404011 14.397521 C 135.558162 16.088452 135.952924 17.599743 135.44774 19.076607 C 134.945131 20.517653 133.686085 21.778219 131.526254 23.001407 C 124.758151 20.877759 118.962544 18.751967 113.848323 16.486701 C 108.772184 14.108542 104.523675 11.948038 101.105586 9.465351 C 98.083452 13.893619 95.706426 18.537205 93.835155 23.253912 C 91.9267 28.041793 90.667131 32.721766 89.909916 37.833065 L 114.893179 51.332762 C 116.116365 63.788128 116.766096 79.376032 116.835425 98.924559 C 116.907706 118.472246 116.369194 141.009985 115.360546 167.649239 C 99.917803 175.353134 86.12754 181.687812 73.170099 186.800155 C 60.209705 191.913338 48.76198 195.547135 38.284313 198.104584 C 32.091984 194.684951 26.009004 190.797258 19.636777 186.296454 C 13.30333 181.797385 6.968125 176.686411 0.486817 171.106632 Z M 0.486817 171.106632 " stroke="#000000" stroke-width="0.036" stroke-opacity="1" stroke-miterlimit="10"/></g></g></g></g><g clip-path="url(#3ea6ded110)"><g clip-path="url(#f94c9d4ef8)"><g clip-path="url(#3ba470c14e)"><g clip-path="url(#92c5144b5b)"><path fill="#f2c802" d="M 127.203125 180.632812 C 128.394531 183.640625 129.457031 188.949219 130.292969 196.90625 C 131.09375 204.804688 131.738281 214.949219 132.242188 227.910156 C 133.457031 222.964844 135.027344 218.121094 136.957031 212.667969 C 138.859375 207.15625 141.113281 201.746094 143.730469 195.722656 C 141.785156 192.167969 139.308594 189.320312 136.613281 186.742188 C 133.726562 184.15625 130.808594 182.183594 127.203125 180.632812 Z M 127.203125 180.632812 " fill-opacity="1" fill-rule="evenodd"/></g></g></g></g><g clip-path="url(#7df468c7db)"><g clip-path="url(#bcee2fddad)"><g clip-path="url(#a5dfec9146)"><g clip-path="url(#1c6d7b9ff1)"><path stroke-linecap="butt" transform="matrix(1.224333, 0.348139, -0.348238, 1.224681, 146.349165, 100.306832)" fill="none" stroke-linejoin="miter" d="M 2.791939 64.79565 C 4.338555 66.811992 6.282141 70.594165 8.623604 76.425788 C 10.92591 82.220697 13.592772 89.745998 16.758543 99.429181 C 16.613942 95.432245 16.759781 91.435676 17.04625 86.901551 C 17.299466 82.329036 17.84017 77.757725 18.523618 72.645069 C 16.289786 70.377537 13.806427 68.758256 11.215681 67.389585 C 8.478615 66.056129 5.849714 65.192693 2.791939 64.79565 Z M 2.791939 64.79565 " stroke="#000000" stroke-width="0.036" stroke-opacity="1" stroke-miterlimit="10"/></g></g></g></g><g clip-path="url(#0e0ec698af)"><g clip-path="url(#8ec6d6786f)"><g clip-path="url(#39731fa2d3)"><g clip-path="url(#f49e7bf244)"><path fill="#f2c802" d="M 148.207031 198.902344 C 151.328125 201.839844 153.9375 204.390625 155.933594 206.914062 C 157.902344 209.378906 159.359375 211.460938 160.203125 213.511719 C 156.054688 217.050781 152.078125 219.96875 148.054688 222.398438 C 143.964844 224.714844 140.148438 226.582031 136.113281 227.867188 C 139.683594 217.160156 142.613281 209.699219 144.570312 204.824219 C 146.675781 199.941406 147.691406 198.039062 148.207031 198.902344 Z M 148.207031 198.902344 " fill-opacity="1" fill-rule="evenodd"/></g></g></g></g><g clip-path="url(#5ed4379fd3)"><g clip-path="url(#a38b70caa6)"><g clip-path="url(#236909fd0a)"><g clip-path="url(#e3171dd06c)"><path stroke-linecap="butt" transform="matrix(1.224333, 0.348139, -0.348238, 1.224681, 146.349165, 100.306832)" fill="none" stroke-linejoin="miter" d="M 22.589665 74.085557 C 25.579384 75.634257 28.099314 77.000731 30.14993 78.47829 C 32.167292 79.917458 33.715706 81.177352 34.793966 82.545379 C 32.419566 86.110131 30.041589 89.168752 27.523271 91.868567 C 24.93043 94.497068 22.447692 96.727466 19.674587 98.565154 C 20.071896 89.709501 20.682607 83.443747 21.113964 79.340497 C 21.655812 75.199458 22.014525 73.544149 22.589665 74.085557 Z M 22.589665 74.085557 " stroke="#000000" stroke-width="0.036" stroke-opacity="1" stroke-miterlimit="10"/></g></g></g></g><g clip-path="url(#ed1632d9f7)"><g clip-path="url(#d511ac4676)"><g clip-path="url(#73f23b47db)"><g clip-path="url(#1eb7a11f7c)"><path fill="#f2c802" d="M 134.355469 178.425781 C 135.859375 178.664062 141.214844 178.425781 151.222656 177.410156 C 161.242188 176.351562 180.148438 173.863281 193.460938 172.457031 C 206.574219 170.894531 218.570312 169.589844 229.671875 168.410156 L 234.601562 173.527344 C 232.761719 176.816406 231.59375 179.246094 230.746094 180.722656 C 229.847656 182.039062 229.929688 181.917969 229.703125 182.378906 C 229.488281 182.796875 229.363281 183.234375 229.375 183.527344 C 226.164062 182.421875 224.539062 182.101562 224.453125 182.746094 C 224.3125 183.230469 226.3125 185.753906 228.617188 187.027344 C 230.820312 188.320312 236.011719 190.179688 237.671875 190.363281 C 239.253906 190.335938 239.136719 189.398438 237.785156 187.296875 L 242.277344 179.710938 L 265.328125 202.851562 C 259.707031 204.015625 248.625 205.296875 231.855469 206.816406 C 214.859375 208.277344 193.082031 209.804688 164.96875 211.671875 C 162.21875 207.269531 159.859375 203.835938 157.945312 201.195312 C 155.984375 198.539062 154.425781 196.808594 153.273438 196.003906 C 166.867188 194.4375 173.109375 193.257812 172.355469 192.566406 C 171.535156 191.761719 163.515625 191.484375 148.347656 191.554688 C 146.011719 188.03125 143.902344 185.238281 141.527344 183.039062 C 139.148438 180.839844 136.816406 179.316406 134.355469 178.425781 Z M 134.355469 178.425781 " fill-opacity="1" fill-rule="evenodd"/></g></g></g></g><g clip-path="url(#e0d2b19ddf)"><g clip-path="url(#952319fadc)"><g clip-path="url(#8c69f42ab5)"><g clip-path="url(#10129bd0b2)"><path stroke-linecap="butt" transform="matrix(1.224333, 0.348139, -0.348238, 1.224681, 146.349165, 100.306832)" fill="none" stroke-linejoin="miter" d="M 7.722526 61.591909 C 8.910186 61.44886 12.905962 60.118419 20.25035 57.201339 C 27.594361 54.24928 41.34661 48.308162 51.104321 44.386088 C 60.677915 40.388769 69.462679 36.826204 77.59833 33.550229 L 82.423112 36.357076 C 81.739532 39.237046 81.379011 41.323466 81.055737 42.621034 C 80.659677 43.808519 80.695645 43.699416 80.623482 44.096303 C 80.550942 44.458212 80.550491 44.815576 80.622298 45.034384 C 77.958346 44.889005 76.661552 44.996096 76.735105 45.501472 C 76.732919 45.897604 78.786487 47.374324 80.801704 47.841272 C 82.74437 48.344792 87.066903 48.634282 88.360885 48.416354 C 89.550506 48.055854 89.260506 47.372787 87.787594 46.075482 L 89.552184 39.379649 L 111.943353 51.909759 C 107.94578 53.996648 99.846711 57.345154 87.50096 62.095426 C 74.971412 66.850102 58.843077 72.682024 37.999878 80.131733 C 34.975826 77.396691 32.455119 75.309587 30.441311 73.725876 C 28.388724 72.140431 26.839104 71.167944 25.795403 70.807577 C 35.731234 66.704096 40.194793 64.471983 39.476521 64.111605 C 38.683727 63.679913 32.563999 65.1931 21.117103 68.504512 C 18.594802 66.344499 16.400667 64.687655 14.133389 63.536424 C 11.863159 62.386032 9.77356 61.736094 7.722526 61.591909 Z M 7.722526 61.591909 " stroke="#000000" stroke-width="0.036" stroke-opacity="1" stroke-miterlimit="10"/></g></g></g></g><g clip-path="url(#eaa626bb26)"><g clip-path="url(#f4a75b9d5c)"><g clip-path="url(#0b41389d23)"><g clip-path="url(#0028823d98)"><path fill="#ffffff" d="M 304.980469 165.089844 C 303.664062 165.191406 302.566406 165.882812 301.628906 167.332031 C 300.671875 168.679688 299.882812 170.789062 299.308594 173.484375 C 301.609375 173.089844 303.175781 172.105469 304.132812 170.757812 C 305.070312 169.308594 305.394531 167.496094 304.980469 165.089844 Z M 304.980469 165.089844 " fill-opacity="1" fill-rule="evenodd"/></g></g></g></g><g clip-path="url(#e9b6fa3cf8)"><g clip-path="url(#c87c5fa943)"><g clip-path="url(#18d9e7b7f4)"><g clip-path="url(#20fd019a5d)"><path stroke-linecap="butt" transform="matrix(1.224333, 0.348139, -0.348238, 1.224681, 146.349165, 100.306832)" fill="none" stroke-linejoin="miter" d="M 133.793452 14.864528 C 132.820504 15.224037 132.139603 15.982156 131.742561 17.278367 C 131.308938 18.502047 131.165918 20.26509 131.311153 22.424633 C 132.965013 21.632341 133.937184 20.552202 134.370808 19.328522 C 134.767849 18.032312 134.623391 16.593399 133.793452 14.864528 Z M 133.793452 14.864528 " stroke="#000000" stroke-width="0.036" stroke-opacity="1" stroke-miterlimit="10"/></g></g></g></g><g clip-path="url(#f0987e510b)"><g clip-path="url(#82d2201ac5)"><g clip-path="url(#bb050d2c81)"><g clip-path="url(#a5c13f6d5b)"><path fill="#c0c0c0" d="M 303.097656 163.839844 C 298.871094 160.445312 294.789062 157.046875 290.140625 153.628906 C 285.472656 150.109375 279.511719 145.933594 275.71875 143.1875 C 271.949219 140.355469 269.992188 137.699219 267.667969 136.992188 C 265.335938 136.136719 264.824219 135.085938 261.542969 138.253906 C 258.113281 141.28125 252.046875 147.703125 247.074219 155.296875 C 242 162.765625 236.816406 171.773438 231.378906 182.855469 C 230.929688 184.109375 231.261719 185.109375 231.847656 185.898438 C 232.59375 186.632812 233.601562 187.109375 235.355469 187.464844 C 236.78125 184.964844 238.886719 181.417969 241.617188 177 C 244.34375 172.4375 247.867188 165.578125 251.910156 160.578125 C 255.832031 155.5 260.449219 150.808594 265.546875 146.632812 C 263.71875 145.6875 262.75 144.742188 262.144531 144.1875 C 261.511719 143.390625 261.6875 142.441406 262.28125 142.703125 C 262.816406 143 263.878906 143.777344 265.511719 145.578125 C 265.75 143.738281 265.976562 142.609375 266.238281 142.019531 C 266.441406 141.3125 266.773438 141.644531 266.945312 142.21875 C 266.9375 142.742188 267.058594 143.824219 266.820312 145.328125 C 269.839844 144.089844 271.515625 143.566406 271.667969 143.703125 C 271.832031 143.800781 270.660156 144.5625 267.929688 146.121094 C 267.542969 147.152344 269.980469 149.800781 275.023438 154.1875 C 280.164062 158.558594 287.78125 164.441406 298.308594 172.152344 C 298.828125 169.488281 299.515625 167.398438 300.328125 166.054688 C 301.117188 164.613281 302.042969 163.875 303.097656 163.839844 Z M 303.097656 163.839844 " fill-opacity="1" fill-rule="evenodd"/></g></g></g></g><g clip-path="url(#329865c858)"><g clip-path="url(#866adadbde)"><g clip-path="url(#67733e7fd6)"><g clip-path="url(#67ac693c2c)"><path stroke-linecap="butt" transform="matrix(1.224333, 0.348139, -0.348238, 1.224681, 146.349165, 100.306832)" fill="none" stroke-linejoin="miter" d="M 132.10207 14.324662 C 128.178776 12.668165 124.36386 10.97767 120.116731 9.394092 C 115.833019 7.737984 110.431235 5.863855 106.974928 4.604082 C 103.517867 3.274354 101.468232 1.688069 99.559962 1.653213 C 97.613893 1.507896 97.001415 0.824001 95.202585 3.922123 C 93.261368 6.945896 90.057058 13.100495 87.93107 19.905442 C 85.701476 26.637774 83.719936 34.556296 81.992224 44.096344 C 81.922196 45.140115 82.387978 45.824247 83.000304 46.294482 C 83.721905 46.688999 84.585882 46.832529 85.98764 46.724306 C 86.527875 44.529386 87.356783 41.397591 88.470809 37.473463 C 89.550827 33.440987 90.73948 27.502142 92.720261 22.856371 C 94.592748 18.177592 97.073759 13.6416 100.028642 9.39193 C 98.444056 9.070494 97.508875 8.564452 96.93215 8.275473 C 96.282723 7.809405 96.211593 7.054551 96.716509 7.124723 C 97.184703 7.23404 98.154636 7.593049 99.77545 8.602711 C 99.560175 7.161602 99.488808 6.260093 99.559839 5.758271 C 99.561411 5.180505 99.883663 5.360015 100.136929 5.756892 C 100.2435 6.154004 100.567508 6.94542 100.710598 8.132742 C 102.726296 6.548636 103.880163 5.79322 104.024663 5.86378 C 104.169624 5.902312 103.447746 6.729493 101.719311 8.493486 C 101.648668 9.355624 104.059702 10.832795 108.813127 13.063471 C 113.636992 15.261364 120.657156 18.069296 130.269261 21.633155 C 130.089415 19.508968 130.159884 17.782496 130.485128 16.592815 C 130.771678 15.334393 131.312627 14.577782 132.10207 14.324662 Z M 132.10207 14.324662 " stroke="#000000" stroke-width="0.036" stroke-opacity="1" stroke-miterlimit="10"/></g></g></g></g><g clip-path="url(#bb83872141)"><g clip-path="url(#48a9524fe7)"><g clip-path="url(#3467721868)"><g clip-path="url(#bd200c2edc)"><path fill="#f2c802" d="M 165.136719 217.105469 C 163.539062 218.367188 170.953125 218.09375 188.039062 216.472656 C 205.109375 214.746094 230.949219 211.660156 266.714844 207.011719 C 257.855469 238.847656 250.308594 265.386719 243.636719 288.175781 C 236.960938 310.820312 231.546875 328.34375 227.0625 341.933594 C 202.09375 346.320312 181.578125 349.109375 164.785156 350.863281 C 147.886719 352.492188 135.609375 352.765625 126.847656 351.75 C 138.0625 317.007812 146.582031 288.886719 153.101562 266.292969 C 159.460938 243.605469 163.476562 227.640625 165.136719 217.105469 Z M 165.136719 217.105469 " fill-opacity="1" fill-rule="evenodd"/></g></g></g></g><g clip-path="url(#fdc814ca68)"><g clip-path="url(#1dc8e7c96a)"><g clip-path="url(#49f26baab9)"><g clip-path="url(#aab769ed14)"><path stroke-linecap="butt" transform="matrix(1.224333, 0.348139, -0.348238, 1.224681, 146.349165, 100.306832)" fill="none" stroke-linejoin="miter" d="M 39.294351 84.200497 C 38.35816 85.49687 43.902002 83.697655 56.465029 78.802688 C 68.993586 73.831401 87.856934 65.949345 113.885172 54.754691 C 114.031146 80.708486 114.030771 102.378777 113.885828 121.028143 C 113.706877 139.569161 113.380975 153.970378 112.912379 165.200226 C 94.986798 173.877842 80.083021 180.391904 67.76992 185.324271 C 55.35026 190.184862 46.131374 193.028778 39.292158 194.143658 C 40.301664 165.488329 40.697108 142.413941 40.768897 123.944851 C 40.699516 105.439341 40.303562 92.515978 39.294351 84.200497 Z M 39.294351 84.200497 " stroke="#000000" stroke-width="0.036" stroke-opacity="1" stroke-miterlimit="10"/></g></g></g></g><g clip-path="url(#9195a2b87e)"><g clip-path="url(#827acd369f)"><g clip-path="url(#dc7329deea)"><g clip-path="url(#88b3f78309)"><path fill="#f2c802" d="M 159.878906 219.519531 C 158.179688 220.796875 154.839844 222.660156 149.859375 225.105469 C 144.742188 227.507812 138.25 230.238281 129.875 233.71875 C 129.078125 228.820312 128.542969 222.996094 127.878906 215.613281 C 127.257812 208.242188 126.601562 199.667969 126.128906 189.765625 C 123.390625 205.761719 119.207031 223.488281 113.289062 243.964844 C 107.371094 264.441406 99.933594 286.582031 90.8125 311.625 C 98.4375 320.992188 104.660156 328.765625 110.089844 335.3125 C 115.472656 341.84375 119.460938 346.746094 122.621094 350.550781 C 128.6875 335.40625 134.640625 317.320312 140.941406 295.335938 C 147.203125 273.148438 153.394531 248.507812 159.878906 219.519531 Z M 159.878906 219.519531 " fill-opacity="1" fill-rule="evenodd"/></g></g></g></g><g clip-path="url(#a98879c250)"><g clip-path="url(#034562d265)"><g clip-path="url(#5a78df772b)"><g clip-path="url(#a961ba03cf)"><path stroke-linecap="butt" transform="matrix(1.224333, 0.348139, -0.348238, 1.224681, 146.349165, 100.306832)" fill="none" stroke-linejoin="miter" d="M 35.839893 87.153669 C 34.830311 88.483663 32.706859 90.608737 29.468696 93.52594 C 26.117986 96.440051 21.798734 99.897416 16.217849 104.325828 C 14.563121 100.79645 12.907238 96.511463 10.819042 91.076717 C 8.765834 85.641594 6.427537 79.305113 3.942597 71.925853 C 5.310518 84.598433 5.958093 98.888781 5.885957 115.629203 C 5.81382 132.369625 4.950983 150.693591 3.439543 171.571813 C 11.214316 177.010361 17.58692 181.546143 23.096742 185.325651 C 28.567785 189.103425 32.635008 191.950195 35.840582 194.145626 C 37.17061 181.401436 37.782999 166.459476 37.820424 148.497733 C 37.784685 130.390929 37.168697 110.445999 35.839893 87.153669 Z M 35.839893 87.153669 " stroke="#000000" stroke-width="0.036" stroke-opacity="1" stroke-miterlimit="10"/></g></g></g></g><g clip-path="url(#7daf9df6d1)"><g clip-path="url(#beca73beec)"><g clip-path="url(#a6bf061376)"><g clip-path="url(#6dc03ba51e)"><path fill="#000000" d="M 241.367188 248.742188 C 232.3125 238.875 223.882812 233.335938 215.742188 231.304688 C 207.519531 229.394531 199.832031 233.644531 192.660156 237.085938 C 185.40625 240.3125 177.917969 246.042969 172.710938 250.617188 C 167.613281 254.980469 164.253906 258.742188 161.679688 263.441406 C 158.871094 268.125 157.582031 273 156.304688 278.164062 C 155.042969 283.09375 154.140625 286.269531 154.144531 292.796875 C 153.949219 299.175781 152.519531 309.0625 155.855469 316.257812 C 159.296875 323.429688 165.328125 329.527344 174.472656 335.226562 C 180.863281 337.378906 187.46875 337.445312 194.597656 334.992188 C 201.679688 332.527344 209.976562 326.976562 216.722656 320.839844 C 223.332031 314.523438 229.855469 304.988281 234.296875 297.914062 C 238.675781 290.722656 241.796875 286.605469 243.117188 278.449219 C 244.296875 270.113281 243.703125 260.460938 241.367188 248.742188 Z M 241.367188 248.742188 " fill-opacity="1" fill-rule="evenodd"/></g></g></g></g><g clip-path="url(#e0b86d9b93)"><g clip-path="url(#aae5a7f476)"><g clip-path="url(#d3fd05a01a)"><g clip-path="url(#eb76ab0a41)"><path fill="#ff8000" d="M 173.878906 258.90625 C 178.789062 254.203125 187.984375 248 194.453125 244.359375 C 200.777344 240.535156 206.609375 237.953125 211.71875 236.738281 C 216.699219 235.484375 220.359375 235.335938 224.511719 236.992188 C 228.609375 238.492188 233.398438 242.09375 236.304688 245.777344 C 239.109375 249.148438 240.253906 252.332031 241.050781 257.898438 C 241.65625 263.308594 242.347656 271.609375 240.367188 278.90625 C 238.265625 286.125 233.46875 294.292969 228.949219 301.296875 C 224.3125 308.222656 219.101562 314.988281 213.757812 320.042969 C 208.34375 324.839844 202.695312 327.953125 197.230469 330.59375 C 191.800781 333.101562 186.527344 335.554688 181.605469 335.445312 C 176.613281 335.070312 171.632812 332.320312 167.945312 329.035156 C 164.164062 325.574219 160.785156 321.375 159.613281 315.273438 C 158.402344 308.976562 159.953125 299.503906 160.894531 292.335938 C 161.710938 284.945312 162.890625 277.609375 165.0625 271.984375 C 167.191406 266.34375 168.945312 263.363281 173.878906 258.90625 Z M 173.878906 258.90625 " fill-opacity="1" fill-rule="evenodd"/></g></g></g></g><g clip-path="url(#65b0500b01)"><g clip-path="url(#7a71e28911)"><g clip-path="url(#48f39551a2)"><g clip-path="url(#06a0a9b149)"><path fill="#000000" d="M 201.511719 279.011719 C 202.679688 269.191406 203.597656 261.449219 204.660156 255.699219 C 205.5625 249.855469 205.570312 247.140625 207.425781 244.476562 C 209.203125 241.738281 212.175781 239.15625 215.621094 239.277344 C 219.082031 239.164062 227.683594 241.085938 228.113281 244.59375 C 228.292969 247.980469 221.082031 255.410156 217.332031 260.398438 C 213.472656 265.257812 209.453125 269.832031 205.28125 274.125 C 204.0625 275.734375 202.785156 277.371094 201.511719 279.011719 Z M 201.511719 279.011719 " fill-opacity="1" fill-rule="evenodd"/></g></g></g></g><g clip-path="url(#116a6ed1ba)"><g clip-path="url(#dbff1fad3e)"><g clip-path="url(#e67cb21a6d)"><g clip-path="url(#2732f67c03)"><path fill="#000000" d="M 210.476562 271.265625 C 213.378906 268.425781 216.378906 265.082031 219.648438 261.292969 C 222.953125 257.375 226.683594 249.617188 229.753906 248.203125 C 232.703125 246.707031 235.882812 250.277344 237.042969 252.5625 C 238.09375 254.722656 237.714844 257.566406 236.074219 261.152344 C 235.753906 260.441406 235.753906 260.441406 236.074219 261.152344 C 236.257812 261.679688 238.597656 263.679688 237.765625 265.253906 C 236.863281 266.761719 236.203125 267.90625 230.820312 270.757812 C 225.214844 273.550781 216.980469 277.214844 205.140625 281.992188 C 205.167969 281.382812 205.0625 280.925781 204.816406 280.617188 C 204.507812 280.195312 204.148438 279.949219 203.5625 279.832031 C 205.84375 277.003906 208.140625 274.128906 210.476562 271.265625 Z M 210.476562 271.265625 " fill-opacity="1" fill-rule="evenodd"/></g></g></g></g><g clip-path="url(#a7ddfd0a43)"><g clip-path="url(#7655d8585e)"><g clip-path="url(#9396adfd41)"><g clip-path="url(#7a7b959908)"><path fill="#000000" d="M 207.160156 284.09375 C 210.011719 282.285156 219.863281 279.132812 224.855469 277.5 C 229.75 275.699219 234.3125 273.230469 236.140625 273.988281 C 237.664062 274.664062 235.742188 278.402344 234.765625 281.511719 C 233.90625 284.363281 232.667969 289.0625 230.742188 291.46875 C 228.78125 293.675781 226.539062 296.039062 222.839844 295.464844 C 218.96875 294.839844 210.90625 289.6875 208.1875 287.867188 C 205.476562 286 204.390625 285.640625 207.160156 284.09375 Z M 207.160156 284.09375 " fill-opacity="1" fill-rule="evenodd"/></g></g></g></g><g clip-path="url(#6a0550ab2f)"><g clip-path="url(#51e8ea8fa8)"><g clip-path="url(#4141c54150)"><g clip-path="url(#d2b9f4d35b)"><path fill="#000000" d="M 204.195312 288.492188 C 205.570312 288.695312 207.710938 291.210938 210.691406 293.296875 C 213.675781 295.191406 219.632812 298.027344 221.601562 299.828125 C 223.320312 301.316406 222.652344 301.316406 221.519531 303.472656 C 220.308594 305.703125 216.855469 310.820312 214.789062 313.234375 C 212.667969 315.492188 210.65625 317.875 209.234375 316.847656 C 207.710938 315.511719 207.394531 310.417969 206.226562 306.320312 C 204.972656 302.007812 202.851562 295.402344 202.425781 292.375 C 202.132812 289.382812 202.75 288.226562 204.195312 288.492188 Z M 204.195312 288.492188 " fill-opacity="1" fill-rule="evenodd"/></g></g></g></g><g clip-path="url(#b9a374635e)"><g clip-path="url(#27b1fb9ae6)"><g clip-path="url(#5dc4e4a2b1)"><g clip-path="url(#7db0a13e77)"><path fill="#000000" d="M 200.574219 290.179688 C 201.429688 291.519531 201.535156 299.699219 202.601562 304.148438 C 203.476562 308.449219 206.1875 312.984375 206.253906 316.097656 C 206.152344 318.976562 204.667969 320.175781 203.035156 321.902344 C 201.335938 323.515625 198.964844 324.988281 196.957031 325.84375 C 194.800781 326.566406 192.152344 328.003906 191.144531 326.527344 C 190.246094 324.652344 190.957031 320.136719 191.734375 316.402344 C 192.5 312.710938 194.511719 308.136719 195.511719 304.800781 C 196.210938 301.332031 196.472656 298.402344 197.179688 296.078125 C 197.964844 293.492188 199.617188 288.859375 200.574219 290.179688 Z M 200.574219 290.179688 " fill-opacity="1" fill-rule="evenodd"/></g></g></g></g><g clip-path="url(#ed5e5b0ae8)"><g clip-path="url(#27ffa6350b)"><g clip-path="url(#d71f8a85e8)"><g clip-path="url(#62983dc718)"><path fill="#000000" d="M 198.871094 276.734375 C 199.671875 273.910156 200.386719 264.535156 200.933594 259.257812 C 201.640625 253.933594 203.589844 246.910156 202.804688 244.972656 C 201.769531 242.914062 197.71875 245.765625 195.191406 247.285156 C 192.6875 248.71875 188.707031 250.828125 187.992188 253.671875 C 187.304688 256.433594 189.46875 260.050781 190.8125 263.863281 C 191.976562 267.480469 193.761719 273.421875 195.125 275.667969 C 196.449219 277.714844 197.875 279.402344 198.871094 276.734375 Z M 198.871094 276.734375 " fill-opacity="1" fill-rule="evenodd"/></g></g></g></g><g clip-path="url(#497b79f6df)"><g clip-path="url(#1cd84fe3c5)"><g clip-path="url(#50bb2866e2)"><g clip-path="url(#0d0ecf2e4e)"><path fill="#000000" d="M 194.769531 283.621094 C 193.488281 279.921875 191.796875 276.152344 189.582031 272.042969 C 187.410156 267.949219 185.910156 260.992188 181.828125 259.261719 C 177.71875 257.472656 175.4375 262.640625 173.195312 265 C 170.949219 267.363281 170 269.191406 168.457031 273.28125 C 166.902344 277.410156 163.871094 286.226562 164.027344 289.367188 C 164.195312 292.460938 165.929688 292.050781 169.332031 291.828125 C 172.785156 291.570312 179.953125 289.320312 184.253906 287.921875 C 188.546875 286.570312 191.964844 285.109375 194.769531 283.621094 Z M 194.769531 283.621094 " fill-opacity="1" fill-rule="evenodd"/></g></g></g></g><g clip-path="url(#bebef9e268)"><g clip-path="url(#b79695d790)"><g clip-path="url(#4cd90c08e7)"><g clip-path="url(#2b85bcfe84)"><path fill="#000000" d="M 188.222656 289.386719 C 185.511719 290.042969 181.554688 291.394531 177.652344 292.71875 C 173.632812 293.957031 167.402344 295.425781 164.824219 297.125 C 162.238281 298.675781 162.363281 299.570312 162.085938 302.394531 C 161.75 305.253906 161.640625 310.324219 162.703125 313.628906 C 163.679688 316.71875 166.191406 319.957031 167.855469 320.808594 C 169.496094 321.5625 169.359375 321.046875 172.261719 317.871094 C 174.988281 314.308594 180.5625 305.265625 184.394531 300.496094 C 188.167969 295.613281 193.253906 291.625 194.800781 289.539062 C 196.238281 287.328125 194.308594 287.921875 193.261719 287.910156 C 192.097656 287.816406 190.839844 288.554688 188.222656 289.386719 Z M 188.222656 289.386719 " fill-opacity="1" fill-rule="evenodd"/></g></g></g></g><g clip-path="url(#ba3c8c9081)"><g clip-path="url(#5287ffb001)"><g clip-path="url(#7a61ad5f54)"><g clip-path="url(#3f58cca65a)"><path fill="#000000" d="M 194.308594 293.449219 C 192.371094 295.234375 189.527344 298.191406 186.410156 302.117188 C 183.179688 306.105469 177.574219 313.089844 175.496094 317.21875 C 173.257812 321.058594 172.597656 324.0625 173.996094 325.84375 C 175.578125 327.484375 182.050781 328.183594 184.453125 327.769531 C 186.585938 327.136719 186.359375 326.261719 187.507812 323.0625 C 188.558594 319.691406 190.722656 311.585938 191.769531 308.40625 C 192.847656 305.28125 193.199219 306.382812 194.074219 304.152344 C 194.84375 301.609375 195.933594 296.4375 196.542969 294.132812 C 197.15625 291.636719 197.890625 290.5625 197.605469 290.382812 C 197.210938 290.273438 196.113281 291.296875 194.308594 293.449219 Z M 194.308594 293.449219 " fill-opacity="1" fill-rule="evenodd"/></g></g></g></g><g clip-path="url(#2e7a7aab17)"><g clip-path="url(#8bf42de34d)"><g clip-path="url(#05bbe933bf)"><g clip-path="url(#aceafc98c2)"><path fill="#ff8000" d="M 188.867188 303.199219 C 188.617188 302.746094 185.191406 306.917969 183.664062 309.4375 C 182.003906 311.917969 179.171875 317.691406 179.414062 318.1875 C 179.640625 318.394531 183.171875 314.015625 184.886719 311.5 C 186.484375 308.902344 188.9375 303.457031 188.867188 303.199219 Z M 188.867188 303.199219 " fill-opacity="1" fill-rule="evenodd"/></g></g></g></g><g clip-path="url(#5380bf0c86)"><g clip-path="url(#873d23f958)"><g clip-path="url(#1296bd338a)"><g clip-path="url(#0fda22d31c)"><path fill="#ff8000" d="M 187.996094 311.957031 C 188.1875 312.296875 185.105469 320.617188 184.070312 322.085938 C 183.082031 323.375 181.488281 321.78125 182.140625 320.15625 C 182.902344 318.324219 187.519531 311.628906 187.996094 311.957031 Z M 187.996094 311.957031 " fill-opacity="1" fill-rule="evenodd"/></g></g></g></g><g clip-path="url(#45cbd4eb56)"><g clip-path="url(#da49bae56a)"><g clip-path="url(#f877d1775b)"><g clip-path="url(#27e1348eec)"><path fill="#ff8000" d="M 198.828125 300.5 C 198.628906 300.207031 198.699219 303.136719 198.21875 304.996094 C 197.660156 306.792969 195.953125 310.785156 196.027344 311.191406 C 196.09375 311.300781 198.316406 308.171875 198.816406 306.40625 C 199.269531 304.484375 198.855469 300.75 198.828125 300.5 Z M 198.828125 300.5 " fill-opacity="1" fill-rule="evenodd"/></g></g></g></g><g clip-path="url(#d4bb935838)"><g clip-path="url(#0e50939985)"><g clip-path="url(#457c33dba2)"><g clip-path="url(#21541b3122)"><path fill="#ff8000" d="M 201.214844 306.515625 C 201.363281 307.179688 202.527344 315.136719 202.480469 316.3125 C 202.363281 317.234375 201.238281 314.148438 201.023438 312.5625 C 200.742188 310.863281 200.980469 305.832031 201.214844 306.515625 Z M 201.214844 306.515625 " fill-opacity="1" fill-rule="evenodd"/></g></g></g></g><g clip-path="url(#9b6012bd7b)"><g clip-path="url(#49ceeed83d)"><g clip-path="url(#63aa0441f5)"><g clip-path="url(#0f075db42e)"><path fill="#ff8000" d="M 209.824219 294.335938 C 210.410156 294.453125 209.628906 294.519531 211.304688 295.996094 C 212.96875 297.515625 219.082031 302.496094 219.65625 303.324219 C 220.058594 303.917969 215.976562 301.519531 214.011719 300.054688 C 211.894531 298.449219 208.515625 295.25 207.734375 294.3125 C 207.066406 293.3125 209.125 293.949219 209.824219 294.335938 Z M 209.824219 294.335938 " fill-opacity="1" fill-rule="evenodd"/></g></g></g></g><g clip-path="url(#c245ca8ba2)"><g clip-path="url(#761df69d3a)"><g clip-path="url(#7d192b6739)"><g clip-path="url(#3913a0f792)"><path fill="#ff8000" d="M 208.582031 302.558594 C 208.53125 303.070312 209.464844 305.148438 210.230469 306.984375 C 211.011719 308.589844 212.746094 313.035156 212.875 312.597656 C 212.871094 311.929688 210.816406 305.578125 210.195312 303.921875 C 209.429688 302.085938 208.589844 302.039062 208.582031 302.558594 Z M 208.582031 302.558594 " fill-opacity="1" fill-rule="evenodd"/></g></g></g></g><g clip-path="url(#0dfa21a978)"><g clip-path="url(#ceaaea3a08)"><g clip-path="url(#1ebe810337)"><g clip-path="url(#057a674de5)"><path fill="#ff8000" d="M 211.761719 285.6875 C 211.652344 285.898438 215.660156 287.894531 218.46875 289.074219 C 221.164062 289.984375 227.699219 292.128906 227.90625 291.898438 C 227.929688 291.476562 221.871094 288.324219 219.199219 287.328125 C 216.5 286.273438 211.839844 285.238281 211.761719 285.6875 Z M 211.761719 285.6875 " fill-opacity="1" fill-rule="evenodd"/></g></g></g></g><g clip-path="url(#6a53585efb)"><g clip-path="url(#0fd3cfa60f)"><g clip-path="url(#432505811c)"><g clip-path="url(#9f2055c907)"><path fill="#ff8000" d="M 224.097656 285.195312 C 224.789062 285.441406 228.804688 286.390625 229.132812 286.246094 C 229.164062 285.96875 226.34375 284.164062 225.46875 284.058594 C 224.609375 283.71875 223.394531 284.804688 224.097656 285.195312 Z M 224.097656 285.195312 " fill-opacity="1" fill-rule="evenodd"/></g></g></g></g><g clip-path="url(#b459ffb7ff)"><g clip-path="url(#db52cb9b18)"><g clip-path="url(#2826d7d666)"><g clip-path="url(#f307383850)"><path fill="#ff8000" d="M 230.941406 266.316406 C 230.765625 266.597656 225.765625 269.609375 223.355469 271.210938 C 220.894531 272.65625 216.625 274.777344 216.695312 274.703125 C 216.851562 274.316406 221.113281 271.050781 223.695312 269.6875 C 226.03125 268.160156 230.882812 266.011719 230.941406 266.316406 Z M 230.941406 266.316406 " fill-opacity="1" fill-rule="evenodd"/></g></g></g></g><g clip-path="url(#0da3ab0826)"><g clip-path="url(#849976759c)"><g clip-path="url(#8d062e176a)"><g clip-path="url(#a3f3ec6c45)"><path fill="#ff8000" d="M 231.664062 255.5625 C 230.980469 256.460938 223.011719 263.539062 221.988281 264.292969 C 221.007812 264.730469 223.871094 260.683594 225.617188 259.226562 C 227.222656 257.777344 232.1875 254.566406 231.664062 255.5625 Z M 231.664062 255.5625 " fill-opacity="1" fill-rule="evenodd"/></g></g></g></g><g clip-path="url(#8c35b0d512)"><g clip-path="url(#a7406d75ff)"><g clip-path="url(#632f39dbda)"><g clip-path="url(#be254d7960)"><path fill="#ff8000" d="M 218.949219 266.097656 C 218.773438 266.046875 216.640625 268.015625 214.824219 269.882812 C 212.929688 271.679688 207.859375 276.289062 208.058594 276.582031 C 208.203125 276.578125 213.625 271.921875 215.535156 270.226562 C 217.367188 268.316406 219.027344 266.167969 218.949219 266.097656 Z M 218.949219 266.097656 " fill-opacity="1" fill-rule="evenodd"/></g></g></g></g><g clip-path="url(#1a4d9931d3)"><g clip-path="url(#7bcda18dc9)"><g clip-path="url(#785a105672)"><g clip-path="url(#d2cc76f6ac)"><path fill="#ff8000" d="M 217.632812 255.8125 C 217.042969 256.886719 211.625 262.871094 209.703125 265.28125 C 207.542969 267.335938 205.167969 270.328125 205.660156 269.277344 C 206.261719 268.160156 211.058594 261.1875 213.136719 259.0625 C 215.09375 256.710938 218.136719 254.71875 217.632812 255.8125 Z M 217.632812 255.8125 " fill-opacity="1" fill-rule="evenodd"/></g></g></g></g><g clip-path="url(#ad60c5e281)"><g clip-path="url(#a6bcfe77f6)"><g clip-path="url(#d1356b93ee)"><g clip-path="url(#bf23acb847)"><path fill="#ff8000" d="M 211.316406 247.535156 C 210.90625 248.136719 208.925781 254.433594 208.957031 255.15625 C 208.851562 255.699219 210.835938 252.402344 211.21875 251.226562 C 211.464844 249.863281 211.761719 246.804688 211.316406 247.535156 Z M 211.316406 247.535156 " fill-opacity="1" fill-rule="evenodd"/></g></g></g></g><g clip-path="url(#7a4d67f1f3)"><g clip-path="url(#32d3bed0eb)"><g clip-path="url(#e95df901f7)"><g clip-path="url(#db3548e7f4)"><path fill="#ff8000" d="M 218.871094 244.25 C 218.582031 244.265625 217.152344 247.289062 217.007812 247.960938 C 216.933594 248.5625 217.652344 248.050781 218.066406 247.597656 C 218.324219 246.859375 219.042969 244.15625 218.871094 244.25 Z M 218.871094 244.25 " fill-opacity="1" fill-rule="evenodd"/></g></g></g></g><g clip-path="url(#178ade0198)"><g clip-path="url(#d8cd2262ce)"><g clip-path="url(#e78d15a8a8)"><g clip-path="url(#d5409d1359)"><path fill="#ff8000" d="M 220.839844 245.382812 C 220.417969 245.691406 218.359375 250.585938 218.246094 251.316406 C 218.164062 251.769531 219.503906 250.246094 220.082031 249.21875 C 220.472656 248.183594 221.109375 244.933594 220.839844 245.382812 Z M 220.839844 245.382812 " fill-opacity="1" fill-rule="evenodd"/></g></g></g></g><g clip-path="url(#6713b60884)"><g clip-path="url(#3401e1e8dc)"><g clip-path="url(#498d2c528d)"><g clip-path="url(#d4735c2058)"><path fill="#ff8000" d="M 197.871094 267.015625 C 197.535156 265.015625 197.539062 259.964844 197.148438 258.996094 C 196.675781 257.8125 195.4375 258.316406 195.660156 260.382812 C 195.917969 262.3125 197.898438 269.597656 198.402344 270.835938 C 198.808594 271.761719 198.03125 268.964844 197.871094 267.015625 Z M 197.871094 267.015625 " fill-opacity="1" fill-rule="evenodd"/></g></g></g></g><g clip-path="url(#95249d913a)"><g clip-path="url(#9d5a7ef710)"><g clip-path="url(#45b42ceff1)"><g clip-path="url(#4fbdc52c1d)"><path fill="#ff8000" d="M 190.484375 255.289062 C 190.707031 256.355469 193.417969 264.414062 193.898438 265.074219 C 194.09375 265.558594 193.355469 260.109375 192.75 258.554688 C 192.175781 256.722656 190.164062 254.246094 190.484375 255.289062 Z M 190.484375 255.289062 " fill-opacity="1" fill-rule="evenodd"/></g></g></g></g><g clip-path="url(#e2761ded80)"><g clip-path="url(#6b03d46b3b)"><g clip-path="url(#470ea06fa2)"><g clip-path="url(#12a949badf)"><path fill="#ff8000" d="M 181.605469 262.722656 C 182.1875 263.363281 187.21875 273.136719 187.964844 274.875 C 188.355469 276.175781 186.234375 273.761719 185.042969 271.753906 C 183.828125 269.644531 181.148438 262.164062 181.605469 262.722656 Z M 181.605469 262.722656 " fill-opacity="1" fill-rule="evenodd"/></g></g></g></g><g clip-path="url(#360fa4d329)"><g clip-path="url(#28c032612a)"><g clip-path="url(#7926dcdb76)"><g clip-path="url(#8bd94b72c0)"><path fill="#ff8000" d="M 187.152344 277.40625 C 187.359375 277.175781 184.007812 274.890625 182.175781 273.464844 C 180.300781 271.835938 176.378906 268.382812 176.167969 268.613281 C 175.796875 268.746094 178.851562 272.757812 180.675781 274.371094 C 182.542969 275.855469 186.816406 277.40625 187.152344 277.40625 Z M 187.152344 277.40625 " fill-opacity="1" fill-rule="evenodd"/></g></g></g></g><g clip-path="url(#31983c95c9)"><g clip-path="url(#78a129c277)"><g clip-path="url(#42c1ec4219)"><g clip-path="url(#e2aa6fc3cd)"><path fill="#ff8000" d="M 188.0625 283.574219 C 187.523438 284.132812 179.15625 287.757812 176.320312 288.859375 C 173.511719 289.683594 171.0625 289.414062 171.476562 288.960938 C 171.886719 288.359375 175.441406 286.75 178.375 285.820312 C 181.070312 284.875 188.429688 282.960938 188.0625 283.574219 Z M 188.0625 283.574219 " fill-opacity="1" fill-rule="evenodd"/></g></g></g></g><g clip-path="url(#74eff53280)"><g clip-path="url(#99e23a0e48)"><g clip-path="url(#2ed26d7db2)"><g clip-path="url(#7310ea3ee3)"><path fill="#ff8000" d="M 179.726562 295.308594 C 179.285156 295.183594 169.980469 299.257812 168.453125 300.109375 C 166.917969 300.816406 168.8125 300.6875 170.710938 300.035156 C 172.65625 299.0625 180.015625 295.292969 179.726562 295.308594 Z M 179.726562 295.308594 " fill-opacity="1" fill-rule="evenodd"/></g></g></g></g><g clip-path="url(#27b332df4c)"><g clip-path="url(#a6796394fb)"><g clip-path="url(#05f35578a2)"><g clip-path="url(#6682b93b56)"><path fill="#ff8000" d="M 184.566406 295.207031 C 184.089844 295.214844 179.511719 298.914062 177.613281 301.234375 C 175.894531 303.417969 173.289062 308.394531 173.789062 308.488281 C 174.226562 308.277344 177.828125 303.15625 179.789062 300.949219 C 181.710938 298.539062 184.742188 295.257812 184.566406 295.207031 Z M 184.566406 295.207031 " fill-opacity="1" fill-rule="evenodd"/></g></g></g></g><g clip-path="url(#7f558c80a1)"><g clip-path="url(#69581c6bad)"><g clip-path="url(#044e96fcad)"><g clip-path="url(#74c3d6c761)"><path fill="#ff8000" d="M 218.011719 234.046875 L 211.980469 231.808594 C 203.640625 233.488281 196.28125 236.253906 189.367188 239.960938 C 182.265625 243.660156 175.863281 248.414062 170.828125 253.890625 C 165.867188 259.105469 162.117188 265.425781 159.6875 271.789062 C 157.214844 278.136719 156.4375 286.0625 155.765625 291.449219 C 155.046875 296.484375 155.09375 299.167969 155.207031 302.628906 C 155.140625 306.042969 155.328125 309.242188 155.992188 312.097656 C 156.546875 314.828125 157.761719 317.269531 159.140625 319.285156 C 158.195312 312.054688 158.003906 305.1875 158.355469 298.089844 C 158.730469 290.90625 159.046875 283.421875 161.324219 276.921875 C 163.527344 270.351562 166.609375 264.699219 171.703125 259.191406 C 176.78125 253.390625 185.214844 247.6875 191.378906 243.769531 C 197.429688 239.917969 203.300781 237.535156 207.847656 236.113281 C 212.273438 234.464844 215.675781 233.714844 218.011719 234.046875 Z M 218.011719 234.046875 " fill-opacity="1" fill-rule="evenodd"/></g></g></g></g><g clip-path="url(#a95bd6d16e)"><g clip-path="url(#bbf3b8a1e2)"><g clip-path="url(#e4753fc9bb)"><g clip-path="url(#43cd358e34)"><path stroke-linecap="butt" transform="matrix(1.224333, 0.348139, -0.348238, 1.224681, 146.349165, 100.306832)" fill="none" stroke-linejoin="miter" d="M 82.890782 85.640702 L 77.852185 85.245375 C 71.910924 88.305822 66.943917 91.97603 62.515705 96.26177 C 57.944125 100.581886 54.127551 105.548571 51.499403 110.7675 C 48.871104 115.772769 47.395413 121.353045 46.926678 126.68216 C 46.422115 132.008702 47.537753 138.163272 48.187508 142.377034 C 48.726299 146.335275 49.338359 148.352544 50.167632 150.942799 C 50.851048 153.536241 51.680169 155.912835 52.795551 157.927368 C 53.801423 159.870965 55.244044 161.454376 56.719152 162.680885 C 54.451158 157.421645 52.830929 152.274898 51.571485 146.837404 C 50.311286 141.329954 48.942179 135.607863 49.266414 130.208188 C 49.519456 124.771339 50.633912 119.839173 53.299622 114.584049 C 55.890574 109.110956 61.038142 102.990837 64.854276 98.706853 C 68.599075 94.497371 72.523687 91.436065 75.654106 89.385167 C 78.644336 87.189123 81.054234 85.891659 82.890782 85.640702 Z M 82.890782 85.640702 " stroke="#000000" stroke-width="0.036" stroke-opacity="1" stroke-miterlimit="10"/></g></g></g></g><g fill="#ffffff" fill-opacity="1"><g transform="translate(125.007264, 105.24928)"><g><path d="M 55.359375 -11.15625 L 55.359375 0 L 9.984375 0 L 6.4375 -8.796875 L 29.390625 -34.65625 C 32.328125 -37.945312 35.007812 -41.234375 37.4375 -44.515625 C 39.875 -47.804688 41.09375 -51.171875 41.09375 -54.609375 C 41.09375 -58.179688 40.050781 -60.878906 37.96875 -62.703125 C 35.894531 -64.523438 33.179688 -65.4375 29.828125 -65.4375 C 28.179688 -65.4375 26.351562 -64.9375 24.34375 -63.9375 C 22.34375 -62.9375 20.445312 -61.363281 18.65625 -59.21875 C 16.875 -57.070312 15.445312 -54.25 14.375 -50.75 L 5.46875 -56.328125 C 7.40625 -62.972656 10.75 -67.941406 15.5 -71.234375 C 20.257812 -74.523438 25.5 -76.171875 31.21875 -76.171875 C 35.289062 -76.171875 38.972656 -75.328125 42.265625 -73.640625 C 45.554688 -71.960938 48.164062 -69.585938 50.09375 -66.515625 C 52.03125 -63.441406 53 -59.757812 53 -55.46875 C 53 -50.53125 51.515625 -45.644531 48.546875 -40.8125 C 45.578125 -35.988281 41.945312 -31.21875 37.65625 -26.5 L 23.609375 -11.15625 Z M 55.359375 -11.15625 "/></g></g></g><g fill="#ffffff" fill-opacity="1"><g transform="translate(183.795914, 105.24928)"><g><path d="M 30.359375 0 C 25.566406 0 21.203125 -1.109375 17.265625 -3.328125 C 13.335938 -5.546875 10.191406 -8.65625 7.828125 -12.65625 C 5.472656 -16.664062 4.296875 -21.28125 4.296875 -26.5 C 4.296875 -29.71875 4.9375 -33.253906 6.21875 -37.109375 C 7.507812 -40.972656 9.132812 -44.875 11.09375 -48.8125 C 13.0625 -52.75 15.050781 -56.429688 17.0625 -59.859375 L 26.8125 -76.390625 L 38.078125 -76.390625 L 38.515625 -75.3125 L 26.71875 -55.46875 C 25.71875 -53.820312 24.785156 -52.175781 23.921875 -50.53125 C 25.210938 -51.175781 26.625 -51.65625 28.15625 -51.96875 C 29.695312 -52.289062 31.328125 -52.453125 33.046875 -52.453125 C 37.265625 -52.453125 41.109375 -51.304688 44.578125 -49.015625 C 48.046875 -46.734375 50.816406 -43.734375 52.890625 -40.015625 C 54.960938 -36.296875 56 -32.253906 56 -27.890625 C 56 -22.816406 54.960938 -18.164062 52.890625 -13.9375 C 50.816406 -9.71875 47.863281 -6.335938 44.03125 -3.796875 C 40.207031 -1.265625 35.648438 0 30.359375 0 Z M 30.359375 -10.734375 C 32.929688 -10.734375 35.328125 -11.359375 37.546875 -12.609375 C 39.765625 -13.859375 41.535156 -15.660156 42.859375 -18.015625 C 44.179688 -20.378906 44.84375 -23.207031 44.84375 -26.5 C 44.84375 -29 44.234375 -31.410156 43.015625 -33.734375 C 41.804688 -36.066406 40.144531 -37.984375 38.03125 -39.484375 C 35.914062 -40.984375 33.429688 -41.734375 30.578125 -41.734375 C 27.429688 -41.734375 24.726562 -41.015625 22.46875 -39.578125 C 20.21875 -38.148438 18.484375 -36.289062 17.265625 -34 C 16.054688 -31.71875 15.453125 -29.253906 15.453125 -26.609375 C 15.453125 -23.816406 16.039062 -21.222656 17.21875 -18.828125 C 18.394531 -16.429688 20.109375 -14.484375 22.359375 -12.984375 C 24.617188 -11.484375 27.285156 -10.734375 30.359375 -10.734375 Z M 30.359375 -10.734375 "/></g></g></g></svg>