<svg xmlns="http://www.w3.org/2000/svg" xmlns:xlink="http://www.w3.org/1999/xlink" width="500" zoomAndPan="magnify" viewBox="0 0 375 374.999991" height="500" preserveAspectRatio="xMidYMid meet" version="1.0"><defs><g/><clipPath id="1f78fe9ec5"><path d="M 7.25 0 L 369.027344 0 L 369.027344 374 L 7.25 374 Z M 7.25 0 " clip-rule="nonzero"/></clipPath><clipPath id="c2177bed2a"><path d="M 21.5 0 L 354.777344 0 C 362.648438 0 369.027344 6.378906 369.027344 14.25 L 369.027344 359.339844 C 369.027344 367.210938 362.648438 373.589844 354.777344 373.589844 L 21.5 373.589844 C 13.628906 373.589844 7.25 367.210938 7.25 359.339844 L 7.25 14.25 C 7.25 6.378906 13.628906 0 21.5 0 Z M 21.5 0 " clip-rule="nonzero"/></clipPath><clipPath id="2cd5b5fa8c"><path d="M 175 223 L 317 223 L 317 336 L 175 336 Z M 175 223 " clip-rule="nonzero"/></clipPath><clipPath id="acb4c97512"><path d="M 28.773438 187.617188 L 199.503906 94.96875 L 322.558594 321.734375 L 151.828125 414.382812 Z M 28.773438 187.617188 " clip-rule="nonzero"/></clipPath><clipPath id="f996a5052f"><path d="M 28.773438 187.617188 L 199.503906 94.96875 L 322.558594 321.734375 L 151.828125 414.382812 Z M 28.773438 187.617188 " clip-rule="nonzero"/></clipPath><clipPath id="1f92250064"><path d="M 28.773438 187.617188 L 199.503906 94.96875 L 322.558594 321.734375 L 151.828125 414.382812 Z M 28.773438 187.617188 " clip-rule="nonzero"/></clipPath><clipPath id="062ea32231"><path d="M 186 223 L 311 223 L 311 308 L 186 308 Z M 186 223 " clip-rule="nonzero"/></clipPath><clipPath id="18ff6a91fb"><path d="M 28.773438 187.617188 L 199.503906 94.96875 L 322.558594 321.734375 L 151.828125 414.382812 Z M 28.773438 187.617188 " clip-rule="nonzero"/></clipPath><clipPath id="2042307fee"><path d="M 28.773438 187.617188 L 199.503906 94.96875 L 322.558594 321.734375 L 151.828125 414.382812 Z M 28.773438 187.617188 " clip-rule="nonzero"/></clipPath><clipPath id="673ea6aed8"><path d="M 28.773438 187.617188 L 199.503906 94.96875 L 322.558594 321.734375 L 151.828125 414.382812 Z M 28.773438 187.617188 " clip-rule="nonzero"/></clipPath><clipPath id="c29ba07cbc"><path d="M 176 246 L 314 246 L 314 336 L 176 336 Z M 176 246 " clip-rule="nonzero"/></clipPath><clipPath id="950ccb00e7"><path d="M 28.773438 187.617188 L 199.503906 94.96875 L 322.558594 321.734375 L 151.828125 414.382812 Z M 28.773438 187.617188 " clip-rule="nonzero"/></clipPath><clipPath id="af153ae0b5"><path d="M 28.773438 187.617188 L 199.503906 94.96875 L 322.558594 321.734375 L 151.828125 414.382812 Z M 28.773438 187.617188 " clip-rule="nonzero"/></clipPath><clipPath id="364e403bc6"><path d="M 28.773438 187.617188 L 199.503906 94.96875 L 322.558594 321.734375 L 151.828125 414.382812 Z M 28.773438 187.617188 " clip-rule="nonzero"/></clipPath><clipPath id="ae08392ca2"><path d="M 55 143 L 205 143 L 205 293 L 55 293 Z M 55 143 " clip-rule="nonzero"/></clipPath><clipPath id="12fe9f5b7e"><path d="M 28.773438 187.617188 L 199.503906 94.96875 L 322.558594 321.734375 L 151.828125 414.382812 Z M 28.773438 187.617188 " clip-rule="nonzero"/></clipPath><clipPath id="7c5ed6a2a9"><path d="M 28.773438 187.617188 L 199.503906 94.96875 L 322.558594 321.734375 L 151.828125 414.382812 Z M 28.773438 187.617188 " clip-rule="nonzero"/></clipPath><clipPath id="6fd6920714"><path d="M 28.773438 187.617188 L 199.503906 94.96875 L 322.558594 321.734375 L 151.828125 414.382812 Z M 28.773438 187.617188 " clip-rule="nonzero"/></clipPath><clipPath id="1be6562c23"><path d="M 80 177 L 138 177 L 138 234 L 80 234 Z M 80 177 " clip-rule="nonzero"/></clipPath><clipPath id="b026a474b3"><path d="M 28.773438 187.617188 L 199.503906 94.96875 L 322.558594 321.734375 L 151.828125 414.382812 Z M 28.773438 187.617188 " clip-rule="nonzero"/></clipPath><clipPath id="761054e71d"><path d="M 28.773438 187.617188 L 199.503906 94.96875 L 322.558594 321.734375 L 151.828125 414.382812 Z M 28.773438 187.617188 " clip-rule="nonzero"/></clipPath><clipPath id="cff99710d3"><path d="M 28.773438 187.617188 L 199.503906 94.96875 L 322.558594 321.734375 L 151.828125 414.382812 Z M 28.773438 187.617188 " clip-rule="nonzero"/></clipPath><clipPath id="5e0da16103"><path d="M 58 146 L 202 146 L 202 289 L 58 289 Z M 58 146 " clip-rule="nonzero"/></clipPath><clipPath id="daac766152"><path d="M 28.773438 187.617188 L 199.503906 94.96875 L 322.558594 321.734375 L 151.828125 414.382812 Z M 28.773438 187.617188 " clip-rule="nonzero"/></clipPath><clipPath id="b7ddbe08aa"><path d="M 28.773438 187.617188 L 199.503906 94.96875 L 322.558594 321.734375 L 151.828125 414.382812 Z M 28.773438 187.617188 " clip-rule="nonzero"/></clipPath><clipPath id="bfa6792f5b"><path d="M 28.773438 187.617188 L 199.503906 94.96875 L 322.558594 321.734375 L 151.828125 414.382812 Z M 28.773438 187.617188 " clip-rule="nonzero"/></clipPath><clipPath id="eff86be696"><path d="M 162 150 L 173 150 L 173 157 L 162 157 Z M 162 150 " clip-rule="nonzero"/></clipPath><clipPath id="210b205afb"><path d="M 28.773438 187.617188 L 199.503906 94.96875 L 322.558594 321.734375 L 151.828125 414.382812 Z M 28.773438 187.617188 " clip-rule="nonzero"/></clipPath><clipPath id="ae8e0723c2"><path d="M 28.773438 187.617188 L 199.503906 94.96875 L 322.558594 321.734375 L 151.828125 414.382812 Z M 28.773438 187.617188 " clip-rule="nonzero"/></clipPath><clipPath id="b077de584c"><path d="M 28.773438 187.617188 L 199.503906 94.96875 L 322.558594 321.734375 L 151.828125 414.382812 Z M 28.773438 187.617188 " clip-rule="nonzero"/></clipPath><clipPath id="fa89cabcb0"><path d="M 65 143 L 205 143 L 205 254 L 65 254 Z M 65 143 " clip-rule="nonzero"/></clipPath><clipPath id="533ecded7f"><path d="M 28.773438 187.617188 L 199.503906 94.96875 L 322.558594 321.734375 L 151.828125 414.382812 Z M 28.773438 187.617188 " clip-rule="nonzero"/></clipPath><clipPath id="11d8f4f47b"><path d="M 28.773438 187.617188 L 199.503906 94.96875 L 322.558594 321.734375 L 151.828125 414.382812 Z M 28.773438 187.617188 " clip-rule="nonzero"/></clipPath><clipPath id="d869e8df5c"><path d="M 28.773438 187.617188 L 199.503906 94.96875 L 322.558594 321.734375 L 151.828125 414.382812 Z M 28.773438 187.617188 " clip-rule="nonzero"/></clipPath></defs><g clip-path="url(#1f78fe9ec5)"><g clip-path="url(#c2177bed2a)"><path fill="#7c3715" d="M 7.25 0 L 369.027344 0 L 369.027344 373.085938 L 7.25 373.085938 Z M 7.25 0 " fill-opacity="1" fill-rule="nonzero"/></g></g><g clip-path="url(#2cd5b5fa8c)"><g clip-path="url(#acb4c97512)"><g clip-path="url(#f996a5052f)"><g clip-path="url(#1f92250064)"><path fill="#ffc955" d="M 255.601562 309.566406 L 233.492188 314.648438 C 231.933594 315.023438 230.125 314.070312 229.753906 312.515625 L 222.40625 288.601562 L 221.910156 288.226562 L 197.527344 293.664062 C 195.96875 294.039062 194.296875 293.011719 193.789062 291.53125 L 186.003906 266.269531 C 185.796875 265.5625 185.265625 264.910156 184.769531 264.535156 L 176.453125 259.261719 C 174.992188 258.296875 174.605469 256.394531 175.433594 255.007812 L 192.601562 225.46875 C 193.496094 223.871094 195.488281 223.433594 196.996094 224.375 L 302.3125 285.394531 C 303.015625 285.832031 303.472656 286.347656 303.679688 287.054688 L 316.015625 322.210938 C 316.671875 323.964844 315.496094 326.011719 313.636719 326.375 L 274.894531 334.855469 L 274.957031 334.644531 L 269.945312 335.78125 C 268.386719 336.15625 266.714844 335.128906 266.207031 333.648438 L 259.515625 312.132812 C 258.828125 310.21875 257.230469 309.328125 255.601562 309.566406 Z M 255.601562 309.566406 " fill-opacity="1" fill-rule="nonzero"/></g></g></g></g><g clip-path="url(#062ea32231)"><g clip-path="url(#18ff6a91fb)"><g clip-path="url(#2042307fee)"><g clip-path="url(#673ea6aed8)"><path fill="#000000" d="M 186.429688 235.382812 L 192.40625 225.105469 C 193.300781 223.507812 195.292969 223.070312 196.800781 224.011719 L 302.089844 284.984375 C 302.796875 285.421875 303.25 285.9375 303.460938 286.644531 L 310.601562 307.15625 " fill-opacity="0.05" fill-rule="nonzero"/></g></g></g></g><g clip-path="url(#c29ba07cbc)"><g clip-path="url(#950ccb00e7)"><g clip-path="url(#af153ae0b5)"><g clip-path="url(#364e403bc6)"><path fill="#000000" d="M 313.492188 326.101562 L 274.773438 334.628906 L 274.835938 334.417969 L 269.820312 335.554688 C 268.265625 335.929688 266.59375 334.902344 266.082031 333.421875 L 259.394531 311.90625 C 258.808594 310.289062 257.210938 309.398438 255.65625 309.773438 L 233.542969 314.855469 C 231.988281 315.230469 230.179688 314.277344 229.804688 312.722656 L 222.457031 288.808594 L 221.960938 288.433594 L 197.597656 293.796875 C 196.042969 294.175781 194.371094 293.148438 193.859375 291.664062 L 186.078125 266.40625 C 185.871094 265.699219 185.339844 265.046875 184.84375 264.671875 L 176.527344 259.398438 C 175.0625 258.429688 179.503906 248.34375 180.28125 246.75 " fill-opacity="0.05" fill-rule="nonzero"/><path fill="#000000" d="M 313.492188 326.101562 L 274.773438 334.628906 L 274.835938 334.417969 L 269.820312 335.554688 C 268.265625 335.929688 266.59375 334.902344 266.082031 333.421875 L 259.394531 311.90625 C 258.808594 310.289062 257.210938 309.398438 255.65625 309.773438 L 233.542969 314.855469 C 231.988281 315.230469 230.179688 314.277344 229.804688 312.722656 L 222.457031 288.808594 L 221.960938 288.433594 L 197.597656 293.796875 C 196.042969 294.175781 194.371094 293.148438 193.859375 291.664062 L 186.078125 266.40625 C 185.871094 265.699219 185.339844 265.046875 184.84375 264.671875 L 176.527344 259.398438 C 175.0625 258.429688 179.503906 248.34375 180.28125 246.75 " fill-opacity="0.05" fill-rule="nonzero"/></g></g></g></g><g clip-path="url(#ae08392ca2)"><g clip-path="url(#12fe9f5b7e)"><g clip-path="url(#7c5ed6a2a9)"><g clip-path="url(#6fd6920714)"><path fill="#ffc955" d="M 65.835938 179.605469 C 65.699219 179.679688 65.773438 179.816406 65.683594 179.867188 C 44.765625 215.25 56.59375 260.9375 91.980469 281.828125 C 127.363281 302.722656 173.078125 290.871094 193.996094 255.484375 C 195.828125 252.378906 197.449219 249.097656 198.839844 245.824219 C 211.910156 213.703125 201.070312 176.324219 171.945312 156.375 L 162.089844 150.644531 C 127.785156 133.796875 85.707031 146.078125 65.835938 179.605469 Z M 128.953125 216.046875 C 128.800781 216.304688 128.714844 216.46875 128.515625 216.75 C 128.515625 216.75 128.378906 216.824219 128.453125 216.960938 C 122.125 227.78125 108.152344 231.320312 97.492188 224.972656 C 86.832031 218.621094 83.136719 204.683594 89.496094 194.023438 C 89.496094 194.023438 89.632812 193.949219 89.558594 193.8125 C 89.621094 193.605469 89.710938 193.554688 89.796875 193.390625 C 96.261719 183.144531 109.796875 179.664062 120.410156 185.921875 C 130.855469 192.09375 134.597656 205.480469 128.953125 216.046875 Z M 128.953125 216.046875 " fill-opacity="1" fill-rule="nonzero"/></g></g></g></g><g clip-path="url(#1be6562c23)"><g clip-path="url(#b026a474b3)"><g clip-path="url(#761054e71d)"><g clip-path="url(#cff99710d3)"><path fill="#000000" d="M 122.605469 230.394531 C 113.949219 235.089844 103.265625 234.96875 94.796875 229.949219 C 88.210938 226.136719 83.625 219.953125 81.792969 212.796875 C 79.9375 205.484375 80.90625 197.863281 84.820312 191.460938 L 84.972656 191.203125 C 87.621094 186.894531 91.28125 183.265625 95.585938 180.929688 C 104.378906 176.160156 114.714844 176.292969 123.394531 181.371094 C 136.640625 189.246094 141.207031 206.523438 133.507812 219.789062 L 133.445312 219.996094 C 130.867188 224.328125 127.089844 227.960938 122.605469 230.394531 Z M 98.007812 185.066406 C 94.292969 187.082031 91.253906 190.023438 89.132812 193.574219 L 88.980469 193.832031 C 85.816406 199.242188 85.007812 205.425781 86.546875 211.507812 C 88.089844 217.589844 91.972656 222.691406 97.382812 225.851562 C 104.464844 230.039062 113.257812 230.25 120.554688 226.289062 C 124.269531 224.273438 127.445312 221.261719 129.445312 217.597656 C 129.445312 217.597656 129.578125 217.523438 129.507812 217.386719 C 135.988281 206.308594 132.257812 191.976562 121.179688 185.503906 C 113.933594 181.230469 105.347656 181.082031 98.007812 185.066406 Z M 98.007812 185.066406 " fill-opacity="0.05" fill-rule="nonzero"/></g></g></g></g><g clip-path="url(#5e0da16103)"><g clip-path="url(#daac766152)"><g clip-path="url(#b7ddbe08aa)"><g clip-path="url(#bfa6792f5b)"><path fill="#000000" d="M 163.910156 280.136719 C 141.976562 292.035156 115.089844 291.5625 93.660156 278.984375 C 59.875 258.984375 48.503906 215.328125 68.457031 181.410156 C 75.074219 170.257812 84.546875 161.128906 95.832031 155.007812 C 117.761719 143.105469 144.648438 143.578125 166.078125 156.160156 C 182.523438 165.816406 194.15625 181.308594 198.898438 199.777344 C 203.617188 218.203125 200.953125 237.289062 191.308594 253.777344 C 184.667969 264.886719 175.28125 273.964844 163.910156 280.136719 Z M 98.851562 160.574219 C 88.566406 166.15625 79.964844 174.515625 73.9375 184.703125 C 55.820312 215.519531 66.050781 255.339844 96.914062 273.523438 C 116.75 285.210938 140.675781 285.53125 160.839844 274.589844 C 171.125 269.007812 179.726562 260.648438 185.753906 250.460938 C 194.53125 235.617188 197.015625 218.03125 192.746094 201.300781 C 188.472656 184.566406 177.765625 170.449219 162.84375 161.546875 C 143.066406 150.066406 119.199219 149.535156 98.851562 160.574219 Z M 98.851562 160.574219 " fill-opacity="0.05" fill-rule="nonzero"/></g></g></g></g><g clip-path="url(#eff86be696)"><g clip-path="url(#210b205afb)"><g clip-path="url(#ae8e0723c2)"><g clip-path="url(#b077de584c)"><path fill="#ffc955" d="M 167.757812 153.3125 C 165.878906 152.222656 164.09375 151.316406 162.195312 150.410156 L 172.050781 156.140625 C 170.730469 155.21875 169.222656 154.277344 167.757812 153.3125 Z M 167.757812 153.3125 " fill-opacity="1" fill-rule="nonzero"/></g></g></g></g><g clip-path="url(#fa89cabcb0)"><g clip-path="url(#533ecded7f)"><g clip-path="url(#11d8f4f47b)"><g clip-path="url(#d869e8df5c)"><path fill="#000000" d="M 172.007812 156.164062 L 162.152344 150.433594 C 127.785156 133.796875 85.707031 146.078125 65.835938 179.605469 L 89.917969 193.503906 C 96.378906 183.253906 109.917969 179.777344 120.527344 186.035156 C 130.929688 192.230469 134.597656 205.480469 128.980469 216.089844 L 194.265625 253.933594 L 198.976562 245.75 C 212.0625 213.441406 201.132812 176.117188 172.007812 156.164062 Z M 172.007812 156.164062 " fill-opacity="0.05" fill-rule="nonzero"/></g></g></g></g><g fill="#ffffff" fill-opacity="1"><g transform="translate(125.906997, 105.083993)"><g><path d="M 55.265625 -11.140625 L 55.265625 0 L 9.96875 0 L 6.421875 -8.78125 L 29.34375 -34.59375 C 32.269531 -37.875 34.945312 -41.15625 37.375 -44.4375 C 39.800781 -47.726562 41.015625 -51.085938 41.015625 -54.515625 C 41.015625 -58.085938 39.976562 -60.785156 37.90625 -62.609375 C 35.84375 -64.429688 33.132812 -65.34375 29.78125 -65.34375 C 28.132812 -65.34375 26.3125 -64.84375 24.3125 -63.84375 C 22.3125 -62.84375 20.414062 -61.269531 18.625 -59.125 C 16.84375 -56.976562 15.421875 -54.15625 14.359375 -50.65625 L 5.46875 -56.234375 C 7.394531 -62.867188 10.726562 -67.828125 15.46875 -71.109375 C 20.21875 -74.398438 25.453125 -76.046875 31.171875 -76.046875 C 35.242188 -76.046875 38.921875 -75.207031 42.203125 -73.53125 C 45.484375 -71.851562 48.085938 -69.476562 50.015625 -66.40625 C 51.941406 -63.332031 52.90625 -59.65625 52.90625 -55.375 C 52.90625 -50.445312 51.421875 -45.570312 48.453125 -40.75 C 45.492188 -35.9375 41.875 -31.171875 37.59375 -26.453125 L 23.5625 -11.140625 Z M 55.265625 -11.140625 "/></g></g></g><g fill="#ffffff" fill-opacity="1"><g transform="translate(184.603323, 105.083993)"><g><path d="M 12 0 L 41.453125 -64.265625 L 6.421875 -64.265625 L 6.421875 -74.96875 L 52.8125 -74.96875 L 54.296875 -67.59375 L 24.421875 0 Z M 12 0 "/></g></g></g></svg>