<svg xmlns="http://www.w3.org/2000/svg" xmlns:xlink="http://www.w3.org/1999/xlink" width="500" zoomAndPan="magnify" viewBox="0 0 375 374.999991" height="500" preserveAspectRatio="xMidYMid meet" version="1.0"><defs><g/><clipPath id="d09b328046"><path d="M 6.570312 0 L 369.714844 0 L 369.714844 375 L 6.570312 375 Z M 6.570312 0 " clip-rule="nonzero"/></clipPath><clipPath id="39c50291ad"><path d="M 20.820312 0 L 355.464844 0 C 359.242188 0 362.867188 1.5 365.539062 4.171875 C 368.210938 6.847656 369.714844 10.46875 369.714844 14.25 L 369.714844 360.75 C 369.714844 364.527344 368.210938 368.152344 365.539062 370.828125 C 362.867188 373.5 359.242188 375 355.464844 375 L 20.820312 375 C 17.039062 375 13.414062 373.5 10.742188 370.828125 C 8.070312 368.152344 6.570312 364.527344 6.570312 360.75 L 6.570312 14.25 C 6.570312 10.46875 8.070312 6.847656 10.742188 4.171875 C 13.414062 1.5 17.039062 0 20.820312 0 Z M 20.820312 0 " clip-rule="nonzero"/></clipPath><clipPath id="f1a9111e98"><path d="M 126.429688 179.222656 L 347.472656 179.222656 L 347.472656 357.335938 L 126.429688 357.335938 Z M 126.429688 179.222656 " clip-rule="nonzero"/></clipPath><clipPath id="2bdf3b38cd"><path d="M 23.472656 238.230469 L 135 238.230469 L 135 357.335938 L 23.472656 357.335938 Z M 23.472656 238.230469 " clip-rule="nonzero"/></clipPath></defs><g clip-path="url(#d09b328046)"><g clip-path="url(#39c50291ad)"><path fill="#a27021" d="M 6.570312 0 L 369.714844 0 L 369.714844 374.492188 L 6.570312 374.492188 Z M 6.570312 0 " fill-opacity="1" fill-rule="nonzero"/></g></g><path fill="#f0ce2f" d="M 326.136719 179.804688 L 250.84375 223.265625 L 235.921875 231.855469 L 217.761719 242.398438 L 173.296875 268.011719 L 134.40625 290.457031 L 44.792969 238.78125 L 107.726562 202.476562 L 152.113281 176.789062 L 170.355469 166.320312 L 185.277344 157.730469 L 236.527344 128.128906 L 326.136719 179.804688 " fill-opacity="1" fill-rule="nonzero"/><path fill="#f37b17" d="M 211.886719 167.355469 L 214.574219 165.804688 L 221.515625 169.808594 L 215.164062 173.476562 C 213.835938 173.460938 212.28125 173.230469 210.503906 172.777344 C 208.730469 172.328125 207.183594 171.722656 205.871094 170.964844 C 204.203125 170.003906 203.101562 168.960938 202.558594 167.839844 C 202.019531 166.722656 202.085938 165.605469 202.765625 164.496094 C 203.445312 163.386719 204.546875 162.386719 206.078125 161.503906 C 207.742188 160.546875 209.5625 159.898438 211.550781 159.550781 C 213.535156 159.207031 215.546875 159.226562 217.578125 159.601562 C 219.128906 159.886719 220.667969 160.46875 222.1875 161.347656 C 224.167969 162.488281 225.296875 163.621094 225.582031 164.742188 C 225.867188 165.863281 225.433594 166.941406 224.289062 167.96875 L 220.492188 166.46875 C 221.050781 165.886719 221.246094 165.289062 221.078125 164.667969 C 220.914062 164.046875 220.367188 163.46875 219.4375 162.933594 C 218.03125 162.121094 216.464844 161.734375 214.742188 161.773438 C 213.023438 161.808594 211.28125 162.332031 209.527344 163.34375 C 207.632812 164.4375 206.636719 165.5 206.53125 166.527344 C 206.425781 167.5625 207.054688 168.46875 208.417969 169.257812 C 209.09375 169.644531 209.898438 169.960938 210.84375 170.199219 C 211.789062 170.433594 212.691406 170.585938 213.554688 170.652344 L 215.574219 169.480469 L 211.886719 167.355469 " fill-opacity="1" fill-rule="nonzero"/><path fill="#f37b17" d="M 226.585938 173.386719 C 224.777344 174.429688 223.824219 175.457031 223.730469 176.476562 C 223.632812 177.496094 224.222656 178.375 225.507812 179.117188 C 226.792969 179.859375 228.304688 180.199219 230.054688 180.140625 C 231.804688 180.082031 233.601562 179.519531 235.449219 178.453125 C 237.277344 177.398438 238.238281 176.378906 238.335938 175.398438 C 238.4375 174.417969 237.824219 173.542969 236.496094 172.777344 C 235.167969 172.011719 233.644531 171.65625 231.917969 171.714844 C 230.199219 171.769531 228.417969 172.328125 226.585938 173.386719 Z M 223.160156 171.535156 C 224.78125 170.597656 226.386719 169.953125 227.976562 169.59375 C 229.152344 169.335938 230.375 169.199219 231.648438 169.191406 C 232.921875 169.179688 234.085938 169.300781 235.144531 169.550781 C 236.558594 169.882812 237.914062 170.421875 239.214844 171.171875 C 241.5625 172.527344 242.714844 174.03125 242.667969 175.6875 C 242.621094 177.339844 241.300781 178.917969 238.703125 180.417969 C 236.125 181.902344 233.414062 182.660156 230.5625 182.695312 C 227.707031 182.722656 225.109375 182.0625 222.765625 180.710938 C 220.394531 179.34375 219.230469 177.839844 219.28125 176.199219 C 219.328125 174.554688 220.617188 173 223.160156 171.535156 " fill-opacity="1" fill-rule="nonzero"/><path fill="#f37b17" d="M 233.351562 186.503906 L 249.167969 177.378906 L 252.386719 179.238281 L 239.257812 186.8125 L 247.265625 191.433594 L 244.578125 192.984375 L 233.351562 186.503906 " fill-opacity="1" fill-rule="nonzero"/><path fill="#f37b17" d="M 263.332031 188.515625 L 252.769531 194.609375 L 255.171875 195.996094 C 256.074219 196.515625 256.769531 196.859375 257.269531 197.03125 C 257.921875 197.257812 258.578125 197.378906 259.234375 197.398438 C 259.890625 197.417969 260.6875 197.285156 261.621094 197 C 262.550781 196.710938 263.632812 196.210938 264.863281 195.5 C 266.097656 194.789062 266.933594 194.183594 267.378906 193.675781 C 267.820312 193.167969 268.027344 192.695312 268.007812 192.257812 C 267.988281 191.816406 267.742188 191.386719 267.269531 190.964844 C 266.921875 190.644531 266.089844 190.109375 264.777344 189.351562 Z M 262.808594 185.097656 L 268.695312 188.496094 C 270.019531 189.261719 270.929688 189.902344 271.421875 190.421875 C 272.085938 191.121094 272.398438 191.867188 272.359375 192.65625 C 272.324219 193.449219 271.96875 194.238281 271.300781 195.027344 C 270.628906 195.816406 269.546875 196.640625 268.050781 197.503906 C 266.742188 198.261719 265.445312 198.820312 264.171875 199.179688 C 262.609375 199.617188 261.101562 199.832031 259.644531 199.820312 C 258.539062 199.8125 257.363281 199.621094 256.105469 199.246094 C 255.171875 198.96875 254.109375 198.484375 252.921875 197.800781 L 246.863281 194.300781 L 262.808594 185.097656 " fill-opacity="1" fill-rule="nonzero"/><path fill="#f37b17" d="M 239.238281 203.234375 L 195.933594 178.253906 L 199.253906 176.335938 L 242.554688 201.320312 L 239.238281 203.234375 " fill-opacity="1" fill-rule="nonzero"/><path fill="#f37b17" d="M 225.664062 202.914062 L 196.5 186.082031 L 199.816406 184.167969 L 228.984375 201 L 225.664062 202.914062 " fill-opacity="1" fill-rule="nonzero"/><g clip-path="url(#f1a9111e98)"><path fill="#f37b17" d="M 326.128906 179.804688 L 347.472656 229.914062 L 126.648438 357.335938 L 134.394531 290.4375 L 326.128906 179.804688 " fill-opacity="1" fill-rule="nonzero"/></g><g clip-path="url(#2bdf3b38cd)"><path fill="#f0a517" d="M 44.8125 238.75 L 23.472656 297.800781 L 126.648438 357.335938 L 134.394531 290.4375 L 44.8125 238.75 " fill-opacity="1" fill-rule="nonzero"/></g><path fill="#f4e06e" d="M 173.285156 268 L 107.726562 202.476562 L 152.113281 176.789062 L 217.71875 242.359375 L 173.285156 268 " fill-opacity="1" fill-rule="nonzero"/><path fill="#f5aa52" d="M 173.296875 268.011719 L 173.285156 268 L 217.71875 242.359375 L 217.761719 242.398438 L 173.296875 268.011719 " fill-opacity="1" fill-rule="nonzero"/><path fill="#f4e06e" d="M 235.921875 231.855469 L 170.355469 166.320312 L 185.277344 157.730469 L 210.222656 182.664062 L 199.253906 176.335938 L 195.933594 178.253906 L 219.289062 191.726562 L 227.992188 200.425781 L 199.816406 184.167969 L 196.5 186.082031 L 225.664062 202.914062 L 228.714844 201.148438 L 250.832031 223.253906 L 236.617188 231.453125 L 235.921875 231.855469 " fill-opacity="1" fill-rule="nonzero"/><path fill="#f5aa52" d="M 219.289062 191.726562 L 195.933594 178.253906 L 199.253906 176.335938 L 210.222656 182.664062 L 219.289062 191.726562 " fill-opacity="1" fill-rule="nonzero"/><path fill="#f5aa52" d="M 225.664062 202.914062 L 196.5 186.082031 L 199.816406 184.167969 L 227.992188 200.425781 L 228.714844 201.148438 L 225.664062 202.914062 " fill-opacity="1" fill-rule="nonzero"/><path fill="#f5aa52" d="M 236.617188 231.453125 L 250.832031 223.253906 L 250.84375 223.265625 L 236.617188 231.453125 " fill-opacity="1" fill-rule="nonzero"/><g fill="#ffffff" fill-opacity="1"><g transform="translate(123.695549, 105.48071)"><g><path d="M 55.484375 -11.1875 L 55.484375 0 L 10 0 L 6.453125 -8.8125 L 29.453125 -34.734375 C 32.398438 -38.023438 35.085938 -41.316406 37.515625 -44.609375 C 39.953125 -47.910156 41.171875 -51.28125 41.171875 -54.71875 C 41.171875 -58.300781 40.128906 -61.003906 38.046875 -62.828125 C 35.972656 -64.660156 33.253906 -65.578125 29.890625 -65.578125 C 28.242188 -65.578125 26.414062 -65.078125 24.40625 -64.078125 C 22.394531 -63.078125 20.492188 -61.5 18.703125 -59.34375 C 16.910156 -57.195312 15.476562 -54.367188 14.40625 -50.859375 L 5.484375 -56.453125 C 7.421875 -63.109375 10.769531 -68.085938 15.53125 -71.390625 C 20.300781 -74.691406 25.550781 -76.34375 31.28125 -76.34375 C 35.375 -76.34375 39.066406 -75.5 42.359375 -73.8125 C 45.660156 -72.125 48.273438 -69.738281 50.203125 -66.65625 C 52.140625 -63.570312 53.109375 -59.878906 53.109375 -55.578125 C 53.109375 -50.640625 51.617188 -45.75 48.640625 -40.90625 C 45.671875 -36.070312 42.035156 -31.289062 37.734375 -26.5625 L 23.65625 -11.1875 Z M 55.484375 -11.1875 "/></g></g></g><g fill="#ffffff" fill-opacity="1"><g transform="translate(182.613468, 105.48071)"><g><path d="M 56.546875 -21.5 C 56.546875 -17.488281 55.414062 -13.832031 53.15625 -10.53125 C 50.90625 -7.238281 47.863281 -4.601562 44.03125 -2.625 C 40.195312 -0.65625 35.878906 0.328125 31.078125 0.328125 C 26.335938 0.328125 22.050781 -0.65625 18.21875 -2.625 C 14.382812 -4.601562 11.335938 -7.238281 9.078125 -10.53125 C 6.828125 -13.832031 5.703125 -17.488281 5.703125 -21.5 C 5.703125 -26.226562 6.898438 -30.078125 9.296875 -33.046875 C 11.703125 -36.023438 14.445312 -38.34375 17.53125 -40 C 14.875 -41.289062 12.539062 -43.148438 10.53125 -45.578125 C 8.53125 -48.015625 7.53125 -51.0625 7.53125 -54.71875 C 7.53125 -58.445312 8.566406 -61.867188 10.640625 -64.984375 C 12.722656 -68.109375 15.554688 -70.601562 19.140625 -72.46875 C 22.722656 -74.332031 26.703125 -75.265625 31.078125 -75.265625 C 35.515625 -75.265625 39.503906 -74.332031 43.046875 -72.46875 C 46.597656 -70.601562 49.414062 -68.109375 51.5 -64.984375 C 53.582031 -61.867188 54.625 -58.445312 54.625 -54.71875 C 54.625 -52.070312 54.101562 -49.796875 53.0625 -47.890625 C 52.019531 -45.992188 50.707031 -44.398438 49.125 -43.109375 C 47.550781 -41.816406 45.941406 -40.78125 44.296875 -40 C 47.953125 -38.0625 50.90625 -35.441406 53.15625 -32.140625 C 55.414062 -28.847656 56.546875 -25.300781 56.546875 -21.5 Z M 19.03125 -54.40625 C 19.03125 -51.539062 20.210938 -49.175781 22.578125 -47.3125 C 24.941406 -45.445312 27.773438 -44.515625 31.078125 -44.515625 C 34.441406 -44.515625 37.285156 -45.445312 39.609375 -47.3125 C 41.941406 -49.175781 43.109375 -51.539062 43.109375 -54.40625 C 43.109375 -57.195312 41.976562 -59.578125 39.71875 -61.546875 C 37.46875 -63.523438 34.585938 -64.515625 31.078125 -64.515625 C 27.554688 -64.515625 24.664062 -63.523438 22.40625 -61.546875 C 20.15625 -59.578125 19.03125 -57.195312 19.03125 -54.40625 Z M 31.078125 -10.421875 C 35.085938 -10.421875 38.414062 -11.53125 41.0625 -13.75 C 43.71875 -15.976562 45.046875 -18.707031 45.046875 -21.9375 C 45.046875 -25.59375 43.679688 -28.546875 40.953125 -30.796875 C 38.234375 -33.054688 34.941406 -34.1875 31.078125 -34.1875 C 27.273438 -34.1875 24.007812 -33.054688 21.28125 -30.796875 C 18.5625 -28.546875 17.203125 -25.59375 17.203125 -21.9375 C 17.203125 -18.707031 18.523438 -15.976562 21.171875 -13.75 C 23.828125 -11.53125 27.128906 -10.421875 31.078125 -10.421875 Z M 31.078125 -10.421875 "/></g></g></g></svg>