<svg xmlns="http://www.w3.org/2000/svg" xmlns:xlink="http://www.w3.org/1999/xlink" width="500" zoomAndPan="magnify" viewBox="0 0 375 374.999991" height="500" preserveAspectRatio="xMidYMid meet" version="1.0"><defs><g/><clipPath id="e4157d3f25"><path d="M 6.570312 0 L 369.714844 0 L 369.714844 375 L 6.570312 375 Z M 6.570312 0 " clip-rule="nonzero"/></clipPath><clipPath id="6e514f4507"><path d="M 20.820312 0 L 355.464844 0 C 359.242188 0 362.867188 1.5 365.539062 4.171875 C 368.210938 6.847656 369.714844 10.46875 369.714844 14.25 L 369.714844 360.75 C 369.714844 364.527344 368.210938 368.152344 365.539062 370.828125 C 362.867188 373.5 359.242188 375 355.464844 375 L 20.820312 375 C 17.039062 375 13.414062 373.5 10.742188 370.828125 C 8.070312 368.152344 6.570312 364.527344 6.570312 360.75 L 6.570312 14.25 C 6.570312 10.46875 8.070312 6.847656 10.742188 4.171875 C 13.414062 1.5 17.039062 0 20.820312 0 Z M 20.820312 0 " clip-rule="nonzero"/></clipPath><clipPath id="3599323fc8"><path d="M 66 116 L 290 116 L 290 366 L 66 366 Z M 66 116 " clip-rule="nonzero"/></clipPath><clipPath id="63f39481b9"><path d="M 117.28125 116.621094 L 290.394531 160.148438 L 238.636719 365.992188 L 65.523438 322.464844 Z M 117.28125 116.621094 " clip-rule="nonzero"/></clipPath><clipPath id="f1c7bcee72"><path d="M 117.28125 116.621094 L 290.394531 160.148438 L 238.636719 365.992188 L 65.523438 322.464844 Z M 117.28125 116.621094 " clip-rule="nonzero"/></clipPath><clipPath id="ad340d2aab"><path d="M 117.28125 116.621094 L 290.394531 160.148438 L 238.636719 365.992188 L 65.523438 322.464844 Z M 117.28125 116.621094 " clip-rule="nonzero"/></clipPath><clipPath id="a906de14ba"><path d="M 117.351562 116.640625 L 290.363281 160.140625 L 238.597656 366.019531 L 65.585938 322.515625 Z M 117.351562 116.640625 " clip-rule="nonzero"/></clipPath><clipPath id="790566705b"><path d="M 117.351562 116.640625 L 290.328125 160.132812 L 238.570312 365.976562 L 65.59375 322.480469 Z M 117.351562 116.640625 " clip-rule="nonzero"/></clipPath><clipPath id="787d814276"><path d="M 135 276 L 177 276 L 177 320 L 135 320 Z M 135 276 " clip-rule="nonzero"/></clipPath><clipPath id="87cac62ed2"><path d="M 117.28125 116.621094 L 290.394531 160.148438 L 238.636719 365.992188 L 65.523438 322.464844 Z M 117.28125 116.621094 " clip-rule="nonzero"/></clipPath><clipPath id="9ec31dbabf"><path d="M 117.28125 116.621094 L 290.394531 160.148438 L 238.636719 365.992188 L 65.523438 322.464844 Z M 117.28125 116.621094 " clip-rule="nonzero"/></clipPath><clipPath id="a8a555afe9"><path d="M 117.28125 116.621094 L 290.394531 160.148438 L 238.636719 365.992188 L 65.523438 322.464844 Z M 117.28125 116.621094 " clip-rule="nonzero"/></clipPath><clipPath id="4747ae6854"><path d="M 136 276 L 176 276 L 176 318 L 136 318 Z M 136 276 " clip-rule="nonzero"/></clipPath><clipPath id="6f7fc2f840"><path d="M 117.28125 116.621094 L 290.394531 160.148438 L 238.636719 365.992188 L 65.523438 322.464844 Z M 117.28125 116.621094 " clip-rule="nonzero"/></clipPath><clipPath id="5323c3de5d"><path d="M 117.28125 116.621094 L 290.394531 160.148438 L 238.636719 365.992188 L 65.523438 322.464844 Z M 117.28125 116.621094 " clip-rule="nonzero"/></clipPath><clipPath id="1b51ea1ea7"><path d="M 117.28125 116.621094 L 290.394531 160.148438 L 238.636719 365.992188 L 65.523438 322.464844 Z M 117.28125 116.621094 " clip-rule="nonzero"/></clipPath><clipPath id="a2702774a1"><path d="M 145 297 L 150 297 L 150 302 L 145 302 Z M 145 297 " clip-rule="nonzero"/></clipPath><clipPath id="0f52bc44f4"><path d="M 117.28125 116.621094 L 290.394531 160.148438 L 238.636719 365.992188 L 65.523438 322.464844 Z M 117.28125 116.621094 " clip-rule="nonzero"/></clipPath><clipPath id="98a00cb57a"><path d="M 117.28125 116.621094 L 290.394531 160.148438 L 238.636719 365.992188 L 65.523438 322.464844 Z M 117.28125 116.621094 " clip-rule="nonzero"/></clipPath><clipPath id="e0f29f3151"><path d="M 117.28125 116.621094 L 290.394531 160.148438 L 238.636719 365.992188 L 65.523438 322.464844 Z M 117.28125 116.621094 " clip-rule="nonzero"/></clipPath><clipPath id="9d5304c80a"><path d="M 155 288 L 161 288 L 161 294 L 155 294 Z M 155 288 " clip-rule="nonzero"/></clipPath><clipPath id="6abcef42a4"><path d="M 117.28125 116.621094 L 290.394531 160.148438 L 238.636719 365.992188 L 65.523438 322.464844 Z M 117.28125 116.621094 " clip-rule="nonzero"/></clipPath><clipPath id="1214520395"><path d="M 117.28125 116.621094 L 290.394531 160.148438 L 238.636719 365.992188 L 65.523438 322.464844 Z M 117.28125 116.621094 " clip-rule="nonzero"/></clipPath><clipPath id="5f2f88cd02"><path d="M 117.28125 116.621094 L 290.394531 160.148438 L 238.636719 365.992188 L 65.523438 322.464844 Z M 117.28125 116.621094 " clip-rule="nonzero"/></clipPath><clipPath id="b00c7a4b59"><path d="M 154 297 L 160 297 L 160 302 L 154 302 Z M 154 297 " clip-rule="nonzero"/></clipPath><clipPath id="bcba3ea762"><path d="M 117.28125 116.621094 L 290.394531 160.148438 L 238.636719 365.992188 L 65.523438 322.464844 Z M 117.28125 116.621094 " clip-rule="nonzero"/></clipPath><clipPath id="44826d8330"><path d="M 117.28125 116.621094 L 290.394531 160.148438 L 238.636719 365.992188 L 65.523438 322.464844 Z M 117.28125 116.621094 " clip-rule="nonzero"/></clipPath><clipPath id="b4c56b8e62"><path d="M 117.28125 116.621094 L 290.394531 160.148438 L 238.636719 365.992188 L 65.523438 322.464844 Z M 117.28125 116.621094 " clip-rule="nonzero"/></clipPath><clipPath id="be16639f2f"><path d="M 161 305 L 166 305 L 166 310 L 161 310 Z M 161 305 " clip-rule="nonzero"/></clipPath><clipPath id="f288b30420"><path d="M 117.28125 116.621094 L 290.394531 160.148438 L 238.636719 365.992188 L 65.523438 322.464844 Z M 117.28125 116.621094 " clip-rule="nonzero"/></clipPath><clipPath id="311f00c6b2"><path d="M 117.28125 116.621094 L 290.394531 160.148438 L 238.636719 365.992188 L 65.523438 322.464844 Z M 117.28125 116.621094 " clip-rule="nonzero"/></clipPath><clipPath id="ebd19f82e9"><path d="M 117.28125 116.621094 L 290.394531 160.148438 L 238.636719 365.992188 L 65.523438 322.464844 Z M 117.28125 116.621094 " clip-rule="nonzero"/></clipPath><clipPath id="6a7c56f70a"><path d="M 163 293 L 169 293 L 169 299 L 163 299 Z M 163 293 " clip-rule="nonzero"/></clipPath><clipPath id="84b0fc38fb"><path d="M 117.28125 116.621094 L 290.394531 160.148438 L 238.636719 365.992188 L 65.523438 322.464844 Z M 117.28125 116.621094 " clip-rule="nonzero"/></clipPath><clipPath id="6df5d51c9a"><path d="M 117.28125 116.621094 L 290.394531 160.148438 L 238.636719 365.992188 L 65.523438 322.464844 Z M 117.28125 116.621094 " clip-rule="nonzero"/></clipPath><clipPath id="cf0de0d185"><path d="M 117.28125 116.621094 L 290.394531 160.148438 L 238.636719 365.992188 L 65.523438 322.464844 Z M 117.28125 116.621094 " clip-rule="nonzero"/></clipPath><clipPath id="af0555f2e5"><path d="M 166 283 L 172 283 L 172 288 L 166 288 Z M 166 283 " clip-rule="nonzero"/></clipPath><clipPath id="3b3ba1a7dd"><path d="M 117.28125 116.621094 L 290.394531 160.148438 L 238.636719 365.992188 L 65.523438 322.464844 Z M 117.28125 116.621094 " clip-rule="nonzero"/></clipPath><clipPath id="f3f800378b"><path d="M 117.28125 116.621094 L 290.394531 160.148438 L 238.636719 365.992188 L 65.523438 322.464844 Z M 117.28125 116.621094 " clip-rule="nonzero"/></clipPath><clipPath id="b664c595ca"><path d="M 117.28125 116.621094 L 290.394531 160.148438 L 238.636719 365.992188 L 65.523438 322.464844 Z M 117.28125 116.621094 " clip-rule="nonzero"/></clipPath><clipPath id="f78524c0ae"><path d="M 170 303 L 176 303 L 176 308 L 170 308 Z M 170 303 " clip-rule="nonzero"/></clipPath><clipPath id="cc677cc9c2"><path d="M 117.28125 116.621094 L 290.394531 160.148438 L 238.636719 365.992188 L 65.523438 322.464844 Z M 117.28125 116.621094 " clip-rule="nonzero"/></clipPath><clipPath id="0465394821"><path d="M 117.28125 116.621094 L 290.394531 160.148438 L 238.636719 365.992188 L 65.523438 322.464844 Z M 117.28125 116.621094 " clip-rule="nonzero"/></clipPath><clipPath id="9329ec28a2"><path d="M 117.28125 116.621094 L 290.394531 160.148438 L 238.636719 365.992188 L 65.523438 322.464844 Z M 117.28125 116.621094 " clip-rule="nonzero"/></clipPath><clipPath id="34a6cc7168"><path d="M 167 312 L 172 312 L 172 317 L 167 317 Z M 167 312 " clip-rule="nonzero"/></clipPath><clipPath id="fad6e3fc9b"><path d="M 117.28125 116.621094 L 290.394531 160.148438 L 238.636719 365.992188 L 65.523438 322.464844 Z M 117.28125 116.621094 " clip-rule="nonzero"/></clipPath><clipPath id="86789dfb0d"><path d="M 117.28125 116.621094 L 290.394531 160.148438 L 238.636719 365.992188 L 65.523438 322.464844 Z M 117.28125 116.621094 " clip-rule="nonzero"/></clipPath><clipPath id="93405a8b9e"><path d="M 117.28125 116.621094 L 290.394531 160.148438 L 238.636719 365.992188 L 65.523438 322.464844 Z M 117.28125 116.621094 " clip-rule="nonzero"/></clipPath><clipPath id="b6d33758be"><path d="M 150 305 L 155 305 L 155 310 L 150 310 Z M 150 305 " clip-rule="nonzero"/></clipPath><clipPath id="ff1c87a09f"><path d="M 117.28125 116.621094 L 290.394531 160.148438 L 238.636719 365.992188 L 65.523438 322.464844 Z M 117.28125 116.621094 " clip-rule="nonzero"/></clipPath><clipPath id="19edf8002b"><path d="M 117.28125 116.621094 L 290.394531 160.148438 L 238.636719 365.992188 L 65.523438 322.464844 Z M 117.28125 116.621094 " clip-rule="nonzero"/></clipPath><clipPath id="2132c02c25"><path d="M 117.28125 116.621094 L 290.394531 160.148438 L 238.636719 365.992188 L 65.523438 322.464844 Z M 117.28125 116.621094 " clip-rule="nonzero"/></clipPath><clipPath id="f984c8b1cd"><path d="M 187 291 L 231 291 L 231 333 L 187 333 Z M 187 291 " clip-rule="nonzero"/></clipPath><clipPath id="fe3d51b373"><path d="M 117.28125 116.621094 L 290.394531 160.148438 L 238.636719 365.992188 L 65.523438 322.464844 Z M 117.28125 116.621094 " clip-rule="nonzero"/></clipPath><clipPath id="3237c3f416"><path d="M 117.28125 116.621094 L 290.394531 160.148438 L 238.636719 365.992188 L 65.523438 322.464844 Z M 117.28125 116.621094 " clip-rule="nonzero"/></clipPath><clipPath id="c3fca04503"><path d="M 117.28125 116.621094 L 290.394531 160.148438 L 238.636719 365.992188 L 65.523438 322.464844 Z M 117.28125 116.621094 " clip-rule="nonzero"/></clipPath><clipPath id="4a164dda34"><path d="M 188 292 L 230 292 L 230 332 L 188 332 Z M 188 292 " clip-rule="nonzero"/></clipPath><clipPath id="cb5d029179"><path d="M 117.28125 116.621094 L 290.394531 160.148438 L 238.636719 365.992188 L 65.523438 322.464844 Z M 117.28125 116.621094 " clip-rule="nonzero"/></clipPath><clipPath id="ed889bea44"><path d="M 117.28125 116.621094 L 290.394531 160.148438 L 238.636719 365.992188 L 65.523438 322.464844 Z M 117.28125 116.621094 " clip-rule="nonzero"/></clipPath><clipPath id="4af1fbda88"><path d="M 117.28125 116.621094 L 290.394531 160.148438 L 238.636719 365.992188 L 65.523438 322.464844 Z M 117.28125 116.621094 " clip-rule="nonzero"/></clipPath><clipPath id="9640158ac3"><path d="M 201 300 L 207 300 L 207 306 L 201 306 Z M 201 300 " clip-rule="nonzero"/></clipPath><clipPath id="d2282926f6"><path d="M 117.28125 116.621094 L 290.394531 160.148438 L 238.636719 365.992188 L 65.523438 322.464844 Z M 117.28125 116.621094 " clip-rule="nonzero"/></clipPath><clipPath id="b0bf6dba65"><path d="M 117.28125 116.621094 L 290.394531 160.148438 L 238.636719 365.992188 L 65.523438 322.464844 Z M 117.28125 116.621094 " clip-rule="nonzero"/></clipPath><clipPath id="e1380fce18"><path d="M 117.28125 116.621094 L 290.394531 160.148438 L 238.636719 365.992188 L 65.523438 322.464844 Z M 117.28125 116.621094 " clip-rule="nonzero"/></clipPath><clipPath id="22615005f4"><path d="M 211 310 L 217 310 L 217 315 L 211 315 Z M 211 310 " clip-rule="nonzero"/></clipPath><clipPath id="bafbc177cb"><path d="M 117.28125 116.621094 L 290.394531 160.148438 L 238.636719 365.992188 L 65.523438 322.464844 Z M 117.28125 116.621094 " clip-rule="nonzero"/></clipPath><clipPath id="aae5d63f44"><path d="M 117.28125 116.621094 L 290.394531 160.148438 L 238.636719 365.992188 L 65.523438 322.464844 Z M 117.28125 116.621094 " clip-rule="nonzero"/></clipPath><clipPath id="b0ba806d5f"><path d="M 117.28125 116.621094 L 290.394531 160.148438 L 238.636719 365.992188 L 65.523438 322.464844 Z M 117.28125 116.621094 " clip-rule="nonzero"/></clipPath><clipPath id="92b9f99a4f"><path d="M 203 310 L 208 310 L 208 315 L 203 315 Z M 203 310 " clip-rule="nonzero"/></clipPath><clipPath id="0f96094657"><path d="M 117.28125 116.621094 L 290.394531 160.148438 L 238.636719 365.992188 L 65.523438 322.464844 Z M 117.28125 116.621094 " clip-rule="nonzero"/></clipPath><clipPath id="6ec534684f"><path d="M 117.28125 116.621094 L 290.394531 160.148438 L 238.636719 365.992188 L 65.523438 322.464844 Z M 117.28125 116.621094 " clip-rule="nonzero"/></clipPath><clipPath id="f532e78046"><path d="M 117.28125 116.621094 L 290.394531 160.148438 L 238.636719 365.992188 L 65.523438 322.464844 Z M 117.28125 116.621094 " clip-rule="nonzero"/></clipPath><clipPath id="b00f83ecb1"><path d="M 196 317 L 201 317 L 201 323 L 196 323 Z M 196 317 " clip-rule="nonzero"/></clipPath><clipPath id="ec1a5838ad"><path d="M 117.28125 116.621094 L 290.394531 160.148438 L 238.636719 365.992188 L 65.523438 322.464844 Z M 117.28125 116.621094 " clip-rule="nonzero"/></clipPath><clipPath id="b09dbbd690"><path d="M 117.28125 116.621094 L 290.394531 160.148438 L 238.636719 365.992188 L 65.523438 322.464844 Z M 117.28125 116.621094 " clip-rule="nonzero"/></clipPath><clipPath id="34a75f8269"><path d="M 117.28125 116.621094 L 290.394531 160.148438 L 238.636719 365.992188 L 65.523438 322.464844 Z M 117.28125 116.621094 " clip-rule="nonzero"/></clipPath><clipPath id="61391c6575"><path d="M 207 318 L 213 318 L 213 324 L 207 324 Z M 207 318 " clip-rule="nonzero"/></clipPath><clipPath id="4b78764e8a"><path d="M 117.28125 116.621094 L 290.394531 160.148438 L 238.636719 365.992188 L 65.523438 322.464844 Z M 117.28125 116.621094 " clip-rule="nonzero"/></clipPath><clipPath id="6ca952cb33"><path d="M 117.28125 116.621094 L 290.394531 160.148438 L 238.636719 365.992188 L 65.523438 322.464844 Z M 117.28125 116.621094 " clip-rule="nonzero"/></clipPath><clipPath id="c5afed0d29"><path d="M 117.28125 116.621094 L 290.394531 160.148438 L 238.636719 365.992188 L 65.523438 322.464844 Z M 117.28125 116.621094 " clip-rule="nonzero"/></clipPath><clipPath id="02d9410f98"><path d="M 218 320 L 223 320 L 223 325 L 218 325 Z M 218 320 " clip-rule="nonzero"/></clipPath><clipPath id="a0444cfbda"><path d="M 117.28125 116.621094 L 290.394531 160.148438 L 238.636719 365.992188 L 65.523438 322.464844 Z M 117.28125 116.621094 " clip-rule="nonzero"/></clipPath><clipPath id="cc7763eb76"><path d="M 117.28125 116.621094 L 290.394531 160.148438 L 238.636719 365.992188 L 65.523438 322.464844 Z M 117.28125 116.621094 " clip-rule="nonzero"/></clipPath><clipPath id="cd07e61beb"><path d="M 117.28125 116.621094 L 290.394531 160.148438 L 238.636719 365.992188 L 65.523438 322.464844 Z M 117.28125 116.621094 " clip-rule="nonzero"/></clipPath><clipPath id="e20e45d92e"><path d="M 198 326 L 204 326 L 204 332 L 198 332 Z M 198 326 " clip-rule="nonzero"/></clipPath><clipPath id="466bac406e"><path d="M 117.28125 116.621094 L 290.394531 160.148438 L 238.636719 365.992188 L 65.523438 322.464844 Z M 117.28125 116.621094 " clip-rule="nonzero"/></clipPath><clipPath id="33531ad198"><path d="M 117.28125 116.621094 L 290.394531 160.148438 L 238.636719 365.992188 L 65.523438 322.464844 Z M 117.28125 116.621094 " clip-rule="nonzero"/></clipPath><clipPath id="02e3dfb8e1"><path d="M 117.28125 116.621094 L 290.394531 160.148438 L 238.636719 365.992188 L 65.523438 322.464844 Z M 117.28125 116.621094 " clip-rule="nonzero"/></clipPath><clipPath id="ecfca12803"><path d="M 189 324 L 195 324 L 195 329 L 189 329 Z M 189 324 " clip-rule="nonzero"/></clipPath><clipPath id="e414f9850a"><path d="M 117.28125 116.621094 L 290.394531 160.148438 L 238.636719 365.992188 L 65.523438 322.464844 Z M 117.28125 116.621094 " clip-rule="nonzero"/></clipPath><clipPath id="562a609a5c"><path d="M 117.28125 116.621094 L 290.394531 160.148438 L 238.636719 365.992188 L 65.523438 322.464844 Z M 117.28125 116.621094 " clip-rule="nonzero"/></clipPath><clipPath id="b2f1483b42"><path d="M 117.28125 116.621094 L 290.394531 160.148438 L 238.636719 365.992188 L 65.523438 322.464844 Z M 117.28125 116.621094 " clip-rule="nonzero"/></clipPath><clipPath id="ed6cbc5283"><path d="M 194 306 L 200 306 L 200 312 L 194 312 Z M 194 306 " clip-rule="nonzero"/></clipPath><clipPath id="b438e2e9fc"><path d="M 117.28125 116.621094 L 290.394531 160.148438 L 238.636719 365.992188 L 65.523438 322.464844 Z M 117.28125 116.621094 " clip-rule="nonzero"/></clipPath><clipPath id="0f46c8d0c9"><path d="M 117.28125 116.621094 L 290.394531 160.148438 L 238.636719 365.992188 L 65.523438 322.464844 Z M 117.28125 116.621094 " clip-rule="nonzero"/></clipPath><clipPath id="a7f38c6e62"><path d="M 117.28125 116.621094 L 290.394531 160.148438 L 238.636719 365.992188 L 65.523438 322.464844 Z M 117.28125 116.621094 " clip-rule="nonzero"/></clipPath><clipPath id="f8b5c68047"><path d="M 166 258 L 210 258 L 210 300 L 166 300 Z M 166 258 " clip-rule="nonzero"/></clipPath><clipPath id="c9486bbdee"><path d="M 117.28125 116.621094 L 290.394531 160.148438 L 238.636719 365.992188 L 65.523438 322.464844 Z M 117.28125 116.621094 " clip-rule="nonzero"/></clipPath><clipPath id="9297ac1401"><path d="M 117.28125 116.621094 L 290.394531 160.148438 L 238.636719 365.992188 L 65.523438 322.464844 Z M 117.28125 116.621094 " clip-rule="nonzero"/></clipPath><clipPath id="1d38c1c387"><path d="M 117.28125 116.621094 L 290.394531 160.148438 L 238.636719 365.992188 L 65.523438 322.464844 Z M 117.28125 116.621094 " clip-rule="nonzero"/></clipPath><clipPath id="1d78610d3f"><path d="M 167 259 L 209 259 L 209 299 L 167 299 Z M 167 259 " clip-rule="nonzero"/></clipPath><clipPath id="e9a77480fd"><path d="M 117.28125 116.621094 L 290.394531 160.148438 L 238.636719 365.992188 L 65.523438 322.464844 Z M 117.28125 116.621094 " clip-rule="nonzero"/></clipPath><clipPath id="3c391d33a3"><path d="M 117.28125 116.621094 L 290.394531 160.148438 L 238.636719 365.992188 L 65.523438 322.464844 Z M 117.28125 116.621094 " clip-rule="nonzero"/></clipPath><clipPath id="4e45ad4963"><path d="M 117.28125 116.621094 L 290.394531 160.148438 L 238.636719 365.992188 L 65.523438 322.464844 Z M 117.28125 116.621094 " clip-rule="nonzero"/></clipPath><clipPath id="ca3080630a"><path d="M 186 285 L 192 285 L 192 291 L 186 291 Z M 186 285 " clip-rule="nonzero"/></clipPath><clipPath id="d4fd38eced"><path d="M 117.28125 116.621094 L 290.394531 160.148438 L 238.636719 365.992188 L 65.523438 322.464844 Z M 117.28125 116.621094 " clip-rule="nonzero"/></clipPath><clipPath id="a6b5600f68"><path d="M 117.28125 116.621094 L 290.394531 160.148438 L 238.636719 365.992188 L 65.523438 322.464844 Z M 117.28125 116.621094 " clip-rule="nonzero"/></clipPath><clipPath id="ea2dd58328"><path d="M 117.28125 116.621094 L 290.394531 160.148438 L 238.636719 365.992188 L 65.523438 322.464844 Z M 117.28125 116.621094 " clip-rule="nonzero"/></clipPath><clipPath id="a6b1dafe65"><path d="M 178 274 L 184 274 L 184 280 L 178 280 Z M 178 274 " clip-rule="nonzero"/></clipPath><clipPath id="880e50ac07"><path d="M 117.28125 116.621094 L 290.394531 160.148438 L 238.636719 365.992188 L 65.523438 322.464844 Z M 117.28125 116.621094 " clip-rule="nonzero"/></clipPath><clipPath id="7fb68964cc"><path d="M 117.28125 116.621094 L 290.394531 160.148438 L 238.636719 365.992188 L 65.523438 322.464844 Z M 117.28125 116.621094 " clip-rule="nonzero"/></clipPath><clipPath id="bfa1f46e8d"><path d="M 117.28125 116.621094 L 290.394531 160.148438 L 238.636719 365.992188 L 65.523438 322.464844 Z M 117.28125 116.621094 " clip-rule="nonzero"/></clipPath><clipPath id="a73ecb7da7"><path d="M 186 276 L 192 276 L 192 281 L 186 281 Z M 186 276 " clip-rule="nonzero"/></clipPath><clipPath id="2ff312d54e"><path d="M 117.28125 116.621094 L 290.394531 160.148438 L 238.636719 365.992188 L 65.523438 322.464844 Z M 117.28125 116.621094 " clip-rule="nonzero"/></clipPath><clipPath id="afd515c203"><path d="M 117.28125 116.621094 L 290.394531 160.148438 L 238.636719 365.992188 L 65.523438 322.464844 Z M 117.28125 116.621094 " clip-rule="nonzero"/></clipPath><clipPath id="c0599335f4"><path d="M 117.28125 116.621094 L 290.394531 160.148438 L 238.636719 365.992188 L 65.523438 322.464844 Z M 117.28125 116.621094 " clip-rule="nonzero"/></clipPath><clipPath id="5e5cb192f3"><path d="M 195 269 L 200 269 L 200 275 L 195 275 Z M 195 269 " clip-rule="nonzero"/></clipPath><clipPath id="3c84c6a536"><path d="M 117.28125 116.621094 L 290.394531 160.148438 L 238.636719 365.992188 L 65.523438 322.464844 Z M 117.28125 116.621094 " clip-rule="nonzero"/></clipPath><clipPath id="b29880f1ca"><path d="M 117.28125 116.621094 L 290.394531 160.148438 L 238.636719 365.992188 L 65.523438 322.464844 Z M 117.28125 116.621094 " clip-rule="nonzero"/></clipPath><clipPath id="65f87fb3cd"><path d="M 117.28125 116.621094 L 290.394531 160.148438 L 238.636719 365.992188 L 65.523438 322.464844 Z M 117.28125 116.621094 " clip-rule="nonzero"/></clipPath><clipPath id="86e1efb733"><path d="M 183 266 L 189 266 L 189 272 L 183 272 Z M 183 266 " clip-rule="nonzero"/></clipPath><clipPath id="aa63967093"><path d="M 117.28125 116.621094 L 290.394531 160.148438 L 238.636719 365.992188 L 65.523438 322.464844 Z M 117.28125 116.621094 " clip-rule="nonzero"/></clipPath><clipPath id="5056a0011d"><path d="M 117.28125 116.621094 L 290.394531 160.148438 L 238.636719 365.992188 L 65.523438 322.464844 Z M 117.28125 116.621094 " clip-rule="nonzero"/></clipPath><clipPath id="238462e5fa"><path d="M 117.28125 116.621094 L 290.394531 160.148438 L 238.636719 365.992188 L 65.523438 322.464844 Z M 117.28125 116.621094 " clip-rule="nonzero"/></clipPath><clipPath id="b462196fc8"><path d="M 173 263 L 179 263 L 179 268 L 173 268 Z M 173 263 " clip-rule="nonzero"/></clipPath><clipPath id="faf20c5270"><path d="M 117.28125 116.621094 L 290.394531 160.148438 L 238.636719 365.992188 L 65.523438 322.464844 Z M 117.28125 116.621094 " clip-rule="nonzero"/></clipPath><clipPath id="ae85244de7"><path d="M 117.28125 116.621094 L 290.394531 160.148438 L 238.636719 365.992188 L 65.523438 322.464844 Z M 117.28125 116.621094 " clip-rule="nonzero"/></clipPath><clipPath id="037c7823d5"><path d="M 117.28125 116.621094 L 290.394531 160.148438 L 238.636719 365.992188 L 65.523438 322.464844 Z M 117.28125 116.621094 " clip-rule="nonzero"/></clipPath><clipPath id="5f8d4bba24"><path d="M 194 260 L 199 260 L 199 265 L 194 265 Z M 194 260 " clip-rule="nonzero"/></clipPath><clipPath id="3669a6f6b9"><path d="M 117.28125 116.621094 L 290.394531 160.148438 L 238.636719 365.992188 L 65.523438 322.464844 Z M 117.28125 116.621094 " clip-rule="nonzero"/></clipPath><clipPath id="f3df79703a"><path d="M 117.28125 116.621094 L 290.394531 160.148438 L 238.636719 365.992188 L 65.523438 322.464844 Z M 117.28125 116.621094 " clip-rule="nonzero"/></clipPath><clipPath id="6c66d7d048"><path d="M 117.28125 116.621094 L 290.394531 160.148438 L 238.636719 365.992188 L 65.523438 322.464844 Z M 117.28125 116.621094 " clip-rule="nonzero"/></clipPath><clipPath id="565ba2e062"><path d="M 202 264 L 207 264 L 207 269 L 202 269 Z M 202 264 " clip-rule="nonzero"/></clipPath><clipPath id="2c070a63f4"><path d="M 117.28125 116.621094 L 290.394531 160.148438 L 238.636719 365.992188 L 65.523438 322.464844 Z M 117.28125 116.621094 " clip-rule="nonzero"/></clipPath><clipPath id="a12b04d4bc"><path d="M 117.28125 116.621094 L 290.394531 160.148438 L 238.636719 365.992188 L 65.523438 322.464844 Z M 117.28125 116.621094 " clip-rule="nonzero"/></clipPath><clipPath id="917b2599da"><path d="M 117.28125 116.621094 L 290.394531 160.148438 L 238.636719 365.992188 L 65.523438 322.464844 Z M 117.28125 116.621094 " clip-rule="nonzero"/></clipPath><clipPath id="3aacb61a40"><path d="M 194 280 L 200 280 L 200 286 L 194 286 Z M 194 280 " clip-rule="nonzero"/></clipPath><clipPath id="fa176f0fdc"><path d="M 117.28125 116.621094 L 290.394531 160.148438 L 238.636719 365.992188 L 65.523438 322.464844 Z M 117.28125 116.621094 " clip-rule="nonzero"/></clipPath><clipPath id="9777a8978d"><path d="M 117.28125 116.621094 L 290.394531 160.148438 L 238.636719 365.992188 L 65.523438 322.464844 Z M 117.28125 116.621094 " clip-rule="nonzero"/></clipPath><clipPath id="35f5c69def"><path d="M 117.28125 116.621094 L 290.394531 160.148438 L 238.636719 365.992188 L 65.523438 322.464844 Z M 117.28125 116.621094 " clip-rule="nonzero"/></clipPath><clipPath id="b93b94986d"><path d="M 110 169 L 265 169 L 265 253 L 110 253 Z M 110 169 " clip-rule="nonzero"/></clipPath><clipPath id="0508793872"><path d="M 117.28125 116.621094 L 290.394531 160.148438 L 238.636719 365.992188 L 65.523438 322.464844 Z M 117.28125 116.621094 " clip-rule="nonzero"/></clipPath><clipPath id="cd4423a865"><path d="M 117.28125 116.621094 L 290.394531 160.148438 L 238.636719 365.992188 L 65.523438 322.464844 Z M 117.28125 116.621094 " clip-rule="nonzero"/></clipPath><clipPath id="1dba80245a"><path d="M 117.28125 116.621094 L 290.394531 160.148438 L 238.636719 365.992188 L 65.523438 322.464844 Z M 117.28125 116.621094 " clip-rule="nonzero"/></clipPath><clipPath id="9cbaf0b8aa"><path d="M 219 267 L 248 267 L 248 286 L 219 286 Z M 219 267 " clip-rule="nonzero"/></clipPath><clipPath id="03e4a7f6e4"><path d="M 117.28125 116.621094 L 290.394531 160.148438 L 238.636719 365.992188 L 65.523438 322.464844 Z M 117.28125 116.621094 " clip-rule="nonzero"/></clipPath><clipPath id="2afc78a8d3"><path d="M 117.28125 116.621094 L 290.394531 160.148438 L 238.636719 365.992188 L 65.523438 322.464844 Z M 117.28125 116.621094 " clip-rule="nonzero"/></clipPath><clipPath id="204868d076"><path d="M 117.28125 116.621094 L 290.394531 160.148438 L 238.636719 365.992188 L 65.523438 322.464844 Z M 117.28125 116.621094 " clip-rule="nonzero"/></clipPath><clipPath id="ea24636f1a"><path d="M 71 292 L 121 292 L 121 329 L 71 329 Z M 71 292 " clip-rule="nonzero"/></clipPath><clipPath id="839299006b"><path d="M 117.28125 116.621094 L 290.394531 160.148438 L 238.636719 365.992188 L 65.523438 322.464844 Z M 117.28125 116.621094 " clip-rule="nonzero"/></clipPath><clipPath id="5ec6601bbd"><path d="M 117.28125 116.621094 L 290.394531 160.148438 L 238.636719 365.992188 L 65.523438 322.464844 Z M 117.28125 116.621094 " clip-rule="nonzero"/></clipPath><clipPath id="b8e890d973"><path d="M 117.28125 116.621094 L 290.394531 160.148438 L 238.636719 365.992188 L 65.523438 322.464844 Z M 117.28125 116.621094 " clip-rule="nonzero"/></clipPath><clipPath id="a4353a74c8"><path d="M 66 242 L 155 242 L 155 323 L 66 323 Z M 66 242 " clip-rule="nonzero"/></clipPath><clipPath id="8c1e93bb41"><path d="M 117.28125 116.621094 L 290.394531 160.148438 L 238.636719 365.992188 L 65.523438 322.464844 Z M 117.28125 116.621094 " clip-rule="nonzero"/></clipPath><clipPath id="9ca788ce59"><path d="M 117.28125 116.621094 L 290.394531 160.148438 L 238.636719 365.992188 L 65.523438 322.464844 Z M 117.28125 116.621094 " clip-rule="nonzero"/></clipPath><clipPath id="cdd0464507"><path d="M 117.28125 116.621094 L 290.394531 160.148438 L 238.636719 365.992188 L 65.523438 322.464844 Z M 117.28125 116.621094 " clip-rule="nonzero"/></clipPath><clipPath id="0f7d09bebb"><path d="M 113 333 L 240 333 L 240 366 L 113 366 Z M 113 333 " clip-rule="nonzero"/></clipPath><clipPath id="4560cc5176"><path d="M 117.28125 116.621094 L 290.394531 160.148438 L 238.636719 365.992188 L 65.523438 322.464844 Z M 117.28125 116.621094 " clip-rule="nonzero"/></clipPath><clipPath id="30fbe81013"><path d="M 117.28125 116.621094 L 290.394531 160.148438 L 238.636719 365.992188 L 65.523438 322.464844 Z M 117.28125 116.621094 " clip-rule="nonzero"/></clipPath><clipPath id="17294d446e"><path d="M 117.28125 116.621094 L 290.394531 160.148438 L 238.636719 365.992188 L 65.523438 322.464844 Z M 117.28125 116.621094 " clip-rule="nonzero"/></clipPath><clipPath id="362c1cdf84"><path d="M 113.519531 331.890625 L 239.230469 363.5 L 238.597656 366.019531 L 112.886719 334.40625 Z M 113.519531 331.890625 " clip-rule="nonzero"/></clipPath><clipPath id="c160ecbae9"><path d="M 113.519531 331.890625 L 239.195312 363.492188 L 238.570312 365.976562 L 112.894531 334.375 Z M 113.519531 331.890625 " clip-rule="nonzero"/></clipPath><clipPath id="c09f5b6629"><path d="M 66 308 L 242 308 L 242 366 L 66 366 Z M 66 308 " clip-rule="nonzero"/></clipPath><clipPath id="041b765259"><path d="M 117.28125 116.621094 L 290.394531 160.148438 L 238.636719 365.992188 L 65.523438 322.464844 Z M 117.28125 116.621094 " clip-rule="nonzero"/></clipPath><clipPath id="0aaae6b144"><path d="M 117.28125 116.621094 L 290.394531 160.148438 L 238.636719 365.992188 L 65.523438 322.464844 Z M 117.28125 116.621094 " clip-rule="nonzero"/></clipPath><clipPath id="e694eb4eb3"><path d="M 117.28125 116.621094 L 290.394531 160.148438 L 238.636719 365.992188 L 65.523438 322.464844 Z M 117.28125 116.621094 " clip-rule="nonzero"/></clipPath><clipPath id="3498423cec"><path d="M 70.164062 307.390625 L 242.445312 350.710938 L 238.597656 366.019531 L 66.316406 322.699219 Z M 70.164062 307.390625 " clip-rule="nonzero"/></clipPath><clipPath id="38e95070fb"><path d="M 70.164062 307.390625 L 242.410156 350.703125 L 238.570312 365.976562 L 66.324219 322.664062 Z M 70.164062 307.390625 " clip-rule="nonzero"/></clipPath><clipPath id="49574b333a"><path d="M 147 167 L 225 167 L 225 246 L 147 246 Z M 147 167 " clip-rule="nonzero"/></clipPath><clipPath id="05a9622c67"><path d="M 117.28125 116.621094 L 290.394531 160.148438 L 238.636719 365.992188 L 65.523438 322.464844 Z M 117.28125 116.621094 " clip-rule="nonzero"/></clipPath><clipPath id="b5a421c792"><path d="M 117.28125 116.621094 L 290.394531 160.148438 L 238.636719 365.992188 L 65.523438 322.464844 Z M 117.28125 116.621094 " clip-rule="nonzero"/></clipPath><clipPath id="602c94067d"><path d="M 117.28125 116.621094 L 290.394531 160.148438 L 238.636719 365.992188 L 65.523438 322.464844 Z M 117.28125 116.621094 " clip-rule="nonzero"/></clipPath><clipPath id="c0c15b1aa0"><path d="M 151 171 L 221 171 L 221 241 L 151 241 Z M 151 171 " clip-rule="nonzero"/></clipPath><clipPath id="cff2f1f551"><path d="M 117.28125 116.621094 L 290.394531 160.148438 L 238.636719 365.992188 L 65.523438 322.464844 Z M 117.28125 116.621094 " clip-rule="nonzero"/></clipPath><clipPath id="55be56ddb3"><path d="M 117.28125 116.621094 L 290.394531 160.148438 L 238.636719 365.992188 L 65.523438 322.464844 Z M 117.28125 116.621094 " clip-rule="nonzero"/></clipPath><clipPath id="e7cff7076d"><path d="M 117.28125 116.621094 L 290.394531 160.148438 L 238.636719 365.992188 L 65.523438 322.464844 Z M 117.28125 116.621094 " clip-rule="nonzero"/></clipPath><clipPath id="76bbbe859d"><path d="M 225 155 L 289 155 L 289 201 L 225 201 Z M 225 155 " clip-rule="nonzero"/></clipPath><clipPath id="72b4b5afef"><path d="M 117.28125 116.621094 L 290.394531 160.148438 L 238.636719 365.992188 L 65.523438 322.464844 Z M 117.28125 116.621094 " clip-rule="nonzero"/></clipPath><clipPath id="643df075cb"><path d="M 117.28125 116.621094 L 290.394531 160.148438 L 238.636719 365.992188 L 65.523438 322.464844 Z M 117.28125 116.621094 " clip-rule="nonzero"/></clipPath><clipPath id="6863e6e445"><path d="M 117.28125 116.621094 L 290.394531 160.148438 L 238.636719 365.992188 L 65.523438 322.464844 Z M 117.28125 116.621094 " clip-rule="nonzero"/></clipPath><clipPath id="5906b111d7"><path d="M 114 116 L 290 116 L 290 175 L 114 175 Z M 114 116 " clip-rule="nonzero"/></clipPath><clipPath id="5f16d98c5b"><path d="M 117.28125 116.621094 L 290.394531 160.148438 L 238.636719 365.992188 L 65.523438 322.464844 Z M 117.28125 116.621094 " clip-rule="nonzero"/></clipPath><clipPath id="baa4ea7ff1"><path d="M 117.28125 116.621094 L 290.394531 160.148438 L 238.636719 365.992188 L 65.523438 322.464844 Z M 117.28125 116.621094 " clip-rule="nonzero"/></clipPath><clipPath id="11ff207bf4"><path d="M 117.28125 116.621094 L 290.394531 160.148438 L 238.636719 365.992188 L 65.523438 322.464844 Z M 117.28125 116.621094 " clip-rule="nonzero"/></clipPath><clipPath id="c2967c0ca3"><path d="M 82 131 L 201 131 L 201 341 L 82 341 Z M 82 131 " clip-rule="nonzero"/></clipPath><clipPath id="9b1fd08eed"><path d="M 117.28125 116.621094 L 290.394531 160.148438 L 238.636719 365.992188 L 65.523438 322.464844 Z M 117.28125 116.621094 " clip-rule="nonzero"/></clipPath><clipPath id="0523427f21"><path d="M 117.28125 116.621094 L 290.394531 160.148438 L 238.636719 365.992188 L 65.523438 322.464844 Z M 117.28125 116.621094 " clip-rule="nonzero"/></clipPath><clipPath id="30fb638994"><path d="M 117.28125 116.621094 L 290.394531 160.148438 L 238.636719 365.992188 L 65.523438 322.464844 Z M 117.28125 116.621094 " clip-rule="nonzero"/></clipPath><clipPath id="66665ca27e"><path d="M 135 285 L 176 285 L 176 320 L 135 320 Z M 135 285 " clip-rule="nonzero"/></clipPath><clipPath id="4d361eb3d1"><path d="M 117.28125 116.621094 L 290.394531 160.148438 L 238.636719 365.992188 L 65.523438 322.464844 Z M 117.28125 116.621094 " clip-rule="nonzero"/></clipPath><clipPath id="852c9d8822"><path d="M 117.28125 116.621094 L 290.394531 160.148438 L 238.636719 365.992188 L 65.523438 322.464844 Z M 117.28125 116.621094 " clip-rule="nonzero"/></clipPath><clipPath id="258ab4064b"><path d="M 117.28125 116.621094 L 290.394531 160.148438 L 238.636719 365.992188 L 65.523438 322.464844 Z M 117.28125 116.621094 " clip-rule="nonzero"/></clipPath><clipPath id="541989c842"><path d="M 136 285 L 175 285 L 175 318 L 136 318 Z M 136 285 " clip-rule="nonzero"/></clipPath><clipPath id="80b4d64b2c"><path d="M 117.28125 116.621094 L 290.394531 160.148438 L 238.636719 365.992188 L 65.523438 322.464844 Z M 117.28125 116.621094 " clip-rule="nonzero"/></clipPath><clipPath id="0f1e52d5d5"><path d="M 117.28125 116.621094 L 290.394531 160.148438 L 238.636719 365.992188 L 65.523438 322.464844 Z M 117.28125 116.621094 " clip-rule="nonzero"/></clipPath><clipPath id="b3eb3eff71"><path d="M 117.28125 116.621094 L 290.394531 160.148438 L 238.636719 365.992188 L 65.523438 322.464844 Z M 117.28125 116.621094 " clip-rule="nonzero"/></clipPath><clipPath id="7793b4657e"><path d="M 145 297 L 150 297 L 150 302 L 145 302 Z M 145 297 " clip-rule="nonzero"/></clipPath><clipPath id="5dd1d731da"><path d="M 117.28125 116.621094 L 290.394531 160.148438 L 238.636719 365.992188 L 65.523438 322.464844 Z M 117.28125 116.621094 " clip-rule="nonzero"/></clipPath><clipPath id="5d383f505a"><path d="M 117.28125 116.621094 L 290.394531 160.148438 L 238.636719 365.992188 L 65.523438 322.464844 Z M 117.28125 116.621094 " clip-rule="nonzero"/></clipPath><clipPath id="53a8b72f8f"><path d="M 117.28125 116.621094 L 290.394531 160.148438 L 238.636719 365.992188 L 65.523438 322.464844 Z M 117.28125 116.621094 " clip-rule="nonzero"/></clipPath><clipPath id="6e3b3c06bc"><path d="M 155 288 L 161 288 L 161 294 L 155 294 Z M 155 288 " clip-rule="nonzero"/></clipPath><clipPath id="c77523da10"><path d="M 117.28125 116.621094 L 290.394531 160.148438 L 238.636719 365.992188 L 65.523438 322.464844 Z M 117.28125 116.621094 " clip-rule="nonzero"/></clipPath><clipPath id="928b4bf8d3"><path d="M 117.28125 116.621094 L 290.394531 160.148438 L 238.636719 365.992188 L 65.523438 322.464844 Z M 117.28125 116.621094 " clip-rule="nonzero"/></clipPath><clipPath id="3bd28a8031"><path d="M 117.28125 116.621094 L 290.394531 160.148438 L 238.636719 365.992188 L 65.523438 322.464844 Z M 117.28125 116.621094 " clip-rule="nonzero"/></clipPath><clipPath id="6fae4221bc"><path d="M 154 297 L 160 297 L 160 302 L 154 302 Z M 154 297 " clip-rule="nonzero"/></clipPath><clipPath id="117e616714"><path d="M 117.28125 116.621094 L 290.394531 160.148438 L 238.636719 365.992188 L 65.523438 322.464844 Z M 117.28125 116.621094 " clip-rule="nonzero"/></clipPath><clipPath id="3d6debcbba"><path d="M 117.28125 116.621094 L 290.394531 160.148438 L 238.636719 365.992188 L 65.523438 322.464844 Z M 117.28125 116.621094 " clip-rule="nonzero"/></clipPath><clipPath id="530490cb8c"><path d="M 117.28125 116.621094 L 290.394531 160.148438 L 238.636719 365.992188 L 65.523438 322.464844 Z M 117.28125 116.621094 " clip-rule="nonzero"/></clipPath><clipPath id="01287d557c"><path d="M 161 305 L 166 305 L 166 310 L 161 310 Z M 161 305 " clip-rule="nonzero"/></clipPath><clipPath id="355a67ee78"><path d="M 117.28125 116.621094 L 290.394531 160.148438 L 238.636719 365.992188 L 65.523438 322.464844 Z M 117.28125 116.621094 " clip-rule="nonzero"/></clipPath><clipPath id="0ee8749003"><path d="M 117.28125 116.621094 L 290.394531 160.148438 L 238.636719 365.992188 L 65.523438 322.464844 Z M 117.28125 116.621094 " clip-rule="nonzero"/></clipPath><clipPath id="cf7896c15d"><path d="M 117.28125 116.621094 L 290.394531 160.148438 L 238.636719 365.992188 L 65.523438 322.464844 Z M 117.28125 116.621094 " clip-rule="nonzero"/></clipPath><clipPath id="3fa3317713"><path d="M 163 294 L 166 294 L 166 298 L 163 298 Z M 163 294 " clip-rule="nonzero"/></clipPath><clipPath id="8e84f9e7ee"><path d="M 117.28125 116.621094 L 290.394531 160.148438 L 238.636719 365.992188 L 65.523438 322.464844 Z M 117.28125 116.621094 " clip-rule="nonzero"/></clipPath><clipPath id="eac3eef07a"><path d="M 117.28125 116.621094 L 290.394531 160.148438 L 238.636719 365.992188 L 65.523438 322.464844 Z M 117.28125 116.621094 " clip-rule="nonzero"/></clipPath><clipPath id="382e6b0b96"><path d="M 117.28125 116.621094 L 290.394531 160.148438 L 238.636719 365.992188 L 65.523438 322.464844 Z M 117.28125 116.621094 " clip-rule="nonzero"/></clipPath><clipPath id="daecc2859b"><path d="M 170 305 L 173 305 L 173 308 L 170 308 Z M 170 305 " clip-rule="nonzero"/></clipPath><clipPath id="9ba0f8673a"><path d="M 117.28125 116.621094 L 290.394531 160.148438 L 238.636719 365.992188 L 65.523438 322.464844 Z M 117.28125 116.621094 " clip-rule="nonzero"/></clipPath><clipPath id="4f7d8c2c34"><path d="M 117.28125 116.621094 L 290.394531 160.148438 L 238.636719 365.992188 L 65.523438 322.464844 Z M 117.28125 116.621094 " clip-rule="nonzero"/></clipPath><clipPath id="22dfa5fa8a"><path d="M 117.28125 116.621094 L 290.394531 160.148438 L 238.636719 365.992188 L 65.523438 322.464844 Z M 117.28125 116.621094 " clip-rule="nonzero"/></clipPath><clipPath id="35b7529594"><path d="M 167 312 L 172 312 L 172 317 L 167 317 Z M 167 312 " clip-rule="nonzero"/></clipPath><clipPath id="ed991d503a"><path d="M 117.28125 116.621094 L 290.394531 160.148438 L 238.636719 365.992188 L 65.523438 322.464844 Z M 117.28125 116.621094 " clip-rule="nonzero"/></clipPath><clipPath id="c59a992cdc"><path d="M 117.28125 116.621094 L 290.394531 160.148438 L 238.636719 365.992188 L 65.523438 322.464844 Z M 117.28125 116.621094 " clip-rule="nonzero"/></clipPath><clipPath id="419f132c7f"><path d="M 117.28125 116.621094 L 290.394531 160.148438 L 238.636719 365.992188 L 65.523438 322.464844 Z M 117.28125 116.621094 " clip-rule="nonzero"/></clipPath><clipPath id="e5fd9cb36f"><path d="M 150 305 L 155 305 L 155 310 L 150 310 Z M 150 305 " clip-rule="nonzero"/></clipPath><clipPath id="440bcfb8d5"><path d="M 117.28125 116.621094 L 290.394531 160.148438 L 238.636719 365.992188 L 65.523438 322.464844 Z M 117.28125 116.621094 " clip-rule="nonzero"/></clipPath><clipPath id="416fd2ea6b"><path d="M 117.28125 116.621094 L 290.394531 160.148438 L 238.636719 365.992188 L 65.523438 322.464844 Z M 117.28125 116.621094 " clip-rule="nonzero"/></clipPath><clipPath id="1dae547d6e"><path d="M 117.28125 116.621094 L 290.394531 160.148438 L 238.636719 365.992188 L 65.523438 322.464844 Z M 117.28125 116.621094 " clip-rule="nonzero"/></clipPath><clipPath id="3f57881260"><path d="M 187 328 L 192 328 L 192 332 L 187 332 Z M 187 328 " clip-rule="nonzero"/></clipPath><clipPath id="6026c2b1ac"><path d="M 117.28125 116.621094 L 290.394531 160.148438 L 238.636719 365.992188 L 65.523438 322.464844 Z M 117.28125 116.621094 " clip-rule="nonzero"/></clipPath><clipPath id="555fea1f1d"><path d="M 117.28125 116.621094 L 290.394531 160.148438 L 238.636719 365.992188 L 65.523438 322.464844 Z M 117.28125 116.621094 " clip-rule="nonzero"/></clipPath><clipPath id="9b2975ad9d"><path d="M 117.28125 116.621094 L 290.394531 160.148438 L 238.636719 365.992188 L 65.523438 322.464844 Z M 117.28125 116.621094 " clip-rule="nonzero"/></clipPath><clipPath id="c720e22489"><path d="M 188 328 L 190 328 L 190 330 L 188 330 Z M 188 328 " clip-rule="nonzero"/></clipPath><clipPath id="827e19ebfd"><path d="M 117.28125 116.621094 L 290.394531 160.148438 L 238.636719 365.992188 L 65.523438 322.464844 Z M 117.28125 116.621094 " clip-rule="nonzero"/></clipPath><clipPath id="98bcf0c076"><path d="M 117.28125 116.621094 L 290.394531 160.148438 L 238.636719 365.992188 L 65.523438 322.464844 Z M 117.28125 116.621094 " clip-rule="nonzero"/></clipPath><clipPath id="7c709529db"><path d="M 117.28125 116.621094 L 290.394531 160.148438 L 238.636719 365.992188 L 65.523438 322.464844 Z M 117.28125 116.621094 " clip-rule="nonzero"/></clipPath><clipPath id="325e0de5a8"><path d="M 110 169 L 134 169 L 134 223 L 110 223 Z M 110 169 " clip-rule="nonzero"/></clipPath><clipPath id="33af4b30c1"><path d="M 117.28125 116.621094 L 290.394531 160.148438 L 238.636719 365.992188 L 65.523438 322.464844 Z M 117.28125 116.621094 " clip-rule="nonzero"/></clipPath><clipPath id="91b13519a7"><path d="M 117.28125 116.621094 L 290.394531 160.148438 L 238.636719 365.992188 L 65.523438 322.464844 Z M 117.28125 116.621094 " clip-rule="nonzero"/></clipPath><clipPath id="45e6048cc0"><path d="M 117.28125 116.621094 L 290.394531 160.148438 L 238.636719 365.992188 L 65.523438 322.464844 Z M 117.28125 116.621094 " clip-rule="nonzero"/></clipPath><clipPath id="2832f20dc4"><path d="M 87 292 L 121 292 L 121 317 L 87 317 Z M 87 292 " clip-rule="nonzero"/></clipPath><clipPath id="fbc2323a60"><path d="M 117.28125 116.621094 L 290.394531 160.148438 L 238.636719 365.992188 L 65.523438 322.464844 Z M 117.28125 116.621094 " clip-rule="nonzero"/></clipPath><clipPath id="83aa38ceae"><path d="M 117.28125 116.621094 L 290.394531 160.148438 L 238.636719 365.992188 L 65.523438 322.464844 Z M 117.28125 116.621094 " clip-rule="nonzero"/></clipPath><clipPath id="e4588b7e53"><path d="M 117.28125 116.621094 L 290.394531 160.148438 L 238.636719 365.992188 L 65.523438 322.464844 Z M 117.28125 116.621094 " clip-rule="nonzero"/></clipPath><clipPath id="144f101fbf"><path d="M 70 246 L 144 246 L 144 312 L 70 312 Z M 70 246 " clip-rule="nonzero"/></clipPath><clipPath id="ec0cf49ac5"><path d="M 117.28125 116.621094 L 290.394531 160.148438 L 238.636719 365.992188 L 65.523438 322.464844 Z M 117.28125 116.621094 " clip-rule="nonzero"/></clipPath><clipPath id="e2dc26c73c"><path d="M 117.28125 116.621094 L 290.394531 160.148438 L 238.636719 365.992188 L 65.523438 322.464844 Z M 117.28125 116.621094 " clip-rule="nonzero"/></clipPath><clipPath id="a6c272f6c6"><path d="M 117.28125 116.621094 L 290.394531 160.148438 L 238.636719 365.992188 L 65.523438 322.464844 Z M 117.28125 116.621094 " clip-rule="nonzero"/></clipPath><clipPath id="8da93361bb"><path d="M 66 308 L 239 308 L 239 366 L 66 366 Z M 66 308 " clip-rule="nonzero"/></clipPath><clipPath id="e7f9c918c2"><path d="M 117.28125 116.621094 L 290.394531 160.148438 L 238.636719 365.992188 L 65.523438 322.464844 Z M 117.28125 116.621094 " clip-rule="nonzero"/></clipPath><clipPath id="7644dd4ce0"><path d="M 117.28125 116.621094 L 290.394531 160.148438 L 238.636719 365.992188 L 65.523438 322.464844 Z M 117.28125 116.621094 " clip-rule="nonzero"/></clipPath><clipPath id="e8bafaab91"><path d="M 117.28125 116.621094 L 290.394531 160.148438 L 238.636719 365.992188 L 65.523438 322.464844 Z M 117.28125 116.621094 " clip-rule="nonzero"/></clipPath><clipPath id="a91cf9ed26"><path d="M 70.113281 307.589844 L 242.394531 350.910156 L 238.597656 366.019531 L 66.316406 322.699219 Z M 70.113281 307.589844 " clip-rule="nonzero"/></clipPath><clipPath id="1da1760ee2"><path d="M 70.113281 307.589844 L 242.359375 350.902344 L 238.570312 365.976562 L 66.324219 322.664062 Z M 70.113281 307.589844 " clip-rule="nonzero"/></clipPath><clipPath id="1762da23dd"><path d="M 114 116 L 119 116 L 119 133 L 114 133 Z M 114 116 " clip-rule="nonzero"/></clipPath><clipPath id="53d93f65bf"><path d="M 117.28125 116.621094 L 290.394531 160.148438 L 238.636719 365.992188 L 65.523438 322.464844 Z M 117.28125 116.621094 " clip-rule="nonzero"/></clipPath><clipPath id="2c99cbeea7"><path d="M 117.28125 116.621094 L 290.394531 160.148438 L 238.636719 365.992188 L 65.523438 322.464844 Z M 117.28125 116.621094 " clip-rule="nonzero"/></clipPath><clipPath id="1939a98f2a"><path d="M 117.28125 116.621094 L 290.394531 160.148438 L 238.636719 365.992188 L 65.523438 322.464844 Z M 117.28125 116.621094 " clip-rule="nonzero"/></clipPath></defs><g clip-path="url(#e4157d3f25)"><g clip-path="url(#6e514f4507)"><path fill="#5b5299" d="M 6.570312 0 L 369.714844 0 L 369.714844 374.492188 L 6.570312 374.492188 Z M 6.570312 0 " fill-opacity="1" fill-rule="nonzero"/></g></g><g clip-path="url(#3599323fc8)"><g clip-path="url(#63f39481b9)"><g clip-path="url(#f1c7bcee72)"><g clip-path="url(#ad340d2aab)"><g clip-path="url(#a906de14ba)"><g clip-path="url(#790566705b)"><path fill="#ed3839" d="M 238.570312 365.976562 L 113.199219 333.296875 L 93.605469 328.191406 L 71.355469 322.390625 L 70.617188 322.199219 L 66.714844 321.183594 L 70.355469 308.277344 C 70.355469 308.277344 86.558594 294.175781 93.925781 272.71875 C 94.90625 269.867188 96.089844 266.210938 97.402344 261.976562 C 101.199219 249.734375 106.082031 232.714844 110.277344 216.648438 C 115.527344 196.496094 119.683594 177.855469 119.246094 172.03125 C 119.195312 171.355469 119.132812 170.636719 119.0625 169.871094 C 117.902344 156.894531 114.363281 131.691406 114.363281 131.691406 L 117.351562 116.640625 L 289.957031 160.039062 L 288.210938 166.289062 L 286.035156 174.070312 C 286.035156 174.070312 270.316406 193.460938 266.199219 200.917969 C 265.867188 201.515625 265.609375 202.039062 265.445312 202.46875 C 265.230469 203.011719 264.8125 204.363281 264.21875 206.367188 C 261.875 214.339844 256.851562 232.699219 251.667969 252.199219 C 250.3125 257.316406 248.941406 262.503906 247.601562 267.605469 C 245.988281 273.773438 244.429688 279.804688 242.996094 285.421875 C 239.230469 300.144531 236.363281 311.945312 235.839844 315.515625 C 234.148438 326.9375 241.660156 347.394531 241.660156 350.554688 C 241.65625 350.835938 241.632812 351.1875 241.585938 351.605469 C 241.578125 351.679688 241.570312 351.753906 241.5625 351.832031 C 241.417969 352.996094 241.136719 354.554688 240.796875 356.21875 C 240.722656 356.605469 240.644531 357 240.558594 357.394531 C 240.539062 357.464844 240.527344 357.539062 240.511719 357.613281 C 240.472656 357.785156 240.433594 357.964844 240.398438 358.140625 C 240.351562 358.359375 240.300781 358.578125 240.253906 358.804688 C 240.21875 358.964844 240.1875 359.121094 240.148438 359.277344 C 240.113281 359.445312 240.078125 359.613281 240.035156 359.777344 C 240.007812 359.917969 239.972656 360.054688 239.945312 360.195312 L 239.921875 360.28125 C 239.871094 360.507812 239.824219 360.734375 239.769531 360.953125 C 239.757812 361 239.753906 361.046875 239.742188 361.09375 C 239.703125 361.238281 239.667969 361.378906 239.640625 361.523438 C 239.539062 361.953125 239.441406 362.375 239.347656 362.769531 C 239.285156 363.023438 239.230469 363.261719 239.175781 363.484375 C 239.03125 364.074219 238.910156 364.59375 238.808594 364.996094 C 238.660156 365.609375 238.570312 365.976562 238.570312 365.976562 " fill-opacity="1" fill-rule="nonzero"/></g></g></g></g></g></g><g clip-path="url(#787d814276)"><g clip-path="url(#87cac62ed2)"><g clip-path="url(#9ec31dbabf)"><g clip-path="url(#a8a555afe9)"><path fill="#f4a440" d="M 135.980469 298.53125 C 140.417969 296.285156 158.453125 286.828125 169.453125 276.273438 C 169.921875 275.820312 170.691406 275.957031 170.964844 276.554688 C 173.277344 281.628906 181.429688 301.84375 172.976562 318.496094 C 172.773438 318.894531 172.3125 319.089844 171.882812 318.972656 C 167.464844 317.746094 144.464844 310.953125 135.675781 299.96875 C 135.296875 299.5 135.441406 298.804688 135.980469 298.53125 " fill-opacity="1" fill-rule="nonzero"/></g></g></g></g><g clip-path="url(#4747ae6854)"><g clip-path="url(#6f7fc2f840)"><g clip-path="url(#5323c3de5d)"><g clip-path="url(#1b51ea1ea7)"><path fill="#f8c346" d="M 137.035156 298.332031 C 141.261719 296.191406 158.445312 287.179688 168.925781 277.125 C 169.375 276.695312 170.105469 276.824219 170.363281 277.390625 C 172.570312 282.230469 180.335938 301.488281 172.28125 317.351562 C 172.089844 317.730469 171.652344 317.917969 171.238281 317.804688 C 167.03125 316.636719 145.121094 310.164062 136.746094 299.703125 C 136.386719 299.253906 136.523438 298.589844 137.035156 298.332031 " fill-opacity="1" fill-rule="nonzero"/></g></g></g></g><g clip-path="url(#a2702774a1)"><g clip-path="url(#0f52bc44f4)"><g clip-path="url(#98a00cb57a)"><g clip-path="url(#e0f29f3151)"><path fill="#f4a440" d="M 149.589844 300.144531 C 149.289062 301.34375 148.070312 302.066406 146.875 301.765625 C 145.675781 301.464844 144.949219 300.25 145.25 299.054688 C 145.550781 297.855469 146.765625 297.132812 147.964844 297.433594 C 149.164062 297.734375 149.890625 298.949219 149.589844 300.144531 " fill-opacity="1" fill-rule="nonzero"/></g></g></g></g><g clip-path="url(#9d5304c80a)"><g clip-path="url(#6abcef42a4)"><g clip-path="url(#1214520395)"><g clip-path="url(#5f2f88cd02)"><path fill="#f4a440" d="M 160.125 291.535156 C 159.824219 292.734375 158.609375 293.457031 157.410156 293.15625 C 156.210938 292.855469 155.484375 291.640625 155.785156 290.445312 C 156.085938 289.246094 157.300781 288.519531 158.5 288.824219 C 159.699219 289.125 160.425781 290.339844 160.125 291.535156 " fill-opacity="1" fill-rule="nonzero"/></g></g></g></g><g clip-path="url(#b00c7a4b59)"><g clip-path="url(#bcba3ea762)"><g clip-path="url(#44826d8330)"><g clip-path="url(#b4c56b8e62)"><path fill="#f4a440" d="M 159.15625 299.851562 C 158.855469 301.046875 157.636719 301.773438 156.441406 301.472656 C 155.242188 301.171875 154.515625 299.957031 154.816406 298.761719 C 155.117188 297.5625 156.332031 296.835938 157.53125 297.136719 C 158.726562 297.441406 159.457031 298.652344 159.15625 299.851562 " fill-opacity="1" fill-rule="nonzero"/></g></g></g></g><g clip-path="url(#be16639f2f)"><g clip-path="url(#f288b30420)"><g clip-path="url(#311f00c6b2)"><g clip-path="url(#ebd19f82e9)"><path fill="#f4a440" d="M 165.597656 307.792969 C 165.296875 308.988281 164.078125 309.714844 162.882812 309.414062 C 161.683594 309.113281 160.957031 307.898438 161.257812 306.699219 C 161.558594 305.503906 162.773438 304.777344 163.972656 305.078125 C 165.167969 305.378906 165.898438 306.59375 165.597656 307.792969 " fill-opacity="1" fill-rule="nonzero"/></g></g></g></g><g clip-path="url(#6a7c56f70a)"><g clip-path="url(#84b0fc38fb)"><g clip-path="url(#6df5d51c9a)"><g clip-path="url(#cf0de0d185)"><path fill="#f4a440" d="M 168.152344 296.320312 C 167.851562 297.515625 166.632812 298.242188 165.4375 297.941406 C 164.238281 297.640625 163.507812 296.425781 163.8125 295.226562 C 164.113281 294.03125 165.328125 293.304688 166.527344 293.605469 C 167.722656 293.90625 168.453125 295.121094 168.152344 296.320312 " fill-opacity="1" fill-rule="nonzero"/></g></g></g></g><g clip-path="url(#af0555f2e5)"><g clip-path="url(#3b3ba1a7dd)"><g clip-path="url(#f3f800378b)"><g clip-path="url(#b664c595ca)"><path fill="#f4a440" d="M 171.125 286.070312 C 170.820312 287.269531 169.605469 287.996094 168.40625 287.691406 C 167.210938 287.390625 166.484375 286.175781 166.785156 284.980469 C 167.085938 283.78125 168.300781 283.058594 169.5 283.359375 C 170.695312 283.660156 171.425781 284.875 171.125 286.070312 " fill-opacity="1" fill-rule="nonzero"/></g></g></g></g><g clip-path="url(#f78524c0ae)"><g clip-path="url(#cc677cc9c2)"><g clip-path="url(#0465394821)"><g clip-path="url(#9329ec28a2)"><path fill="#f4a440" d="M 175.070312 306.289062 C 174.769531 307.488281 173.554688 308.210938 172.355469 307.910156 C 171.15625 307.609375 170.429688 306.394531 170.730469 305.199219 C 171.03125 304 172.246094 303.273438 173.445312 303.574219 C 174.644531 303.878906 175.371094 305.09375 175.070312 306.289062 " fill-opacity="1" fill-rule="nonzero"/></g></g></g></g><g clip-path="url(#34a6cc7168)"><g clip-path="url(#fad6e3fc9b)"><g clip-path="url(#86789dfb0d)"><g clip-path="url(#93405a8b9e)"><path fill="#f4a440" d="M 171.726562 314.863281 C 171.425781 316.0625 170.210938 316.789062 169.011719 316.484375 C 167.8125 316.183594 167.085938 314.96875 167.386719 313.773438 C 167.6875 312.574219 168.902344 311.851562 170.101562 312.152344 C 171.300781 312.453125 172.027344 313.667969 171.726562 314.863281 " fill-opacity="1" fill-rule="nonzero"/></g></g></g></g><g clip-path="url(#b6d33758be)"><g clip-path="url(#ff1c87a09f)"><g clip-path="url(#19edf8002b)"><g clip-path="url(#2132c02c25)"><path fill="#f4a440" d="M 154.914062 307.804688 C 154.613281 309.003906 153.398438 309.726562 152.199219 309.425781 C 151 309.125 150.273438 307.910156 150.574219 306.714844 C 150.875 305.515625 152.089844 304.789062 153.289062 305.09375 C 154.488281 305.394531 155.214844 306.609375 154.914062 307.804688 " fill-opacity="1" fill-rule="nonzero"/></g></g></g></g><g clip-path="url(#f984c8b1cd)"><g clip-path="url(#fe3d51b373)"><g clip-path="url(#3237c3f416)"><g clip-path="url(#c3fca04503)"><path fill="#f4a440" d="M 203.835938 291.535156 C 206.597656 295.675781 218.132812 312.453125 229.925781 322.125 C 230.433594 322.539062 230.386719 323.320312 229.828125 323.660156 C 225.054688 326.554688 205.929688 337.011719 188.375 330.578125 C 187.957031 330.425781 187.707031 329.992188 187.773438 329.550781 C 188.46875 325.023438 192.496094 301.410156 202.371094 291.402344 C 202.792969 290.972656 203.5 291.035156 203.835938 291.535156 " fill-opacity="1" fill-rule="nonzero"/></g></g></g></g><g clip-path="url(#4a164dda34)"><g clip-path="url(#cb5d029179)"><g clip-path="url(#ed889bea44)"><g clip-path="url(#4af1fbda88)"><path fill="#f8c346" d="M 204.160156 292.558594 C 206.789062 296.503906 217.78125 312.488281 229.019531 321.703125 C 229.5 322.097656 229.457031 322.839844 228.925781 323.164062 C 224.378906 325.921875 206.15625 335.882812 189.429688 329.757812 C 189.03125 329.609375 188.792969 329.199219 188.859375 328.777344 C 189.519531 324.464844 193.355469 301.96875 202.765625 292.433594 C 203.167969 292.023438 203.84375 292.082031 204.160156 292.558594 " fill-opacity="1" fill-rule="nonzero"/></g></g></g></g><g clip-path="url(#9640158ac3)"><g clip-path="url(#d2282926f6)"><g clip-path="url(#b0bf6dba65)"><g clip-path="url(#e1380fce18)"><path fill="#f4a440" d="M 203.84375 305.226562 C 202.621094 305.066406 201.753906 303.945312 201.910156 302.722656 C 202.070312 301.5 203.191406 300.632812 204.417969 300.792969 C 205.640625 300.949219 206.507812 302.070312 206.347656 303.292969 C 206.191406 304.519531 205.070312 305.382812 203.84375 305.226562 " fill-opacity="1" fill-rule="nonzero"/></g></g></g></g><g clip-path="url(#22615005f4)"><g clip-path="url(#bafbc177cb)"><g clip-path="url(#aae5d63f44)"><g clip-path="url(#b0ba806d5f)"><path fill="#f4a440" d="M 213.652344 314.667969 C 212.425781 314.507812 211.5625 313.386719 211.71875 312.164062 C 211.875 310.941406 212.996094 310.074219 214.222656 310.234375 C 215.449219 310.390625 216.3125 311.511719 216.15625 312.738281 C 216 313.960938 214.878906 314.824219 213.652344 314.667969 " fill-opacity="1" fill-rule="nonzero"/></g></g></g></g><g clip-path="url(#92b9f99a4f)"><g clip-path="url(#0f96094657)"><g clip-path="url(#6ec534684f)"><g clip-path="url(#f532e78046)"><path fill="#f4a440" d="M 205.269531 314.679688 C 204.046875 314.523438 203.179688 313.402344 203.335938 312.179688 C 203.496094 310.953125 204.617188 310.089844 205.84375 310.246094 C 207.066406 310.40625 207.933594 311.527344 207.777344 312.75 C 207.617188 313.972656 206.496094 314.839844 205.269531 314.679688 " fill-opacity="1" fill-rule="nonzero"/></g></g></g></g><g clip-path="url(#b00f83ecb1)"><g clip-path="url(#ec1a5838ad)"><g clip-path="url(#b09dbbd690)"><g clip-path="url(#34a75f8269)"><path fill="#f4a440" d="M 198.140625 322.003906 C 196.914062 321.84375 196.050781 320.722656 196.207031 319.5 C 196.363281 318.273438 197.484375 317.410156 198.710938 317.570312 C 199.9375 317.726562 200.804688 318.847656 200.644531 320.074219 C 200.488281 321.296875 199.367188 322.160156 198.140625 322.003906 " fill-opacity="1" fill-rule="nonzero"/></g></g></g></g><g clip-path="url(#61391c6575)"><g clip-path="url(#4b78764e8a)"><g clip-path="url(#6ca952cb33)"><g clip-path="url(#c5afed0d29)"><path fill="#f4a440" d="M 209.847656 323.191406 C 208.621094 323.03125 207.757812 321.910156 207.914062 320.6875 C 208.070312 319.464844 209.191406 318.597656 210.417969 318.757812 C 211.644531 318.914062 212.507812 320.035156 212.351562 321.261719 C 212.195312 322.484375 211.074219 323.347656 209.847656 323.191406 " fill-opacity="1" fill-rule="nonzero"/></g></g></g></g><g clip-path="url(#02d9410f98)"><g clip-path="url(#a0444cfbda)"><g clip-path="url(#cc7763eb76)"><g clip-path="url(#cd07e61beb)"><path fill="#f4a440" d="M 220.386719 324.9375 C 219.164062 324.777344 218.296875 323.65625 218.453125 322.433594 C 218.613281 321.207031 219.734375 320.34375 220.957031 320.503906 C 222.183594 320.660156 223.050781 321.78125 222.894531 323.003906 C 222.734375 324.230469 221.613281 325.09375 220.386719 324.9375 " fill-opacity="1" fill-rule="nonzero"/></g></g></g></g><g clip-path="url(#e20e45d92e)"><g clip-path="url(#466bac406e)"><g clip-path="url(#33531ad198)"><g clip-path="url(#02e3dfb8e1)"><path fill="#f4a440" d="M 200.757812 331.226562 C 199.53125 331.066406 198.664062 329.945312 198.824219 328.722656 C 198.980469 327.496094 200.101562 326.632812 201.328125 326.792969 C 202.554688 326.949219 203.417969 328.070312 203.261719 329.292969 C 203.105469 330.519531 201.984375 331.382812 200.757812 331.226562 " fill-opacity="1" fill-rule="nonzero"/></g></g></g></g><g clip-path="url(#ecfca12803)"><g clip-path="url(#e414f9850a)"><g clip-path="url(#562a609a5c)"><g clip-path="url(#b2f1483b42)"><path fill="#f4a440" d="M 191.835938 328.914062 C 190.613281 328.757812 189.746094 327.636719 189.902344 326.414062 C 190.0625 325.1875 191.183594 324.324219 192.410156 324.484375 C 193.632812 324.640625 194.5 325.761719 194.34375 326.984375 C 194.183594 328.210938 193.0625 329.074219 191.835938 328.914062 " fill-opacity="1" fill-rule="nonzero"/></g></g></g></g><g clip-path="url(#ed6cbc5283)"><g clip-path="url(#b438e2e9fc)"><g clip-path="url(#0f46c8d0c9)"><g clip-path="url(#a7f38c6e62)"><path fill="#f4a440" d="M 196.863281 311.40625 C 195.636719 311.25 194.769531 310.128906 194.929688 308.90625 C 195.085938 307.679688 196.207031 306.816406 197.433594 306.972656 C 198.660156 307.132812 199.523438 308.253906 199.367188 309.476562 C 199.210938 310.699219 198.089844 311.566406 196.863281 311.40625 " fill-opacity="1" fill-rule="nonzero"/></g></g></g></g><g clip-path="url(#f8b5c68047)"><g clip-path="url(#c9486bbdee)"><g clip-path="url(#9297ac1401)"><g clip-path="url(#1d38c1c387)"><path fill="#f4a440" d="M 187.265625 299.15625 C 185.234375 294.617188 176.648438 276.15625 166.625 264.660156 C 166.195312 264.167969 166.371094 263.40625 166.976562 263.167969 C 172.167969 261.105469 192.769531 253.972656 209.011719 263.226562 C 209.398438 263.449219 209.574219 263.917969 209.433594 264.34375 C 207.996094 268.691406 200.09375 291.304688 188.691406 299.53125 C 188.203125 299.886719 187.511719 299.707031 187.265625 299.15625 " fill-opacity="1" fill-rule="nonzero"/></g></g></g></g><g clip-path="url(#1d78610d3f)"><g clip-path="url(#e9a77480fd)"><g clip-path="url(#3c391d33a3)"><g clip-path="url(#4e45ad4963)"><path fill="#f8c346" d="M 187.117188 298.09375 C 185.179688 293.769531 177 276.179688 167.453125 265.230469 C 167.042969 264.761719 167.210938 264.035156 167.785156 263.804688 C 172.730469 261.84375 192.359375 255.046875 207.832031 263.863281 C 208.203125 264.074219 208.367188 264.523438 208.234375 264.925781 C 206.867188 269.066406 199.335938 290.609375 188.472656 298.453125 C 188.007812 298.789062 187.351562 298.617188 187.117188 298.09375 " fill-opacity="1" fill-rule="nonzero"/></g></g></g></g><g clip-path="url(#ca3080630a)"><g clip-path="url(#d4fd38eced)"><g clip-path="url(#a6b5600f68)"><g clip-path="url(#ea2dd58328)"><path fill="#f4a440" d="M 189.535156 285.65625 C 190.71875 286.015625 191.382812 287.265625 191.023438 288.445312 C 190.667969 289.628906 189.417969 290.292969 188.234375 289.933594 C 187.050781 289.574219 186.382812 288.328125 186.742188 287.144531 C 187.101562 285.964844 188.351562 285.296875 189.535156 285.65625 " fill-opacity="1" fill-rule="nonzero"/></g></g></g></g><g clip-path="url(#a6b1dafe65)"><g clip-path="url(#880e50ac07)"><g clip-path="url(#7fb68964cc)"><g clip-path="url(#bfa1f46e8d)"><path fill="#f4a440" d="M 181.433594 274.71875 C 182.617188 275.078125 183.285156 276.328125 182.925781 277.507812 C 182.566406 278.691406 181.316406 279.355469 180.132812 278.996094 C 178.953125 278.636719 178.285156 277.390625 178.644531 276.207031 C 179.003906 275.027344 180.253906 274.359375 181.433594 274.71875 " fill-opacity="1" fill-rule="nonzero"/></g></g></g></g><g clip-path="url(#a73ecb7da7)"><g clip-path="url(#2ff312d54e)"><g clip-path="url(#afd515c203)"><g clip-path="url(#c0599335f4)"><path fill="#f4a440" d="M 189.703125 276.097656 C 190.886719 276.457031 191.550781 277.707031 191.195312 278.886719 C 190.832031 280.066406 189.585938 280.734375 188.402344 280.375 C 187.21875 280.015625 186.550781 278.765625 186.910156 277.585938 C 187.269531 276.40625 188.519531 275.738281 189.703125 276.097656 " fill-opacity="1" fill-rule="nonzero"/></g></g></g></g><g clip-path="url(#5e5cb192f3)"><g clip-path="url(#3c84c6a536)"><g clip-path="url(#b29880f1ca)"><g clip-path="url(#65f87fb3cd)"><path fill="#f4a440" d="M 197.953125 270.0625 C 199.132812 270.421875 199.800781 271.671875 199.441406 272.851562 C 199.082031 274.035156 197.835938 274.699219 196.652344 274.339844 C 195.46875 273.980469 194.800781 272.730469 195.160156 271.550781 C 195.519531 270.371094 196.769531 269.703125 197.953125 270.0625 " fill-opacity="1" fill-rule="nonzero"/></g></g></g></g><g clip-path="url(#86e1efb733)"><g clip-path="url(#aa63967093)"><g clip-path="url(#5056a0011d)"><g clip-path="url(#238462e5fa)"><path fill="#f4a440" d="M 186.605469 266.949219 C 187.789062 267.308594 188.453125 268.554688 188.097656 269.738281 C 187.738281 270.917969 186.488281 271.582031 185.304688 271.222656 C 184.121094 270.863281 183.453125 269.617188 183.8125 268.4375 C 184.171875 267.253906 185.421875 266.589844 186.605469 266.949219 " fill-opacity="1" fill-rule="nonzero"/></g></g></g></g><g clip-path="url(#b462196fc8)"><g clip-path="url(#faf20c5270)"><g clip-path="url(#ae85244de7)"><g clip-path="url(#037c7823d5)"><path fill="#f4a440" d="M 176.503906 263.476562 C 177.683594 263.835938 178.351562 265.085938 177.992188 266.265625 C 177.632812 267.445312 176.382812 268.113281 175.203125 267.753906 C 174.019531 267.394531 173.351562 266.144531 173.710938 264.964844 C 174.070312 263.78125 175.320312 263.117188 176.503906 263.476562 " fill-opacity="1" fill-rule="nonzero"/></g></g></g></g><g clip-path="url(#5f8d4bba24)"><g clip-path="url(#3669a6f6b9)"><g clip-path="url(#f3df79703a)"><g clip-path="url(#6c66d7d048)"><path fill="#f4a440" d="M 196.90625 260.535156 C 198.089844 260.894531 198.757812 262.144531 198.398438 263.324219 C 198.039062 264.503906 196.789062 265.171875 195.605469 264.8125 C 194.425781 264.453125 193.757812 263.203125 194.117188 262.023438 C 194.476562 260.84375 195.722656 260.175781 196.90625 260.535156 " fill-opacity="1" fill-rule="nonzero"/></g></g></g></g><g clip-path="url(#565ba2e062)"><g clip-path="url(#2c070a63f4)"><g clip-path="url(#a12b04d4bc)"><g clip-path="url(#917b2599da)"><path fill="#f4a440" d="M 205.320312 264.292969 C 206.5 264.652344 207.167969 265.902344 206.808594 267.082031 C 206.449219 268.265625 205.199219 268.929688 204.019531 268.570312 C 202.835938 268.210938 202.167969 266.960938 202.527344 265.78125 C 202.886719 264.601562 204.136719 263.933594 205.320312 264.292969 " fill-opacity="1" fill-rule="nonzero"/></g></g></g></g><g clip-path="url(#3aacb61a40)"><g clip-path="url(#fa176f0fdc)"><g clip-path="url(#9777a8978d)"><g clip-path="url(#35f5c69def)"><path fill="#f4a440" d="M 197.449219 280.722656 C 198.632812 281.082031 199.300781 282.332031 198.941406 283.511719 C 198.582031 284.691406 197.332031 285.359375 196.148438 285 C 194.96875 284.640625 194.300781 283.390625 194.660156 282.210938 C 195.019531 281.027344 196.269531 280.363281 197.449219 280.722656 " fill-opacity="1" fill-rule="nonzero"/></g></g></g></g><g clip-path="url(#b93b94986d)"><g clip-path="url(#0508793872)"><g clip-path="url(#cd4423a865)"><g clip-path="url(#1dba80245a)"><path fill="#f8c346" d="M 264.21875 206.367188 C 261.875 214.339844 256.851562 232.699219 251.667969 252.199219 L 110.277344 216.644531 C 115.527344 196.496094 119.6875 177.855469 119.246094 172.027344 C 119.195312 171.355469 119.132812 170.636719 119.0625 169.871094 L 264.21875 206.367188 " fill-opacity="1" fill-rule="nonzero"/></g></g></g></g><g clip-path="url(#9cbaf0b8aa)"><g clip-path="url(#03e4a7f6e4)"><g clip-path="url(#2afc78a8d3)"><g clip-path="url(#204868d076)"><path fill="#ffffff" d="M 242.996094 285.421875 L 219.164062 278.003906 L 247.601562 267.605469 C 245.988281 273.773438 244.429688 279.804688 242.996094 285.421875 " fill-opacity="1" fill-rule="nonzero"/></g></g></g></g><g clip-path="url(#ea24636f1a)"><g clip-path="url(#839299006b)"><g clip-path="url(#5ec6601bbd)"><g clip-path="url(#b8e890d973)"><path fill="#ffffff" d="M 120.078125 292.988281 L 102.59375 316.234375 L 93.605469 328.191406 L 71.355469 322.390625 L 87.667969 312.550781 L 120.078125 292.988281 " fill-opacity="1" fill-rule="nonzero"/></g></g></g></g><g clip-path="url(#a4353a74c8)"><g clip-path="url(#8c1e93bb41)"><g clip-path="url(#9ca788ce59)"><g clip-path="url(#cdd0464507)"><path fill="#ffffff" d="M 154.648438 242.023438 L 143.609375 252.558594 L 82.152344 311.1875 L 70.617188 322.199219 L 66.714844 321.183594 L 70.355469 308.277344 C 70.355469 308.277344 86.558594 294.175781 93.929688 272.71875 C 94.90625 269.867188 96.089844 266.210938 97.402344 261.976562 C 111.816406 256.941406 129.539062 250.769531 141.410156 246.632812 C 149.332031 243.878906 154.648438 242.023438 154.648438 242.023438 " fill-opacity="1" fill-rule="nonzero"/></g></g></g></g><g clip-path="url(#0f7d09bebb)"><g clip-path="url(#4560cc5176)"><g clip-path="url(#30fbe81013)"><g clip-path="url(#17294d446e)"><g clip-path="url(#362c1cdf84)"><g clip-path="url(#c160ecbae9)"><path fill="#f8c346" d="M 238.570312 365.976562 L 113.199219 333.296875 L 228.929688 361.03125 L 239.171875 363.484375 C 239.035156 364.074219 238.910156 364.59375 238.808594 364.996094 C 238.660156 365.609375 238.570312 365.976562 238.570312 365.976562 " fill-opacity="1" fill-rule="nonzero"/></g></g></g></g></g></g><g clip-path="url(#c09f5b6629)"><g clip-path="url(#041b765259)"><g clip-path="url(#0aaae6b144)"><g clip-path="url(#e694eb4eb3)"><g clip-path="url(#3498423cec)"><g clip-path="url(#38e95070fb)"><path fill="#d5312c" d="M 238.570312 365.976562 L 113.199219 333.296875 L 93.605469 328.191406 L 71.355469 322.390625 L 70.617188 322.199219 L 66.714844 321.183594 L 70.355469 308.277344 L 82.152344 311.1875 L 87.667969 312.550781 L 102.59375 316.234375 L 200.253906 340.335938 L 241.660156 350.554688 C 241.65625 350.835938 241.632812 351.1875 241.585938 351.605469 C 241.582031 351.679688 241.566406 351.753906 241.5625 351.832031 C 241.417969 352.996094 241.136719 354.554688 240.796875 356.21875 C 240.722656 356.605469 240.644531 357 240.558594 357.394531 C 240.539062 357.464844 240.527344 357.539062 240.511719 357.613281 C 240.472656 357.785156 240.433594 357.964844 240.398438 358.140625 C 240.351562 358.359375 240.300781 358.578125 240.253906 358.804688 C 240.21875 358.964844 240.1875 359.121094 240.148438 359.277344 C 240.113281 359.445312 240.078125 359.613281 240.035156 359.777344 C 240.007812 359.917969 239.972656 360.054688 239.945312 360.195312 L 239.921875 360.28125 C 239.875 360.507812 239.824219 360.734375 239.769531 360.953125 C 239.757812 361 239.75 361.046875 239.742188 361.09375 C 239.703125 361.238281 239.671875 361.386719 239.640625 361.523438 C 239.539062 361.953125 239.441406 362.375 239.347656 362.769531 C 239.285156 363.023438 239.230469 363.261719 239.171875 363.484375 C 239.035156 364.074219 238.910156 364.59375 238.808594 364.996094 C 238.660156 365.609375 238.570312 365.976562 238.570312 365.976562 " fill-opacity="1" fill-rule="nonzero"/></g></g></g></g></g></g><g clip-path="url(#49574b333a)"><g clip-path="url(#05a9622c67)"><g clip-path="url(#b5a421c792)"><g clip-path="url(#602c94067d)"><path fill="#f8c346" d="M 223.695312 215.933594 C 218.484375 236.660156 197.4375 249.230469 176.6875 244.015625 C 155.9375 238.796875 143.34375 217.765625 148.554688 197.039062 C 153.765625 176.3125 174.8125 163.742188 195.5625 168.960938 C 216.3125 174.175781 228.90625 195.207031 223.695312 215.933594 " fill-opacity="1" fill-rule="nonzero"/></g></g></g></g><g clip-path="url(#c0c15b1aa0)"><g clip-path="url(#cff2f1f551)"><g clip-path="url(#55be56ddb3)"><g clip-path="url(#e7cff7076d)"><path fill="#ffffff" d="M 219.601562 214.90625 C 214.960938 233.371094 196.207031 244.574219 177.714844 239.925781 C 159.226562 235.277344 148.003906 216.535156 152.648438 198.070312 C 157.292969 179.601562 176.042969 168.398438 194.53125 173.046875 C 213.023438 177.699219 224.246094 196.4375 219.601562 214.90625 " fill-opacity="1" fill-rule="nonzero"/></g></g></g></g><g clip-path="url(#76bbbe859d)"><g clip-path="url(#72b4b5afef)"><g clip-path="url(#643df075cb)"><g clip-path="url(#6863e6e445)"><path fill="#ffffff" d="M 288.210938 166.285156 L 286.035156 174.070312 C 286.035156 174.070312 270.316406 193.460938 266.199219 200.917969 L 265.480469 200.765625 L 225.34375 155.910156 L 288.210938 166.285156 " fill-opacity="1" fill-rule="nonzero"/></g></g></g></g><g clip-path="url(#5906b111d7)"><g clip-path="url(#5f16d98c5b)"><g clip-path="url(#baa4ea7ff1)"><g clip-path="url(#11ff207bf4)"><path fill="#d5312c" d="M 289.957031 160.039062 L 288.210938 166.289062 L 286.035156 174.070312 L 228.996094 159.988281 L 118.109375 132.617188 L 114.363281 131.691406 L 117.351562 116.640625 L 289.957031 160.039062 " fill-opacity="1" fill-rule="nonzero"/></g></g></g></g><g clip-path="url(#c2967c0ca3)"><g clip-path="url(#9b1fd08eed)"><g clip-path="url(#0523427f21)"><g clip-path="url(#30fb638994)"><path fill="#c52f2f" d="M 82.152344 311.1875 L 143.609375 252.558594 C 147.816406 263.570312 152.707031 274.550781 158.378906 285.1875 C 158.378906 285.1875 158.378906 285.191406 158.378906 285.191406 C 148.972656 291.789062 139.105469 296.949219 135.980469 298.53125 C 135.441406 298.804688 135.296875 299.5 135.675781 299.96875 C 144.464844 310.953125 167.464844 317.746094 171.882812 318.972656 C 171.890625 318.972656 171.898438 318.976562 171.902344 318.976562 C 172.328125 319.082031 172.777344 318.886719 172.976562 318.496094 C 173.984375 316.507812 174.757812 314.464844 175.332031 312.40625 C 179.285156 317.824219 183.507812 323.0625 188.015625 328.054688 C 188.015625 328.058594 188.015625 328.058594 188.015625 328.058594 C 187.910156 328.671875 187.832031 329.175781 187.773438 329.550781 C 187.707031 329.992188 187.957031 330.425781 188.375 330.578125 C 189.304688 330.921875 190.238281 331.214844 191.175781 331.460938 C 194.085938 334.523438 197.105469 337.488281 200.253906 340.335938 L 102.59375 316.234375 L 120.078125 292.988281 L 87.667969 312.550781 L 82.152344 311.1875 M 97.402344 261.976562 C 101.199219 249.730469 106.082031 232.714844 110.277344 216.644531 L 133.679688 222.53125 C 135.925781 230.46875 138.484375 238.546875 141.410156 246.632812 C 129.539062 250.769531 111.816406 256.9375 97.402344 261.976562 M 122.457031 170.722656 L 119.0625 169.871094 C 117.90625 156.894531 114.363281 131.6875 114.363281 131.6875 L 118.109375 132.617188 C 118.785156 142.113281 120.058594 155.316406 122.457031 170.722656 " fill-opacity="1" fill-rule="nonzero"/></g></g></g></g><g clip-path="url(#66665ca27e)"><g clip-path="url(#4d361eb3d1)"><g clip-path="url(#852c9d8822)"><g clip-path="url(#258ab4064b)"><path fill="#cb8835" d="M 171.902344 318.976562 C 171.898438 318.976562 171.890625 318.972656 171.882812 318.972656 C 167.464844 317.746094 144.464844 310.953125 135.675781 299.96875 C 135.296875 299.5 135.441406 298.804688 135.980469 298.53125 C 139.105469 296.949219 148.972656 291.789062 158.378906 285.191406 C 158.429688 285.292969 158.488281 285.398438 158.546875 285.496094 C 158.546875 285.496094 158.546875 285.5 158.546875 285.5 C 149.535156 291.84375 140.03125 296.8125 137.035156 298.332031 C 136.523438 298.589844 136.386719 299.253906 136.746094 299.703125 C 145.121094 310.164062 167.03125 316.636719 171.238281 317.804688 C 171.246094 317.804688 171.253906 317.808594 171.261719 317.808594 C 171.664062 317.910156 172.09375 317.722656 172.28125 317.351562 C 173.273438 315.394531 174.027344 313.390625 174.578125 311.363281 C 174.824219 311.707031 175.078125 312.050781 175.328125 312.402344 C 175.328125 312.402344 175.332031 312.402344 175.332031 312.40625 C 174.757812 314.464844 173.984375 316.507812 172.976562 318.496094 C 172.777344 318.886719 172.328125 319.082031 171.902344 318.976562 " fill-opacity="1" fill-rule="nonzero"/></g></g></g></g><g clip-path="url(#541989c842)"><g clip-path="url(#80b4d64b2c)"><g clip-path="url(#0f1e52d5d5)"><g clip-path="url(#b3eb3eff71)"><path fill="#cea23a" d="M 171.261719 317.808594 C 171.253906 317.808594 171.246094 317.804688 171.238281 317.804688 C 167.03125 316.636719 145.121094 310.164062 136.746094 299.703125 C 136.386719 299.253906 136.523438 298.589844 137.035156 298.332031 C 140.03125 296.8125 149.535156 291.84375 158.546875 285.5 C 160.253906 288.695312 162.027344 291.863281 163.886719 294.984375 C 163.855469 295.0625 163.832031 295.144531 163.8125 295.226562 C 163.507812 296.425781 164.238281 297.640625 165.4375 297.941406 C 165.523438 297.960938 165.609375 297.980469 165.699219 297.992188 C 167.296875 300.601562 168.953125 303.179688 170.664062 305.726562 C 170.65625 306.644531 171.21875 307.488281 172.089844 307.828125 C 172.90625 309.015625 173.734375 310.191406 174.578125 311.363281 C 174.027344 313.390625 173.273438 315.394531 172.28125 317.351562 C 172.09375 317.722656 171.664062 317.910156 171.261719 317.808594 M 170.101562 312.152344 C 168.902344 311.851562 167.6875 312.574219 167.386719 313.773438 C 167.085938 314.96875 167.8125 316.183594 169.011719 316.484375 C 170.210938 316.789062 171.425781 316.0625 171.726562 314.863281 C 172.027344 313.667969 171.300781 312.453125 170.101562 312.152344 M 153.289062 305.09375 C 152.089844 304.789062 150.875 305.515625 150.574219 306.714844 C 150.273438 307.910156 151 309.125 152.199219 309.425781 C 153.398438 309.726562 154.613281 309.003906 154.914062 307.804688 C 155.214844 306.609375 154.488281 305.394531 153.289062 305.09375 M 163.972656 305.078125 C 162.773438 304.777344 161.558594 305.503906 161.257812 306.699219 C 160.957031 307.898438 161.683594 309.113281 162.882812 309.414062 C 164.078125 309.714844 165.296875 308.988281 165.597656 307.792969 C 165.898438 306.59375 165.167969 305.378906 163.972656 305.078125 M 147.964844 297.433594 C 146.765625 297.132812 145.550781 297.855469 145.25 299.054688 C 144.949219 300.25 145.675781 301.464844 146.875 301.765625 C 148.070312 302.066406 149.289062 301.34375 149.589844 300.144531 C 149.890625 298.949219 149.164062 297.734375 147.964844 297.433594 M 157.53125 297.136719 C 156.332031 296.835938 155.117188 297.5625 154.816406 298.761719 C 154.515625 299.957031 155.242188 301.171875 156.441406 301.472656 C 157.636719 301.773438 158.855469 301.046875 159.15625 299.851562 C 159.457031 298.652344 158.726562 297.441406 157.53125 297.136719 M 158.5 288.824219 C 157.300781 288.519531 156.085938 289.246094 155.785156 290.445312 C 155.484375 291.640625 156.210938 292.855469 157.410156 293.15625 C 158.609375 293.457031 159.824219 292.734375 160.125 291.535156 C 160.425781 290.339844 159.699219 289.125 158.5 288.824219 " fill-opacity="1" fill-rule="nonzero"/></g></g></g></g><g clip-path="url(#7793b4657e)"><g clip-path="url(#5dd1d731da)"><g clip-path="url(#5d383f505a)"><g clip-path="url(#53a8b72f8f)"><path fill="#cb8835" d="M 146.875 301.765625 C 145.675781 301.464844 144.949219 300.25 145.25 299.054688 C 145.550781 297.855469 146.765625 297.132812 147.964844 297.433594 C 149.164062 297.734375 149.890625 298.949219 149.589844 300.144531 C 149.289062 301.34375 148.070312 302.066406 146.875 301.765625 " fill-opacity="1" fill-rule="nonzero"/></g></g></g></g><g clip-path="url(#6e3b3c06bc)"><g clip-path="url(#c77523da10)"><g clip-path="url(#928b4bf8d3)"><g clip-path="url(#3bd28a8031)"><path fill="#cb8835" d="M 157.410156 293.15625 C 156.210938 292.855469 155.484375 291.640625 155.785156 290.445312 C 156.085938 289.246094 157.300781 288.519531 158.5 288.824219 C 159.699219 289.125 160.425781 290.339844 160.125 291.535156 C 159.824219 292.734375 158.609375 293.457031 157.410156 293.15625 " fill-opacity="1" fill-rule="nonzero"/></g></g></g></g><g clip-path="url(#6fae4221bc)"><g clip-path="url(#117e616714)"><g clip-path="url(#3d6debcbba)"><g clip-path="url(#530490cb8c)"><path fill="#cb8835" d="M 156.441406 301.472656 C 155.242188 301.171875 154.515625 299.957031 154.816406 298.761719 C 155.117188 297.5625 156.332031 296.835938 157.53125 297.136719 C 158.726562 297.441406 159.457031 298.652344 159.15625 299.851562 C 158.855469 301.046875 157.636719 301.773438 156.441406 301.472656 " fill-opacity="1" fill-rule="nonzero"/></g></g></g></g><g clip-path="url(#01287d557c)"><g clip-path="url(#355a67ee78)"><g clip-path="url(#0ee8749003)"><g clip-path="url(#cf7896c15d)"><path fill="#cb8835" d="M 162.882812 309.414062 C 161.683594 309.113281 160.957031 307.898438 161.257812 306.699219 C 161.558594 305.503906 162.773438 304.777344 163.972656 305.078125 C 165.167969 305.378906 165.898438 306.59375 165.597656 307.792969 C 165.296875 308.988281 164.078125 309.714844 162.882812 309.414062 " fill-opacity="1" fill-rule="nonzero"/></g></g></g></g><g clip-path="url(#3fa3317713)"><g clip-path="url(#8e84f9e7ee)"><g clip-path="url(#eac3eef07a)"><g clip-path="url(#382e6b0b96)"><path fill="#cb8835" d="M 165.4375 297.941406 C 164.238281 297.640625 163.507812 296.425781 163.8125 295.226562 C 163.832031 295.144531 163.855469 295.0625 163.886719 294.984375 C 164.476562 295.992188 165.078125 296.984375 165.695312 297.980469 C 165.695312 297.984375 165.695312 297.988281 165.699219 297.992188 C 165.609375 297.980469 165.523438 297.960938 165.4375 297.941406 " fill-opacity="1" fill-rule="nonzero"/></g></g></g></g><g clip-path="url(#daecc2859b)"><g clip-path="url(#9ba0f8673a)"><g clip-path="url(#4f7d8c2c34)"><g clip-path="url(#22dfa5fa8a)"><path fill="#cb8835" d="M 172.089844 307.828125 C 171.21875 307.488281 170.65625 306.644531 170.664062 305.726562 C 171.132812 306.429688 171.605469 307.125 172.085938 307.820312 C 172.085938 307.824219 172.089844 307.824219 172.089844 307.828125 " fill-opacity="1" fill-rule="nonzero"/></g></g></g></g><g clip-path="url(#35b7529594)"><g clip-path="url(#ed991d503a)"><g clip-path="url(#c59a992cdc)"><g clip-path="url(#419f132c7f)"><path fill="#cb8835" d="M 169.011719 316.484375 C 167.8125 316.183594 167.085938 314.96875 167.386719 313.773438 C 167.6875 312.574219 168.902344 311.851562 170.101562 312.152344 C 171.300781 312.453125 172.027344 313.667969 171.726562 314.863281 C 171.425781 316.0625 170.210938 316.789062 169.011719 316.484375 " fill-opacity="1" fill-rule="nonzero"/></g></g></g></g><g clip-path="url(#e5fd9cb36f)"><g clip-path="url(#440bcfb8d5)"><g clip-path="url(#416fd2ea6b)"><g clip-path="url(#1dae547d6e)"><path fill="#cb8835" d="M 152.199219 309.425781 C 151 309.125 150.273438 307.910156 150.574219 306.714844 C 150.875 305.515625 152.089844 304.789062 153.289062 305.09375 C 154.488281 305.394531 155.214844 306.609375 154.914062 307.804688 C 154.613281 309.003906 153.398438 309.726562 152.199219 309.425781 " fill-opacity="1" fill-rule="nonzero"/></g></g></g></g><g clip-path="url(#3f57881260)"><g clip-path="url(#6026c2b1ac)"><g clip-path="url(#555fea1f1d)"><g clip-path="url(#9b2975ad9d)"><path fill="#cb8835" d="M 191.175781 331.460938 C 190.238281 331.214844 189.304688 330.921875 188.375 330.578125 C 187.957031 330.425781 187.707031 329.992188 187.773438 329.550781 C 187.832031 329.175781 187.910156 328.671875 188.015625 328.058594 C 188.289062 328.355469 188.570312 328.664062 188.847656 328.972656 C 188.871094 329.320312 189.09375 329.632812 189.429688 329.757812 C 189.5 329.78125 189.566406 329.804688 189.632812 329.832031 C 190.144531 330.371094 190.648438 330.917969 191.167969 331.453125 C 191.167969 331.457031 191.171875 331.460938 191.175781 331.460938 " fill-opacity="1" fill-rule="nonzero"/></g></g></g></g><g clip-path="url(#c720e22489)"><g clip-path="url(#827e19ebfd)"><g clip-path="url(#98bcf0c076)"><g clip-path="url(#7c709529db)"><path fill="#cea23a" d="M 189.636719 329.832031 C 189.566406 329.804688 189.5 329.78125 189.429688 329.757812 C 189.09375 329.632812 188.871094 329.320312 188.847656 328.972656 C 188.851562 328.972656 188.851562 328.976562 188.851562 328.976562 C 189.109375 329.257812 189.371094 329.542969 189.628906 329.824219 C 189.632812 329.828125 189.632812 329.828125 189.636719 329.832031 " fill-opacity="1" fill-rule="nonzero"/></g></g></g></g><g clip-path="url(#325e0de5a8)"><g clip-path="url(#33af4b30c1)"><g clip-path="url(#91b13519a7)"><g clip-path="url(#45e6048cc0)"><path fill="#cea23a" d="M 133.679688 222.53125 L 110.277344 216.648438 C 110.914062 214.199219 111.535156 211.769531 112.136719 209.382812 C 116.46875 192.152344 119.632812 177.148438 119.246094 172.03125 C 119.195312 171.355469 119.132812 170.640625 119.0625 169.871094 L 122.457031 170.722656 C 124.871094 186.261719 128.429688 204.039062 133.679688 222.53125 " fill-opacity="1" fill-rule="nonzero"/></g></g></g></g><g clip-path="url(#2832f20dc4)"><g clip-path="url(#fbc2323a60)"><g clip-path="url(#83aa38ceae)"><g clip-path="url(#e4588b7e53)"><path fill="#d4d4d4" d="M 87.667969 312.550781 L 120.078125 292.988281 L 102.59375 316.234375 L 87.667969 312.550781 " fill-opacity="1" fill-rule="nonzero"/></g></g></g></g><g clip-path="url(#144f101fbf)"><g clip-path="url(#ec0cf49ac5)"><g clip-path="url(#e2dc26c73c)"><g clip-path="url(#a6c272f6c6)"><path fill="#d4d4d4" d="M 70.355469 308.277344 C 70.355469 308.277344 86.558594 294.175781 93.929688 272.71875 C 94.90625 269.867188 96.089844 266.210938 97.402344 261.976562 C 111.816406 256.941406 129.539062 250.769531 141.410156 246.632812 C 142.113281 248.609375 142.847656 250.582031 143.609375 252.558594 L 82.152344 311.1875 L 70.355469 308.277344 " fill-opacity="1" fill-rule="nonzero"/></g></g></g></g><g clip-path="url(#8da93361bb)"><g clip-path="url(#e7f9c918c2)"><g clip-path="url(#7644dd4ce0)"><g clip-path="url(#e8bafaab91)"><g clip-path="url(#a91cf9ed26)"><g clip-path="url(#1da1760ee2)"><path fill="#b12925" d="M 238.570312 365.976562 L 113.199219 333.296875 L 93.605469 328.191406 L 71.355469 322.390625 L 70.617188 322.199219 L 66.714844 321.183594 L 70.355469 308.277344 L 82.152344 311.1875 L 87.667969 312.550781 L 102.59375 316.234375 L 200.253906 340.335938 C 208.882812 348.164062 218.410156 355.148438 228.929688 361.03125 C 232.054688 362.777344 235.265625 364.429688 238.570312 365.976562 " fill-opacity="1" fill-rule="nonzero"/></g></g></g></g></g></g><g clip-path="url(#1762da23dd)"><g clip-path="url(#53d93f65bf)"><g clip-path="url(#2c99cbeea7)"><g clip-path="url(#1939a98f2a)"><path fill="#b12925" d="M 114.363281 131.691406 L 117.351562 116.640625 C 117.351562 116.640625 117.398438 122.558594 118.109375 132.617188 L 114.363281 131.691406 " fill-opacity="1" fill-rule="nonzero"/></g></g></g></g><g fill="#ffffff" fill-opacity="1"><g transform="translate(155.836797, 105.48071)"><g><path d="M 11.1875 -20.53125 C 12.257812 -18.957031 13.566406 -17.273438 15.109375 -15.484375 C 16.648438 -13.691406 18.476562 -12.1875 20.59375 -10.96875 C 22.707031 -9.75 25.125 -9.140625 27.84375 -9.140625 C 30 -9.140625 32.148438 -9.691406 34.296875 -10.796875 C 36.441406 -11.910156 38.25 -13.5625 39.71875 -15.75 C 41.195312 -17.9375 41.9375 -20.609375 41.9375 -23.765625 C 41.9375 -26.984375 41.34375 -29.5625 40.15625 -31.5 C 38.976562 -33.4375 37.421875 -34.832031 35.484375 -35.6875 C 33.546875 -36.550781 31.429688 -36.984375 29.140625 -36.984375 C 26.910156 -36.984375 24.664062 -36.640625 22.40625 -35.953125 C 20.15625 -35.273438 18.0625 -34.546875 16.125 -33.765625 L 12.90625 -42.25 L 33.109375 -64.515625 L 6.34375 -64.515625 L 6.34375 -75.265625 L 49.453125 -75.265625 L 51.609375 -70.953125 L 30.53125 -47.625 C 34.6875 -47.625 38.46875 -46.601562 41.875 -44.5625 C 45.28125 -42.519531 48.003906 -39.742188 50.046875 -36.234375 C 52.085938 -32.722656 53.109375 -28.78125 53.109375 -24.40625 C 53.109375 -19.25 51.867188 -14.75 49.390625 -10.90625 C 46.921875 -7.070312 43.695312 -4.113281 39.71875 -2.03125 C 35.75 0.0390625 31.503906 1.078125 26.984375 1.078125 C 22.753906 1.078125 19.113281 0.378906 16.0625 -1.015625 C 13.019531 -2.421875 10.390625 -4.335938 8.171875 -6.765625 C 5.953125 -9.203125 3.945312 -11.894531 2.15625 -14.84375 Z M 11.1875 -20.53125 "/></g></g></g></svg>