<svg xmlns="http://www.w3.org/2000/svg" xmlns:xlink="http://www.w3.org/1999/xlink" width="500" zoomAndPan="magnify" viewBox="0 0 375 374.999991" height="500" preserveAspectRatio="xMidYMid meet" version="1.0"><defs><g/><clipPath id="0d1fdeee8f"><path d="M 6.570312 0 L 369.714844 0 L 369.714844 375 L 6.570312 375 Z M 6.570312 0 " clip-rule="nonzero"/></clipPath><clipPath id="16b2079c15"><path d="M 20.820312 0 L 355.464844 0 C 359.242188 0 362.867188 1.5 365.539062 4.171875 C 368.210938 6.847656 369.714844 10.46875 369.714844 14.25 L 369.714844 360.75 C 369.714844 364.527344 368.210938 368.152344 365.539062 370.828125 C 362.867188 373.5 359.242188 375 355.464844 375 L 20.820312 375 C 17.039062 375 13.414062 373.5 10.742188 370.828125 C 8.070312 368.152344 6.570312 364.527344 6.570312 360.75 L 6.570312 14.25 C 6.570312 10.46875 8.070312 6.847656 10.742188 4.171875 C 13.414062 1.5 17.039062 0 20.820312 0 Z M 20.820312 0 " clip-rule="nonzero"/></clipPath><clipPath id="33b073e61a"><path d="M 68.25 137.792969 L 297.75 137.792969 L 297.75 367.292969 L 68.25 367.292969 Z M 68.25 137.792969 " clip-rule="nonzero"/></clipPath><clipPath id="c0f602eab4"><path d="M 297.75 252.542969 C 297.75 315.917969 246.375 367.292969 183 367.292969 C 119.628906 367.292969 68.25 315.917969 68.25 252.542969 C 68.25 189.171875 119.628906 137.792969 183 137.792969 C 246.375 137.792969 297.75 189.171875 297.75 252.542969 Z M 297.75 252.542969 " clip-rule="nonzero"/></clipPath><clipPath id="8d56eda190"><path d="M 297.75 252.542969 C 297.75 315.917969 246.375 367.292969 183 367.292969 C 119.628906 367.292969 68.25 315.917969 68.25 252.542969 C 68.25 189.171875 119.628906 137.792969 183 137.792969 C 246.375 137.792969 297.75 189.171875 297.75 252.542969 " clip-rule="nonzero"/></clipPath><clipPath id="e4a7ce8694"><path d="M 223.238281 30.328125 L -39.214844 212.308594 L 142.765625 474.761719 L 405.214844 292.78125 Z M 223.238281 30.328125 " clip-rule="nonzero"/></clipPath><linearGradient x1="-0.00730855" gradientTransform="matrix(186.639366, 269.169944, -269.169944, 186.639366, 93.376322, 123.286647)" y1="0" x2="0.967726" gradientUnits="userSpaceOnUse" y2="0" id="69383a3b15"><stop stop-opacity="1" stop-color="rgb(92.89856%, 10.998535%, 14.099121%)" offset="0"/><stop stop-opacity="1" stop-color="rgb(92.89856%, 10.998535%, 14.099121%)" offset="0.0078125"/><stop stop-opacity="1" stop-color="rgb(93.629456%, 9.901428%, 12.678528%)" offset="0.0117187"/><stop stop-opacity="1" stop-color="rgb(94.360352%, 8.805847%, 11.257935%)" offset="0.015625"/><stop stop-opacity="1" stop-color="rgb(95.24231%, 7.333374%, 9.5047%)" offset="0.0195312"/><stop stop-opacity="1" stop-color="rgb(96.124268%, 5.862427%, 7.752991%)" offset="0.0234375"/><stop stop-opacity="1" stop-color="rgb(96.855164%, 4.690552%, 6.239319%)" offset="0.0273438"/><stop stop-opacity="1" stop-color="rgb(97.587585%, 3.518677%, 4.725647%)" offset="0.03125"/><stop stop-opacity="1" stop-color="rgb(98.36731%, 2.397156%, 3.208923%)" offset="0.0351562"/><stop stop-opacity="1" stop-color="rgb(99.14856%, 1.275635%, 1.693726%)" offset="0.0390625"/><stop stop-opacity="1" stop-color="rgb(99.551392%, 0.65918%, 0.889587%)" offset="0.0429688"/><stop stop-opacity="1" stop-color="rgb(99.95575%, 0.0427246%, 0.0869751%)" offset="0.046875"/><stop stop-opacity="1" stop-color="rgb(99.787903%, 0.0213623%, 0.231934%)" offset="0.0625"/><stop stop-opacity="1" stop-color="rgb(99.516296%, 0.0930786%, 0.389099%)" offset="0.0703125"/><stop stop-opacity="1" stop-color="rgb(99.308777%, 0.289917%, 0.39978%)" offset="0.078125"/><stop stop-opacity="1" stop-color="rgb(99.105835%, 0.491333%, 0.494385%)" offset="0.0859375"/><stop stop-opacity="1" stop-color="rgb(98.910522%, 0.688171%, 0.688171%)" offset="0.09375"/><stop stop-opacity="1" stop-color="rgb(98.709106%, 0.791931%, 0.888062%)" offset="0.101562"/><stop stop-opacity="1" stop-color="rgb(98.501587%, 0.799561%, 1.095581%)" offset="0.109375"/><stop stop-opacity="1" stop-color="rgb(98.202515%, 0.996399%, 1.199341%)" offset="0.125"/><stop stop-opacity="1" stop-color="rgb(97.81189%, 1.387024%, 1.390076%)" offset="0.140625"/><stop stop-opacity="1" stop-color="rgb(97.535706%, 1.589966%, 1.686096%)" offset="0.148438"/><stop stop-opacity="1" stop-color="rgb(97.37854%, 1.599121%, 1.893616%)" offset="0.15625"/><stop stop-opacity="1" stop-color="rgb(97.105408%, 1.792908%, 2.192688%)" offset="0.171875"/><stop stop-opacity="1" stop-color="rgb(96.714783%, 1.992798%, 2.392578%)" offset="0.1875"/><stop stop-opacity="1" stop-color="rgb(96.41571%, 2.09198%, 2.468872%)" offset="0.195312"/><stop stop-opacity="1" stop-color="rgb(96.208191%, 2.290344%, 2.616882%)" offset="0.203125"/><stop stop-opacity="1" stop-color="rgb(95.909119%, 2.540588%, 2.890015%)" offset="0.21875"/><stop stop-opacity="1" stop-color="rgb(95.610046%, 2.693176%, 3.091431%)" offset="0.226562"/><stop stop-opacity="1" stop-color="rgb(95.402527%, 2.69928%, 3.09906%)" offset="0.234375"/><stop stop-opacity="1" stop-color="rgb(95.298767%, 2.896118%, 3.295898%)" offset="0.25"/><stop stop-opacity="1" stop-color="rgb(95.106506%, 3.094482%, 3.686523%)" offset="0.265625"/><stop stop-opacity="1" stop-color="rgb(94.812012%, 3.193665%, 3.889465%)" offset="0.273437"/><stop stop-opacity="1" stop-color="rgb(94.604492%, 3.393555%, 3.898621%)" offset="0.28125"/><stop stop-opacity="1" stop-color="rgb(94.30542%, 3.692627%, 4.092407%)" offset="0.296875"/><stop stop-opacity="1" stop-color="rgb(93.914795%, 3.892517%, 4.483032%)" offset="0.3125"/><stop stop-opacity="1" stop-color="rgb(93.615723%, 3.991699%, 4.782104%)" offset="0.320312"/><stop stop-opacity="1" stop-color="rgb(93.408203%, 4.190063%, 4.989624%)" offset="0.328125"/><stop stop-opacity="1" stop-color="rgb(93.206787%, 4.391479%, 5.096436%)" offset="0.335937"/><stop stop-opacity="1" stop-color="rgb(93.011475%, 4.588318%, 5.099487%)" offset="0.34375"/><stop stop-opacity="1" stop-color="rgb(92.810059%, 4.692078%, 5.195618%)" offset="0.351563"/><stop stop-opacity="1" stop-color="rgb(92.601013%, 4.699707%, 5.397034%)" offset="0.359375"/><stop stop-opacity="1" stop-color="rgb(92.350769%, 4.896545%, 5.696106%)" offset="0.375"/><stop stop-opacity="1" stop-color="rgb(92.010498%, 5.09491%, 5.89447%)" offset="0.390625"/><stop stop-opacity="1" stop-color="rgb(91.712952%, 5.194092%, 5.993652%)" offset="0.398437"/><stop stop-opacity="1" stop-color="rgb(91.503906%, 5.393982%, 6.193542%)" offset="0.40625"/><stop stop-opacity="1" stop-color="rgb(91.204834%, 5.693054%, 6.492615%)" offset="0.421875"/><stop stop-opacity="1" stop-color="rgb(90.814209%, 5.892944%, 6.88324%)" offset="0.4375"/><stop stop-opacity="1" stop-color="rgb(90.515137%, 5.992126%, 7.089233%)" offset="0.445312"/><stop stop-opacity="1" stop-color="rgb(90.307617%, 6.190491%, 7.099915%)" offset="0.453125"/><stop stop-opacity="1" stop-color="rgb(90.008545%, 6.295776%, 7.292175%)" offset="0.46875"/><stop stop-opacity="1" stop-color="rgb(89.709473%, 6.394958%, 7.565308%)" offset="0.476563"/><stop stop-opacity="1" stop-color="rgb(89.500427%, 6.596375%, 7.720947%)" offset="0.484375"/><stop stop-opacity="1" stop-color="rgb(89.201355%, 6.896973%, 7.798767%)" offset="0.5"/><stop stop-opacity="1" stop-color="rgb(88.81073%, 7.095337%, 7.989502%)" offset="0.515625"/><stop stop-opacity="1" stop-color="rgb(88.511658%, 7.194519%, 8.285522%)" offset="0.523438"/><stop stop-opacity="1" stop-color="rgb(88.304138%, 7.392883%, 8.493042%)" offset="0.53125"/><stop stop-opacity="1" stop-color="rgb(88.005066%, 7.644653%, 8.79364%)" offset="0.546875"/><stop stop-opacity="1" stop-color="rgb(87.661743%, 7.794189%, 8.99353%)" offset="0.5625"/><stop stop-opacity="1" stop-color="rgb(87.413025%, 7.891846%, 9.092712%)" offset="0.570313"/><stop stop-opacity="1" stop-color="rgb(87.207031%, 8.09021%, 9.289551%)" offset="0.578125"/><stop stop-opacity="1" stop-color="rgb(86.907959%, 8.195496%, 9.590149%)" offset="0.59375"/><stop stop-opacity="1" stop-color="rgb(86.608887%, 8.294678%, 9.791565%)" offset="0.601562"/><stop stop-opacity="1" stop-color="rgb(86.401367%, 8.496094%, 9.799194%)" offset="0.609375"/><stop stop-opacity="1" stop-color="rgb(86.102295%, 8.796692%, 9.996033%)" offset="0.625"/><stop stop-opacity="1" stop-color="rgb(85.71167%, 8.995056%, 10.386658%)" offset="0.640625"/><stop stop-opacity="1" stop-color="rgb(85.412598%, 9.094238%, 10.68573%)" offset="0.648438"/><stop stop-opacity="1" stop-color="rgb(85.203552%, 9.294128%, 10.89325%)" offset="0.65625"/><stop stop-opacity="1" stop-color="rgb(84.90448%, 9.397888%, 10.998535%)" offset="0.671875"/><stop stop-opacity="1" stop-color="rgb(84.513855%, 9.588623%, 11.18927%)" offset="0.6875"/><stop stop-opacity="1" stop-color="rgb(84.214783%, 9.883118%, 11.482239%)" offset="0.695313"/><stop stop-opacity="1" stop-color="rgb(84.007263%, 10.090637%, 11.689758%)" offset="0.703125"/><stop stop-opacity="1" stop-color="rgb(83.708191%, 10.195923%, 11.79657%)" offset="0.71875"/><stop stop-opacity="1" stop-color="rgb(83.409119%, 10.295105%, 11.895752%)" offset="0.726562"/><stop stop-opacity="1" stop-color="rgb(83.201599%, 10.496521%, 12.097168%)" offset="0.734375"/><stop stop-opacity="1" stop-color="rgb(82.902527%, 10.797119%, 12.347412%)" offset="0.75"/><stop stop-opacity="1" stop-color="rgb(82.559204%, 10.995483%, 12.496948%)" offset="0.765625"/><stop stop-opacity="1" stop-color="rgb(82.30896%, 11.09314%, 12.594604%)" offset="0.773438"/><stop stop-opacity="1" stop-color="rgb(82.104492%, 11.29303%, 12.792969%)" offset="0.78125"/><stop stop-opacity="1" stop-color="rgb(81.80542%, 11.398315%, 13.093567%)" offset="0.796875"/><stop stop-opacity="1" stop-color="rgb(81.414795%, 11.58905%, 13.484192%)" offset="0.8125"/><stop stop-opacity="1" stop-color="rgb(81.115723%, 11.883545%, 13.68866%)" offset="0.820313"/><stop stop-opacity="1" stop-color="rgb(80.906677%, 12.091064%, 13.699341%)" offset="0.828125"/><stop stop-opacity="1" stop-color="rgb(80.607605%, 12.19635%, 13.891602%)" offset="0.84375"/><stop stop-opacity="1" stop-color="rgb(80.308533%, 12.271118%, 14.189148%)" offset="0.851562"/><stop stop-opacity="1" stop-color="rgb(80.101013%, 12.42218%, 14.395142%)" offset="0.859375"/><stop stop-opacity="1" stop-color="rgb(79.801941%, 12.5%, 14.498901%)" offset="0.875"/><stop stop-opacity="1" stop-color="rgb(79.411316%, 12.690735%, 14.691162%)" offset="0.890625"/><stop stop-opacity="1" stop-color="rgb(79.112244%, 12.986755%, 14.985657%)" offset="0.898438"/><stop stop-opacity="1" stop-color="rgb(78.903198%, 13.194275%, 15.193176%)" offset="0.90625"/><stop stop-opacity="1" stop-color="rgb(78.604126%, 13.298035%, 15.493774%)" offset="0.921875"/><stop stop-opacity="1" stop-color="rgb(78.213501%, 13.48877%, 15.693665%)" offset="0.9375"/><stop stop-opacity="1" stop-color="rgb(77.914429%, 13.783264%, 15.792847%)" offset="0.945313"/><stop stop-opacity="1" stop-color="rgb(77.706909%, 13.990784%, 15.989685%)" offset="0.953125"/><stop stop-opacity="1" stop-color="rgb(77.600098%, 14.096069%, 16.290283%)" offset="0.96875"/><stop stop-opacity="1" stop-color="rgb(77.52533%, 14.195251%, 16.491699%)" offset="0.976562"/><stop stop-opacity="1" stop-color="rgb(77.374268%, 14.395142%, 16.499329%)" offset="0.984375"/><stop stop-opacity="1" stop-color="rgb(77.101135%, 14.498901%, 16.696167%)" offset="1"/></linearGradient></defs><g clip-path="url(#0d1fdeee8f)"><g clip-path="url(#16b2079c15)"><path fill="#525252" d="M 6.570312 0 L 369.714844 0 L 369.714844 374.492188 L 6.570312 374.492188 Z M 6.570312 0 " fill-opacity="1" fill-rule="nonzero"/></g></g><g clip-path="url(#33b073e61a)"><g clip-path="url(#c0f602eab4)"><g clip-path="url(#8d56eda190)"><g clip-path="url(#e4a7ce8694)"><path fill="url(#69383a3b15)" d="M 223.238281 30.328125 L -39.214844 212.308594 L 142.765625 474.757812 L 405.214844 292.78125 Z M 223.238281 30.328125 " fill-rule="nonzero"/></g></g></g></g><path fill="#ffffff" d="M 240.191406 242.84375 L 161.460938 197.386719 C 153.808594 192.96875 144.238281 198.492188 144.238281 207.328125 L 144.238281 298.238281 C 144.238281 307.074219 153.808594 312.597656 161.460938 308.179688 L 240.191406 262.726562 C 247.84375 258.308594 247.84375 247.261719 240.191406 242.84375 L 161.460938 197.386719 C 153.808594 192.96875 144.238281 198.492188 144.238281 207.328125 L 144.238281 298.238281 C 144.238281 307.074219 153.808594 312.597656 161.460938 308.179688 L 240.191406 262.726562 C 247.84375 258.308594 247.84375 247.261719 240.191406 242.84375 " fill-opacity="1" fill-rule="nonzero"/><g fill="#ffffff" fill-opacity="1"><g transform="translate(123.195381, 105.48071)"><g><path d="M 11.1875 -20.53125 C 12.257812 -18.957031 13.566406 -17.273438 15.109375 -15.484375 C 16.648438 -13.691406 18.476562 -12.1875 20.59375 -10.96875 C 22.707031 -9.75 25.125 -9.140625 27.84375 -9.140625 C 30 -9.140625 32.148438 -9.691406 34.296875 -10.796875 C 36.441406 -11.910156 38.25 -13.5625 39.71875 -15.75 C 41.195312 -17.9375 41.9375 -20.609375 41.9375 -23.765625 C 41.9375 -26.984375 41.34375 -29.5625 40.15625 -31.5 C 38.976562 -33.4375 37.421875 -34.832031 35.484375 -35.6875 C 33.546875 -36.550781 31.429688 -36.984375 29.140625 -36.984375 C 26.910156 -36.984375 24.664062 -36.640625 22.40625 -35.953125 C 20.15625 -35.273438 18.0625 -34.546875 16.125 -33.765625 L 12.90625 -42.25 L 33.109375 -64.515625 L 6.34375 -64.515625 L 6.34375 -75.265625 L 49.453125 -75.265625 L 51.609375 -70.953125 L 30.53125 -47.625 C 34.6875 -47.625 38.46875 -46.601562 41.875 -44.5625 C 45.28125 -42.519531 48.003906 -39.742188 50.046875 -36.234375 C 52.085938 -32.722656 53.109375 -28.78125 53.109375 -24.40625 C 53.109375 -19.25 51.867188 -14.75 49.390625 -10.90625 C 46.921875 -7.070312 43.695312 -4.113281 39.71875 -2.03125 C 35.75 0.0390625 31.503906 1.078125 26.984375 1.078125 C 22.753906 1.078125 19.113281 0.378906 16.0625 -1.015625 C 13.019531 -2.421875 10.390625 -4.335938 8.171875 -6.765625 C 5.953125 -9.203125 3.945312 -11.894531 2.15625 -14.84375 Z M 11.1875 -20.53125 "/></g></g><g transform="translate(180.070514, 105.48071)"><g><path d="M 32.578125 1.078125 C 26.554688 1.078125 21.484375 -0.585938 17.359375 -3.921875 C 13.242188 -7.253906 10.144531 -11.820312 8.0625 -17.625 C 5.988281 -23.4375 4.953125 -30.101562 4.953125 -37.625 C 4.953125 -45.15625 5.988281 -51.820312 8.0625 -57.625 C 10.144531 -63.4375 13.242188 -68.007812 17.359375 -71.34375 C 21.484375 -74.675781 26.554688 -76.34375 32.578125 -76.34375 C 38.671875 -76.34375 43.757812 -74.675781 47.84375 -71.34375 C 51.925781 -68.007812 55.023438 -63.4375 57.140625 -57.625 C 59.253906 -51.820312 60.3125 -45.15625 60.3125 -37.625 C 60.3125 -30.101562 59.253906 -23.4375 57.140625 -17.625 C 55.023438 -11.820312 51.925781 -7.253906 47.84375 -3.921875 C 43.757812 -0.585938 38.671875 1.078125 32.578125 1.078125 Z M 32.578125 -9.46875 C 37.734375 -9.46875 41.765625 -11.898438 44.671875 -16.765625 C 47.578125 -21.640625 49.03125 -28.59375 49.03125 -37.625 C 49.03125 -46.65625 47.578125 -53.609375 44.671875 -58.484375 C 41.765625 -63.359375 37.734375 -65.796875 32.578125 -65.796875 C 27.421875 -65.796875 23.390625 -63.359375 20.484375 -58.484375 C 17.578125 -53.609375 16.125 -46.65625 16.125 -37.625 C 16.125 -28.59375 17.578125 -21.640625 20.484375 -16.765625 C 23.390625 -11.898438 27.421875 -9.46875 32.578125 -9.46875 Z M 32.578125 -9.46875 "/></g></g></g></svg>