<svg xmlns="http://www.w3.org/2000/svg" xmlns:xlink="http://www.w3.org/1999/xlink" width="500" zoomAndPan="magnify" viewBox="0 0 375 374.999991" height="500" preserveAspectRatio="xMidYMid meet" version="1.0"><defs><g/><clipPath id="ba07165ee6"><path d="M 6.570312 0 L 369.714844 0 L 369.714844 375 L 6.570312 375 Z M 6.570312 0 " clip-rule="nonzero"/></clipPath><clipPath id="5ed45ad98e"><path d="M 20.820312 0 L 355.464844 0 C 359.242188 0 362.867188 1.5 365.539062 4.171875 C 368.210938 6.847656 369.714844 10.46875 369.714844 14.25 L 369.714844 360.75 C 369.714844 364.527344 368.210938 368.152344 365.539062 370.828125 C 362.867188 373.5 359.242188 375 355.464844 375 L 20.820312 375 C 17.039062 375 13.414062 373.5 10.742188 370.828125 C 8.070312 368.152344 6.570312 364.527344 6.570312 360.75 L 6.570312 14.25 C 6.570312 10.46875 8.070312 6.847656 10.742188 4.171875 C 13.414062 1.5 17.039062 0 20.820312 0 Z M 20.820312 0 " clip-rule="nonzero"/></clipPath><clipPath id="7425c7e6d5"><path d="M 80 142 L 287.964844 142 L 287.964844 349 L 80 349 Z M 80 142 " clip-rule="nonzero"/></clipPath></defs><g clip-path="url(#ba07165ee6)"><g clip-path="url(#5ed45ad98e)"><path fill="#ffbd59" d="M 6.570312 0 L 369.714844 0 L 369.714844 374.492188 L 6.570312 374.492188 Z M 6.570312 0 " fill-opacity="1" fill-rule="nonzero"/></g></g><path fill="#d9e4e4" d="M 258.332031 345.605469 C 263.476562 345.605469 274.472656 347.296875 279.65625 343.355469 C 286.070312 338.480469 284.066406 330.164062 284.066406 319.867188 C 283.503906 271.835938 281.75 217.613281 284.035156 170.933594 C 284.035156 165.785156 285.730469 154.792969 281.785156 149.609375 C 276.914062 143.195312 268.59375 145.199219 258.300781 145.199219 C 258.300781 145.199219 162.046875 149.042969 109.363281 145.265625 C 104.226562 144.894531 93.21875 143.570312 88.035156 147.515625 C 81.621094 152.382812 83.804688 160.707031 83.625 171 C 82.691406 224.035156 87.050781 265.773438 83.65625 319.933594 C 83.65625 325.082031 81.960938 336.078125 85.90625 341.257812 C 90.777344 347.671875 99.097656 345.671875 109.390625 345.671875 C 156.464844 347.246094 232.0625 345.355469 258.332031 345.605469 Z M 258.332031 345.605469 " fill-opacity="1" fill-rule="nonzero"/><path fill="#060606" d="M 134.410156 271.460938 C 130.375 272.308594 126.140625 272.203125 122.011719 272.042969 C 119.773438 253.914062 122.179688 235.503906 122.226562 217.324219 C 122.234375 215.089844 119.414062 213.933594 117.832031 215.5 C 114.585938 218.738281 110.957031 220.195312 106.65625 221.570312 C 103.519531 222.574219 104.855469 227.546875 108.027344 226.53125 C 111.304688 225.480469 114.261719 224.277344 117 222.589844 C 116.632812 239.003906 115.078125 255.457031 116.878906 271.808594 C 112.660156 271.605469 108.4375 271.371094 104.214844 271.363281 C 100.898438 271.351562 100.894531 276.5 104.214844 276.507812 C 109.789062 276.523438 115.351562 276.9375 120.921875 277.144531 C 125.863281 277.324219 130.914062 277.4375 135.78125 276.417969 C 139.015625 275.742188 137.648438 270.78125 134.410156 271.460938 Z M 134.410156 271.460938 " fill-opacity="1" fill-rule="nonzero"/><path fill="#060606" d="M 160.613281 214.765625 C 148.878906 215.476562 144.371094 227.078125 142.902344 237.226562 C 142.886719 237.355469 142.925781 237.457031 142.925781 237.578125 C 142.894531 237.695312 142.832031 237.78125 142.816406 237.910156 C 141.332031 249.699219 143.191406 266.683594 153.835938 274.1875 C 162.289062 280.148438 173.890625 274.457031 177.75 265.871094 C 179.816406 261.273438 180.554688 256.234375 180.960938 251.246094 C 181.378906 246.117188 181.792969 240.777344 180.882812 235.683594 C 179.109375 225.75 172.046875 214.074219 160.613281 214.765625 Z M 176.066406 247.082031 C 175.878906 251.203125 175.578125 255.34375 174.566406 259.355469 C 173.671875 262.925781 172.175781 266.617188 169.164062 268.933594 C 166.3125 271.121094 161.46875 272.277344 158.101562 270.753906 C 153.5 268.679688 150.980469 262.960938 149.5625 258.464844 C 147.496094 251.890625 147.109375 244.953125 147.941406 238.136719 C 148.960938 231.320312 151.214844 221.648438 159.136719 220.085938 C 167.835938 218.378906 173.265625 226.914062 175.285156 234.253906 C 176.457031 238.507812 176.265625 242.722656 176.066406 247.082031 Z M 176.066406 247.082031 " fill-opacity="1" fill-rule="nonzero"/><path fill="#060606" d="M 206.140625 214.910156 C 195.542969 215.609375 190.046875 226.273438 188.71875 235.707031 C 187.085938 247.308594 187.472656 262.484375 196.582031 271.152344 C 200.710938 275.078125 206.398438 276.695312 211.761719 274.351562 C 217.328125 271.917969 220.152344 266.703125 222.21875 261.285156 C 225.648438 252.308594 226.09375 242.296875 224.414062 232.867188 C 222.664062 223.09375 216.800781 214.992188 206.140625 214.910156 Z M 219.660156 251.464844 C 218.375 258.777344 213.097656 274.949219 202.625 269.304688 C 193.113281 264.175781 192.835938 249.78125 193.457031 240.53125 C 193.96875 232.949219 196.613281 220.691406 206.144531 220.0625 C 213.371094 220.117188 217.242188 225.105469 218.90625 231.6875 C 220.460938 237.859375 220.761719 245.175781 219.660156 251.464844 Z M 219.660156 251.464844 " fill-opacity="1" fill-rule="nonzero"/><path fill="#060606" d="M 261.8125 220.03125 C 258.113281 216.027344 251.933594 214.039062 246.566406 214.90625 C 240.769531 215.839844 237.203125 221.117188 235.0625 226.144531 C 232.601562 231.925781 231.375 238.242188 230.949219 244.496094 C 230.5625 253.449219 232.050781 264.59375 238.191406 271.539062 C 245.738281 280.070312 259.0625 275.933594 264.296875 267.074219 C 269.988281 257.433594 269.488281 244.902344 267.761719 234.246094 C 266.9375 229.15625 265.382812 223.90625 261.8125 220.03125 Z M 261.542969 260.898438 C 260.160156 264.722656 257.691406 268.433594 253.828125 270.070312 C 250.121094 271.644531 245.554688 271.5625 242.554688 268.664062 C 236.691406 263 235.761719 252.195312 236.097656 244.5 C 236.40625 240.011719 237.238281 235.535156 238.628906 231.25 C 239.828125 227.539062 241.640625 222.960938 245.144531 220.828125 C 248.660156 218.691406 254.191406 220.164062 257.152344 222.6875 C 260.375 225.429688 261.667969 229.769531 262.464844 233.769531 C 264.21875 242.535156 264.621094 252.378906 261.542969 260.898438 Z M 261.542969 260.898438 " fill-opacity="1" fill-rule="nonzero"/><g clip-path="url(#7425c7e6d5)"><path fill="#060606" d="M 286.582031 315.3125 C 286.476562 306.78125 286.332031 298.246094 286.191406 289.707031 C 285.609375 254.789062 284.929688 219.835938 286.046875 184.921875 C 286.273438 177.851562 286.6875 170.785156 286.921875 163.710938 C 287.113281 158.128906 287.03125 151.570312 283.09375 147.152344 C 276.917969 140.242188 265.5625 142.402344 257.363281 142.660156 C 242.238281 143.140625 227.113281 143.632812 211.980469 143.925781 C 186.855469 144.410156 161.707031 144.617188 136.582031 143.941406 C 125.089844 143.632812 113.632812 142.578125 102.148438 142.210938 C 96.5625 142.039062 89.972656 142.28125 85.582031 146.207031 C 81.070312 150.246094 80.730469 156.378906 80.867188 162.027344 C 81.261719 178.933594 80.871094 195.855469 81.214844 212.769531 C 81.5625 229.558594 82.121094 246.34375 82.324219 263.132812 C 82.539062 280.796875 82.316406 298.472656 81.3125 316.117188 C 80.730469 326.359375 77.707031 342.777344 90.011719 347.34375 C 96.113281 349.609375 103.070312 348.171875 109.394531 348.246094 C 115.640625 348.3125 121.882812 348.589844 128.121094 348.683594 C 142.378906 348.898438 156.636719 348.90625 170.886719 348.847656 C 196.058594 348.738281 221.226562 348.304688 246.394531 348.171875 C 250.375 348.152344 254.351562 348.140625 258.328125 348.175781 C 269.058594 348.289062 284.046875 350.4375 286.507812 336.324219 C 287.695312 329.53125 286.671875 322.175781 286.582031 315.3125 Z M 281.785156 163.289062 C 281.375 177.816406 280.601562 192.3125 280.425781 206.847656 C 280.226562 223.53125 280.328125 240.21875 280.539062 256.898438 C 280.746094 273.304688 281.0625 289.703125 281.308594 306.101562 C 281.421875 313.683594 281.574219 321.257812 281.761719 328.839844 C 281.898438 334.558594 281.488281 340.972656 274.957031 342.707031 C 269.574219 344.136719 263.8125 343.09375 258.335938 343.03125 C 211.152344 342.613281 163.980469 344.480469 116.792969 343.308594 C 110.429688 343.148438 104.089844 343.488281 97.738281 343.386719 C 91.300781 343.277344 86.914062 340.75 86.085938 334.011719 C 85.363281 328.164062 86.132812 321.980469 86.464844 316.117188 C 86.949219 307.550781 87.257812 298.976562 87.417969 290.394531 C 88.011719 258.292969 86.328125 226.21875 86.09375 194.121094 C 86.039062 185.710938 86.277344 177.300781 86.207031 168.894531 C 86.167969 163.476562 84.425781 155.5625 88.132812 150.945312 C 91.746094 146.445312 99.46875 147.164062 104.589844 147.476562 C 109.617188 147.785156 114.628906 148.203125 119.664062 148.457031 C 143.5625 149.648438 167.523438 149.640625 191.441406 149.382812 C 210.535156 149.175781 229.636719 148.746094 248.722656 148.109375 C 251.914062 148.003906 255.097656 147.859375 258.285156 147.769531 C 263.839844 147.621094 271.027344 146.257812 276.304688 148.488281 C 282.070312 150.917969 281.9375 158.015625 281.785156 163.289062 Z M 281.785156 163.289062 " fill-opacity="1" fill-rule="nonzero"/></g><g fill="#ffffff" fill-opacity="1"><g transform="translate(128.958189, 105.48071)"><g><path d="M 11.1875 -20.53125 C 12.257812 -18.957031 13.566406 -17.273438 15.109375 -15.484375 C 16.648438 -13.691406 18.476562 -12.1875 20.59375 -10.96875 C 22.707031 -9.75 25.125 -9.140625 27.84375 -9.140625 C 30 -9.140625 32.148438 -9.691406 34.296875 -10.796875 C 36.441406 -11.910156 38.25 -13.5625 39.71875 -15.75 C 41.195312 -17.9375 41.9375 -20.609375 41.9375 -23.765625 C 41.9375 -26.984375 41.34375 -29.5625 40.15625 -31.5 C 38.976562 -33.4375 37.421875 -34.832031 35.484375 -35.6875 C 33.546875 -36.550781 31.429688 -36.984375 29.140625 -36.984375 C 26.910156 -36.984375 24.664062 -36.640625 22.40625 -35.953125 C 20.15625 -35.273438 18.0625 -34.546875 16.125 -33.765625 L 12.90625 -42.25 L 33.109375 -64.515625 L 6.34375 -64.515625 L 6.34375 -75.265625 L 49.453125 -75.265625 L 51.609375 -70.953125 L 30.53125 -47.625 C 34.6875 -47.625 38.46875 -46.601562 41.875 -44.5625 C 45.28125 -42.519531 48.003906 -39.742188 50.046875 -36.234375 C 52.085938 -32.722656 53.109375 -28.78125 53.109375 -24.40625 C 53.109375 -19.25 51.867188 -14.75 49.390625 -10.90625 C 46.921875 -7.070312 43.695312 -4.113281 39.71875 -2.03125 C 35.75 0.0390625 31.503906 1.078125 26.984375 1.078125 C 22.753906 1.078125 19.113281 0.378906 16.0625 -1.015625 C 13.019531 -2.421875 10.390625 -4.335938 8.171875 -6.765625 C 5.953125 -9.203125 3.945312 -11.894531 2.15625 -14.84375 Z M 11.1875 -20.53125 "/></g></g><g transform="translate(185.833323, 105.48071)"><g><path d="M 47.3125 0 L 11.390625 0 L 11.390625 -11.1875 L 23.328125 -11.1875 L 23.328125 -61.171875 L 12.46875 -55.484375 L 9.359375 -65.578125 L 29.453125 -76.34375 L 35.046875 -76.34375 L 35.046875 -11.1875 L 47.3125 -11.1875 Z M 47.3125 0 "/></g></g></g></svg>