<svg xmlns="http://www.w3.org/2000/svg" xmlns:xlink="http://www.w3.org/1999/xlink" width="500" zoomAndPan="magnify" viewBox="0 0 375 374.999991" height="500" preserveAspectRatio="xMidYMid meet" version="1.0"><defs><g/><clipPath id="648f67d2a0"><path d="M 6.570312 0 L 369.714844 0 L 369.714844 375 L 6.570312 375 Z M 6.570312 0 " clip-rule="nonzero"/></clipPath><clipPath id="0c9ded086b"><path d="M 20.820312 0 L 355.464844 0 C 359.242188 0 362.867188 1.5 365.539062 4.171875 C 368.210938 6.847656 369.714844 10.46875 369.714844 14.25 L 369.714844 360.75 C 369.714844 364.527344 368.210938 368.152344 365.539062 370.828125 C 362.867188 373.5 359.242188 375 355.464844 375 L 20.820312 375 C 17.039062 375 13.414062 373.5 10.742188 370.828125 C 8.070312 368.152344 6.570312 364.527344 6.570312 360.75 L 6.570312 14.25 C 6.570312 10.46875 8.070312 6.847656 10.742188 4.171875 C 13.414062 1.5 17.039062 0 20.820312 0 Z M 20.820312 0 " clip-rule="nonzero"/></clipPath><clipPath id="3d43153f49"><path d="M 252 287 L 276 287 L 276 350.515625 L 252 350.515625 Z M 252 287 " clip-rule="nonzero"/></clipPath><clipPath id="009892ab9a"><path d="M 245 127.015625 L 303 127.015625 L 303 178 L 245 178 Z M 245 127.015625 " clip-rule="nonzero"/></clipPath><clipPath id="4c15b1430e"><path d="M 199 330 L 225 330 L 225 350.515625 L 199 350.515625 Z M 199 330 " clip-rule="nonzero"/></clipPath></defs><g clip-path="url(#648f67d2a0)"><g clip-path="url(#0c9ded086b)"><path fill="#fb92ff" d="M 6.570312 0 L 369.714844 0 L 369.714844 374.492188 L 6.570312 374.492188 Z M 6.570312 0 " fill-opacity="1" fill-rule="nonzero"/></g></g><path fill="#fcbf95" d="M 256.683594 292.359375 C 257.957031 300.882812 257.992188 307.589844 257.929688 315.992188 C 257.882812 322.21875 258.296875 325.582031 258.550781 331.984375 C 258.675781 335.175781 254.546875 341.957031 255.375 344.78125 C 256.429688 348.347656 262.933594 348.53125 265.105469 346.417969 C 270.699219 340.960938 272.4375 336.84375 272.800781 329.433594 C 273.421875 316.597656 273.472656 303.722656 272.574219 289.800781 C 269.617188 289.851562 266.421875 290.316406 263.355469 290.421875 C 261.0625 290.496094 258.253906 292.285156 256.683594 292.359375 Z M 256.683594 292.359375 " fill-opacity="1" fill-rule="nonzero"/><g clip-path="url(#3d43153f49)"><path fill="#010101" d="M 260.792969 350.386719 C 259.816406 350.386719 258.871094 350.269531 258.023438 350.050781 C 255.398438 349.367188 253.515625 347.71875 252.875 345.523438 C 252.167969 343.148438 253.300781 340.136719 254.503906 336.9375 C 255.160156 335.191406 255.980469 333.007812 255.941406 332.082031 C 255.851562 329.882812 255.746094 328.050781 255.648438 326.324219 C 255.453125 323 255.289062 320.109375 255.320312 315.972656 C 255.382812 307.566406 255.328125 300.96875 254.101562 292.746094 C 253.992188 292.007812 254.199219 291.269531 254.664062 290.695312 C 255.128906 290.117188 255.824219 289.78125 256.5625 289.75 C 256.886719 289.71875 257.816406 289.347656 258.429688 289.101562 C 259.886719 288.519531 261.550781 287.863281 263.257812 287.800781 C 264.664062 287.753906 266.089844 287.628906 267.503906 287.503906 C 269.207031 287.355469 270.894531 287.207031 272.511719 287.171875 C 272.53125 287.171875 272.546875 287.171875 272.5625 287.171875 C 273.941406 287.171875 275.082031 288.238281 275.171875 289.617188 C 276.011719 302.683594 276.085938 315.371094 275.394531 329.550781 C 275.003906 337.753906 272.867188 342.480469 266.921875 348.277344 C 265.417969 349.753906 263.039062 350.386719 260.792969 350.386719 Z M 259.585938 294.261719 C 260.5625 301.816406 260.597656 308.144531 260.546875 316.015625 C 260.515625 320.019531 260.675781 322.8125 260.867188 326.023438 C 260.96875 327.773438 261.074219 329.640625 261.167969 331.878906 C 261.246094 333.859375 260.347656 336.246094 259.398438 338.777344 C 258.769531 340.4375 257.726562 343.226562 257.894531 344.058594 C 258.054688 344.617188 259.054688 344.917969 259.34375 344.996094 C 260.992188 345.417969 262.804688 345.007812 263.285156 344.546875 C 268.308594 339.648438 269.859375 336.230469 270.191406 329.304688 C 270.824219 316.261719 270.804688 304.496094 270.125 292.53125 C 269.410156 292.582031 268.695312 292.640625 267.96875 292.710938 C 266.457031 292.839844 264.9375 292.96875 263.449219 293.027344 C 262.644531 293.054688 261.433594 293.535156 260.367188 293.957031 C 260.101562 294.054688 259.839844 294.160156 259.585938 294.261719 Z M 259.585938 294.261719 " fill-opacity="1" fill-rule="nonzero"/></g><path fill="#fcbf95" d="M 288.582031 289.121094 C 290.453125 291.519531 288.382812 296.6875 288.328125 299.804688 C 288.265625 303.386719 286.625 311 286.226562 314.5625 C 285.539062 320.773438 287.578125 329.167969 289.664062 334.945312 C 290.859375 338.265625 293.691406 340.65625 291.015625 343.722656 C 289.117188 345.898438 285.855469 345.269531 283.042969 344.375 C 278.84375 343.039062 275.480469 341.246094 274.132812 337.519531 C 272.644531 333.402344 272.460938 326.464844 272.507812 322.097656 C 272.667969 306.667969 272.140625 301.574219 271.265625 290.164062 C 275.734375 289.753906 279.308594 289.191406 283.53125 287.988281 C 285.390625 287.464844 290.675781 285.394531 288.582031 289.121094 Z M 288.582031 289.121094 " fill-opacity="1" fill-rule="nonzero"/><path fill="#010101" d="M 287.339844 347.8125 C 285.25 347.8125 283.308594 347.195312 282.257812 346.859375 C 278.304688 345.601562 273.523438 343.503906 271.683594 338.402344 C 270.113281 334.0625 269.847656 327.128906 269.902344 322.070312 C 270.042969 308.082031 269.628906 302.804688 268.886719 293.199219 L 268.667969 290.363281 C 268.558594 288.945312 269.613281 287.695312 271.027344 287.566406 C 275.75 287.136719 279.054688 286.550781 282.820312 285.480469 L 283.546875 285.257812 C 286.066406 284.472656 289.203125 283.476562 290.949219 285.621094 C 291.496094 286.300781 291.957031 287.394531 291.480469 288.992188 C 292.402344 291.339844 291.863281 294.199219 291.382812 296.773438 C 291.171875 297.890625 290.960938 298.964844 290.945312 299.847656 C 290.902344 302.261719 290.269531 305.972656 289.660156 309.558594 C 289.308594 311.613281 288.980469 313.519531 288.832031 314.851562 C 288.203125 320.527344 290.117188 328.488281 292.132812 334.0625 C 292.410156 334.824219 292.792969 335.527344 293.148438 336.203125 C 294.34375 338.449219 296.140625 341.835938 292.996094 345.445312 C 291.394531 347.273438 289.304688 347.8125 287.339844 347.8125 Z M 274.070312 292.503906 L 274.09375 292.804688 C 274.832031 302.230469 275.273438 307.921875 275.125 322.128906 C 275.050781 328.667969 275.578125 333.816406 276.589844 336.632812 C 277.449219 339 279.546875 340.527344 283.839844 341.890625 C 286.675781 342.789062 288.335938 342.835938 289.054688 342.003906 C 289.710938 341.246094 289.800781 341.03125 288.53125 338.652344 C 288.054688 337.765625 287.570312 336.828125 287.210938 335.832031 C 286.136719 332.859375 282.710938 322.527344 283.632812 314.269531 C 283.789062 312.867188 284.132812 310.851562 284.5 308.683594 C 285.050781 305.441406 285.679688 301.769531 285.710938 299.757812 C 285.730469 298.625 285.972656 297.253906 286.238281 295.816406 C 286.523438 294.277344 287.058594 291.417969 286.519531 290.726562 C 286.332031 290.480469 286.191406 290.214844 286.101562 289.9375 C 285.710938 290.046875 285.34375 290.160156 285.105469 290.238281 L 284.242188 290.503906 C 280.929688 291.445312 277.84375 292.0625 274.070312 292.503906 Z M 274.070312 292.503906 " fill-opacity="1" fill-rule="nonzero"/><path fill="#1e4384" d="M 246.332031 183.726562 C 253.285156 180.300781 259.566406 177.199219 267.488281 178.070312 C 275.582031 178.964844 282.90625 178.644531 288.75 183.34375 C 291.339844 185.425781 294.160156 188.984375 296.09375 191.648438 C 294.070312 192.96875 292.101562 197.539062 290.832031 199.707031 C 289.351562 202.25 288.566406 204.03125 289.074219 206.546875 C 290.429688 213.261719 288.828125 220.574219 289.832031 227.367188 C 291.960938 241.800781 291.167969 244.644531 292.332031 259.261719 C 292.800781 265.152344 297 280.082031 297.332031 296.140625 C 290.144531 296.457031 277.269531 296.34375 274.664062 296.140625 C 264.019531 295.300781 260.902344 296.960938 250.332031 295.875 C 245.785156 295.402344 235.703125 296.582031 234.324219 292.574219 C 232.296875 286.660156 239.359375 277.96875 239.375 271.96875 C 239.382812 268.324219 239.34375 264.675781 240.25 261.121094 C 242.929688 250.652344 243.613281 240.066406 244.988281 229.554688 C 245.738281 223.820312 247.75 218.179688 248.339844 212.441406 C 248.820312 207.753906 247.984375 202.992188 247.992188 198.222656 C 247.996094 195.746094 248.507812 185.695312 246.332031 183.726562 Z M 246.332031 183.726562 " fill-opacity="1" fill-rule="nonzero"/><path fill="#010101" d="M 285.53125 298.949219 C 280.558594 298.949219 276.023438 298.867188 274.460938 298.742188 C 269.539062 298.347656 266.234375 298.519531 263.039062 298.6875 C 259.460938 298.867188 255.773438 299.058594 250.066406 298.46875 C 249.019531 298.359375 247.660156 298.355469 246.1875 298.339844 C 240.53125 298.269531 233.492188 298.199219 231.863281 293.425781 C 230.378906 289.089844 232.402344 284.3125 234.359375 279.691406 C 235.546875 276.898438 236.765625 274 236.773438 271.96875 L 236.773438 271.414062 C 236.78125 267.847656 236.789062 264.171875 237.734375 260.480469 C 239.671875 252.898438 240.5625 245.046875 241.429688 237.449219 C 241.746094 234.703125 242.050781 231.960938 242.414062 229.21875 C 242.785156 226.394531 243.441406 223.613281 244.074219 220.917969 C 244.789062 217.898438 245.464844 215.054688 245.753906 212.179688 C 246.027344 209.539062 245.84375 206.839844 245.644531 203.976562 C 245.519531 202.0625 245.390625 200.144531 245.390625 198.222656 L 245.410156 196.902344 C 245.566406 188.378906 244.910156 186.148438 244.503906 185.582031 C 243.859375 185 243.582031 184.179688 243.707031 183.324219 C 243.824219 182.464844 244.40625 181.769531 245.179688 181.382812 L 246.335938 183.726562 L 245.25 181.351562 C 252.382812 177.835938 259.15625 174.527344 267.773438 175.476562 C 269.230469 175.636719 270.664062 175.757812 272.0625 175.878906 C 278.707031 176.441406 284.988281 176.96875 290.390625 181.3125 C 293.230469 183.597656 296.207031 187.367188 298.207031 190.125 C 298.625 190.703125 298.789062 191.429688 298.664062 192.128906 C 298.53125 192.832031 298.121094 193.449219 297.523438 193.839844 C 296.554688 194.480469 295.007812 197.445312 294.171875 199.039062 C 293.773438 199.792969 293.410156 200.484375 293.089844 201.03125 C 291.632812 203.523438 291.335938 204.550781 291.636719 206.039062 C 292.417969 209.90625 292.296875 213.863281 292.179688 217.679688 C 292.078125 220.949219 291.988281 224.039062 292.421875 226.992188 C 293.773438 236.148438 293.96875 240.699219 294.207031 246.449219 C 294.347656 249.828125 294.515625 253.621094 294.945312 259.058594 C 295.085938 260.855469 295.65625 263.8125 296.3125 267.238281 C 297.75 274.765625 299.722656 285.089844 299.953125 296.082031 C 299.984375 297.496094 298.871094 298.683594 297.457031 298.75 C 294.171875 298.890625 289.699219 298.949219 285.53125 298.949219 Z M 268.652344 293.285156 C 270.464844 293.285156 272.480469 293.351562 274.867188 293.539062 C 277.078125 293.71875 287.324219 293.828125 294.628906 293.621094 C 294.1875 284.015625 292.457031 274.96875 291.167969 268.21875 C 290.453125 264.496094 289.894531 261.554688 289.730469 259.476562 C 289.289062 253.953125 289.132812 250.097656 288.980469 246.671875 C 288.746094 241.070312 288.554688 236.640625 287.246094 227.753906 C 286.746094 224.34375 286.847656 220.875 286.953125 217.523438 C 287.0625 213.832031 287.171875 210.347656 286.507812 207.078125 C 285.792969 203.539062 287.019531 201.054688 288.578125 198.402344 C 288.863281 197.914062 289.183594 197.296875 289.539062 196.625 C 290.609375 194.574219 291.585938 192.78125 292.644531 191.417969 C 290.578125 188.734375 288.652344 186.628906 287.109375 185.390625 C 282.953125 182.050781 277.699219 181.605469 271.613281 181.09375 C 270.171875 180.976562 268.695312 180.847656 267.195312 180.683594 C 260.824219 179.957031 255.59375 182.140625 249.820312 184.9375 C 250.59375 187.660156 250.722656 191.679688 250.617188 197.011719 L 250.601562 198.234375 C 250.601562 200.039062 250.722656 201.835938 250.847656 203.632812 C 251.046875 206.589844 251.253906 209.636719 250.9375 212.722656 C 250.609375 215.929688 249.867188 219.078125 249.144531 222.128906 C 248.511719 224.8125 247.914062 227.347656 247.578125 229.910156 C 247.222656 232.621094 246.914062 235.335938 246.601562 238.050781 C 245.71875 245.820312 244.804688 253.851562 242.777344 261.78125 C 242 264.835938 241.996094 268.035156 241.984375 271.429688 L 241.984375 271.984375 C 241.972656 275.074219 240.542969 278.457031 239.160156 281.734375 C 237.582031 285.449219 235.957031 289.292969 236.792969 291.738281 C 237.089844 292.589844 240.265625 293.058594 246.242188 293.125 C 247.898438 293.148438 249.421875 293.167969 250.601562 293.289062 C 255.910156 293.832031 259.234375 293.671875 262.765625 293.480469 C 264.605469 293.382812 266.472656 293.285156 268.652344 293.285156 Z M 268.652344 293.285156 " fill-opacity="1" fill-rule="nonzero"/><path fill="#fcbf95" d="M 285.667969 201.429688 C 285.667969 207.28125 286.949219 212.203125 288.019531 217.761719 C 288.808594 221.867188 289.164062 226.195312 289.667969 230.421875 C 290.832031 240.148438 290.746094 247.101562 291.667969 256.316406 C 291.90625 258.6875 293.441406 262.3125 293.992188 264.671875 C 294.65625 267.480469 298.585938 268.546875 298.050781 265.148438 C 300.835938 265.140625 302.589844 261.574219 303.019531 259.105469 C 303.691406 255.195312 304.183594 254.175781 302.5 251.488281 C 300.128906 247.691406 302.011719 238.65625 302.167969 233.988281 C 302.5625 222.101562 303.6875 207.410156 298.03125 196.597656 C 296.734375 194.128906 293.835938 190.335938 290.800781 192.296875 C 287.855469 194.1875 286.808594 201.511719 285.667969 201.429688 Z M 285.667969 201.429688 " fill-opacity="1" fill-rule="nonzero"/><path fill="#010101" d="M 296.828125 269.878906 C 294.46875 269.878906 292.070312 267.898438 291.457031 265.269531 C 291.25 264.40625 290.910156 263.378906 290.558594 262.300781 C 289.910156 260.34375 289.246094 258.308594 289.074219 256.574219 C 288.65625 252.425781 288.441406 248.730469 288.234375 245.042969 C 287.976562 240.613281 287.714844 236.039062 287.078125 230.730469 L 286.699219 227.355469 C 286.367188 224.316406 286.023438 221.171875 285.460938 218.253906 L 284.863281 215.273438 C 283.933594 210.746094 283.0625 206.464844 283.0625 201.425781 C 283.0625 200.699219 283.363281 200.003906 283.898438 199.507812 C 283.972656 199.441406 284.039062 199.382812 284.117188 199.324219 C 284.300781 198.90625 284.550781 198.21875 284.75 197.679688 C 285.726562 195 286.941406 191.667969 289.398438 190.085938 C 290.816406 189.171875 292.421875 188.902344 294.007812 189.324219 C 297.332031 190.203125 299.554688 193.851562 300.355469 195.375 C 305.847656 205.882812 305.34375 219.214844 304.898438 230.980469 L 304.789062 234.0625 C 304.742188 235.304688 304.589844 236.84375 304.417969 238.515625 C 304.027344 242.308594 303.4375 248.023438 304.726562 250.097656 C 306.742188 253.308594 306.398438 255.171875 305.839844 258.253906 L 305.609375 259.539062 C 305.054688 262.730469 303.210938 265.957031 300.511719 267.203125 C 300.042969 268.683594 298.875 269.554688 297.617188 269.800781 C 297.347656 269.851562 297.089844 269.878906 296.828125 269.878906 Z M 297.007812 264.671875 L 297.058594 264.671875 Z M 288.296875 202.519531 C 288.410156 206.597656 289.171875 210.316406 289.972656 214.234375 L 290.582031 217.265625 C 291.183594 220.402344 291.542969 223.648438 291.882812 226.792969 L 292.253906 230.109375 C 292.914062 235.582031 293.183594 240.238281 293.441406 244.746094 C 293.648438 248.363281 293.859375 251.988281 294.261719 256.054688 C 294.378906 257.226562 294.984375 259.058594 295.511719 260.675781 C 295.816406 261.597656 296.097656 262.484375 296.324219 263.285156 C 296.796875 262.839844 297.402344 262.53125 298.046875 262.53125 C 298.882812 262.53125 300.113281 260.535156 300.445312 258.65625 L 300.679688 257.320312 C 301.179688 254.597656 301.222656 254.375 300.28125 252.871094 C 298.035156 249.277344 298.65625 243.277344 299.207031 237.984375 C 299.363281 236.449219 299.519531 235.03125 299.550781 233.890625 L 299.660156 230.78125 C 300.082031 219.667969 300.5625 207.074219 295.707031 197.800781 C 294.660156 195.804688 293.386719 194.5625 292.660156 194.375 C 291.234375 195.105469 290.195312 197.945312 289.644531 199.472656 C 289.246094 200.59375 288.847656 201.683594 288.296875 202.519531 Z M 285.863281 198.824219 Z M 285.863281 198.824219 " fill-opacity="1" fill-rule="nonzero"/><path fill="#fcbf95" d="M 263.164062 144.84375 C 258.207031 150.03125 260.367188 160.300781 261.15625 166.84375 C 261.757812 171.816406 263.347656 176.457031 268.480469 177.585938 C 273.953125 178.792969 278.316406 177.621094 282.160156 173.230469 C 284.953125 170.039062 285.878906 167.171875 286.617188 163.105469 C 287.554688 157.941406 284.886719 153.753906 283.074219 149.09375 C 280.566406 142.640625 278.078125 139.246094 270.6875 141.214844 C 268.078125 141.910156 265.246094 142.429688 263.757812 144.910156 C 263.09375 146.019531 262.773438 147.636719 262.164062 148.847656 " fill-opacity="1" fill-rule="nonzero"/><path fill="#010101" d="M 272.25 180.640625 C 270.871094 180.640625 269.429688 180.472656 267.921875 180.140625 C 259.925781 178.378906 258.902344 169.933594 258.566406 167.15625 L 258.242188 164.714844 C 257.3125 157.878906 256.039062 148.515625 261.277344 143.042969 C 261.601562 142.707031 261.988281 142.476562 262.402344 142.351562 C 264.332031 140.160156 267.058594 139.453125 269.304688 138.875 L 270.011719 138.691406 C 279.859375 136.0625 283.078125 141.917969 285.5 148.148438 C 285.867188 149.089844 286.269531 150.003906 286.671875 150.917969 C 288.335938 154.746094 290.066406 158.707031 289.1875 163.574219 C 288.382812 168.039062 287.292969 171.335938 284.121094 174.953125 C 280.796875 178.753906 276.882812 180.640625 272.25 180.640625 Z M 262.929688 151.34375 C 262.226562 155.226562 262.890625 160.101562 263.425781 164.007812 L 263.753906 166.53125 C 264.394531 171.816406 265.976562 174.363281 269.050781 175.039062 C 273.78125 176.078125 277.125 175.027344 280.207031 171.511719 C 282.601562 168.777344 283.378906 166.378906 284.054688 162.640625 C 284.648438 159.335938 283.371094 156.398438 281.886719 153 C 281.464844 152.023438 281.035156 151.042969 280.644531 150.035156 C 278.105469 143.496094 276.457031 142.378906 271.367188 143.726562 L 270.621094 143.917969 C 268.246094 144.535156 266.75 145 266 146.242188 C 265.773438 146.621094 265.550781 147.273438 265.335938 147.902344 C 265.085938 148.628906 264.828125 149.355469 264.515625 149.992188 C 264.175781 150.671875 263.597656 151.140625 262.929688 151.34375 Z M 262.929688 151.34375 " fill-opacity="1" fill-rule="nonzero"/><path fill="#f58420" d="M 271.164062 150.597656 C 268.765625 150.703125 267.472656 152.101562 265.785156 153.46875 C 263.972656 154.941406 262.675781 154.363281 260.449219 155.140625 C 259.691406 159.417969 261.339844 166.457031 259.910156 170.597656 C 258.578125 171.027344 251.441406 169.164062 250.160156 165.652344 C 249.238281 163.148438 247.238281 160.054688 248.457031 157.660156 C 249.035156 156.515625 250.335938 156.117188 250.664062 154.761719 C 251.011719 153.34375 250.355469 151.683594 250.148438 150.347656 C 249.550781 146.460938 252.097656 144.714844 254.085938 141.351562 C 255.0625 139.695312 256.1875 138.265625 256.875 136.460938 C 257.460938 134.933594 257.242188 133.855469 258.59375 132.910156 C 260.257812 131.746094 263.0625 131.839844 265 131.351562 C 267.890625 130.613281 270.125 129.746094 273.191406 129.847656 C 276.910156 129.960938 278.351562 129.945312 281.175781 132.101562 C 282.632812 133.214844 283.996094 134.859375 285.398438 135.863281 C 288.714844 138.238281 293.089844 137.40625 295.152344 141.585938 C 296.40625 144.117188 297.671875 148.34375 298.15625 151.089844 C 298.527344 153.199219 298.03125 155.164062 298.664062 157.167969 C 299.335938 159.320312 300.382812 160.800781 299.613281 163.289062 C 298.792969 165.933594 297.148438 168.515625 296.113281 171.058594 C 293.449219 172.101562 288.636719 175.617188 285.292969 174.085938 C 282.910156 172.996094 281.542969 167.683594 281.152344 165.351562 C 280.445312 161.1875 281.570312 157.25 277.933594 154.242188 C 275.511719 152.222656 272.449219 151.148438 271.164062 150.597656 Z M 271.164062 150.597656 " fill-opacity="1" fill-rule="nonzero"/><g clip-path="url(#009892ab9a)"><path fill="#010101" d="M 287.152344 177.078125 C 286.164062 177.078125 285.171875 176.894531 284.214844 176.457031 C 280.371094 174.699219 278.929688 167.839844 278.582031 165.785156 C 278.371094 164.535156 278.304688 163.3125 278.253906 162.128906 C 278.109375 159.21875 277.953125 157.636719 276.277344 156.253906 C 274.492188 154.78125 272.195312 153.847656 270.820312 153.28125 L 270.785156 153.261719 C 269.925781 153.433594 269.269531 153.960938 268.15625 154.894531 L 267.4375 155.496094 C 265.75 156.863281 264.25 157.074219 263.039062 157.234375 C 262.980469 157.242188 262.929688 157.25 262.867188 157.257812 C 262.820312 158.597656 262.90625 160.171875 262.984375 161.699219 C 263.164062 165.105469 263.347656 168.628906 262.378906 171.445312 C 262.109375 172.222656 261.492188 172.828125 260.714844 173.078125 C 258.144531 173.902344 249.515625 171.464844 247.714844 166.546875 C 247.53125 166.046875 247.296875 165.519531 247.054688 164.976562 C 245.976562 162.511719 244.621094 159.445312 246.136719 156.472656 C 246.597656 155.558594 247.246094 154.964844 247.714844 154.535156 C 247.875 154.382812 248.101562 154.175781 248.15625 154.09375 C 248.238281 153.730469 248.03125 152.847656 247.867188 152.140625 C 247.757812 151.652344 247.644531 151.179688 247.578125 150.734375 C 246.976562 146.832031 248.757812 144.398438 250.324219 142.25 C 250.828125 141.566406 251.355469 140.84375 251.84375 140.015625 C 252.164062 139.480469 252.488281 138.964844 252.820312 138.457031 C 253.492188 137.417969 254.066406 136.519531 254.453125 135.515625 C 254.582031 135.167969 254.65625 134.847656 254.734375 134.558594 C 254.984375 133.535156 255.359375 131.988281 257.105469 130.761719 C 258.746094 129.617188 260.75 129.351562 262.515625 129.117188 C 263.171875 129.027344 263.8125 128.949219 264.363281 128.808594 L 266.042969 128.359375 C 268.207031 127.757812 270.449219 127.109375 273.285156 127.226562 C 277.207031 127.34375 279.371094 127.414062 282.773438 130.011719 C 283.546875 130.609375 284.304688 131.328125 285.050781 132.054688 C 285.683594 132.667969 286.300781 133.28125 286.933594 133.738281 C 287.851562 134.390625 289.015625 134.753906 290.253906 135.136719 C 292.699219 135.894531 295.738281 136.832031 297.507812 140.421875 C 298.957031 143.339844 300.25 147.863281 300.742188 150.628906 C 300.929688 151.707031 300.941406 152.75 300.941406 153.785156 C 300.933594 154.78125 300.933594 155.636719 301.167969 156.382812 C 301.300781 156.808594 301.453125 157.199219 301.59375 157.582031 C 302.214844 159.21875 302.988281 161.261719 302.121094 164.054688 C 301.570312 165.832031 300.734375 167.492188 299.933594 169.09375 C 299.4375 170.082031 298.945312 171.058594 298.542969 172.035156 C 298.269531 172.699219 297.742188 173.21875 297.082031 173.480469 C 296.503906 173.707031 295.820312 174.066406 295.0625 174.457031 C 292.828125 175.605469 289.976562 177.078125 287.152344 177.078125 Z M 271.164062 147.980469 C 271.515625 147.980469 271.871094 148.054688 272.195312 148.195312 L 272.789062 148.441406 C 274.335938 149.070312 277.207031 150.238281 279.605469 152.222656 C 283.136719 155.140625 283.3125 158.714844 283.46875 161.867188 C 283.515625 162.859375 283.5625 163.878906 283.734375 164.910156 C 284.300781 168.238281 285.632812 171.304688 286.398438 171.714844 C 287.785156 172.34375 290.722656 170.828125 292.671875 169.816406 C 293.1875 169.554688 293.675781 169.296875 294.128906 169.085938 C 294.480469 168.3125 294.871094 167.539062 295.261719 166.761719 C 296.003906 165.277344 296.703125 163.878906 297.128906 162.515625 C 297.449219 161.476562 297.242188 160.855469 296.703125 159.429688 C 296.53125 158.957031 296.347656 158.472656 296.183594 157.949219 C 295.703125 156.429688 295.707031 155.023438 295.710938 153.773438 C 295.710938 153.042969 295.726562 152.304688 295.597656 151.542969 C 295.175781 149.148438 294 145.105469 292.824219 142.734375 C 292.078125 141.230469 290.902344 140.808594 288.714844 140.125 C 287.203125 139.660156 285.5 139.132812 283.886719 137.976562 C 283.0625 137.382812 282.242188 136.597656 281.417969 135.804688 C 280.820312 135.226562 280.222656 134.636719 279.597656 134.164062 C 277.53125 132.582031 276.742188 132.5625 273.453125 132.457031 C 271.042969 132.332031 269.46875 132.828125 267.429688 133.390625 L 265.648438 133.867188 C 264.914062 134.054688 264.070312 134.175781 263.199219 134.296875 C 262.019531 134.453125 260.683594 134.628906 260.085938 135.046875 C 259.9375 135.210938 259.851562 135.554688 259.789062 135.804688 C 259.675781 136.289062 259.539062 136.8125 259.3125 137.390625 C 258.738281 138.894531 257.957031 140.109375 257.203125 141.28125 C 256.910156 141.738281 256.621094 142.191406 256.335938 142.671875 C 255.757812 143.664062 255.128906 144.519531 254.535156 145.335938 C 253.097656 147.308594 252.46875 148.253906 252.726562 149.949219 C 252.78125 150.273438 252.859375 150.613281 252.941406 150.96875 C 253.230469 152.21875 253.589844 153.773438 253.191406 155.386719 C 252.828125 156.917969 251.871094 157.800781 251.238281 158.378906 C 251.078125 158.53125 250.828125 158.753906 250.773438 158.84375 C 250.386719 159.605469 251.21875 161.496094 251.824219 162.875 C 252.105469 163.523438 252.378906 164.148438 252.601562 164.75 C 253.074219 166.035156 255.855469 167.277344 257.808594 167.792969 C 257.972656 166.09375 257.863281 164.015625 257.753906 161.984375 C 257.617188 159.339844 257.480469 156.84375 257.863281 154.6875 C 258.023438 153.757812 258.683594 152.992188 259.570312 152.675781 C 260.621094 152.3125 261.492188 152.179688 262.300781 152.066406 C 263.222656 151.941406 263.566406 151.894531 264.125 151.4375 L 264.773438 150.902344 C 266.316406 149.597656 268.078125 148.117188 271.023438 147.988281 C 271.085938 147.980469 271.121094 147.980469 271.164062 147.980469 Z M 259.910156 170.59375 L 259.960938 170.59375 Z M 259.910156 170.59375 " fill-opacity="1" fill-rule="nonzero"/></g><path fill="#38b47b" d="M 226.160156 241.816406 L 202.15625 247.816406 L 184.652344 255.316406 L 185.65625 206.8125 L 196.15625 176.816406 L 207.160156 171.816406 L 232.160156 172.316406 L 248.164062 179.816406 L 254.664062 251.316406 L 242.164062 255.316406 L 238.664062 240.3125 Z M 226.160156 241.816406 " fill-opacity="1" fill-rule="nonzero"/><path fill="#ed2224" d="M 69.640625 332.875 C 67.976562 335.71875 64.367188 338.53125 66.253906 342.007812 C 68.132812 345.476562 73.910156 345.242188 77.527344 344.914062 C 83.863281 344.34375 95.394531 340.402344 94.566406 332.945312 C 90.402344 333.476562 85.984375 330.449219 81.664062 330.070312 C 77.972656 329.75 73.074219 328.390625 69.640625 332.875 Z M 69.640625 332.875 " fill-opacity="1" fill-rule="nonzero"/><path fill="#010101" d="M 74.203125 347.707031 C 70.625 347.707031 65.996094 346.996094 63.960938 343.253906 C 61.734375 339.160156 64.351562 335.703125 66.082031 333.410156 C 66.554688 332.789062 67.027344 332.171875 67.386719 331.554688 C 67.445312 331.460938 67.496094 331.378906 67.5625 331.289062 C 71.429688 326.230469 76.828125 326.875 80.402344 327.304688 L 81.890625 327.464844 C 84.074219 327.65625 86.136719 328.375 88.121094 329.070312 C 90.363281 329.84375 92.464844 330.601562 94.230469 330.355469 C 94.921875 330.253906 95.625 330.457031 96.179688 330.898438 C 96.722656 331.324219 97.082031 331.960938 97.160156 332.65625 C 97.449219 335.222656 96.671875 337.710938 94.910156 339.859375 C 90.652344 345.074219 81.832031 347.148438 77.765625 347.511719 C 76.90625 347.585938 75.636719 347.707031 74.203125 347.707031 Z M 71.804688 334.347656 C 71.355469 335.085938 70.8125 335.816406 70.25 336.5625 C 68.484375 338.898438 68.011719 339.78125 68.550781 340.765625 C 69.105469 341.773438 71.050781 342.882812 77.300781 342.3125 C 81.941406 341.894531 88.277344 339.738281 90.875 336.558594 C 91.171875 336.199219 91.410156 335.828125 91.589844 335.460938 C 89.8125 335.179688 88.101562 334.585938 86.417969 334.003906 C 84.648438 333.386719 82.980469 332.808594 81.445312 332.671875 C 80.914062 332.625 80.363281 332.5625 79.796875 332.496094 C 76.097656 332.050781 73.699219 331.953125 71.804688 334.347656 Z M 71.804688 334.347656 " fill-opacity="1" fill-rule="nonzero"/><path fill="#ed2224" d="M 119.800781 330.789062 C 124.71875 332.589844 132.933594 338.980469 127.1875 342 C 115.074219 344.605469 104.890625 346.082031 100.257812 332.023438 C 106.828125 329.042969 110.515625 328.726562 119.800781 330.789062 Z M 119.800781 330.789062 " fill-opacity="1" fill-rule="nonzero"/><path fill="#010101" d="M 115.214844 346.347656 C 108.015625 346.347656 101.3125 343.578125 97.777344 332.84375 C 97.359375 331.582031 97.960938 330.203125 99.175781 329.65625 C 106.359375 326.386719 110.703125 326.09375 120.367188 328.238281 C 120.476562 328.265625 120.589844 328.300781 120.695312 328.339844 C 124.023438 329.558594 131.417969 333.929688 131.746094 338.980469 C 131.835938 340.269531 131.511719 342.683594 128.398438 344.3125 C 128.191406 344.421875 127.964844 344.503906 127.734375 344.554688 C 123.75 345.410156 119.398438 346.347656 115.214844 346.347656 Z M 103.589844 333.445312 C 107.621094 342.652344 115.019531 341.9375 126.242188 339.527344 C 126.445312 339.398438 126.539062 339.292969 126.566406 339.257812 C 126.585938 338.175781 122.851562 334.742188 119.054688 333.289062 C 111.355469 331.597656 108.023438 331.707031 103.589844 333.445312 Z M 103.589844 333.445312 " fill-opacity="1" fill-rule="nonzero"/><path fill="#c0e6ed" d="M 240.40625 241.089844 C 240.40625 253.566406 241.636719 264.714844 242.667969 276.714844 C 243.707031 288.734375 242.199219 301.039062 242.199219 313.089844 C 242.199219 319.449219 241.023438 327.703125 242.511719 333.578125 C 235.082031 337.363281 229.792969 338.503906 221.492188 337.59375 C 218.214844 337.230469 214.96875 336.953125 211.734375 336.578125 C 206.683594 335.992188 203.789062 336.835938 202.21875 331.464844 C 200.03125 323.988281 199.972656 314.746094 199.636719 307.070312 C 199.21875 297.378906 198.1875 287.847656 198.296875 278.050781 C 198.402344 268.171875 198.375 257.007812 199.339844 247.167969 C 206.191406 246.90625 212.984375 244.71875 219.777344 243.589844 C 226.398438 242.488281 233.109375 242.59375 240.40625 241.089844 Z M 240.40625 241.089844 " fill-opacity="1" fill-rule="nonzero"/><path fill="#010101" d="M 226.457031 340.496094 C 224.800781 340.496094 223.066406 340.386719 221.203125 340.183594 L 216.742188 339.722656 C 214.96875 339.542969 213.195312 339.367188 211.429688 339.167969 C 210.632812 339.074219 209.886719 339.023438 209.191406 338.96875 C 205.425781 338.695312 201.527344 338.40625 199.714844 332.199219 C 197.714844 325.394531 197.417969 317.355469 197.152344 310.269531 L 197.03125 307.179688 C 196.890625 303.804688 196.671875 300.449219 196.445312 297.089844 C 196.046875 290.886719 195.621094 284.484375 195.691406 278.019531 L 195.726562 274.144531 C 195.804688 265.449219 195.894531 255.597656 196.738281 246.914062 C 196.863281 245.613281 197.9375 244.609375 199.242188 244.558594 C 203.441406 244.402344 207.613281 243.476562 212.027344 242.496094 C 214.464844 241.953125 216.910156 241.417969 219.34375 241.011719 C 222.335938 240.515625 225.375 240.25 228.316406 240.003906 C 232.050781 239.679688 235.910156 239.351562 239.875 238.53125 C 240.636719 238.375 241.441406 238.566406 242.046875 239.0625 C 242.660156 239.558594 243.015625 240.300781 243.015625 241.089844 C 243.015625 251.367188 243.847656 260.675781 244.738281 270.53125 L 245.269531 276.496094 C 245.9375 284.222656 245.578125 292.097656 245.222656 299.710938 C 245.019531 304.1875 244.808594 308.65625 244.808594 313.09375 C 244.808594 315.027344 244.699219 317.136719 244.597656 319.300781 C 244.351562 324.167969 244.09375 329.195312 245.039062 332.9375 C 245.34375 334.121094 244.777344 335.351562 243.691406 335.898438 C 237.382812 339.113281 232.410156 340.496094 226.457031 340.496094 Z M 201.742188 249.628906 C 201.09375 257.476562 201.023438 265.960938 200.949219 274.191406 L 200.914062 278.082031 C 200.84375 284.34375 201.257812 290.652344 201.660156 296.75 C 201.882812 300.140625 202.109375 303.539062 202.253906 306.953125 L 202.375 310.078125 C 202.625 316.859375 202.917969 324.546875 204.726562 330.730469 C 205.523438 333.460938 206.066406 333.503906 209.578125 333.765625 C 210.339844 333.820312 211.15625 333.878906 212.039062 333.976562 C 213.769531 334.183594 215.515625 334.355469 217.261719 334.527344 L 221.777344 334.992188 C 228.722656 335.753906 233.289062 335.0625 239.554688 332.113281 C 238.925781 328.070312 239.152344 323.488281 239.378906 319.027344 C 239.488281 316.960938 239.585938 314.9375 239.585938 313.085938 C 239.585938 308.566406 239.796875 304.019531 240.003906 299.464844 C 240.351562 292.019531 240.707031 284.324219 240.066406 276.9375 L 239.535156 270.996094 C 238.730469 262.015625 237.957031 253.480469 237.816406 244.207031 C 234.695312 244.691406 231.691406 244.953125 228.765625 245.199219 C 225.867188 245.449219 223.027344 245.691406 220.207031 246.160156 C 217.859375 246.550781 215.511719 247.074219 213.15625 247.589844 C 209.441406 248.417969 205.625 249.261719 201.742188 249.628906 Z M 201.742188 249.628906 " fill-opacity="1" fill-rule="nonzero"/><path fill="#c56528" d="M 242.417969 331.246094 C 246.644531 338.839844 247.378906 348.773438 237.414062 347.199219 C 234.046875 346.667969 231.0625 344.71875 228.6875 341.671875 C 224.941406 336.875 226.492188 336.679688 230.820312 334.214844 C 234.945312 331.863281 237.710938 330.808594 242.417969 331.246094 Z M 242.417969 331.246094 " fill-opacity="1" fill-rule="nonzero"/><path fill="#010101" d="M 239.398438 349.972656 C 238.667969 349.972656 237.875 349.910156 237.007812 349.773438 C 233.046875 349.148438 229.460938 346.898438 226.628906 343.273438 C 224.734375 340.84375 223.636719 338.933594 224.042969 336.90625 C 224.484375 334.746094 226.332031 333.722656 228.472656 332.53125 L 229.523438 331.941406 C 234.054688 329.367188 237.351562 328.160156 242.667969 328.640625 C 243.527344 328.726562 244.289062 329.214844 244.707031 329.972656 C 247.441406 334.890625 249.535156 342.230469 246.410156 346.699219 C 245.304688 348.277344 243.226562 349.972656 239.398438 349.972656 Z M 229.355469 338.054688 C 229.550781 338.410156 229.941406 339.039062 230.746094 340.0625 C 232.75 342.625 235.195312 344.203125 237.820312 344.617188 C 239.996094 344.953125 241.457031 344.65625 242.121094 343.710938 C 243.335938 341.960938 242.753906 337.835938 240.785156 333.765625 C 237.375 333.625 235.449219 334.585938 232.101562 336.484375 L 231 337.101562 C 230.441406 337.414062 229.773438 337.78125 229.355469 338.054688 Z M 229.355469 338.054688 " fill-opacity="1" fill-rule="nonzero"/><path fill="#c56528" d="M 202.96875 334.515625 C 206.558594 331.585938 218.75 335.355469 221.773438 338.875 C 219.929688 340.664062 219.121094 343.273438 217.21875 344.984375 C 215.039062 346.949219 211.871094 348.316406 208.917969 348.203125 C 201.507812 347.914062 200.707031 339.332031 202.96875 334.515625 Z M 202.96875 334.515625 " fill-opacity="1" fill-rule="nonzero"/><g clip-path="url(#4c15b1430e)"><path fill="#010101" d="M 209.242188 350.824219 C 209.101562 350.824219 208.957031 350.824219 208.820312 350.820312 C 205.402344 350.683594 202.605469 349.097656 200.933594 346.347656 C 198.449219 342.261719 199.023438 336.777344 200.605469 333.410156 C 200.765625 333.058594 201.011719 332.746094 201.316406 332.496094 C 206.484375 328.277344 220.289062 333.152344 223.753906 337.179688 C 224.648438 338.222656 224.578125 339.789062 223.585938 340.757812 C 222.933594 341.386719 222.390625 342.28125 221.804688 343.222656 C 221.0625 344.425781 220.222656 345.789062 218.960938 346.929688 C 216.273438 349.351562 212.585938 350.824219 209.242188 350.824219 Z M 205.066406 336.292969 C 204.277344 338.488281 204.175781 341.625 205.398438 343.632812 C 206.160156 344.886719 207.347656 345.527344 209.019531 345.59375 C 211.15625 345.703125 213.660156 344.671875 215.464844 343.046875 C 216.167969 342.410156 216.742188 341.476562 217.355469 340.484375 C 217.59375 340.09375 217.851562 339.679688 218.121094 339.269531 C 214.507812 337.089844 207.394531 335.378906 205.066406 336.292969 Z M 205.066406 336.292969 " fill-opacity="1" fill-rule="nonzero"/></g><path fill="#010101" d="M 224.730469 340.699219 C 224.65625 340.699219 224.585938 340.695312 224.515625 340.6875 C 223.078125 340.578125 222.007812 339.316406 222.121094 337.878906 C 222.382812 334.621094 222.023438 330.945312 221.683594 327.382812 C 221.492188 325.378906 221.300781 323.398438 221.21875 321.519531 C 221.027344 317.269531 220.324219 313.457031 219.65625 309.773438 C 218.863281 305.425781 218.039062 300.933594 218.042969 295.75 C 218.046875 290.933594 218.164062 285.796875 218.289062 280.667969 C 218.402344 275.507812 218.527344 270.363281 218.527344 265.585938 C 218.527344 264.144531 219.699219 262.976562 221.140625 262.976562 C 222.582031 262.976562 223.753906 264.144531 223.753906 265.585938 C 223.753906 270.402344 223.632812 275.585938 223.511719 280.789062 C 223.390625 285.875 223.269531 290.96875 223.265625 295.753906 C 223.261719 300.453125 224.007812 304.519531 224.792969 308.828125 C 225.496094 312.683594 226.222656 316.667969 226.425781 321.277344 C 226.507812 323.074219 226.691406 324.960938 226.878906 326.875 C 227.242188 330.664062 227.621094 334.574219 227.320312 338.292969 C 227.21875 339.664062 226.074219 340.699219 224.730469 340.699219 Z M 224.730469 340.699219 " fill-opacity="1" fill-rule="nonzero"/><path fill="#010101" d="M 250.308594 257.226562 C 246.863281 257.226562 243.535156 256.765625 242.117188 254.085938 C 239.691406 249.523438 239.304688 242.671875 238.960938 236.636719 C 238.820312 234.117188 238.6875 231.746094 238.414062 229.8125 C 237.996094 226.902344 238.074219 224.34375 238.144531 221.867188 C 238.222656 219.214844 238.296875 216.707031 237.75 213.941406 C 236.390625 207.183594 236.417969 200.515625 236.449219 193.457031 L 236.453125 190.558594 C 236.453125 189.117188 237.625 187.945312 239.066406 187.945312 C 240.507812 187.945312 241.675781 189.117188 241.675781 190.558594 L 241.671875 193.476562 C 241.640625 200.265625 241.613281 206.675781 242.867188 212.917969 C 243.535156 216.269531 243.445312 219.195312 243.363281 222.023438 C 243.296875 224.386719 243.234375 226.609375 243.582031 229.070312 C 243.878906 231.136719 244.027344 233.660156 244.179688 236.34375 C 244.492188 241.847656 244.839844 248.09375 246.722656 251.644531 C 247.390625 252.125 250.925781 252.007812 252.753906 251.953125 C 251.496094 247.621094 251.3125 243.171875 251.128906 238.84375 C 251.046875 236.890625 250.972656 234.933594 250.789062 232.984375 C 249.773438 222.03125 249.808594 213.574219 249.859375 203.785156 L 249.882812 196.503906 C 249.882812 191.136719 247.113281 182.359375 243.671875 179.519531 C 241.058594 177.359375 236.589844 176.304688 232.644531 175.371094 C 231.179688 175.027344 229.757812 174.6875 228.480469 174.3125 C 223.058594 172.730469 217.777344 173.660156 212.195312 174.640625 C 209.652344 175.089844 207.058594 175.542969 204.371094 175.800781 C 199.953125 176.222656 196.644531 179.492188 193.964844 186.082031 C 192.347656 190.054688 191.957031 192.9375 191.496094 196.269531 C 191.203125 198.390625 190.878906 200.796875 190.195312 203.691406 C 188.5625 210.660156 188.582031 218.652344 188.597656 226.375 L 188.601562 228.761719 C 188.601562 229.929688 188.582031 231.121094 188.554688 232.316406 C 188.492188 235.710938 188.433594 239.226562 188.898438 242.375 C 189.113281 243.800781 189 245.460938 188.875 247.214844 C 188.796875 248.300781 188.675781 250.019531 188.769531 251.242188 C 189.464844 251.121094 190.144531 250.964844 190.816406 250.820312 C 192.601562 250.425781 194.566406 249.972656 196.640625 250.054688 C 196.859375 245.199219 197.742188 240.082031 198.316406 237.152344 C 198.765625 234.859375 198.257812 231.851562 197.726562 228.675781 C 197.308594 226.207031 196.878906 223.660156 196.875 221.210938 C 196.859375 215.792969 197.601562 210.597656 198.304688 205.574219 C 198.996094 200.714844 199.710938 195.683594 199.710938 190.558594 C 199.710938 189.117188 200.882812 187.945312 202.324219 187.945312 C 203.765625 187.945312 204.933594 189.117188 204.933594 190.558594 C 204.933594 196.054688 204.191406 201.265625 203.480469 206.3125 C 202.761719 211.378906 202.085938 216.160156 202.097656 221.203125 C 202.101562 223.226562 202.480469 225.449219 202.875 227.816406 C 203.460938 231.316406 204.074219 234.9375 203.433594 238.164062 C 202.3125 243.867188 201.726562 249.289062 201.816406 253.03125 C 201.835938 253.875 201.457031 254.667969 200.78125 255.179688 C 200.113281 255.679688 199.234375 255.851562 198.441406 255.589844 C 196.34375 254.964844 194.300781 255.402344 191.933594 255.921875 C 190.4375 256.25 188.882812 256.59375 187.15625 256.703125 C 186.164062 256.75 185.40625 256.359375 184.878906 255.648438 C 183.203125 253.371094 183.433594 250.054688 183.660156 246.84375 C 183.761719 245.445312 183.859375 244.003906 183.734375 243.140625 C 183.191406 239.566406 183.265625 235.832031 183.332031 232.21875 C 183.355469 231.054688 183.375 229.898438 183.375 228.761719 L 183.371094 226.386719 C 183.355469 218.359375 183.332031 210.066406 185.101562 202.496094 C 185.734375 199.808594 186.039062 197.617188 186.316406 195.554688 C 186.800781 192.023438 187.253906 188.6875 189.121094 184.109375 C 192.5625 175.632812 197.386719 171.214844 203.859375 170.597656 C 206.414062 170.351562 208.867188 169.917969 211.273438 169.496094 C 217.214844 168.453125 223.339844 167.375 229.925781 169.296875 C 231.125 169.648438 232.457031 169.960938 233.835938 170.285156 C 238.335938 171.351562 243.429688 172.5625 246.988281 175.488281 C 252.277344 179.855469 255.097656 190.5 255.097656 196.5 L 255.078125 203.800781 C 255.027344 213.449219 254.984375 221.785156 255.988281 232.488281 C 256.175781 234.527344 256.265625 236.578125 256.34375 238.621094 C 256.5625 243.921875 256.765625 248.921875 258.855469 253.433594 C 259.246094 254.277344 259.164062 255.261719 258.628906 256.019531 C 258.097656 256.78125 257.195312 257.199219 256.285156 257.132812 C 255.398438 257.058594 254.269531 257.109375 253.0625 257.15625 C 252.164062 257.195312 251.230469 257.226562 250.308594 257.226562 Z M 250.308594 257.226562 " fill-opacity="1" fill-rule="nonzero"/><path fill="#fcbf95" d="M 254.289062 254.09375 C 254.289062 257.273438 255.15625 263.433594 252.820312 265.476562 C 250.648438 267.378906 246.28125 265.992188 244.652344 264.363281 C 236.625 256.328125 247.128906 254.535156 252.050781 252.589844 " fill-opacity="1" fill-rule="nonzero"/><path fill="#010101" d="M 250.007812 268.996094 C 247.226562 268.996094 244.335938 267.742188 242.804688 266.207031 C 239.824219 263.21875 238.664062 260.511719 239.269531 257.921875 C 240.214844 253.878906 245.015625 252.253906 248.867188 250.953125 C 249.667969 250.675781 250.429688 250.421875 251.089844 250.164062 C 252.378906 249.664062 253.835938 250.242188 254.421875 251.492188 C 255.804688 251.558594 256.90625 252.699219 256.90625 254.097656 C 256.90625 254.683594 256.9375 255.378906 256.972656 256.132812 C 257.152344 260.078125 257.371094 264.980469 254.546875 267.449219 C 253.28125 268.546875 251.664062 268.996094 250.007812 268.996094 Z M 251.714844 255.496094 C 251.339844 255.628906 250.945312 255.765625 250.539062 255.898438 C 248.621094 256.546875 244.636719 257.894531 244.351562 259.109375 C 244.257812 259.488281 244.617188 260.628906 246.496094 262.515625 C 247.464844 263.492188 250.285156 264.21875 251.09375 263.507812 C 252.035156 262.691406 251.824219 258.085938 251.746094 256.359375 C 251.734375 256.0625 251.726562 255.773438 251.714844 255.496094 Z M 251.714844 255.496094 " fill-opacity="1" fill-rule="nonzero"/><path fill="#fcbf95" d="M 197.402344 251.589844 C 197.402344 256.808594 199.140625 262.867188 193.832031 263.601562 C 189.09375 264.261719 186.71875 259.628906 186.273438 255.164062 C 190.5625 254.410156 193.863281 250.148438 198.296875 250.085938 " fill-opacity="1" fill-rule="nonzero"/><path fill="#010101" d="M 192.953125 266.277344 C 191.121094 266.277344 189.425781 265.695312 187.996094 264.566406 C 185.644531 262.714844 184.070312 259.378906 183.675781 255.425781 C 183.542969 254.0625 184.476562 252.828125 185.824219 252.59375 C 187.292969 252.332031 188.785156 251.414062 190.367188 250.449219 C 192.601562 249.074219 195.136719 247.523438 198.265625 247.480469 C 198.273438 247.480469 198.289062 247.480469 198.300781 247.480469 C 199.726562 247.480469 200.890625 248.628906 200.914062 250.054688 C 200.921875 250.851562 200.578125 251.570312 200.019531 252.0625 C 200.035156 252.902344 200.09375 253.765625 200.144531 254.613281 C 200.421875 258.859375 200.839844 265.269531 194.1875 266.191406 C 193.769531 266.246094 193.355469 266.277344 192.953125 266.277344 Z M 189.25 256.980469 C 189.671875 258.535156 190.378906 259.796875 191.230469 260.464844 C 191.863281 260.964844 192.5625 261.136719 193.46875 261.015625 C 194.832031 260.828125 195.28125 260.28125 194.933594 254.949219 C 194.910156 254.582031 194.886719 254.210938 194.863281 253.847656 C 194.296875 254.164062 193.710938 254.519531 193.097656 254.898438 C 191.929688 255.617188 190.65625 256.402344 189.25 256.980469 Z M 189.25 256.980469 " fill-opacity="1" fill-rule="nonzero"/><path fill="#bcbcbc" d="M 75.753906 326.21875 C 77.253906 312.167969 79.609375 295.738281 80.003906 283.726562 C 80.507812 268.484375 79.144531 255.027344 78.503906 241.148438 C 92.1875 239.914062 104.753906 244.4375 118.789062 243.1875 C 118.289062 251.617188 120.203125 267.324219 120.203125 275.835938 C 120.203125 285.636719 119.734375 295.386719 121.535156 304.855469 C 122.324219 308.984375 120.398438 316.621094 121.785156 329.789062 C 114.539062 331.070312 105.597656 331.324219 100.257812 331.574219 C 90.570312 332.046875 87.65625 331.371094 75.753906 326.21875 Z M 75.753906 326.21875 " fill-opacity="1" fill-rule="nonzero"/><path fill="#010101" d="M 96.011719 334.3125 C 89.0625 334.3125 85.039062 333.085938 74.722656 328.617188 C 73.675781 328.160156 73.042969 327.074219 73.164062 325.941406 C 73.589844 321.914062 74.09375 317.703125 74.59375 313.445312 C 75.832031 302.953125 77.117188 292.101562 77.394531 283.632812 C 77.75 272.714844 77.132812 262.558594 76.535156 252.734375 C 76.308594 248.914062 76.070312 245.105469 75.898438 241.261719 C 75.832031 239.867188 76.882812 238.667969 78.269531 238.542969 C 85.367188 237.894531 92.167969 238.75 98.738281 239.566406 C 105.152344 240.359375 111.765625 241.195312 118.558594 240.582031 C 119.328125 240.542969 120.0625 240.777344 120.613281 241.316406 C 121.15625 241.84375 121.441406 242.582031 121.394531 243.339844 C 121.117188 248.019531 121.621094 255.132812 122.105469 262.003906 C 122.464844 267.210938 122.816406 272.125 122.816406 275.835938 L 122.789062 280.890625 C 122.714844 289.058594 122.660156 296.777344 124.105469 304.363281 C 124.488281 306.371094 124.347656 308.828125 124.164062 311.953125 C 123.917969 316.167969 123.589844 321.929688 124.386719 329.511719 C 124.527344 330.882812 123.597656 332.125 122.246094 332.359375 C 115.722656 333.507812 108.09375 333.84375 102.523438 334.089844 L 100.390625 334.1875 C 98.773438 334.269531 97.339844 334.3125 96.011719 334.3125 Z M 78.5625 324.582031 C 88.667969 328.890625 91.472656 329.382812 100.136719 328.980469 L 102.285156 328.875 C 107.039062 328.667969 113.320312 328.390625 118.960938 327.597656 C 118.417969 320.808594 118.714844 315.582031 118.945312 311.65625 C 119.101562 308.890625 119.234375 306.714844 118.972656 305.347656 C 117.425781 297.246094 117.5 288.914062 117.5625 280.851562 L 117.589844 275.84375 C 117.589844 272.3125 117.25 267.488281 116.886719 262.375 C 116.484375 256.609375 116.066406 250.6875 116.09375 245.972656 C 109.84375 246.21875 103.882812 245.472656 98.097656 244.753906 C 92.347656 244.039062 86.855469 243.339844 81.238281 243.585938 C 81.386719 246.535156 81.566406 249.476562 81.75 252.421875 C 82.355469 262.363281 82.976562 272.644531 82.617188 283.8125 C 82.328125 292.5 81.035156 303.464844 79.773438 314.066406 C 79.355469 317.628906 78.9375 321.167969 78.5625 324.582031 Z M 78.5625 324.582031 " fill-opacity="1" fill-rule="nonzero"/><path fill="#010101" d="M 100.761719 332.664062 C 99.351562 332.664062 98.195312 331.542969 98.148438 330.128906 C 98.058594 327.246094 97.871094 322.808594 97.648438 317.511719 C 96.859375 298.949219 95.664062 270.902344 96.710938 261.148438 C 96.863281 259.714844 98.179688 258.683594 99.589844 258.835938 C 101.019531 258.984375 102.058594 260.277344 101.902344 261.710938 C 100.894531 271.074219 102.128906 300.007812 102.863281 317.300781 C 103.089844 322.621094 103.28125 327.078125 103.371094 329.984375 C 103.414062 331.417969 102.28125 332.625 100.839844 332.671875 C 100.8125 332.664062 100.785156 332.664062 100.761719 332.664062 Z M 100.761719 332.664062 " fill-opacity="1" fill-rule="nonzero"/><path fill="#74cccf" d="M 81.421875 242.171875 C 90 242.171875 98.640625 241.859375 107.039062 242.851562 C 113.871094 243.660156 114.105469 242.804688 120.03125 244.980469 C 118.707031 245.433594 119.28125 231.695312 118.535156 223.523438 C 117.78125 214.582031 118.074219 214.890625 116.785156 195.929688 C 121.285156 212.28125 124.496094 212.386719 132.285156 219.628906 C 136.003906 223.085938 149.824219 224.449219 155.316406 223.089844 C 155.066406 217.472656 153.085938 214.761719 152.820312 208.253906 C 129.453125 209.972656 132.085938 192.449219 130.027344 186.960938 C 127.761719 180.917969 127.0625 175.804688 120.984375 172.421875 C 115.949219 169.617188 112.347656 168.574219 106.472656 168.589844 C 92.039062 168.625 82.804688 167.3125 73.753906 178.753906 C 65.820312 188.785156 69.011719 199.613281 66.304688 213.085938 C 64.644531 221.367188 65.449219 230.371094 64.972656 238.75 C 64.800781 241.753906 63.359375 247.722656 63.640625 254.75 C 63.75 257.503906 75.539062 255.742188 78.253906 255.699219 C 75.835938 235.417969 76.667969 211.613281 83.566406 193.691406 C 81.253906 208.960938 80.234375 227.679688 81.421875 242.171875 Z M 81.421875 242.171875 " fill-opacity="1" fill-rule="nonzero"/><path fill="#010101" d="M 68.640625 258.914062 C 65.496094 258.914062 63.503906 258.496094 62.257812 257.398438 C 61.5 256.734375 61.066406 255.832031 61.03125 254.859375 C 60.832031 249.785156 61.480469 245.285156 61.949219 242 C 62.148438 240.636719 62.316406 239.492188 62.367188 238.613281 C 62.523438 235.796875 62.535156 232.90625 62.550781 230.003906 C 62.574219 224.242188 62.601562 218.285156 63.746094 212.582031 C 64.625 208.191406 64.851562 204.066406 65.078125 200.070312 C 65.527344 192.019531 65.949219 184.421875 71.699219 177.148438 C 80.664062 165.820312 90.257812 165.898438 102.40625 165.972656 L 106.464844 165.988281 C 106.511719 165.988281 106.558594 165.988281 106.597656 165.988281 C 112.710938 165.988281 116.679688 167.046875 122.246094 170.148438 C 128.152344 173.433594 129.742188 178.117188 131.421875 183.074219 C 131.753906 184.035156 132.082031 185.03125 132.460938 186.050781 C 132.9375 187.3125 133.179688 188.855469 133.449219 190.636719 C 134.578125 197.871094 136 206.882812 152.617188 205.652344 C 153.378906 205.574219 154.027344 205.839844 154.550781 206.304688 C 155.070312 206.769531 155.390625 207.441406 155.421875 208.148438 C 155.546875 211.257812 156.089844 213.378906 156.664062 215.621094 C 157.214844 217.777344 157.789062 220.007812 157.914062 222.976562 C 157.96875 224.21875 157.144531 225.324219 155.933594 225.621094 C 150.3125 227.007812 135.320312 226.019531 130.5 221.539062 C 129.167969 220.296875 127.972656 219.265625 126.878906 218.332031 C 124.335938 216.148438 122.261719 214.375 120.371094 211.621094 C 120.410156 212.253906 120.441406 212.832031 120.472656 213.382812 C 120.648438 216.738281 120.769531 218.882812 121.132812 223.292969 C 121.441406 226.597656 121.527344 230.820312 121.609375 234.542969 C 121.675781 237.617188 121.761719 241.707031 122.007812 243.257812 C 122.414062 243.730469 122.648438 244.347656 122.644531 245 C 122.628906 246.109375 121.921875 247.085938 120.875 247.445312 C 120.1875 247.667969 119.269531 247.589844 118.597656 247.230469 C 115.359375 246.070312 114.214844 246.007812 111.847656 245.875 C 110.570312 245.796875 109 245.707031 106.730469 245.433594 C 100.113281 244.652344 93.167969 244.707031 86.421875 244.746094 L 81.414062 244.769531 C 80.839844 244.769531 80.300781 244.582031 79.863281 244.257812 C 80.066406 247.929688 80.394531 251.648438 80.839844 255.386719 C 80.933594 256.125 80.703125 256.859375 80.214844 257.417969 C 79.734375 257.984375 79.039062 258.3125 78.296875 258.324219 C 77.765625 258.332031 76.867188 258.417969 75.769531 258.503906 C 72.902344 258.757812 70.5625 258.914062 68.640625 258.914062 Z M 66.226562 253.558594 C 68.304688 253.910156 73.292969 253.476562 75.316406 253.304688 C 75.332031 253.304688 75.347656 253.304688 75.363281 253.300781 C 72.980469 230.464844 75.058594 208.527344 81.132812 192.75 C 81.613281 191.507812 82.941406 190.824219 84.242188 191.164062 C 85.53125 191.503906 86.351562 192.761719 86.152344 194.078125 C 83.871094 209.132812 83.011719 226.28125 83.855469 239.542969 L 86.398438 239.535156 C 93.265625 239.476562 100.414062 239.433594 107.355469 240.257812 C 109.488281 240.511719 110.953125 240.59375 112.160156 240.660156 C 113.757812 240.753906 114.988281 240.824219 116.59375 241.1875 C 116.507812 239.542969 116.460938 237.429688 116.398438 234.660156 C 116.320312 231.023438 116.234375 226.902344 115.941406 223.757812 C 115.566406 219.25 115.445312 217.074219 115.265625 213.664062 C 115.085938 210.257812 114.835938 205.605469 114.1875 196.109375 C 114.09375 194.769531 115.035156 193.582031 116.355469 193.355469 C 117.707031 193.152344 118.957031 193.945312 119.3125 195.234375 C 122.8125 207.957031 125.308594 210.101562 130.296875 214.375 C 131.433594 215.351562 132.683594 216.421875 134.078125 217.714844 C 136.574219 220.035156 146.652344 221.417969 152.492188 220.898438 C 152.28125 219.519531 151.964844 218.28125 151.621094 216.914062 C 151.179688 215.203125 150.699219 213.328125 150.421875 210.976562 C 131.382812 211.335938 129.398438 198.464844 128.308594 191.429688 C 128.085938 189.992188 127.875 188.636719 127.589844 187.878906 C 127.1875 186.800781 126.828125 185.757812 126.488281 184.746094 C 124.960938 180.253906 123.867188 177.011719 119.71875 174.703125 C 114.972656 172.0625 111.769531 171.199219 106.605469 171.199219 C 106.5625 171.199219 106.519531 171.199219 106.484375 171.199219 L 102.363281 171.195312 C 90.429688 171.121094 83.167969 171.058594 75.800781 180.382812 C 71.074219 186.359375 70.707031 192.847656 70.289062 200.359375 C 70.058594 204.53125 69.820312 208.847656 68.871094 213.605469 C 67.824219 218.816406 67.800781 224.515625 67.773438 230.03125 C 67.757812 233.023438 67.746094 236 67.578125 238.90625 C 67.523438 239.894531 67.34375 241.195312 67.121094 242.738281 C 66.710938 245.574219 66.164062 249.382812 66.226562 253.558594 Z M 66.226562 253.558594 " fill-opacity="1" fill-rule="nonzero"/><path fill="#fcbf95" d="M 210.492188 138.097656 C 206.144531 146.285156 203.183594 174.6875 220.46875 171.121094 C 234.140625 168.300781 241.597656 146.15625 231.007812 136.207031 C 227.972656 133.351562 207.578125 129.019531 210.492188 138.097656 Z M 210.492188 138.097656 " fill-opacity="1" fill-rule="nonzero"/><path fill="#010101" d="M 217.621094 174.039062 C 212.867188 174.039062 209.972656 171.664062 208.308594 169.445312 C 202.359375 161.507812 204.511719 144.953125 207.734375 137.808594 C 207.238281 135.171875 208.160156 132.921875 210.351562 131.539062 C 215.789062 128.101562 229.667969 131.367188 232.804688 134.304688 C 238.238281 139.417969 240.03125 147.636719 237.582031 156.289062 C 235.039062 165.304688 228.53125 172.125 221 173.679688 C 219.777344 173.929688 218.65625 174.039062 217.621094 174.039062 Z M 216.90625 135.230469 C 215.292969 135.230469 213.929688 135.445312 213.117188 135.960938 C 212.878906 136.117188 212.644531 136.269531 212.976562 137.296875 C 213.195312 137.964844 213.128906 138.699219 212.800781 139.320312 C 209.957031 144.667969 207.828125 160.09375 212.488281 166.3125 C 213.542969 167.722656 215.484375 169.480469 219.9375 168.5625 C 225.578125 167.398438 230.527344 162.023438 232.550781 154.863281 C 234.453125 148.125 233.210938 141.855469 229.214844 138.109375 C 227.867188 136.878906 221.421875 135.230469 216.90625 135.230469 Z M 216.90625 135.230469 " fill-opacity="1" fill-rule="nonzero"/><path fill="#fcbf95" d="M 169.617188 204.234375 C 165.421875 203.757812 160.476562 205.039062 156.617188 206.21875 C 153.597656 207.136719 152.503906 208.144531 152.234375 211.339844 C 152.039062 213.746094 152.355469 221.210938 152.988281 223.480469 C 155.453125 223.402344 156.570312 223.90625 159.492188 223.648438 C 163.324219 223.3125 164.003906 220.621094 164.488281 219.148438 C 165.542969 215.960938 162.746094 213.140625 166.363281 211.464844 C 168.085938 210.671875 168.03125 210.578125 169.488281 209.476562 C 170.234375 208.914062 171.722656 207.695312 171.648438 206.660156 C 171.511719 204.761719 171.320312 204.652344 169.617188 204.234375 Z M 169.617188 204.234375 " fill-opacity="1" fill-rule="nonzero"/><path fill="#010101" d="M 157.882812 226.332031 C 156.925781 226.332031 156.152344 226.265625 155.441406 226.195312 C 154.722656 226.132812 154.011719 226.054688 153.066406 226.09375 C 151.980469 226.09375 150.792969 225.339844 150.472656 224.179688 C 149.703125 221.417969 149.429688 213.527344 149.636719 211.121094 C 150.023438 206.417969 152.304688 204.800781 155.855469 203.722656 C 159.941406 202.480469 165.1875 201.125 169.910156 201.636719 C 170.019531 201.648438 170.125 201.667969 170.234375 201.695312 C 173.105469 202.390625 174.042969 203.511719 174.253906 206.484375 C 174.378906 208.195312 173.332031 209.863281 171.054688 211.574219 L 170.359375 212.109375 C 169.425781 212.832031 169.015625 213.121094 167.457031 213.847656 C 167.007812 214.222656 167.105469 214.886719 167.164062 215.328125 C 167.328125 216.53125 167.558594 218.171875 166.964844 219.976562 C 166.394531 221.726562 165.074219 225.792969 159.703125 226.257812 C 159.027344 226.304688 158.429688 226.332031 157.882812 226.332031 Z M 155.199219 220.933594 C 155.441406 220.953125 155.683594 220.976562 155.921875 220.996094 C 156.867188 221.078125 157.824219 221.171875 159.265625 221.046875 C 161.097656 220.886719 161.4375 220.085938 161.933594 218.574219 C 162.234375 217.683594 162.121094 216.929688 162.003906 216.046875 C 161.753906 214.257812 161.289062 210.945312 165.273438 209.101562 C 166.378906 208.589844 166.46875 208.519531 167.164062 207.976562 L 167.925781 207.394531 C 168.253906 207.148438 168.5 206.9375 168.683594 206.769531 C 165.089844 206.582031 160.789062 207.679688 157.390625 208.71875 C 155.113281 209.414062 155.007812 209.679688 154.851562 211.558594 C 154.683594 213.382812 154.875 218.097656 155.199219 220.933594 Z M 169.042969 206.84375 C 169.042969 206.847656 169.042969 206.855469 169.042969 206.855469 C 169.042969 206.855469 169.042969 206.847656 169.042969 206.84375 Z M 169.042969 206.84375 " fill-opacity="1" fill-rule="nonzero"/><path fill="#fcbf95" d="M 62.972656 256.324219 C 61.933594 259.347656 61.980469 261.320312 63.984375 263.535156 C 65.464844 265.164062 67.078125 267.042969 69.34375 267.695312 C 71.867188 268.421875 74.054688 267.046875 75.25 264.914062 C 77.011719 261.773438 74.550781 260.621094 74.6875 257.894531 C 72.949219 255.601562 66.703125 255.8125 62.972656 256.324219 Z M 62.972656 256.324219 " fill-opacity="1" fill-rule="nonzero"/><path fill="#010101" d="M 70.691406 270.5 C 70.011719 270.5 69.324219 270.402344 68.628906 270.203125 C 65.75 269.378906 63.824219 267.242188 62.273438 265.523438 C 58.910156 261.820312 59.453125 258.519531 60.503906 255.464844 C 60.828125 254.535156 61.640625 253.863281 62.617188 253.730469 C 66.726562 253.164062 74.054688 252.75 76.761719 256.308594 C 77.136719 256.796875 77.320312 257.402344 77.292969 258.019531 C 77.273438 258.472656 77.425781 258.867188 77.722656 259.574219 C 78.316406 261 79.214844 263.164062 77.535156 266.179688 C 75.988281 268.9375 73.433594 270.5 70.691406 270.5 Z M 65.003906 258.71875 C 64.734375 260.125 65.074219 260.828125 65.925781 261.773438 C 67.371094 263.378906 68.632812 264.773438 70.074219 265.183594 C 71.683594 265.644531 72.636719 264.246094 72.984375 263.628906 C 73.429688 262.835938 73.355469 262.667969 72.90625 261.585938 C 72.640625 260.953125 72.3125 260.164062 72.15625 259.183594 C 71.078125 258.734375 68.488281 258.421875 65.003906 258.71875 Z M 65.003906 258.71875 " fill-opacity="1" fill-rule="nonzero"/><path fill="#fcbf95" d="M 111.539062 167.957031 C 115.4375 164.195312 115.304688 156.164062 115.183594 151.121094 C 115.070312 146.222656 113.890625 141.722656 111.261719 137.597656 C 107.957031 132.414062 102.910156 131.390625 96.75 132.671875 C 87.84375 134.527344 85.40625 147.328125 85.179688 154.765625 C 84.988281 161.085938 85.964844 167.320312 92.464844 169.839844 C 98.59375 172.222656 109.6875 174.0625 111.539062 167.957031 Z M 111.539062 167.957031 " fill-opacity="1" fill-rule="nonzero"/><path fill="#010101" d="M 103.585938 174.683594 C 99.125 174.683594 94.355469 173.382812 91.519531 172.28125 C 83.117188 169.015625 82.386719 160.675781 82.570312 154.6875 C 82.894531 144.113281 86.636719 132.109375 96.214844 130.113281 C 104.039062 128.484375 109.851562 130.53125 113.460938 136.191406 C 116.242188 140.558594 117.65625 145.417969 117.792969 151.054688 C 117.910156 156.175781 118.121094 164.636719 113.804688 169.359375 C 113.085938 171.140625 111.742188 172.546875 109.890625 173.449219 C 108.070312 174.34375 105.867188 174.683594 103.585938 174.683594 Z M 101.1875 134.78125 C 100.007812 134.78125 98.707031 134.933594 97.28125 135.230469 C 88.582031 137.042969 87.847656 153.03125 87.792969 154.847656 C 87.566406 162.140625 89.195312 165.777344 93.40625 167.414062 C 97.988281 169.195312 104.519531 170.265625 107.605469 168.761719 C 108.386719 168.378906 108.824219 167.898438 109.039062 167.195312 C 109.164062 166.765625 109.402344 166.382812 109.722656 166.078125 C 112.859375 163.054688 112.667969 155.335938 112.570312 151.183594 C 112.460938 146.519531 111.308594 142.535156 109.054688 139 C 107.242188 136.148438 104.746094 134.78125 101.1875 134.78125 Z M 101.1875 134.78125 " fill-opacity="1" fill-rule="nonzero"/><g fill="#ffffff" fill-opacity="1"><g transform="translate(126.370362, 105.48071)"><g><path d="M 11.1875 -20.53125 C 12.257812 -18.957031 13.566406 -17.273438 15.109375 -15.484375 C 16.648438 -13.691406 18.476562 -12.1875 20.59375 -10.96875 C 22.707031 -9.75 25.125 -9.140625 27.84375 -9.140625 C 30 -9.140625 32.148438 -9.691406 34.296875 -10.796875 C 36.441406 -11.910156 38.25 -13.5625 39.71875 -15.75 C 41.195312 -17.9375 41.9375 -20.609375 41.9375 -23.765625 C 41.9375 -26.984375 41.34375 -29.5625 40.15625 -31.5 C 38.976562 -33.4375 37.421875 -34.832031 35.484375 -35.6875 C 33.546875 -36.550781 31.429688 -36.984375 29.140625 -36.984375 C 26.910156 -36.984375 24.664062 -36.640625 22.40625 -35.953125 C 20.15625 -35.273438 18.0625 -34.546875 16.125 -33.765625 L 12.90625 -42.25 L 33.109375 -64.515625 L 6.34375 -64.515625 L 6.34375 -75.265625 L 49.453125 -75.265625 L 51.609375 -70.953125 L 30.53125 -47.625 C 34.6875 -47.625 38.46875 -46.601562 41.875 -44.5625 C 45.28125 -42.519531 48.003906 -39.742188 50.046875 -36.234375 C 52.085938 -32.722656 53.109375 -28.78125 53.109375 -24.40625 C 53.109375 -19.25 51.867188 -14.75 49.390625 -10.90625 C 46.921875 -7.070312 43.695312 -4.113281 39.71875 -2.03125 C 35.75 0.0390625 31.503906 1.078125 26.984375 1.078125 C 22.753906 1.078125 19.113281 0.378906 16.0625 -1.015625 C 13.019531 -2.421875 10.390625 -4.335938 8.171875 -6.765625 C 5.953125 -9.203125 3.945312 -11.894531 2.15625 -14.84375 Z M 11.1875 -20.53125 "/></g></g><g transform="translate(183.245495, 105.48071)"><g><path d="M 55.484375 -11.1875 L 55.484375 0 L 10 0 L 6.453125 -8.8125 L 29.453125 -34.734375 C 32.398438 -38.023438 35.085938 -41.316406 37.515625 -44.609375 C 39.953125 -47.910156 41.171875 -51.28125 41.171875 -54.71875 C 41.171875 -58.300781 40.128906 -61.003906 38.046875 -62.828125 C 35.972656 -64.660156 33.253906 -65.578125 29.890625 -65.578125 C 28.242188 -65.578125 26.414062 -65.078125 24.40625 -64.078125 C 22.394531 -63.078125 20.492188 -61.5 18.703125 -59.34375 C 16.910156 -57.195312 15.476562 -54.367188 14.40625 -50.859375 L 5.484375 -56.453125 C 7.421875 -63.109375 10.769531 -68.085938 15.53125 -71.390625 C 20.300781 -74.691406 25.550781 -76.34375 31.28125 -76.34375 C 35.375 -76.34375 39.066406 -75.5 42.359375 -73.8125 C 45.660156 -72.125 48.273438 -69.738281 50.203125 -66.65625 C 52.140625 -63.570312 53.109375 -59.878906 53.109375 -55.578125 C 53.109375 -50.640625 51.617188 -45.75 48.640625 -40.90625 C 45.671875 -36.070312 42.035156 -31.289062 37.734375 -26.5625 L 23.65625 -11.1875 Z M 55.484375 -11.1875 "/></g></g></g></svg>