<svg xmlns="http://www.w3.org/2000/svg" xmlns:xlink="http://www.w3.org/1999/xlink" width="500" zoomAndPan="magnify" viewBox="0 0 375 374.999991" height="500" preserveAspectRatio="xMidYMid meet" version="1.0"><defs><g/><clipPath id="0a31245608"><path d="M 6.570312 0 L 369.714844 0 L 369.714844 375 L 6.570312 375 Z M 6.570312 0 " clip-rule="nonzero"/></clipPath><clipPath id="01efa6a3f6"><path d="M 20.820312 0 L 355.464844 0 C 359.242188 0 362.867188 1.5 365.539062 4.171875 C 368.210938 6.847656 369.714844 10.46875 369.714844 14.25 L 369.714844 360.75 C 369.714844 364.527344 368.210938 368.152344 365.539062 370.828125 C 362.867188 373.5 359.242188 375 355.464844 375 L 20.820312 375 C 17.039062 375 13.414062 373.5 10.742188 370.828125 C 8.070312 368.152344 6.570312 364.527344 6.570312 360.75 L 6.570312 14.25 C 6.570312 10.46875 8.070312 6.847656 10.742188 4.171875 C 13.414062 1.5 17.039062 0 20.820312 0 Z M 20.820312 0 " clip-rule="nonzero"/></clipPath><clipPath id="8a3e48e149"><path d="M 67.203125 125.132812 L 306.453125 125.132812 L 306.453125 364.378906 L 67.203125 364.378906 Z M 67.203125 125.132812 " clip-rule="nonzero"/></clipPath></defs><g clip-path="url(#0a31245608)"><g clip-path="url(#01efa6a3f6)"><path fill="#abb0b0" d="M 6.570312 0 L 369.714844 0 L 369.714844 374.492188 L 6.570312 374.492188 Z M 6.570312 0 " fill-opacity="1" fill-rule="nonzero"/></g></g><path fill="#fad517" d="M 301.785156 244.761719 C 301.785156 308.25 250.316406 359.71875 186.828125 359.71875 C 123.339844 359.71875 71.871094 308.25 71.871094 244.761719 C 71.871094 181.269531 123.339844 129.804688 186.828125 129.804688 C 250.316406 129.804688 301.785156 181.269531 301.785156 244.761719 " fill-opacity="1" fill-rule="nonzero"/><g clip-path="url(#8a3e48e149)"><path fill="#050607" d="M 297.117188 244.761719 C 297.113281 247.820312 297 250.882812 296.757812 253.933594 C 296.640625 255.414062 296.496094 256.894531 296.320312 258.367188 C 296.277344 258.738281 296.230469 259.101562 296.1875 259.46875 C 296.082031 260.332031 296.332031 258.441406 296.164062 259.640625 C 296.0625 260.367188 295.953125 261.097656 295.835938 261.824219 C 294.902344 267.667969 293.511719 273.4375 291.683594 279.0625 C 290.796875 281.789062 289.808594 284.484375 288.722656 287.136719 C 288.644531 287.324219 288.566406 287.511719 288.488281 287.699219 C 288.292969 288.1875 288.664062 287.277344 288.660156 287.292969 C 288.632812 287.605469 288.367188 287.980469 288.238281 288.273438 C 287.933594 288.972656 287.621094 289.671875 287.304688 290.363281 C 286.710938 291.65625 286.09375 292.9375 285.449219 294.207031 C 282.875 299.300781 279.921875 304.199219 276.617188 308.851562 C 276.210938 309.425781 275.796875 309.996094 275.378906 310.5625 C 275.027344 311.039062 274.53125 312.078125 274.015625 312.375 C 274.007812 312.378906 274.605469 311.621094 274.285156 312.023438 C 274.191406 312.140625 274.101562 312.261719 274.007812 312.382812 C 273.789062 312.65625 273.570312 312.933594 273.351562 313.210938 C 272.882812 313.796875 272.40625 314.382812 271.921875 314.960938 C 270.121094 317.125 268.246094 319.21875 266.292969 321.242188 C 264.308594 323.300781 262.242188 325.289062 260.109375 327.195312 C 259.058594 328.132812 257.996094 329.050781 256.914062 329.949219 C 256.371094 330.398438 255.828125 330.84375 255.277344 331.285156 C 255.003906 331.503906 254.726562 331.722656 254.449219 331.941406 C 254.332031 332.035156 254.210938 332.121094 254.09375 332.21875 C 253.621094 332.59375 255.019531 331.515625 254.199219 332.132812 C 249.65625 335.574219 244.894531 338.710938 239.898438 341.46875 C 237.367188 342.863281 234.785156 344.164062 232.15625 345.363281 C 231.554688 345.636719 230.949219 345.90625 230.34375 346.171875 C 230.050781 346.296875 229.671875 346.5625 229.359375 346.59375 C 229.34375 346.597656 230.253906 346.222656 229.769531 346.421875 C 229.535156 346.515625 229.300781 346.613281 229.0625 346.710938 C 227.738281 347.253906 226.40625 347.769531 225.058594 348.261719 C 219.578125 350.265625 213.941406 351.847656 208.21875 352.988281 C 206.730469 353.289062 205.238281 353.554688 203.738281 353.792969 C 203.0625 353.898438 202.386719 354 201.707031 354.09375 C 200.507812 354.265625 202.402344 354.011719 201.539062 354.117188 C 201.117188 354.167969 200.699219 354.222656 200.28125 354.273438 C 197.261719 354.625 194.230469 354.855469 191.199219 354.96875 C 185.144531 355.195312 179.074219 354.953125 173.0625 354.234375 C 172.695312 354.191406 172.328125 354.140625 171.960938 354.097656 C 171.425781 354.03125 172.433594 354.160156 172.417969 354.160156 C 172.253906 354.179688 171.9375 354.09375 171.792969 354.074219 C 171.0625 353.96875 170.335938 353.859375 169.609375 353.742188 C 168.164062 353.507812 166.722656 353.25 165.285156 352.957031 C 162.386719 352.378906 159.507812 351.679688 156.664062 350.875 C 153.84375 350.074219 151.058594 349.167969 148.308594 348.15625 C 146.964844 347.660156 145.632812 347.140625 144.308594 346.597656 C 144.183594 346.542969 143.820312 346.445312 143.746094 346.363281 C 143.734375 346.347656 144.632812 346.746094 144.15625 346.535156 C 143.828125 346.390625 143.5 346.253906 143.171875 346.109375 C 142.519531 345.824219 141.871094 345.535156 141.222656 345.234375 C 135.984375 342.828125 130.925781 340.019531 126.105469 336.851562 C 124.925781 336.078125 123.761719 335.28125 122.613281 334.464844 C 122.039062 334.054688 121.46875 333.640625 120.902344 333.21875 C 120.433594 332.875 119.519531 332.441406 119.214844 331.949219 C 119.519531 332.445312 119.835938 332.433594 119.445312 332.125 C 119.328125 332.03125 119.207031 331.941406 119.089844 331.847656 C 118.8125 331.628906 118.535156 331.410156 118.261719 331.191406 C 117.675781 330.71875 117.09375 330.242188 116.511719 329.757812 C 115.433594 328.855469 114.367188 327.9375 113.324219 326.996094 C 109.101562 323.203125 105.160156 319.097656 101.542969 314.730469 C 101.09375 314.1875 100.648438 313.640625 100.210938 313.089844 C 99.992188 312.816406 99.773438 312.539062 99.554688 312.261719 C 99.484375 312.171875 99.3125 312.015625 99.277344 311.90625 C 99.335938 312.089844 99.839844 312.644531 99.453125 312.132812 C 98.574219 310.96875 97.707031 309.796875 96.863281 308.605469 C 95.207031 306.257812 93.636719 303.847656 92.164062 301.382812 C 90.707031 298.953125 89.339844 296.464844 88.066406 293.933594 C 87.429688 292.664062 86.816406 291.382812 86.226562 290.089844 C 85.929688 289.4375 85.640625 288.789062 85.355469 288.132812 C 85.28125 287.964844 84.851562 286.859375 85.109375 287.566406 C 85.359375 288.253906 84.882812 287.015625 84.820312 286.851562 C 82.625 281.472656 80.847656 275.921875 79.5 270.265625 C 78.808594 267.375 78.234375 264.453125 77.773438 261.511719 C 77.667969 260.835938 77.566406 260.160156 77.472656 259.484375 C 77.351562 258.628906 77.589844 260.410156 77.449219 259.3125 C 77.398438 258.894531 77.347656 258.472656 77.296875 258.054688 C 77.128906 256.578125 76.988281 255.097656 76.875 253.617188 C 76.414062 247.566406 76.425781 241.476562 76.910156 235.425781 C 77.035156 233.894531 77.1875 232.363281 77.371094 230.835938 C 77.417969 230.46875 77.480469 230.101562 77.511719 229.734375 C 77.511719 229.722656 77.375 230.726562 77.449219 230.191406 C 77.472656 230.035156 77.492188 229.878906 77.515625 229.722656 C 77.625 228.941406 77.746094 228.164062 77.871094 227.386719 C 78.347656 224.453125 78.941406 221.535156 79.644531 218.648438 C 81.023438 212.996094 82.859375 207.488281 85.050781 202.101562 C 85.453125 201.109375 84.785156 202.710938 85.113281 201.945312 C 85.234375 201.667969 85.355469 201.386719 85.480469 201.105469 C 85.785156 200.40625 86.097656 199.710938 86.417969 199.019531 C 87.03125 197.679688 87.675781 196.355469 88.34375 195.042969 C 89.628906 192.519531 91.007812 190.042969 92.476562 187.621094 C 93.964844 185.160156 95.542969 182.761719 97.214844 180.421875 C 97.59375 179.890625 97.976562 179.359375 98.367188 178.835938 C 98.574219 178.550781 98.789062 178.269531 99 177.988281 C 99.101562 177.851562 99.890625 176.804688 99.457031 177.378906 C 99.039062 177.941406 99.703125 177.070312 99.835938 176.902344 C 100.054688 176.625 100.273438 176.351562 100.492188 176.074219 C 100.964844 175.488281 101.445312 174.90625 101.925781 174.328125 C 105.570312 169.976562 109.53125 165.894531 113.773438 162.121094 C 114.824219 161.1875 115.890625 160.273438 116.976562 159.378906 C 117.519531 158.929688 118.066406 158.488281 118.613281 158.046875 C 118.851562 157.859375 119.089844 157.675781 119.324219 157.488281 C 120.199219 156.800781 118.707031 157.949219 119.574219 157.296875 C 121.863281 155.5625 124.203125 153.902344 126.613281 152.335938 C 131.40625 149.222656 136.433594 146.460938 141.640625 144.09375 C 142.289062 143.800781 142.941406 143.511719 143.59375 143.226562 C 143.734375 143.164062 143.875 143.105469 144.015625 143.046875 C 144.511719 142.832031 144.097656 142.789062 143.746094 143.160156 C 143.949219 142.945312 144.605469 142.804688 144.875 142.691406 C 146.203125 142.15625 147.539062 141.640625 148.886719 141.15625 C 151.59375 140.171875 154.335938 139.292969 157.109375 138.519531 C 159.960938 137.726562 162.839844 137.039062 165.746094 136.46875 C 167.183594 136.1875 168.628906 135.929688 170.074219 135.703125 C 170.804688 135.589844 171.53125 135.484375 172.261719 135.382812 C 172.796875 135.304688 171.789062 135.445312 171.804688 135.441406 C 172.011719 135.425781 172.222656 135.386719 172.429688 135.363281 C 172.851562 135.308594 173.273438 135.257812 173.691406 135.210938 C 179.714844 134.527344 185.785156 134.316406 191.839844 134.578125 C 194.871094 134.707031 197.898438 134.957031 200.910156 135.324219 C 201.222656 135.363281 201.539062 135.414062 201.851562 135.441406 C 200.507812 135.3125 201.703125 135.425781 202.023438 135.46875 C 202.800781 135.582031 203.582031 135.699219 204.359375 135.828125 C 205.804688 136.066406 207.246094 136.332031 208.679688 136.625 C 214.445312 137.796875 220.121094 139.421875 225.636719 141.46875 C 226.976562 141.96875 228.304688 142.5 229.628906 143.042969 C 230.40625 143.359375 228.707031 142.640625 229.78125 143.105469 C 230.0625 143.226562 230.34375 143.347656 230.625 143.46875 C 231.320312 143.777344 232.019531 144.089844 232.710938 144.414062 C 235.332031 145.625 237.910156 146.941406 240.429688 148.347656 C 242.898438 149.726562 245.316406 151.195312 247.675781 152.753906 C 248.898438 153.554688 250.101562 154.382812 251.289062 155.234375 C 251.820312 155.613281 252.351562 156 252.875 156.386719 C 253.15625 156.597656 253.441406 156.808594 253.71875 157.023438 C 253.882812 157.144531 254.042969 157.265625 254.199219 157.386719 C 254.714844 157.773438 254.160156 157.269531 253.972656 157.207031 C 254.515625 157.378906 255.179688 158.15625 255.628906 158.519531 C 256.175781 158.960938 256.71875 159.410156 257.261719 159.859375 C 258.378906 160.792969 259.476562 161.75 260.558594 162.726562 C 262.644531 164.609375 264.664062 166.570312 266.605469 168.601562 C 268.582031 170.671875 270.488281 172.8125 272.308594 175.023438 C 272.753906 175.566406 273.195312 176.113281 273.632812 176.664062 C 273.820312 176.902344 274.007812 177.140625 274.191406 177.375 C 274.503906 177.769531 274.511719 177.453125 274.015625 177.148438 C 274.152344 177.230469 274.285156 177.5 274.382812 177.628906 C 275.234375 178.75 276.066406 179.886719 276.878906 181.039062 C 280.191406 185.75 283.152344 190.707031 285.722656 195.859375 C 286.359375 197.132812 286.96875 198.414062 287.558594 199.710938 C 287.851562 200.359375 288.140625 201.011719 288.421875 201.667969 C 288.484375 201.804688 288.539062 201.949219 288.601562 202.085938 C 288.8125 202.566406 288.417969 201.667969 288.429688 201.675781 C 288.640625 201.867188 288.785156 202.535156 288.894531 202.808594 C 289.992188 205.515625 290.988281 208.261719 291.875 211.042969 C 293.65625 216.632812 295.007812 222.363281 295.910156 228.164062 C 296.007812 228.796875 296.304688 229.710938 296.226562 230.351562 C 296.226562 230.363281 296.101562 229.355469 296.167969 229.894531 C 296.191406 230.101562 296.21875 230.3125 296.246094 230.523438 C 296.289062 230.886719 296.335938 231.257812 296.375 231.625 C 296.539062 233.050781 296.671875 234.476562 296.78125 235.90625 C 297.007812 238.851562 297.113281 241.804688 297.117188 244.761719 C 297.121094 247.199219 299.261719 249.539062 301.785156 249.425781 C 304.308594 249.316406 306.457031 247.375 306.453125 244.761719 C 306.4375 232.320312 304.527344 219.8125 300.683594 207.976562 C 296.972656 196.542969 291.558594 185.628906 284.589844 175.835938 C 277.449219 165.800781 268.921875 157 259.152344 149.511719 C 249.609375 142.195312 238.96875 136.453125 227.683594 132.3125 C 216.066406 128.042969 203.722656 125.703125 191.359375 125.222656 C 178.863281 124.738281 166.210938 126.238281 154.179688 129.644531 C 142.601562 132.925781 131.453125 137.996094 121.394531 144.609375 C 111.410156 151.175781 102.351562 159.195312 94.75 168.421875 C 86.902344 177.953125 80.621094 188.484375 75.933594 199.902344 C 71.25 211.316406 68.507812 223.453125 67.550781 235.746094 C 66.582031 248.269531 67.648438 261 70.609375 273.203125 C 73.453125 284.933594 78.160156 296.289062 84.414062 306.609375 C 90.605469 316.824219 98.351562 326.171875 107.285156 334.097656 C 116.226562 342.027344 126.308594 348.6875 137.207031 353.613281 C 148.726562 358.8125 160.824219 362.140625 173.378906 363.605469 C 185.902344 365.066406 198.652344 364.429688 211.007812 361.929688 C 222.886719 359.523438 234.421875 355.199219 245.011719 349.304688 C 255.449219 343.496094 265.0625 336.050781 273.308594 327.40625 C 281.535156 318.785156 288.542969 308.910156 293.851562 298.238281 C 299.285156 287.3125 303.113281 275.59375 304.960938 263.527344 C 305.910156 257.3125 306.441406 251.050781 306.453125 244.761719 C 306.457031 242.316406 304.304688 239.980469 301.785156 240.09375 C 299.253906 240.207031 297.121094 242.144531 297.117188 244.761719 " fill-opacity="1" fill-rule="nonzero"/></g><path fill="#050607" d="M 244.0625 260.058594 C 244.0625 262.820312 243.878906 265.578125 243.519531 268.316406 C 243.574219 267.902344 243.628906 267.488281 243.683594 267.078125 C 242.953125 272.492188 241.511719 277.792969 239.398438 282.835938 C 239.554688 282.464844 239.710938 282.09375 239.867188 281.722656 C 237.789062 286.640625 235.078125 291.277344 231.820312 295.507812 C 232.0625 295.191406 232.304688 294.878906 232.546875 294.5625 C 229.300781 298.757812 225.53125 302.527344 221.332031 305.777344 C 221.648438 305.535156 221.964844 305.292969 222.277344 305.046875 C 218.046875 308.308594 213.414062 311.015625 208.492188 313.097656 C 208.863281 312.941406 209.234375 312.78125 209.605469 312.628906 C 204.566406 314.742188 199.265625 316.183594 193.847656 316.914062 C 194.261719 316.859375 194.675781 316.800781 195.085938 316.746094 C 189.609375 317.46875 184.046875 317.46875 178.570312 316.746094 C 178.984375 316.800781 179.394531 316.859375 179.8125 316.914062 C 174.390625 316.183594 169.089844 314.742188 164.050781 312.628906 C 164.421875 312.78125 164.792969 312.941406 165.164062 313.097656 C 160.246094 311.015625 155.609375 308.308594 151.378906 305.046875 C 151.691406 305.292969 152.007812 305.535156 152.324219 305.777344 C 148.128906 302.527344 144.355469 298.757812 141.105469 294.5625 C 141.351562 294.878906 141.59375 295.191406 141.835938 295.507812 C 138.578125 291.277344 135.871094 286.640625 133.789062 281.722656 C 133.945312 282.09375 134.101562 282.464844 134.257812 282.835938 C 132.140625 277.792969 130.703125 272.492188 129.972656 267.078125 C 130.027344 267.488281 130.082031 267.902344 130.136719 268.316406 C 129.777344 265.578125 129.597656 262.820312 129.59375 260.058594 C 129.589844 257.617188 127.449219 255.277344 124.925781 255.390625 C 122.398438 255.503906 120.253906 257.441406 120.257812 260.058594 C 120.265625 266.9375 121.316406 273.890625 123.441406 280.4375 C 125.496094 286.765625 128.46875 292.835938 132.324219 298.261719 C 134.34375 301.09375 136.542969 303.8125 138.960938 306.320312 C 141.386719 308.832031 144.027344 311.085938 146.796875 313.207031 C 152.085938 317.261719 158 320.390625 164.253906 322.6875 C 170.6875 325.046875 177.546875 326.316406 184.390625 326.578125 C 191.296875 326.847656 198.332031 326.007812 204.980469 324.121094 C 211.382812 322.308594 217.589844 319.503906 223.152344 315.847656 C 228.652344 312.226562 233.683594 307.832031 237.882812 302.75 C 240.105469 300.058594 242.164062 297.230469 243.960938 294.242188 C 245.765625 291.242188 247.257812 288.09375 248.585938 284.863281 C 251.203125 278.511719 252.679688 271.75 253.210938 264.910156 C 253.335938 263.296875 253.394531 261.675781 253.398438 260.058594 C 253.402344 257.617188 251.25 255.277344 248.730469 255.390625 C 246.199219 255.503906 244.066406 257.441406 244.0625 260.058594 " fill-opacity="1" fill-rule="nonzero"/><path fill="#050607" d="M 168.199219 212.933594 C 168.199219 223.242188 162.921875 231.601562 156.414062 231.601562 C 149.90625 231.601562 144.628906 223.242188 144.628906 212.933594 C 144.628906 202.625 149.90625 194.265625 156.414062 194.265625 C 162.921875 194.265625 168.199219 202.625 168.199219 212.933594 " fill-opacity="1" fill-rule="nonzero"/><path fill="#050607" d="M 229.027344 212.933594 C 229.027344 223.242188 223.75 231.601562 217.242188 231.601562 C 210.734375 231.601562 205.457031 223.242188 205.457031 212.933594 C 205.457031 202.625 210.734375 194.265625 217.242188 194.265625 C 223.75 194.265625 229.027344 202.625 229.027344 212.933594 " fill-opacity="1" fill-rule="nonzero"/><path fill="#050607" d="M 118.484375 263.523438 C 120.160156 262.988281 121.835938 262.453125 123.511719 261.917969 C 126.175781 261.070312 128.839844 260.21875 131.507812 259.367188 C 132.113281 259.175781 132.722656 258.980469 133.328125 258.789062 C 134.476562 258.421875 135.5 257.699219 136.117188 256.644531 C 136.460938 256.109375 136.644531 255.53125 136.671875 254.910156 C 136.8125 254.289062 136.785156 253.667969 136.589844 253.046875 C 136.222656 251.917969 135.523438 250.828125 134.441406 250.257812 C 133.359375 249.683594 132.050781 249.402344 130.847656 249.789062 C 129.175781 250.320312 127.496094 250.855469 125.824219 251.390625 C 123.15625 252.238281 120.492188 253.089844 117.828125 253.9375 C 117.21875 254.132812 116.613281 254.324219 116.003906 254.519531 C 114.855469 254.886719 113.832031 255.613281 113.214844 256.664062 C 112.875 257.199219 112.691406 257.78125 112.660156 258.398438 C 112.523438 259.019531 112.550781 259.640625 112.746094 260.261719 C 113.109375 261.390625 113.808594 262.480469 114.890625 263.050781 C 115.976562 263.625 117.28125 263.90625 118.484375 263.523438 " fill-opacity="1" fill-rule="nonzero"/><path fill="#050607" d="M 257.652344 254.519531 C 255.976562 253.984375 254.304688 253.453125 252.628906 252.917969 C 249.960938 252.066406 247.296875 251.21875 244.628906 250.367188 C 244.023438 250.175781 243.414062 249.980469 242.808594 249.789062 C 242.1875 249.59375 241.570312 249.566406 240.949219 249.707031 C 240.324219 249.734375 239.75 249.917969 239.210938 250.257812 C 238.667969 250.550781 238.234375 250.953125 237.902344 251.460938 C 237.492188 251.910156 237.210938 252.441406 237.066406 253.046875 C 236.796875 254.242188 236.855469 255.582031 237.539062 256.644531 C 238.210938 257.691406 239.128906 258.40625 240.328125 258.789062 C 242.003906 259.324219 243.675781 259.855469 245.351562 260.390625 C 248.019531 261.238281 250.683594 262.089844 253.351562 262.941406 C 253.957031 263.132812 254.5625 263.328125 255.171875 263.523438 C 255.792969 263.714844 256.410156 263.742188 257.03125 263.605469 C 257.652344 263.574219 258.234375 263.390625 258.765625 263.050781 C 259.3125 262.757812 259.75 262.355469 260.078125 261.847656 C 260.488281 261.398438 260.765625 260.867188 260.914062 260.261719 C 261.183594 259.066406 261.125 257.726562 260.441406 256.664062 C 259.765625 255.617188 258.851562 254.902344 257.652344 254.519531 " fill-opacity="1" fill-rule="nonzero"/><g fill="#ffffff" fill-opacity="1"><g transform="translate(127.392445, 105.48071)"><g><path d="M 11.1875 -20.53125 C 12.257812 -18.957031 13.566406 -17.273438 15.109375 -15.484375 C 16.648438 -13.691406 18.476562 -12.1875 20.59375 -10.96875 C 22.707031 -9.75 25.125 -9.140625 27.84375 -9.140625 C 30 -9.140625 32.148438 -9.691406 34.296875 -10.796875 C 36.441406 -11.910156 38.25 -13.5625 39.71875 -15.75 C 41.195312 -17.9375 41.9375 -20.609375 41.9375 -23.765625 C 41.9375 -26.984375 41.34375 -29.5625 40.15625 -31.5 C 38.976562 -33.4375 37.421875 -34.832031 35.484375 -35.6875 C 33.546875 -36.550781 31.429688 -36.984375 29.140625 -36.984375 C 26.910156 -36.984375 24.664062 -36.640625 22.40625 -35.953125 C 20.15625 -35.273438 18.0625 -34.546875 16.125 -33.765625 L 12.90625 -42.25 L 33.109375 -64.515625 L 6.34375 -64.515625 L 6.34375 -75.265625 L 49.453125 -75.265625 L 51.609375 -70.953125 L 30.53125 -47.625 C 34.6875 -47.625 38.46875 -46.601562 41.875 -44.5625 C 45.28125 -42.519531 48.003906 -39.742188 50.046875 -36.234375 C 52.085938 -32.722656 53.109375 -28.78125 53.109375 -24.40625 C 53.109375 -19.25 51.867188 -14.75 49.390625 -10.90625 C 46.921875 -7.070312 43.695312 -4.113281 39.71875 -2.03125 C 35.75 0.0390625 31.503906 1.078125 26.984375 1.078125 C 22.753906 1.078125 19.113281 0.378906 16.0625 -1.015625 C 13.019531 -2.421875 10.390625 -4.335938 8.171875 -6.765625 C 5.953125 -9.203125 3.945312 -11.894531 2.15625 -14.84375 Z M 11.1875 -20.53125 "/></g></g><g transform="translate(184.267578, 105.48071)"><g><path d="M 11.1875 -20.53125 C 12.257812 -18.957031 13.566406 -17.273438 15.109375 -15.484375 C 16.648438 -13.691406 18.476562 -12.1875 20.59375 -10.96875 C 22.707031 -9.75 25.125 -9.140625 27.84375 -9.140625 C 30 -9.140625 32.148438 -9.691406 34.296875 -10.796875 C 36.441406 -11.910156 38.25 -13.5625 39.71875 -15.75 C 41.195312 -17.9375 41.9375 -20.609375 41.9375 -23.765625 C 41.9375 -26.984375 41.34375 -29.5625 40.15625 -31.5 C 38.976562 -33.4375 37.421875 -34.832031 35.484375 -35.6875 C 33.546875 -36.550781 31.429688 -36.984375 29.140625 -36.984375 C 26.910156 -36.984375 24.664062 -36.640625 22.40625 -35.953125 C 20.15625 -35.273438 18.0625 -34.546875 16.125 -33.765625 L 12.90625 -42.25 L 33.109375 -64.515625 L 6.34375 -64.515625 L 6.34375 -75.265625 L 49.453125 -75.265625 L 51.609375 -70.953125 L 30.53125 -47.625 C 34.6875 -47.625 38.46875 -46.601562 41.875 -44.5625 C 45.28125 -42.519531 48.003906 -39.742188 50.046875 -36.234375 C 52.085938 -32.722656 53.109375 -28.78125 53.109375 -24.40625 C 53.109375 -19.25 51.867188 -14.75 49.390625 -10.90625 C 46.921875 -7.070312 43.695312 -4.113281 39.71875 -2.03125 C 35.75 0.0390625 31.503906 1.078125 26.984375 1.078125 C 22.753906 1.078125 19.113281 0.378906 16.0625 -1.015625 C 13.019531 -2.421875 10.390625 -4.335938 8.171875 -6.765625 C 5.953125 -9.203125 3.945312 -11.894531 2.15625 -14.84375 Z M 11.1875 -20.53125 "/></g></g></g></svg>