<svg xmlns="http://www.w3.org/2000/svg" xmlns:xlink="http://www.w3.org/1999/xlink" width="500" zoomAndPan="magnify" viewBox="0 0 375 374.999991" height="500" preserveAspectRatio="xMidYMid meet" version="1.0"><defs><g/><clipPath id="c92d71d671"><path d="M 6.199219 0 L 370.085938 0 L 370.085938 375 L 6.199219 375 Z M 6.199219 0 " clip-rule="nonzero"/></clipPath><clipPath id="09185b769a"><path d="M 20.449219 0 L 355.835938 0 C 359.613281 0 363.238281 1.5 365.910156 4.171875 C 368.585938 6.847656 370.085938 10.46875 370.085938 14.25 L 370.085938 361.515625 C 370.085938 365.292969 368.585938 368.917969 365.910156 371.589844 C 363.238281 374.261719 359.613281 375.765625 355.835938 375.765625 L 20.449219 375.765625 C 16.671875 375.765625 13.046875 374.261719 10.375 371.589844 C 7.699219 368.917969 6.199219 365.292969 6.199219 361.515625 L 6.199219 14.25 C 6.199219 10.46875 7.699219 6.847656 10.375 4.171875 C 13.046875 1.5 16.671875 0 20.449219 0 Z M 20.449219 0 " clip-rule="nonzero"/></clipPath></defs><g clip-path="url(#c92d71d671)"><g clip-path="url(#09185b769a)"><path fill="#ff914d" d="M 6.199219 0 L 370.085938 0 L 370.085938 375.257812 L 6.199219 375.257812 Z M 6.199219 0 " fill-opacity="1" fill-rule="nonzero"/></g></g><path fill="#1d1d1b" d="M 201.722656 373.078125 C 200.816406 373.078125 199.949219 372.570312 199.535156 371.699219 C 198.902344 370.386719 184.109375 339.421875 180.71875 328.777344 C 177.949219 320.085938 171.878906 275.390625 171.617188 273.492188 C 171.441406 272.164062 172.367188 270.945312 173.695312 270.765625 C 175.023438 270.578125 176.242188 271.511719 176.421875 272.839844 C 176.480469 273.300781 182.695312 319.011719 185.332031 327.304688 C 188.625 337.632812 203.75 369.289062 203.902344 369.609375 C 204.480469 370.816406 203.972656 372.261719 202.765625 372.839844 C 202.425781 373.003906 202.070312 373.078125 201.722656 373.078125 " fill-opacity="1" fill-rule="nonzero"/><path fill="#1d1d1b" d="M 124.820312 312.546875 C 124.242188 312.546875 123.660156 312.34375 123.195312 311.921875 C 122.203125 311.023438 122.128906 309.492188 123.023438 308.5 C 123.621094 307.839844 137.648438 292.304688 140.902344 288.960938 C 142.707031 287.078125 148.59375 270.9375 153.246094 256.417969 C 153.652344 255.140625 155.023438 254.441406 156.292969 254.847656 C 157.566406 255.257812 158.265625 256.625 157.859375 257.898438 C 155.554688 265.097656 147.765625 288.855469 144.371094 292.34375 C 141.179688 295.621094 126.761719 311.585938 126.617188 311.75 C 126.140625 312.28125 125.480469 312.546875 124.820312 312.546875 " fill-opacity="1" fill-rule="nonzero"/><path fill="#575756" d="M 118.351562 308.777344 C 120.78125 311.683594 131.621094 314.753906 134.140625 299.992188 C 134.140625 299.992188 115.734375 305.644531 118.351562 308.777344 " fill-opacity="1" fill-rule="nonzero"/><path fill="#1d1d1b" d="M 124.453125 312.382812 L 124.449219 312.382812 C 121.269531 312.382812 118.585938 310.90625 117.441406 309.539062 C 116.941406 308.941406 116.789062 308.210938 117.003906 307.480469 C 118.050781 303.945312 130.121094 299.984375 133.796875 298.855469 L 135.636719 298.289062 L 135.3125 300.191406 C 133.433594 311.191406 127.09375 312.382812 124.453125 312.382812 Z M 119.308594 308.070312 C 120.15625 309.023438 122.210938 310.007812 124.449219 310.007812 C 128.371094 310.007812 131.210938 307.089844 132.566406 301.742188 C 125.738281 303.996094 119.851562 306.785156 119.308594 308.070312 " fill-opacity="1" fill-rule="nonzero"/><path fill="#b9e2f6" d="M 173.683594 241.515625 C 173.683594 241.515625 115.160156 140.03125 156.835938 123.859375 C 185.191406 112.859375 188.972656 224.800781 173.683594 241.515625 " fill-opacity="1" fill-rule="nonzero"/><path fill="#95d4f3" d="M 169.492188 234.304688 C 169.492188 234.304688 137.03125 157.695312 157.414062 149.953125 C 177.800781 142.210938 180.453125 222.320312 169.492188 234.304688 " fill-opacity="1" fill-rule="nonzero"/><path fill="#1d1d1b" d="M 173.464844 243.511719 L 172.65625 242.109375 C 172.554688 241.929688 162.199219 223.898438 153.382812 202.121094 C 141.480469 172.707031 137.902344 150.816406 142.746094 137.050781 C 145.179688 130.136719 149.773438 125.328125 156.410156 122.753906 C 157.84375 122.199219 159.269531 121.914062 160.648438 121.914062 C 166.199219 121.914062 170.949219 126.316406 174.765625 134.996094 C 180.40625 147.816406 183.839844 170.507812 183.738281 194.222656 C 183.652344 212.714844 181.199219 235.058594 174.558594 242.316406 Z M 160.648438 124.289062 C 159.5625 124.289062 158.425781 124.515625 157.265625 124.96875 C 151.308594 127.277344 147.175781 131.609375 144.980469 137.839844 C 134.765625 166.859375 167.980469 228.8125 173.84375 239.378906 C 183.570312 224.800781 184.722656 163.523438 172.59375 135.953125 C 169.191406 128.210938 165.171875 124.289062 160.648438 124.289062 " fill-opacity="1" fill-rule="nonzero"/><path fill="#b9e2f6" d="M 171.832031 232.160156 C 171.832031 232.160156 196.3125 111.207031 239.394531 128.183594 C 268.710938 139.738281 195.203125 230.183594 171.832031 232.160156 " fill-opacity="1" fill-rule="nonzero"/><path fill="#95d4f3" d="M 173.527344 228.691406 C 173.527344 228.691406 192.203125 136.425781 225.066406 149.378906 C 247.429688 158.1875 191.355469 227.179688 173.527344 228.691406 " fill-opacity="1" fill-rule="nonzero"/><path fill="#1d1d1b" d="M 170.355469 233.480469 L 170.667969 231.925781 C 171.550781 227.574219 192.679688 125.367188 231.164062 125.367188 C 234.023438 125.367188 236.941406 125.941406 239.832031 127.082031 C 243.972656 128.710938 248.597656 132.820312 247.089844 143.109375 C 244.761719 159.023438 229.105469 182.210938 215.226562 198.605469 C 202.152344 214.046875 182.96875 232.40625 171.929688 233.34375 Z M 231.164062 127.738281 C 197.195312 127.738281 176.3125 217.199219 173.355469 230.707031 C 182.136719 228.582031 197.855469 215.445312 213.414062 197.070312 C 230.855469 176.472656 242.855469 155.664062 244.742188 142.765625 C 245.785156 135.640625 243.894531 131.234375 238.960938 129.289062 C 236.351562 128.257812 233.726562 127.738281 231.164062 127.738281 " fill-opacity="1" fill-rule="nonzero"/><path fill="#b9e2f6" d="M 174.945312 233.050781 C 174.945312 233.050781 203.617188 211.632812 233.382812 200.40625 C 309.023438 171.886719 300.640625 226.402344 261.800781 235.714844 C 241.667969 240.542969 211.742188 239.761719 174.945312 233.050781 " fill-opacity="1" fill-rule="nonzero"/><path fill="#95d4f3" d="M 174.945312 233.050781 C 174.945312 233.050781 194.945312 220.644531 224.378906 208.582031 C 276.847656 187.085938 290.890625 224.304688 252.054688 233.617188 C 231.917969 238.449219 211.742188 239.761719 174.945312 233.050781 " fill-opacity="1" fill-rule="nonzero"/><path fill="#1d1d1b" d="M 231.035156 239.992188 C 214.6875 239.992188 195.746094 238.050781 174.734375 234.214844 L 172.054688 233.730469 L 174.234375 232.101562 C 174.523438 231.882812 203.382812 210.449219 232.960938 199.296875 C 247.484375 193.820312 259.820312 191.042969 269.617188 191.042969 C 288.261719 191.042969 291.433594 200.882812 291.933594 205.105469 C 293.296875 216.660156 281.625 232.183594 262.074219 236.871094 C 253.433594 238.945312 242.988281 239.992188 231.035156 239.992188 Z M 177.90625 232.375 C 197.683594 235.855469 215.542969 237.621094 231.035156 237.621094 C 242.800781 237.621094 253.058594 236.59375 261.523438 234.5625 C 276.011719 231.085938 291.097656 218.25 289.582031 205.386719 C 288.679688 197.78125 281.40625 193.417969 269.617188 193.417969 C 260.105469 193.417969 248.054688 196.144531 233.800781 201.515625 C 209.273438 210.765625 185.222656 227.175781 177.90625 232.375 " fill-opacity="1" fill-rule="nonzero"/><path fill="#868686" d="M 135.160156 242.382812 C 135.160156 242.382812 236.453125 350.179688 275.667969 346.9375 C 322.542969 343.0625 221.332031 226.488281 148.546875 226.675781 C 81.574219 226.847656 135.160156 242.382812 135.160156 242.382812 " fill-opacity="1" fill-rule="nonzero"/><path fill="#6f6f6e" d="M 135.160156 242.382812 C 135.160156 242.382812 239.0625 357.046875 282.015625 345.261719 C 311.632812 337.132812 218.664062 230.683594 145.882812 230.871094 C 78.910156 231.042969 135.160156 242.382812 135.160156 242.382812 " fill-opacity="1" fill-rule="nonzero"/><path fill="#575756" d="M 135.160156 242.382812 C 135.160156 242.382812 234.816406 351.484375 280.59375 346.6875 C 298.894531 344.765625 195.335938 237.503906 148.828125 237.503906 C 81.851562 237.503906 135.160156 242.382812 135.160156 242.382812 " fill-opacity="1" fill-rule="nonzero"/><path fill="#1d1d1b" d="M 274.398438 348.15625 C 257.21875 348.152344 228.402344 330.460938 188.734375 295.566406 C 160.800781 270.996094 137.0625 246.113281 134.519531 243.433594 C 127.777344 241.460938 113.003906 236.546875 113.703125 231.558594 C 114.121094 228.601562 118.585938 225.566406 148.542969 225.488281 L 148.722656 225.488281 C 209.589844 225.488281 287.972656 305.222656 288.828125 335.464844 C 289.046875 343.132812 284.394531 347.628906 275.738281 348.121094 C 275.296875 348.144531 274.851562 348.15625 274.398438 348.15625 Z M 148.722656 227.863281 L 148.550781 227.863281 C 118.148438 227.941406 116.144531 231.230469 116.054688 231.886719 C 115.785156 233.796875 124.867188 238.164062 135.492188 241.246094 L 135.800781 241.335938 L 136.023438 241.570312 C 137.003906 242.613281 234.671875 345.777344 274.398438 345.785156 C 274.808594 345.785156 275.207031 345.773438 275.601562 345.75 C 283.085938 345.324219 286.640625 341.984375 286.457031 335.535156 C 286.046875 320.898438 266.699219 294.246094 239.421875 270.710938 C 207.855469 243.480469 174.796875 227.863281 148.722656 227.863281 " fill-opacity="1" fill-rule="nonzero"/><path fill="#1d1d1b" d="M 149.417969 328.015625 C 149.09375 328.015625 148.761719 327.949219 148.445312 327.808594 C 147.21875 327.269531 146.667969 325.839844 147.203125 324.613281 C 147.644531 323.609375 158.046875 299.9375 160.128906 295.746094 C 161.273438 293.402344 161.949219 276.230469 161.941406 260.988281 C 161.941406 259.648438 163.027344 258.5625 164.363281 258.5625 C 165.703125 258.5625 166.785156 259.644531 166.785156 260.984375 C 166.789062 268.546875 166.636719 293.550781 164.46875 297.90625 C 162.433594 301.992188 151.746094 326.320312 151.636719 326.566406 C 151.238281 327.472656 150.351562 328.015625 149.417969 328.015625 " fill-opacity="1" fill-rule="nonzero"/><path fill="#1d1d1b" d="M 226.863281 369.859375 C 226.089844 369.859375 225.328125 369.492188 224.859375 368.804688 C 224.050781 367.617188 204.894531 339.570312 199.5 329.851562 C 195.050781 321.839844 184.542969 287.617188 184.09375 286.167969 C 183.703125 284.886719 184.421875 283.53125 185.699219 283.140625 C 186.980469 282.742188 188.335938 283.464844 188.726562 284.746094 C 188.835938 285.097656 199.53125 319.925781 203.738281 327.5 C 209.023438 337.019531 228.660156 365.777344 228.859375 366.066406 C 229.617188 367.171875 229.332031 368.679688 228.226562 369.4375 C 227.808594 369.722656 227.332031 369.859375 226.863281 369.859375 " fill-opacity="1" fill-rule="nonzero"/><path fill="#6f6f6e" d="M 108.207031 210.765625 L 153.167969 210.765625 C 153.167969 210.765625 185.773438 259.730469 108.207031 269.378906 C 101.222656 270.25 63.824219 290.789062 43.75 290.789062 C 43.75 290.789062 118.09375 277.230469 101.222656 232.84375 C 90.773438 205.359375 108.207031 210.765625 108.207031 210.765625 " fill-opacity="1" fill-rule="nonzero"/><path fill="#575756" d="M 108.207031 210.765625 L 144.625 210.765625 C 144.625 210.765625 185.773438 259.730469 108.207031 269.378906 C 101.222656 270.25 63.824219 290.789062 43.75 290.789062 C 43.75 290.789062 108.207031 279.191406 103.117188 232.84375 C 99.90625 203.613281 108.207031 210.765625 108.207031 210.765625 " fill-opacity="1" fill-rule="nonzero"/><path fill="#1d1d1b" d="M 44.222656 294.351562 C 43.703125 294.351562 43.230469 294.003906 43.082031 293.480469 C 42.90625 292.863281 43.261719 292.21875 43.875 292.027344 C 44.078125 291.964844 64.328125 285.628906 85.652344 271.304688 C 97.941406 263.046875 102.925781 249.816406 100.050781 233.046875 C 98.09375 221.59375 98.511719 214.117188 101.296875 210.8125 C 102.371094 209.535156 103.804688 208.859375 105.445312 208.859375 C 106.808594 208.859375 107.960938 209.320312 108.496094 209.582031 L 153.167969 209.582031 C 153.566406 209.582031 153.9375 209.777344 154.15625 210.109375 C 154.652344 210.851562 166.203125 228.515625 158.59375 245.128906 C 152.417969 258.621094 135.511719 267.179688 108.351562 270.554688 C 105.402344 270.925781 96.144531 274.746094 85.425781 279.171875 C 72.042969 284.695312 55.378906 291.574219 44.511719 294.3125 C 44.414062 294.335938 44.316406 294.351562 44.222656 294.351562 Z M 105.445312 211.234375 C 104.5 211.234375 103.738281 211.597656 103.109375 212.34375 C 101.519531 214.230469 100.101562 219.28125 102.390625 232.644531 C 105.429688 250.410156 100.097656 264.460938 86.972656 273.277344 C 82.304688 276.414062 77.679688 279.175781 73.300781 281.570312 C 77.160156 280.015625 80.957031 278.445312 84.527344 276.972656 C 95.847656 272.304688 104.789062 268.609375 108.0625 268.203125 C 134.351562 264.929688 150.628906 256.832031 156.441406 244.136719 C 162.800781 230.242188 154.332031 214.960938 152.511719 211.953125 L 108.207031 211.953125 C 108 211.953125 107.792969 211.894531 107.617188 211.792969 C 107.609375 211.792969 106.605469 211.234375 105.445312 211.234375 " fill-opacity="1" fill-rule="nonzero"/><path fill="#1d1d1b" d="M 125.253906 267.339844 L 123.636719 265.535156 C 125.042969 264.265625 128.785156 260.410156 129.199219 257.863281 L 131.589844 258.246094 C 130.96875 262.097656 125.835938 266.8125 125.253906 267.339844 " fill-opacity="1" fill-rule="nonzero"/><path fill="#1d1d1b" d="M 125.644531 258.910156 C 131 258.054688 135.1875 258.910156 135.1875 258.910156 C 130.394531 254.96875 125.59375 258.914062 125.644531 258.910156 " fill-opacity="1" fill-rule="nonzero"/><path fill="#ffffff" d="M 116.714844 227.019531 C 115.398438 239.050781 107.386719 248.035156 98.828125 247.09375 C 90.269531 246.152344 84.402344 235.636719 85.726562 223.609375 C 87.046875 211.578125 95.054688 202.59375 103.617188 203.535156 C 112.171875 204.476562 118.039062 214.992188 116.714844 227.019531 " fill-opacity="1" fill-rule="nonzero"/><path fill="#1d1d1b" d="M 112.949219 226.675781 C 112.542969 230.355469 110.09375 233.105469 107.476562 232.820312 C 104.859375 232.527344 103.0625 229.3125 103.464844 225.632812 C 103.867188 221.953125 106.320312 219.203125 108.9375 219.488281 C 111.558594 219.777344 113.351562 222.996094 112.949219 226.675781 " fill-opacity="1" fill-rule="nonzero"/><path fill="#1d1d1b" d="M 100.0625 248.347656 C 99.609375 248.347656 99.148438 248.324219 98.699219 248.273438 C 89.503906 247.261719 83.15625 236.136719 84.546875 223.476562 C 85.875 211.394531 93.542969 202.277344 102.378906 202.277344 C 102.832031 202.277344 103.292969 202.304688 103.746094 202.355469 C 108.273438 202.851562 112.238281 205.761719 114.90625 210.539062 C 117.5 215.191406 118.5625 221.089844 117.898438 227.152344 C 116.566406 239.234375 108.902344 248.347656 100.0625 248.347656 Z M 102.378906 204.652344 C 94.878906 204.652344 88.078125 213.035156 86.90625 223.738281 C 85.65625 235.09375 91.066406 245.042969 98.957031 245.914062 C 99.324219 245.953125 99.695312 245.972656 100.0625 245.972656 C 107.5625 245.972656 114.363281 237.59375 115.539062 226.890625 C 116.152344 221.316406 115.191406 215.921875 112.835938 211.699219 C 110.554688 207.609375 107.230469 205.128906 103.484375 204.714844 C 103.121094 204.671875 102.75 204.652344 102.378906 204.652344 " fill-opacity="1" fill-rule="nonzero"/><path fill="#ffffff" d="M 153.710938 225.535156 C 151.285156 241.5625 140.082031 253.148438 128.683594 251.425781 C 117.285156 249.695312 110.003906 235.3125 112.421875 219.285156 C 114.847656 203.265625 126.050781 191.675781 137.449219 193.398438 C 148.851562 195.128906 156.128906 209.515625 153.710938 225.535156 " fill-opacity="1" fill-rule="nonzero"/><path fill="#1d1d1b" d="M 148.683594 224.871094 C 147.941406 229.773438 144.515625 233.320312 141.027344 232.792969 C 137.539062 232.261719 135.3125 227.863281 136.050781 222.957031 C 136.792969 218.058594 140.222656 214.511719 143.710938 215.039062 C 147.199219 215.566406 149.425781 219.96875 148.683594 224.871094 " fill-opacity="1" fill-rule="nonzero"/><path fill="#1d1d1b" d="M 130.945312 252.78125 C 130.132812 252.78125 129.308594 252.71875 128.503906 252.597656 C 122.601562 251.703125 117.5625 247.671875 114.3125 241.253906 C 111.128906 234.964844 110.046875 227.101562 111.253906 219.109375 C 113.582031 203.679688 123.875 192.046875 135.1875 192.046875 C 136.003906 192.046875 136.824219 192.105469 137.628906 192.226562 C 149.65625 194.046875 157.398438 209.066406 154.882812 225.714844 C 152.550781 241.144531 142.257812 252.78125 130.945312 252.78125 Z M 135.1875 194.417969 C 125.039062 194.417969 115.757812 205.183594 113.597656 219.464844 C 112.460938 226.972656 113.46875 234.328125 116.429688 240.179688 C 119.320312 245.898438 123.738281 249.476562 128.863281 250.25 C 129.550781 250.355469 130.25 250.40625 130.945312 250.40625 C 141.09375 250.40625 150.378906 239.636719 152.535156 225.359375 C 154.855469 210.007812 148.007812 196.199219 137.273438 194.574219 C 136.585938 194.46875 135.886719 194.417969 135.1875 194.417969 " fill-opacity="1" fill-rule="nonzero"/><path fill="#575756" d="M 138.007812 335.894531 C 141.175781 337.980469 152.441406 337.792969 150.609375 322.933594 C 150.609375 322.933594 134.601562 333.652344 138.007812 335.894531 " fill-opacity="1" fill-rule="nonzero"/><path fill="#1d1d1b" d="M 141.855469 338.03125 C 140.125 338.03125 138.441406 337.601562 137.359375 336.886719 C 136.707031 336.460938 136.351562 335.800781 136.347656 335.039062 C 136.335938 331.355469 146.753906 324.085938 149.949219 321.945312 L 151.550781 320.875 L 151.785156 322.785156 C 152.441406 328.105469 151.566406 332.167969 149.183594 334.863281 C 146.75 337.621094 143.546875 338.03125 141.855469 338.03125 Z M 138.722656 334.941406 C 139.285156 335.285156 140.402344 335.65625 141.855469 335.65625 C 143.148438 335.65625 145.589844 335.347656 147.40625 333.289062 C 149.007812 331.476562 149.753906 328.65625 149.601562 325.0625 C 143.710938 329.191406 138.875 333.554688 138.722656 334.941406 " fill-opacity="1" fill-rule="nonzero"/><path fill="#575756" d="M 195.890625 383.019531 C 199.679688 383.15625 209.210938 377.148438 199.9375 365.394531 C 199.9375 365.394531 191.820312 382.875 195.890625 383.019531 " fill-opacity="1" fill-rule="nonzero"/><path fill="#1d1d1b" d="M 196.019531 384.207031 L 195.851562 384.207031 C 195.074219 384.179688 194.425781 383.804688 194.027344 383.152344 C 192.105469 380.011719 197.242188 368.382812 198.863281 364.894531 L 199.671875 363.144531 L 200.867188 364.65625 C 206.023438 371.191406 205.496094 375.890625 204.144531 378.683594 C 202.300781 382.496094 198.285156 384.207031 196.019531 384.207031 Z M 196.007812 381.835938 L 196.019531 381.835938 C 197.683594 381.835938 200.6875 380.378906 202.007812 377.648438 C 203.335938 374.90625 202.703125 371.503906 200.179688 367.738281 C 197.285156 374.328125 195.417969 380.574219 196.007812 381.835938 " fill-opacity="1" fill-rule="nonzero"/><path fill="#575756" d="M 222.019531 383.019531 C 225.804688 383.15625 235.339844 377.148438 226.0625 365.394531 C 226.0625 365.394531 217.945312 382.875 222.019531 383.019531 " fill-opacity="1" fill-rule="nonzero"/><path fill="#1d1d1b" d="M 222.148438 384.207031 L 221.976562 384.207031 C 221.203125 384.179688 220.554688 383.804688 220.15625 383.152344 C 218.230469 380.011719 223.367188 368.382812 224.988281 364.894531 L 225.796875 363.144531 L 226.996094 364.65625 C 232.148438 371.191406 231.621094 375.890625 230.269531 378.683594 C 228.425781 382.496094 224.410156 384.207031 222.148438 384.207031 Z M 222.136719 381.835938 L 222.148438 381.835938 C 223.804688 381.835938 226.8125 380.378906 228.136719 377.648438 C 229.464844 374.90625 228.828125 371.503906 226.308594 367.738281 C 223.410156 374.328125 221.542969 380.574219 222.136719 381.835938 " fill-opacity="1" fill-rule="nonzero"/><path fill="#1d1d1b" d="M 203.175781 244.164062 C 202.460938 243.761719 201.746094 243.367188 201.03125 242.972656 C 200.390625 246.324219 199.160156 250.878906 196.808594 255.667969 C 191.492188 266.496094 182.878906 274.015625 171.175781 278.105469 C 170.425781 278.367188 172.351562 280.214844 173.113281 279.925781 C 194.449219 271.859375 201.109375 253.925781 203.175781 244.164062 " fill-opacity="1" fill-rule="nonzero"/><path fill="#1d1d1b" d="M 224.992188 258.078125 C 224.246094 257.550781 223.496094 257.023438 222.75 256.503906 C 222.585938 259.300781 221.851562 266.078125 218.53125 273.503906 C 213.4375 284.894531 204.691406 292.875 192.515625 297.296875 C 191.351562 297.722656 193.394531 299.523438 194.554688 299.066406 C 219.667969 289.203125 224.183594 266.261719 224.992188 258.078125 " fill-opacity="1" fill-rule="nonzero"/><path fill="#1d1d1b" d="M 245.917969 274.402344 C 245.367188 273.9375 244.820312 273.472656 244.265625 273.007812 L 243.597656 273.019531 C 243.601562 273.105469 243.667969 281.691406 239.339844 291.371094 C 234.21875 302.8125 225.421875 310.808594 213.167969 315.226562 C 213.167969 315.226562 214.503906 317.289062 216.027344 316.667969 C 242.359375 305.925781 245.539062 280.65625 245.917969 274.402344 " fill-opacity="1" fill-rule="nonzero"/><path fill="#1d1d1b" d="M 263.683594 292.925781 C 263.34375 296.285156 262.378906 302.019531 259.605469 308.210938 C 254.867188 318.808594 246.957031 326.445312 236.070312 331.023438 C 234.710938 331.59375 237.125 333.179688 238.339844 332.621094 C 258.96875 323.1875 264.347656 304.5625 265.742188 295.308594 C 265.070312 294.519531 264.382812 293.722656 263.683594 292.925781 " fill-opacity="1" fill-rule="nonzero"/><g fill="#ffffff" fill-opacity="1"><g transform="translate(122.366967, 105.695756)"><g><path d="M 11.203125 -20.578125 C 12.285156 -18.992188 13.597656 -17.304688 15.140625 -15.515625 C 16.679688 -13.722656 18.507812 -12.210938 20.625 -10.984375 C 22.75 -9.765625 25.175781 -9.15625 27.90625 -9.15625 C 30.0625 -9.15625 32.210938 -9.710938 34.359375 -10.828125 C 36.515625 -11.941406 38.328125 -13.59375 39.796875 -15.78125 C 41.273438 -17.96875 42.015625 -20.644531 42.015625 -23.8125 C 42.015625 -27.039062 41.421875 -29.625 40.234375 -31.5625 C 39.054688 -33.5 37.492188 -34.898438 35.546875 -35.765625 C 33.609375 -36.628906 31.492188 -37.0625 29.203125 -37.0625 C 26.972656 -37.0625 24.722656 -36.71875 22.453125 -36.03125 C 20.191406 -35.351562 18.09375 -34.617188 16.15625 -33.828125 L 12.921875 -42.34375 L 33.1875 -64.640625 L 6.359375 -64.640625 L 6.359375 -75.421875 L 49.5625 -75.421875 L 51.71875 -71.109375 L 30.59375 -47.71875 C 34.757812 -47.71875 38.546875 -46.691406 41.953125 -44.640625 C 45.367188 -42.597656 48.097656 -39.816406 50.140625 -36.296875 C 52.191406 -32.785156 53.21875 -28.835938 53.21875 -24.453125 C 53.21875 -19.285156 51.976562 -14.78125 49.5 -10.9375 C 47.019531 -7.09375 43.785156 -4.128906 39.796875 -2.046875 C 35.816406 0.0351562 31.566406 1.078125 27.046875 1.078125 C 22.804688 1.078125 19.160156 0.378906 16.109375 -1.015625 C 13.054688 -2.421875 10.414062 -4.34375 8.1875 -6.78125 C 5.957031 -9.226562 3.945312 -11.925781 2.15625 -14.875 Z M 11.203125 -20.578125 "/></g></g><g transform="translate(179.358054, 105.695756)"><g><path d="M 37.921875 0 L 37.921875 -20.46875 L 8.1875 -20.46875 L 3.234375 -30.171875 L 40.1875 -75.421875 L 49.125 -75.421875 L 49.125 -31.140625 L 62.265625 -31.140625 L 62.265625 -20.46875 L 49.125 -20.46875 L 49.125 0 Z M 16.921875 -31.140625 L 37.921875 -31.140625 L 37.921875 -56.78125 Z M 16.921875 -31.140625 "/></g></g></g></svg>