<svg xmlns="http://www.w3.org/2000/svg" xmlns:xlink="http://www.w3.org/1999/xlink" width="500" zoomAndPan="magnify" viewBox="0 0 375 374.999991" height="500" preserveAspectRatio="xMidYMid meet" version="1.0"><defs><g/><clipPath id="6d44fbbd38"><path d="M 6.78125 0 L 369.5 0 L 369.5 375 L 6.78125 375 Z M 6.78125 0 " clip-rule="nonzero"/></clipPath><clipPath id="e1fa084e47"><path d="M 21.03125 0 L 355.25 0 C 363.121094 0 369.5 6.378906 369.5 14.25 L 369.5 360.308594 C 369.5 368.179688 363.121094 374.558594 355.25 374.558594 L 21.03125 374.558594 C 13.160156 374.558594 6.78125 368.179688 6.78125 360.308594 L 6.78125 14.25 C 6.78125 6.378906 13.160156 0 21.03125 0 Z M 21.03125 0 " clip-rule="nonzero"/></clipPath><clipPath id="bc7722d182"><path d="M 78 115.832031 L 180 115.832031 L 180 250 L 78 250 Z M 78 115.832031 " clip-rule="nonzero"/></clipPath><clipPath id="6223244dcb"><path d="M 44.054688 274 L 146 274 L 146 375 L 44.054688 375 Z M 44.054688 274 " clip-rule="nonzero"/></clipPath><clipPath id="6493b467e0"><path d="M 247 185 L 273.554688 185 L 273.554688 222 L 247 222 Z M 247 185 " clip-rule="nonzero"/></clipPath></defs><g clip-path="url(#6d44fbbd38)"><g clip-path="url(#e1fa084e47)"><path fill="#83b741" d="M 6.78125 0 L 369.5 0 L 369.5 374.054688 L 6.78125 374.054688 Z M 6.78125 0 " fill-opacity="1" fill-rule="nonzero"/></g></g><path fill="#272b2b" d="M 105.75 254.453125 C 103.703125 257.003906 104.550781 261.09375 107.640625 263.574219 C 110.730469 266.054688 114.90625 265.996094 116.953125 263.445312 C 119 260.894531 118.15625 256.804688 115.066406 254.324219 C 113.550781 253.105469 111.769531 252.5 110.109375 252.5 C 108.386719 252.5 106.792969 253.152344 105.75 254.453125 Z M 105.75 254.453125 " fill-opacity="1" fill-rule="nonzero"/><path fill="#272b2b" d="M 124.140625 207.703125 L 124.140625 232.410156 C 125.160156 232.359375 126.058594 232.339844 126.765625 232.339844 C 126.789062 232.339844 126.8125 232.339844 126.832031 232.339844 C 128.902344 232.339844 131.171875 232.46875 133.394531 232.753906 L 133.394531 207.703125 C 133.394531 205.152344 131.320312 203.074219 128.769531 203.074219 C 126.21875 203.074219 124.140625 205.152344 124.140625 207.703125 Z M 124.140625 207.703125 " fill-opacity="1" fill-rule="nonzero"/><path fill="#272b2b" d="M 79.535156 221.941406 C 77.453125 215.085938 75.808594 206.664062 74.761719 197.300781 C 69.941406 199.804688 67.921875 206.683594 70.277344 213.132812 C 71.984375 217.8125 75.632812 221.167969 79.535156 221.941406 Z M 79.535156 221.941406 " fill-opacity="1" fill-rule="nonzero"/><g clip-path="url(#bc7722d182)"><path fill="#272b2b" d="M 88.109375 231.574219 C 91.097656 236.550781 97.367188 243.660156 106.140625 249.046875 C 106.433594 248.925781 106.734375 248.820312 107.039062 248.726562 C 106.652344 245.914062 106.695312 241.066406 110.285156 236.914062 C 112.328125 234.546875 116.230469 233.390625 119.894531 232.835938 L 119.894531 207.703125 C 119.894531 202.808594 123.875 198.828125 128.765625 198.828125 C 133.660156 198.828125 137.640625 202.808594 137.640625 207.703125 L 137.640625 233.535156 C 139.996094 234.125 142.074219 234.953125 143.472656 236.085938 C 146.035156 238.152344 149.328125 243.019531 152.3125 248.480469 C 160.605469 243.167969 166.542969 236.378906 169.425781 231.574219 C 173.726562 224.40625 177.238281 210.445312 178.824219 194.222656 C 180.570312 173.863281 179.476562 146.105469 164.332031 129.605469 C 155.945312 120.46875 143.980469 115.832031 128.769531 115.832031 C 113.554688 115.832031 101.589844 120.46875 93.203125 129.605469 C 78.058594 146.101562 76.964844 173.863281 78.714844 194.246094 C 80.296875 210.441406 83.808594 224.40625 88.109375 231.574219 Z M 88.109375 231.574219 " fill-opacity="1" fill-rule="nonzero"/></g><path fill="#272b2b" d="M 187.257812 213.132812 C 189.613281 206.683594 187.59375 199.804688 182.773438 197.300781 C 181.726562 206.664062 180.078125 215.089844 178 221.9375 C 181.898438 221.164062 185.550781 217.808594 187.257812 213.132812 Z M 187.257812 213.132812 " fill-opacity="1" fill-rule="nonzero"/><path fill="#272b2b" d="M 159.882812 281.492188 C 159.453125 287.003906 159.027344 292.691406 159.894531 297.601562 C 161.253906 305.273438 180.152344 350.820312 190.441406 374.992188 L 213.433594 374.992188 C 205.75 320.289062 180.757812 294.03125 159.882812 281.492188 Z M 159.882812 281.492188 " fill-opacity="1" fill-rule="nonzero"/><g clip-path="url(#6223244dcb)"><path fill="#272b2b" d="M 126.289062 300.488281 C 121.777344 298.328125 115.746094 294.484375 112.632812 288.414062 C 110.332031 283.933594 110.554688 278.933594 111.546875 274.703125 C 91.824219 282.296875 53.835938 305.75 44.105469 374.992188 L 145.164062 374.992188 L 130.671875 306.015625 C 130.164062 303.59375 128.566406 301.578125 126.289062 300.488281 Z M 126.289062 300.488281 " fill-opacity="1" fill-rule="nonzero"/></g><path fill="#272b2b" d="M 155.667969 280.921875 C 156.0625 275.851562 156.4375 271.0625 155.722656 267.613281 C 154.195312 260.230469 145.613281 243.273438 140.804688 239.386719 C 136.480469 235.898438 117.199219 235.40625 113.496094 239.6875 C 110.871094 242.726562 110.960938 246.375 111.265625 248.335938 C 113.074219 248.519531 114.894531 249.128906 116.558594 250.1875 C 118.96875 248.996094 121.5625 248.15625 124.28125 247.695312 C 127.636719 247.125 131.273438 247.109375 135.089844 247.648438 C 136.253906 247.8125 137.0625 248.886719 136.898438 250.046875 C 136.734375 251.210938 135.660156 252.019531 134.496094 251.855469 C 131.113281 251.378906 127.914062 251.386719 124.992188 251.882812 C 123.238281 252.183594 121.550781 252.664062 119.945312 253.316406 C 121.574219 255.496094 122.386719 258.070312 122.296875 260.546875 C 124.160156 260.015625 126.03125 259.605469 127.894531 259.320312 C 131.253906 258.804688 134.683594 258.6875 138.082031 258.964844 C 139.25 259.058594 140.121094 260.085938 140.023438 261.253906 C 139.929688 262.425781 138.898438 263.300781 137.734375 263.199219 C 134.664062 262.949219 131.570312 263.054688 128.539062 263.519531 C 125.925781 263.917969 123.285156 264.59375 120.679688 265.527344 C 120.546875 265.722656 120.417969 265.917969 120.265625 266.105469 C 120.078125 266.339844 119.875 266.550781 119.671875 266.761719 L 122.875 278.109375 C 123.4375 280.105469 125.34375 281.390625 127.410156 281.167969 C 129.589844 280.929688 131.246094 279.023438 131.183594 276.832031 L 131.050781 272.371094 C 131.015625 271.199219 131.9375 270.222656 133.109375 270.1875 L 141.179688 269.941406 C 142.355469 269.925781 143.332031 270.828125 143.367188 272 C 143.402344 273.175781 142.480469 274.152344 141.308594 274.1875 L 135.359375 274.367188 L 135.425781 276.664062 C 135.679688 281.585938 139.15625 285.335938 144.503906 286.445312 C 145.652344 286.683594 146.390625 287.808594 146.152344 288.957031 C 145.945312 289.960938 145.058594 290.648438 144.074219 290.648438 C 143.929688 290.648438 143.785156 290.636719 143.640625 290.605469 C 138.761719 289.59375 134.957031 286.800781 132.886719 282.988281 C 131.566406 284.292969 129.828125 285.175781 127.871094 285.390625 C 127.554688 285.425781 127.242188 285.441406 126.933594 285.441406 C 123.167969 285.441406 119.828125 282.960938 118.785156 279.261719 L 116.769531 272.128906 C 115.285156 276.128906 114.035156 281.835938 116.410156 286.472656 C 118.984375 291.488281 124.199219 294.78125 128.121094 296.65625 C 131.601562 298.320312 134.046875 301.414062 134.832031 305.144531 L 149.503906 374.992188 L 185.828125 374.992188 C 180.105469 361.503906 157.328125 307.480469 155.710938 298.339844 C 154.734375 292.828125 155.207031 286.777344 155.667969 280.921875 Z M 155.667969 280.921875 " fill-opacity="1" fill-rule="nonzero"/><path fill="#272b2b" d="M 218.570312 227.355469 C 215.621094 228.257812 212.492188 226.597656 211.585938 223.652344 C 211.242188 222.53125 210.054688 221.902344 208.933594 222.246094 C 207.8125 222.589844 207.179688 223.777344 207.527344 224.898438 C 208.824219 229.125 212.726562 231.851562 216.933594 231.851562 C 217.886719 231.851562 218.859375 231.710938 219.816406 231.414062 C 222.328125 230.644531 224.390625 228.941406 225.621094 226.621094 C 226.851562 224.296875 227.101562 221.636719 226.332031 219.125 C 225.5625 216.613281 223.859375 214.554688 221.535156 213.324219 C 219.214844 212.09375 216.554688 211.839844 214.042969 212.609375 C 211.097656 213.515625 207.964844 211.855469 207.0625 208.910156 C 206.621094 207.480469 206.765625 205.972656 207.464844 204.652344 C 208.164062 203.332031 209.335938 202.367188 210.761719 201.929688 C 213.707031 201.023438 216.839844 202.683594 217.742188 205.628906 C 218.085938 206.75 219.277344 207.378906 220.398438 207.035156 C 221.519531 206.691406 222.148438 205.503906 221.804688 204.382812 C 221.03125 201.871094 219.328125 199.808594 217.007812 198.578125 C 214.6875 197.347656 212.023438 197.097656 209.515625 197.867188 C 207.003906 198.636719 204.941406 200.339844 203.710938 202.660156 C 202.480469 204.984375 202.226562 207.644531 203 210.15625 C 204.589844 215.339844 210.097656 218.261719 215.289062 216.671875 C 216.714844 216.234375 218.226562 216.375 219.546875 217.074219 C 220.867188 217.773438 221.832031 218.945312 222.269531 220.371094 C 222.707031 221.796875 222.566406 223.3125 221.867188 224.628906 C 221.164062 225.949219 219.996094 226.917969 218.570312 227.355469 Z M 218.570312 227.355469 " fill-opacity="1" fill-rule="nonzero"/><path fill="#272b2b" d="M 239.003906 210.574219 C 241.078125 209.9375 243.285156 211.105469 243.921875 213.179688 L 246.921875 222.957031 C 247.203125 223.871094 248.046875 224.460938 248.953125 224.460938 C 249.160156 224.460938 249.371094 224.429688 249.578125 224.367188 C 250.699219 224.019531 251.328125 222.832031 250.984375 221.710938 L 247.980469 211.929688 C 246.65625 207.617188 242.070312 205.183594 237.757812 206.511719 C 236.421875 206.921875 235.238281 207.652344 234.292969 208.628906 L 229.757812 193.871094 C 229.414062 192.75 228.222656 192.121094 227.105469 192.464844 C 225.984375 192.808594 225.351562 193.996094 225.699219 195.117188 L 235.339844 226.515625 C 235.621094 227.429688 236.460938 228.015625 237.371094 228.015625 C 237.578125 228.015625 237.785156 227.988281 237.992188 227.921875 C 239.117188 227.578125 239.746094 226.390625 239.402344 225.269531 L 236.398438 215.484375 C 236.089844 214.480469 236.191406 213.417969 236.683594 212.492188 C 237.175781 211.5625 238 210.878906 239.003906 210.574219 Z M 239.003906 210.574219 " fill-opacity="1" fill-rule="nonzero"/><g clip-path="url(#6493b467e0)"><path fill="#272b2b" d="M 273 214.949219 L 269.996094 205.171875 C 268.671875 200.855469 264.085938 198.425781 259.773438 199.75 C 258.4375 200.160156 257.253906 200.890625 256.308594 201.871094 L 251.773438 187.109375 C 251.429688 185.988281 250.242188 185.363281 249.121094 185.703125 C 248 186.046875 247.367188 187.238281 247.714844 188.359375 L 257.355469 219.753906 C 257.636719 220.667969 258.476562 221.257812 259.386719 221.257812 C 259.59375 221.257812 259.800781 221.226562 260.011719 221.164062 C 261.132812 220.816406 261.761719 219.628906 261.417969 218.507812 L 258.414062 208.722656 C 258.105469 207.71875 258.207031 206.65625 258.699219 205.730469 C 259.191406 204.800781 260.015625 204.121094 261.019531 203.8125 C 263.09375 203.175781 265.300781 204.34375 265.9375 206.417969 L 268.9375 216.199219 C 269.21875 217.113281 270.058594 217.699219 270.96875 217.699219 C 271.175781 217.699219 271.386719 217.667969 271.59375 217.605469 C 272.714844 217.257812 273.34375 216.070312 273 214.949219 Z M 273 214.949219 " fill-opacity="1" fill-rule="nonzero"/></g><path fill="#272b2b" d="M 195.691406 193.984375 C 196.125 193.984375 196.566406 193.851562 196.945312 193.578125 L 253.84375 151.929688 C 254.789062 151.238281 254.996094 149.90625 254.300781 148.960938 C 253.609375 148.015625 252.277344 147.808594 251.332031 148.5 L 194.433594 190.148438 C 193.488281 190.839844 193.28125 192.171875 193.976562 193.117188 C 194.390625 193.683594 195.039062 193.984375 195.691406 193.984375 Z M 195.691406 193.984375 " fill-opacity="1" fill-rule="nonzero"/><path fill="#272b2b" d="M 267.101562 249.390625 L 194.085938 234.074219 C 192.941406 233.839844 191.8125 234.570312 191.570312 235.71875 C 191.332031 236.863281 192.066406 237.992188 193.214844 238.230469 L 266.230469 253.546875 C 266.378906 253.578125 266.523438 253.59375 266.667969 253.59375 C 267.652344 253.59375 268.535156 252.90625 268.746094 251.90625 C 268.988281 250.757812 268.25 249.628906 267.101562 249.390625 Z M 267.101562 249.390625 " fill-opacity="1" fill-rule="nonzero"/><g fill="#ffffff" fill-opacity="1"><g transform="translate(125.377853, 105.356777)"><g><path d="M 11.171875 -20.515625 C 12.242188 -18.941406 13.546875 -17.257812 15.078125 -15.46875 C 16.617188 -13.675781 18.445312 -12.171875 20.5625 -10.953125 C 22.675781 -9.734375 25.09375 -9.125 27.8125 -9.125 C 29.957031 -9.125 32.101562 -9.675781 34.25 -10.78125 C 36.40625 -11.894531 38.210938 -13.546875 39.671875 -15.734375 C 41.140625 -17.921875 41.875 -20.585938 41.875 -23.734375 C 41.875 -26.953125 41.285156 -29.523438 40.109375 -31.453125 C 38.929688 -33.390625 37.375 -34.785156 35.4375 -35.640625 C 33.507812 -36.503906 31.398438 -36.9375 29.109375 -36.9375 C 26.890625 -36.9375 24.648438 -36.597656 22.390625 -35.921875 C 20.140625 -35.242188 18.046875 -34.507812 16.109375 -33.71875 L 12.890625 -42.203125 L 33.078125 -64.4375 L 6.34375 -64.4375 L 6.34375 -75.171875 L 49.40625 -75.171875 L 51.546875 -70.875 L 30.5 -47.578125 C 34.65625 -47.578125 38.429688 -46.554688 41.828125 -44.515625 C 45.234375 -42.472656 47.953125 -39.695312 49.984375 -36.1875 C 52.023438 -32.675781 53.046875 -28.738281 53.046875 -24.375 C 53.046875 -19.21875 51.8125 -14.722656 49.34375 -10.890625 C 46.875 -7.066406 43.648438 -4.113281 39.671875 -2.03125 C 35.703125 0.0390625 31.460938 1.078125 26.953125 1.078125 C 22.734375 1.078125 19.097656 0.378906 16.046875 -1.015625 C 13.003906 -2.410156 10.375 -4.328125 8.15625 -6.765625 C 5.9375 -9.203125 3.929688 -11.882812 2.140625 -14.8125 Z M 11.171875 -20.515625 "/></g></g><g transform="translate(182.186162, 105.356777)"><g><path d="M 27.59375 0.75 C 22.15625 0.75 17.484375 -0.5 13.578125 -3 C 9.679688 -5.507812 6.550781 -8.625 4.1875 -12.34375 L 10.625 -19.546875 C 13.207031 -16.679688 15.769531 -14.351562 18.3125 -12.5625 C 20.851562 -10.769531 23.945312 -9.875 27.59375 -9.875 C 30.601562 -9.875 33.289062 -10.535156 35.65625 -11.859375 C 38.019531 -13.191406 39.878906 -14.96875 41.234375 -17.1875 C 42.597656 -19.40625 43.28125 -21.835938 43.28125 -24.484375 C 43.28125 -27.421875 42.617188 -30.015625 41.296875 -32.265625 C 39.972656 -34.523438 38.179688 -36.296875 35.921875 -37.578125 C 33.671875 -38.867188 31.179688 -39.515625 28.453125 -39.515625 C 24.804688 -39.515625 21.75 -38.941406 19.28125 -37.796875 C 16.8125 -36.648438 14.859375 -35.722656 13.421875 -35.015625 L 7.296875 -43.28125 L 11.703125 -75.171875 L 52.296875 -75.171875 L 52.296875 -64.4375 L 20.9375 -64.4375 L 18.46875 -47.78125 C 20.113281 -48.5 22.007812 -49.09375 24.15625 -49.5625 C 26.3125 -50.03125 28.425781 -50.265625 30.5 -50.265625 C 34.863281 -50.265625 38.851562 -49.257812 42.46875 -47.25 C 46.082031 -45.25 49 -42.40625 51.21875 -38.71875 C 53.4375 -35.03125 54.546875 -30.644531 54.546875 -25.5625 C 54.546875 -20.550781 53.347656 -16.054688 50.953125 -12.078125 C 48.554688 -8.109375 45.332031 -4.976562 41.28125 -2.6875 C 37.238281 -0.394531 32.675781 0.75 27.59375 0.75 Z M 27.59375 0.75 "/></g></g></g></svg>