<svg xmlns="http://www.w3.org/2000/svg" xmlns:xlink="http://www.w3.org/1999/xlink" width="500" zoomAndPan="magnify" viewBox="0 0 375 374.999991" height="500" preserveAspectRatio="xMidYMid meet" version="1.0"><defs><g/><clipPath id="b351c420d5"><path d="M 5.835938 0 L 368.46875 0 L 368.46875 374 L 5.835938 374 Z M 5.835938 0 " clip-rule="nonzero"/></clipPath><clipPath id="6f68f32e93"><path d="M 20.085938 0 L 354.21875 0 C 362.089844 0 368.46875 6.378906 368.46875 14.25 L 368.46875 360.21875 C 368.46875 368.089844 362.089844 374.46875 354.21875 374.46875 L 20.085938 374.46875 C 12.21875 374.46875 5.835938 368.089844 5.835938 360.21875 L 5.835938 14.25 C 5.835938 6.378906 12.21875 0 20.085938 0 Z M 20.085938 0 " clip-rule="nonzero"/></clipPath><clipPath id="27f193cd0c"><path d="M 243 135 L 294 135 L 294 201 L 243 201 Z M 243 135 " clip-rule="nonzero"/></clipPath><clipPath id="950722d184"><path d="M 140.550781 42.992188 L 370.066406 171.917969 L 215.796875 446.554688 L -13.722656 317.628906 Z M 140.550781 42.992188 " clip-rule="nonzero"/></clipPath><clipPath id="825f6890fd"><path d="M 140.550781 42.992188 L 370.066406 171.917969 L 215.796875 446.554688 L -13.722656 317.628906 Z M 140.550781 42.992188 " clip-rule="nonzero"/></clipPath><clipPath id="83d4fd38d8"><path d="M 140.550781 42.992188 L 370.066406 171.917969 L 215.796875 446.554688 L -13.722656 317.628906 Z M 140.550781 42.992188 " clip-rule="nonzero"/></clipPath><clipPath id="1145e71293"><path d="M 29 146 L 294 146 L 294 352 L 29 352 Z M 29 146 " clip-rule="nonzero"/></clipPath><clipPath id="a5496ad882"><path d="M 140.550781 42.992188 L 370.066406 171.917969 L 215.796875 446.554688 L -13.722656 317.628906 Z M 140.550781 42.992188 " clip-rule="nonzero"/></clipPath><clipPath id="37fb6147cb"><path d="M 140.550781 42.992188 L 370.066406 171.917969 L 215.796875 446.554688 L -13.722656 317.628906 Z M 140.550781 42.992188 " clip-rule="nonzero"/></clipPath><clipPath id="a393334fc0"><path d="M 140.550781 42.992188 L 370.066406 171.917969 L 215.796875 446.554688 L -13.722656 317.628906 Z M 140.550781 42.992188 " clip-rule="nonzero"/></clipPath><clipPath id="294d2450c2"><path d="M 30 173 L 294 173 L 294 352 L 30 352 Z M 30 173 " clip-rule="nonzero"/></clipPath><clipPath id="ea75cc9553"><path d="M 140.550781 42.992188 L 370.066406 171.917969 L 215.796875 446.554688 L -13.722656 317.628906 Z M 140.550781 42.992188 " clip-rule="nonzero"/></clipPath><clipPath id="c739e34b26"><path d="M 140.550781 42.992188 L 370.066406 171.917969 L 215.796875 446.554688 L -13.722656 317.628906 Z M 140.550781 42.992188 " clip-rule="nonzero"/></clipPath><clipPath id="a2a400085c"><path d="M 140.550781 42.992188 L 370.066406 171.917969 L 215.796875 446.554688 L -13.722656 317.628906 Z M 140.550781 42.992188 " clip-rule="nonzero"/></clipPath><clipPath id="e56d8ca085"><path d="M 276 156 L 336 156 L 336 252 L 276 252 Z M 276 156 " clip-rule="nonzero"/></clipPath><clipPath id="68dd230d0c"><path d="M 140.550781 42.992188 L 370.066406 171.917969 L 215.796875 446.554688 L -13.722656 317.628906 Z M 140.550781 42.992188 " clip-rule="nonzero"/></clipPath><clipPath id="b40187555a"><path d="M 140.550781 42.992188 L 370.066406 171.917969 L 215.796875 446.554688 L -13.722656 317.628906 Z M 140.550781 42.992188 " clip-rule="nonzero"/></clipPath><clipPath id="84f930d116"><path d="M 140.550781 42.992188 L 370.066406 171.917969 L 215.796875 446.554688 L -13.722656 317.628906 Z M 140.550781 42.992188 " clip-rule="nonzero"/></clipPath><clipPath id="04252e95d8"><path d="M 288 163 L 319 163 L 319 246 L 288 246 Z M 288 163 " clip-rule="nonzero"/></clipPath><clipPath id="4cc9e55d40"><path d="M 140.550781 42.992188 L 370.066406 171.917969 L 215.796875 446.554688 L -13.722656 317.628906 Z M 140.550781 42.992188 " clip-rule="nonzero"/></clipPath><clipPath id="2d9da6988e"><path d="M 140.550781 42.992188 L 370.066406 171.917969 L 215.796875 446.554688 L -13.722656 317.628906 Z M 140.550781 42.992188 " clip-rule="nonzero"/></clipPath><clipPath id="2d5b605f74"><path d="M 140.550781 42.992188 L 370.066406 171.917969 L 215.796875 446.554688 L -13.722656 317.628906 Z M 140.550781 42.992188 " clip-rule="nonzero"/></clipPath><clipPath id="2214da92da"><path d="M 160 162 L 222 162 L 222 192 L 160 192 Z M 160 162 " clip-rule="nonzero"/></clipPath><clipPath id="627bc13605"><path d="M 140.550781 42.992188 L 370.066406 171.917969 L 215.796875 446.554688 L -13.722656 317.628906 Z M 140.550781 42.992188 " clip-rule="nonzero"/></clipPath><clipPath id="cc969c0a9b"><path d="M 140.550781 42.992188 L 370.066406 171.917969 L 215.796875 446.554688 L -13.722656 317.628906 Z M 140.550781 42.992188 " clip-rule="nonzero"/></clipPath><clipPath id="b182d9a7fd"><path d="M 140.550781 42.992188 L 370.066406 171.917969 L 215.796875 446.554688 L -13.722656 317.628906 Z M 140.550781 42.992188 " clip-rule="nonzero"/></clipPath></defs><g clip-path="url(#b351c420d5)"><g clip-path="url(#6f68f32e93)"><path fill="#5e50e1" d="M 5.835938 0 L 368.46875 0 L 368.46875 373.964844 L 5.835938 373.964844 Z M 5.835938 0 " fill-opacity="1" fill-rule="nonzero"/></g></g><g clip-path="url(#27f193cd0c)"><g clip-path="url(#950722d184)"><g clip-path="url(#825f6890fd)"><g clip-path="url(#83d4fd38d8)"><path fill="#754c29" d="M 280.152344 137.363281 C 278.175781 140.328125 259.03125 169.945312 243.941406 178.515625 C 243.941406 178.515625 245.199219 202.269531 247.101562 200.582031 C 249.019531 198.90625 291.371094 163.527344 293.800781 140.933594 C 294.332031 135.992188 282.140625 134.40625 280.152344 137.363281 Z M 280.152344 137.363281 " fill-opacity="1" fill-rule="nonzero"/></g></g></g></g><g clip-path="url(#1145e71293)"><g clip-path="url(#a5496ad882)"><g clip-path="url(#37fb6147cb)"><g clip-path="url(#a393334fc0)"><path fill="#fdc236" d="M 273.160156 180.925781 C 257.921875 164.75 232.859375 145.640625 188.886719 146.796875 C 144.890625 147.949219 116.488281 188.820312 106.328125 210.988281 C 96.171875 233.148438 73.960938 266.359375 38.46875 277.011719 C 3 287.667969 80.652344 368.160156 180.488281 348.558594 C 267.449219 331.484375 327.523438 238.609375 273.160156 180.925781 Z M 273.160156 180.925781 " fill-opacity="1" fill-rule="nonzero"/></g></g></g></g><g clip-path="url(#294d2450c2)"><g clip-path="url(#ea75cc9553)"><g clip-path="url(#c739e34b26)"><g clip-path="url(#a2a400085c)"><path fill="#ffa712" d="M 30.035156 290.398438 C 34.890625 315.8125 100.582031 364.234375 180.488281 348.558594 C 267.445312 331.492188 327.519531 238.617188 273.160156 180.925781 C 270.757812 178.371094 268.105469 175.75 265.175781 173.140625 C 265.175781 173.140625 296.714844 249.140625 233.082031 295.96875 C 139.128906 365.101562 62.84375 307.882812 30.035156 290.398438 Z M 30.035156 290.398438 " fill-opacity="1" fill-rule="nonzero"/></g></g></g></g><g clip-path="url(#e56d8ca085)"><g clip-path="url(#68dd230d0c)"><g clip-path="url(#b40187555a)"><g clip-path="url(#84f930d116)"><path fill="#5e990b" d="M 320.46875 251.269531 C 320.46875 251.269531 250.972656 220.214844 285.988281 156.953125 C 285.988281 156.953125 369.097656 174.125 320.46875 251.269531 Z M 320.46875 251.269531 " fill-opacity="1" fill-rule="nonzero"/></g></g></g></g><g clip-path="url(#04252e95d8)"><g clip-path="url(#4cc9e55d40)"><g clip-path="url(#2d9da6988e)"><g clip-path="url(#2d5b605f74)"><path fill="#547c15" d="M 288.300781 163.425781 C 288.300781 163.425781 295.691406 213.441406 318.898438 245.199219 C 318.894531 245.207031 304.335938 197.183594 288.300781 163.425781 Z M 288.300781 163.425781 " fill-opacity="1" fill-rule="nonzero"/></g></g></g></g><g clip-path="url(#2214da92da)"><g clip-path="url(#627bc13605)"><g clip-path="url(#cc969c0a9b)"><g clip-path="url(#b182d9a7fd)"><path fill="#fcd368" d="M 210.523438 166.445312 C 205.023438 163.765625 195.65625 161.863281 186.902344 163.007812 C 174.085938 164.699219 161.714844 172.015625 160.449219 178.679688 C 158.3125 189.90625 182.085938 197.605469 207.785156 186.789062 C 229.53125 177.628906 220.597656 171.359375 210.523438 166.445312 Z M 210.523438 166.445312 " fill-opacity="1" fill-rule="nonzero"/></g></g></g></g><g fill="#ffffff" fill-opacity="1"><g transform="translate(125.79572, 105.331607)"><g><path d="M 11.171875 -20.5 C 12.242188 -18.925781 13.546875 -17.242188 15.078125 -15.453125 C 16.617188 -13.671875 18.441406 -12.171875 20.546875 -10.953125 C 22.660156 -9.734375 25.082031 -9.125 27.8125 -9.125 C 29.957031 -9.125 32.101562 -9.675781 34.25 -10.78125 C 36.394531 -11.894531 38.203125 -13.539062 39.671875 -15.71875 C 41.140625 -17.90625 41.875 -20.570312 41.875 -23.71875 C 41.875 -26.945312 41.28125 -29.523438 40.09375 -31.453125 C 38.914062 -33.390625 37.359375 -34.785156 35.421875 -35.640625 C 33.492188 -36.503906 31.382812 -36.9375 29.09375 -36.9375 C 26.875 -36.9375 24.632812 -36.59375 22.375 -35.90625 C 20.125 -35.226562 18.035156 -34.492188 16.109375 -33.703125 L 12.890625 -42.1875 L 33.0625 -64.421875 L 6.328125 -64.421875 L 6.328125 -75.15625 L 49.390625 -75.15625 L 51.53125 -70.859375 L 30.484375 -47.5625 C 34.640625 -47.5625 38.414062 -46.539062 41.8125 -44.5 C 45.21875 -42.457031 47.9375 -39.679688 49.96875 -36.171875 C 52.007812 -32.671875 53.03125 -28.738281 53.03125 -24.375 C 53.03125 -19.21875 51.796875 -14.722656 49.328125 -10.890625 C 46.859375 -7.066406 43.632812 -4.113281 39.65625 -2.03125 C 35.6875 0.0390625 31.453125 1.078125 26.953125 1.078125 C 22.722656 1.078125 19.085938 0.378906 16.046875 -1.015625 C 13.003906 -2.410156 10.375 -4.320312 8.15625 -6.75 C 5.9375 -9.1875 3.929688 -11.875 2.140625 -14.8125 Z M 11.171875 -20.5 "/></g></g><g transform="translate(182.590457, 105.331607)"><g><path d="M 12.03125 0 L 41.546875 -64.421875 L 6.4375 -64.421875 L 6.4375 -75.15625 L 52.921875 -75.15625 L 54.4375 -67.75 L 24.484375 0 Z M 12.03125 0 "/></g></g></g></svg>