<svg xmlns="http://www.w3.org/2000/svg" xmlns:xlink="http://www.w3.org/1999/xlink" width="500" zoomAndPan="magnify" viewBox="0 0 375 374.999991" height="500" preserveAspectRatio="xMidYMid meet" version="1.0"><defs><g/><clipPath id="2c86b2f70a"><path d="M 6.570312 0 L 369.714844 0 L 369.714844 375 L 6.570312 375 Z M 6.570312 0 " clip-rule="nonzero"/></clipPath><clipPath id="7cb79db6ae"><path d="M 20.820312 0 L 355.464844 0 C 359.242188 0 362.867188 1.5 365.539062 4.171875 C 368.210938 6.847656 369.714844 10.46875 369.714844 14.25 L 369.714844 360.75 C 369.714844 364.527344 368.210938 368.152344 365.539062 370.828125 C 362.867188 373.5 359.242188 375 355.464844 375 L 20.820312 375 C 17.039062 375 13.414062 373.5 10.742188 370.828125 C 8.070312 368.152344 6.570312 364.527344 6.570312 360.75 L 6.570312 14.25 C 6.570312 10.46875 8.070312 6.847656 10.742188 4.171875 C 13.414062 1.5 17.039062 0 20.820312 0 Z M 20.820312 0 " clip-rule="nonzero"/></clipPath><clipPath id="f10f6d40b5"><path d="M 42 231 L 305 231 L 305 361.804688 L 42 361.804688 Z M 42 231 " clip-rule="nonzero"/></clipPath></defs><g clip-path="url(#2c86b2f70a)"><g clip-path="url(#7cb79db6ae)"><path fill="#494f56" d="M 6.570312 0 L 369.714844 0 L 369.714844 374.492188 L 6.570312 374.492188 Z M 6.570312 0 " fill-opacity="1" fill-rule="nonzero"/></g></g><path fill="#f8e55b" d="M 284.59375 307.757812 C 292.210938 299.601562 311.386719 278.863281 316.003906 268.003906 C 318.828125 261.375 320.808594 254.613281 322.105469 247.816406 C 302.433594 259.320312 277.792969 261.785156 255.199219 252.183594 C 217.277344 236.066406 199.609375 192.289062 215.734375 154.394531 C 219.503906 145.542969 224.824219 137.84375 231.1875 131.375 C 190.828125 129 151.515625 151.6875 134.789062 191 C 130.253906 201.65625 127.351562 222.769531 126.691406 233.707031 " fill-opacity="1" fill-rule="nonzero"/><path fill="#565fa0" d="M 268.472656 291.277344 C 265.652344 291.277344 262.933594 291.707031 260.335938 292.445312 C 258.632812 270.382812 241.230469 253.035156 219.972656 253.035156 C 207.71875 253.035156 196.757812 258.824219 189.324219 267.929688 C 180.25 248.535156 161.429688 235.167969 139.617188 235.167969 C 109.554688 235.167969 85.136719 260.503906 84.195312 292.113281 C 81.96875 291.582031 79.65625 291.277344 77.273438 291.277344 C 59.980469 291.277344 45.960938 306.132812 45.960938 324.457031 C 45.960938 342.785156 59.980469 357.640625 77.273438 357.640625 C 79.285156 357.640625 266.460938 357.640625 268.472656 357.640625 C 285.765625 357.640625 299.785156 342.785156 299.785156 324.457031 C 299.785156 306.132812 285.765625 291.277344 268.472656 291.277344 Z M 268.472656 291.277344 " fill-opacity="1" fill-rule="nonzero"/><g clip-path="url(#f10f6d40b5)"><path fill="#1f212b" d="M 269.25 361.910156 L 77.382812 361.910156 C 57.933594 361.910156 42.109375 345.25 42.109375 324.769531 C 42.109375 303.117188 59.820312 285.566406 80.753906 287.808594 C 83.777344 255.796875 109.019531 231.324219 139.941406 231.324219 C 160.929688 231.324219 179.929688 242.726562 190.714844 261.425781 C 198.867188 253.632812 209.484375 249.253906 220.585938 249.253906 C 242.183594 249.253906 260.679688 265.949219 264.394531 287.996094 C 266.023438 287.75 267.648438 287.621094 269.253906 287.621094 C 288.703125 287.621094 304.523438 304.285156 304.523438 324.765625 C 304.523438 345.246094 288.695312 361.910156 269.25 361.910156 Z M 77.382812 295.320312 C 62.179688 295.320312 49.808594 308.53125 49.808594 324.769531 C 49.808594 341.007812 62.179688 354.21875 77.382812 354.21875 L 269.25 354.21875 C 284.453125 354.21875 296.820312 341.003906 296.820312 324.769531 C 296.820312 306.046875 280.191406 291.191406 262.140625 296.347656 C 261.027344 296.65625 259.835938 296.460938 258.886719 295.804688 C 257.9375 295.140625 257.335938 294.09375 257.246094 292.941406 C 255.691406 272.757812 239.582031 256.949219 220.582031 256.949219 C 209.949219 256.949219 199.824219 261.878906 192.808594 270.480469 C 191.96875 271.507812 190.648438 272.019531 189.351562 271.867188 C 188.035156 271.703125 186.898438 270.878906 186.339844 269.679688 C 177.492188 250.765625 159.710938 239.019531 139.941406 239.019531 C 111.804688 239.019531 89.070312 262.480469 88.183594 292.429688 C 88.144531 293.59375 87.59375 294.667969 86.667969 295.378906 C 85.75 296.078125 84.558594 296.332031 83.429688 296.0625 C 81.390625 295.566406 79.355469 295.320312 77.382812 295.320312 Z M 77.382812 295.320312 " fill-opacity="1" fill-rule="nonzero"/></g><path fill="#1f212b" d="M 199.054688 346.523438 L 183.65625 346.523438 C 182.59375 346.523438 181.730469 345.664062 181.730469 344.601562 C 181.730469 343.539062 182.59375 342.675781 183.65625 342.675781 L 199.054688 342.675781 C 200.117188 342.675781 200.980469 343.539062 200.980469 344.601562 C 200.980469 345.664062 200.121094 346.523438 199.054688 346.523438 Z M 175.953125 346.523438 L 172.105469 346.523438 C 171.042969 346.523438 170.179688 345.664062 170.179688 344.601562 C 170.179688 343.539062 171.042969 342.675781 172.105469 342.675781 L 175.953125 342.675781 C 177.015625 342.675781 177.878906 343.539062 177.878906 344.601562 C 177.878906 345.664062 177.019531 346.523438 175.953125 346.523438 Z M 168.253906 346.523438 L 72.007812 346.523438 C 70.945312 346.523438 70.082031 345.664062 70.082031 344.601562 C 70.082031 343.539062 70.945312 342.675781 72.007812 342.675781 L 168.253906 342.675781 C 169.316406 342.675781 170.179688 343.539062 170.179688 344.601562 C 170.179688 345.664062 169.320312 346.523438 168.253906 346.523438 Z M 297.425781 298.800781 C 296.488281 298.800781 295.542969 298.457031 294.800781 297.765625 C 293.246094 296.316406 293.15625 293.878906 294.609375 292.332031 C 302.109375 284.289062 308.121094 275.039062 312.464844 264.832031 C 314.027344 261.160156 315.363281 257.332031 316.460938 253.394531 C 296.515625 262.394531 274.078125 262.722656 253.691406 254.054688 C 234.402344 245.863281 219.460938 230.652344 211.625 211.230469 C 203.785156 191.808594 203.988281 170.496094 212.191406 151.222656 C 214.902344 144.839844 218.449219 138.878906 222.773438 133.425781 C 186.101562 134.445312 152.832031 156.75 138.320312 190.839844 C 134.058594 200.867188 131.5625 211.410156 130.917969 222.164062 C 130.796875 224.289062 128.953125 225.828125 126.847656 225.773438 C 124.722656 225.648438 123.105469 223.824219 123.234375 221.703125 C 123.929688 210.066406 126.621094 198.667969 131.234375 187.824219 C 148.085938 148.238281 188.332031 123.265625 231.410156 125.871094 C 232.917969 125.953125 234.230469 126.914062 234.773438 128.328125 C 235.320312 129.730469 234.988281 131.328125 233.929688 132.40625 C 227.648438 138.796875 222.714844 146.140625 219.269531 154.238281 C 211.875 171.621094 211.6875 190.835938 218.761719 208.351562 C 225.828125 225.871094 239.304688 239.582031 256.699219 246.976562 C 277.445312 255.796875 300.574219 254.28125 320.152344 242.832031 C 321.453125 242.070312 323.082031 242.132812 324.316406 243.011719 C 325.550781 243.878906 326.160156 245.386719 325.875 246.875 C 324.484375 254.179688 322.351562 261.234375 319.535156 267.847656 C 314.84375 278.878906 308.347656 288.882812 300.230469 297.578125 C 299.480469 298.394531 298.457031 298.800781 297.425781 298.800781 Z M 297.425781 298.800781 " fill-opacity="1" fill-rule="nonzero"/><path fill="#f8e55b" d="M 88.097656 205.125 L 92.664062 214.363281 L 102.867188 215.84375 L 95.484375 223.039062 L 97.230469 233.195312 L 88.097656 228.402344 L 78.96875 233.195312 L 80.714844 223.039062 L 73.328125 215.84375 L 83.535156 214.363281 Z M 88.097656 205.125 " fill-opacity="1" fill-rule="nonzero"/><path fill="#1f212b" d="M 78.96875 235.117188 C 78.570312 235.117188 78.171875 234.996094 77.835938 234.75 C 77.246094 234.320312 76.949219 233.589844 77.070312 232.867188 L 78.644531 223.707031 L 71.988281 217.21875 C 71.460938 216.707031 71.273438 215.941406 71.5 215.246094 C 71.726562 214.546875 72.332031 214.042969 73.050781 213.933594 L 82.257812 212.597656 L 86.371094 204.261719 C 87.019531 202.953125 89.179688 202.953125 89.820312 204.261719 L 93.9375 212.597656 L 103.144531 213.933594 C 103.871094 214.039062 104.472656 214.546875 104.699219 215.246094 C 104.925781 215.941406 104.734375 216.707031 104.207031 217.21875 L 97.550781 223.707031 L 99.121094 232.871094 C 99.246094 233.59375 98.949219 234.320312 98.355469 234.75 C 97.769531 235.179688 96.980469 235.238281 96.332031 234.894531 L 88.097656 230.570312 L 79.863281 234.898438 C 79.582031 235.046875 79.277344 235.117188 78.96875 235.117188 Z M 88.097656 226.472656 C 88.40625 226.472656 88.714844 226.550781 88.988281 226.695312 L 94.667969 229.679688 L 93.585938 223.359375 C 93.484375 222.734375 93.6875 222.101562 94.144531 221.65625 L 98.734375 217.1875 L 92.386719 216.269531 C 91.761719 216.175781 91.214844 215.785156 90.9375 215.21875 L 88.097656 209.46875 L 85.257812 215.214844 C 84.984375 215.78125 84.4375 216.171875 83.8125 216.265625 L 77.46875 217.183594 L 82.054688 221.652344 C 82.511719 222.097656 82.71875 222.734375 82.613281 223.359375 L 81.527344 229.675781 L 87.207031 226.691406 C 87.480469 226.550781 87.789062 226.472656 88.097656 226.472656 Z M 88.097656 226.472656 " fill-opacity="1" fill-rule="nonzero"/><path fill="#f8e55b" d="M 221.773438 279.8125 L 226.339844 289.058594 L 236.542969 290.539062 L 229.160156 297.730469 L 230.898438 307.886719 L 221.773438 303.089844 L 212.644531 307.886719 L 214.386719 297.730469 L 207.003906 290.539062 L 217.210938 289.058594 Z M 221.773438 279.8125 " fill-opacity="1" fill-rule="nonzero"/><path fill="#1f212b" d="M 212.648438 309.808594 C 212.246094 309.808594 211.851562 309.6875 211.515625 309.441406 C 210.921875 309.015625 210.625 308.28125 210.75 307.5625 L 212.320312 298.402344 L 205.664062 291.910156 C 205.132812 291.402344 204.949219 290.636719 205.171875 289.941406 C 205.398438 289.242188 206.003906 288.738281 206.722656 288.628906 L 215.933594 287.296875 L 220.046875 278.960938 C 220.695312 277.652344 222.855469 277.652344 223.496094 278.960938 L 227.613281 287.296875 L 236.816406 288.628906 C 237.542969 288.734375 238.144531 289.242188 238.367188 289.941406 C 238.597656 290.636719 238.40625 291.402344 237.878906 291.914062 L 231.222656 298.40625 L 232.796875 307.5625 C 232.921875 308.285156 232.625 309.019531 232.03125 309.445312 C 231.4375 309.875 230.652344 309.9375 230.007812 309.589844 L 221.773438 305.261719 L 213.539062 309.589844 C 213.261719 309.742188 212.957031 309.808594 212.648438 309.808594 Z M 211.140625 291.878906 L 215.726562 296.351562 C 216.183594 296.792969 216.390625 297.425781 216.285156 298.050781 L 215.203125 304.371094 L 220.882812 301.390625 C 221.441406 301.097656 222.113281 301.097656 222.671875 301.390625 L 228.351562 304.371094 L 227.265625 298.054688 C 227.160156 297.429688 227.367188 296.792969 227.824219 296.351562 L 232.414062 291.878906 L 226.070312 290.960938 C 225.445312 290.867188 224.898438 290.476562 224.621094 289.910156 L 221.785156 284.164062 L 218.945312 289.910156 C 218.667969 290.476562 218.121094 290.867188 217.5 290.960938 Z M 182.605469 160.265625 C 181.925781 160.265625 181.273438 159.910156 180.917969 159.277344 C 180.402344 158.347656 180.738281 157.179688 181.664062 156.660156 C 188.183594 153.046875 195.132812 151.378906 202.207031 151.65625 C 203.269531 151.703125 204.09375 152.601562 204.050781 153.660156 C 204.003906 154.71875 203.117188 155.539062 202.046875 155.503906 C 195.628906 155.210938 189.417969 156.753906 183.53125 160.023438 C 183.242188 160.191406 182.921875 160.265625 182.605469 160.265625 Z M 148.464844 220.40625 C 147.433594 220.40625 146.585938 219.597656 146.542969 218.5625 C 146.464844 216.625 146.46875 214.664062 146.550781 212.683594 C 147.359375 193.363281 155.742188 175.699219 168.984375 165.429688 C 169.8125 164.777344 171.027344 164.921875 171.679688 165.769531 C 172.335938 166.605469 172.183594 167.8125 171.34375 168.464844 C 158.984375 178.050781 151.15625 194.640625 150.398438 212.839844 C 150.320312 214.71875 150.320312 216.574219 150.390625 218.410156 C 150.433594 219.46875 149.605469 220.363281 148.542969 220.410156 C 148.511719 220.40625 148.488281 220.40625 148.464844 220.40625 Z M 148.464844 220.40625 " fill-opacity="1" fill-rule="nonzero"/><g fill="#ffffff" fill-opacity="1"><g transform="translate(124.717632, 105.48071)"><g><path d="M 11.1875 -20.53125 C 12.257812 -18.957031 13.566406 -17.273438 15.109375 -15.484375 C 16.648438 -13.691406 18.476562 -12.1875 20.59375 -10.96875 C 22.707031 -9.75 25.125 -9.140625 27.84375 -9.140625 C 30 -9.140625 32.148438 -9.691406 34.296875 -10.796875 C 36.441406 -11.910156 38.25 -13.5625 39.71875 -15.75 C 41.195312 -17.9375 41.9375 -20.609375 41.9375 -23.765625 C 41.9375 -26.984375 41.34375 -29.5625 40.15625 -31.5 C 38.976562 -33.4375 37.421875 -34.832031 35.484375 -35.6875 C 33.546875 -36.550781 31.429688 -36.984375 29.140625 -36.984375 C 26.910156 -36.984375 24.664062 -36.640625 22.40625 -35.953125 C 20.15625 -35.273438 18.0625 -34.546875 16.125 -33.765625 L 12.90625 -42.25 L 33.109375 -64.515625 L 6.34375 -64.515625 L 6.34375 -75.265625 L 49.453125 -75.265625 L 51.609375 -70.953125 L 30.53125 -47.625 C 34.6875 -47.625 38.46875 -46.601562 41.875 -44.5625 C 45.28125 -42.519531 48.003906 -39.742188 50.046875 -36.234375 C 52.085938 -32.722656 53.109375 -28.78125 53.109375 -24.40625 C 53.109375 -19.25 51.867188 -14.75 49.390625 -10.90625 C 46.921875 -7.070312 43.695312 -4.113281 39.71875 -2.03125 C 35.75 0.0390625 31.503906 1.078125 26.984375 1.078125 C 22.753906 1.078125 19.113281 0.378906 16.0625 -1.015625 C 13.019531 -2.421875 10.390625 -4.335938 8.171875 -6.765625 C 5.953125 -9.203125 3.945312 -11.894531 2.15625 -14.84375 Z M 11.1875 -20.53125 "/></g></g><g transform="translate(181.592766, 105.48071)"><g><path d="M 56.546875 -21.5 C 56.546875 -17.488281 55.414062 -13.832031 53.15625 -10.53125 C 50.90625 -7.238281 47.863281 -4.601562 44.03125 -2.625 C 40.195312 -0.65625 35.878906 0.328125 31.078125 0.328125 C 26.335938 0.328125 22.050781 -0.65625 18.21875 -2.625 C 14.382812 -4.601562 11.335938 -7.238281 9.078125 -10.53125 C 6.828125 -13.832031 5.703125 -17.488281 5.703125 -21.5 C 5.703125 -26.226562 6.898438 -30.078125 9.296875 -33.046875 C 11.703125 -36.023438 14.445312 -38.34375 17.53125 -40 C 14.875 -41.289062 12.539062 -43.148438 10.53125 -45.578125 C 8.53125 -48.015625 7.53125 -51.0625 7.53125 -54.71875 C 7.53125 -58.445312 8.566406 -61.867188 10.640625 -64.984375 C 12.722656 -68.109375 15.554688 -70.601562 19.140625 -72.46875 C 22.722656 -74.332031 26.703125 -75.265625 31.078125 -75.265625 C 35.515625 -75.265625 39.503906 -74.332031 43.046875 -72.46875 C 46.597656 -70.601562 49.414062 -68.109375 51.5 -64.984375 C 53.582031 -61.867188 54.625 -58.445312 54.625 -54.71875 C 54.625 -52.070312 54.101562 -49.796875 53.0625 -47.890625 C 52.019531 -45.992188 50.707031 -44.398438 49.125 -43.109375 C 47.550781 -41.816406 45.941406 -40.78125 44.296875 -40 C 47.953125 -38.0625 50.90625 -35.441406 53.15625 -32.140625 C 55.414062 -28.847656 56.546875 -25.300781 56.546875 -21.5 Z M 19.03125 -54.40625 C 19.03125 -51.539062 20.210938 -49.175781 22.578125 -47.3125 C 24.941406 -45.445312 27.773438 -44.515625 31.078125 -44.515625 C 34.441406 -44.515625 37.285156 -45.445312 39.609375 -47.3125 C 41.941406 -49.175781 43.109375 -51.539062 43.109375 -54.40625 C 43.109375 -57.195312 41.976562 -59.578125 39.71875 -61.546875 C 37.46875 -63.523438 34.585938 -64.515625 31.078125 -64.515625 C 27.554688 -64.515625 24.664062 -63.523438 22.40625 -61.546875 C 20.15625 -59.578125 19.03125 -57.195312 19.03125 -54.40625 Z M 31.078125 -10.421875 C 35.085938 -10.421875 38.414062 -11.53125 41.0625 -13.75 C 43.71875 -15.976562 45.046875 -18.707031 45.046875 -21.9375 C 45.046875 -25.59375 43.679688 -28.546875 40.953125 -30.796875 C 38.234375 -33.054688 34.941406 -34.1875 31.078125 -34.1875 C 27.273438 -34.1875 24.007812 -33.054688 21.28125 -30.796875 C 18.5625 -28.546875 17.203125 -25.59375 17.203125 -21.9375 C 17.203125 -18.707031 18.523438 -15.976562 21.171875 -13.75 C 23.828125 -11.53125 27.128906 -10.421875 31.078125 -10.421875 Z M 31.078125 -10.421875 "/></g></g></g></svg>