<svg xmlns="http://www.w3.org/2000/svg" xmlns:xlink="http://www.w3.org/1999/xlink" width="500" zoomAndPan="magnify" viewBox="0 0 375 374.999991" height="500" preserveAspectRatio="xMidYMid meet" version="1.0"><defs><g/><clipPath id="4a23d99b38"><path d="M 6.570312 0 L 369.714844 0 L 369.714844 375 L 6.570312 375 Z M 6.570312 0 " clip-rule="nonzero"/></clipPath><clipPath id="2eaa47df12"><path d="M 20.820312 0 L 355.464844 0 C 359.242188 0 362.867188 1.5 365.539062 4.171875 C 368.210938 6.847656 369.714844 10.46875 369.714844 14.25 L 369.714844 360.75 C 369.714844 364.527344 368.210938 368.152344 365.539062 370.828125 C 362.867188 373.5 359.242188 375 355.464844 375 L 20.820312 375 C 17.039062 375 13.414062 373.5 10.742188 370.828125 C 8.070312 368.152344 6.570312 364.527344 6.570312 360.75 L 6.570312 14.25 C 6.570312 10.46875 8.070312 6.847656 10.742188 4.171875 C 13.414062 1.5 17.039062 0 20.820312 0 Z M 20.820312 0 " clip-rule="nonzero"/></clipPath><clipPath id="94361f82bb"><path d="M 51.398438 137.53125 L 320.519531 137.53125 L 320.519531 358.996094 L 51.398438 358.996094 Z M 51.398438 137.53125 " clip-rule="nonzero"/></clipPath></defs><g clip-path="url(#4a23d99b38)"><g clip-path="url(#2eaa47df12)"><path fill="#e4332e" d="M 6.570312 0 L 369.714844 0 L 369.714844 374.492188 L 6.570312 374.492188 Z M 6.570312 0 " fill-opacity="1" fill-rule="nonzero"/></g></g><path fill="#ffa461" d="M 61.023438 272.066406 C 72.210938 253.742188 98.136719 251.175781 98.136719 251.175781 C 98.136719 251.175781 130.582031 244.535156 161.90625 272.835938 C 161.90625 272.835938 206.878906 231.820312 245.636719 274.566406 C 244.167969 272.679688 236.292969 259.964844 235.523438 202.378906 C 229.492188 173.023438 222.867188 174.710938 216.988281 181.640625 C 211.636719 187.953125 205.890625 189.179688 201.589844 190.011719 C 187.332031 192.730469 190.535156 193.980469 180.925781 197.640625 C 179.632812 200.535156 176.5625 201.414062 173.882812 201.632812 C 168.554688 202.046875 165.242188 198.738281 165.285156 195.429688 C 165.285156 195.429688 144.972656 184.226562 152.738281 172.167969 C 160.503906 160.089844 169.980469 145.445312 169.980469 145.445312 C 169.980469 145.445312 182.921875 137.792969 208.808594 140.273438 C 225.699219 144.460938 239.011719 148.03125 239.011719 148.03125 C 239.011719 148.03125 289.863281 238.527344 308.835938 261.808594 C 327.8125 285.089844 312.300781 317.425781 312.300781 317.425781 C 312.300781 317.425781 321.097656 333.054688 308.242188 338.667969 C 300.039062 342.261719 263.03125 336.867188 237.761719 344.871094 C 208.652344 354.078125 162.476562 368.523438 102.964844 339.742188 L 102.941406 339.742188 C 96.625 339.347656 89.1875 337.832031 80.503906 334.613281 C 48.367188 322.707031 49.507812 290.921875 61.023438 272.066406 " fill-opacity="1" fill-rule="nonzero"/><path fill="#b76627" d="M 165.285156 195.429688 L 165.296875 195.429688 Z M 175.332031 191.4375 C 175.285156 191.4375 175.238281 191.4375 175.1875 191.4375 C 173.476562 191.457031 171.976562 191.6875 170.722656 192.121094 C 168.722656 192.832031 167.558594 194.046875 167.542969 195.449219 C 167.542969 195.453125 167.542969 195.457031 167.542969 195.457031 C 167.53125 196.324219 167.957031 197.226562 168.707031 197.929688 C 169.878906 199.027344 171.660156 199.542969 173.707031 199.382812 C 177.824219 199.042969 178.605469 197.296875 178.863281 196.71875 C 178.992188 196.449219 179.074219 196.179688 179.15625 195.804688 C 179.257812 195.261719 179.351562 193.503906 178.492188 192.484375 C 177.902344 191.789062 176.839844 191.4375 175.332031 191.4375 Z M 172.988281 203.925781 C 170.082031 203.925781 167.496094 202.984375 165.617188 201.222656 C 163.945312 199.65625 163 197.535156 163.027344 195.402344 C 163.0625 192.042969 165.378906 189.222656 169.226562 187.863281 C 170.949219 187.261719 172.933594 186.945312 175.132812 186.921875 C 178.140625 186.890625 180.457031 187.785156 181.976562 189.613281 C 184.351562 192.464844 183.664062 196.300781 183.578125 196.726562 C 183.417969 197.476562 183.226562 198.066406 182.96875 198.605469 C 182.015625 200.734375 179.679688 203.421875 174.070312 203.882812 C 173.703125 203.910156 173.34375 203.925781 172.988281 203.925781 " fill-opacity="1" fill-rule="nonzero"/><path fill="#b76627" d="M 175.160156 317.421875 C 177.585938 318.894531 180.035156 320.214844 182.550781 321.363281 C 185.035156 322.558594 187.59375 323.550781 190.164062 324.425781 C 195.308594 326.175781 200.605469 327.257812 205.941406 327.582031 C 211.277344 327.921875 216.652344 327.457031 221.957031 326.328125 C 227.273438 325.1875 232.488281 323.367188 237.769531 321.269531 C 233.46875 324.988281 228.386719 327.824219 222.914062 329.746094 C 217.433594 331.617188 211.511719 332.472656 205.664062 332.085938 C 199.808594 331.730469 194.046875 330.207031 188.824219 327.699219 C 186.207031 326.460938 183.738281 324.945312 181.417969 323.253906 C 179.128906 321.527344 176.941406 319.652344 175.160156 317.421875 " fill-opacity="1" fill-rule="nonzero"/><path fill="#b76627" d="M 189.613281 176.484375 C 189.050781 176.484375 188.492188 176.28125 188.054688 175.863281 C 187.609375 175.4375 187.332031 174.757812 187.332031 174.140625 C 187.332031 172.894531 188.34375 171.882812 189.589844 171.882812 C 190.660156 171.882812 191.558594 172.628906 191.789062 173.625 C 191.996094 174.363281 191.816406 175.1875 191.25 175.785156 C 190.804688 176.25 190.210938 176.484375 189.613281 176.484375 " fill-opacity="1" fill-rule="nonzero"/><path fill="#b76627" d="M 175.15625 191.4375 C 174.203125 191.4375 173.316406 190.832031 173.007812 189.875 C 172.625 188.6875 173.277344 187.414062 174.460938 187.03125 C 186.976562 182.992188 187.589844 176.953125 187.453125 175.09375 C 187.429688 174.949219 187.417969 174.804688 187.417969 174.691406 C 187.417969 173.441406 188.429688 172.433594 189.679688 172.433594 C 190.832031 172.433594 191.785156 173.296875 191.921875 174.414062 C 191.933594 174.496094 191.945312 174.574219 191.949219 174.652344 C 192.175781 177.273438 191.679688 186.21875 175.851562 191.328125 C 175.621094 191.402344 175.386719 191.4375 175.15625 191.4375 " fill-opacity="1" fill-rule="nonzero"/><g clip-path="url(#94361f82bb)"><path fill="#b76627" d="M 242.898438 274.351562 C 237.8125 268.757812 231.894531 263.964844 225.253906 260.617188 C 221.894531 259.035156 218.394531 257.789062 214.78125 257 C 211.152344 256.277344 207.441406 256.003906 203.738281 256.171875 C 196.308594 256.480469 188.988281 258.679688 182.1875 261.902344 C 178.785156 263.523438 175.492188 265.414062 172.34375 267.519531 C 169.234375 269.625 166.132812 271.976562 163.484375 274.449219 C 162.621094 275.253906 161.308594 275.273438 160.425781 274.535156 L 160.390625 274.507812 L 157.132812 271.792969 L 155.503906 270.429688 L 154.691406 269.75 L 153.832031 269.136719 L 150.371094 266.6875 C 149.789062 266.289062 149.238281 265.84375 148.628906 265.484375 L 146.8125 264.402344 L 143.175781 262.242188 L 139.386719 260.359375 C 138.753906 260.054688 138.136719 259.707031 137.488281 259.441406 L 135.53125 258.644531 C 134.214844 258.140625 132.945312 257.519531 131.597656 257.109375 C 126.300781 255.191406 120.769531 253.96875 115.195312 253.277344 C 112.410156 252.914062 109.597656 252.792969 106.800781 252.757812 C 105.40625 252.796875 104 252.792969 102.617188 252.921875 C 101.921875 252.960938 101.234375 253.023438 100.554688 253.109375 C 99.882812 253.175781 99.164062 253.289062 98.589844 253.386719 L 98.4375 253.410156 L 98.363281 253.421875 C 87.1875 254.957031 75.699219 259.375 67.703125 267.246094 C 66.742188 268.253906 65.832031 269.320312 64.9375 270.386719 C 64.167969 271.546875 63.3125 272.625 62.597656 273.851562 C 61.15625 276.296875 59.9375 278.882812 58.945312 281.554688 C 56.96875 286.894531 55.878906 292.582031 55.914062 298.238281 C 55.945312 303.886719 57.148438 309.511719 59.675781 314.484375 C 62.191406 319.457031 65.976562 323.761719 70.621094 326.964844 C 72.933594 328.566406 75.398438 329.992188 78.007812 331.140625 C 80.601562 332.28125 83.355469 333.289062 86.136719 334.15625 C 88.914062 335.027344 91.722656 335.765625 94.554688 336.339844 C 95.972656 336.625 97.394531 336.863281 98.820312 337.058594 C 99.535156 337.160156 100.25 337.238281 100.960938 337.3125 L 102.964844 337.484375 L 103.144531 337.5 C 103.425781 337.523438 103.703125 337.597656 103.949219 337.707031 C 112.730469 341.703125 121.625 345.542969 130.921875 348.117188 C 135.507812 349.632812 140.242188 350.535156 144.929688 351.640625 C 147.296875 352.09375 149.679688 352.421875 152.054688 352.820312 C 153.246094 352.996094 154.425781 353.242188 155.625 353.359375 L 159.21875 353.703125 C 178.394531 355.792969 197.820312 353.53125 216.535156 348.730469 C 221.226562 347.554688 225.882812 346.175781 230.53125 344.765625 L 237.527344 342.585938 C 239.9375 341.832031 242.382812 341.246094 244.832031 340.714844 C 254.648438 338.707031 264.566406 338.140625 274.394531 337.925781 C 279.3125 337.828125 284.21875 337.839844 289.101562 337.839844 C 293.960938 337.820312 298.871094 337.871094 303.496094 337.40625 C 304.621094 337.269531 305.761719 337.109375 306.691406 336.828125 L 307.3125 336.605469 L 308.011719 336.269531 C 308.484375 336.046875 308.910156 335.773438 309.328125 335.496094 C 310.992188 334.375 312.109375 332.820312 312.621094 330.941406 C 313.648438 327.167969 312.300781 322.339844 310.332031 318.53125 L 310.316406 318.5 C 309.976562 317.839844 309.984375 317.078125 310.265625 316.449219 C 311.550781 313.617188 312.640625 310.429688 313.515625 307.308594 C 314.382812 304.15625 315.0625 300.953125 315.484375 297.726562 C 316.324219 291.277344 316.210938 284.707031 314.667969 278.488281 C 313.890625 275.386719 312.765625 272.382812 311.28125 269.570312 L 310.101562 267.496094 L 308.789062 265.503906 C 308.332031 264.851562 307.832031 264.230469 307.355469 263.59375 L 305.808594 261.578125 C 301.585938 256.144531 297.820312 250.523438 294.105469 244.863281 C 286.695312 233.539062 279.644531 222.03125 272.683594 210.46875 C 265.734375 198.902344 258.914062 187.261719 252.160156 175.585938 L 242.089844 158.039062 L 240.835938 155.84375 C 240.421875 155.105469 240.082031 154.550781 239.625 153.941406 C 238.757812 152.765625 237.710938 151.71875 236.539062 150.839844 C 235.363281 149.960938 234.058594 149.265625 232.683594 148.761719 C 231.398438 148.300781 229.605469 147.917969 228.011719 147.492188 L 218.226562 144.992188 L 213.332031 143.742188 C 211.695312 143.34375 210.046875 142.855469 208.574219 142.605469 C 207.808594 142.472656 207.074219 142.375 206.289062 142.324219 L 203.820312 142.171875 C 202.171875 142.101562 200.523438 142.035156 198.875 142.046875 C 195.585938 142.039062 192.296875 142.203125 189.042969 142.570312 C 185.789062 142.949219 182.558594 143.496094 179.425781 144.332031 C 177.855469 144.738281 176.308594 145.214844 174.808594 145.769531 L 173.71875 146.191406 C 173.421875 146.316406 173.132812 146.457031 172.855469 146.621094 C 172.300781 146.949219 171.785156 147.34375 171.332031 147.804688 C 171.105469 148.035156 170.894531 148.28125 170.695312 148.542969 C 170.5 148.796875 170.332031 149.058594 170.085938 149.445312 L 168.714844 151.566406 L 165.976562 155.8125 L 155.019531 172.800781 L 154.675781 173.332031 L 154.410156 173.789062 C 154.234375 174.085938 154.058594 174.386719 153.941406 174.699219 C 153.796875 175.003906 153.667969 175.3125 153.589844 175.625 C 153.476562 175.9375 153.402344 176.253906 153.355469 176.574219 C 153.125 177.84375 153.226562 179.164062 153.667969 180.476562 C 154.527344 183.113281 156.480469 185.613281 158.753906 187.773438 C 161.015625 189.929688 163.710938 191.902344 166.375 193.449219 L 163.027344 195.40625 C 163.03125 193.84375 163.613281 192.289062 164.519531 191.117188 C 165.425781 189.921875 166.589844 189.085938 167.765625 188.484375 C 170.15625 187.304688 172.582031 186.988281 174.914062 186.925781 C 175.511719 186.929688 176.183594 186.960938 176.824219 187.011719 C 177.503906 187.144531 178.164062 187.210938 178.863281 187.5 C 180.226562 187.960938 181.636719 188.957031 182.46875 190.300781 C 183.316406 191.628906 183.640625 193.082031 183.71875 194.425781 C 183.742188 195.109375 183.726562 195.75 183.625 196.464844 C 183.617188 196.519531 183.585938 196.714844 183.5625 196.796875 L 183.507812 197.046875 L 183.371094 197.546875 C 183.269531 197.890625 183.136719 198.25 182.96875 198.609375 L 180.121094 195.53125 C 181.609375 194.953125 183.066406 194.347656 184.457031 193.644531 C 185.851562 192.964844 187.179688 192.105469 188.847656 191.289062 C 190.492188 190.480469 192.214844 189.902344 193.878906 189.441406 C 195.550781 188.96875 197.203125 188.609375 198.851562 188.257812 L 201.3125 187.765625 C 202.109375 187.613281 202.882812 187.449219 203.640625 187.273438 C 205.144531 186.90625 206.578125 186.449219 207.933594 185.835938 C 210.632812 184.609375 213.019531 182.777344 215.007812 180.46875 C 216.09375 179.234375 217.351562 177.800781 219.015625 176.667969 C 219.835938 176.085938 220.871094 175.597656 222.03125 175.296875 C 222.65625 175.230469 223.269531 175.070312 223.917969 175.183594 C 224.242188 175.214844 224.5625 175.257812 224.878906 175.304688 C 225.175781 175.398438 225.472656 175.503906 225.765625 175.613281 C 226.933594 176.054688 227.824219 176.78125 228.5625 177.503906 C 228.980469 177.859375 229.222656 178.253906 229.554688 178.632812 L 230.011719 179.210938 L 230.390625 179.800781 C 230.636719 180.191406 230.898438 180.585938 231.125 180.980469 L 231.746094 182.175781 C 232.1875 182.96875 232.484375 183.777344 232.84375 184.578125 C 235.472656 190.980469 236.902344 197.679688 237.601562 204.445312 C 237.777344 206.132812 237.898438 207.828125 237.972656 209.519531 L 238.207031 214.464844 L 238.445312 219.382812 L 238.816406 224.292969 C 239.300781 230.839844 240.058594 237.355469 240.929688 243.835938 C 241.792969 250.320312 242.917969 256.75 244.285156 263.101562 C 244.597656 264.703125 245.03125 266.257812 245.402344 267.839844 C 245.832031 269.398438 246.234375 270.96875 246.628906 272.539062 C 247.410156 275.699219 247.953125 278.851562 248.628906 282.257812 C 248.261719 282.019531 247.898438 281.726562 247.59375 281.417969 C 247.261719 281.117188 246.964844 280.792969 246.6875 280.460938 C 246.09375 279.800781 245.601562 279.097656 245.109375 278.382812 C 244.160156 276.941406 243.355469 275.425781 242.691406 273.867188 C 241.359375 270.742188 240.484375 267.480469 239.597656 264.242188 C 237.894531 257.742188 236.667969 251.148438 235.792969 244.53125 C 234.957031 237.90625 234.355469 231.265625 234.015625 224.621094 L 233.734375 219.640625 L 233.554688 214.65625 L 233.375 209.695312 C 233.324219 208.089844 233.226562 206.484375 233.082031 204.882812 C 232.476562 198.507812 231.066406 192.152344 228.675781 186.316406 C 228.355469 185.613281 228.082031 184.863281 227.714844 184.210938 L 227.195312 183.203125 C 227.011719 182.886719 226.808594 182.59375 226.621094 182.285156 C 225.855469 181.101562 224.902344 180.085938 224.125 179.816406 C 224.03125 179.785156 223.9375 179.746094 223.847656 179.703125 C 223.753906 179.703125 223.664062 179.699219 223.574219 179.683594 C 223.40625 179.609375 223.195312 179.734375 223 179.707031 C 222.570312 179.84375 222.070312 180.027344 221.542969 180.410156 C 221.285156 180.589844 221.019531 180.769531 220.757812 181.015625 C 220.492188 181.234375 220.230469 181.464844 219.976562 181.738281 C 219.714844 181.992188 219.457031 182.25 219.210938 182.539062 L 218.410156 183.441406 C 216.085938 186.140625 213.125 188.449219 209.796875 189.949219 C 208.136719 190.699219 206.40625 191.246094 204.699219 191.660156 C 203.847656 191.863281 203 192.042969 202.171875 192.199219 L 199.769531 192.675781 C 196.601562 193.351562 193.457031 194.066406 190.832031 195.34375 C 189.523438 195.976562 188.058594 196.902344 186.484375 197.679688 C 184.921875 198.46875 183.324219 199.128906 181.730469 199.75 C 180.570312 200.203125 179.265625 199.628906 178.816406 198.46875 C 178.582031 197.875 178.621094 197.242188 178.871094 196.703125 L 178.882812 196.675781 C 178.941406 196.554688 178.996094 196.417969 179.042969 196.25 L 179.117188 195.980469 L 179.148438 195.84375 C 179.15625 195.796875 179.144531 195.859375 179.15625 195.785156 C 179.207031 195.449219 179.21875 195.027344 179.203125 194.652344 C 179.160156 193.882812 178.96875 193.207031 178.667969 192.742188 C 178.371094 192.277344 177.960938 191.96875 177.328125 191.746094 C 177.042969 191.601562 176.632812 191.582031 176.277344 191.496094 C 175.859375 191.472656 175.46875 191.445312 175.007812 191.441406 C 173.117188 191.472656 171.226562 191.792969 169.800781 192.515625 C 168.34375 193.242188 167.542969 194.332031 167.542969 195.449219 L 167.542969 195.476562 C 167.546875 196.707031 166.550781 197.707031 165.320312 197.707031 C 164.914062 197.707031 164.523438 197.59375 164.195312 197.40625 C 161.035156 195.566406 158.261719 193.519531 155.632812 191.039062 C 153.0625 188.566406 150.632812 185.652344 149.367188 181.855469 C 148.734375 179.976562 148.53125 177.835938 148.90625 175.789062 C 148.988281 175.273438 149.105469 174.773438 149.277344 174.285156 C 149.414062 173.785156 149.605469 173.316406 149.816406 172.855469 C 150.007812 172.378906 150.253906 171.949219 150.503906 171.523438 L 150.875 170.886719 L 151.21875 170.355469 L 156.699219 161.863281 L 162.179688 153.363281 L 164.917969 149.117188 L 166.289062 146.992188 C 166.496094 146.671875 166.78125 146.222656 167.097656 145.808594 C 167.414062 145.394531 167.753906 145.003906 168.117188 144.636719 C 168.84375 143.894531 169.675781 143.253906 170.574219 142.726562 C 171.023438 142.460938 171.492188 142.230469 171.972656 142.027344 L 173.242188 141.535156 C 174.902344 140.921875 176.582031 140.40625 178.273438 139.96875 C 181.65625 139.066406 185.089844 138.484375 188.53125 138.085938 C 191.976562 137.695312 195.433594 137.527344 198.882812 137.53125 C 200.609375 137.519531 202.328125 137.589844 204.050781 137.664062 L 206.625 137.824219 C 207.523438 137.882812 208.460938 138 209.355469 138.160156 C 210.242188 138.308594 211.183594 138.527344 211.980469 138.738281 L 214.433594 139.363281 L 219.339844 140.617188 L 229.148438 143.121094 C 230.808594 143.574219 232.332031 143.859375 234.226562 144.519531 C 236.015625 145.171875 237.714844 146.082031 239.242188 147.222656 C 240.765625 148.363281 242.128906 149.726562 243.257812 151.257812 C 243.820312 151.996094 244.355469 152.882812 244.765625 153.613281 L 246.015625 155.808594 L 256.070312 173.328125 C 262.816406 184.988281 269.625 196.605469 276.558594 208.144531 C 283.496094 219.675781 290.53125 231.15625 297.882812 242.386719 C 301.558594 247.992188 305.3125 253.578125 309.363281 258.792969 L 310.894531 260.78125 C 311.425781 261.492188 311.980469 262.1875 312.492188 262.914062 L 313.960938 265.144531 L 315.277344 267.460938 C 316.9375 270.613281 318.195312 273.964844 319.050781 277.398438 C 320.757812 284.285156 320.859375 291.421875 319.964844 298.316406 C 319.511719 301.769531 318.789062 305.171875 317.867188 308.515625 C 316.917969 311.878906 315.839844 315.09375 314.339844 318.398438 L 314.269531 316.316406 C 314.953125 317.597656 315.441406 318.734375 315.90625 319.992188 C 316.359375 321.230469 316.742188 322.5 317.019531 323.816406 C 317.5625 326.433594 317.75 329.28125 316.976562 332.136719 C 316.238281 334.984375 314.304688 337.628906 311.894531 339.214844 C 311.296875 339.613281 310.683594 339.996094 310.054688 340.296875 L 309.101562 340.75 C 308.738281 340.890625 308.363281 341.03125 308 341.152344 C 306.582031 341.566406 305.292969 341.730469 303.996094 341.894531 C 298.890625 342.402344 294.007812 342.328125 289.101562 342.355469 C 284.207031 342.355469 279.339844 342.34375 274.484375 342.441406 C 264.792969 342.648438 255.105469 343.21875 245.753906 345.136719 C 243.425781 345.640625 241.113281 346.191406 238.863281 346.898438 L 231.859375 349.078125 C 227.164062 350.507812 222.441406 351.90625 217.652344 353.101562 C 198.574219 358.003906 178.53125 360.351562 158.769531 358.195312 L 155.070312 357.839844 C 153.835938 357.71875 152.617188 357.464844 151.390625 357.289062 C 148.945312 356.878906 146.488281 356.535156 144.054688 356.070312 C 139.230469 354.9375 134.355469 354 129.644531 352.449219 C 120.085938 349.796875 110.96875 345.867188 101.980469 341.773438 L 102.964844 342 C 102.003906 341.945312 101.292969 341.878906 100.511719 341.804688 C 99.746094 341.726562 98.976562 341.640625 98.214844 341.53125 C 96.6875 341.324219 95.167969 341.070312 93.664062 340.765625 C 90.65625 340.15625 87.691406 339.375 84.78125 338.464844 C 81.878906 337.554688 79.023438 336.515625 76.160156 335.261719 C 73.3125 334.007812 70.589844 332.441406 68.011719 330.652344 C 62.84375 327.085938 58.5 322.179688 55.640625 316.519531 C 52.765625 310.855469 51.429688 304.515625 51.398438 298.269531 C 51.359375 292.007812 52.554688 285.804688 54.710938 279.984375 C 55.792969 277.070312 57.121094 274.246094 58.707031 271.558594 C 59.488281 270.210938 60.476562 268.933594 61.363281 267.621094 C 62.375 266.40625 63.410156 265.199219 64.5 264.0625 C 68.992188 259.605469 74.394531 256.273438 80.054688 253.8125 C 82.90625 252.613281 85.820312 251.597656 88.785156 250.765625 C 91.78125 249.964844 94.710938 249.316406 97.914062 248.929688 L 97.6875 248.964844 C 98.542969 248.808594 99.257812 248.707031 100.027344 248.625 C 100.78125 248.53125 101.535156 248.464844 102.285156 248.417969 C 103.792969 248.285156 105.289062 248.285156 106.785156 248.246094 C 109.777344 248.277344 112.769531 248.410156 115.726562 248.792969 C 121.640625 249.527344 127.496094 250.824219 133.101562 252.851562 C 134.527344 253.289062 135.871094 253.9375 137.261719 254.472656 L 139.328125 255.316406 C 140.015625 255.601562 140.664062 255.964844 141.335938 256.285156 L 145.332031 258.273438 L 149.164062 260.546875 L 151.078125 261.691406 C 151.71875 262.070312 152.300781 262.535156 152.914062 262.953125 L 156.542969 265.527344 L 157.449219 266.171875 L 158.304688 266.886719 L 160.011719 268.308594 L 163.421875 271.160156 L 160.332031 271.21875 C 163.371094 268.382812 166.503906 266.03125 169.828125 263.769531 C 173.148438 261.546875 176.625 259.550781 180.246094 257.828125 C 187.472656 254.398438 195.363281 252.003906 203.523438 251.660156 C 207.589844 251.476562 211.691406 251.777344 215.699219 252.578125 C 219.699219 253.449219 223.5625 254.824219 227.242188 256.5625 C 234.519531 260.226562 240.871094 265.410156 246.246094 271.316406 C 247.085938 272.242188 247.015625 273.667969 246.09375 274.507812 C 245.167969 275.347656 243.742188 275.277344 242.902344 274.355469 L 242.898438 274.351562 " fill-opacity="1" fill-rule="nonzero"/></g><path fill="#b76627" d="M 131.988281 330.730469 C 130.375 332.808594 128.273438 334.492188 126.042969 335.9375 C 123.796875 337.378906 121.347656 338.519531 118.808594 339.433594 C 117.53125 339.851562 116.246094 340.285156 114.925781 340.570312 C 113.613281 340.9375 112.277344 341.132812 110.9375 341.367188 C 109.597656 341.601562 108.246094 341.675781 106.890625 341.835938 C 105.535156 341.910156 104.179688 341.941406 102.816406 341.992188 C 101.5625 342.042969 100.507812 341.066406 100.460938 339.8125 C 100.414062 338.5625 101.390625 337.507812 102.640625 337.460938 C 102.746094 337.457031 102.847656 337.460938 102.949219 337.472656 L 103.117188 337.488281 C 104.363281 337.617188 105.617188 337.773438 106.875 337.886719 C 108.128906 337.914062 109.394531 338.03125 110.65625 337.996094 C 111.914062 337.953125 113.1875 337.957031 114.441406 337.792969 C 115.710938 337.703125 116.953125 337.476562 118.210938 337.257812 C 120.695312 336.746094 123.160156 336.011719 125.5 334.949219 C 127.828125 333.875 130.097656 332.546875 131.988281 330.730469 " fill-opacity="1" fill-rule="nonzero"/><path fill="#b76627" d="M 163.421875 271.15625 C 167.875 276.191406 171.757812 281.59375 175.15625 287.214844 C 170.570312 282.511719 165.636719 278.222656 160.394531 274.511719 C 159.371094 273.785156 159.128906 272.367188 159.855469 271.34375 C 160.582031 270.316406 162 270.078125 163.023438 270.800781 C 163.167969 270.902344 163.292969 271.015625 163.40625 271.140625 L 163.421875 271.15625 " fill-opacity="1" fill-rule="nonzero"/><path fill="#b76627" d="M 172.695312 160.273438 C 171.316406 162.625 170.03125 165.023438 168.839844 167.460938 C 167.667969 169.894531 166.5625 172.382812 165.808594 174.890625 C 165.445312 176.128906 165.15625 177.433594 165.214844 178.488281 C 165.234375 178.746094 165.277344 178.972656 165.339844 179.132812 C 165.371094 179.214844 165.40625 179.273438 165.4375 179.316406 C 165.457031 179.339844 165.46875 179.34375 165.484375 179.367188 L 165.640625 179.578125 L 166.867188 181.253906 C 168.476562 183.503906 170.011719 185.769531 171.523438 188.097656 C 172.207031 189.148438 171.90625 190.550781 170.855469 191.230469 C 169.808594 191.910156 168.40625 191.613281 167.722656 190.5625 C 167.664062 190.472656 167.613281 190.378906 167.570312 190.285156 L 167.558594 190.261719 C 166.445312 187.828125 165.261719 185.375 164.035156 182.988281 L 163.09375 181.207031 L 162.976562 180.984375 C 162.910156 180.859375 162.832031 180.722656 162.777344 180.589844 C 162.664062 180.328125 162.585938 180.0625 162.539062 179.8125 C 162.441406 179.3125 162.441406 178.855469 162.472656 178.433594 C 162.632812 176.757812 163.183594 175.433594 163.75 174.125 C 164.925781 171.546875 166.378906 169.207031 167.886719 166.914062 C 169.410156 164.632812 171.015625 162.421875 172.695312 160.273438 " fill-opacity="1" fill-rule="nonzero"/><path fill="#b76627" d="M 183.25 159.152344 C 182.019531 161.21875 180.902344 163.347656 179.925781 165.515625 C 178.957031 167.679688 178.101562 169.921875 177.707031 172.128906 C 177.53125 173.207031 177.472656 174.335938 177.753906 175.097656 C 177.8125 175.292969 177.898438 175.445312 177.992188 175.574219 L 178.441406 176.167969 L 179.542969 177.621094 C 181.003906 179.582031 182.40625 181.535156 183.785156 183.609375 C 184.480469 184.648438 184.195312 186.054688 183.152344 186.75 C 182.113281 187.441406 180.703125 187.160156 180.011719 186.117188 C 179.949219 186.019531 179.890625 185.921875 179.84375 185.820312 L 179.832031 185.789062 C 178.863281 183.679688 177.785156 181.527344 176.679688 179.433594 L 175.839844 177.863281 C 175.699219 177.597656 175.566406 177.382812 175.351562 176.921875 C 175.171875 176.519531 175.050781 176.101562 174.996094 175.710938 C 174.757812 174.109375 175.136719 172.796875 175.519531 171.566406 C 176.371094 169.132812 177.613281 167.015625 178.933594 164.972656 C 180.269531 162.941406 181.710938 161.003906 183.25 159.152344 " fill-opacity="1" fill-rule="nonzero"/><path fill="#b76627" d="M 203.957031 166.316406 C 203.304688 167.121094 202.714844 167.992188 202.351562 168.917969 C 201.988281 169.851562 201.953125 170.804688 202.085938 171.800781 L 202.285156 173.34375 C 202.34375 173.824219 202.410156 174.523438 202.265625 175.132812 C 202.027344 176.375 201.355469 177.433594 200.523438 178.316406 C 199.675781 179.199219 198.597656 179.890625 197.382812 180.285156 C 196.171875 180.683594 194.828125 180.761719 193.558594 180.527344 C 192.3125 180.289062 191.050781 179.882812 189.898438 178.964844 C 188.738281 178.078125 187.886719 176.707031 187.496094 175.339844 L 187.449219 175.179688 C 187.105469 173.96875 187.804688 172.710938 189.011719 172.367188 C 190.222656 172.019531 191.480469 172.71875 191.824219 173.925781 C 191.863281 174.0625 191.890625 174.210938 191.902344 174.347656 C 191.964844 175 192.140625 175.539062 192.546875 176.03125 C 192.925781 176.53125 193.636719 176.949219 194.378906 177.242188 C 195.835938 177.839844 197.605469 177.648438 199.019531 176.632812 C 199.710938 176.136719 200.335938 175.457031 200.632812 174.6875 C 200.933594 174.011719 200.867188 172.863281 200.957031 171.824219 C 201 170.757812 201.261719 169.589844 201.84375 168.667969 C 202.421875 167.742188 203.171875 166.992188 203.957031 166.316406 " fill-opacity="1" fill-rule="nonzero"/><path fill="#b76627" d="M 188.015625 175.824219 C 187.878906 175.691406 187.695312 175.460938 187.570312 175.191406 C 187.4375 174.925781 187.382812 174.664062 187.363281 174.511719 C 187.328125 174.195312 187.347656 174.167969 187.34375 174.140625 L 187.359375 174.410156 C 187.359375 172.613281 187.808594 171.089844 188.339844 169.683594 C 188.875 168.277344 189.570312 167.007812 190.308594 165.792969 C 191.785156 163.371094 193.507812 161.183594 195.359375 159.148438 C 194.125 161.597656 193.082031 164.136719 192.359375 166.699219 C 192.003906 167.976562 191.710938 169.261719 191.605469 170.503906 C 191.492188 171.738281 191.527344 172.945312 191.820312 173.871094 L 191.835938 174.140625 C 191.835938 174.140625 191.851562 174.148438 191.820312 173.867188 C 191.804688 173.726562 191.75 173.480469 191.628906 173.226562 C 191.507812 172.972656 191.335938 172.757812 191.210938 172.632812 C 192.09375 173.515625 192.09375 174.945312 191.210938 175.824219 C 190.328125 176.707031 188.898438 176.707031 188.015625 175.824219 " fill-opacity="1" fill-rule="nonzero"/><path fill="#b76627" d="M 225.417969 166.6875 C 224.929688 169.253906 224.171875 171.789062 223.203125 174.269531 C 222.726562 175.515625 222.183594 176.742188 221.570312 177.949219 C 220.976562 179.167969 220.269531 180.339844 219.53125 181.511719 C 218.933594 182.460938 217.679688 182.746094 216.730469 182.148438 C 215.78125 181.550781 215.496094 180.296875 216.097656 179.347656 C 216.191406 179.199219 216.296875 179.070312 216.421875 178.953125 L 216.457031 178.921875 C 217.347656 178.085938 218.242188 177.222656 219.0625 176.273438 C 219.894531 175.335938 220.691406 174.34375 221.4375 173.3125 C 222.9375 171.246094 224.296875 169.039062 225.417969 166.6875 " fill-opacity="1" fill-rule="nonzero"/><path fill="#b76627" d="M 292.457031 266.980469 C 294.953125 268.082031 296.9375 270.042969 298.515625 272.21875 C 300.078125 274.417969 301.25 276.921875 301.925781 279.546875 C 302.210938 280.867188 302.53125 282.191406 302.589844 283.542969 C 302.625 284.214844 302.679688 284.886719 302.683594 285.558594 C 302.660156 286.230469 302.613281 286.902344 302.558594 287.566406 C 302.496094 288.902344 302.132812 290.210938 301.828125 291.496094 C 301.425781 292.769531 300.929688 294.015625 300.292969 295.191406 C 299.933594 293.855469 299.835938 292.59375 299.613281 291.34375 C 299.347656 290.09375 299.285156 288.875 299.007812 287.679688 C 298.898438 287.078125 298.796875 286.484375 298.714844 285.890625 C 298.578125 285.304688 298.464844 284.722656 298.34375 284.136719 C 298.28125 283.847656 298.242188 283.554688 298.183594 283.261719 L 297.964844 282.402344 C 297.820312 281.832031 297.722656 281.246094 297.554688 280.683594 C 296.972656 278.398438 296.242188 276.164062 295.40625 273.910156 C 294.5625 271.644531 293.617188 269.398438 292.457031 266.980469 " fill-opacity="1" fill-rule="nonzero"/><path fill="#ffb178" d="M 71.445312 280.449219 C 73.125 289.25 85.511719 294.285156 99.109375 291.691406 C 112.707031 289.097656 122.367188 279.863281 120.6875 271.0625 C 119.007812 262.261719 106.621094 257.230469 93.023438 259.824219 C 79.425781 262.414062 69.765625 271.652344 71.445312 280.449219 " fill-opacity="1" fill-rule="nonzero"/><path fill="#ffb178" d="M 184.265625 274.503906 C 183.816406 282.441406 193.390625 289.433594 205.652344 290.125 C 217.914062 290.816406 228.214844 284.945312 228.664062 277.007812 C 229.113281 269.074219 219.535156 262.078125 207.277344 261.390625 C 195.015625 260.699219 184.710938 266.570312 184.265625 274.503906 " fill-opacity="1" fill-rule="nonzero"/><path fill="#ffb178" d="M 257.097656 237.675781 C 257.371094 235.675781 259.953125 235.0625 261.117188 236.707031 C 265.589844 243.023438 273.289062 254.953125 273.289062 262.179688 L 273.289062 285.011719 C 273.289062 286.230469 272.300781 287.214844 271.082031 287.214844 C 263.539062 287.214844 258.242188 276.761719 257.054688 269.316406 C 255.785156 261.332031 257.511719 256.742188 256.839844 252.023438 C 256.128906 247.0625 256.570312 241.570312 257.097656 237.675781 " fill-opacity="1" fill-rule="nonzero"/><g fill="#ffffff" fill-opacity="1"><g transform="translate(126.218137, 105.48071)"><g><path d="M 11.1875 -20.53125 C 12.257812 -18.957031 13.566406 -17.273438 15.109375 -15.484375 C 16.648438 -13.691406 18.476562 -12.1875 20.59375 -10.96875 C 22.707031 -9.75 25.125 -9.140625 27.84375 -9.140625 C 30 -9.140625 32.148438 -9.691406 34.296875 -10.796875 C 36.441406 -11.910156 38.25 -13.5625 39.71875 -15.75 C 41.195312 -17.9375 41.9375 -20.609375 41.9375 -23.765625 C 41.9375 -26.984375 41.34375 -29.5625 40.15625 -31.5 C 38.976562 -33.4375 37.421875 -34.832031 35.484375 -35.6875 C 33.546875 -36.550781 31.429688 -36.984375 29.140625 -36.984375 C 26.910156 -36.984375 24.664062 -36.640625 22.40625 -35.953125 C 20.15625 -35.273438 18.0625 -34.546875 16.125 -33.765625 L 12.90625 -42.25 L 33.109375 -64.515625 L 6.34375 -64.515625 L 6.34375 -75.265625 L 49.453125 -75.265625 L 51.609375 -70.953125 L 30.53125 -47.625 C 34.6875 -47.625 38.46875 -46.601562 41.875 -44.5625 C 45.28125 -42.519531 48.003906 -39.742188 50.046875 -36.234375 C 52.085938 -32.722656 53.109375 -28.78125 53.109375 -24.40625 C 53.109375 -19.25 51.867188 -14.75 49.390625 -10.90625 C 46.921875 -7.070312 43.695312 -4.113281 39.71875 -2.03125 C 35.75 0.0390625 31.503906 1.078125 26.984375 1.078125 C 22.753906 1.078125 19.113281 0.378906 16.0625 -1.015625 C 13.019531 -2.421875 10.390625 -4.335938 8.171875 -6.765625 C 5.953125 -9.203125 3.945312 -11.894531 2.15625 -14.84375 Z M 11.1875 -20.53125 "/></g></g><g transform="translate(183.09327, 105.48071)"><g><path d="M 29.453125 -76.546875 C 34.191406 -76.546875 38.53125 -75.4375 42.46875 -73.21875 C 46.40625 -71 49.554688 -67.988281 51.921875 -64.1875 C 54.296875 -60.382812 55.484375 -56.117188 55.484375 -51.390625 C 55.484375 -46.804688 54.40625 -41.695312 52.25 -36.0625 C 50.101562 -30.4375 47.628906 -24.648438 44.828125 -18.703125 L 35.90625 0 L 24.515625 0 L 24.078125 -1.078125 L 37.625 -29.78125 C 35.90625 -28.632812 34.0625 -27.738281 32.09375 -27.09375 C 30.125 -26.445312 28.0625 -26.125 25.90625 -26.125 C 21.820312 -26.125 18.0625 -27.195312 14.625 -29.34375 C 11.1875 -31.5 8.425781 -34.367188 6.34375 -37.953125 C 4.257812 -41.535156 3.21875 -45.441406 3.21875 -49.671875 C 3.21875 -54.898438 4.382812 -59.539062 6.71875 -63.59375 C 9.050781 -67.644531 12.203125 -70.816406 16.171875 -73.109375 C 20.148438 -75.398438 24.578125 -76.546875 29.453125 -76.546875 Z M 28.59375 -65.796875 C 25.007812 -65.796875 21.875 -64.503906 19.1875 -61.921875 C 16.5 -59.347656 15.15625 -55.726562 15.15625 -51.0625 C 15.15625 -48.769531 15.710938 -46.53125 16.828125 -44.34375 C 17.941406 -42.164062 19.5 -40.375 21.5 -38.96875 C 23.507812 -37.570312 25.804688 -36.875 28.390625 -36.875 C 31.460938 -36.875 34.070312 -37.535156 36.21875 -38.859375 C 38.375 -40.191406 40.039062 -41.929688 41.21875 -44.078125 C 42.40625 -46.234375 43 -48.53125 43 -50.96875 C 43 -53.613281 42.425781 -56.046875 41.28125 -58.265625 C 40.132812 -60.492188 38.484375 -62.304688 36.328125 -63.703125 C 34.179688 -65.097656 31.601562 -65.796875 28.59375 -65.796875 Z M 28.59375 -65.796875 "/></g></g></g></svg>