<svg xmlns="http://www.w3.org/2000/svg" xmlns:xlink="http://www.w3.org/1999/xlink" width="500" zoomAndPan="magnify" viewBox="0 0 375 374.999991" height="500" preserveAspectRatio="xMidYMid meet" version="1.0"><defs><g/><clipPath id="f217ac75ff"><path d="M 6.570312 0 L 369.714844 0 L 369.714844 375 L 6.570312 375 Z M 6.570312 0 " clip-rule="nonzero"/></clipPath><clipPath id="1579b13fb8"><path d="M 20.820312 0 L 355.464844 0 C 359.242188 0 362.867188 1.5 365.539062 4.171875 C 368.210938 6.847656 369.714844 10.46875 369.714844 14.25 L 369.714844 360.75 C 369.714844 364.527344 368.210938 368.152344 365.539062 370.828125 C 362.867188 373.5 359.242188 375 355.464844 375 L 20.820312 375 C 17.039062 375 13.414062 373.5 10.742188 370.828125 C 8.070312 368.152344 6.570312 364.527344 6.570312 360.75 L 6.570312 14.25 C 6.570312 10.46875 8.070312 6.847656 10.742188 4.171875 C 13.414062 1.5 17.039062 0 20.820312 0 Z M 20.820312 0 " clip-rule="nonzero"/></clipPath><clipPath id="69a1109ba2"><path d="M 65 123 L 325 123 L 325 357.585938 L 65 357.585938 Z M 65 123 " clip-rule="nonzero"/></clipPath></defs><g clip-path="url(#f217ac75ff)"><g clip-path="url(#1579b13fb8)"><path fill="#fbbd06" d="M 6.570312 0 L 369.714844 0 L 369.714844 374.492188 L 6.570312 374.492188 Z M 6.570312 0 " fill-opacity="1" fill-rule="nonzero"/></g></g><g clip-path="url(#69a1109ba2)"><path fill="#c6302c" d="M 324.101562 181.578125 C 309.480469 106.441406 217.839844 105.1875 195.242188 175.425781 C 172.644531 105.1875 81 106.441406 66.378906 181.578125 C 53.113281 249.746094 195.242188 357.292969 195.242188 357.292969 C 195.242188 357.292969 337.367188 249.746094 324.101562 181.578125 Z M 324.101562 181.578125 " fill-opacity="1" fill-rule="nonzero"/></g><g fill="#ffffff" fill-opacity="1"><g transform="translate(118.30243, 105.48071)"><g><path d="M 37.84375 0 L 37.84375 -20.421875 L 8.171875 -20.421875 L 3.21875 -30.109375 L 40.109375 -75.265625 L 49.03125 -75.265625 L 49.03125 -31.078125 L 62.140625 -31.078125 L 62.140625 -20.421875 L 49.03125 -20.421875 L 49.03125 0 Z M 16.875 -31.078125 L 37.84375 -31.078125 L 37.84375 -56.65625 Z M 16.875 -31.078125 "/></g></g></g><g fill="#ffffff" fill-opacity="1"><g transform="translate(184.961383, 105.48071)"><g><path d="M 32.578125 1.078125 C 26.554688 1.078125 21.484375 -0.585938 17.359375 -3.921875 C 13.242188 -7.253906 10.144531 -11.820312 8.0625 -17.625 C 5.988281 -23.4375 4.953125 -30.101562 4.953125 -37.625 C 4.953125 -45.15625 5.988281 -51.820312 8.0625 -57.625 C 10.144531 -63.4375 13.242188 -68.007812 17.359375 -71.34375 C 21.484375 -74.675781 26.554688 -76.34375 32.578125 -76.34375 C 38.671875 -76.34375 43.757812 -74.675781 47.84375 -71.34375 C 51.925781 -68.007812 55.023438 -63.4375 57.140625 -57.625 C 59.253906 -51.820312 60.3125 -45.15625 60.3125 -37.625 C 60.3125 -30.101562 59.253906 -23.4375 57.140625 -17.625 C 55.023438 -11.820312 51.925781 -7.253906 47.84375 -3.921875 C 43.757812 -0.585938 38.671875 1.078125 32.578125 1.078125 Z M 32.578125 -9.46875 C 37.734375 -9.46875 41.765625 -11.898438 44.671875 -16.765625 C 47.578125 -21.640625 49.03125 -28.59375 49.03125 -37.625 C 49.03125 -46.65625 47.578125 -53.609375 44.671875 -58.484375 C 41.765625 -63.359375 37.734375 -65.796875 32.578125 -65.796875 C 27.421875 -65.796875 23.390625 -63.359375 20.484375 -58.484375 C 17.578125 -53.609375 16.125 -46.65625 16.125 -37.625 C 16.125 -28.59375 17.578125 -21.640625 20.484375 -16.765625 C 23.390625 -11.898438 27.421875 -9.46875 32.578125 -9.46875 Z M 32.578125 -9.46875 "/></g></g></g></svg>