<svg xmlns="http://www.w3.org/2000/svg" xmlns:xlink="http://www.w3.org/1999/xlink" width="500" zoomAndPan="magnify" viewBox="0 0 375 374.999991" height="500" preserveAspectRatio="xMidYMid meet" version="1.0"><defs><g/><clipPath id="747ff9e21e"><path d="M 7.472656 0 L 368.804688 0 L 368.804688 373 L 7.472656 373 Z M 7.472656 0 " clip-rule="nonzero"/></clipPath><clipPath id="db85b14e07"><path d="M 21.722656 0 L 354.554688 0 C 362.425781 0 368.804688 6.378906 368.804688 14.25 L 368.804688 358.878906 C 368.804688 366.746094 362.425781 373.128906 354.554688 373.128906 L 21.722656 373.128906 C 13.851562 373.128906 7.472656 366.746094 7.472656 358.878906 L 7.472656 14.25 C 7.472656 6.378906 13.851562 0 21.722656 0 Z M 21.722656 0 " clip-rule="nonzero"/></clipPath></defs><g clip-path="url(#747ff9e21e)"><g clip-path="url(#db85b14e07)"><path fill="#a6dbf4" d="M 7.472656 0 L 368.804688 0 L 368.804688 372.625 L 7.472656 372.625 Z M 7.472656 0 " fill-opacity="1" fill-rule="nonzero"/></g></g><path fill="#039834" d="M 284.402344 243.070312 C 274.359375 234.347656 249.457031 231.722656 226.828125 231.195312 C 248.335938 228.039062 270.929688 222.671875 279.496094 213.332031 C 291.101562 200.675781 290.246094 181.015625 277.585938 169.417969 C 269.054688 161.601562 257.339844 159.449219 247.054688 162.742188 C 249.445312 152.21875 246.28125 140.742188 237.75 132.925781 C 225.089844 121.328125 205.414062 122.179688 193.8125 134.835938 C 184.707031 144.765625 181.507812 169.839844 180.449219 192.542969 C 179.390625 169.839844 176.191406 144.765625 167.089844 134.835938 C 155.484375 122.179688 135.808594 121.328125 123.148438 132.925781 C 114.613281 140.742188 111.453125 152.21875 113.84375 162.742188 C 103.558594 159.449219 91.84375 161.601562 83.3125 169.417969 C 70.648438 181.015625 69.792969 200.675781 81.402344 213.328125 C 90.027344 222.734375 112.878906 228.113281 134.519531 231.261719 C 112.59375 231.925781 89.15625 234.671875 79.484375 243.066406 C 66.519531 254.324219 65.140625 273.957031 76.402344 286.914062 C 83.996094 295.644531 95.386719 299.109375 105.980469 297.003906 C 102.414062 307.191406 104.253906 318.949219 111.84375 327.683594 C 123.109375 340.640625 142.753906 342.023438 155.71875 330.761719 C 165.648438 322.136719 171.625 298.527344 175.277344 276.53125 C 174.820312 287.054688 175.015625 297.695312 176.300781 308.355469 C 177.65625 319.582031 180.226562 330.851562 184.625 341.636719 C 189 352.410156 195.289062 362.636719 203.332031 371.355469 L 203.386719 371.414062 C 203.460938 371.492188 203.535156 371.570312 203.609375 371.644531 C 206.816406 374.828125 218.355469 363.234375 215.148438 360.050781 C 208.179688 353.121094 202.53125 344.851562 198.347656 335.722656 C 194.148438 326.597656 191.378906 316.667969 189.691406 306.457031 C 188.003906 296.234375 187.382812 285.726562 187.457031 275.160156 C 187.46875 273.382812 187.507812 271.601562 187.558594 269.820312 C 191.082031 293.515625 197.222656 321.25 208.175781 330.761719 C 221.136719 342.023438 240.785156 340.640625 252.046875 327.683594 C 259.636719 318.949219 261.480469 307.191406 257.910156 297.003906 C 268.503906 299.109375 279.898438 295.644531 287.488281 286.914062 C 298.75 273.957031 297.371094 254.324219 284.402344 243.070312 Z M 284.402344 243.070312 " fill-opacity="1" fill-rule="nonzero"/><g fill="#ffffff" fill-opacity="1"><g transform="translate(124.381971, 104.954023)"><g><path d="M 37.65625 0 L 37.65625 -20.328125 L 8.125 -20.328125 L 3.203125 -29.953125 L 39.90625 -74.890625 L 48.78125 -74.890625 L 48.78125 -30.921875 L 61.84375 -30.921875 L 61.84375 -20.328125 L 48.78125 -20.328125 L 48.78125 0 Z M 16.796875 -30.921875 L 37.65625 -30.921875 L 37.65625 -56.375 Z M 16.796875 -30.921875 "/></g></g></g><g fill="#ffffff" fill-opacity="1"><g transform="translate(190.708081, 104.954023)"><g><path d="M 47.078125 0 L 11.34375 0 L 11.34375 -11.125 L 23.21875 -11.125 L 23.21875 -60.875 L 12.40625 -55.203125 L 9.3125 -65.265625 L 29.3125 -75.953125 L 34.875 -75.953125 L 34.875 -11.125 L 47.078125 -11.125 Z M 47.078125 0 "/></g></g></g></svg>