<svg xmlns="http://www.w3.org/2000/svg" xmlns:xlink="http://www.w3.org/1999/xlink" width="500" zoomAndPan="magnify" viewBox="0 0 375 374.999991" height="500" preserveAspectRatio="xMidYMid meet" version="1.0"><defs><g/><clipPath id="f7bd2bed48"><path d="M 6.570312 0 L 369.714844 0 L 369.714844 375 L 6.570312 375 Z M 6.570312 0 " clip-rule="nonzero"/></clipPath><clipPath id="4b68405080"><path d="M 20.820312 0 L 355.464844 0 C 359.242188 0 362.867188 1.5 365.539062 4.171875 C 368.210938 6.847656 369.714844 10.46875 369.714844 14.25 L 369.714844 360.75 C 369.714844 364.527344 368.210938 368.152344 365.539062 370.828125 C 362.867188 373.5 359.242188 375 355.464844 375 L 20.820312 375 C 17.039062 375 13.414062 373.5 10.742188 370.828125 C 8.070312 368.152344 6.570312 364.527344 6.570312 360.75 L 6.570312 14.25 C 6.570312 10.46875 8.070312 6.847656 10.742188 4.171875 C 13.414062 1.5 17.039062 0 20.820312 0 Z M 20.820312 0 " clip-rule="nonzero"/></clipPath><clipPath id="40cfafaf42"><path d="M 73.792969 246.78125 L 180.601562 246.78125 L 180.601562 368.859375 L 73.792969 368.859375 Z M 73.792969 246.78125 " clip-rule="nonzero"/></clipPath><clipPath id="7db87b643c"><path d="M 222.863281 184.695312 L 316.914062 184.695312 L 316.914062 354.519531 L 222.863281 354.519531 Z M 222.863281 184.695312 " clip-rule="nonzero"/></clipPath><clipPath id="96c1e73c5f"><path d="M 73.207031 289 L 127 289 L 127 368.859375 L 73.207031 368.859375 Z M 73.207031 289 " clip-rule="nonzero"/></clipPath></defs><g clip-path="url(#f7bd2bed48)"><g clip-path="url(#4b68405080)"><path fill="#00bf63" d="M 6.570312 0 L 369.714844 0 L 369.714844 374.492188 L 6.570312 374.492188 Z M 6.570312 0 " fill-opacity="1" fill-rule="nonzero"/></g></g><path fill="#91908a" d="M 154.632812 273.316406 C 166.167969 283.199219 183.472656 288.140625 180.175781 299.671875 C 194.1875 294.730469 199.953125 291.433594 214.785156 293.082031 C 224.5 294.164062 234.210938 291.710938 239.988281 292.199219 C 240.390625 288.78125 241.023438 285.238281 241.980469 281.550781 C 247.75 259.3125 241.980469 237.074219 227.972656 226.363281 C 223.101562 222.640625 222.15625 219.914062 223.488281 217.457031 C 221.453125 218.871094 219.382812 220.421875 217.257812 222.246094 C 207.488281 230.644531 195.007812 233.777344 180.585938 240.367188 C 166.164062 246.957031 159.574219 258.488281 144.742188 257.664062 C 129.910156 256.839844 119.984375 259.476562 98.421875 254.101562 C 100.5 254.765625 102.746094 255.40625 105.1875 256.015625 C 121.667969 260.136719 143.09375 263.429688 154.632812 273.316406 " fill-opacity="1" fill-rule="nonzero"/><path fill="#91908a" d="M 258.359375 184.695312 C 258.105469 184.480469 257.847656 184.261719 257.59375 184.042969 C 252.292969 191.445312 247.203125 198.28125 244.199219 201.65625 C 249.019531 196.941406 254.070312 190.578125 258.359375 184.695312 " fill-opacity="1" fill-rule="nonzero"/><g clip-path="url(#40cfafaf42)"><path fill="#6d6d69" d="M 180.175781 299.671875 C 183.472656 288.140625 166.167969 283.199219 154.632812 273.316406 C 143.09375 263.429688 121.667969 260.136719 105.1875 256.015625 C 102.746094 255.40625 100.5 254.765625 98.421875 254.101562 C 91.390625 252.347656 85.730469 249.667969 81.054688 246.820312 C 77.640625 259.921875 74.863281 274.449219 73.847656 289.007812 C 77.070312 291.0625 79.890625 293.953125 81.292969 298.023438 C 85.824219 311.203125 82.117188 318.617188 95.300781 333.445312 C 107.328125 346.972656 118.671875 341.992188 126.828125 368.539062 C 129.363281 368.746094 131.960938 368.863281 134.628906 368.863281 C 145.191406 368.863281 156.125 367.828125 166.878906 366.355469 C 166.992188 341.679688 166.167969 304.613281 180.175781 299.671875 " fill-opacity="1" fill-rule="nonzero"/></g><g clip-path="url(#7db87b643c)"><path fill="#95928b" d="M 223.488281 217.453125 C 222.152344 219.914062 223.101562 222.640625 227.972656 226.367188 C 241.980469 237.074219 247.75 259.3125 241.980469 281.550781 C 241.023438 285.238281 240.390625 288.78125 239.988281 292.199219 C 243.035156 292.460938 244.992188 293.535156 245.277344 296.378906 C 245.726562 300.867188 246.664062 329.402344 247.425781 354.433594 C 270.542969 350.847656 299.285156 343.15625 309.550781 330.972656 C 322.734375 315.324219 315.320312 257.664062 309.550781 249.015625 C 303.78125 240.367188 300.488281 218.128906 274.117188 197.535156 C 268.480469 193.136719 263.226562 188.847656 258.359375 184.699219 C 254.070312 190.578125 249.019531 196.941406 244.199219 201.65625 C 237.601562 209.058594 230.8125 212.351562 223.488281 217.453125 " fill-opacity="1" fill-rule="nonzero"/></g><path fill="#83827c" d="M 239.988281 292.199219 C 234.210938 291.710938 224.5 294.164062 214.785156 293.082031 C 199.953125 291.433594 194.1875 294.730469 180.175781 299.671875 C 176.878906 311.203125 171.9375 325.207031 173.585938 332.621094 C 174.945312 338.75 176.304688 349.390625 173.007812 365.46875 C 194.644531 362.179688 215.078125 357.546875 229.617188 356.507812 C 231.679688 356.359375 233.910156 356.15625 236.261719 355.902344 C 239.472656 349.292969 241.980469 341.53125 241.980469 334.265625 C 241.980469 323.269531 237.96875 309.40625 239.988281 292.199219 " fill-opacity="1" fill-rule="nonzero"/><path fill="#6d6d69" d="M 173.585938 332.621094 C 171.9375 325.207031 176.878906 311.203125 180.175781 299.671875 C 166.167969 304.613281 166.992188 341.679688 166.878906 366.355469 C 168.929688 366.074219 170.972656 365.777344 173.007812 365.46875 C 176.304688 349.390625 174.945312 338.75 173.585938 332.621094 " fill-opacity="1" fill-rule="nonzero"/><path fill="#95928b" d="M 239.988281 292.199219 C 237.96875 309.40625 241.980469 323.269531 241.980469 334.265625 C 241.980469 341.53125 239.472656 349.292969 236.261719 355.902344 C 239.742188 355.53125 243.5 355.042969 247.425781 354.433594 C 246.664062 329.402344 245.726562 300.867188 245.277344 296.378906 C 244.992188 293.535156 243.035156 292.457031 239.988281 292.199219 " fill-opacity="1" fill-rule="nonzero"/><path fill="#a5a198" d="M 221.378906 145.644531 C 213.136719 132.464844 202.695312 127.363281 195.832031 129.171875 C 180.695312 133.160156 104.363281 186.003906 95.300781 205.773438 C 91.175781 214.765625 85.691406 229.226562 81.242188 246.105469 C 85.753906 249.046875 91.042969 251.742188 98.421875 254.101562 C 119.984375 259.476562 129.910156 256.84375 144.742188 257.664062 C 159.574219 258.488281 166.164062 246.957031 180.585938 240.367188 C 195.007812 233.777344 207.488281 230.644531 217.257812 222.246094 C 219.382812 220.421875 221.453125 218.875 223.488281 217.453125 C 225.988281 212.84375 236.507812 209.175781 244.195312 201.65625 C 247.203125 198.28125 252.292969 191.445312 257.59375 184.046875 C 240.097656 169.042969 227.765625 155.859375 221.378906 145.644531 " fill-opacity="1" fill-rule="nonzero"/><path fill="#a5a198" d="M 81.242188 246.105469 C 81.179688 246.34375 81.117188 246.578125 81.054688 246.820312 C 85.730469 249.667969 91.390625 252.347656 98.421875 254.101562 C 91.042969 251.742188 85.753906 249.046875 81.242188 246.105469 " fill-opacity="1" fill-rule="nonzero"/><path fill="#a5a198" d="M 244.199219 201.65625 C 236.507812 209.175781 225.988281 212.84375 223.488281 217.457031 C 230.808594 212.351562 237.601562 209.058594 244.199219 201.65625 " fill-opacity="1" fill-rule="nonzero"/><g clip-path="url(#96c1e73c5f)"><path fill="#65635d" d="M 95.300781 333.445312 C 82.117188 318.617188 85.824219 311.203125 81.292969 298.023438 C 79.890625 293.953125 77.070312 291.0625 73.847656 289.007812 C 73.304688 296.742188 73.257812 304.488281 73.875 312.027344 C 76.910156 349.21875 97.070312 366.113281 126.828125 368.539062 C 118.671875 341.992188 107.328125 346.972656 95.300781 333.445312 " fill-opacity="1" fill-rule="nonzero"/></g><g fill="#ffffff" fill-opacity="1"><g transform="translate(121.477412, 105.48071)"><g><path d="M 37.84375 0 L 37.84375 -20.421875 L 8.171875 -20.421875 L 3.21875 -30.109375 L 40.109375 -75.265625 L 49.03125 -75.265625 L 49.03125 -31.078125 L 62.140625 -31.078125 L 62.140625 -20.421875 L 49.03125 -20.421875 L 49.03125 0 Z M 16.875 -31.078125 L 37.84375 -31.078125 L 37.84375 -56.65625 Z M 16.875 -31.078125 "/></g></g></g><g fill="#ffffff" fill-opacity="1"><g transform="translate(188.136364, 105.48071)"><g><path d="M 55.484375 -11.1875 L 55.484375 0 L 10 0 L 6.453125 -8.8125 L 29.453125 -34.734375 C 32.398438 -38.023438 35.085938 -41.316406 37.515625 -44.609375 C 39.953125 -47.910156 41.171875 -51.28125 41.171875 -54.71875 C 41.171875 -58.300781 40.128906 -61.003906 38.046875 -62.828125 C 35.972656 -64.660156 33.253906 -65.578125 29.890625 -65.578125 C 28.242188 -65.578125 26.414062 -65.078125 24.40625 -64.078125 C 22.394531 -63.078125 20.492188 -61.5 18.703125 -59.34375 C 16.910156 -57.195312 15.476562 -54.367188 14.40625 -50.859375 L 5.484375 -56.453125 C 7.421875 -63.109375 10.769531 -68.085938 15.53125 -71.390625 C 20.300781 -74.691406 25.550781 -76.34375 31.28125 -76.34375 C 35.375 -76.34375 39.066406 -75.5 42.359375 -73.8125 C 45.660156 -72.125 48.273438 -69.738281 50.203125 -66.65625 C 52.140625 -63.570312 53.109375 -59.878906 53.109375 -55.578125 C 53.109375 -50.640625 51.617188 -45.75 48.640625 -40.90625 C 45.671875 -36.070312 42.035156 -31.289062 37.734375 -26.5625 L 23.65625 -11.1875 Z M 55.484375 -11.1875 "/></g></g></g></svg>