<svg xmlns="http://www.w3.org/2000/svg" xmlns:xlink="http://www.w3.org/1999/xlink" width="500" zoomAndPan="magnify" viewBox="0 0 375 374.999991" height="500" preserveAspectRatio="xMidYMid meet" version="1.0"><defs><g/><clipPath id="9fc503c28a"><path d="M 8.429688 0 L 367.839844 0 L 367.839844 371 L 8.429688 371 Z M 8.429688 0 " clip-rule="nonzero"/></clipPath><clipPath id="01def438b8"><path d="M 22.679688 0 L 353.589844 0 C 357.367188 0 360.992188 1.5 363.664062 4.171875 C 366.335938 6.847656 367.839844 10.46875 367.839844 14.25 L 367.839844 356.890625 C 367.839844 360.671875 366.335938 364.296875 363.664062 366.96875 C 360.992188 369.640625 357.367188 371.140625 353.589844 371.140625 L 22.679688 371.140625 C 18.902344 371.140625 15.277344 369.640625 12.605469 366.96875 C 9.929688 364.296875 8.429688 360.671875 8.429688 356.890625 L 8.429688 14.25 C 8.429688 10.46875 9.929688 6.847656 12.605469 4.171875 C 15.277344 1.5 18.902344 0 22.679688 0 Z M 22.679688 0 " clip-rule="nonzero"/></clipPath><clipPath id="68b8d36675"><path d="M 140 181 L 271 181 L 271 356 L 140 356 Z M 140 181 " clip-rule="nonzero"/></clipPath><clipPath id="47b196d6e2"><path d="M 282.445312 346.324219 L 149.75 374.953125 L 98.972656 139.621094 L 231.671875 110.988281 Z M 282.445312 346.324219 " clip-rule="nonzero"/></clipPath><clipPath id="f12949676c"><path d="M 282.445312 346.324219 L 149.75 374.953125 L 98.972656 139.621094 L 231.671875 110.988281 Z M 282.445312 346.324219 " clip-rule="nonzero"/></clipPath><clipPath id="1422d2725b"><path d="M 160 125 L 210 125 L 210 173 L 160 173 Z M 160 125 " clip-rule="nonzero"/></clipPath><clipPath id="4b5d7beff1"><path d="M 282.445312 346.324219 L 149.75 374.953125 L 98.972656 139.621094 L 231.671875 110.988281 Z M 282.445312 346.324219 " clip-rule="nonzero"/></clipPath><clipPath id="8b105a08f0"><path d="M 282.445312 346.324219 L 149.75 374.953125 L 98.972656 139.621094 L 231.671875 110.988281 Z M 282.445312 346.324219 " clip-rule="nonzero"/></clipPath></defs><g clip-path="url(#9fc503c28a)"><g clip-path="url(#01def438b8)"><path fill="#5c71f1" d="M 8.429688 0 L 367.839844 0 L 367.839844 370.640625 L 8.429688 370.640625 Z M 8.429688 0 " fill-opacity="1" fill-rule="nonzero"/></g></g><g fill="#ffffff" fill-opacity="1"><g transform="translate(123.168291, 104.395391)"><g><path d="M 37.453125 0 L 37.453125 -20.21875 L 8.09375 -20.21875 L 3.1875 -29.796875 L 39.6875 -74.484375 L 48.515625 -74.484375 L 48.515625 -30.75 L 61.5 -30.75 L 61.5 -20.21875 L 48.515625 -20.21875 L 48.515625 0 Z M 16.703125 -30.75 L 37.453125 -30.75 L 37.453125 -56.078125 Z M 16.703125 -30.75 "/></g></g></g><g fill="#ffffff" fill-opacity="1"><g transform="translate(189.141372, 104.395391)"><g><path d="M 11.0625 -20.328125 C 12.125 -18.765625 13.414062 -17.09375 14.9375 -15.3125 C 16.46875 -13.539062 18.28125 -12.050781 20.375 -10.84375 C 22.46875 -9.644531 24.863281 -9.046875 27.5625 -9.046875 C 29.6875 -9.046875 31.8125 -9.59375 33.9375 -10.6875 C 36.070312 -11.789062 37.863281 -13.421875 39.3125 -15.578125 C 40.769531 -17.742188 41.5 -20.390625 41.5 -23.515625 C 41.5 -26.703125 40.910156 -29.253906 39.734375 -31.171875 C 38.566406 -33.085938 37.023438 -34.472656 35.109375 -35.328125 C 33.191406 -36.179688 31.101562 -36.609375 28.84375 -36.609375 C 26.632812 -36.609375 24.410156 -36.269531 22.171875 -35.59375 C 19.941406 -34.914062 17.867188 -34.1875 15.953125 -33.40625 L 12.765625 -41.8125 L 32.765625 -63.84375 L 6.28125 -63.84375 L 6.28125 -74.484375 L 48.953125 -74.484375 L 51.078125 -70.234375 L 30.21875 -47.140625 C 34.332031 -47.140625 38.070312 -46.128906 41.4375 -44.109375 C 44.8125 -42.085938 47.507812 -39.335938 49.53125 -35.859375 C 51.550781 -32.378906 52.5625 -28.476562 52.5625 -24.15625 C 52.5625 -19.050781 51.335938 -14.597656 48.890625 -10.796875 C 46.441406 -7.003906 43.25 -4.078125 39.3125 -2.015625 C 35.375 0.0351562 31.171875 1.0625 26.703125 1.0625 C 22.523438 1.0625 18.925781 0.375 15.90625 -1 C 12.894531 -2.382812 10.285156 -4.285156 8.078125 -6.703125 C 5.878906 -9.117188 3.894531 -11.78125 2.125 -14.6875 Z M 11.0625 -20.328125 "/></g></g></g><g clip-path="url(#68b8d36675)"><g clip-path="url(#47b196d6e2)"><g clip-path="url(#f12949676c)"><path fill="#343434" d="M 213.304688 186.414062 C 226.234375 205.414062 231.960938 222.972656 220.347656 242.304688 C 212.21875 259.507812 185.835938 280.59375 187.296875 299.789062 C 190.253906 339.230469 237.625 318.5625 227.671875 291.65625 C 222.589844 277.945312 227.1875 270.878906 236.660156 263.6875 C 249.507812 253.898438 259.492188 251.910156 268.566406 287.363281 C 274.785156 311.699219 260.988281 337.9375 238.042969 347.40625 C 210.945312 361.480469 163.503906 357.644531 147.175781 329.988281 C 135.21875 310.035156 139.546875 281.542969 156.652344 262.761719 C 183.351562 233.414062 196.042969 224.714844 190.199219 197.367188 C 187.417969 184.261719 205.476562 174.933594 213.304688 186.414062 Z M 213.304688 186.414062 " fill-opacity="1" fill-rule="nonzero"/></g></g></g><g clip-path="url(#1422d2725b)"><g clip-path="url(#4b5d7beff1)"><g clip-path="url(#8b105a08f0)"><path fill="#343434" d="M 163.484375 160.074219 C 160.261719 153.945312 159.027344 146.488281 161.503906 139.875 C 166.84375 125.5 181.871094 123.902344 194.5 126.234375 C 205.222656 128.191406 211.800781 139.570312 209.5 149.925781 C 206.738281 162.304688 199.210938 169.871094 189.246094 171.585938 C 175.917969 173.882812 169.203125 170.984375 163.484375 160.074219 Z M 163.484375 160.074219 " fill-opacity="1" fill-rule="nonzero"/></g></g></g></svg>