<svg xmlns="http://www.w3.org/2000/svg" xmlns:xlink="http://www.w3.org/1999/xlink" width="500" zoomAndPan="magnify" viewBox="0 0 375 374.999991" height="500" preserveAspectRatio="xMidYMid meet" version="1.0"><defs><g/><clipPath id="84f9afb147"><path d="M 6.570312 0 L 369.714844 0 L 369.714844 374.492188 L 6.570312 374.492188 Z M 6.570312 0 " clip-rule="nonzero"/></clipPath><clipPath id="d1a16b3e59"><path d="M 20.820312 0 L 355.464844 0 C 359.242188 0 362.867188 1.5 365.539062 4.171875 C 368.210938 6.847656 369.714844 10.46875 369.714844 14.25 L 369.714844 360.75 C 369.714844 364.527344 368.210938 368.152344 365.539062 370.828125 C 362.867188 373.5 359.242188 375 355.464844 375 L 20.820312 375 C 17.039062 375 13.414062 373.5 10.742188 370.828125 C 8.070312 368.152344 6.570312 364.527344 6.570312 360.75 L 6.570312 14.25 C 6.570312 10.46875 8.070312 6.847656 10.742188 4.171875 C 13.414062 1.5 17.039062 0 20.820312 0 Z M 20.820312 0 " clip-rule="nonzero"/></clipPath><linearGradient x1="0" gradientTransform="matrix(1.418537, 0, 0, 1.418537, 6.56844, 0)" y1="0" x2="0" gradientUnits="userSpaceOnUse" y2="264.000002" id="fc846f6693"><stop stop-opacity="1" stop-color="rgb(48.599243%, 21.598816%, 8.198547%)" offset="0"/><stop stop-opacity="1" stop-color="rgb(48.550415%, 21.687317%, 8.535767%)" offset="0.00390625"/><stop stop-opacity="1" stop-color="rgb(48.501587%, 21.775818%, 8.872986%)" offset="0.0078125"/><stop stop-opacity="1" stop-color="rgb(48.452759%, 21.864319%, 9.208679%)" offset="0.0117188"/><stop stop-opacity="1" stop-color="rgb(48.403931%, 21.95282%, 9.545898%)" offset="0.015625"/><stop stop-opacity="1" stop-color="rgb(48.355103%, 22.041321%, 9.881592%)" offset="0.0195312"/><stop stop-opacity="1" stop-color="rgb(48.306274%, 22.129822%, 10.218811%)" offset="0.0234375"/><stop stop-opacity="1" stop-color="rgb(48.257446%, 22.218323%, 10.55603%)" offset="0.0273438"/><stop stop-opacity="1" stop-color="rgb(48.208618%, 22.30835%, 10.89325%)" offset="0.03125"/><stop stop-opacity="1" stop-color="rgb(48.15979%, 22.396851%, 11.228943%)" offset="0.0351562"/><stop stop-opacity="1" stop-color="rgb(48.110962%, 22.485352%, 11.566162%)" offset="0.0390625"/><stop stop-opacity="1" stop-color="rgb(48.062134%, 22.573853%, 11.901855%)" offset="0.0429688"/><stop stop-opacity="1" stop-color="rgb(48.013306%, 22.662354%, 12.239075%)" offset="0.046875"/><stop stop-opacity="1" stop-color="rgb(47.964478%, 22.750854%, 12.574768%)" offset="0.0507812"/><stop stop-opacity="1" stop-color="rgb(47.917175%, 22.839355%, 12.911987%)" offset="0.0546875"/><stop stop-opacity="1" stop-color="rgb(47.868347%, 22.927856%, 13.249207%)" offset="0.0585938"/><stop stop-opacity="1" stop-color="rgb(47.819519%, 23.016357%, 13.586426%)" offset="0.0625"/><stop stop-opacity="1" stop-color="rgb(47.770691%, 23.104858%, 13.922119%)" offset="0.0664062"/><stop stop-opacity="1" stop-color="rgb(47.721863%, 23.193359%, 14.259338%)" offset="0.0703125"/><stop stop-opacity="1" stop-color="rgb(47.673035%, 23.28186%, 14.595032%)" offset="0.0742187"/><stop stop-opacity="1" stop-color="rgb(47.624207%, 23.370361%, 14.932251%)" offset="0.078125"/><stop stop-opacity="1" stop-color="rgb(47.575378%, 23.458862%, 15.26947%)" offset="0.0820312"/><stop stop-opacity="1" stop-color="rgb(47.52655%, 23.547363%, 15.606689%)" offset="0.0859375"/><stop stop-opacity="1" stop-color="rgb(47.477722%, 23.635864%, 15.942383%)" offset="0.0898438"/><stop stop-opacity="1" stop-color="rgb(47.428894%, 23.724365%, 16.279602%)" offset="0.09375"/><stop stop-opacity="1" stop-color="rgb(47.380066%, 23.812866%, 16.615295%)" offset="0.0976563"/><stop stop-opacity="1" stop-color="rgb(47.331238%, 23.901367%, 16.952515%)" offset="0.101562"/><stop stop-opacity="1" stop-color="rgb(47.28241%, 23.989868%, 17.288208%)" offset="0.105469"/><stop stop-opacity="1" stop-color="rgb(47.233582%, 24.078369%, 17.625427%)" offset="0.109375"/><stop stop-opacity="1" stop-color="rgb(47.184753%, 24.16687%, 17.962646%)" offset="0.113281"/><stop stop-opacity="1" stop-color="rgb(47.135925%, 24.255371%, 18.299866%)" offset="0.117188"/><stop stop-opacity="1" stop-color="rgb(47.087097%, 24.343872%, 18.635559%)" offset="0.121094"/><stop stop-opacity="1" stop-color="rgb(47.038269%, 24.432373%, 18.972778%)" offset="0.125"/><stop stop-opacity="1" stop-color="rgb(46.989441%, 24.520874%, 19.308472%)" offset="0.128906"/><stop stop-opacity="1" stop-color="rgb(46.940613%, 24.610901%, 19.645691%)" offset="0.132812"/><stop stop-opacity="1" stop-color="rgb(46.891785%, 24.699402%, 19.98291%)" offset="0.136719"/><stop stop-opacity="1" stop-color="rgb(46.842957%, 24.787903%, 20.320129%)" offset="0.140625"/><stop stop-opacity="1" stop-color="rgb(46.794128%, 24.876404%, 20.655823%)" offset="0.144531"/><stop stop-opacity="1" stop-color="rgb(46.746826%, 24.964905%, 20.993042%)" offset="0.148437"/><stop stop-opacity="1" stop-color="rgb(46.697998%, 25.053406%, 21.328735%)" offset="0.152344"/><stop stop-opacity="1" stop-color="rgb(46.64917%, 25.141907%, 21.665955%)" offset="0.15625"/><stop stop-opacity="1" stop-color="rgb(46.600342%, 25.230408%, 22.001648%)" offset="0.160156"/><stop stop-opacity="1" stop-color="rgb(46.551514%, 25.318909%, 22.338867%)" offset="0.164062"/><stop stop-opacity="1" stop-color="rgb(46.502686%, 25.40741%, 22.676086%)" offset="0.167969"/><stop stop-opacity="1" stop-color="rgb(46.453857%, 25.495911%, 23.013306%)" offset="0.171875"/><stop stop-opacity="1" stop-color="rgb(46.405029%, 25.584412%, 23.348999%)" offset="0.175781"/><stop stop-opacity="1" stop-color="rgb(46.356201%, 25.672913%, 23.686218%)" offset="0.179688"/><stop stop-opacity="1" stop-color="rgb(46.307373%, 25.761414%, 24.021912%)" offset="0.183594"/><stop stop-opacity="1" stop-color="rgb(46.258545%, 25.849915%, 24.359131%)" offset="0.1875"/><stop stop-opacity="1" stop-color="rgb(46.209717%, 25.938416%, 24.694824%)" offset="0.191406"/><stop stop-opacity="1" stop-color="rgb(46.160889%, 26.026917%, 25.032043%)" offset="0.195313"/><stop stop-opacity="1" stop-color="rgb(46.112061%, 26.115417%, 25.369263%)" offset="0.199219"/><stop stop-opacity="1" stop-color="rgb(46.063232%, 26.203918%, 25.706482%)" offset="0.203125"/><stop stop-opacity="1" stop-color="rgb(46.014404%, 26.292419%, 26.042175%)" offset="0.207031"/><stop stop-opacity="1" stop-color="rgb(45.965576%, 26.38092%, 26.379395%)" offset="0.210938"/><stop stop-opacity="1" stop-color="rgb(45.916748%, 26.469421%, 26.715088%)" offset="0.214844"/><stop stop-opacity="1" stop-color="rgb(45.86792%, 26.557922%, 27.052307%)" offset="0.21875"/><stop stop-opacity="1" stop-color="rgb(45.819092%, 26.646423%, 27.389526%)" offset="0.222656"/><stop stop-opacity="1" stop-color="rgb(45.770264%, 26.734924%, 27.726746%)" offset="0.226562"/><stop stop-opacity="1" stop-color="rgb(45.721436%, 26.823425%, 28.062439%)" offset="0.230469"/><stop stop-opacity="1" stop-color="rgb(45.672607%, 26.911926%, 28.399658%)" offset="0.234375"/><stop stop-opacity="1" stop-color="rgb(45.623779%, 27.000427%, 28.735352%)" offset="0.238281"/><stop stop-opacity="1" stop-color="rgb(45.576477%, 27.090454%, 29.072571%)" offset="0.242188"/><stop stop-opacity="1" stop-color="rgb(45.527649%, 27.178955%, 29.408264%)" offset="0.246094"/><stop stop-opacity="1" stop-color="rgb(45.478821%, 27.267456%, 29.745483%)" offset="0.25"/><stop stop-opacity="1" stop-color="rgb(45.429993%, 27.355957%, 30.082703%)" offset="0.253906"/><stop stop-opacity="1" stop-color="rgb(45.381165%, 27.444458%, 30.419922%)" offset="0.257812"/><stop stop-opacity="1" stop-color="rgb(45.332336%, 27.532959%, 30.755615%)" offset="0.261719"/><stop stop-opacity="1" stop-color="rgb(45.283508%, 27.62146%, 31.092834%)" offset="0.265625"/><stop stop-opacity="1" stop-color="rgb(45.23468%, 27.709961%, 31.428528%)" offset="0.269531"/><stop stop-opacity="1" stop-color="rgb(45.185852%, 27.798462%, 31.765747%)" offset="0.273437"/><stop stop-opacity="1" stop-color="rgb(45.137024%, 27.886963%, 32.102966%)" offset="0.277344"/><stop stop-opacity="1" stop-color="rgb(45.088196%, 27.975464%, 32.440186%)" offset="0.28125"/><stop stop-opacity="1" stop-color="rgb(45.039368%, 28.063965%, 32.775879%)" offset="0.285156"/><stop stop-opacity="1" stop-color="rgb(44.99054%, 28.152466%, 33.113098%)" offset="0.289062"/><stop stop-opacity="1" stop-color="rgb(44.941711%, 28.240967%, 33.448792%)" offset="0.292969"/><stop stop-opacity="1" stop-color="rgb(44.892883%, 28.329468%, 33.786011%)" offset="0.296875"/><stop stop-opacity="1" stop-color="rgb(44.844055%, 28.417969%, 34.121704%)" offset="0.300781"/><stop stop-opacity="1" stop-color="rgb(44.795227%, 28.50647%, 34.458923%)" offset="0.304688"/><stop stop-opacity="1" stop-color="rgb(44.746399%, 28.594971%, 34.796143%)" offset="0.308594"/><stop stop-opacity="1" stop-color="rgb(44.697571%, 28.683472%, 35.133362%)" offset="0.3125"/><stop stop-opacity="1" stop-color="rgb(44.648743%, 28.771973%, 35.469055%)" offset="0.316406"/><stop stop-opacity="1" stop-color="rgb(44.599915%, 28.860474%, 35.806274%)" offset="0.320312"/><stop stop-opacity="1" stop-color="rgb(44.551086%, 28.948975%, 36.141968%)" offset="0.324219"/><stop stop-opacity="1" stop-color="rgb(44.502258%, 29.037476%, 36.479187%)" offset="0.328125"/><stop stop-opacity="1" stop-color="rgb(44.45343%, 29.125977%, 36.816406%)" offset="0.332031"/><stop stop-opacity="1" stop-color="rgb(44.406128%, 29.214478%, 37.153625%)" offset="0.335938"/><stop stop-opacity="1" stop-color="rgb(44.3573%, 29.302979%, 37.489319%)" offset="0.339844"/><stop stop-opacity="1" stop-color="rgb(44.308472%, 29.391479%, 37.826538%)" offset="0.34375"/><stop stop-opacity="1" stop-color="rgb(44.259644%, 29.47998%, 38.162231%)" offset="0.347656"/><stop stop-opacity="1" stop-color="rgb(44.210815%, 29.570007%, 38.499451%)" offset="0.351562"/><stop stop-opacity="1" stop-color="rgb(44.161987%, 29.658508%, 38.835144%)" offset="0.355469"/><stop stop-opacity="1" stop-color="rgb(44.113159%, 29.747009%, 39.172363%)" offset="0.359375"/><stop stop-opacity="1" stop-color="rgb(44.064331%, 29.83551%, 39.509583%)" offset="0.363281"/><stop stop-opacity="1" stop-color="rgb(44.015503%, 29.924011%, 39.846802%)" offset="0.367188"/><stop stop-opacity="1" stop-color="rgb(43.966675%, 30.012512%, 40.182495%)" offset="0.371094"/><stop stop-opacity="1" stop-color="rgb(43.917847%, 30.101013%, 40.519714%)" offset="0.375"/><stop stop-opacity="1" stop-color="rgb(43.869019%, 30.189514%, 40.855408%)" offset="0.378906"/><stop stop-opacity="1" stop-color="rgb(43.82019%, 30.278015%, 41.192627%)" offset="0.382813"/><stop stop-opacity="1" stop-color="rgb(43.771362%, 30.366516%, 41.529846%)" offset="0.386719"/><stop stop-opacity="1" stop-color="rgb(43.722534%, 30.455017%, 41.867065%)" offset="0.390625"/><stop stop-opacity="1" stop-color="rgb(43.673706%, 30.543518%, 42.202759%)" offset="0.394531"/><stop stop-opacity="1" stop-color="rgb(43.624878%, 30.632019%, 42.539978%)" offset="0.398438"/><stop stop-opacity="1" stop-color="rgb(43.57605%, 30.72052%, 42.875671%)" offset="0.402344"/><stop stop-opacity="1" stop-color="rgb(43.527222%, 30.809021%, 43.212891%)" offset="0.40625"/><stop stop-opacity="1" stop-color="rgb(43.478394%, 30.897522%, 43.548584%)" offset="0.410156"/><stop stop-opacity="1" stop-color="rgb(43.429565%, 30.986023%, 43.885803%)" offset="0.414063"/><stop stop-opacity="1" stop-color="rgb(43.380737%, 31.074524%, 44.223022%)" offset="0.417969"/><stop stop-opacity="1" stop-color="rgb(43.331909%, 31.163025%, 44.560242%)" offset="0.421875"/><stop stop-opacity="1" stop-color="rgb(43.283081%, 31.251526%, 44.895935%)" offset="0.425781"/><stop stop-opacity="1" stop-color="rgb(43.235779%, 31.340027%, 45.233154%)" offset="0.429688"/><stop stop-opacity="1" stop-color="rgb(43.186951%, 31.428528%, 45.568848%)" offset="0.433594"/><stop stop-opacity="1" stop-color="rgb(43.138123%, 31.517029%, 45.906067%)" offset="0.4375"/><stop stop-opacity="1" stop-color="rgb(43.089294%, 31.60553%, 46.24176%)" offset="0.441406"/><stop stop-opacity="1" stop-color="rgb(43.040466%, 31.694031%, 46.578979%)" offset="0.445312"/><stop stop-opacity="1" stop-color="rgb(42.991638%, 31.782532%, 46.916199%)" offset="0.449219"/><stop stop-opacity="1" stop-color="rgb(42.94281%, 31.872559%, 47.253418%)" offset="0.453125"/><stop stop-opacity="1" stop-color="rgb(42.893982%, 31.96106%, 47.589111%)" offset="0.457031"/><stop stop-opacity="1" stop-color="rgb(42.845154%, 32.049561%, 47.926331%)" offset="0.460938"/><stop stop-opacity="1" stop-color="rgb(42.796326%, 32.138062%, 48.262024%)" offset="0.464844"/><stop stop-opacity="1" stop-color="rgb(42.747498%, 32.226562%, 48.599243%)" offset="0.46875"/><stop stop-opacity="1" stop-color="rgb(42.698669%, 32.315063%, 48.936462%)" offset="0.472656"/><stop stop-opacity="1" stop-color="rgb(42.649841%, 32.403564%, 49.273682%)" offset="0.476562"/><stop stop-opacity="1" stop-color="rgb(42.601013%, 32.492065%, 49.609375%)" offset="0.480469"/><stop stop-opacity="1" stop-color="rgb(42.552185%, 32.580566%, 49.946594%)" offset="0.484375"/><stop stop-opacity="1" stop-color="rgb(42.503357%, 32.669067%, 50.282288%)" offset="0.488281"/><stop stop-opacity="1" stop-color="rgb(42.454529%, 32.757568%, 50.619507%)" offset="0.492188"/><stop stop-opacity="1" stop-color="rgb(42.405701%, 32.846069%, 50.9552%)" offset="0.496094"/><stop stop-opacity="1" stop-color="rgb(42.356873%, 32.93457%, 51.292419%)" offset="0.5"/><stop stop-opacity="1" stop-color="rgb(42.308044%, 33.023071%, 51.629639%)" offset="0.503906"/><stop stop-opacity="1" stop-color="rgb(42.259216%, 33.111572%, 51.966858%)" offset="0.507812"/><stop stop-opacity="1" stop-color="rgb(42.210388%, 33.200073%, 52.302551%)" offset="0.511719"/><stop stop-opacity="1" stop-color="rgb(42.16156%, 33.288574%, 52.639771%)" offset="0.515625"/><stop stop-opacity="1" stop-color="rgb(42.112732%, 33.377075%, 52.975464%)" offset="0.519531"/><stop stop-opacity="1" stop-color="rgb(42.06543%, 33.465576%, 53.312683%)" offset="0.523437"/><stop stop-opacity="1" stop-color="rgb(42.016602%, 33.554077%, 53.649902%)" offset="0.527344"/><stop stop-opacity="1" stop-color="rgb(41.967773%, 33.642578%, 53.987122%)" offset="0.53125"/><stop stop-opacity="1" stop-color="rgb(41.918945%, 33.731079%, 54.322815%)" offset="0.535156"/><stop stop-opacity="1" stop-color="rgb(41.870117%, 33.81958%, 54.660034%)" offset="0.539062"/><stop stop-opacity="1" stop-color="rgb(41.821289%, 33.908081%, 54.995728%)" offset="0.542969"/><stop stop-opacity="1" stop-color="rgb(41.772461%, 33.996582%, 55.332947%)" offset="0.546875"/><stop stop-opacity="1" stop-color="rgb(41.723633%, 34.085083%, 55.66864%)" offset="0.550781"/><stop stop-opacity="1" stop-color="rgb(41.674805%, 34.173584%, 56.005859%)" offset="0.554688"/><stop stop-opacity="1" stop-color="rgb(41.625977%, 34.262085%, 56.343079%)" offset="0.558594"/><stop stop-opacity="1" stop-color="rgb(41.577148%, 34.352112%, 56.680298%)" offset="0.5625"/><stop stop-opacity="1" stop-color="rgb(41.52832%, 34.440613%, 57.015991%)" offset="0.566406"/><stop stop-opacity="1" stop-color="rgb(41.479492%, 34.529114%, 57.35321%)" offset="0.570312"/><stop stop-opacity="1" stop-color="rgb(41.430664%, 34.617615%, 57.688904%)" offset="0.574219"/><stop stop-opacity="1" stop-color="rgb(41.381836%, 34.706116%, 58.026123%)" offset="0.578125"/><stop stop-opacity="1" stop-color="rgb(41.333008%, 34.794617%, 58.363342%)" offset="0.582031"/><stop stop-opacity="1" stop-color="rgb(41.28418%, 34.883118%, 58.700562%)" offset="0.585938"/><stop stop-opacity="1" stop-color="rgb(41.235352%, 34.971619%, 59.036255%)" offset="0.589844"/><stop stop-opacity="1" stop-color="rgb(41.186523%, 35.06012%, 59.373474%)" offset="0.59375"/><stop stop-opacity="1" stop-color="rgb(41.137695%, 35.148621%, 59.709167%)" offset="0.597656"/><stop stop-opacity="1" stop-color="rgb(41.088867%, 35.237122%, 60.046387%)" offset="0.601562"/><stop stop-opacity="1" stop-color="rgb(41.040039%, 35.325623%, 60.38208%)" offset="0.605469"/><stop stop-opacity="1" stop-color="rgb(40.991211%, 35.414124%, 60.719299%)" offset="0.609375"/><stop stop-opacity="1" stop-color="rgb(40.942383%, 35.502625%, 61.056519%)" offset="0.613281"/><stop stop-opacity="1" stop-color="rgb(40.895081%, 35.591125%, 61.393738%)" offset="0.617187"/><stop stop-opacity="1" stop-color="rgb(40.846252%, 35.679626%, 61.729431%)" offset="0.621094"/><stop stop-opacity="1" stop-color="rgb(40.797424%, 35.768127%, 62.06665%)" offset="0.625"/><stop stop-opacity="1" stop-color="rgb(40.748596%, 35.856628%, 62.402344%)" offset="0.628906"/><stop stop-opacity="1" stop-color="rgb(40.699768%, 35.945129%, 62.739563%)" offset="0.632813"/><stop stop-opacity="1" stop-color="rgb(40.65094%, 36.03363%, 63.076782%)" offset="0.636719"/><stop stop-opacity="1" stop-color="rgb(40.602112%, 36.122131%, 63.414001%)" offset="0.640625"/><stop stop-opacity="1" stop-color="rgb(40.553284%, 36.210632%, 63.749695%)" offset="0.644531"/><stop stop-opacity="1" stop-color="rgb(40.504456%, 36.299133%, 64.086914%)" offset="0.648438"/><stop stop-opacity="1" stop-color="rgb(40.455627%, 36.387634%, 64.422607%)" offset="0.652344"/><stop stop-opacity="1" stop-color="rgb(40.406799%, 36.476135%, 64.759827%)" offset="0.65625"/><stop stop-opacity="1" stop-color="rgb(40.357971%, 36.564636%, 65.09552%)" offset="0.660156"/><stop stop-opacity="1" stop-color="rgb(40.309143%, 36.653137%, 65.432739%)" offset="0.664062"/><stop stop-opacity="1" stop-color="rgb(40.260315%, 36.741638%, 65.769958%)" offset="0.667969"/><stop stop-opacity="1" stop-color="rgb(40.211487%, 36.831665%, 66.107178%)" offset="0.671875"/><stop stop-opacity="1" stop-color="rgb(40.162659%, 36.920166%, 66.442871%)" offset="0.675781"/><stop stop-opacity="1" stop-color="rgb(40.113831%, 37.008667%, 66.78009%)" offset="0.679688"/><stop stop-opacity="1" stop-color="rgb(40.065002%, 37.097168%, 67.115784%)" offset="0.683594"/><stop stop-opacity="1" stop-color="rgb(40.016174%, 37.185669%, 67.453003%)" offset="0.6875"/><stop stop-opacity="1" stop-color="rgb(39.967346%, 37.27417%, 67.788696%)" offset="0.691406"/><stop stop-opacity="1" stop-color="rgb(39.918518%, 37.362671%, 68.125916%)" offset="0.695312"/><stop stop-opacity="1" stop-color="rgb(39.86969%, 37.451172%, 68.463135%)" offset="0.699219"/><stop stop-opacity="1" stop-color="rgb(39.820862%, 37.539673%, 68.800354%)" offset="0.703125"/><stop stop-opacity="1" stop-color="rgb(39.772034%, 37.628174%, 69.136047%)" offset="0.707031"/><stop stop-opacity="1" stop-color="rgb(39.724731%, 37.716675%, 69.473267%)" offset="0.710938"/><stop stop-opacity="1" stop-color="rgb(39.675903%, 37.805176%, 69.80896%)" offset="0.714844"/><stop stop-opacity="1" stop-color="rgb(39.627075%, 37.893677%, 70.146179%)" offset="0.71875"/><stop stop-opacity="1" stop-color="rgb(39.578247%, 37.982178%, 70.483398%)" offset="0.722656"/><stop stop-opacity="1" stop-color="rgb(39.529419%, 38.070679%, 70.820618%)" offset="0.726562"/><stop stop-opacity="1" stop-color="rgb(39.480591%, 38.15918%, 71.156311%)" offset="0.730469"/><stop stop-opacity="1" stop-color="rgb(39.431763%, 38.247681%, 71.49353%)" offset="0.734375"/><stop stop-opacity="1" stop-color="rgb(39.382935%, 38.336182%, 71.829224%)" offset="0.738281"/><stop stop-opacity="1" stop-color="rgb(39.334106%, 38.424683%, 72.166443%)" offset="0.742188"/><stop stop-opacity="1" stop-color="rgb(39.285278%, 38.513184%, 72.502136%)" offset="0.746094"/><stop stop-opacity="1" stop-color="rgb(39.23645%, 38.601685%, 72.839355%)" offset="0.75"/><stop stop-opacity="1" stop-color="rgb(39.187622%, 38.690186%, 73.176575%)" offset="0.753906"/><stop stop-opacity="1" stop-color="rgb(39.138794%, 38.778687%, 73.513794%)" offset="0.757813"/><stop stop-opacity="1" stop-color="rgb(39.089966%, 38.867188%, 73.849487%)" offset="0.761719"/><stop stop-opacity="1" stop-color="rgb(39.041138%, 38.955688%, 74.186707%)" offset="0.765625"/><stop stop-opacity="1" stop-color="rgb(38.99231%, 39.044189%, 74.5224%)" offset="0.769531"/><stop stop-opacity="1" stop-color="rgb(38.943481%, 39.13269%, 74.859619%)" offset="0.773438"/><stop stop-opacity="1" stop-color="rgb(38.894653%, 39.221191%, 75.196838%)" offset="0.777344"/><stop stop-opacity="1" stop-color="rgb(38.845825%, 39.311218%, 75.534058%)" offset="0.78125"/><stop stop-opacity="1" stop-color="rgb(38.796997%, 39.399719%, 75.869751%)" offset="0.785156"/><stop stop-opacity="1" stop-color="rgb(38.748169%, 39.48822%, 76.20697%)" offset="0.789062"/><stop stop-opacity="1" stop-color="rgb(38.699341%, 39.576721%, 76.542664%)" offset="0.792969"/><stop stop-opacity="1" stop-color="rgb(38.650513%, 39.665222%, 76.879883%)" offset="0.796875"/><stop stop-opacity="1" stop-color="rgb(38.601685%, 39.753723%, 77.215576%)" offset="0.800781"/><stop stop-opacity="1" stop-color="rgb(38.554382%, 39.842224%, 77.552795%)" offset="0.804688"/><stop stop-opacity="1" stop-color="rgb(38.505554%, 39.930725%, 77.890015%)" offset="0.808594"/><stop stop-opacity="1" stop-color="rgb(38.456726%, 40.019226%, 78.227234%)" offset="0.8125"/><stop stop-opacity="1" stop-color="rgb(38.407898%, 40.107727%, 78.562927%)" offset="0.816406"/><stop stop-opacity="1" stop-color="rgb(38.35907%, 40.196228%, 78.900146%)" offset="0.820312"/><stop stop-opacity="1" stop-color="rgb(38.310242%, 40.284729%, 79.23584%)" offset="0.824219"/><stop stop-opacity="1" stop-color="rgb(38.261414%, 40.37323%, 79.573059%)" offset="0.828125"/><stop stop-opacity="1" stop-color="rgb(38.212585%, 40.461731%, 79.910278%)" offset="0.832031"/><stop stop-opacity="1" stop-color="rgb(38.163757%, 40.550232%, 80.247498%)" offset="0.835938"/><stop stop-opacity="1" stop-color="rgb(38.114929%, 40.638733%, 80.583191%)" offset="0.839844"/><stop stop-opacity="1" stop-color="rgb(38.066101%, 40.727234%, 80.92041%)" offset="0.84375"/><stop stop-opacity="1" stop-color="rgb(38.017273%, 40.815735%, 81.256104%)" offset="0.847656"/><stop stop-opacity="1" stop-color="rgb(37.968445%, 40.904236%, 81.593323%)" offset="0.851563"/><stop stop-opacity="1" stop-color="rgb(37.919617%, 40.992737%, 81.929016%)" offset="0.855469"/><stop stop-opacity="1" stop-color="rgb(37.870789%, 41.081238%, 82.266235%)" offset="0.859375"/><stop stop-opacity="1" stop-color="rgb(37.82196%, 41.169739%, 82.603455%)" offset="0.863281"/><stop stop-opacity="1" stop-color="rgb(37.773132%, 41.25824%, 82.940674%)" offset="0.867188"/><stop stop-opacity="1" stop-color="rgb(37.724304%, 41.346741%, 83.276367%)" offset="0.871094"/><stop stop-opacity="1" stop-color="rgb(37.675476%, 41.435242%, 83.613586%)" offset="0.875"/><stop stop-opacity="1" stop-color="rgb(37.626648%, 41.523743%, 83.94928%)" offset="0.878906"/><stop stop-opacity="1" stop-color="rgb(37.57782%, 41.61377%, 84.286499%)" offset="0.882812"/><stop stop-opacity="1" stop-color="rgb(37.528992%, 41.702271%, 84.623718%)" offset="0.886719"/><stop stop-opacity="1" stop-color="rgb(37.480164%, 41.790771%, 84.960938%)" offset="0.890625"/><stop stop-opacity="1" stop-color="rgb(37.431335%, 41.879272%, 85.296631%)" offset="0.894531"/><stop stop-opacity="1" stop-color="rgb(37.384033%, 41.967773%, 85.63385%)" offset="0.898438"/><stop stop-opacity="1" stop-color="rgb(37.335205%, 42.056274%, 85.969543%)" offset="0.902344"/><stop stop-opacity="1" stop-color="rgb(37.286377%, 42.144775%, 86.306763%)" offset="0.90625"/><stop stop-opacity="1" stop-color="rgb(37.237549%, 42.233276%, 86.642456%)" offset="0.910156"/><stop stop-opacity="1" stop-color="rgb(37.188721%, 42.321777%, 86.979675%)" offset="0.914062"/><stop stop-opacity="1" stop-color="rgb(37.139893%, 42.410278%, 87.316895%)" offset="0.917969"/><stop stop-opacity="1" stop-color="rgb(37.091064%, 42.498779%, 87.654114%)" offset="0.921875"/><stop stop-opacity="1" stop-color="rgb(37.042236%, 42.58728%, 87.989807%)" offset="0.925781"/><stop stop-opacity="1" stop-color="rgb(36.993408%, 42.675781%, 88.327026%)" offset="0.929688"/><stop stop-opacity="1" stop-color="rgb(36.94458%, 42.764282%, 88.66272%)" offset="0.933594"/><stop stop-opacity="1" stop-color="rgb(36.895752%, 42.852783%, 88.999939%)" offset="0.9375"/><stop stop-opacity="1" stop-color="rgb(36.846924%, 42.941284%, 89.337158%)" offset="0.941406"/><stop stop-opacity="1" stop-color="rgb(36.798096%, 43.029785%, 89.674377%)" offset="0.945312"/><stop stop-opacity="1" stop-color="rgb(36.749268%, 43.118286%, 90.010071%)" offset="0.949219"/><stop stop-opacity="1" stop-color="rgb(36.700439%, 43.206787%, 90.34729%)" offset="0.953125"/><stop stop-opacity="1" stop-color="rgb(36.651611%, 43.295288%, 90.682983%)" offset="0.957031"/><stop stop-opacity="1" stop-color="rgb(36.602783%, 43.383789%, 91.020203%)" offset="0.960938"/><stop stop-opacity="1" stop-color="rgb(36.553955%, 43.47229%, 91.355896%)" offset="0.964844"/><stop stop-opacity="1" stop-color="rgb(36.505127%, 43.560791%, 91.693115%)" offset="0.96875"/><stop stop-opacity="1" stop-color="rgb(36.456299%, 43.649292%, 92.030334%)" offset="0.972656"/><stop stop-opacity="1" stop-color="rgb(36.407471%, 43.737793%, 92.367554%)" offset="0.976562"/><stop stop-opacity="1" stop-color="rgb(36.358643%, 43.826294%, 92.703247%)" offset="0.980469"/><stop stop-opacity="1" stop-color="rgb(36.309814%, 43.914795%, 93.040466%)" offset="0.984375"/><stop stop-opacity="1" stop-color="rgb(36.260986%, 44.003296%, 93.37616%)" offset="0.988281"/><stop stop-opacity="1" stop-color="rgb(36.213684%, 44.093323%, 93.713379%)" offset="0.992188"/><stop stop-opacity="1" stop-color="rgb(36.164856%, 44.181824%, 94.049072%)" offset="0.996094"/><stop stop-opacity="1" stop-color="rgb(36.116028%, 44.270325%, 94.386292%)" offset="1"/></linearGradient><clipPath id="bd47d77f62"><path d="M 47.179688 134.046875 L 335.929688 134.046875 L 335.929688 325 L 47.179688 325 Z M 47.179688 134.046875 " clip-rule="nonzero"/></clipPath><clipPath id="b31452015e"><path d="M 93 347 L 288 347 L 288 358.296875 L 93 358.296875 Z M 93 347 " clip-rule="nonzero"/></clipPath></defs><g clip-path="url(#84f9afb147)"><g clip-path="url(#d1a16b3e59)"><path fill="url(#fc846f6693)" d="M 6.570312 0 L 6.570312 374.492188 L 369.714844 374.492188 L 369.714844 0 Z M 6.570312 0 " fill-rule="nonzero"/></g></g><g clip-path="url(#bd47d77f62)"><path fill="#f2c802" d="M 318.746094 213.90625 C 309.390625 213.90625 301.804688 221.488281 301.804688 230.851562 C 301.804688 236.890625 304.964844 242.191406 309.726562 245.191406 L 301.976562 252.9375 C 291.863281 263.050781 274.550781 256.484375 273.6875 242.207031 L 271.78125 210.523438 C 271.78125 210.523438 271.789062 210.523438 271.792969 210.523438 C 281.148438 210.523438 288.738281 202.941406 288.738281 193.582031 C 288.738281 184.222656 281.15625 176.640625 271.792969 176.640625 C 262.433594 176.640625 254.851562 184.222656 254.851562 193.582031 C 254.851562 200.265625 258.730469 206.050781 264.355469 208.804688 L 253.117188 225.785156 C 241.621094 243.148438 215.292969 240.191406 207.9375 220.710938 L 193.097656 181.421875 C 205.425781 180.574219 215.160156 170.3125 215.160156 157.765625 C 215.160156 145.222656 204.546875 134.046875 191.449219 134.046875 C 178.351562 134.046875 167.730469 144.664062 167.730469 157.761719 C 167.730469 170.148438 177.21875 180.304688 189.324219 181.382812 L 174.472656 220.703125 C 167.117188 240.1875 140.785156 243.144531 129.296875 225.78125 L 118.171875 208.976562 C 123.996094 206.296875 128.042969 200.414062 128.042969 193.582031 C 128.042969 184.226562 120.460938 176.640625 111.101562 176.640625 C 101.742188 176.640625 94.160156 184.222656 94.160156 193.582031 C 94.160156 202.941406 101.492188 210.257812 110.628906 210.511719 L 108.71875 242.207031 C 107.859375 256.484375 90.542969 263.050781 80.429688 252.9375 L 72.871094 245.378906 C 77.796875 242.417969 81.09375 237.019531 81.09375 230.851562 C 81.09375 221.496094 73.511719 213.90625 64.152344 213.90625 C 54.792969 213.90625 47.207031 221.496094 47.207031 230.851562 C 47.207031 240.203125 54.792969 247.792969 64.152344 247.792969 C 65.378906 247.792969 66.578125 247.65625 67.730469 247.410156 L 89.558594 324.027344 C 134.089844 313.867188 191.207031 314.832031 191.207031 314.832031 C 191.207031 314.832031 248.320312 313.863281 292.851562 324.027344 L 314.710938 247.308594 C 316.003906 247.625 317.355469 247.796875 318.75 247.796875 C 328.105469 247.796875 335.691406 240.214844 335.691406 230.855469 C 335.691406 221.496094 328.109375 213.910156 318.75 213.910156 Z M 318.746094 213.90625 " fill-opacity="1" fill-rule="nonzero"/></g><path fill="#f2c802" d="M 286.554688 341.445312 C 286.554688 337.765625 287.972656 334.421875 290.289062 331.917969 C 289.164062 331.078125 287.8125 330.5 286.304688 330.300781 C 223.011719 322.035156 158.914062 322.03125 95.621094 330.300781 C 94.113281 330.5 92.757812 331.078125 91.636719 331.917969 C 93.953125 334.421875 95.371094 337.765625 95.371094 341.445312 C 95.371094 343.191406 95.050781 344.859375 94.46875 346.398438 C 95.511719 346.683594 96.621094 346.769531 97.753906 346.621094 C 159.632812 338.539062 222.296875 338.539062 284.175781 346.621094 C 285.308594 346.769531 286.417969 346.683594 287.457031 346.398438 C 286.875 344.859375 286.554688 343.191406 286.554688 341.445312 Z M 286.554688 341.445312 " fill-opacity="1" fill-rule="nonzero"/><g clip-path="url(#b31452015e)"><path fill="#f2c802" d="M 287.527344 353.0625 C 287.527344 353.148438 287.488281 353.238281 287.410156 353.324219 C 287.332031 353.410156 287.214844 353.5 287.058594 353.585938 C 286.902344 353.671875 286.710938 353.757812 286.476562 353.84375 C 286.246094 353.929688 285.976562 354.015625 285.664062 354.101562 C 285.355469 354.1875 285.007812 354.273438 284.625 354.355469 C 284.238281 354.441406 283.816406 354.527344 283.355469 354.609375 C 282.898438 354.691406 282.402344 354.773438 281.867188 354.855469 C 281.332031 354.941406 280.761719 355.019531 280.15625 355.101562 C 279.550781 355.183594 278.910156 355.261719 278.230469 355.339844 C 277.554688 355.417969 276.84375 355.496094 276.09375 355.574219 C 275.347656 355.652344 274.566406 355.726562 273.753906 355.800781 C 272.9375 355.875 272.089844 355.949219 271.210938 356.023438 C 270.332031 356.09375 269.417969 356.164062 268.476562 356.234375 C 267.53125 356.304688 266.558594 356.375 265.550781 356.441406 C 264.546875 356.507812 263.511719 356.574219 262.449219 356.640625 C 261.382812 356.703125 260.292969 356.765625 259.171875 356.828125 C 258.050781 356.890625 256.90625 356.949219 255.730469 357.007812 C 254.558594 357.066406 253.359375 357.125 252.132812 357.179688 C 250.910156 357.234375 249.660156 357.289062 248.386719 357.339844 C 247.113281 357.394531 245.820312 357.441406 244.503906 357.492188 C 243.1875 357.539062 241.847656 357.585938 240.488281 357.632812 C 239.128906 357.675781 237.75 357.71875 236.355469 357.761719 C 234.957031 357.800781 233.542969 357.839844 232.109375 357.878906 C 230.679688 357.914062 229.230469 357.949219 227.765625 357.984375 C 226.304688 358.015625 224.824219 358.046875 223.332031 358.078125 C 221.84375 358.105469 220.339844 358.132812 218.820312 358.160156 C 217.304688 358.183594 215.78125 358.207031 214.242188 358.230469 C 212.707031 358.25 211.160156 358.269531 209.605469 358.285156 C 208.054688 358.304688 206.492188 358.320312 204.925781 358.332031 C 203.359375 358.34375 201.785156 358.355469 200.210938 358.363281 C 198.632812 358.371094 197.054688 358.378906 195.472656 358.382812 C 193.890625 358.386719 192.304688 358.390625 190.722656 358.390625 C 189.136719 358.390625 187.554688 358.386719 185.972656 358.382812 C 184.390625 358.378906 182.808594 358.371094 181.234375 358.363281 C 179.65625 358.355469 178.085938 358.34375 176.515625 358.332031 C 174.949219 358.320312 173.390625 358.304688 171.835938 358.285156 C 170.28125 358.269531 168.738281 358.25 167.199219 358.230469 C 165.664062 358.207031 164.136719 358.183594 162.621094 358.160156 C 161.105469 358.132812 159.601562 358.105469 158.109375 358.078125 C 156.617188 358.046875 155.140625 358.015625 153.675781 357.984375 C 152.210938 357.949219 150.765625 357.914062 149.332031 357.878906 C 147.898438 357.839844 146.484375 357.800781 145.089844 357.761719 C 143.691406 357.71875 142.3125 357.675781 140.953125 357.632812 C 139.59375 357.585938 138.257812 357.539062 136.941406 357.492188 C 135.621094 357.441406 134.328125 357.394531 133.054688 357.339844 C 131.78125 357.289062 130.535156 357.234375 129.308594 357.179688 C 128.085938 357.125 126.886719 357.066406 125.710938 357.007812 C 124.539062 356.949219 123.390625 356.890625 122.269531 356.828125 C 121.148438 356.765625 120.058594 356.703125 118.996094 356.640625 C 117.929688 356.574219 116.894531 356.507812 115.890625 356.441406 C 114.886719 356.375 113.910156 356.304688 112.96875 356.234375 C 112.023438 356.164062 111.113281 356.09375 110.230469 356.023438 C 109.351562 355.949219 108.503906 355.875 107.691406 355.800781 C 106.875 355.726562 106.09375 355.652344 105.347656 355.574219 C 104.601562 355.496094 103.890625 355.417969 103.210938 355.339844 C 102.535156 355.261719 101.890625 355.183594 101.285156 355.101562 C 100.679688 355.019531 100.109375 354.941406 99.574219 354.859375 C 99.042969 354.773438 98.546875 354.691406 98.085938 354.609375 C 97.625 354.527344 97.203125 354.441406 96.816406 354.355469 C 96.433594 354.273438 96.085938 354.1875 95.777344 354.101562 C 95.46875 354.015625 95.199219 353.929688 94.964844 353.84375 C 94.730469 353.757812 94.539062 353.671875 94.382812 353.585938 C 94.226562 353.5 94.113281 353.410156 94.035156 353.324219 C 93.957031 353.238281 93.917969 353.148438 93.917969 353.0625 C 93.917969 352.976562 93.957031 352.890625 94.035156 352.800781 C 94.113281 352.714844 94.226562 352.628906 94.382812 352.542969 C 94.539062 352.453125 94.730469 352.367188 94.964844 352.28125 C 95.199219 352.195312 95.46875 352.109375 95.777344 352.023438 C 96.085938 351.9375 96.433594 351.855469 96.816406 351.769531 C 97.203125 351.683594 97.625 351.601562 98.085938 351.515625 C 98.546875 351.433594 99.042969 351.351562 99.574219 351.269531 C 100.109375 351.1875 100.679688 351.105469 101.285156 351.023438 C 101.890625 350.945312 102.535156 350.863281 103.210938 350.785156 C 103.890625 350.707031 104.601562 350.628906 105.347656 350.550781 C 106.09375 350.476562 106.875 350.398438 107.691406 350.324219 C 108.503906 350.25 109.351562 350.175781 110.230469 350.105469 C 111.113281 350.03125 112.023438 349.960938 112.96875 349.890625 C 113.910156 349.820312 114.886719 349.75 115.890625 349.683594 C 116.894531 349.617188 117.929688 349.550781 118.996094 349.488281 C 120.058594 349.421875 121.148438 349.359375 122.269531 349.296875 C 123.390625 349.234375 124.539062 349.175781 125.710938 349.117188 C 126.886719 349.058594 128.085938 349 129.308594 348.945312 C 130.535156 348.890625 131.78125 348.835938 133.054688 348.785156 C 134.328125 348.734375 135.621094 348.683594 136.941406 348.636719 C 138.257812 348.585938 139.59375 348.539062 140.953125 348.496094 C 142.3125 348.449219 143.691406 348.40625 145.089844 348.367188 C 146.484375 348.324219 147.898438 348.285156 149.332031 348.25 C 150.765625 348.210938 152.210938 348.175781 153.675781 348.144531 C 155.140625 348.109375 156.617188 348.078125 158.109375 348.046875 C 159.601562 348.019531 161.105469 347.992188 162.621094 347.964844 C 164.136719 347.941406 165.664062 347.917969 167.199219 347.898438 C 168.738281 347.875 170.28125 347.855469 171.835938 347.839844 C 173.390625 347.824219 174.949219 347.808594 176.515625 347.796875 C 178.085938 347.78125 179.65625 347.769531 181.234375 347.761719 C 182.808594 347.753906 184.390625 347.746094 185.972656 347.742188 C 187.554688 347.738281 189.136719 347.738281 190.722656 347.738281 C 192.304688 347.738281 193.890625 347.738281 195.472656 347.742188 C 197.054688 347.746094 198.632812 347.753906 200.210938 347.761719 C 201.785156 347.769531 203.359375 347.78125 204.925781 347.796875 C 206.492188 347.808594 208.054688 347.824219 209.605469 347.839844 C 211.160156 347.855469 212.707031 347.875 214.242188 347.898438 C 215.78125 347.917969 217.304688 347.941406 218.820312 347.964844 C 220.339844 347.992188 221.84375 348.019531 223.332031 348.046875 C 224.824219 348.078125 226.304688 348.109375 227.765625 348.144531 C 229.230469 348.175781 230.679688 348.210938 232.109375 348.25 C 233.542969 348.285156 234.957031 348.324219 236.355469 348.367188 C 237.75 348.40625 239.128906 348.449219 240.488281 348.496094 C 241.847656 348.539062 243.1875 348.585938 244.503906 348.636719 C 245.820312 348.683594 247.113281 348.734375 248.386719 348.785156 C 249.660156 348.835938 250.910156 348.890625 252.132812 348.945312 C 253.359375 349 254.558594 349.058594 255.730469 349.117188 C 256.90625 349.175781 258.050781 349.234375 259.171875 349.296875 C 260.292969 349.359375 261.382812 349.421875 262.449219 349.488281 C 263.511719 349.550781 264.546875 349.617188 265.550781 349.683594 C 266.558594 349.75 267.53125 349.820312 268.476562 349.890625 C 269.417969 349.960938 270.332031 350.03125 271.210938 350.105469 C 272.089844 350.175781 272.9375 350.25 273.753906 350.324219 C 274.566406 350.398438 275.347656 350.476562 276.09375 350.550781 C 276.84375 350.628906 277.554688 350.707031 278.230469 350.785156 C 278.910156 350.863281 279.550781 350.945312 280.15625 351.023438 C 280.761719 351.105469 281.332031 351.1875 281.867188 351.269531 C 282.402344 351.351562 282.898438 351.433594 283.355469 351.515625 C 283.816406 351.601562 284.238281 351.683594 284.625 351.769531 C 285.007812 351.855469 285.355469 351.9375 285.664062 352.023438 C 285.976562 352.109375 286.246094 352.195312 286.476562 352.28125 C 286.710938 352.367188 286.902344 352.453125 287.058594 352.542969 C 287.214844 352.628906 287.332031 352.714844 287.410156 352.800781 C 287.488281 352.890625 287.527344 352.976562 287.527344 353.0625 Z M 287.527344 353.0625 " fill-opacity="1" fill-rule="nonzero"/></g><g fill="#ffffff" fill-opacity="1"><g transform="translate(120.99899, 105.48071)"><g><path d="M 37.84375 0 L 37.84375 -20.421875 L 8.171875 -20.421875 L 3.21875 -30.109375 L 40.109375 -75.265625 L 49.03125 -75.265625 L 49.03125 -31.078125 L 62.140625 -31.078125 L 62.140625 -20.421875 L 49.03125 -20.421875 L 49.03125 0 Z M 16.875 -31.078125 L 37.84375 -31.078125 L 37.84375 -56.65625 Z M 16.875 -31.078125 "/></g></g></g><g fill="#ffffff" fill-opacity="1"><g transform="translate(187.657942, 105.48071)"><g><path d="M 30.421875 0 C 25.617188 0 21.242188 -1.109375 17.296875 -3.328125 C 13.359375 -5.554688 10.207031 -8.675781 7.84375 -12.6875 C 5.476562 -16.695312 4.296875 -21.320312 4.296875 -26.5625 C 4.296875 -29.78125 4.941406 -33.320312 6.234375 -37.1875 C 7.523438 -41.0625 9.15625 -44.96875 11.125 -48.90625 C 13.09375 -52.851562 15.082031 -56.550781 17.09375 -60 L 26.875 -76.546875 L 38.171875 -76.546875 L 38.59375 -75.46875 L 26.765625 -55.578125 C 25.765625 -53.929688 24.832031 -52.285156 23.96875 -50.640625 C 25.257812 -51.285156 26.675781 -51.769531 28.21875 -52.09375 C 29.757812 -52.414062 31.390625 -52.578125 33.109375 -52.578125 C 37.335938 -52.578125 41.191406 -51.425781 44.671875 -49.125 C 48.148438 -46.832031 50.925781 -43.820312 53 -40.09375 C 55.082031 -36.375 56.125 -32.328125 56.125 -27.953125 C 56.125 -22.867188 55.082031 -18.210938 53 -13.984375 C 50.925781 -9.753906 47.972656 -6.363281 44.140625 -3.8125 C 40.304688 -1.269531 35.734375 0 30.421875 0 Z M 30.421875 -10.75 C 33.003906 -10.75 35.40625 -11.375 37.625 -12.625 C 39.851562 -13.882812 41.628906 -15.695312 42.953125 -18.0625 C 44.273438 -20.425781 44.9375 -23.257812 44.9375 -26.5625 C 44.9375 -29.0625 44.328125 -31.476562 43.109375 -33.8125 C 41.890625 -36.144531 40.222656 -38.0625 38.109375 -39.5625 C 35.992188 -41.070312 33.503906 -41.828125 30.640625 -41.828125 C 27.484375 -41.828125 24.773438 -41.109375 22.515625 -39.671875 C 20.265625 -38.234375 18.53125 -36.367188 17.3125 -34.078125 C 16.09375 -31.785156 15.484375 -29.3125 15.484375 -26.65625 C 15.484375 -23.863281 16.070312 -21.265625 17.25 -18.859375 C 18.4375 -16.460938 20.15625 -14.507812 22.40625 -13 C 24.664062 -11.5 27.335938 -10.75 30.421875 -10.75 Z M 30.421875 -10.75 "/></g></g></g></svg>