<svg xmlns="http://www.w3.org/2000/svg" xmlns:xlink="http://www.w3.org/1999/xlink" width="500" zoomAndPan="magnify" viewBox="0 0 375 374.999991" height="500" preserveAspectRatio="xMidYMid meet" version="1.0"><defs><g/><clipPath id="e5af898b00"><path d="M 6.570312 0 L 369.714844 0 L 369.714844 375 L 6.570312 375 Z M 6.570312 0 " clip-rule="nonzero"/></clipPath><clipPath id="b24d255ec9"><path d="M 20.820312 0 L 355.464844 0 C 359.242188 0 362.867188 1.5 365.539062 4.171875 C 368.210938 6.847656 369.714844 10.46875 369.714844 14.25 L 369.714844 360.75 C 369.714844 364.527344 368.210938 368.152344 365.539062 370.828125 C 362.867188 373.5 359.242188 375 355.464844 375 L 20.820312 375 C 17.039062 375 13.414062 373.5 10.742188 370.828125 C 8.070312 368.152344 6.570312 364.527344 6.570312 360.75 L 6.570312 14.25 C 6.570312 10.46875 8.070312 6.847656 10.742188 4.171875 C 13.414062 1.5 17.039062 0 20.820312 0 Z M 20.820312 0 " clip-rule="nonzero"/></clipPath></defs><g clip-path="url(#e5af898b00)"><g clip-path="url(#b24d255ec9)"><path fill="#ff914d" d="M 6.570312 0 L 369.714844 0 L 369.714844 374.492188 L 6.570312 374.492188 Z M 6.570312 0 " fill-opacity="1" fill-rule="nonzero"/></g></g><path fill="#efc9b6" d="M 171.511719 238.515625 L 171.511719 307.027344 C 171.511719 307.027344 254.238281 322.546875 293.535156 309.097656 C 293.535156 309.097656 306.976562 300.820312 299.738281 284.265625 C 299.738281 284.265625 312.292969 270.816406 301.878906 254.261719 C 301.878906 254.261719 318.488281 234.605469 306.011719 222.1875 C 306.011719 222.1875 325.710938 202.53125 310.65625 194.253906 C 295.601562 185.976562 228.386719 197.359375 225.285156 188.046875 C 225.285156 188.046875 225.285156 188.046875 226.320312 172.527344 C 227.355469 157.007812 218.046875 135.28125 201.5 138.386719 C 201.5 138.386719 199.433594 142.523438 199.433594 148.734375 C 199.433594 148.734375 200.46875 173.5625 192.195312 188.046875 C 183.921875 202.53125 171.511719 231.269531 171.511719 238.515625 Z M 171.511719 238.515625 " fill-opacity="1" fill-rule="nonzero"/><path fill="#a6dbf4" d="M 176.683594 230.625 L 176.683594 317.53125 C 176.683594 317.53125 177.71875 325.808594 169.445312 325.808594 C 161.171875 325.808594 141.523438 327.878906 138.421875 319.601562 C 135.320312 311.324219 133.25 236.832031 138.421875 230.625 C 143.589844 224.417969 176.683594 225.417969 176.683594 230.625 Z M 176.683594 230.625 " fill-opacity="1" fill-rule="nonzero"/><path fill="#f4db73" d="M 158.585938 296.9375 C 158.585938 296.9375 150.832031 296.9375 149.796875 304.695312 C 148.765625 312.457031 154.96875 314.640625 158.585938 314.582031 C 158.585938 314.582031 166.34375 313.03125 167.378906 305.757812 C 167.375 305.761719 167.894531 297.972656 158.585938 296.9375 Z M 158.585938 296.9375 " fill-opacity="1" fill-rule="nonzero"/><path fill="#3f78a1" d="M 144.28125 226.335938 C 144.28125 226.335938 149.105469 339.871094 144.28125 340.5625 C 139.457031 341.25 48.457031 340.714844 48.457031 340.714844 C 48.457031 340.714844 42.941406 331.75 48.457031 226.488281 C 48.457031 226.488281 49.148438 220.699219 61.554688 222.078125 C 73.964844 223.457031 141.523438 221.710938 141.523438 221.710938 C 141.523438 221.710938 144.097656 221.785156 144.28125 226.335938 Z M 144.28125 226.335938 " fill-opacity="1" fill-rule="nonzero"/><g fill="#ffffff" fill-opacity="1"><g transform="translate(153.727391, 105.48071)"><g><path d="M 27.625 0.75 C 22.175781 0.75 17.5 -0.503906 13.59375 -3.015625 C 9.6875 -5.523438 6.550781 -8.640625 4.1875 -12.359375 L 10.640625 -19.5625 C 13.222656 -16.695312 15.785156 -14.367188 18.328125 -12.578125 C 20.867188 -10.785156 23.96875 -9.890625 27.625 -9.890625 C 30.632812 -9.890625 33.320312 -10.550781 35.6875 -11.875 C 38.0625 -13.207031 39.925781 -14.984375 41.28125 -17.203125 C 42.644531 -19.421875 43.328125 -21.859375 43.328125 -24.515625 C 43.328125 -27.453125 42.660156 -30.046875 41.328125 -32.296875 C 40.003906 -34.554688 38.210938 -36.332031 35.953125 -37.625 C 33.703125 -38.914062 31.210938 -39.5625 28.484375 -39.5625 C 24.835938 -39.5625 21.773438 -38.988281 19.296875 -37.84375 C 16.828125 -36.695312 14.875 -35.765625 13.4375 -35.046875 L 7.3125 -43.328125 L 11.71875 -75.265625 L 52.359375 -75.265625 L 52.359375 -64.515625 L 20.96875 -64.515625 L 18.5 -47.84375 C 20.144531 -48.5625 22.039062 -49.148438 24.1875 -49.609375 C 26.34375 -50.078125 28.457031 -50.3125 30.53125 -50.3125 C 34.90625 -50.3125 38.898438 -49.304688 42.515625 -47.296875 C 46.140625 -45.296875 49.0625 -42.445312 51.28125 -38.75 C 53.507812 -35.0625 54.625 -30.675781 54.625 -25.59375 C 54.625 -20.570312 53.421875 -16.070312 51.015625 -12.09375 C 48.617188 -8.113281 45.394531 -4.976562 41.34375 -2.6875 C 37.289062 -0.394531 32.71875 0.75 27.625 0.75 Z M 27.625 0.75 "/></g></g></g></svg>