<svg xmlns="http://www.w3.org/2000/svg" xmlns:xlink="http://www.w3.org/1999/xlink" width="500" zoomAndPan="magnify" viewBox="0 0 375 374.999991" height="500" preserveAspectRatio="xMidYMid meet" version="1.0"><defs><g/><clipPath id="a9dd990d82"><path d="M 6.570312 0 L 369.714844 0 L 369.714844 374.492188 L 6.570312 374.492188 Z M 6.570312 0 " clip-rule="nonzero"/></clipPath><clipPath id="4e495c6dd1"><path d="M 20.820312 0 L 355.464844 0 C 359.242188 0 362.867188 1.5 365.539062 4.171875 C 368.210938 6.847656 369.714844 10.46875 369.714844 14.25 L 369.714844 360.75 C 369.714844 364.527344 368.210938 368.152344 365.539062 370.828125 C 362.867188 373.5 359.242188 375 355.464844 375 L 20.820312 375 C 17.039062 375 13.414062 373.5 10.742188 370.828125 C 8.070312 368.152344 6.570312 364.527344 6.570312 360.75 L 6.570312 14.25 C 6.570312 10.46875 8.070312 6.847656 10.742188 4.171875 C 13.414062 1.5 17.039062 0 20.820312 0 Z M 20.820312 0 " clip-rule="nonzero"/></clipPath><linearGradient x1="0" gradientTransform="matrix(1.418537, 0, 0, 1.418537, 6.56844, 0)" y1="0" x2="0" gradientUnits="userSpaceOnUse" y2="264.000002" id="c7388526a1"><stop stop-opacity="1" stop-color="rgb(12.199402%, 38.398743%, 55.699158%)" offset="0"/><stop stop-opacity="1" stop-color="rgb(12.1521%, 38.540649%, 55.633545%)" offset="0.0078125"/><stop stop-opacity="1" stop-color="rgb(12.055969%, 38.825989%, 55.500793%)" offset="0.015625"/><stop stop-opacity="1" stop-color="rgb(11.961365%, 39.111328%, 55.369568%)" offset="0.0234375"/><stop stop-opacity="1" stop-color="rgb(11.865234%, 39.395142%, 55.236816%)" offset="0.03125"/><stop stop-opacity="1" stop-color="rgb(11.77063%, 39.680481%, 55.105591%)" offset="0.0390625"/><stop stop-opacity="1" stop-color="rgb(11.676025%, 39.96582%, 54.974365%)" offset="0.046875"/><stop stop-opacity="1" stop-color="rgb(11.579895%, 40.249634%, 54.841614%)" offset="0.0546875"/><stop stop-opacity="1" stop-color="rgb(11.485291%, 40.534973%, 54.710388%)" offset="0.0625"/><stop stop-opacity="1" stop-color="rgb(11.38916%, 40.818787%, 54.577637%)" offset="0.0703125"/><stop stop-opacity="1" stop-color="rgb(11.294556%, 41.104126%, 54.446411%)" offset="0.078125"/><stop stop-opacity="1" stop-color="rgb(11.199951%, 41.389465%, 54.31366%)" offset="0.0859375"/><stop stop-opacity="1" stop-color="rgb(11.103821%, 41.673279%, 54.182434%)" offset="0.09375"/><stop stop-opacity="1" stop-color="rgb(11.009216%, 41.958618%, 54.051208%)" offset="0.101562"/><stop stop-opacity="1" stop-color="rgb(10.914612%, 42.243958%, 53.918457%)" offset="0.109375"/><stop stop-opacity="1" stop-color="rgb(10.818481%, 42.527771%, 53.787231%)" offset="0.117188"/><stop stop-opacity="1" stop-color="rgb(10.723877%, 42.81311%, 53.65448%)" offset="0.125"/><stop stop-opacity="1" stop-color="rgb(10.627747%, 43.09845%, 53.523254%)" offset="0.132812"/><stop stop-opacity="1" stop-color="rgb(10.533142%, 43.382263%, 53.392029%)" offset="0.140625"/><stop stop-opacity="1" stop-color="rgb(10.438538%, 43.667603%, 53.259277%)" offset="0.148438"/><stop stop-opacity="1" stop-color="rgb(10.342407%, 43.951416%, 53.128052%)" offset="0.15625"/><stop stop-opacity="1" stop-color="rgb(10.247803%, 44.236755%, 52.9953%)" offset="0.164062"/><stop stop-opacity="1" stop-color="rgb(10.151672%, 44.522095%, 52.864075%)" offset="0.171875"/><stop stop-opacity="1" stop-color="rgb(10.057068%, 44.805908%, 52.731323%)" offset="0.179688"/><stop stop-opacity="1" stop-color="rgb(9.962463%, 45.091248%, 52.600098%)" offset="0.1875"/><stop stop-opacity="1" stop-color="rgb(9.866333%, 45.376587%, 52.468872%)" offset="0.195312"/><stop stop-opacity="1" stop-color="rgb(9.771729%, 45.6604%, 52.336121%)" offset="0.203125"/><stop stop-opacity="1" stop-color="rgb(9.677124%, 45.94574%, 52.204895%)" offset="0.210938"/><stop stop-opacity="1" stop-color="rgb(9.580994%, 46.231079%, 52.072144%)" offset="0.21875"/><stop stop-opacity="1" stop-color="rgb(9.486389%, 46.514893%, 51.940918%)" offset="0.226562"/><stop stop-opacity="1" stop-color="rgb(9.390259%, 46.800232%, 51.809692%)" offset="0.234375"/><stop stop-opacity="1" stop-color="rgb(9.295654%, 47.084045%, 51.676941%)" offset="0.242188"/><stop stop-opacity="1" stop-color="rgb(9.20105%, 47.369385%, 51.545715%)" offset="0.25"/><stop stop-opacity="1" stop-color="rgb(9.104919%, 47.654724%, 51.412964%)" offset="0.257812"/><stop stop-opacity="1" stop-color="rgb(9.010315%, 47.938538%, 51.281738%)" offset="0.265625"/><stop stop-opacity="1" stop-color="rgb(8.914185%, 48.223877%, 51.150513%)" offset="0.273438"/><stop stop-opacity="1" stop-color="rgb(8.81958%, 48.509216%, 51.017761%)" offset="0.28125"/><stop stop-opacity="1" stop-color="rgb(8.724976%, 48.79303%, 50.886536%)" offset="0.289062"/><stop stop-opacity="1" stop-color="rgb(8.628845%, 49.078369%, 50.753784%)" offset="0.296875"/><stop stop-opacity="1" stop-color="rgb(8.534241%, 49.363708%, 50.622559%)" offset="0.304687"/><stop stop-opacity="1" stop-color="rgb(8.439636%, 49.647522%, 50.489807%)" offset="0.3125"/><stop stop-opacity="1" stop-color="rgb(8.343506%, 49.932861%, 50.358582%)" offset="0.320312"/><stop stop-opacity="1" stop-color="rgb(8.248901%, 50.216675%, 50.227356%)" offset="0.328125"/><stop stop-opacity="1" stop-color="rgb(8.152771%, 50.502014%, 50.094604%)" offset="0.335937"/><stop stop-opacity="1" stop-color="rgb(8.058167%, 50.787354%, 49.963379%)" offset="0.34375"/><stop stop-opacity="1" stop-color="rgb(7.963562%, 51.071167%, 49.830627%)" offset="0.351562"/><stop stop-opacity="1" stop-color="rgb(7.867432%, 51.356506%, 49.699402%)" offset="0.359375"/><stop stop-opacity="1" stop-color="rgb(7.772827%, 51.641846%, 49.568176%)" offset="0.367187"/><stop stop-opacity="1" stop-color="rgb(7.678223%, 51.925659%, 49.435425%)" offset="0.375"/><stop stop-opacity="1" stop-color="rgb(7.582092%, 52.210999%, 49.304199%)" offset="0.382812"/><stop stop-opacity="1" stop-color="rgb(7.487488%, 52.496338%, 49.171448%)" offset="0.390625"/><stop stop-opacity="1" stop-color="rgb(7.391357%, 52.780151%, 49.040222%)" offset="0.398438"/><stop stop-opacity="1" stop-color="rgb(7.296753%, 53.065491%, 48.907471%)" offset="0.40625"/><stop stop-opacity="1" stop-color="rgb(7.202148%, 53.349304%, 48.776245%)" offset="0.414062"/><stop stop-opacity="1" stop-color="rgb(7.106018%, 53.634644%, 48.64502%)" offset="0.421875"/><stop stop-opacity="1" stop-color="rgb(7.011414%, 53.919983%, 48.512268%)" offset="0.429688"/><stop stop-opacity="1" stop-color="rgb(6.915283%, 54.203796%, 48.381042%)" offset="0.4375"/><stop stop-opacity="1" stop-color="rgb(6.820679%, 54.489136%, 48.248291%)" offset="0.445312"/><stop stop-opacity="1" stop-color="rgb(6.726074%, 54.774475%, 48.117065%)" offset="0.453125"/><stop stop-opacity="1" stop-color="rgb(6.629944%, 55.058289%, 47.98584%)" offset="0.460938"/><stop stop-opacity="1" stop-color="rgb(6.535339%, 55.343628%, 47.853088%)" offset="0.46875"/><stop stop-opacity="1" stop-color="rgb(6.440735%, 55.628967%, 47.721863%)" offset="0.476562"/><stop stop-opacity="1" stop-color="rgb(6.344604%, 55.912781%, 47.589111%)" offset="0.484375"/><stop stop-opacity="1" stop-color="rgb(6.25%, 56.19812%, 47.457886%)" offset="0.492188"/><stop stop-opacity="1" stop-color="rgb(6.15387%, 56.481934%, 47.325134%)" offset="0.5"/><stop stop-opacity="1" stop-color="rgb(6.059265%, 56.767273%, 47.193909%)" offset="0.507812"/><stop stop-opacity="1" stop-color="rgb(5.964661%, 57.052612%, 47.062683%)" offset="0.515625"/><stop stop-opacity="1" stop-color="rgb(5.86853%, 57.336426%, 46.929932%)" offset="0.523438"/><stop stop-opacity="1" stop-color="rgb(5.773926%, 57.621765%, 46.798706%)" offset="0.53125"/><stop stop-opacity="1" stop-color="rgb(5.677795%, 57.907104%, 46.665955%)" offset="0.539062"/><stop stop-opacity="1" stop-color="rgb(5.583191%, 58.190918%, 46.534729%)" offset="0.546875"/><stop stop-opacity="1" stop-color="rgb(5.488586%, 58.476257%, 46.403503%)" offset="0.554688"/><stop stop-opacity="1" stop-color="rgb(5.392456%, 58.761597%, 46.270752%)" offset="0.5625"/><stop stop-opacity="1" stop-color="rgb(5.297852%, 59.04541%, 46.139526%)" offset="0.570312"/><stop stop-opacity="1" stop-color="rgb(5.203247%, 59.33075%, 46.006775%)" offset="0.578125"/><stop stop-opacity="1" stop-color="rgb(5.107117%, 59.614563%, 45.875549%)" offset="0.585937"/><stop stop-opacity="1" stop-color="rgb(5.012512%, 59.899902%, 45.742798%)" offset="0.59375"/><stop stop-opacity="1" stop-color="rgb(4.916382%, 60.185242%, 45.611572%)" offset="0.601562"/><stop stop-opacity="1" stop-color="rgb(4.821777%, 60.469055%, 45.480347%)" offset="0.609375"/><stop stop-opacity="1" stop-color="rgb(4.727173%, 60.754395%, 45.347595%)" offset="0.617188"/><stop stop-opacity="1" stop-color="rgb(4.631042%, 61.039734%, 45.21637%)" offset="0.625"/><stop stop-opacity="1" stop-color="rgb(4.536438%, 61.323547%, 45.083618%)" offset="0.632812"/><stop stop-opacity="1" stop-color="rgb(4.441833%, 61.608887%, 44.952393%)" offset="0.640625"/><stop stop-opacity="1" stop-color="rgb(4.345703%, 61.894226%, 44.821167%)" offset="0.648438"/><stop stop-opacity="1" stop-color="rgb(4.251099%, 62.17804%, 44.688416%)" offset="0.65625"/><stop stop-opacity="1" stop-color="rgb(4.154968%, 62.463379%, 44.55719%)" offset="0.664062"/><stop stop-opacity="1" stop-color="rgb(4.060364%, 62.747192%, 44.424438%)" offset="0.671875"/><stop stop-opacity="1" stop-color="rgb(3.965759%, 63.032532%, 44.293213%)" offset="0.679687"/><stop stop-opacity="1" stop-color="rgb(3.869629%, 63.317871%, 44.160461%)" offset="0.6875"/><stop stop-opacity="1" stop-color="rgb(3.775024%, 63.601685%, 44.029236%)" offset="0.695312"/><stop stop-opacity="1" stop-color="rgb(3.678894%, 63.887024%, 43.89801%)" offset="0.703125"/><stop stop-opacity="1" stop-color="rgb(3.58429%, 64.172363%, 43.765259%)" offset="0.710938"/><stop stop-opacity="1" stop-color="rgb(3.489685%, 64.456177%, 43.634033%)" offset="0.71875"/><stop stop-opacity="1" stop-color="rgb(3.393555%, 64.741516%, 43.501282%)" offset="0.726562"/><stop stop-opacity="1" stop-color="rgb(3.29895%, 65.026855%, 43.370056%)" offset="0.734375"/><stop stop-opacity="1" stop-color="rgb(3.204346%, 65.310669%, 43.238831%)" offset="0.742188"/><stop stop-opacity="1" stop-color="rgb(3.108215%, 65.596008%, 43.106079%)" offset="0.75"/><stop stop-opacity="1" stop-color="rgb(3.013611%, 65.879822%, 42.974854%)" offset="0.757812"/><stop stop-opacity="1" stop-color="rgb(2.91748%, 66.165161%, 42.842102%)" offset="0.765625"/><stop stop-opacity="1" stop-color="rgb(2.822876%, 66.4505%, 42.710876%)" offset="0.773438"/><stop stop-opacity="1" stop-color="rgb(2.728271%, 66.734314%, 42.579651%)" offset="0.78125"/><stop stop-opacity="1" stop-color="rgb(2.632141%, 67.019653%, 42.446899%)" offset="0.789062"/><stop stop-opacity="1" stop-color="rgb(2.537537%, 67.304993%, 42.315674%)" offset="0.796875"/><stop stop-opacity="1" stop-color="rgb(2.441406%, 67.588806%, 42.182922%)" offset="0.804687"/><stop stop-opacity="1" stop-color="rgb(2.346802%, 67.874146%, 42.051697%)" offset="0.8125"/><stop stop-opacity="1" stop-color="rgb(2.252197%, 68.159485%, 41.918945%)" offset="0.820312"/><stop stop-opacity="1" stop-color="rgb(2.156067%, 68.443298%, 41.78772%)" offset="0.828125"/><stop stop-opacity="1" stop-color="rgb(2.061462%, 68.728638%, 41.656494%)" offset="0.835938"/><stop stop-opacity="1" stop-color="rgb(1.966858%, 69.012451%, 41.523743%)" offset="0.84375"/><stop stop-opacity="1" stop-color="rgb(1.870728%, 69.297791%, 41.392517%)" offset="0.851562"/><stop stop-opacity="1" stop-color="rgb(1.776123%, 69.58313%, 41.259766%)" offset="0.859375"/><stop stop-opacity="1" stop-color="rgb(1.679993%, 69.866943%, 41.12854%)" offset="0.867188"/><stop stop-opacity="1" stop-color="rgb(1.585388%, 70.152283%, 40.997314%)" offset="0.875"/><stop stop-opacity="1" stop-color="rgb(1.490784%, 70.437622%, 40.864563%)" offset="0.882812"/><stop stop-opacity="1" stop-color="rgb(1.394653%, 70.721436%, 40.733337%)" offset="0.890625"/><stop stop-opacity="1" stop-color="rgb(1.300049%, 71.006775%, 40.600586%)" offset="0.898438"/><stop stop-opacity="1" stop-color="rgb(1.203918%, 71.292114%, 40.46936%)" offset="0.90625"/><stop stop-opacity="1" stop-color="rgb(1.109314%, 71.575928%, 40.336609%)" offset="0.914062"/><stop stop-opacity="1" stop-color="rgb(1.014709%, 71.861267%, 40.205383%)" offset="0.921875"/><stop stop-opacity="1" stop-color="rgb(0.918579%, 72.145081%, 40.074158%)" offset="0.929687"/><stop stop-opacity="1" stop-color="rgb(0.823975%, 72.43042%, 39.941406%)" offset="0.9375"/><stop stop-opacity="1" stop-color="rgb(0.72937%, 72.715759%, 39.810181%)" offset="0.945313"/><stop stop-opacity="1" stop-color="rgb(0.63324%, 72.999573%, 39.677429%)" offset="0.953125"/><stop stop-opacity="1" stop-color="rgb(0.538635%, 73.284912%, 39.546204%)" offset="0.960938"/><stop stop-opacity="1" stop-color="rgb(0.442505%, 73.570251%, 39.414978%)" offset="0.96875"/><stop stop-opacity="1" stop-color="rgb(0.3479%, 73.854065%, 39.282227%)" offset="0.976562"/><stop stop-opacity="1" stop-color="rgb(0.253296%, 74.139404%, 39.151001%)" offset="0.984375"/><stop stop-opacity="1" stop-color="rgb(0.157166%, 74.424744%, 39.01825%)" offset="0.992188"/><stop stop-opacity="1" stop-color="rgb(0.062561%, 74.708557%, 38.887024%)" offset="1"/></linearGradient></defs><g clip-path="url(#a9dd990d82)"><g clip-path="url(#4e495c6dd1)"><path fill="url(#c7388526a1)" d="M 6.570312 0 L 6.570312 374.492188 L 369.714844 374.492188 L 369.714844 0 Z M 6.570312 0 " fill-rule="nonzero"/></g></g><path fill="#fcad01" d="M 188.8125 142.226562 C 171.183594 145.53125 127.828125 158.179688 88.261719 205.527344 C 61.039062 238.109375 66.765625 296.296875 66.765625 296.296875 C 66.765625 296.296875 94.363281 308.605469 123.824219 313.003906 C 148.398438 316.667969 185.847656 311.976562 197.71875 310.304688 C 209.667969 311.292969 247.320312 313.828125 271.644531 308.757812 C 300.804688 302.679688 327.648438 288.808594 327.648438 288.808594 C 327.648438 288.808594 330.035156 230.386719 300.988281 199.421875 C 258.773438 154.421875 214.765625 144.28125 196.976562 141.992188 C 194.246094 141.722656 191.523438 141.800781 188.8125 142.226562 Z M 188.8125 142.226562 " fill-opacity="1" fill-rule="evenodd"/><path fill="#e28926" d="M 172.03125 146.59375 C 166.832031 148.300781 161.730469 150.269531 156.734375 152.507812 C 158.386719 157.597656 159.65625 162.21875 159.894531 165.019531 C 160.6875 174.429688 151.730469 299.625 150.195312 300.976562 C 148.664062 302.332031 127.207031 303.535156 123.496094 302.066406 C 120.230469 300.777344 77.5625 285.339844 66.277344 281.257812 C 66.1875 290.367188 66.765625 296.296875 66.765625 296.296875 C 66.765625 296.296875 94.363281 308.605469 123.824219 313.003906 C 136.046875 314.824219 151.453125 314.582031 165.316406 313.667969 C 165.460938 312.445312 165.601562 311.03125 165.738281 309.277344 L 157.671875 309.582031 C 157.671875 309.582031 166.875 187.003906 172.03125 146.59375 Z M 215.175781 145.707031 C 221.835938 186.195312 238.707031 306.515625 238.707031 306.515625 L 230.820312 306.8125 C 231.089844 308.835938 231.34375 310.453125 231.582031 311.804688 C 245.125 311.871094 259.925781 311.203125 271.644531 308.757812 C 300.804688 302.679688 327.648438 288.808594 327.648438 288.808594 C 327.648438 288.808594 327.882812 283.085938 327.3125 274.277344 C 314.921875 279.582031 275.773438 296.34375 272.660156 297.785156 C 269.039062 299.464844 247.546875 299.492188 245.941406 298.230469 C 244.332031 296.964844 228.21875 172.492188 228.472656 163.050781 C 228.542969 160.335938 229.488281 155.855469 230.777344 150.878906 C 225.664062 148.886719 220.464844 147.164062 215.175781 145.707031 Z M 242.390625 155.894531 C 244.996094 172.992188 252.355469 237.3125 254.296875 237.976562 C 255.941406 238.542969 257.023438 189.113281 257.21875 163.839844 C 252.125 160.800781 247.164062 158.171875 242.390625 155.894531 Z M 144.03125 158.839844 C 139.398438 161.394531 134.605469 164.308594 129.703125 167.640625 C 131.351562 192.90625 135.25 242.003906 136.859375 241.347656 C 138.753906 240.574219 142.402344 176.234375 144.03125 158.839844 Z M 109.875 183.152344 C 105.394531 187.148438 100.910156 191.535156 96.417969 196.3125 C 99 213.546875 102.902344 241.730469 104.507812 242.28125 C 106.507812 242.964844 109.886719 194.078125 109.875 183.152344 Z M 278.507812 178.628906 C 279.226562 190.183594 285.300781 237.828125 287.234375 237.035156 C 288.796875 236.398438 291.058594 208.386719 292.648438 191 C 287.917969 186.472656 283.195312 182.367188 278.507812 178.628906 Z M 278.507812 178.628906 " fill-opacity="1" fill-rule="evenodd"/><path fill="#fcad01" d="M 157.671875 309.582031 C 157.671875 309.582031 170.804688 134.644531 174.484375 133.796875 C 178.164062 132.949219 210.703125 130.902344 212.597656 132.332031 C 214.492188 133.757812 238.707031 306.515625 238.707031 306.515625 Z M 157.671875 309.582031 " fill-opacity="1" fill-rule="evenodd"/><path fill="#e28926" d="M 145.824219 312.894531 C 154.003906 315.019531 248.1875 311.003906 248.941406 309.9375 C 249.699219 308.867188 249.929688 298.636719 248.882812 298.667969 C 247.835938 298.699219 150.480469 301.753906 150.480469 301.753906 Z M 145.824219 312.894531 " fill-opacity="1" fill-rule="evenodd"/><path fill="#fcad01" d="M 67.089844 289.210938 C 65.007812 289.796875 45.367188 299.007812 45.179688 301.632812 C 44.992188 304.257812 44.980469 331.253906 46.097656 333.578125 C 47.210938 335.90625 64.527344 327.808594 69.261719 328.457031 C 73.996094 329.109375 110.839844 344.300781 120.582031 346.117188 C 128.882812 347.664062 181.242188 345.664062 198.695312 344.328125 C 216.195312 344.660156 268.578125 343.65625 276.777344 341.632812 C 286.398438 339.261719 322.3125 321.980469 327.003906 321.058594 C 331.691406 320.140625 349.445312 327.230469 350.425781 324.84375 C 351.402344 322.457031 349.84375 295.507812 349.507812 292.898438 C 349.171875 290.285156 329.03125 282.21875 326.921875 281.753906 C 324.8125 281.289062 279.585938 302.503906 269.9375 304.089844 C 241.101562 306.378906 174.394531 306.835938 125.257812 308.246094 C 115.539062 307.214844 69.167969 288.628906 67.089844 289.210938 Z M 67.089844 289.210938 " fill-opacity="1" fill-rule="evenodd"/><path fill="#fcad01" d="M 286.769531 237.3125 C 286.769531 237.3125 286.332031 176.726562 284.777344 174.179688 C 283.222656 171.628906 257.726562 154.570312 254.019531 154.492188 C 250.3125 154.414062 254.675781 237.703125 254.675781 237.703125 Z M 286.769531 237.3125 " fill-opacity="1" fill-rule="evenodd"/><path fill="#fcad01" d="M 104.628906 242.539062 C 104.628906 242.539062 101.597656 182.03125 103.003906 179.394531 C 104.410156 176.761719 128.882812 158.269531 132.578125 157.976562 C 136.273438 157.6875 136.691406 241.089844 136.691406 241.089844 Z M 104.628906 242.539062 " fill-opacity="1" fill-rule="evenodd"/><g fill="#ffffff" fill-opacity="1"><g transform="translate(126.848784, 105.48071)"><g><path d="M 27.625 0.75 C 22.175781 0.75 17.5 -0.503906 13.59375 -3.015625 C 9.6875 -5.523438 6.550781 -8.640625 4.1875 -12.359375 L 10.640625 -19.5625 C 13.222656 -16.695312 15.785156 -14.367188 18.328125 -12.578125 C 20.867188 -10.785156 23.96875 -9.890625 27.625 -9.890625 C 30.632812 -9.890625 33.320312 -10.550781 35.6875 -11.875 C 38.0625 -13.207031 39.925781 -14.984375 41.28125 -17.203125 C 42.644531 -19.421875 43.328125 -21.859375 43.328125 -24.515625 C 43.328125 -27.453125 42.660156 -30.046875 41.328125 -32.296875 C 40.003906 -34.554688 38.210938 -36.332031 35.953125 -37.625 C 33.703125 -38.914062 31.210938 -39.5625 28.484375 -39.5625 C 24.835938 -39.5625 21.773438 -38.988281 19.296875 -37.84375 C 16.828125 -36.695312 14.875 -35.765625 13.4375 -35.046875 L 7.3125 -43.328125 L 11.71875 -75.265625 L 52.359375 -75.265625 L 52.359375 -64.515625 L 20.96875 -64.515625 L 18.5 -47.84375 C 20.144531 -48.5625 22.039062 -49.148438 24.1875 -49.609375 C 26.34375 -50.078125 28.457031 -50.3125 30.53125 -50.3125 C 34.90625 -50.3125 38.898438 -49.304688 42.515625 -47.296875 C 46.140625 -45.296875 49.0625 -42.445312 51.28125 -38.75 C 53.507812 -35.0625 54.625 -30.675781 54.625 -25.59375 C 54.625 -20.570312 53.421875 -16.070312 51.015625 -12.09375 C 48.617188 -8.113281 45.394531 -4.976562 41.34375 -2.6875 C 37.289062 -0.394531 32.71875 0.75 27.625 0.75 Z M 27.625 0.75 "/></g></g></g><g fill="#ffffff" fill-opacity="1"><g transform="translate(187.916988, 105.48071)"><g><path d="M 47.3125 0 L 11.390625 0 L 11.390625 -11.1875 L 23.328125 -11.1875 L 23.328125 -61.171875 L 12.46875 -55.484375 L 9.359375 -65.578125 L 29.453125 -76.34375 L 35.046875 -76.34375 L 35.046875 -11.1875 L 47.3125 -11.1875 Z M 47.3125 0 "/></g></g></g></svg>