<svg xmlns="http://www.w3.org/2000/svg" xmlns:xlink="http://www.w3.org/1999/xlink" width="500" zoomAndPan="magnify" viewBox="0 0 375 374.999991" height="500" preserveAspectRatio="xMidYMid meet" version="1.0"><defs><g/><clipPath id="a8f36c77f8"><path d="M 5.789062 0 L 368.933594 0 L 368.933594 374.492188 L 5.789062 374.492188 Z M 5.789062 0 " clip-rule="nonzero"/></clipPath><clipPath id="dbb6181448"><path d="M 20.039062 0 L 354.683594 0 C 358.464844 0 362.085938 1.5 364.761719 4.171875 C 367.433594 6.847656 368.933594 10.46875 368.933594 14.25 L 368.933594 360.75 C 368.933594 364.527344 367.433594 368.152344 364.761719 370.828125 C 362.085938 373.5 358.464844 375 354.683594 375 L 20.039062 375 C 16.257812 375 12.632812 373.5 9.960938 370.828125 C 7.289062 368.152344 5.789062 364.527344 5.789062 360.75 L 5.789062 14.25 C 5.789062 10.46875 7.289062 6.847656 9.960938 4.171875 C 12.632812 1.5 16.257812 0 20.039062 0 Z M 20.039062 0 " clip-rule="nonzero"/></clipPath><linearGradient x1="0" gradientTransform="matrix(1.418537, 0, 0, 1.418537, 5.788525, 0)" y1="0" x2="0" gradientUnits="userSpaceOnUse" y2="264.000002" id="2dc1ffbfc4"><stop stop-opacity="1" stop-color="rgb(12.199402%, 38.398743%, 55.699158%)" offset="0"/><stop stop-opacity="1" stop-color="rgb(12.541199%, 38.470459%, 55.599976%)" offset="0.00390625"/><stop stop-opacity="1" stop-color="rgb(12.884521%, 38.543701%, 55.500793%)" offset="0.0078125"/><stop stop-opacity="1" stop-color="rgb(13.226318%, 38.615417%, 55.400085%)" offset="0.0117188"/><stop stop-opacity="1" stop-color="rgb(13.569641%, 38.68866%, 55.300903%)" offset="0.015625"/><stop stop-opacity="1" stop-color="rgb(13.911438%, 38.760376%, 55.201721%)" offset="0.0195312"/><stop stop-opacity="1" stop-color="rgb(14.254761%, 38.832092%, 55.102539%)" offset="0.0234375"/><stop stop-opacity="1" stop-color="rgb(14.596558%, 38.903809%, 55.001831%)" offset="0.0273438"/><stop stop-opacity="1" stop-color="rgb(14.93988%, 38.977051%, 54.902649%)" offset="0.03125"/><stop stop-opacity="1" stop-color="rgb(15.281677%, 39.048767%, 54.803467%)" offset="0.0351562"/><stop stop-opacity="1" stop-color="rgb(15.625%, 39.120483%, 54.704285%)" offset="0.0390625"/><stop stop-opacity="1" stop-color="rgb(15.966797%, 39.1922%, 54.605103%)" offset="0.0429688"/><stop stop-opacity="1" stop-color="rgb(16.31012%, 39.265442%, 54.50592%)" offset="0.046875"/><stop stop-opacity="1" stop-color="rgb(16.651917%, 39.337158%, 54.405212%)" offset="0.0507812"/><stop stop-opacity="1" stop-color="rgb(16.995239%, 39.4104%, 54.30603%)" offset="0.0546875"/><stop stop-opacity="1" stop-color="rgb(17.337036%, 39.482117%, 54.206848%)" offset="0.0585938"/><stop stop-opacity="1" stop-color="rgb(17.680359%, 39.553833%, 54.107666%)" offset="0.0625"/><stop stop-opacity="1" stop-color="rgb(18.022156%, 39.625549%, 54.008484%)" offset="0.0664062"/><stop stop-opacity="1" stop-color="rgb(18.363953%, 39.698792%, 53.909302%)" offset="0.0703125"/><stop stop-opacity="1" stop-color="rgb(18.70575%, 39.770508%, 53.808594%)" offset="0.0742188"/><stop stop-opacity="1" stop-color="rgb(19.049072%, 39.842224%, 53.709412%)" offset="0.078125"/><stop stop-opacity="1" stop-color="rgb(19.390869%, 39.91394%, 53.610229%)" offset="0.0820312"/><stop stop-opacity="1" stop-color="rgb(19.734192%, 39.987183%, 53.511047%)" offset="0.0859375"/><stop stop-opacity="1" stop-color="rgb(20.075989%, 40.058899%, 53.410339%)" offset="0.0898438"/><stop stop-opacity="1" stop-color="rgb(20.419312%, 40.130615%, 53.311157%)" offset="0.09375"/><stop stop-opacity="1" stop-color="rgb(20.761108%, 40.202332%, 53.211975%)" offset="0.0976562"/><stop stop-opacity="1" stop-color="rgb(21.104431%, 40.275574%, 53.112793%)" offset="0.101562"/><stop stop-opacity="1" stop-color="rgb(21.446228%, 40.34729%, 53.013611%)" offset="0.105469"/><stop stop-opacity="1" stop-color="rgb(21.789551%, 40.420532%, 52.914429%)" offset="0.109375"/><stop stop-opacity="1" stop-color="rgb(22.131348%, 40.492249%, 52.813721%)" offset="0.113281"/><stop stop-opacity="1" stop-color="rgb(22.47467%, 40.563965%, 52.714539%)" offset="0.117188"/><stop stop-opacity="1" stop-color="rgb(22.816467%, 40.635681%, 52.615356%)" offset="0.121094"/><stop stop-opacity="1" stop-color="rgb(23.15979%, 40.708923%, 52.516174%)" offset="0.125"/><stop stop-opacity="1" stop-color="rgb(23.501587%, 40.78064%, 52.415466%)" offset="0.128906"/><stop stop-opacity="1" stop-color="rgb(23.84491%, 40.852356%, 52.316284%)" offset="0.132812"/><stop stop-opacity="1" stop-color="rgb(24.186707%, 40.924072%, 52.217102%)" offset="0.136719"/><stop stop-opacity="1" stop-color="rgb(24.530029%, 40.997314%, 52.11792%)" offset="0.140625"/><stop stop-opacity="1" stop-color="rgb(24.871826%, 41.069031%, 52.018738%)" offset="0.144531"/><stop stop-opacity="1" stop-color="rgb(25.215149%, 41.142273%, 51.919556%)" offset="0.148438"/><stop stop-opacity="1" stop-color="rgb(25.556946%, 41.213989%, 51.818848%)" offset="0.152344"/><stop stop-opacity="1" stop-color="rgb(25.900269%, 41.285706%, 51.719666%)" offset="0.15625"/><stop stop-opacity="1" stop-color="rgb(26.242065%, 41.357422%, 51.620483%)" offset="0.160156"/><stop stop-opacity="1" stop-color="rgb(26.585388%, 41.430664%, 51.521301%)" offset="0.164062"/><stop stop-opacity="1" stop-color="rgb(26.927185%, 41.50238%, 51.420593%)" offset="0.167969"/><stop stop-opacity="1" stop-color="rgb(27.270508%, 41.574097%, 51.321411%)" offset="0.171875"/><stop stop-opacity="1" stop-color="rgb(27.612305%, 41.645813%, 51.222229%)" offset="0.175781"/><stop stop-opacity="1" stop-color="rgb(27.955627%, 41.719055%, 51.123047%)" offset="0.179688"/><stop stop-opacity="1" stop-color="rgb(28.297424%, 41.790771%, 51.023865%)" offset="0.183594"/><stop stop-opacity="1" stop-color="rgb(28.640747%, 41.864014%, 50.924683%)" offset="0.1875"/><stop stop-opacity="1" stop-color="rgb(28.982544%, 41.93573%, 50.823975%)" offset="0.191406"/><stop stop-opacity="1" stop-color="rgb(29.325867%, 42.007446%, 50.724792%)" offset="0.195312"/><stop stop-opacity="1" stop-color="rgb(29.667664%, 42.079163%, 50.62561%)" offset="0.199219"/><stop stop-opacity="1" stop-color="rgb(30.010986%, 42.152405%, 50.526428%)" offset="0.203125"/><stop stop-opacity="1" stop-color="rgb(30.352783%, 42.224121%, 50.427246%)" offset="0.207031"/><stop stop-opacity="1" stop-color="rgb(30.696106%, 42.295837%, 50.328064%)" offset="0.210938"/><stop stop-opacity="1" stop-color="rgb(31.037903%, 42.367554%, 50.227356%)" offset="0.214844"/><stop stop-opacity="1" stop-color="rgb(31.381226%, 42.440796%, 50.128174%)" offset="0.21875"/><stop stop-opacity="1" stop-color="rgb(31.723022%, 42.512512%, 50.028992%)" offset="0.222656"/><stop stop-opacity="1" stop-color="rgb(32.064819%, 42.585754%, 49.92981%)" offset="0.226562"/><stop stop-opacity="1" stop-color="rgb(32.406616%, 42.657471%, 49.829102%)" offset="0.230469"/><stop stop-opacity="1" stop-color="rgb(32.749939%, 42.729187%, 49.729919%)" offset="0.234375"/><stop stop-opacity="1" stop-color="rgb(33.091736%, 42.800903%, 49.630737%)" offset="0.238281"/><stop stop-opacity="1" stop-color="rgb(33.435059%, 42.874146%, 49.531555%)" offset="0.242188"/><stop stop-opacity="1" stop-color="rgb(33.776855%, 42.945862%, 49.432373%)" offset="0.246094"/><stop stop-opacity="1" stop-color="rgb(34.120178%, 43.017578%, 49.333191%)" offset="0.25"/><stop stop-opacity="1" stop-color="rgb(34.461975%, 43.089294%, 49.232483%)" offset="0.253906"/><stop stop-opacity="1" stop-color="rgb(34.805298%, 43.162537%, 49.133301%)" offset="0.257812"/><stop stop-opacity="1" stop-color="rgb(35.147095%, 43.234253%, 49.034119%)" offset="0.261719"/><stop stop-opacity="1" stop-color="rgb(35.490417%, 43.307495%, 48.934937%)" offset="0.265625"/><stop stop-opacity="1" stop-color="rgb(35.832214%, 43.379211%, 48.834229%)" offset="0.269531"/><stop stop-opacity="1" stop-color="rgb(36.175537%, 43.450928%, 48.735046%)" offset="0.273438"/><stop stop-opacity="1" stop-color="rgb(36.517334%, 43.522644%, 48.635864%)" offset="0.277344"/><stop stop-opacity="1" stop-color="rgb(36.860657%, 43.595886%, 48.536682%)" offset="0.28125"/><stop stop-opacity="1" stop-color="rgb(37.202454%, 43.667603%, 48.4375%)" offset="0.285156"/><stop stop-opacity="1" stop-color="rgb(37.545776%, 43.739319%, 48.338318%)" offset="0.289062"/><stop stop-opacity="1" stop-color="rgb(37.887573%, 43.811035%, 48.23761%)" offset="0.292969"/><stop stop-opacity="1" stop-color="rgb(38.230896%, 43.884277%, 48.138428%)" offset="0.296875"/><stop stop-opacity="1" stop-color="rgb(38.572693%, 43.955994%, 48.039246%)" offset="0.300781"/><stop stop-opacity="1" stop-color="rgb(38.916016%, 44.029236%, 47.940063%)" offset="0.304687"/><stop stop-opacity="1" stop-color="rgb(39.257812%, 44.100952%, 47.839355%)" offset="0.308594"/><stop stop-opacity="1" stop-color="rgb(39.601135%, 44.172668%, 47.740173%)" offset="0.3125"/><stop stop-opacity="1" stop-color="rgb(39.942932%, 44.244385%, 47.640991%)" offset="0.316406"/><stop stop-opacity="1" stop-color="rgb(40.286255%, 44.317627%, 47.541809%)" offset="0.320312"/><stop stop-opacity="1" stop-color="rgb(40.628052%, 44.389343%, 47.442627%)" offset="0.324219"/><stop stop-opacity="1" stop-color="rgb(40.971375%, 44.46106%, 47.343445%)" offset="0.328125"/><stop stop-opacity="1" stop-color="rgb(41.313171%, 44.532776%, 47.242737%)" offset="0.332031"/><stop stop-opacity="1" stop-color="rgb(41.656494%, 44.606018%, 47.143555%)" offset="0.335937"/><stop stop-opacity="1" stop-color="rgb(41.998291%, 44.677734%, 47.044373%)" offset="0.339844"/><stop stop-opacity="1" stop-color="rgb(42.341614%, 44.750977%, 46.94519%)" offset="0.34375"/><stop stop-opacity="1" stop-color="rgb(42.683411%, 44.822693%, 46.844482%)" offset="0.347656"/><stop stop-opacity="1" stop-color="rgb(43.026733%, 44.894409%, 46.7453%)" offset="0.351562"/><stop stop-opacity="1" stop-color="rgb(43.36853%, 44.966125%, 46.646118%)" offset="0.355469"/><stop stop-opacity="1" stop-color="rgb(43.711853%, 45.039368%, 46.546936%)" offset="0.359375"/><stop stop-opacity="1" stop-color="rgb(44.05365%, 45.111084%, 46.447754%)" offset="0.363281"/><stop stop-opacity="1" stop-color="rgb(44.396973%, 45.1828%, 46.348572%)" offset="0.367187"/><stop stop-opacity="1" stop-color="rgb(44.73877%, 45.254517%, 46.247864%)" offset="0.371094"/><stop stop-opacity="1" stop-color="rgb(45.082092%, 45.327759%, 46.148682%)" offset="0.375"/><stop stop-opacity="1" stop-color="rgb(45.423889%, 45.399475%, 46.0495%)" offset="0.378906"/><stop stop-opacity="1" stop-color="rgb(45.767212%, 45.472717%, 45.950317%)" offset="0.382812"/><stop stop-opacity="1" stop-color="rgb(46.109009%, 45.544434%, 45.851135%)" offset="0.386719"/><stop stop-opacity="1" stop-color="rgb(46.450806%, 45.61615%, 45.751953%)" offset="0.390625"/><stop stop-opacity="1" stop-color="rgb(46.792603%, 45.687866%, 45.651245%)" offset="0.394531"/><stop stop-opacity="1" stop-color="rgb(47.135925%, 45.761108%, 45.552063%)" offset="0.398438"/><stop stop-opacity="1" stop-color="rgb(47.477722%, 45.832825%, 45.452881%)" offset="0.402344"/><stop stop-opacity="1" stop-color="rgb(47.821045%, 45.904541%, 45.353699%)" offset="0.40625"/><stop stop-opacity="1" stop-color="rgb(48.162842%, 45.976257%, 45.252991%)" offset="0.410156"/><stop stop-opacity="1" stop-color="rgb(48.506165%, 46.0495%, 45.153809%)" offset="0.414062"/><stop stop-opacity="1" stop-color="rgb(48.847961%, 46.121216%, 45.054626%)" offset="0.417969"/><stop stop-opacity="1" stop-color="rgb(49.191284%, 46.194458%, 44.955444%)" offset="0.421875"/><stop stop-opacity="1" stop-color="rgb(49.533081%, 46.266174%, 44.856262%)" offset="0.425781"/><stop stop-opacity="1" stop-color="rgb(49.876404%, 46.337891%, 44.75708%)" offset="0.429688"/><stop stop-opacity="1" stop-color="rgb(50.218201%, 46.409607%, 44.656372%)" offset="0.433594"/><stop stop-opacity="1" stop-color="rgb(50.561523%, 46.482849%, 44.55719%)" offset="0.4375"/><stop stop-opacity="1" stop-color="rgb(50.90332%, 46.554565%, 44.458008%)" offset="0.441406"/><stop stop-opacity="1" stop-color="rgb(51.246643%, 46.626282%, 44.358826%)" offset="0.445312"/><stop stop-opacity="1" stop-color="rgb(51.58844%, 46.697998%, 44.258118%)" offset="0.449219"/><stop stop-opacity="1" stop-color="rgb(51.931763%, 46.77124%, 44.158936%)" offset="0.453125"/><stop stop-opacity="1" stop-color="rgb(52.27356%, 46.842957%, 44.059753%)" offset="0.457031"/><stop stop-opacity="1" stop-color="rgb(52.616882%, 46.916199%, 43.960571%)" offset="0.460938"/><stop stop-opacity="1" stop-color="rgb(52.958679%, 46.987915%, 43.861389%)" offset="0.464844"/><stop stop-opacity="1" stop-color="rgb(53.302002%, 47.059631%, 43.762207%)" offset="0.46875"/><stop stop-opacity="1" stop-color="rgb(53.643799%, 47.131348%, 43.661499%)" offset="0.472656"/><stop stop-opacity="1" stop-color="rgb(53.987122%, 47.20459%, 43.562317%)" offset="0.476562"/><stop stop-opacity="1" stop-color="rgb(54.328918%, 47.276306%, 43.463135%)" offset="0.480469"/><stop stop-opacity="1" stop-color="rgb(54.672241%, 47.348022%, 43.363953%)" offset="0.484375"/><stop stop-opacity="1" stop-color="rgb(55.014038%, 47.419739%, 43.263245%)" offset="0.488281"/><stop stop-opacity="1" stop-color="rgb(55.357361%, 47.492981%, 43.164062%)" offset="0.492188"/><stop stop-opacity="1" stop-color="rgb(55.699158%, 47.564697%, 43.06488%)" offset="0.496094"/><stop stop-opacity="1" stop-color="rgb(56.04248%, 47.637939%, 42.965698%)" offset="0.5"/><stop stop-opacity="1" stop-color="rgb(56.384277%, 47.709656%, 42.866516%)" offset="0.503906"/><stop stop-opacity="1" stop-color="rgb(56.7276%, 47.781372%, 42.767334%)" offset="0.507812"/><stop stop-opacity="1" stop-color="rgb(57.069397%, 47.853088%, 42.666626%)" offset="0.511719"/><stop stop-opacity="1" stop-color="rgb(57.41272%, 47.926331%, 42.567444%)" offset="0.515625"/><stop stop-opacity="1" stop-color="rgb(57.754517%, 47.998047%, 42.468262%)" offset="0.519531"/><stop stop-opacity="1" stop-color="rgb(58.097839%, 48.069763%, 42.36908%)" offset="0.523438"/><stop stop-opacity="1" stop-color="rgb(58.439636%, 48.141479%, 42.269897%)" offset="0.527344"/><stop stop-opacity="1" stop-color="rgb(58.782959%, 48.214722%, 42.170715%)" offset="0.53125"/><stop stop-opacity="1" stop-color="rgb(59.124756%, 48.286438%, 42.070007%)" offset="0.535156"/><stop stop-opacity="1" stop-color="rgb(59.468079%, 48.35968%, 41.970825%)" offset="0.539062"/><stop stop-opacity="1" stop-color="rgb(59.809875%, 48.431396%, 41.871643%)" offset="0.542969"/><stop stop-opacity="1" stop-color="rgb(60.151672%, 48.503113%, 41.772461%)" offset="0.546875"/><stop stop-opacity="1" stop-color="rgb(60.493469%, 48.574829%, 41.671753%)" offset="0.550781"/><stop stop-opacity="1" stop-color="rgb(60.836792%, 48.648071%, 41.572571%)" offset="0.554688"/><stop stop-opacity="1" stop-color="rgb(61.178589%, 48.719788%, 41.473389%)" offset="0.558594"/><stop stop-opacity="1" stop-color="rgb(61.521912%, 48.791504%, 41.374207%)" offset="0.5625"/><stop stop-opacity="1" stop-color="rgb(61.863708%, 48.86322%, 41.275024%)" offset="0.566406"/><stop stop-opacity="1" stop-color="rgb(62.207031%, 48.936462%, 41.175842%)" offset="0.570312"/><stop stop-opacity="1" stop-color="rgb(62.548828%, 49.008179%, 41.075134%)" offset="0.574219"/><stop stop-opacity="1" stop-color="rgb(62.892151%, 49.079895%, 40.975952%)" offset="0.578125"/><stop stop-opacity="1" stop-color="rgb(63.233948%, 49.151611%, 40.87677%)" offset="0.582031"/><stop stop-opacity="1" stop-color="rgb(63.577271%, 49.224854%, 40.777588%)" offset="0.585937"/><stop stop-opacity="1" stop-color="rgb(63.919067%, 49.29657%, 40.67688%)" offset="0.589844"/><stop stop-opacity="1" stop-color="rgb(64.26239%, 49.369812%, 40.577698%)" offset="0.59375"/><stop stop-opacity="1" stop-color="rgb(64.604187%, 49.441528%, 40.478516%)" offset="0.597656"/><stop stop-opacity="1" stop-color="rgb(64.94751%, 49.513245%, 40.379333%)" offset="0.601562"/><stop stop-opacity="1" stop-color="rgb(65.289307%, 49.584961%, 40.280151%)" offset="0.605469"/><stop stop-opacity="1" stop-color="rgb(65.632629%, 49.658203%, 40.180969%)" offset="0.609375"/><stop stop-opacity="1" stop-color="rgb(65.974426%, 49.729919%, 40.080261%)" offset="0.613281"/><stop stop-opacity="1" stop-color="rgb(66.317749%, 49.801636%, 39.981079%)" offset="0.617188"/><stop stop-opacity="1" stop-color="rgb(66.659546%, 49.873352%, 39.881897%)" offset="0.621094"/><stop stop-opacity="1" stop-color="rgb(67.002869%, 49.946594%, 39.782715%)" offset="0.625"/><stop stop-opacity="1" stop-color="rgb(67.344666%, 50.018311%, 39.682007%)" offset="0.628906"/><stop stop-opacity="1" stop-color="rgb(67.687988%, 50.091553%, 39.582825%)" offset="0.632812"/><stop stop-opacity="1" stop-color="rgb(68.029785%, 50.163269%, 39.483643%)" offset="0.636719"/><stop stop-opacity="1" stop-color="rgb(68.373108%, 50.234985%, 39.38446%)" offset="0.640625"/><stop stop-opacity="1" stop-color="rgb(68.714905%, 50.306702%, 39.285278%)" offset="0.644531"/><stop stop-opacity="1" stop-color="rgb(69.058228%, 50.379944%, 39.186096%)" offset="0.648438"/><stop stop-opacity="1" stop-color="rgb(69.400024%, 50.45166%, 39.085388%)" offset="0.652344"/><stop stop-opacity="1" stop-color="rgb(69.743347%, 50.523376%, 38.986206%)" offset="0.65625"/><stop stop-opacity="1" stop-color="rgb(70.085144%, 50.595093%, 38.887024%)" offset="0.660156"/><stop stop-opacity="1" stop-color="rgb(70.428467%, 50.668335%, 38.787842%)" offset="0.664062"/><stop stop-opacity="1" stop-color="rgb(70.770264%, 50.740051%, 38.687134%)" offset="0.667969"/><stop stop-opacity="1" stop-color="rgb(71.113586%, 50.813293%, 38.587952%)" offset="0.671875"/><stop stop-opacity="1" stop-color="rgb(71.455383%, 50.88501%, 38.48877%)" offset="0.675781"/><stop stop-opacity="1" stop-color="rgb(71.798706%, 50.956726%, 38.389587%)" offset="0.679687"/><stop stop-opacity="1" stop-color="rgb(72.140503%, 51.028442%, 38.290405%)" offset="0.683594"/><stop stop-opacity="1" stop-color="rgb(72.483826%, 51.101685%, 38.191223%)" offset="0.6875"/><stop stop-opacity="1" stop-color="rgb(72.825623%, 51.173401%, 38.090515%)" offset="0.691406"/><stop stop-opacity="1" stop-color="rgb(73.168945%, 51.245117%, 37.991333%)" offset="0.695312"/><stop stop-opacity="1" stop-color="rgb(73.510742%, 51.316833%, 37.892151%)" offset="0.699219"/><stop stop-opacity="1" stop-color="rgb(73.854065%, 51.390076%, 37.792969%)" offset="0.703125"/><stop stop-opacity="1" stop-color="rgb(74.195862%, 51.461792%, 37.693787%)" offset="0.707031"/><stop stop-opacity="1" stop-color="rgb(74.537659%, 51.535034%, 37.594604%)" offset="0.710938"/><stop stop-opacity="1" stop-color="rgb(74.879456%, 51.60675%, 37.493896%)" offset="0.714844"/><stop stop-opacity="1" stop-color="rgb(75.222778%, 51.678467%, 37.394714%)" offset="0.71875"/><stop stop-opacity="1" stop-color="rgb(75.564575%, 51.750183%, 37.295532%)" offset="0.722656"/><stop stop-opacity="1" stop-color="rgb(75.907898%, 51.823425%, 37.19635%)" offset="0.726562"/><stop stop-opacity="1" stop-color="rgb(76.249695%, 51.895142%, 37.095642%)" offset="0.730469"/><stop stop-opacity="1" stop-color="rgb(76.593018%, 51.966858%, 36.99646%)" offset="0.734375"/><stop stop-opacity="1" stop-color="rgb(76.934814%, 52.038574%, 36.897278%)" offset="0.738281"/><stop stop-opacity="1" stop-color="rgb(77.278137%, 52.111816%, 36.798096%)" offset="0.742188"/><stop stop-opacity="1" stop-color="rgb(77.619934%, 52.183533%, 36.698914%)" offset="0.746094"/><stop stop-opacity="1" stop-color="rgb(77.963257%, 52.256775%, 36.599731%)" offset="0.75"/><stop stop-opacity="1" stop-color="rgb(78.305054%, 52.328491%, 36.499023%)" offset="0.753906"/><stop stop-opacity="1" stop-color="rgb(78.648376%, 52.400208%, 36.399841%)" offset="0.757812"/><stop stop-opacity="1" stop-color="rgb(78.990173%, 52.471924%, 36.300659%)" offset="0.761719"/><stop stop-opacity="1" stop-color="rgb(79.333496%, 52.545166%, 36.201477%)" offset="0.765625"/><stop stop-opacity="1" stop-color="rgb(79.675293%, 52.616882%, 36.100769%)" offset="0.769531"/><stop stop-opacity="1" stop-color="rgb(80.018616%, 52.688599%, 36.001587%)" offset="0.773438"/><stop stop-opacity="1" stop-color="rgb(80.360413%, 52.760315%, 35.902405%)" offset="0.777344"/><stop stop-opacity="1" stop-color="rgb(80.703735%, 52.833557%, 35.803223%)" offset="0.78125"/><stop stop-opacity="1" stop-color="rgb(81.045532%, 52.905273%, 35.704041%)" offset="0.785156"/><stop stop-opacity="1" stop-color="rgb(81.388855%, 52.978516%, 35.604858%)" offset="0.789062"/><stop stop-opacity="1" stop-color="rgb(81.730652%, 53.050232%, 35.50415%)" offset="0.792969"/><stop stop-opacity="1" stop-color="rgb(82.073975%, 53.121948%, 35.404968%)" offset="0.796875"/><stop stop-opacity="1" stop-color="rgb(82.415771%, 53.193665%, 35.305786%)" offset="0.800781"/><stop stop-opacity="1" stop-color="rgb(82.759094%, 53.266907%, 35.206604%)" offset="0.804687"/><stop stop-opacity="1" stop-color="rgb(83.100891%, 53.338623%, 35.105896%)" offset="0.808594"/><stop stop-opacity="1" stop-color="rgb(83.444214%, 53.410339%, 35.006714%)" offset="0.8125"/><stop stop-opacity="1" stop-color="rgb(83.786011%, 53.482056%, 34.907532%)" offset="0.816406"/><stop stop-opacity="1" stop-color="rgb(84.129333%, 53.555298%, 34.80835%)" offset="0.820312"/><stop stop-opacity="1" stop-color="rgb(84.47113%, 53.627014%, 34.709167%)" offset="0.824219"/><stop stop-opacity="1" stop-color="rgb(84.814453%, 53.700256%, 34.609985%)" offset="0.828125"/><stop stop-opacity="1" stop-color="rgb(85.15625%, 53.771973%, 34.509277%)" offset="0.832031"/><stop stop-opacity="1" stop-color="rgb(85.499573%, 53.843689%, 34.410095%)" offset="0.835938"/><stop stop-opacity="1" stop-color="rgb(85.84137%, 53.915405%, 34.310913%)" offset="0.839844"/><stop stop-opacity="1" stop-color="rgb(86.184692%, 53.988647%, 34.211731%)" offset="0.84375"/><stop stop-opacity="1" stop-color="rgb(86.526489%, 54.060364%, 34.112549%)" offset="0.847656"/><stop stop-opacity="1" stop-color="rgb(86.869812%, 54.13208%, 34.013367%)" offset="0.851562"/><stop stop-opacity="1" stop-color="rgb(87.211609%, 54.203796%, 33.912659%)" offset="0.855469"/><stop stop-opacity="1" stop-color="rgb(87.554932%, 54.277039%, 33.813477%)" offset="0.859375"/><stop stop-opacity="1" stop-color="rgb(87.896729%, 54.348755%, 33.714294%)" offset="0.863281"/><stop stop-opacity="1" stop-color="rgb(88.240051%, 54.421997%, 33.615112%)" offset="0.867188"/><stop stop-opacity="1" stop-color="rgb(88.581848%, 54.493713%, 33.514404%)" offset="0.871094"/><stop stop-opacity="1" stop-color="rgb(88.923645%, 54.56543%, 33.415222%)" offset="0.875"/><stop stop-opacity="1" stop-color="rgb(89.265442%, 54.637146%, 33.31604%)" offset="0.878906"/><stop stop-opacity="1" stop-color="rgb(89.608765%, 54.710388%, 33.216858%)" offset="0.882812"/><stop stop-opacity="1" stop-color="rgb(89.950562%, 54.782104%, 33.117676%)" offset="0.886719"/><stop stop-opacity="1" stop-color="rgb(90.293884%, 54.853821%, 33.018494%)" offset="0.890625"/><stop stop-opacity="1" stop-color="rgb(90.635681%, 54.925537%, 32.917786%)" offset="0.894531"/><stop stop-opacity="1" stop-color="rgb(90.979004%, 54.998779%, 32.818604%)" offset="0.898438"/><stop stop-opacity="1" stop-color="rgb(91.320801%, 55.070496%, 32.719421%)" offset="0.902344"/><stop stop-opacity="1" stop-color="rgb(91.664124%, 55.143738%, 32.620239%)" offset="0.90625"/><stop stop-opacity="1" stop-color="rgb(92.00592%, 55.215454%, 32.519531%)" offset="0.910156"/><stop stop-opacity="1" stop-color="rgb(92.349243%, 55.28717%, 32.420349%)" offset="0.914062"/><stop stop-opacity="1" stop-color="rgb(92.69104%, 55.358887%, 32.321167%)" offset="0.917969"/><stop stop-opacity="1" stop-color="rgb(93.034363%, 55.432129%, 32.221985%)" offset="0.921875"/><stop stop-opacity="1" stop-color="rgb(93.37616%, 55.503845%, 32.122803%)" offset="0.925781"/><stop stop-opacity="1" stop-color="rgb(93.719482%, 55.575562%, 32.023621%)" offset="0.929687"/><stop stop-opacity="1" stop-color="rgb(94.061279%, 55.647278%, 31.922913%)" offset="0.933594"/><stop stop-opacity="1" stop-color="rgb(94.404602%, 55.72052%, 31.82373%)" offset="0.9375"/><stop stop-opacity="1" stop-color="rgb(94.746399%, 55.792236%, 31.724548%)" offset="0.941406"/><stop stop-opacity="1" stop-color="rgb(95.089722%, 55.865479%, 31.625366%)" offset="0.945313"/><stop stop-opacity="1" stop-color="rgb(95.431519%, 55.937195%, 31.524658%)" offset="0.949219"/><stop stop-opacity="1" stop-color="rgb(95.774841%, 56.008911%, 31.425476%)" offset="0.953125"/><stop stop-opacity="1" stop-color="rgb(96.116638%, 56.080627%, 31.326294%)" offset="0.957031"/><stop stop-opacity="1" stop-color="rgb(96.459961%, 56.15387%, 31.227112%)" offset="0.960938"/><stop stop-opacity="1" stop-color="rgb(96.801758%, 56.225586%, 31.12793%)" offset="0.964844"/><stop stop-opacity="1" stop-color="rgb(97.145081%, 56.297302%, 31.028748%)" offset="0.96875"/><stop stop-opacity="1" stop-color="rgb(97.486877%, 56.369019%, 30.92804%)" offset="0.972656"/><stop stop-opacity="1" stop-color="rgb(97.8302%, 56.442261%, 30.828857%)" offset="0.976562"/><stop stop-opacity="1" stop-color="rgb(98.171997%, 56.513977%, 30.729675%)" offset="0.980469"/><stop stop-opacity="1" stop-color="rgb(98.51532%, 56.587219%, 30.630493%)" offset="0.984375"/><stop stop-opacity="1" stop-color="rgb(98.857117%, 56.658936%, 30.529785%)" offset="0.988281"/><stop stop-opacity="1" stop-color="rgb(99.200439%, 56.730652%, 30.430603%)" offset="0.992188"/><stop stop-opacity="1" stop-color="rgb(99.542236%, 56.802368%, 30.331421%)" offset="0.996094"/><stop stop-opacity="1" stop-color="rgb(99.885559%, 56.87561%, 30.232239%)" offset="1"/></linearGradient><clipPath id="af77404ea7"><path d="M 52 155 L 169 155 L 169 210 L 52 210 Z M 52 155 " clip-rule="nonzero"/></clipPath><clipPath id="c835ba6e47"><path d="M 26.855469 138.335938 L 367.332031 217.246094 L 336.679688 349.492188 L -3.792969 270.582031 Z M 26.855469 138.335938 " clip-rule="nonzero"/></clipPath><clipPath id="bece474cf0"><path d="M 26.855469 138.335938 L 367.332031 217.246094 L 336.679688 349.492188 L -3.792969 270.582031 Z M 26.855469 138.335938 " clip-rule="nonzero"/></clipPath><clipPath id="2742898b77"><path d="M 26.855469 138.335938 L 367.332031 217.246094 L 336.679688 349.492188 L -3.792969 270.582031 Z M 26.855469 138.335938 " clip-rule="nonzero"/></clipPath><clipPath id="c63217ef94"><path d="M 18 151 L 269 151 L 269 318 L 18 318 Z M 18 151 " clip-rule="nonzero"/></clipPath><clipPath id="9f0e08d9bd"><path d="M 26.855469 138.335938 L 367.332031 217.246094 L 336.679688 349.492188 L -3.792969 270.582031 Z M 26.855469 138.335938 " clip-rule="nonzero"/></clipPath><clipPath id="e99b0ad9e2"><path d="M 26.855469 138.335938 L 367.332031 217.246094 L 336.679688 349.492188 L -3.792969 270.582031 Z M 26.855469 138.335938 " clip-rule="nonzero"/></clipPath><clipPath id="4fdff1df33"><path d="M 26.855469 138.335938 L 367.332031 217.246094 L 336.679688 349.492188 L -3.792969 270.582031 Z M 26.855469 138.335938 " clip-rule="nonzero"/></clipPath><clipPath id="34bfab582d"><path d="M 24.785156 147.292969 L 278.929688 206.195312 L 250.34375 329.523438 L -3.796875 270.621094 Z M 24.785156 147.292969 " clip-rule="nonzero"/></clipPath><clipPath id="98a410933e"><path d="M 24.785156 147.292969 L 278.929688 206.195312 L 250.355469 329.484375 L -3.789062 270.585938 Z M 24.785156 147.292969 " clip-rule="nonzero"/></clipPath><clipPath id="1c64221fa5"><path d="M 26 160 L 111 160 L 111 260 L 26 260 Z M 26 160 " clip-rule="nonzero"/></clipPath><clipPath id="c5c1c37fa5"><path d="M 26.855469 138.335938 L 367.332031 217.246094 L 336.679688 349.492188 L -3.792969 270.582031 Z M 26.855469 138.335938 " clip-rule="nonzero"/></clipPath><clipPath id="f6e0ae6c5a"><path d="M 26.855469 138.335938 L 367.332031 217.246094 L 336.679688 349.492188 L -3.792969 270.582031 Z M 26.855469 138.335938 " clip-rule="nonzero"/></clipPath><clipPath id="65251c7498"><path d="M 26.855469 138.335938 L 367.332031 217.246094 L 336.679688 349.492188 L -3.792969 270.582031 Z M 26.855469 138.335938 " clip-rule="nonzero"/></clipPath><clipPath id="9404a67185"><path d="M 142 208 L 251 208 L 251 313 L 142 313 Z M 142 208 " clip-rule="nonzero"/></clipPath><clipPath id="b67afc43c7"><path d="M 26.855469 138.335938 L 367.332031 217.246094 L 336.679688 349.492188 L -3.792969 270.582031 Z M 26.855469 138.335938 " clip-rule="nonzero"/></clipPath><clipPath id="41be8e6b56"><path d="M 26.855469 138.335938 L 367.332031 217.246094 L 336.679688 349.492188 L -3.792969 270.582031 Z M 26.855469 138.335938 " clip-rule="nonzero"/></clipPath><clipPath id="5bacf0453b"><path d="M 26.855469 138.335938 L 367.332031 217.246094 L 336.679688 349.492188 L -3.792969 270.582031 Z M 26.855469 138.335938 " clip-rule="nonzero"/></clipPath><clipPath id="7eb97a7a68"><path d="M 257 242 L 355 242 L 355 287 L 257 287 Z M 257 242 " clip-rule="nonzero"/></clipPath><clipPath id="d68dc2ff70"><path d="M 26.855469 138.335938 L 367.332031 217.246094 L 336.679688 349.492188 L -3.792969 270.582031 Z M 26.855469 138.335938 " clip-rule="nonzero"/></clipPath><clipPath id="a54e17f827"><path d="M 26.855469 138.335938 L 367.332031 217.246094 L 336.679688 349.492188 L -3.792969 270.582031 Z M 26.855469 138.335938 " clip-rule="nonzero"/></clipPath><clipPath id="aff8f0d222"><path d="M 26.855469 138.335938 L 367.332031 217.246094 L 336.679688 349.492188 L -3.792969 270.582031 Z M 26.855469 138.335938 " clip-rule="nonzero"/></clipPath><clipPath id="2d69438808"><path d="M 261.367188 229.835938 L 359.164062 252.503906 L 351.046875 287.519531 L 253.253906 264.855469 Z M 261.367188 229.835938 " clip-rule="nonzero"/></clipPath><clipPath id="57a148e7c2"><path d="M 261.367188 229.835938 L 359.152344 252.5 L 351.035156 287.515625 L 253.253906 264.855469 Z M 261.367188 229.835938 " clip-rule="nonzero"/></clipPath><clipPath id="16afd6a493"><path d="M 194 214 L 251 214 L 251 313 L 194 313 Z M 194 214 " clip-rule="nonzero"/></clipPath><clipPath id="80831a7f5b"><path d="M 26.855469 138.335938 L 367.332031 217.246094 L 336.679688 349.492188 L -3.792969 270.582031 Z M 26.855469 138.335938 " clip-rule="nonzero"/></clipPath><clipPath id="08cfe619da"><path d="M 26.855469 138.335938 L 367.332031 217.246094 L 336.679688 349.492188 L -3.792969 270.582031 Z M 26.855469 138.335938 " clip-rule="nonzero"/></clipPath><clipPath id="03814daad1"><path d="M 26.855469 138.335938 L 367.332031 217.246094 L 336.679688 349.492188 L -3.792969 270.582031 Z M 26.855469 138.335938 " clip-rule="nonzero"/></clipPath><clipPath id="96506c8045"><path d="M 62 172 L 111 172 L 111 260 L 62 260 Z M 62 172 " clip-rule="nonzero"/></clipPath><clipPath id="ef0a21199d"><path d="M 26.855469 138.335938 L 367.332031 217.246094 L 336.679688 349.492188 L -3.792969 270.582031 Z M 26.855469 138.335938 " clip-rule="nonzero"/></clipPath><clipPath id="701a21bcfa"><path d="M 26.855469 138.335938 L 367.332031 217.246094 L 336.679688 349.492188 L -3.792969 270.582031 Z M 26.855469 138.335938 " clip-rule="nonzero"/></clipPath><clipPath id="8f4717c5ad"><path d="M 26.855469 138.335938 L 367.332031 217.246094 L 336.679688 349.492188 L -3.792969 270.582031 Z M 26.855469 138.335938 " clip-rule="nonzero"/></clipPath></defs><g clip-path="url(#a8f36c77f8)"><g clip-path="url(#dbb6181448)"><path fill="url(#2dc1ffbfc4)" d="M 5.789062 0 L 5.789062 374.492188 L 368.933594 374.492188 L 368.933594 0 Z M 5.789062 0 " fill-rule="nonzero"/></g></g><g clip-path="url(#af77404ea7)"><g clip-path="url(#c835ba6e47)"><g clip-path="url(#bece474cf0)"><g clip-path="url(#2742898b77)"><path fill="#000000" d="M 52.1875 155.152344 C 52.1875 155.152344 119.820312 159.882812 140.390625 173.664062 C 160.960938 187.445312 168.152344 209.070312 168.152344 209.070312 L 154.742188 205.964844 C 154.742188 205.964844 149.011719 180.8125 132.976562 175.164062 C 116.945312 169.515625 97.722656 163.773438 73.238281 161.320312 C 48.757812 158.867188 52.1875 155.152344 52.1875 155.152344 " fill-opacity="1" fill-rule="nonzero"/></g></g></g></g><g clip-path="url(#c63217ef94)"><g clip-path="url(#9f0e08d9bd)"><g clip-path="url(#e99b0ad9e2)"><g clip-path="url(#4fdff1df33)"><g clip-path="url(#34bfab582d)"><g clip-path="url(#98a410933e)"><path fill="#000000" d="M 265.0625 239.902344 C 265.0625 239.902344 239.769531 216.011719 194.09375 208 C 148.417969 199.992188 150.378906 208.171875 140.058594 208.355469 C 129.738281 208.539062 120.183594 199.886719 120.183594 199.886719 C 120.183594 199.886719 122.320312 182.351562 73.238281 161.320312 C 73.238281 161.320312 42.164062 145.75 23.625 153.683594 C 23.625 153.683594 20.5625 161.34375 22.011719 166.1875 C 23.457031 171.03125 21.050781 181.417969 21.050781 181.417969 C 21.050781 181.417969 6.859375 231.570312 48.9375 260.636719 C 48.9375 260.636719 75.417969 273.855469 92.753906 257.269531 C 92.753906 257.269531 109.375 243.738281 119.125 218.3125 C 119.125 218.3125 129.542969 214.933594 131.542969 225.699219 C 133.542969 236.464844 129.617188 292.210938 181.417969 312.585938 C 233.21875 332.964844 250.5 286.105469 258.179688 264.0625 C 258.179688 264.0625 261.054688 254.425781 267.574219 254.003906 C 267.574219 254.003906 271.953125 243.429688 265.0625 239.902344 " fill-opacity="1" fill-rule="nonzero"/></g></g></g></g></g></g><g clip-path="url(#1c64221fa5)"><g clip-path="url(#c5c1c37fa5)"><g clip-path="url(#f6e0ae6c5a)"><g clip-path="url(#65251c7498)"><path fill="#333333" d="M 110.886719 206.746094 C 110.886719 206.746094 114.136719 189.328125 69.28125 166.699219 C 69.28125 166.699219 38.308594 151.292969 31.90625 167.835938 C 24.347656 187.359375 18.441406 234.253906 52.183594 254.949219 C 85.925781 275.648438 106.960938 226.4375 110.886719 206.746094 " fill-opacity="1" fill-rule="nonzero"/></g></g></g></g><g clip-path="url(#9404a67185)"><g clip-path="url(#b67afc43c7)"><g clip-path="url(#41be8e6b56)"><g clip-path="url(#5bacf0453b)"><path fill="#333333" d="M 142.949219 224.574219 C 143.78125 218.335938 147.984375 213.0625 153.910156 210.984375 C 161.230469 208.414062 173.5625 207.09375 193.441406 212.355469 C 231.671875 222.476562 249.835938 228.003906 250.167969 257.054688 C 250.5 286.105469 227.375 319.375 194.601562 311.136719 C 161.824219 302.894531 144.269531 278.867188 142.164062 243.613281 C 142.164062 243.613281 141.722656 233.769531 142.949219 224.574219 " fill-opacity="1" fill-rule="nonzero"/></g></g></g></g><g clip-path="url(#7eb97a7a68)"><g clip-path="url(#d68dc2ff70)"><g clip-path="url(#a54e17f827)"><g clip-path="url(#aff8f0d222)"><g clip-path="url(#2d69438808)"><g clip-path="url(#57a148e7c2)"><path fill="#000000" d="M 267.078125 242.300781 C 267.078125 242.300781 298.832031 243.863281 305.71875 247.394531 C 312.609375 250.921875 351.546875 246.425781 353.929688 252.773438 C 356.3125 259.117188 354.0625 288.214844 347.96875 286.800781 C 341.875 285.390625 351.011719 259.820312 346.699219 256.246094 C 342.390625 252.671875 304.628906 254.867188 304.628906 254.867188 C 304.628906 254.867188 290.878906 258.761719 267.574219 254.003906 C 244.269531 249.246094 267.078125 242.300781 267.078125 242.300781 " fill-opacity="1" fill-rule="nonzero"/></g></g></g></g></g></g><g clip-path="url(#16afd6a493)"><g clip-path="url(#80831a7f5b)"><g clip-path="url(#08cfe619da)"><g clip-path="url(#03814daad1)"><path fill="#4d4d4d" d="M 201.851562 214.609375 L 205.011719 216.328125 C 205.011719 216.328125 231.832031 222.542969 233.015625 247.925781 C 234.199219 273.3125 225.886719 311.949219 194.601562 311.136719 C 227.375 319.375 250.5 286.105469 250.167969 257.054688 C 249.863281 230.226562 234.332031 223.457031 201.851562 214.609375 " fill-opacity="1" fill-rule="nonzero"/></g></g></g></g><g clip-path="url(#96506c8045)"><g clip-path="url(#ef0a21199d)"><g clip-path="url(#701a21bcfa)"><g clip-path="url(#8f4717c5ad)"><path fill="#4d4d4d" d="M 79.308594 172.117188 L 80.585938 173.96875 C 80.585938 173.96875 100.40625 188.21875 94.980469 208.855469 C 90.320312 226.582031 79.582031 256.210938 62.316406 259.25 C 90.125 265.695312 107.371094 224.386719 110.886719 206.746094 C 110.886719 206.746094 113.625 192.046875 79.308594 172.117188 " fill-opacity="1" fill-rule="nonzero"/></g></g></g></g><g fill="#ffffff" fill-opacity="1"><g transform="translate(124.524872, 105.48071)"><g><path d="M 27.625 0.75 C 22.175781 0.75 17.5 -0.503906 13.59375 -3.015625 C 9.6875 -5.523438 6.550781 -8.640625 4.1875 -12.359375 L 10.640625 -19.5625 C 13.222656 -16.695312 15.785156 -14.367188 18.328125 -12.578125 C 20.867188 -10.785156 23.96875 -9.890625 27.625 -9.890625 C 30.632812 -9.890625 33.320312 -10.550781 35.6875 -11.875 C 38.0625 -13.207031 39.925781 -14.984375 41.28125 -17.203125 C 42.644531 -19.421875 43.328125 -21.859375 43.328125 -24.515625 C 43.328125 -27.453125 42.660156 -30.046875 41.328125 -32.296875 C 40.003906 -34.554688 38.210938 -36.332031 35.953125 -37.625 C 33.703125 -38.914062 31.210938 -39.5625 28.484375 -39.5625 C 24.835938 -39.5625 21.773438 -38.988281 19.296875 -37.84375 C 16.828125 -36.695312 14.875 -35.765625 13.4375 -35.046875 L 7.3125 -43.328125 L 11.71875 -75.265625 L 52.359375 -75.265625 L 52.359375 -64.515625 L 20.96875 -64.515625 L 18.5 -47.84375 C 20.144531 -48.5625 22.039062 -49.148438 24.1875 -49.609375 C 26.34375 -50.078125 28.457031 -50.3125 30.53125 -50.3125 C 34.90625 -50.3125 38.898438 -49.304688 42.515625 -47.296875 C 46.140625 -45.296875 49.0625 -42.445312 51.28125 -38.75 C 53.507812 -35.0625 54.625 -30.675781 54.625 -25.59375 C 54.625 -20.570312 53.421875 -16.070312 51.015625 -12.09375 C 48.617188 -8.113281 45.394531 -4.976562 41.34375 -2.6875 C 37.289062 -0.394531 32.71875 0.75 27.625 0.75 Z M 27.625 0.75 "/></g></g></g><g fill="#ffffff" fill-opacity="1"><g transform="translate(185.593076, 105.48071)"><g><path d="M 11.1875 -20.53125 C 12.257812 -18.957031 13.566406 -17.273438 15.109375 -15.484375 C 16.648438 -13.691406 18.476562 -12.1875 20.59375 -10.96875 C 22.707031 -9.75 25.125 -9.140625 27.84375 -9.140625 C 30 -9.140625 32.148438 -9.691406 34.296875 -10.796875 C 36.441406 -11.910156 38.25 -13.5625 39.71875 -15.75 C 41.195312 -17.9375 41.9375 -20.609375 41.9375 -23.765625 C 41.9375 -26.984375 41.34375 -29.5625 40.15625 -31.5 C 38.976562 -33.4375 37.421875 -34.832031 35.484375 -35.6875 C 33.546875 -36.550781 31.429688 -36.984375 29.140625 -36.984375 C 26.910156 -36.984375 24.664062 -36.640625 22.40625 -35.953125 C 20.15625 -35.273438 18.0625 -34.546875 16.125 -33.765625 L 12.90625 -42.25 L 33.109375 -64.515625 L 6.34375 -64.515625 L 6.34375 -75.265625 L 49.453125 -75.265625 L 51.609375 -70.953125 L 30.53125 -47.625 C 34.6875 -47.625 38.46875 -46.601562 41.875 -44.5625 C 45.28125 -42.519531 48.003906 -39.742188 50.046875 -36.234375 C 52.085938 -32.722656 53.109375 -28.78125 53.109375 -24.40625 C 53.109375 -19.25 51.867188 -14.75 49.390625 -10.90625 C 46.921875 -7.070312 43.695312 -4.113281 39.71875 -2.03125 C 35.75 0.0390625 31.503906 1.078125 26.984375 1.078125 C 22.753906 1.078125 19.113281 0.378906 16.0625 -1.015625 C 13.019531 -2.421875 10.390625 -4.335938 8.171875 -6.765625 C 5.953125 -9.203125 3.945312 -11.894531 2.15625 -14.84375 Z M 11.1875 -20.53125 "/></g></g></g></svg>