<svg xmlns="http://www.w3.org/2000/svg" xmlns:xlink="http://www.w3.org/1999/xlink" width="500" zoomAndPan="magnify" viewBox="0 0 375 374.999991" height="500" preserveAspectRatio="xMidYMid meet" version="1.0"><defs><g/><clipPath id="d884073ce6"><path d="M 6.734375 0 L 369.546875 0 L 369.546875 374.152344 L 6.734375 374.152344 Z M 6.734375 0 " clip-rule="nonzero"/></clipPath><clipPath id="1e33c55ffc"><path d="M 20.984375 0 L 355.296875 0 C 359.078125 0 362.703125 1.5 365.375 4.171875 C 368.046875 6.847656 369.546875 10.46875 369.546875 14.25 L 369.546875 360.40625 C 369.546875 364.1875 368.046875 367.8125 365.375 370.484375 C 362.703125 373.15625 359.078125 374.65625 355.296875 374.65625 L 20.984375 374.65625 C 17.203125 374.65625 13.578125 373.15625 10.90625 370.484375 C 8.234375 367.8125 6.734375 364.1875 6.734375 360.40625 L 6.734375 14.25 C 6.734375 10.46875 8.234375 6.847656 10.90625 4.171875 C 13.578125 1.5 17.203125 0 20.984375 0 Z M 20.984375 0 " clip-rule="nonzero"/></clipPath><linearGradient x1="0" gradientTransform="matrix(1.417244, 0, 0, 1.417244, 6.733365, 0)" y1="0" x2="0" gradientUnits="userSpaceOnUse" y2="263.999999" id="4244e95553"><stop stop-opacity="1" stop-color="rgb(12.199402%, 38.398743%, 55.699158%)" offset="0"/><stop stop-opacity="1" stop-color="rgb(12.295532%, 38.371277%, 55.825806%)" offset="0.0078125"/><stop stop-opacity="1" stop-color="rgb(12.487793%, 38.317871%, 56.079102%)" offset="0.015625"/><stop stop-opacity="1" stop-color="rgb(12.680054%, 38.262939%, 56.332397%)" offset="0.0234375"/><stop stop-opacity="1" stop-color="rgb(12.87384%, 38.208008%, 56.587219%)" offset="0.03125"/><stop stop-opacity="1" stop-color="rgb(13.066101%, 38.153076%, 56.840515%)" offset="0.0390625"/><stop stop-opacity="1" stop-color="rgb(13.258362%, 38.098145%, 57.093811%)" offset="0.046875"/><stop stop-opacity="1" stop-color="rgb(13.452148%, 38.044739%, 57.347107%)" offset="0.0546875"/><stop stop-opacity="1" stop-color="rgb(13.644409%, 37.989807%, 57.600403%)" offset="0.0625"/><stop stop-opacity="1" stop-color="rgb(13.83667%, 37.934875%, 57.855225%)" offset="0.0703125"/><stop stop-opacity="1" stop-color="rgb(14.030457%, 37.879944%, 58.108521%)" offset="0.078125"/><stop stop-opacity="1" stop-color="rgb(14.222717%, 37.825012%, 58.361816%)" offset="0.0859375"/><stop stop-opacity="1" stop-color="rgb(14.414978%, 37.771606%, 58.615112%)" offset="0.09375"/><stop stop-opacity="1" stop-color="rgb(14.607239%, 37.716675%, 58.868408%)" offset="0.101562"/><stop stop-opacity="1" stop-color="rgb(14.801025%, 37.661743%, 59.121704%)" offset="0.109375"/><stop stop-opacity="1" stop-color="rgb(14.993286%, 37.606812%, 59.376526%)" offset="0.117188"/><stop stop-opacity="1" stop-color="rgb(15.185547%, 37.55188%, 59.629822%)" offset="0.125"/><stop stop-opacity="1" stop-color="rgb(15.379333%, 37.498474%, 59.883118%)" offset="0.132813"/><stop stop-opacity="1" stop-color="rgb(15.571594%, 37.443542%, 60.136414%)" offset="0.140625"/><stop stop-opacity="1" stop-color="rgb(15.763855%, 37.388611%, 60.389709%)" offset="0.148438"/><stop stop-opacity="1" stop-color="rgb(15.957642%, 37.333679%, 60.644531%)" offset="0.15625"/><stop stop-opacity="1" stop-color="rgb(16.149902%, 37.278748%, 60.897827%)" offset="0.164062"/><stop stop-opacity="1" stop-color="rgb(16.342163%, 37.225342%, 61.151123%)" offset="0.171875"/><stop stop-opacity="1" stop-color="rgb(16.534424%, 37.17041%, 61.404419%)" offset="0.179688"/><stop stop-opacity="1" stop-color="rgb(16.72821%, 37.115479%, 61.657715%)" offset="0.1875"/><stop stop-opacity="1" stop-color="rgb(16.920471%, 37.060547%, 61.911011%)" offset="0.195312"/><stop stop-opacity="1" stop-color="rgb(17.112732%, 37.005615%, 62.165833%)" offset="0.203125"/><stop stop-opacity="1" stop-color="rgb(17.306519%, 36.952209%, 62.419128%)" offset="0.210938"/><stop stop-opacity="1" stop-color="rgb(17.498779%, 36.897278%, 62.672424%)" offset="0.21875"/><stop stop-opacity="1" stop-color="rgb(17.69104%, 36.842346%, 62.92572%)" offset="0.226562"/><stop stop-opacity="1" stop-color="rgb(17.884827%, 36.787415%, 63.179016%)" offset="0.234375"/><stop stop-opacity="1" stop-color="rgb(18.077087%, 36.734009%, 63.433838%)" offset="0.242188"/><stop stop-opacity="1" stop-color="rgb(18.269348%, 36.679077%, 63.687134%)" offset="0.25"/><stop stop-opacity="1" stop-color="rgb(18.461609%, 36.624146%, 63.94043%)" offset="0.257812"/><stop stop-opacity="1" stop-color="rgb(18.655396%, 36.569214%, 64.193726%)" offset="0.265625"/><stop stop-opacity="1" stop-color="rgb(18.847656%, 36.514282%, 64.447021%)" offset="0.273438"/><stop stop-opacity="1" stop-color="rgb(19.039917%, 36.460876%, 64.700317%)" offset="0.28125"/><stop stop-opacity="1" stop-color="rgb(19.233704%, 36.405945%, 64.955139%)" offset="0.289062"/><stop stop-opacity="1" stop-color="rgb(19.425964%, 36.351013%, 65.208435%)" offset="0.296875"/><stop stop-opacity="1" stop-color="rgb(19.618225%, 36.296082%, 65.461731%)" offset="0.304687"/><stop stop-opacity="1" stop-color="rgb(19.812012%, 36.24115%, 65.715027%)" offset="0.3125"/><stop stop-opacity="1" stop-color="rgb(20.004272%, 36.187744%, 65.968323%)" offset="0.320312"/><stop stop-opacity="1" stop-color="rgb(20.196533%, 36.132812%, 66.223145%)" offset="0.328125"/><stop stop-opacity="1" stop-color="rgb(20.388794%, 36.077881%, 66.47644%)" offset="0.335938"/><stop stop-opacity="1" stop-color="rgb(20.582581%, 36.022949%, 66.729736%)" offset="0.34375"/><stop stop-opacity="1" stop-color="rgb(20.774841%, 35.968018%, 66.983032%)" offset="0.351562"/><stop stop-opacity="1" stop-color="rgb(20.967102%, 35.914612%, 67.236328%)" offset="0.359375"/><stop stop-opacity="1" stop-color="rgb(21.160889%, 35.85968%, 67.489624%)" offset="0.367188"/><stop stop-opacity="1" stop-color="rgb(21.353149%, 35.804749%, 67.744446%)" offset="0.375"/><stop stop-opacity="1" stop-color="rgb(21.54541%, 35.749817%, 67.997742%)" offset="0.382812"/><stop stop-opacity="1" stop-color="rgb(21.739197%, 35.694885%, 68.251038%)" offset="0.390625"/><stop stop-opacity="1" stop-color="rgb(21.931458%, 35.641479%, 68.504333%)" offset="0.398438"/><stop stop-opacity="1" stop-color="rgb(22.123718%, 35.586548%, 68.757629%)" offset="0.40625"/><stop stop-opacity="1" stop-color="rgb(22.315979%, 35.531616%, 69.012451%)" offset="0.414062"/><stop stop-opacity="1" stop-color="rgb(22.509766%, 35.476685%, 69.265747%)" offset="0.421875"/><stop stop-opacity="1" stop-color="rgb(22.702026%, 35.421753%, 69.519043%)" offset="0.429688"/><stop stop-opacity="1" stop-color="rgb(22.894287%, 35.368347%, 69.772339%)" offset="0.4375"/><stop stop-opacity="1" stop-color="rgb(23.088074%, 35.313416%, 70.025635%)" offset="0.445312"/><stop stop-opacity="1" stop-color="rgb(23.280334%, 35.258484%, 70.280457%)" offset="0.453125"/><stop stop-opacity="1" stop-color="rgb(23.472595%, 35.203552%, 70.533752%)" offset="0.460938"/><stop stop-opacity="1" stop-color="rgb(23.666382%, 35.150146%, 70.787048%)" offset="0.46875"/><stop stop-opacity="1" stop-color="rgb(23.858643%, 35.095215%, 71.040344%)" offset="0.476562"/><stop stop-opacity="1" stop-color="rgb(24.050903%, 35.040283%, 71.29364%)" offset="0.484375"/><stop stop-opacity="1" stop-color="rgb(24.243164%, 34.985352%, 71.546936%)" offset="0.492188"/><stop stop-opacity="1" stop-color="rgb(24.436951%, 34.93042%, 71.801758%)" offset="0.5"/><stop stop-opacity="1" stop-color="rgb(24.629211%, 34.877014%, 72.055054%)" offset="0.507812"/><stop stop-opacity="1" stop-color="rgb(24.821472%, 34.822083%, 72.30835%)" offset="0.515625"/><stop stop-opacity="1" stop-color="rgb(25.015259%, 34.767151%, 72.561646%)" offset="0.523438"/><stop stop-opacity="1" stop-color="rgb(25.20752%, 34.712219%, 72.814941%)" offset="0.53125"/><stop stop-opacity="1" stop-color="rgb(25.39978%, 34.657288%, 73.069763%)" offset="0.539063"/><stop stop-opacity="1" stop-color="rgb(25.593567%, 34.603882%, 73.323059%)" offset="0.546875"/><stop stop-opacity="1" stop-color="rgb(25.785828%, 34.54895%, 73.576355%)" offset="0.554688"/><stop stop-opacity="1" stop-color="rgb(25.978088%, 34.494019%, 73.829651%)" offset="0.5625"/><stop stop-opacity="1" stop-color="rgb(26.170349%, 34.439087%, 74.082947%)" offset="0.570313"/><stop stop-opacity="1" stop-color="rgb(26.364136%, 34.384155%, 74.336243%)" offset="0.578125"/><stop stop-opacity="1" stop-color="rgb(26.556396%, 34.33075%, 74.591064%)" offset="0.585937"/><stop stop-opacity="1" stop-color="rgb(26.748657%, 34.275818%, 74.84436%)" offset="0.59375"/><stop stop-opacity="1" stop-color="rgb(26.942444%, 34.220886%, 75.097656%)" offset="0.601562"/><stop stop-opacity="1" stop-color="rgb(27.134705%, 34.165955%, 75.350952%)" offset="0.609375"/><stop stop-opacity="1" stop-color="rgb(27.326965%, 34.111023%, 75.604248%)" offset="0.617187"/><stop stop-opacity="1" stop-color="rgb(27.520752%, 34.057617%, 75.85907%)" offset="0.625"/><stop stop-opacity="1" stop-color="rgb(27.713013%, 34.002686%, 76.112366%)" offset="0.632812"/><stop stop-opacity="1" stop-color="rgb(27.905273%, 33.947754%, 76.365662%)" offset="0.640625"/><stop stop-opacity="1" stop-color="rgb(28.097534%, 33.892822%, 76.618958%)" offset="0.648437"/><stop stop-opacity="1" stop-color="rgb(28.291321%, 33.837891%, 76.872253%)" offset="0.65625"/><stop stop-opacity="1" stop-color="rgb(28.483582%, 33.784485%, 77.125549%)" offset="0.664062"/><stop stop-opacity="1" stop-color="rgb(28.675842%, 33.729553%, 77.380371%)" offset="0.671875"/><stop stop-opacity="1" stop-color="rgb(28.869629%, 33.674622%, 77.633667%)" offset="0.679688"/><stop stop-opacity="1" stop-color="rgb(29.06189%, 33.61969%, 77.886963%)" offset="0.6875"/><stop stop-opacity="1" stop-color="rgb(29.25415%, 33.566284%, 78.140259%)" offset="0.695312"/><stop stop-opacity="1" stop-color="rgb(29.447937%, 33.511353%, 78.393555%)" offset="0.703125"/><stop stop-opacity="1" stop-color="rgb(29.640198%, 33.456421%, 78.648376%)" offset="0.710938"/><stop stop-opacity="1" stop-color="rgb(29.832458%, 33.401489%, 78.901672%)" offset="0.71875"/><stop stop-opacity="1" stop-color="rgb(30.024719%, 33.346558%, 79.154968%)" offset="0.726562"/><stop stop-opacity="1" stop-color="rgb(30.218506%, 33.293152%, 79.408264%)" offset="0.734375"/><stop stop-opacity="1" stop-color="rgb(30.410767%, 33.23822%, 79.66156%)" offset="0.742187"/><stop stop-opacity="1" stop-color="rgb(30.603027%, 33.183289%, 79.914856%)" offset="0.75"/><stop stop-opacity="1" stop-color="rgb(30.796814%, 33.128357%, 80.169678%)" offset="0.757812"/><stop stop-opacity="1" stop-color="rgb(30.989075%, 33.073425%, 80.422974%)" offset="0.765625"/><stop stop-opacity="1" stop-color="rgb(31.181335%, 33.02002%, 80.67627%)" offset="0.773437"/><stop stop-opacity="1" stop-color="rgb(31.375122%, 32.965088%, 80.929565%)" offset="0.78125"/><stop stop-opacity="1" stop-color="rgb(31.567383%, 32.910156%, 81.182861%)" offset="0.789062"/><stop stop-opacity="1" stop-color="rgb(31.759644%, 32.855225%, 81.437683%)" offset="0.796875"/><stop stop-opacity="1" stop-color="rgb(31.951904%, 32.800293%, 81.690979%)" offset="0.804688"/><stop stop-opacity="1" stop-color="rgb(32.145691%, 32.746887%, 81.944275%)" offset="0.8125"/><stop stop-opacity="1" stop-color="rgb(32.337952%, 32.691956%, 82.197571%)" offset="0.820312"/><stop stop-opacity="1" stop-color="rgb(32.530212%, 32.637024%, 82.450867%)" offset="0.828125"/><stop stop-opacity="1" stop-color="rgb(32.723999%, 32.582092%, 82.705688%)" offset="0.835938"/><stop stop-opacity="1" stop-color="rgb(32.91626%, 32.527161%, 82.958984%)" offset="0.84375"/><stop stop-opacity="1" stop-color="rgb(33.108521%, 32.473755%, 83.21228%)" offset="0.851563"/><stop stop-opacity="1" stop-color="rgb(33.302307%, 32.418823%, 83.465576%)" offset="0.859375"/><stop stop-opacity="1" stop-color="rgb(33.494568%, 32.363892%, 83.718872%)" offset="0.867187"/><stop stop-opacity="1" stop-color="rgb(33.686829%, 32.30896%, 83.972168%)" offset="0.875"/><stop stop-opacity="1" stop-color="rgb(33.879089%, 32.254028%, 84.22699%)" offset="0.882812"/><stop stop-opacity="1" stop-color="rgb(34.072876%, 32.200623%, 84.480286%)" offset="0.890625"/><stop stop-opacity="1" stop-color="rgb(34.265137%, 32.145691%, 84.733582%)" offset="0.898437"/><stop stop-opacity="1" stop-color="rgb(34.457397%, 32.090759%, 84.986877%)" offset="0.90625"/><stop stop-opacity="1" stop-color="rgb(34.651184%, 32.035828%, 85.240173%)" offset="0.914062"/><stop stop-opacity="1" stop-color="rgb(34.843445%, 31.980896%, 85.494995%)" offset="0.921875"/><stop stop-opacity="1" stop-color="rgb(35.035706%, 31.92749%, 85.748291%)" offset="0.929688"/><stop stop-opacity="1" stop-color="rgb(35.229492%, 31.872559%, 86.001587%)" offset="0.9375"/><stop stop-opacity="1" stop-color="rgb(35.421753%, 31.817627%, 86.254883%)" offset="0.945312"/><stop stop-opacity="1" stop-color="rgb(35.614014%, 31.762695%, 86.508179%)" offset="0.953125"/><stop stop-opacity="1" stop-color="rgb(35.806274%, 31.70929%, 86.761475%)" offset="0.960938"/><stop stop-opacity="1" stop-color="rgb(36.000061%, 31.654358%, 87.016296%)" offset="0.96875"/><stop stop-opacity="1" stop-color="rgb(36.192322%, 31.599426%, 87.269592%)" offset="0.976563"/><stop stop-opacity="1" stop-color="rgb(36.384583%, 31.544495%, 87.522888%)" offset="0.984375"/><stop stop-opacity="1" stop-color="rgb(36.578369%, 31.489563%, 87.776184%)" offset="0.992188"/><stop stop-opacity="1" stop-color="rgb(36.77063%, 31.436157%, 88.02948%)" offset="1"/></linearGradient><clipPath id="5fcdb18729"><path d="M 65.78125 126.902344 L 326 126.902344 L 326 375 L 65.78125 375 Z M 65.78125 126.902344 " clip-rule="nonzero"/></clipPath></defs><g clip-path="url(#d884073ce6)"><g clip-path="url(#1e33c55ffc)"><path fill="url(#4244e95553)" d="M 6.734375 0 L 6.734375 374.152344 L 369.546875 374.152344 L 369.546875 0 Z M 6.734375 0 " fill-rule="nonzero"/></g></g><path fill="#9f8b5a" d="M 324.925781 145.277344 L 322.796875 299.421875 C 322.792969 299.441406 322.777344 299.46875 322.765625 299.488281 L 322.765625 299.65625 C 322.675781 299.847656 320.527344 304.820312 316.179688 306.246094 C 314.816406 306.699219 298.679688 310.761719 277.320312 316.070312 L 275.902344 322.171875 L 275.691406 322.21875 L 257.71875 326.5625 C 265.6875 329.144531 275.664062 332.8125 279.722656 336.074219 C 286.914062 341.847656 283.617188 349.894531 283.582031 349.976562 L 283.515625 350.140625 L 283.34375 350.179688 L 184.039062 375.054688 L 183.9375 375.011719 L 113.417969 347.058594 L 113.84375 346.671875 C 113.84375 346.671875 114.484375 346.0625 114.976562 343.933594 C 115.527344 341.589844 119.332031 337.695312 119.488281 337.53125 L 119.578125 337.472656 L 127.226562 333.566406 L 121.679688 331.742188 L 121.320312 331.625 L 121.320312 313.351562 L 101.671875 308.753906 L 77.496094 272.898438 L 77.496094 244.359375 L 66.1875 241.078125 L 66.1875 152.089844 C 66.203125 151.910156 66.578125 148.539062 72.394531 146.367188 C 78.019531 144.234375 182.539062 127.886719 186.980469 127.175781 L 187.117188 127.175781 L 234.011719 139.554688 L 287.109375 131.539062 L 287.175781 131.539062 L 322.085938 140.632812 L 321.964844 140.78125 C 322.757812 141.0625 323.460938 141.535156 324.03125 142.160156 C 324.042969 142.179688 324.058594 142.199219 324.070312 142.222656 C 324.132812 142.277344 324.195312 142.332031 324.25 142.394531 C 324.90625 143.203125 325.152344 144.261719 324.925781 145.277344 Z M 324.925781 145.277344 " fill-opacity="1" fill-rule="nonzero"/><path fill="#baa97d" d="M 287.683594 132.027344 L 236.140625 139.753906 L 235.53125 139.84375 L 234.449219 140.007812 L 234.574219 140.007812 L 235.648438 139.878906 L 236.25 139.789062 L 257.535156 145.402344 L 257.527344 145.421875 L 236.292969 139.832031 L 235.710938 139.917969 L 235.648438 139.90625 L 234.574219 140.0625 L 234.367188 140.0625 L 212.058594 143.421875 L 211.996094 143.398438 L 127.394531 156.136719 L 127.277344 156.199219 C 125.8125 157.207031 124.550781 158.488281 123.582031 159.976562 L 140.347656 164.449219 L 143.960938 165.414062 L 155.019531 168.367188 C 155.460938 167.644531 156.183594 167.128906 157.011719 166.949219 L 251.78125 151.21875 L 251.820312 151.175781 L 318.671875 140.078125 L 318.746094 140.097656 L 318.847656 140.097656 Z M 257.445312 146.050781 L 257.433594 146.066406 L 257.441406 146.050781 Z M 242.238281 141.617188 L 243.175781 141.859375 L 243.148438 141.867188 L 242.238281 141.632812 L 238.679688 140.699219 Z M 212.703125 143.640625 C 212.515625 143.578125 212.339844 143.515625 212.152344 143.453125 L 212.160156 143.453125 C 212.34375 143.511719 212.523438 143.570312 212.703125 143.640625 Z M 232.792969 150.699219 C 232.792969 150.699219 227.957031 148.957031 221.386719 146.65625 C 221.042969 146.53125 220.675781 146.402344 220.320312 146.277344 C 220.675781 146.402344 221.042969 146.53125 221.394531 146.65625 C 227.921875 148.945312 232.746094 150.671875 232.792969 150.699219 Z M 242.210938 142.089844 L 242.199219 142.085938 L 241.644531 142.207031 L 235.710938 147.902344 L 241.636719 142.199219 L 242.183594 142.085938 L 241.855469 142.003906 L 241.847656 142.003906 L 241.875 141.988281 L 242.253906 142.089844 L 242.28125 142.085938 L 257.40625 146.09375 L 249.410156 143.988281 L 257.40625 146.085938 L 242.238281 142.097656 Z M 77.9375 243.699219 L 77.582031 243.589844 L 77.226562 243.488281 L 66.578125 240.410156 L 66.578125 151.898438 C 66.597656 151.746094 66.640625 151.601562 66.695312 151.464844 L 121.226562 166.257812 L 121.226562 171.234375 C 118.515625 171.117188 114.835938 172.390625 114.835938 180.46875 C 114.835938 185.9375 114.785156 211.175781 114.785156 238.265625 L 114.785156 239.90625 C 114.785156 244.707031 114.785156 249.566406 114.785156 254.363281 Z M 127.863281 333.765625 L 158.476562 343.726562 L 158.609375 343.800781 L 127.824219 333.742188 L 127.578125 333.660156 L 127.46875 333.660156 L 127.207031 333.578125 L 121.636719 331.75 L 121.636719 331.714844 L 127.25 333.558594 L 127.507812 333.640625 Z M 77.9375 250.847656 L 112.371094 261.132812 L 111.78125 310.371094 L 101.933594 308.074219 L 77.9375 272.597656 Z M 122.59375 160.167969 C 106.949219 156.386719 84.535156 150.964844 70.527344 147.605469 C 71.117188 147.300781 71.726562 147.03125 72.355469 146.796875 C 73.769531 146.25 81.902344 144.742188 93.214844 142.796875 C 98 145.46875 102.125 147.640625 104.207031 148.484375 C 108.730469 150.210938 113.574219 150.9375 118.398438 150.617188 C 118.398438 150.617188 179.445312 134.265625 187.257812 135.691406 C 190.863281 136.34375 200.835938 139.589844 210.53125 142.898438 L 127.226562 155.4375 L 127.117188 155.472656 C 127.023438 155.527344 124.964844 156.578125 122.59375 160.167969 Z M 153.90625 331.261719 L 153.90625 331.535156 C 154.007812 336.664062 155.046875 340.347656 157.011719 342.535156 L 129.679688 333.605469 L 129.015625 333.386719 L 121.957031 331.085938 L 121.957031 166.085938 L 141.636719 171.816406 L 153.90625 175.371094 L 153.90625 330.785156 C 153.90625 330.949219 153.90625 331.105469 153.90625 331.261719 Z M 208.027344 320.066406 L 207.855469 321.058594 L 208.011719 326.652344 L 208.011719 327.242188 L 192.9375 330.578125 L 192.9375 323.898438 Z M 183.285156 362.027344 L 183.355469 362.027344 L 183.355469 374 L 114.53125 346.816406 C 115.027344 345.980469 115.375 345.078125 115.558594 344.125 C 116.03125 342.082031 119.453125 338.519531 119.863281 338.085938 L 120.296875 337.867188 Z M 249.410156 143.984375 L 242.207031 142.089844 L 242.175781 142.078125 Z M 303.121094 179.367188 C 303.121094 186.828125 301.78125 276.34375 301.78125 276.34375 C 301.78125 276.34375 301.101562 281.09375 297.75 282.449219 C 294.546875 283.757812 196.945312 306.546875 187.5625 308.746094 L 187.40625 308.78125 L 186.832031 308.917969 C 186.703125 308.960938 186.570312 308.988281 186.441406 309.007812 C 185.222656 309.191406 181.472656 308.9375 181.472656 298.734375 L 181.472656 297.515625 C 181.554688 297.941406 181.65625 298.339844 181.765625 298.714844 C 181.773438 298.734375 181.773438 298.757812 181.78125 298.769531 C 181.957031 299.785156 182.199219 300.613281 182.472656 301.292969 C 183.992188 305 186.648438 303.992188 186.648438 303.992188 L 191.375 302.894531 L 192.335938 302.675781 L 192.484375 302.675781 C 214.480469 297.585938 291.304688 279.777344 294.09375 278.660156 C 297.347656 277.359375 297.996094 272.808594 297.996094 272.808594 C 297.996094 272.808594 299.304688 186.957031 299.304688 179.8125 C 299.304688 179.511719 299.289062 179.230469 299.277344 178.957031 C 299.132812 176.679688 298.398438 175.308594 297.539062 174.496094 C 297.085938 174.070312 296.59375 173.789062 296.128906 173.609375 L 296.023438 173.578125 C 295.820312 173.496094 295.609375 173.441406 295.386719 173.398438 C 295.085938 173.335938 294.78125 173.300781 294.472656 173.289062 L 294.3125 173.234375 L 295.730469 172.996094 L 296.648438 172.835938 L 296.792969 172.835938 L 297.796875 172.664062 C 297.796875 172.664062 303.121094 171.90625 303.121094 179.367188 Z M 191.339844 324.097656 L 191.171875 325.097656 L 191.253906 328.082031 L 191.253906 328.359375 L 191.328125 331.269531 L 176.25 334.613281 L 176.25 327.941406 Z M 191.339844 324.097656 " fill-opacity="1" fill-rule="nonzero"/><path fill="#5d5da8" d="M 295.246094 174.597656 C 294.429688 173.917969 293.375 173.582031 292.324219 173.671875 L 244.210938 181.957031 L 211.378906 187.601562 C 196.542969 190.152344 185.277344 192.085938 184.074219 192.289062 C 183.238281 192.46875 182.519531 192.988281 182.09375 193.730469 C 180.597656 195.988281 180.5625 200.136719 180.5625 200.25 C 180.570312 200.558594 180.664062 206.453125 180.796875 215.175781 C 181.136719 239.097656 181.847656 284.285156 181.847656 292.644531 C 181.847656 298.566406 183.203125 300.75 184.339844 301.558594 C 184.957031 302.003906 185.742188 302.140625 186.46875 301.9375 L 193.566406 300.285156 L 194.523438 300.066406 L 194.679688 300.023438 C 219.09375 294.359375 289.558594 277.96875 292.160156 276.925781 C 295.136719 275.734375 295.785156 271.472656 295.785156 271.425781 C 295.792969 270.621094 297.066406 186.710938 297.066406 179.742188 C 297.066406 177.371094 296.484375 175.679688 295.332031 174.667969 Z M 295.246094 174.597656 " fill-opacity="1" fill-rule="nonzero"/><path fill="#dac49d" d="M 210.683594 200.546875 C 211.003906 201.164062 210.769531 201.921875 210.164062 202.246094 C 210.15625 202.253906 210.148438 202.253906 210.136719 202.257812 C 209.472656 202.574219 208.78125 202.835938 208.066406 203.035156 C 207.964844 203.035156 207.816406 202.929688 207.535156 202.808594 C 208.128906 202.628906 208.5625 202.535156 208.949219 202.367188 C 209.300781 202.246094 209.628906 202.074219 209.929688 201.863281 C 210.292969 201.621094 210.429688 201.15625 210.246094 200.757812 C 210.09375 200.355469 209.675781 200.113281 209.253906 200.191406 C 208.566406 200.277344 207.945312 200.628906 207.511719 201.164062 C 207.382812 201.265625 207.238281 201.347656 207.082031 201.394531 C 207.042969 201.238281 207.015625 201.082031 207.007812 200.921875 C 207.007812 200.363281 207.007812 199.804688 207.0625 199.148438 C 206.707031 199.222656 206.34375 199.277344 205.980469 199.320312 C 205.851562 199.320312 205.71875 199.238281 205.589844 199.175781 C 205.691406 199.085938 205.773438 198.929688 205.890625 198.902344 C 206.246094 198.820312 206.609375 198.757812 206.972656 198.710938 C 206.972656 198.359375 206.933594 198.058594 206.910156 197.710938 L 207.375 197.628906 C 207.375 197.949219 207.375 198.242188 207.417969 198.667969 C 208.128906 198.449219 208.746094 198.238281 209.390625 198.058594 C 209.582031 198.046875 209.773438 198.058594 209.957031 198.101562 C 209.820312 198.222656 209.71875 198.402344 209.558594 198.457031 C 209.054688 198.648438 208.539062 198.804688 208.019531 198.929688 C 207.597656 199.03125 207.363281 199.183594 207.464844 199.640625 C 207.492188 199.921875 207.492188 200.203125 207.464844 200.484375 C 207.992188 200.203125 208.539062 199.972656 209.109375 199.773438 C 209.738281 199.539062 210.4375 199.859375 210.667969 200.492188 C 210.675781 200.511719 210.683594 200.527344 210.683594 200.546875 Z M 199.117188 202.308594 C 198.925781 202.835938 198.683594 203.347656 198.40625 203.835938 C 198.191406 204.046875 197.898438 204.15625 197.605469 204.128906 C 197.441406 204.128906 197.261719 203.773438 197.171875 203.546875 C 197.105469 203.265625 197.050781 202.984375 197.007812 202.703125 C 196.953125 202.292969 196.578125 202 196.167969 202.054688 C 196.035156 202.066406 195.921875 202.117188 195.816406 202.199219 C 195.523438 202.382812 195.234375 202.582031 194.957031 202.792969 L 195.53125 199.886719 L 195.441406 199.722656 C 195.285156 199.859375 195.03125 199.972656 195.003906 200.136719 C 194.707031 201.675781 194.457031 203.21875 194.210938 204.765625 C 194.210938 204.902344 194.351562 205.0625 194.378906 205.109375 C 194.789062 204.289062 195.09375 203.535156 195.550781 202.820312 C 195.75 202.621094 196.023438 202.527344 196.304688 202.5625 C 196.433594 202.5625 196.542969 202.929688 196.632812 203.148438 C 196.671875 203.335938 196.699219 203.519531 196.714844 203.707031 C 196.769531 204.292969 197.296875 204.726562 197.882812 204.671875 C 198.101562 204.652344 198.316406 204.5625 198.488281 204.417969 C 199.019531 203.980469 199.335938 203.328125 199.355469 202.636719 C 199.390625 202.5625 199.207031 202.429688 199.117188 202.320312 Z M 216.636719 200.273438 C 216.34375 200.082031 215.925781 199.957031 215.792969 199.691406 C 215.617188 199.230469 215.5 198.757812 215.4375 198.269531 C 215.710938 198.195312 215.980469 198.105469 216.238281 197.996094 C 216.382812 197.929688 216.464844 197.765625 216.582031 197.640625 C 216.429688 197.605469 216.273438 197.59375 216.125 197.601562 C 215.871094 197.660156 215.617188 197.742188 215.371094 197.832031 C 215.289062 197.347656 215.214844 196.914062 215.136719 196.414062 L 214.636719 196.566406 C 214.714844 197.050781 214.796875 197.492188 214.878906 197.984375 C 214.460938 198.050781 214.078125 198.113281 213.699219 198.1875 C 213.613281 198.1875 213.535156 198.320312 213.453125 198.382812 C 213.5625 198.441406 213.667969 198.558594 213.769531 198.550781 C 214.160156 198.511719 214.542969 198.429688 215.027344 198.347656 L 215.296875 199.902344 C 214.160156 200.09375 213.742188 200.375 213.761719 200.945312 C 213.78125 201.511719 214.164062 201.726562 214.664062 201.765625 C 215.507812 201.835938 215.828125 201.539062 216.035156 200.5 L 217.027344 200.9375 C 217.292969 200.421875 216.855469 200.417969 216.628906 200.265625 Z M 226.511719 197.113281 L 227.792969 198.429688 L 224.582031 199.203125 C 224.792969 197.710938 224.984375 196.359375 225.183594 194.941406 L 224.964844 194.796875 C 224.863281 194.96875 224.691406 195.132812 224.664062 195.3125 C 224.5 196.347656 224.382812 197.394531 224.246094 198.4375 C 224.191406 198.894531 224.179688 199.382812 223.535156 199.566406 C 223.664062 199.695312 223.851562 199.765625 224.035156 199.757812 C 225.144531 199.511719 226.257812 199.273438 227.339844 198.949219 C 227.859375 198.792969 228.242188 198.773438 228.605469 199.320312 C 228.695312 199.128906 228.757812 198.9375 228.683594 198.820312 C 227.984375 197.75 226.910156 196.886719 226.5 197.113281 Z M 237.871094 197.359375 C 237.402344 197.621094 236.8125 197.441406 236.550781 196.96875 C 236.503906 196.878906 236.46875 196.792969 236.449219 196.6875 C 236.175781 195.457031 236.003906 194.195312 235.792969 192.921875 L 235.304688 193.003906 C 235.519531 194.261719 235.695312 195.484375 235.941406 196.695312 C 236.074219 197.46875 236.804688 197.992188 237.578125 197.859375 C 237.585938 197.859375 237.585938 197.859375 237.59375 197.859375 C 238.535156 197.765625 239.386719 197.242188 239.898438 196.441406 C 239.980469 196.324219 239.898438 196.105469 239.898438 196.03125 C 239.253906 196.523438 238.570312 196.96875 237.859375 197.351562 Z M 222.113281 195.558594 L 221.996094 195.34375 C 221.816406 195.394531 221.644531 195.46875 221.496094 195.570312 C 220.867188 196.285156 220.285156 196.988281 219.628906 197.632812 C 218.976562 198.269531 218.421875 198.675781 217.792969 199.210938 C 217.875 199.277344 217.972656 199.394531 217.984375 199.382812 C 218.695312 198.894531 219.402344 198.394531 220.152344 197.859375 C 220.304688 198.722656 220.449219 199.566406 220.585938 200.410156 C 220.632812 200.703125 220.695312 200.957031 221.121094 200.71875 C 220.960938 199.777344 220.769531 198.855469 220.667969 197.875 C 220.660156 197.523438 220.761719 197.1875 220.960938 196.902344 C 221.316406 196.433594 221.695312 195.984375 222.097656 195.558594 Z M 230.808594 193.523438 L 230.640625 193.480469 C 230.585938 193.699219 230.53125 193.914062 230.460938 194.195312 C 229.988281 194.453125 229.285156 194.234375 228.820312 194.660156 L 228.867188 194.851562 L 230.5625 194.558594 C 230.816406 195.03125 230.5625 195.113281 230.25 195.195312 C 229.933594 195.277344 229.449219 195.195312 229.050781 195.695312 L 230.6875 195.421875 L 230.789062 195.640625 C 230.46875 196.351562 229.496094 196.066406 228.914062 196.65625 C 229.558594 196.886719 230.035156 196.359375 230.617188 196.488281 L 229.542969 197.375 L 229.898438 197.574219 C 231.425781 196.433594 231.414062 196.148438 230.804688 193.523438 Z M 232.488281 196.777344 C 232.546875 196.570312 232.609375 196.367188 232.671875 196.160156 C 232.671875 196.160156 232.671875 196.097656 232.808594 195.929688 L 234.5 195.632812 L 234.457031 195.421875 C 234.15625 195.484375 233.84375 195.515625 233.535156 195.523438 C 233.191406 195.523438 232.65625 195.984375 232.5625 195.394531 C 232.460938 194.804688 233.117188 195.121094 233.410156 194.976562 C 233.621094 194.898438 233.847656 194.84375 234.066406 194.8125 L 234.019531 194.558594 C 233.621094 194.621094 233.226562 194.667969 232.828125 194.734375 C 232.433594 194.804688 232.316406 194.648438 232.417969 194.195312 L 234.117188 193.898438 L 234.117188 193.660156 L 232.328125 193.859375 C 232.273438 193.667969 232.21875 193.496094 232.164062 193.316406 L 231.945312 193.277344 C 231.890625 193.433594 231.855469 193.605469 231.855469 193.777344 C 231.980469 194.59375 232.109375 195.40625 232.269531 196.222656 C 232.324219 196.414062 232.398438 196.605469 232.488281 196.785156 Z M 242.917969 195.003906 C 242.902344 195.140625 242.867188 195.285156 242.828125 195.414062 C 242.644531 195.757812 242.445312 196.09375 242.246094 196.421875 C 241.929688 196.125 241.609375 195.839844 241.308594 195.523438 C 241.238281 195.421875 241.199219 195.296875 241.183594 195.175781 C 241.035156 194.351562 240.90625 193.515625 240.734375 192.515625 C 240.582031 192.644531 240.351562 192.753906 240.363281 192.851562 C 240.5 193.996094 240.515625 195.175781 241.171875 196.175781 C 241.480469 196.640625 241.882812 197.015625 242.511719 196.820312 C 242.984375 196.457031 243.253906 195.878906 243.226562 195.285156 C 243.230469 195.179688 243.0625 195.121094 242.910156 194.988281 Z M 201.222656 202.046875 L 200.964844 202.953125 L 200.75 202.953125 C 200.636719 201.664062 200.527344 200.367188 200.394531 198.902344 C 200.246094 199.136719 200.035156 199.3125 200.039062 199.46875 C 200.089844 200.457031 200.164062 201.445312 200.28125 202.421875 C 200.367188 202.910156 200.511719 203.390625 200.695312 203.84375 C 200.730469 203.945312 200.890625 204.007812 200.992188 204.082031 C 201.074219 203.984375 201.136719 203.875 201.183594 203.753906 C 201.273438 203.347656 201.355469 202.945312 201.410156 202.539062 C 201.421875 202.375 201.421875 202.210938 201.410156 202.039062 L 201.222656 202.039062 Z M 212.976562 199.859375 L 212.777344 199.859375 L 212.503906 200.757812 L 212.285156 200.757812 C 212.207031 199.546875 212.132812 198.332031 212.050781 197.015625 C 211.929688 197.132812 211.675781 197.242188 211.675781 197.367188 C 211.59375 198.855469 211.796875 200.339844 212.285156 201.753906 C 212.332031 201.890625 212.523438 201.972656 212.652344 202.082031 L 212.789062 201.992188 C 212.550781 201.257812 213.132812 200.582031 212.976562 199.867188 Z M 189.636719 203.964844 C 189.699219 203.738281 189.792969 203.519531 189.90625 203.21875 C 189.707031 203.265625 189.507812 203.273438 189.5 203.328125 C 189.328125 203.78125 189.253906 204.265625 189.28125 204.746094 C 189.445312 205.125 189.78125 205.390625 190.183594 205.460938 C 191.203125 205.371094 192.21875 205.226562 193.21875 205.015625 C 193.300781 205.015625 193.355469 204.78125 193.464844 204.574219 C 192.339844 204.765625 191.417969 204.988281 190.480469 205.0625 C 189.773438 205.183594 189.445312 204.652344 189.628906 203.972656 Z M 190.964844 201.601562 L 190.253906 202.3125 L 190.390625 202.5 C 191.027344 202.0625 191.675781 201.621094 192.304688 201.167969 C 192.382812 201.113281 192.355469 200.917969 192.382812 200.765625 L 188.933594 201.527344 L 188.933594 201.753906 C 189.597656 202.074219 190.253906 201.527344 190.957031 201.601562 Z M 203.578125 202.671875 C 202.804688 202.671875 202.546875 202.253906 202.867188 201.539062 C 202.921875 201.417969 202.988281 201.300781 203.097656 201.085938 C 202.886719 201.085938 202.667969 201.085938 202.65625 201.121094 C 202.46875 201.519531 202.375 201.949219 202.378906 202.390625 C 202.519531 202.753906 202.824219 203.019531 203.203125 203.101562 C 203.859375 203.117188 204.507812 203.0625 205.152344 202.9375 C 205.242188 202.9375 205.316406 202.71875 205.480469 202.484375 C 204.996094 202.566406 204.734375 202.621094 204.46875 202.65625 C 204.175781 202.683594 203.878906 202.691406 203.585938 202.675781 Z M 233.207031 197.695312 C 233.207031 198.214844 233.0625 198.484375 232.492188 198.558594 C 231.40625 198.695312 231.417969 198.730469 231.1875 197.65625 C 231.125 197.511719 231.042969 197.386719 230.941406 197.269531 L 230.75 197.375 C 230.796875 197.796875 230.878906 198.222656 230.980469 198.640625 C 231.078125 198.847656 231.261719 198.992188 231.480469 199.039062 C 232.046875 198.996094 232.617188 198.910156 233.171875 198.765625 C 233.328125 198.722656 233.484375 198.449219 233.519531 198.265625 C 233.554688 198.078125 233.4375 197.882812 233.382812 197.6875 Z M 243.976562 192.414062 C 243.886719 192.414062 243.777344 192.488281 243.675781 192.542969 C 243.730469 192.632812 243.757812 192.777344 243.839844 192.808594 C 244.550781 193.144531 245.113281 193.742188 245.402344 194.476562 C 245.484375 194.566406 245.601562 194.613281 245.722656 194.613281 C 245.785156 194.613281 245.847656 194.449219 245.867188 194.40625 C 245.539062 193.515625 244.847656 192.804688 243.972656 192.441406 Z M 204.578125 198.984375 C 203.785156 199.121094 203.003906 199.304688 202.238281 199.539062 C 202.121094 199.539062 202.039062 199.75 201.941406 199.867188 L 202.066406 200.03125 L 204.644531 199.320312 Z M 233.402344 197.039062 L 234.820312 198.394531 C 234.820312 198.175781 234.921875 198.011719 234.867188 197.910156 C 234.574219 197.375 234.011719 197.039062 233.402344 197.039062 Z M 229.914062 199.011719 C 230.085938 198.710938 230.222656 198.394531 230.308594 198.058594 C 230.425781 197.695312 230.269531 197.519531 229.886719 197.574219 C 229.785156 198.078125 229.6875 198.585938 229.570312 199.148438 C 229.632812 199.128906 229.851562 199.113281 229.914062 199.011719 Z M 232.691406 197.394531 C 231.808594 196.683594 231.441406 196.59375 231.105469 196.957031 C 231.652344 196.96875 231.980469 197.59375 232.691406 197.394531 Z M 214.882812 200.8125 C 214.816406 200.792969 214.746094 200.792969 214.679688 200.8125 L 214.9375 200.8125 M 122.59375 160.152344 C 122.164062 160.804688 121.71875 161.53125 121.28125 162.367188 L 121.238281 162.433594 L 121.238281 166.273438 L 66.695312 151.464844 C 66.953125 150.699219 67.816406 149.039062 70.527344 147.601562 C 84.535156 150.949219 106.949219 156.371094 122.59375 160.152344 Z M 187.199219 127.613281 C 184.710938 128.003906 125.742188 137.21875 93.214844 142.796875 C 98 145.460938 102.125 147.636719 104.207031 148.484375 C 108.730469 150.210938 113.574219 150.9375 118.398438 150.617188 C 118.398438 150.617188 179.445312 134.265625 187.253906 135.691406 C 190.863281 136.34375 200.835938 139.589844 210.53125 142.898438 L 232.625 139.578125 Z M 143.953125 165.421875 L 140.335938 164.457031 L 123.566406 159.980469 C 123.492188 160.105469 123.402344 160.214844 123.320312 160.339844 C 122.828125 161.078125 122.371094 161.839844 121.953125 162.628906 L 121.953125 166.09375 L 141.621094 171.78125 L 153.890625 175.335938 L 153.890625 175.070312 C 153.890625 174.863281 153.480469 170.652344 155.019531 168.347656 Z M 143.953125 165.421875 " fill-opacity="1" fill-rule="nonzero"/><g clip-path="url(#5fcdb18729)"><path fill="#473e2a" d="M 248 323.484375 C 258.144531 320.984375 268.082031 318.511719 277.109375 316.277344 L 275.902344 321.636719 L 256.917969 326.199219 L 256.832031 326.199219 L 256.1875 326.351562 L 255.570312 326.5 L 173.136719 346.332031 C 171.742188 345.378906 170.535156 344.171875 169.585938 342.773438 C 183.945312 339.21875 216.261719 331.296875 246.960938 323.707031 L 247.199219 323.652344 L 247.878906 323.480469 Z M 316.324219 166.464844 C 316.324219 175.28125 314.734375 281.125 314.734375 281.125 C 314.734375 281.125 313.941406 286.738281 309.964844 288.347656 C 305.988281 289.953125 182.191406 318.855469 178.949219 319.621094 L 178.878906 319.621094 L 178.789062 319.65625 C 178.503906 319.730469 178.207031 319.773438 177.90625 319.773438 C 176.128906 319.773438 172.527344 318.464844 172.527344 307.597656 C 172.527344 298.449219 171.890625 254.507812 171.417969 223.5625 C 171.152344 205.679688 170.933594 192.132812 170.933594 192.132812 C 170.933594 192.132812 170.933594 182.519531 175.703125 181.710938 C 177.675781 181.375 201.167969 177.3125 227.957031 172.671875 L 307.03125 158.960938 L 307.941406 158.804688 L 308.089844 158.804688 L 309.972656 158.476562 C 309.964844 158.476562 316.324219 157.644531 316.324219 166.464844 Z M 180.789062 215.167969 C 181.128906 239.089844 181.84375 284.277344 181.84375 292.636719 C 181.84375 298.558594 183.199219 300.742188 184.332031 301.550781 C 184.949219 301.996094 185.738281 302.136719 186.460938 301.929688 L 193.558594 300.277344 L 194.515625 300.058594 L 194.675781 300.019531 C 219.085938 294.351562 289.550781 277.960938 292.152344 276.917969 C 295.128906 275.726562 295.777344 271.464844 295.777344 271.417969 C 295.785156 270.617188 297.058594 186.707031 297.058594 179.738281 C 297.058594 177.367188 296.476562 175.671875 295.328125 174.660156 L 295.25 174.597656 C 294.4375 173.917969 293.382812 173.582031 292.328125 173.671875 L 244.21875 181.957031 L 211.386719 187.601562 C 196.550781 190.152344 185.285156 192.085938 184.082031 192.289062 C 183.246094 192.46875 182.527344 192.988281 182.101562 193.730469 C 180.605469 195.988281 180.570312 200.136719 180.570312 200.25 C 180.554688 200.554688 180.652344 206.453125 180.789062 215.167969 Z M 303.121094 179.367188 C 303.121094 171.90625 297.796875 172.664062 297.796875 172.664062 L 296.792969 172.835938 L 296.648438 172.835938 L 295.730469 172.996094 L 294.3125 173.234375 L 294.472656 173.289062 C 294.78125 173.296875 295.085938 173.328125 295.386719 173.398438 C 295.609375 173.441406 295.820312 173.496094 296.023438 173.578125 L 296.128906 173.609375 C 296.59375 173.789062 297.085938 174.070312 297.539062 174.496094 C 298.40625 175.308594 299.132812 176.679688 299.277344 178.957031 C 299.296875 179.230469 299.304688 179.511719 299.304688 179.8125 C 299.304688 186.957031 297.996094 272.808594 297.996094 272.808594 C 297.996094 272.808594 297.347656 277.359375 294.09375 278.660156 C 291.304688 279.777344 214.488281 297.585938 192.484375 302.675781 L 192.328125 302.675781 L 191.367188 302.894531 L 186.640625 303.992188 C 186.640625 303.992188 183.984375 305.007812 182.464844 301.292969 C 182.191406 300.621094 181.953125 299.792969 181.773438 298.769531 C 181.765625 298.75 181.765625 298.730469 181.761719 298.714844 C 181.652344 298.339844 181.554688 297.941406 181.464844 297.515625 L 181.464844 298.734375 C 181.464844 308.933594 185.214844 309.191406 186.433594 309.007812 C 186.566406 308.988281 186.695312 308.953125 186.824219 308.917969 L 187.398438 308.78125 L 187.558594 308.746094 C 196.941406 306.546875 294.539062 283.757812 297.742188 282.449219 C 301.101562 281.09375 301.773438 276.34375 301.773438 276.34375 C 301.773438 276.34375 303.121094 186.828125 303.121094 179.367188 Z M 224.027344 325.324219 L 222.261719 325.726562 L 173.417969 337.5 L 173.417969 326.789062 L 224.527344 315.257812 L 224.527344 325.207031 Z M 191.171875 325.097656 L 191.339844 324.097656 L 176.257812 327.941406 L 176.257812 334.613281 L 191.335938 331.269531 L 191.257812 328.359375 L 191.257812 328.082031 Z M 207.863281 321.058594 L 208.035156 320.066406 L 192.941406 323.902344 L 192.941406 330.585938 L 208.019531 327.246094 L 208.019531 326.660156 Z M 325.6875 145.402344 L 323.558594 299.628906 L 323.558594 299.6875 C 323.46875 299.886719 321.3125 304.828125 316.953125 306.289062 C 315.535156 306.738281 299.359375 310.808594 277.910156 316.132812 L 276.492188 322.238281 L 276.28125 322.285156 L 258.226562 326.632812 C 266.207031 329.222656 276.226562 332.886719 280.304688 336.148438 C 287.53125 341.9375 284.21875 349.996094 284.179688 350.070312 L 284.109375 350.238281 L 283.9375 350.277344 L 184.222656 375.152344 L 184.113281 375.109375 L 113.308594 347.105469 L 113.734375 346.722656 C 113.738281 346.714844 114.382812 346.105469 114.875 343.972656 C 115.421875 341.636719 119.242188 337.738281 119.40625 337.574219 L 119.496094 337.511719 L 127.171875 333.605469 L 127.433594 333.6875 L 127.535156 333.6875 L 127.585938 333.792969 L 127.734375 334.09375 L 120.296875 337.875 L 119.863281 338.09375 C 119.460938 338.519531 116.039062 342.089844 115.558594 344.132812 C 115.375 345.082031 115.027344 345.996094 114.53125 346.824219 L 183.320312 373.992188 L 184.238281 374.355469 L 283.554688 349.550781 C 285.121094 345.351562 284.046875 340.617188 280.816406 337.503906 C 280.503906 337.195312 280.167969 336.902344 279.824219 336.628906 C 275.691406 333.3125 264.941406 329.460938 256.835938 326.878906 L 239.332031 331.085938 L 242.238281 334.160156 L 182.964844 349.585938 L 178.8125 345.636719 L 172.964844 347.058594 L 172.835938 346.988281 C 171.226562 345.941406 169.851562 344.570312 168.8125 342.960938 L 162.105469 344.609375 C 161.898438 344.644531 161.6875 344.664062 161.476562 344.660156 C 160.433594 344.644531 159.414062 344.351562 158.53125 343.816406 L 158.402344 343.742188 L 127.832031 333.757812 L 127.476562 333.632812 L 127.214844 333.550781 L 121.601562 331.707031 L 121.246094 331.59375 L 121.246094 313.3125 L 101.515625 308.710938 L 77.234375 272.808594 L 77.234375 244.226562 L 65.875 240.945312 L 65.875 151.863281 C 65.875 151.683594 66.285156 148.304688 72.113281 146.09375 C 77.761719 143.957031 182.71875 127.613281 187.179688 126.902344 L 187.3125 126.902344 L 234.394531 139.316406 L 287.722656 131.285156 L 287.785156 131.285156 L 322.839844 140.40625 L 322.722656 140.542969 C 323.515625 140.824219 324.230469 141.296875 324.796875 141.921875 C 325.617188 142.878906 325.945312 144.167969 325.6875 145.402344 Z M 324.261719 142.386719 C 323.707031 141.789062 323.011719 141.351562 322.230469 141.113281 L 322.128906 141.113281 L 322.039062 141.035156 L 321.566406 140.90625 C 320.949219 140.761719 320.328125 140.679688 319.699219 140.667969 L 250.84375 152.101562 L 157.199219 167.671875 C 156.628906 167.785156 156.125 168.109375 155.78125 168.574219 C 154.214844 170.570312 154.636719 175.015625 154.636719 175.070312 L 154.636719 330.789062 C 154.636719 330.933594 154.636719 331.070312 154.636719 331.214844 L 154.636719 331.488281 C 154.714844 336.945312 155.945312 340.808594 158.191406 342.699219 C 158.367188 342.851562 158.554688 342.988281 158.746094 343.109375 C 159.011719 343.28125 159.292969 343.433594 159.585938 343.554688 L 159.6875 343.589844 C 160.421875 343.898438 161.214844 344.015625 162.003906 343.933594 L 168.496094 342.34375 L 168.859375 342.253906 L 169.222656 342.171875 C 182.785156 338.867188 213.425781 331.3125 243.238281 323.945312 L 244.949219 323.519531 C 256.214844 320.738281 267.320312 317.992188 277.3125 315.511719 L 277.703125 315.421875 L 278.085938 315.316406 C 299.34375 310.042969 315.371094 306.027344 316.707031 305.582031 C 320.511719 304.3125 322.59375 300.011719 322.851562 299.441406 L 324.980469 145.296875 C 325.179688 144.257812 324.917969 143.195312 324.261719 142.386719 Z M 256.917969 326.199219 L 275.902344 321.636719 L 277.066406 316.265625 C 268.046875 318.496094 258.109375 320.972656 247.960938 323.472656 L 247.871094 323.472656 L 247.195312 323.644531 L 246.953125 323.699219 C 216.253906 331.289062 183.945312 339.210938 169.578125 342.769531 C 170.53125 344.164062 171.734375 345.371094 173.128906 346.324219 L 255.5625 326.492188 L 256.179688 326.34375 L 256.824219 326.191406 Z M 77.9375 272.597656 L 101.933594 308.074219 L 111.78125 310.371094 L 121.246094 312.585938 L 121.246094 256.964844 L 77.945312 244.453125 L 77.945312 272.597656 Z M 66.585938 240.417969 L 77.234375 243.496094 L 77.589844 243.597656 L 77.945312 243.707031 L 114.792969 254.390625 L 121.246094 256.261719 L 121.246094 162.433594 L 121.289062 162.367188 C 121.726562 161.539062 122.171875 160.8125 122.601562 160.152344 C 124.996094 156.578125 127.023438 155.527344 127.125 155.480469 L 127.234375 155.445312 L 210.550781 142.886719 L 232.644531 139.5625 L 187.199219 127.613281 C 184.710938 128.015625 125.742188 137.234375 93.214844 142.824219 C 81.902344 144.765625 73.769531 146.269531 72.355469 146.804688 C 71.730469 147.03125 71.121094 147.300781 70.527344 147.601562 C 67.816406 149.046875 66.953125 150.699219 66.695312 151.464844 C 66.640625 151.601562 66.605469 151.753906 66.578125 151.898438 L 66.578125 240.417969 Z M 157.019531 342.535156 C 155.054688 340.355469 154.007812 336.664062 153.914062 331.539062 L 153.914062 331.261719 C 153.914062 331.097656 153.914062 330.941406 153.914062 330.777344 L 153.914062 175.105469 C 153.890625 174.898438 153.503906 170.683594 155.042969 168.382812 C 155.480469 167.65625 156.207031 167.140625 157.035156 166.964844 L 251.78125 151.226562 L 318.746094 140.089844 L 318.847656 140.089844 L 287.683594 132 L 236.140625 139.777344 L 235.53125 139.863281 L 234.449219 140.027344 L 234.367188 140.027344 L 212.003906 143.398438 L 127.394531 156.109375 L 127.277344 156.171875 C 125.8125 157.179688 124.550781 158.460938 123.582031 159.949219 C 123.503906 160.070312 123.417969 160.179688 123.335938 160.304688 C 122.835938 161.066406 122.375 161.847656 121.957031 162.648438 L 121.957031 331.085938 L 129.015625 333.386719 L 129.679688 333.605469 Z M 295.839844 174.199219 C 297.148438 175.351562 297.804688 177.234375 297.804688 179.804688 C 297.804688 186.789062 296.519531 270.691406 296.519531 271.535156 C 296.492188 271.773438 295.804688 276.289062 292.453125 277.632812 C 289.734375 278.726562 217.640625 295.488281 193.996094 300.96875 L 193.839844 300.96875 L 192.875 301.195312 L 186.695312 302.613281 C 186.40625 302.703125 186.113281 302.746094 185.8125 302.746094 C 185.140625 302.746094 184.492188 302.539062 183.945312 302.15625 C 182.875 301.304688 182.121094 300.121094 181.816406 298.792969 C 181.707031 298.414062 181.609375 298.015625 181.519531 297.59375 C 181.21875 295.953125 181.082031 294.28125 181.109375 292.617188 C 181.109375 284.339844 180.433594 239.851562 180.070312 215.757812 C 179.925781 206.644531 179.832031 200.472656 179.832031 200.25 C 179.832031 199.921875 179.878906 192.277344 183.972656 191.570312 L 212.367188 186.691406 L 292.21875 172.960938 C 292.945312 172.898438 293.671875 173 294.347656 173.253906 L 294.503906 173.308594 C 294.753906 173.414062 294.992188 173.535156 295.21875 173.671875 C 295.386719 173.78125 295.558594 173.90625 295.71875 174.035156 L 295.792969 174.097656 Z M 292.144531 276.917969 C 295.121094 275.726562 295.773438 271.464844 295.773438 271.417969 C 295.777344 270.617188 297.050781 186.707031 297.050781 179.738281 C 297.050781 177.378906 296.46875 175.671875 295.328125 174.660156 L 295.25 174.597656 C 294.4375 173.917969 293.382812 173.582031 292.328125 173.671875 L 244.21875 181.957031 L 211.386719 187.601562 C 196.550781 190.152344 185.285156 192.085938 184.082031 192.289062 C 183.253906 192.46875 182.527344 192.980469 182.101562 193.714844 C 180.605469 195.976562 180.570312 200.121094 180.570312 200.238281 C 180.578125 200.546875 180.671875 206.4375 180.800781 215.160156 C 181.144531 239.082031 181.855469 284.273438 181.855469 292.632812 C 181.855469 298.550781 183.210938 300.738281 184.347656 301.546875 C 184.964844 301.992188 185.75 302.128906 186.476562 301.921875 L 193.574219 300.269531 L 194.53125 300.050781 L 194.6875 300.011719 C 219.078125 294.34375 289.542969 277.953125 292.144531 276.917969 Z M 173.84375 325.960938 L 225.253906 314.359375 L 225.253906 325.734375 L 224.984375 325.796875 L 172.726562 338.402344 L 172.726562 326.21875 L 173.675781 326 Z M 224.527344 315.257812 L 173.417969 326.789062 L 173.417969 337.5 L 222.261719 325.734375 L 224.027344 325.308594 L 224.527344 325.183594 Z M 224.527344 315.257812 " fill-opacity="1" fill-rule="nonzero"/></g><g fill="#ffffff" fill-opacity="1"><g transform="translate(120.472985, 105.384558)"><g><path d="M 27.609375 0.75 C 22.160156 0.75 17.484375 -0.5 13.578125 -3 C 9.679688 -5.507812 6.550781 -8.628906 4.1875 -12.359375 L 10.640625 -19.546875 C 13.210938 -16.679688 15.769531 -14.351562 18.3125 -12.5625 C 20.851562 -10.78125 23.953125 -9.890625 27.609375 -9.890625 C 30.617188 -9.890625 33.300781 -10.550781 35.65625 -11.875 C 38.019531 -13.195312 39.882812 -14.96875 41.25 -17.1875 C 42.613281 -19.40625 43.296875 -21.84375 43.296875 -24.5 C 43.296875 -27.425781 42.628906 -30.019531 41.296875 -32.28125 C 39.972656 -34.539062 38.179688 -36.3125 35.921875 -37.59375 C 33.671875 -38.882812 31.1875 -39.53125 28.46875 -39.53125 C 24.8125 -39.53125 21.75 -38.957031 19.28125 -37.8125 C 16.8125 -36.664062 14.859375 -35.734375 13.421875 -35.015625 L 7.3125 -43.296875 L 11.703125 -75.203125 L 52.3125 -75.203125 L 52.3125 -64.453125 L 20.953125 -64.453125 L 18.484375 -47.796875 C 20.128906 -48.515625 22.023438 -49.109375 24.171875 -49.578125 C 26.316406 -50.046875 28.429688 -50.28125 30.515625 -50.28125 C 34.878906 -50.28125 38.867188 -49.273438 42.484375 -47.265625 C 46.097656 -45.265625 49.015625 -42.414062 51.234375 -38.71875 C 53.460938 -35.03125 54.578125 -30.644531 54.578125 -25.5625 C 54.578125 -20.550781 53.375 -16.054688 50.96875 -12.078125 C 48.570312 -8.109375 45.347656 -4.976562 41.296875 -2.6875 C 37.253906 -0.394531 32.691406 0.75 27.609375 0.75 Z M 27.609375 0.75 "/></g></g></g><g fill="#ffffff" fill-opacity="1"><g transform="translate(181.485522, 105.384558)"><g><path d="M 37.8125 0 L 37.8125 -20.40625 L 8.171875 -20.40625 L 3.21875 -30.078125 L 40.0625 -75.203125 L 48.984375 -75.203125 L 48.984375 -31.046875 L 62.09375 -31.046875 L 62.09375 -20.40625 L 48.984375 -20.40625 L 48.984375 0 Z M 16.859375 -31.046875 L 37.8125 -31.046875 L 37.8125 -56.609375 Z M 16.859375 -31.046875 "/></g></g></g></svg>