<svg xmlns="http://www.w3.org/2000/svg" xmlns:xlink="http://www.w3.org/1999/xlink" width="500" zoomAndPan="magnify" viewBox="0 0 375 374.999991" height="500" preserveAspectRatio="xMidYMid meet" version="1.0"><defs><g/><clipPath id="d86dd799a5"><path d="M 5.707031 0 L 370.578125 0 L 370.578125 375 L 5.707031 375 Z M 5.707031 0 " clip-rule="nonzero"/></clipPath><clipPath id="70f1b6fc3a"><path d="M 19.957031 0 L 356.328125 0 C 364.199219 0 370.578125 6.378906 370.578125 14.25 L 370.578125 362.53125 C 370.578125 370.402344 364.199219 376.78125 356.328125 376.78125 L 19.957031 376.78125 C 12.089844 376.78125 5.707031 370.402344 5.707031 362.53125 L 5.707031 14.25 C 5.707031 6.378906 12.089844 0 19.957031 0 Z M 19.957031 0 " clip-rule="nonzero"/></clipPath></defs><g clip-path="url(#d86dd799a5)"><g clip-path="url(#70f1b6fc3a)"><path fill="#e3c1e8" d="M 5.707031 0 L 370.578125 0 L 370.578125 376.273438 L 5.707031 376.273438 Z M 5.707031 0 " fill-opacity="1" fill-rule="nonzero"/></g></g><path fill="#a55f3b" d="M 309.824219 273.195312 C 314.992188 248.503906 317.136719 196.101562 276.445312 162.117188 C 247.328125 137.808594 213.042969 147.488281 213.042969 147.488281 C 213.042969 147.488281 165.503906 113.367188 106.359375 164.949219 C 56.679688 208.308594 84.640625 270.636719 84.640625 270.636719 L 219.144531 314.960938 C 219.144531 314.960938 217.605469 343.609375 229.648438 352.902344 C 247.464844 366.625 267.152344 356.726562 267.152344 356.726562 C 267.152344 356.726562 259.753906 355.210938 255.878906 349.410156 C 253.074219 345.203125 253.707031 340.53125 253.707031 340.53125 C 253.707031 340.53125 255.21875 346.800781 261.679688 350.921875 C 276.003906 360.078125 287.277344 350.621094 287.277344 350.621094 C 287.277344 350.621094 279.714844 351.445312 272.789062 343.527344 C 270.644531 341.082031 268.992188 335.527344 269.351562 335.664062 C 269.351562 335.664062 270.617188 340.035156 276.664062 343.527344 C 290.191406 351.335938 298.605469 342.539062 298.605469 342.539062 C 298.605469 342.539062 286.34375 338.714844 290.136719 320.429688 C 292.007812 311.414062 305.398438 294.175781 309.796875 273.195312 Z M 309.824219 273.195312 " fill-opacity="1" fill-rule="nonzero"/><path fill="#a55f3b" d="M 95.832031 282.734375 C 95.832031 282.734375 110.652344 309.707031 110.375 320.101562 C 109.878906 338.550781 98.441406 339.046875 98.441406 339.046875 C 98.441406 339.046875 104.574219 347.292969 114.445312 343.417969 C 119.367188 341.492188 121.894531 335.332031 121.894531 335.332031 C 121.894531 335.332031 122.941406 336.847656 120.328125 341.492188 C 115.710938 349.714844 104.273438 349.21875 104.273438 349.21875 C 104.273438 349.21875 120.574219 363.269531 134.679688 349.714844 C 141.253906 343.363281 139.21875 342.097656 139.21875 342.097656 C 139.21875 342.097656 140.511719 343.390625 139.136719 346.113281 C 133.855469 356.585938 123.683594 357.933594 123.683594 357.933594 C 123.683594 357.933594 144.550781 367.640625 156.675781 351.144531 C 171.9375 330.414062 164.429688 309.570312 164.429688 309.570312 L 95.832031 282.707031 Z M 95.832031 282.734375 " fill-opacity="1" fill-rule="nonzero"/><path fill="#fad7d0" d="M 98.167969 274.652344 C 98.167969 274.652344 93.878906 253.8125 78.097656 267.695312 C 69.40625 275.339844 78.757812 303.550781 94.207031 308.992188 C 109.660156 314.4375 104.464844 302.175781 104.464844 302.175781 L 98.167969 274.625 Z M 98.167969 274.652344 " fill-opacity="1" fill-rule="nonzero"/><path fill="#fad7d0" d="M 112.90625 207.179688 C 112.90625 207.179688 48.703125 313.558594 138.585938 348.421875 C 228.464844 383.257812 277.984375 315.398438 285.324219 278.722656 C 286.011719 275.367188 280.210938 258.484375 280.460938 255.105469 C 282.988281 221.394531 272.128906 200.363281 250.460938 187.027344 C 226.625 172.34375 189.945312 155.847656 164.265625 165.003906 C 138.585938 174.1875 112.90625 207.179688 112.90625 207.179688 Z M 112.90625 207.179688 " fill-opacity="1" fill-rule="nonzero"/><path fill="#a55f3b" d="M 172.238281 307.839844 C 174.382812 308.964844 175.484375 311.027344 174.742188 312.429688 C 174.027344 313.832031 171.660156 314.054688 169.542969 312.898438 C 167.398438 311.742188 166.273438 309.679688 167.015625 308.304688 C 167.785156 306.902344 170.09375 306.683594 172.238281 307.839844 Z M 172.238281 307.839844 " fill-opacity="1" fill-rule="nonzero"/><path fill="#f7c1b3" d="M 255.191406 300.800781 C 255.191406 301.222656 255.117188 301.636719 254.972656 302.050781 C 254.832031 302.460938 254.617188 302.863281 254.332031 303.25 C 254.050781 303.640625 253.703125 304.007812 253.292969 304.359375 C 252.878906 304.710938 252.414062 305.03125 251.890625 305.332031 C 251.367188 305.628906 250.796875 305.894531 250.179688 306.125 C 249.566406 306.359375 248.917969 306.558594 248.230469 306.71875 C 247.546875 306.878906 246.84375 307 246.117188 307.082031 C 245.390625 307.164062 244.660156 307.207031 243.917969 307.207031 C 243.179688 307.207031 242.445312 307.164062 241.71875 307.082031 C 240.992188 307 240.289062 306.878906 239.605469 306.71875 C 238.921875 306.558594 238.269531 306.359375 237.65625 306.125 C 237.039062 305.894531 236.46875 305.628906 235.945312 305.332031 C 235.421875 305.03125 234.957031 304.710938 234.546875 304.359375 C 234.132812 304.007812 233.785156 303.640625 233.503906 303.25 C 233.21875 302.863281 233.007812 302.460938 232.863281 302.050781 C 232.71875 301.636719 232.644531 301.222656 232.644531 300.800781 C 232.644531 300.378906 232.71875 299.964844 232.863281 299.550781 C 233.007812 299.136719 233.21875 298.738281 233.503906 298.347656 C 233.785156 297.960938 234.132812 297.589844 234.546875 297.242188 C 234.957031 296.890625 235.421875 296.566406 235.945312 296.269531 C 236.46875 295.972656 237.039062 295.707031 237.65625 295.472656 C 238.269531 295.238281 238.921875 295.042969 239.605469 294.882812 C 240.289062 294.71875 240.992188 294.597656 241.71875 294.515625 C 242.445312 294.433594 243.179688 294.394531 243.917969 294.394531 C 244.660156 294.394531 245.390625 294.433594 246.117188 294.515625 C 246.84375 294.597656 247.546875 294.71875 248.230469 294.882812 C 248.917969 295.042969 249.566406 295.238281 250.179688 295.472656 C 250.796875 295.707031 251.367188 295.972656 251.890625 296.269531 C 252.414062 296.566406 252.878906 296.890625 253.292969 297.242188 C 253.703125 297.589844 254.050781 297.960938 254.332031 298.347656 C 254.617188 298.738281 254.832031 299.136719 254.972656 299.550781 C 255.117188 299.964844 255.191406 300.378906 255.191406 300.800781 Z M 255.191406 300.800781 " fill-opacity="1" fill-rule="nonzero"/><path fill="#f7c1b3" d="M 134.542969 300.800781 C 134.542969 301.222656 134.472656 301.636719 134.328125 302.050781 C 134.183594 302.460938 133.96875 302.863281 133.683594 303.25 C 133.402344 303.640625 133.054688 304.007812 132.644531 304.359375 C 132.234375 304.710938 131.765625 305.03125 131.242188 305.332031 C 130.71875 305.628906 130.148438 305.894531 129.535156 306.125 C 128.917969 306.359375 128.269531 306.558594 127.585938 306.71875 C 126.902344 306.878906 126.195312 307 125.46875 307.082031 C 124.742188 307.164062 124.011719 307.207031 123.269531 307.207031 C 122.53125 307.207031 121.796875 307.164062 121.070312 307.082031 C 120.34375 307 119.640625 306.878906 118.957031 306.71875 C 118.273438 306.558594 117.625 306.359375 117.007812 306.125 C 116.390625 305.894531 115.824219 305.628906 115.300781 305.332031 C 114.777344 305.03125 114.308594 304.710938 113.898438 304.359375 C 113.484375 304.007812 113.140625 303.640625 112.855469 303.25 C 112.574219 302.863281 112.359375 302.460938 112.214844 302.050781 C 112.070312 301.636719 111.996094 301.222656 111.996094 300.800781 C 111.996094 300.378906 112.070312 299.964844 112.214844 299.550781 C 112.359375 299.136719 112.574219 298.738281 112.855469 298.347656 C 113.140625 297.960938 113.484375 297.589844 113.898438 297.242188 C 114.308594 296.890625 114.777344 296.566406 115.300781 296.269531 C 115.824219 295.972656 116.390625 295.707031 117.007812 295.472656 C 117.625 295.238281 118.273438 295.042969 118.957031 294.882812 C 119.640625 294.71875 120.34375 294.597656 121.070312 294.515625 C 121.796875 294.433594 122.53125 294.394531 123.269531 294.394531 C 124.011719 294.394531 124.742188 294.433594 125.46875 294.515625 C 126.195312 294.597656 126.902344 294.71875 127.585938 294.882812 C 128.269531 295.042969 128.917969 295.238281 129.535156 295.472656 C 130.148438 295.707031 130.71875 295.972656 131.242188 296.269531 C 131.765625 296.566406 132.234375 296.890625 132.644531 297.242188 C 133.054688 297.589844 133.402344 297.960938 133.683594 298.347656 C 133.96875 298.738281 134.183594 299.136719 134.328125 299.550781 C 134.472656 299.964844 134.542969 300.378906 134.542969 300.800781 Z M 134.542969 300.800781 " fill-opacity="1" fill-rule="nonzero"/><path fill="#fad7d0" d="M 277.242188 273.003906 C 277.242188 273.003906 283.152344 250.816406 298.90625 265.386719 C 308.0625 273.855469 298.027344 304.320312 281.339844 310.3125 C 264.648438 316.28125 270.3125 302.945312 270.3125 302.945312 Z M 277.242188 273.003906 " fill-opacity="1" fill-rule="nonzero"/><path fill="#a55f3b" d="M 99.074219 195.632812 C 99.074219 195.632812 104.023438 217.683594 120.546875 230.386719 C 140.207031 245.480469 164.898438 240.449219 164.898438 240.449219 C 164.898438 240.449219 151.179688 233.136719 146.613281 217.601562 C 143.507812 207.015625 143.863281 195.660156 143.863281 195.660156 C 143.863281 195.660156 150.40625 216.417969 163.054688 228.570312 C 185.902344 250.511719 205.121094 243.199219 205.121094 243.199219 C 205.121094 243.199219 190.496094 234.976562 183.183594 219.414062 C 178.121094 208.664062 179.523438 203.878906 179.523438 203.878906 C 179.523438 203.878906 187.359375 219.003906 199.652344 228.570312 C 216.121094 241.382812 232.5625 241.382812 232.5625 241.382812 C 232.5625 241.382812 224.039062 233.164062 221.59375 224.914062 C 220.273438 220.460938 218.84375 214.851562 218.84375 214.851562 C 218.84375 214.851562 222.828125 224.363281 233.167969 230.992188 C 245.980469 239.210938 258.160156 239.515625 258.160156 239.515625 L 244.441406 216.664062 C 244.441406 216.664062 253.128906 220.488281 262.726562 231.292969 C 277.351562 247.761719 281.476562 265.578125 281.476562 265.578125 C 281.476562 265.578125 301.136719 245.921875 287.414062 212.101562 C 273.695312 178.28125 224.3125 151.75 192.335938 149.9375 C 160.359375 148.121094 114.609375 161.8125 114.609375 161.8125 Z M 99.074219 195.632812 " fill-opacity="1" fill-rule="nonzero"/><path fill="#a55f3b" d="M 238.886719 281.71875 C 237.8125 281.71875 236.824219 281.113281 236.355469 280.070312 C 236.273438 279.875 233.910156 274.984375 226.625 274.269531 C 221.289062 273.746094 218.402344 277.648438 218.265625 277.816406 C 217.386719 279.050781 215.679688 279.328125 214.445312 278.472656 C 213.207031 277.59375 212.902344 275.917969 213.757812 274.679688 C 213.949219 274.40625 218.566406 267.945312 227.144531 268.824219 C 237.757812 269.894531 241.25 277.566406 241.390625 277.898438 C 241.992188 279.300781 241.359375 280.921875 239.957031 281.527344 C 239.601562 281.691406 239.214844 281.746094 238.859375 281.746094 Z M 238.886719 281.71875 " fill-opacity="1" fill-rule="nonzero"/><path fill="#a55f3b" d="M 125.828125 282.378906 C 125.441406 282.378906 125.03125 282.296875 124.644531 282.132812 C 123.160156 281.472656 122.472656 279.738281 123.132812 278.253906 C 123.242188 278.007812 125.9375 272.011719 132.371094 270.5 C 141.914062 268.246094 147.191406 275.09375 147.410156 275.394531 C 148.402344 276.6875 148.125 278.558594 146.832031 279.519531 C 145.542969 280.480469 143.699219 280.234375 142.710938 278.941406 C 142.542969 278.722656 139.410156 274.898438 133.746094 276.246094 C 130.199219 277.070312 128.578125 280.589844 128.578125 280.617188 C 128.082031 281.71875 127.011719 282.378906 125.882812 282.378906 Z M 125.828125 282.378906 " fill-opacity="1" fill-rule="nonzero"/><path fill="#a55f3b" d="M 183.15625 342.511719 C 171.25 342.511719 169.296875 324.144531 169.214844 323.347656 C 169.160156 322.796875 169.324219 322.273438 169.710938 321.863281 C 170.066406 321.449219 170.589844 321.230469 171.113281 321.230469 L 193.960938 320.925781 C 194.949219 320.925781 195.773438 321.667969 195.882812 322.632812 C 195.941406 323.042969 196.929688 332.695312 192.171875 338.414062 C 190.136719 340.859375 187.417969 342.207031 184.0625 342.484375 C 183.757812 342.484375 183.429688 342.511719 183.128906 342.511719 Z M 173.367188 325.050781 C 174.164062 329.449219 176.71875 339.183594 183.785156 338.632812 C 186.097656 338.46875 187.882812 337.589844 189.230469 335.964844 C 191.898438 332.75 192.199219 327.523438 192.171875 324.804688 Z M 173.367188 325.050781 " fill-opacity="1" fill-rule="nonzero"/><path fill="#ff931e" d="M 297.136719 214.367188 C 297.351562 214.675781 297.496094 215.015625 297.574219 215.386719 C 297.652344 215.757812 297.65625 216.128906 297.585938 216.5 C 297.515625 216.871094 297.375 217.214844 297.167969 217.53125 C 296.960938 217.851562 296.703125 218.117188 296.390625 218.332031 L 265.238281 239.699219 C 264.925781 239.914062 264.582031 240.0625 264.210938 240.140625 C 263.839844 240.21875 263.46875 240.226562 263.097656 240.15625 C 262.726562 240.089844 262.382812 239.953125 262.066406 239.746094 C 261.746094 239.539062 261.484375 239.28125 261.269531 238.972656 C 261.054688 238.660156 260.910156 238.320312 260.832031 237.949219 C 260.753906 237.582031 260.75 237.210938 260.820312 236.839844 C 260.890625 236.464844 261.03125 236.121094 261.238281 235.804688 C 261.445312 235.488281 261.703125 235.222656 262.015625 235.007812 L 293.171875 213.636719 C 293.484375 213.421875 293.824219 213.277344 294.195312 213.195312 C 294.566406 213.117188 294.9375 213.113281 295.308594 213.179688 C 295.679688 213.25 296.023438 213.386719 296.34375 213.589844 C 296.660156 213.796875 296.925781 214.054688 297.136719 214.367188 Z M 297.136719 214.367188 " fill-opacity="1" fill-rule="nonzero"/><path fill="#ff931e" d="M 303.613281 227.65625 C 303.769531 227.996094 303.855469 228.359375 303.871094 228.734375 C 303.886719 229.113281 303.828125 229.476562 303.695312 229.832031 C 303.566406 230.1875 303.371094 230.503906 303.113281 230.78125 C 302.855469 231.0625 302.558594 231.28125 302.210938 231.4375 L 267.933594 247.316406 C 267.589844 247.476562 267.226562 247.5625 266.847656 247.578125 C 266.46875 247.59375 266.101562 247.539062 265.746094 247.410156 C 265.390625 247.277344 265.074219 247.085938 264.796875 246.832031 C 264.519531 246.574219 264.300781 246.277344 264.140625 245.933594 C 263.984375 245.59375 263.898438 245.230469 263.882812 244.855469 C 263.867188 244.476562 263.925781 244.113281 264.054688 243.757812 C 264.1875 243.402344 264.382812 243.085938 264.640625 242.808594 C 264.894531 242.527344 265.195312 242.308594 265.539062 242.152344 L 299.820312 226.273438 C 300.164062 226.117188 300.527344 226.027344 300.90625 226.011719 C 301.285156 225.996094 301.652344 226.050781 302.007812 226.179688 C 302.363281 226.3125 302.679688 226.503906 302.957031 226.757812 C 303.234375 227.015625 303.453125 227.3125 303.613281 227.65625 Z M 303.613281 227.65625 " fill-opacity="1" fill-rule="nonzero"/><path fill="#ffff00" d="M 294.179688 228.324219 C 298.578125 225.710938 300.035156 227.71875 296.269531 231.101562 C 301.191406 232.199219 300.914062 234.648438 295.800781 234.539062 C 298.414062 238.9375 296.40625 240.394531 293.023438 236.628906 C 291.925781 241.546875 289.476562 241.273438 289.585938 236.160156 C 285.1875 238.773438 283.730469 236.765625 287.496094 233.382812 C 282.574219 232.28125 282.851562 229.835938 287.964844 229.945312 C 285.351562 225.546875 287.359375 224.089844 290.742188 227.855469 C 291.84375 222.933594 294.289062 223.210938 294.179688 228.324219 Z M 294.179688 228.324219 " fill-opacity="1" fill-rule="nonzero"/><path fill="#ff931e" d="M 293.628906 232.253906 C 293.628906 232.484375 293.585938 232.707031 293.496094 232.917969 C 293.410156 233.128906 293.285156 233.316406 293.121094 233.480469 C 292.960938 233.644531 292.773438 233.769531 292.558594 233.855469 C 292.347656 233.945312 292.125 233.988281 291.898438 233.988281 C 291.667969 233.988281 291.445312 233.945312 291.234375 233.855469 C 291.023438 233.769531 290.835938 233.644531 290.671875 233.480469 C 290.507812 233.316406 290.382812 233.128906 290.296875 232.917969 C 290.207031 232.707031 290.164062 232.484375 290.164062 232.253906 C 290.164062 232.027344 290.207031 231.804688 290.296875 231.59375 C 290.382812 231.378906 290.507812 231.191406 290.671875 231.03125 C 290.835938 230.867188 291.023438 230.742188 291.234375 230.65625 C 291.445312 230.566406 291.667969 230.523438 291.898438 230.523438 C 292.125 230.523438 292.347656 230.566406 292.558594 230.65625 C 292.773438 230.742188 292.960938 230.867188 293.121094 231.03125 C 293.285156 231.191406 293.410156 231.378906 293.496094 231.59375 C 293.585938 231.804688 293.628906 232.027344 293.628906 232.253906 Z M 293.628906 232.253906 " fill-opacity="1" fill-rule="nonzero"/><g fill="#ffffff" fill-opacity="1"><g transform="translate(154.178743, 105.981804)"><g><path d="M 30.578125 0 C 25.742188 0 21.347656 -1.113281 17.390625 -3.34375 C 13.429688 -5.582031 10.265625 -8.71875 7.890625 -12.75 C 5.515625 -16.78125 4.328125 -21.425781 4.328125 -26.6875 C 4.328125 -29.925781 4.972656 -33.488281 6.265625 -37.375 C 7.554688 -41.269531 9.191406 -45.195312 11.171875 -49.15625 C 13.160156 -53.113281 15.160156 -56.820312 17.171875 -60.28125 L 27.015625 -76.921875 L 38.34375 -76.921875 L 38.78125 -75.84375 L 26.90625 -55.859375 C 25.894531 -54.203125 24.957031 -52.539062 24.09375 -50.875 C 25.382812 -51.53125 26.804688 -52.019531 28.359375 -52.34375 C 29.910156 -52.664062 31.550781 -52.828125 33.28125 -52.828125 C 37.519531 -52.828125 41.382812 -51.671875 44.875 -49.359375 C 48.375 -47.054688 51.164062 -44.03125 53.25 -40.28125 C 55.34375 -36.539062 56.390625 -32.476562 56.390625 -28.09375 C 56.390625 -22.976562 55.34375 -18.296875 53.25 -14.046875 C 51.164062 -9.796875 48.195312 -6.390625 44.34375 -3.828125 C 40.488281 -1.273438 35.898438 0 30.578125 0 Z M 30.578125 -10.796875 C 33.171875 -10.796875 35.582031 -11.425781 37.8125 -12.6875 C 40.039062 -13.945312 41.820312 -15.765625 43.15625 -18.140625 C 44.488281 -20.523438 45.15625 -23.375 45.15625 -26.6875 C 45.15625 -29.207031 44.539062 -31.632812 43.3125 -33.96875 C 42.09375 -36.3125 40.421875 -38.238281 38.296875 -39.75 C 36.171875 -41.269531 33.664062 -42.03125 30.78125 -42.03125 C 27.613281 -42.03125 24.894531 -41.304688 22.625 -39.859375 C 20.363281 -38.421875 18.617188 -36.546875 17.390625 -34.234375 C 16.171875 -31.929688 15.5625 -29.453125 15.5625 -26.796875 C 15.5625 -23.984375 16.15625 -21.367188 17.34375 -18.953125 C 18.53125 -16.546875 20.253906 -14.582031 22.515625 -13.0625 C 24.785156 -11.550781 27.472656 -10.796875 30.578125 -10.796875 Z M 30.578125 -10.796875 "/></g></g></g></svg>