<svg xmlns="http://www.w3.org/2000/svg" xmlns:xlink="http://www.w3.org/1999/xlink" width="500" zoomAndPan="magnify" viewBox="0 0 375 374.999991" height="500" preserveAspectRatio="xMidYMid meet" version="1.0"><defs><g/><clipPath id="d229bf3c9d"><path d="M 5.730469 0 L 369.621094 0 L 369.621094 375 L 5.730469 375 Z M 5.730469 0 " clip-rule="nonzero"/></clipPath><clipPath id="7f1d745dc0"><path d="M 19.980469 0 L 355.371094 0 C 363.242188 0 369.621094 6.378906 369.621094 14.25 L 369.621094 361.519531 C 369.621094 369.386719 363.242188 375.769531 355.371094 375.769531 L 19.980469 375.769531 C 12.113281 375.769531 5.730469 369.386719 5.730469 361.519531 L 5.730469 14.25 C 5.730469 6.378906 12.113281 0 19.980469 0 Z M 19.980469 0 " clip-rule="nonzero"/></clipPath></defs><g clip-path="url(#d229bf3c9d)"><g clip-path="url(#7f1d745dc0)"><path fill="#1f628e" d="M 5.730469 0 L 369.621094 0 L 369.621094 375.261719 L 5.730469 375.261719 Z M 5.730469 0 " fill-opacity="1" fill-rule="nonzero"/></g></g><g fill="#ffffff" fill-opacity="1"><g transform="translate(154.608313, 105.696824)"><g><path d="M 12.0625 0 L 41.6875 -64.640625 L 6.46875 -64.640625 L 6.46875 -75.421875 L 53.109375 -75.421875 L 54.625 -67.984375 L 24.5625 0 Z M 12.0625 0 "/></g></g></g><g fill="#ffffff" fill-opacity="1"><g transform="translate(91.892522, 340.08197)"><g><path d="M 81.8125 -177.96875 C 98.539062 -177.96875 113.207031 -174.597656 125.8125 -167.859375 C 138.414062 -161.128906 148.25 -151.132812 155.3125 -137.875 C 162.375 -124.625 165.90625 -108.21875 165.90625 -88.65625 C 165.90625 -69.53125 162.695312 -53.125 156.28125 -39.4375 C 149.875 -25.75 140.859375 -15.207031 129.234375 -7.8125 C 117.609375 -0.425781 104.082031 3.265625 88.65625 3.265625 C 73.882812 3.265625 61.066406 0.00390625 50.203125 -6.515625 C 39.335938 -13.035156 31.023438 -22.21875 25.265625 -34.0625 C 19.503906 -45.90625 16.625 -59.757812 16.625 -75.625 L 16.625 -92.890625 L 136.25 -92.890625 C 135.8125 -112.671875 130.757812 -127.722656 121.09375 -138.046875 C 111.425781 -148.367188 97.898438 -153.53125 80.515625 -153.53125 C 69.429688 -153.53125 59.597656 -152.492188 51.015625 -150.421875 C 42.429688 -148.359375 33.578125 -145.375 24.453125 -141.46875 L 24.453125 -166.5625 C 33.359375 -170.46875 42.15625 -173.34375 50.84375 -175.1875 C 59.539062 -177.039062 69.863281 -177.96875 81.8125 -177.96875 Z M 135.59375 -70.078125 L 46.609375 -70.078125 C 46.828125 -55.304688 50.300781 -43.300781 57.03125 -34.0625 C 63.769531 -24.820312 74.421875 -20.203125 88.984375 -20.203125 C 102.671875 -20.203125 113.476562 -24.601562 121.40625 -33.40625 C 129.34375 -42.207031 134.070312 -54.429688 135.59375 -70.078125 Z M 135.59375 -70.078125 "/></g></g></g></svg>