<svg xmlns="http://www.w3.org/2000/svg" xmlns:xlink="http://www.w3.org/1999/xlink" width="500" zoomAndPan="magnify" viewBox="0 0 375 374.999991" height="500" preserveAspectRatio="xMidYMid meet" version="1.0"><defs><g/><clipPath id="4d5bc14f6c"><path d="M 6.300781 0 L 369.984375 0 L 369.984375 375 L 6.300781 375 Z M 6.300781 0 " clip-rule="nonzero"/></clipPath><clipPath id="7947fd041b"><path d="M 20.550781 0 L 355.734375 0 C 363.605469 0 369.984375 6.378906 369.984375 14.25 L 369.984375 361.308594 C 369.984375 369.179688 363.605469 375.558594 355.734375 375.558594 L 20.550781 375.558594 C 12.679688 375.558594 6.300781 369.179688 6.300781 361.308594 L 6.300781 14.25 C 6.300781 6.378906 12.679688 0 20.550781 0 Z M 20.550781 0 " clip-rule="nonzero"/></clipPath><clipPath id="985bdc5de9"><path d="M 94 129 L 273 129 L 273 353 L 94 353 Z M 94 129 " clip-rule="nonzero"/></clipPath><clipPath id="289d815202"><path d="M 69.359375 152.058594 L 205.820312 106.066406 L 286.066406 344.15625 L 149.609375 390.148438 Z M 69.359375 152.058594 " clip-rule="nonzero"/></clipPath><clipPath id="30bf4c4505"><path d="M 69.359375 152.058594 L 205.820312 106.066406 L 286.066406 344.15625 L 149.609375 390.148438 Z M 69.359375 152.058594 " clip-rule="nonzero"/></clipPath><clipPath id="d7ac9fc50e"><path d="M 69.359375 152.058594 L 205.820312 106.066406 L 286.066406 344.15625 L 149.609375 390.148438 Z M 69.359375 152.058594 " clip-rule="nonzero"/></clipPath><clipPath id="5bcbe8416f"><path d="M 119 153 L 256 153 L 256 316 L 119 316 Z M 119 153 " clip-rule="nonzero"/></clipPath><clipPath id="2f7f334b13"><path d="M 69.359375 152.058594 L 205.820312 106.066406 L 286.066406 344.15625 L 149.609375 390.148438 Z M 69.359375 152.058594 " clip-rule="nonzero"/></clipPath><clipPath id="4c71b071d4"><path d="M 69.359375 152.058594 L 205.820312 106.066406 L 286.066406 344.15625 L 149.609375 390.148438 Z M 69.359375 152.058594 " clip-rule="nonzero"/></clipPath><clipPath id="e719b93083"><path d="M 69.359375 152.058594 L 205.820312 106.066406 L 286.066406 344.15625 L 149.609375 390.148438 Z M 69.359375 152.058594 " clip-rule="nonzero"/></clipPath><clipPath id="172c496753"><path d="M 120 153 L 199 153 L 199 230 L 120 230 Z M 120 153 " clip-rule="nonzero"/></clipPath><clipPath id="fd553458d8"><path d="M 69.359375 152.058594 L 205.820312 106.066406 L 286.066406 344.15625 L 149.609375 390.148438 Z M 69.359375 152.058594 " clip-rule="nonzero"/></clipPath><clipPath id="38e035e77d"><path d="M 69.359375 152.058594 L 205.820312 106.066406 L 286.066406 344.15625 L 149.609375 390.148438 Z M 69.359375 152.058594 " clip-rule="nonzero"/></clipPath><clipPath id="1c14ee8c30"><path d="M 69.359375 152.058594 L 205.820312 106.066406 L 286.066406 344.15625 L 149.609375 390.148438 Z M 69.359375 152.058594 " clip-rule="nonzero"/></clipPath><clipPath id="6e37368ad5"><path d="M 193 227 L 256 227 L 256 280 L 193 280 Z M 193 227 " clip-rule="nonzero"/></clipPath><clipPath id="0135626724"><path d="M 69.359375 152.058594 L 205.820312 106.066406 L 286.066406 344.15625 L 149.609375 390.148438 Z M 69.359375 152.058594 " clip-rule="nonzero"/></clipPath><clipPath id="6f0ddd72ed"><path d="M 69.359375 152.058594 L 205.820312 106.066406 L 286.066406 344.15625 L 149.609375 390.148438 Z M 69.359375 152.058594 " clip-rule="nonzero"/></clipPath><clipPath id="6311899b91"><path d="M 69.359375 152.058594 L 205.820312 106.066406 L 286.066406 344.15625 L 149.609375 390.148438 Z M 69.359375 152.058594 " clip-rule="nonzero"/></clipPath><clipPath id="e7dcf35bb1"><path d="M 126 175 L 253 175 L 253 305 L 126 305 Z M 126 175 " clip-rule="nonzero"/></clipPath><clipPath id="90fd2b1af1"><path d="M 69.359375 152.058594 L 205.820312 106.066406 L 286.066406 344.15625 L 149.609375 390.148438 Z M 69.359375 152.058594 " clip-rule="nonzero"/></clipPath><clipPath id="0839ace572"><path d="M 69.359375 152.058594 L 205.820312 106.066406 L 286.066406 344.15625 L 149.609375 390.148438 Z M 69.359375 152.058594 " clip-rule="nonzero"/></clipPath><clipPath id="9745401637"><path d="M 69.359375 152.058594 L 205.820312 106.066406 L 286.066406 344.15625 L 149.609375 390.148438 Z M 69.359375 152.058594 " clip-rule="nonzero"/></clipPath><clipPath id="630c3f0948"><path d="M 103 133 L 270 133 L 270 346 L 103 346 Z M 103 133 " clip-rule="nonzero"/></clipPath><clipPath id="c310787c47"><path d="M 69.359375 152.058594 L 205.820312 106.066406 L 286.066406 344.15625 L 149.609375 390.148438 Z M 69.359375 152.058594 " clip-rule="nonzero"/></clipPath><clipPath id="050e30b5ce"><path d="M 69.359375 152.058594 L 205.820312 106.066406 L 286.066406 344.15625 L 149.609375 390.148438 Z M 69.359375 152.058594 " clip-rule="nonzero"/></clipPath><clipPath id="a64660248b"><path d="M 69.359375 152.058594 L 205.820312 106.066406 L 286.066406 344.15625 L 149.609375 390.148438 Z M 69.359375 152.058594 " clip-rule="nonzero"/></clipPath></defs><g clip-path="url(#4d5bc14f6c)"><g clip-path="url(#7947fd041b)"><path fill="#d35031" d="M 6.300781 0 L 369.984375 0 L 369.984375 375.050781 L 6.300781 375.050781 Z M 6.300781 0 " fill-opacity="1" fill-rule="nonzero"/></g></g><g clip-path="url(#985bdc5de9)"><g clip-path="url(#289d815202)"><g clip-path="url(#30bf4c4505)"><g clip-path="url(#d7ac9fc50e)"><path fill="#efb27b" d="M 220.304688 174.726562 C 219.9375 174.480469 219.574219 174.226562 219.214844 173.964844 C 205.574219 164.140625 201.179688 146.734375 188.183594 138.421875 C 174.480469 129.636719 153.792969 127.230469 138.40625 131.648438 C 81.441406 148.003906 89.820312 212.628906 108.882812 254.796875 C 117.21875 273.25 129.910156 284.925781 143.496094 299.203125 C 154.273438 310.542969 169.144531 316.292969 180.144531 326.8125 C 190.890625 337.09375 198.808594 346.246094 213.949219 350.472656 C 243.152344 358.640625 269.773438 347.179688 272.234375 311.683594 C 272.386719 309.546875 272.554688 307.25 272.722656 304.863281 L 231.066406 181.269531 C 230.667969 181.023438 230.265625 180.777344 229.867188 180.53125 C 226.683594 178.609375 223.40625 176.796875 220.304688 174.726562 " fill-opacity="1" fill-rule="nonzero"/></g></g></g></g><g clip-path="url(#5bcbe8416f)"><g clip-path="url(#2f7f334b13)"><g clip-path="url(#4c71b071d4)"><g clip-path="url(#e719b93083)"><path fill="#dd9c66" d="M 237.445312 261.582031 C 232.039062 258.75 228.648438 254.15625 226.796875 248.503906 C 226.648438 248.035156 226.5 247.570312 226.359375 247.066406 C 224.5 240.277344 223.835938 230.574219 215.773438 228.070312 C 210.28125 226.355469 204.363281 230.109375 201.359375 235.023438 C 198.347656 239.921875 197.425781 245.785156 195.882812 251.335938 C 195.226562 253.714844 194.394531 256.109375 193.265625 258.308594 C 191.75 261.273438 189.722656 263.875 186.894531 265.570312 C 169.839844 275.765625 168.269531 252.914062 171.308594 243.042969 C 171.308594 243.042969 176.5 237.484375 182.304688 229.558594 C 191.046875 217.65625 201.207031 200.417969 197.269531 188.746094 C 188.667969 163.222656 161.988281 141.382812 136.558594 160.320312 C 126.597656 167.746094 121.683594 178.195312 120.195312 189.527344 C 119.222656 196.875 119.691406 204.605469 121.164062 212.121094 C 127.058594 242.285156 140.589844 274.136719 162.453125 296.179688 C 171.878906 305.679688 189.277344 316.6875 203.316406 315.773438 C 207.480469 315.496094 211.777344 312.53125 212.035156 308.359375 C 212.265625 304.683594 209.425781 301.410156 209.285156 297.730469 C 209.15625 294.148438 211.714844 290.886719 214.882812 289.242188 C 218.054688 287.597656 221.734375 287.296875 225.308594 287.300781 C 230.472656 287.304688 235.667969 287.886719 240.785156 287.183594 C 244.199219 286.722656 247.652344 285.582031 250.425781 283.582031 C 251.800781 282.597656 253.003906 281.394531 253.945312 279.964844 C 254.027344 279.824219 254.109375 279.699219 254.195312 279.554688 C 255.589844 277.199219 256.0625 274.226562 255.511719 271.574219 C 255.0625 269.367188 253.910156 267.375 252.023438 266.109375 C 247.753906 263.261719 241.996094 263.964844 237.445312 261.582031 " fill-opacity="1" fill-rule="nonzero"/></g></g></g></g><g clip-path="url(#172c496753)"><g clip-path="url(#fd553458d8)"><g clip-path="url(#38e035e77d)"><g clip-path="url(#1c14ee8c30)"><path fill="#d49159" d="M 136.558594 160.320312 C 126.597656 167.746094 121.683594 178.195312 120.195312 189.527344 C 138.773438 183.140625 171.824219 182.25 182.304688 229.558594 C 191.046875 217.65625 201.207031 200.417969 197.269531 188.746094 C 188.667969 163.222656 161.988281 141.382812 136.558594 160.320312 " fill-opacity="1" fill-rule="nonzero"/></g></g></g></g><g clip-path="url(#6e37368ad5)"><g clip-path="url(#0135626724)"><g clip-path="url(#6f0ddd72ed)"><g clip-path="url(#6311899b91)"><path fill="#d49159" d="M 226.359375 247.066406 C 224.5 240.277344 223.835938 230.574219 215.773438 228.070312 C 210.28125 226.355469 204.363281 230.109375 201.359375 235.023438 C 198.347656 239.921875 197.425781 245.785156 195.882812 251.335938 C 195.226562 253.714844 194.394531 256.109375 193.265625 258.308594 C 197.664062 260.695312 203.363281 262.84375 209.84375 265.636719 C 224.371094 271.890625 245.433594 262.34375 254.195312 279.554688 C 255.589844 277.199219 256.0625 274.226562 255.511719 271.574219 C 252.5 269.257812 248.828125 267.273438 245.0625 265.515625 C 235.164062 260.917969 229.378906 258.054688 226.359375 247.066406 " fill-opacity="1" fill-rule="nonzero"/></g></g></g></g><g clip-path="url(#e7dcf35bb1)"><g clip-path="url(#90fd2b1af1)"><g clip-path="url(#0839ace572)"><g clip-path="url(#9745401637)"><path fill="#efb27b" d="M 239.96875 279.058594 C 222.867188 289.488281 199.140625 292.519531 181.980469 282.636719 C 161.320312 270.742188 152.121094 246.972656 165.789062 226.683594 C 170.226562 220.109375 183.761719 205.480469 179.574219 196.742188 C 173.808594 184.710938 158.988281 199.164062 151.402344 191.039062 C 147.300781 186.648438 149.261719 177.558594 142.84375 176.03125 C 140.21875 175.402344 137.472656 176.484375 135.789062 178.601562 C 132.742188 182.421875 130.585938 186.082031 129.125 189.660156 C 123.882812 202.460938 127.519531 214.167969 130.902344 228.363281 C 135.34375 247.027344 142.71875 264.363281 155.628906 278.78125 C 169.226562 293.964844 189.472656 306.773438 210.074219 304.769531 C 224.523438 303.359375 239.621094 297.902344 251.800781 289.925781 C 251.800781 289.925781 252.433594 289.179688 252.734375 287.523438 C 254.035156 280.410156 246.128906 275.304688 239.96875 279.058594 " fill-opacity="1" fill-rule="nonzero"/></g></g></g></g><g clip-path="url(#630c3f0948)"><g clip-path="url(#c310787c47)"><g clip-path="url(#050e30b5ce)"><g clip-path="url(#a64660248b)"><path fill="#f3c8a0" d="M 220.304688 174.726562 C 219.9375 174.480469 219.574219 174.226562 219.214844 173.964844 C 218.460938 185.636719 214.535156 197.117188 212.464844 208.863281 C 211.65625 213.4375 214.066406 217.914062 218.253906 219.902344 C 225.089844 223.140625 234.535156 230.277344 236.292969 245.335938 C 237.894531 258.972656 246.726562 264.578125 254.082031 266.878906 C 254.851562 268.699219 255.476562 270.558594 255.839844 272.492188 C 256.675781 277.03125 255.804688 282.140625 252.496094 285.34375 C 252.136719 285.695312 251.769531 285.992188 251.40625 286.253906 C 247.355469 289.082031 242.929688 286.722656 238.292969 286.914062 C 233.195312 287.113281 228.023438 289.125 223.171875 290.539062 C 213.058594 293.507812 202.378906 297.171875 192.039062 292.890625 C 166.359375 281.714844 137.226562 247.6875 164.464844 218.621094 C 166.605469 216.335938 169.109375 214.277344 170.460938 211.453125 C 177.179688 197.570312 157.964844 205.847656 153.292969 205.207031 C 149.160156 204.644531 147.074219 201.941406 145.238281 198.414062 C 143.074219 194.265625 139.769531 186.988281 136.246094 195.277344 C 130.207031 209.484375 135.5625 230.28125 140.371094 244.234375 C 145.492188 259.085938 155.101562 272.496094 166.914062 282.753906 C 172.914062 287.957031 179.851562 292.960938 187.28125 295.90625 C 194 298.570312 201.800781 295.003906 207.480469 300.503906 C 218.972656 311.644531 205.816406 320.910156 194.683594 316.976562 C 185.5 313.734375 177.714844 307.234375 169.964844 301.515625 C 155.238281 290.628906 142.664062 276.972656 132.316406 261.882812 C 114.710938 236.160156 106.964844 204.972656 116.570312 174.695312 C 124.851562 148.585938 157.804688 137.5 176.019531 148.519531 C 206.5 166.9375 202.710938 212.261719 183.363281 236.484375 C 181.234375 239.144531 178.917969 241.691406 177.332031 244.714844 C 175.753906 247.738281 174.980469 251.386719 176.171875 254.59375 C 177.363281 257.785156 180.929688 260.203125 184.214844 259.28125 C 187.867188 258.257812 189.46875 254.066406 190.539062 250.417969 C 199.019531 221.554688 214.144531 192.007812 199.675781 162.425781 C 186.6875 136.15625 168.269531 129.789062 145.722656 135.320312 C 141.855469 136.277344 138.035156 137.484375 134.386719 139.078125 C 99.394531 154.351562 99.894531 194.667969 109.453125 226.273438 C 116.539062 249.699219 127.851562 272.457031 145.429688 289.78125 C 153.308594 297.554688 162.007812 303.074219 171.414062 308.53125 C 181.652344 314.46875 190.96875 323.164062 200.378906 330.40625 C 203.847656 333.074219 207.355469 335.761719 211.363281 337.476562 C 211.679688 337.609375 212.015625 337.734375 212.335938 337.867188 C 222.683594 345.671875 237.308594 347.730469 249.03125 342.257812 C 265.617188 334.496094 271.019531 314.910156 269.71875 295.945312 L 255.179688 252.8125 C 251.371094 241.507812 247.574219 230.191406 243.746094 218.890625 C 242.191406 214.292969 239.632812 209.679688 238.613281 204.953125 C 238.425781 204.089844 238.292969 203.25 238.191406 202.40625 L 231.066406 181.269531 C 230.667969 181.023438 230.265625 180.777344 229.867188 180.53125 C 226.683594 178.609375 223.40625 176.796875 220.304688 174.726562 " fill-opacity="1" fill-rule="nonzero"/></g></g></g></g><g fill="#ffffff" fill-opacity="1"><g transform="translate(153.089067, 105.637758)"><g><path d="M 56.640625 -21.53125 C 56.640625 -17.507812 55.507812 -13.847656 53.25 -10.546875 C 50.988281 -7.242188 47.9375 -4.601562 44.09375 -2.625 C 40.25 -0.65625 35.925781 0.328125 31.125 0.328125 C 26.382812 0.328125 22.09375 -0.65625 18.25 -2.625 C 14.40625 -4.601562 11.351562 -7.242188 9.09375 -10.546875 C 6.832031 -13.847656 5.703125 -17.507812 5.703125 -21.53125 C 5.703125 -26.269531 6.90625 -30.128906 9.3125 -33.109375 C 11.71875 -36.085938 14.460938 -38.398438 17.546875 -40.046875 C 14.890625 -41.335938 12.554688 -43.203125 10.546875 -45.640625 C 8.535156 -48.085938 7.53125 -51.144531 7.53125 -54.8125 C 7.53125 -58.539062 8.570312 -61.960938 10.65625 -65.078125 C 12.738281 -68.203125 15.570312 -70.695312 19.15625 -72.5625 C 22.75 -74.4375 26.738281 -75.375 31.125 -75.375 C 35.570312 -75.375 39.570312 -74.4375 43.125 -72.5625 C 46.675781 -70.695312 49.492188 -68.203125 51.578125 -65.078125 C 53.660156 -61.960938 54.703125 -58.539062 54.703125 -54.8125 C 54.703125 -52.15625 54.179688 -49.875 53.140625 -47.96875 C 52.097656 -46.0625 50.785156 -44.460938 49.203125 -43.171875 C 47.628906 -41.878906 46.015625 -40.835938 44.359375 -40.046875 C 48.023438 -38.109375 50.988281 -35.488281 53.25 -32.1875 C 55.507812 -28.882812 56.640625 -25.332031 56.640625 -21.53125 Z M 19.0625 -54.484375 C 19.0625 -51.609375 20.242188 -49.238281 22.609375 -47.375 C 24.984375 -45.507812 27.820312 -44.578125 31.125 -44.578125 C 34.488281 -44.578125 37.335938 -45.507812 39.671875 -47.375 C 42.003906 -49.238281 43.171875 -51.609375 43.171875 -54.484375 C 43.171875 -57.285156 42.039062 -59.671875 39.78125 -61.640625 C 37.519531 -63.617188 34.632812 -64.609375 31.125 -64.609375 C 27.601562 -64.609375 24.710938 -63.617188 22.453125 -61.640625 C 20.191406 -59.671875 19.0625 -57.285156 19.0625 -54.484375 Z M 31.125 -10.4375 C 35.132812 -10.4375 38.46875 -11.550781 41.125 -13.78125 C 43.78125 -16.007812 45.109375 -18.738281 45.109375 -21.96875 C 45.109375 -25.625 43.742188 -28.582031 41.015625 -30.84375 C 38.296875 -33.101562 35 -34.234375 31.125 -34.234375 C 27.3125 -34.234375 24.039062 -33.101562 21.3125 -30.84375 C 18.59375 -28.582031 17.234375 -25.625 17.234375 -21.96875 C 17.234375 -18.738281 18.554688 -16.007812 21.203125 -13.78125 C 23.859375 -11.550781 27.164062 -10.4375 31.125 -10.4375 Z M 31.125 -10.4375 "/></g></g></g></svg>