<svg xmlns="http://www.w3.org/2000/svg" xmlns:xlink="http://www.w3.org/1999/xlink" width="500" zoomAndPan="magnify" viewBox="0 0 375 374.999991" height="500" preserveAspectRatio="xMidYMid meet" version="1.0"><defs><g/><clipPath id="cc2b8f29b9"><path d="M 6.570312 0 L 369.714844 0 L 369.714844 375 L 6.570312 375 Z M 6.570312 0 " clip-rule="nonzero"/></clipPath><clipPath id="69a2124521"><path d="M 20.820312 0 L 355.464844 0 C 359.242188 0 362.867188 1.5 365.539062 4.171875 C 368.210938 6.847656 369.714844 10.46875 369.714844 14.25 L 369.714844 360.75 C 369.714844 364.527344 368.210938 368.152344 365.539062 370.828125 C 362.867188 373.5 359.242188 375 355.464844 375 L 20.820312 375 C 17.039062 375 13.414062 373.5 10.742188 370.828125 C 8.070312 368.152344 6.570312 364.527344 6.570312 360.75 L 6.570312 14.25 C 6.570312 10.46875 8.070312 6.847656 10.742188 4.171875 C 13.414062 1.5 17.039062 0 20.820312 0 Z M 20.820312 0 " clip-rule="nonzero"/></clipPath><clipPath id="10416877d7"><path d="M 70.234375 133.023438 L 316.234375 133.023438 L 316.234375 366.273438 L 70.234375 366.273438 Z M 70.234375 133.023438 " clip-rule="nonzero"/></clipPath></defs><g clip-path="url(#cc2b8f29b9)"><g clip-path="url(#69a2124521)"><path fill="#ff66c4" d="M 6.570312 0 L 369.714844 0 L 369.714844 374.492188 L 6.570312 374.492188 Z M 6.570312 0 " fill-opacity="1" fill-rule="nonzero"/></g></g><g clip-path="url(#10416877d7)"><path fill="#343434" d="M 230.027344 194.488281 L 205.445312 194.488281 L 205.445312 145.320312 C 205.445312 144.511719 205.367188 143.710938 205.210938 142.921875 C 205.050781 142.128906 204.820312 141.359375 204.507812 140.617188 C 204.199219 139.871094 203.820312 139.160156 203.375 138.492188 C 202.925781 137.820312 202.414062 137.199219 201.84375 136.628906 C 201.273438 136.058594 200.652344 135.546875 199.980469 135.097656 C 199.3125 134.652344 198.601562 134.273438 197.855469 133.964844 C 197.113281 133.652344 196.34375 133.421875 195.550781 133.261719 C 194.761719 133.105469 193.960938 133.027344 193.152344 133.027344 C 192.347656 133.027344 191.546875 133.105469 190.753906 133.261719 C 189.964844 133.421875 189.195312 133.652344 188.449219 133.964844 C 187.703125 134.273438 186.996094 134.652344 186.324219 135.097656 C 185.652344 135.546875 185.03125 136.058594 184.460938 136.628906 C 183.890625 137.199219 183.382812 137.820312 182.933594 138.492188 C 182.484375 139.160156 182.105469 139.871094 181.796875 140.617188 C 181.488281 141.359375 181.253906 142.128906 181.097656 142.921875 C 180.941406 143.710938 180.863281 144.511719 180.863281 145.320312 L 180.863281 194.488281 L 156.277344 194.488281 C 154.667969 194.488281 153.0625 194.566406 151.457031 194.722656 C 149.855469 194.882812 148.265625 195.117188 146.6875 195.429688 C 145.105469 195.746094 143.546875 196.136719 142.003906 196.605469 C 140.464844 197.070312 138.949219 197.613281 137.460938 198.230469 C 135.976562 198.84375 134.519531 199.53125 133.101562 200.292969 C 131.679688 201.050781 130.300781 201.878906 128.960938 202.773438 C 127.625 203.667969 126.332031 204.625 125.085938 205.648438 C 123.84375 206.667969 122.648438 207.75 121.511719 208.886719 C 120.371094 210.027344 119.292969 211.21875 118.269531 212.460938 C 117.25 213.707031 116.292969 215 115.398438 216.335938 C 114.503906 217.675781 113.675781 219.054688 112.917969 220.476562 C 112.15625 221.898438 111.46875 223.351562 110.855469 224.839844 C 110.238281 226.324219 109.695312 227.839844 109.226562 229.382812 C 108.761719 230.921875 108.371094 232.480469 108.054688 234.0625 C 107.742188 235.640625 107.503906 237.230469 107.347656 238.835938 C 107.191406 240.4375 107.109375 242.042969 107.109375 243.652344 L 107.109375 317.40625 C 107.109375 319.015625 107.191406 320.621094 107.347656 322.222656 C 107.503906 323.824219 107.742188 325.417969 108.054688 326.996094 C 108.371094 328.574219 108.761719 330.136719 109.226562 331.675781 C 109.695312 333.21875 110.238281 334.730469 110.855469 336.21875 C 111.46875 337.707031 112.15625 339.160156 112.917969 340.582031 C 113.675781 342 114.503906 343.382812 115.398438 344.71875 C 116.292969 346.058594 117.25 347.351562 118.269531 348.597656 C 119.292969 349.839844 120.371094 351.03125 121.511719 352.171875 C 122.648438 353.308594 123.84375 354.390625 125.085938 355.410156 C 126.332031 356.433594 127.625 357.390625 128.960938 358.285156 C 130.300781 359.179688 131.679688 360.007812 133.101562 360.765625 C 134.519531 361.523438 135.976562 362.210938 137.460938 362.828125 C 138.949219 363.445312 140.464844 363.988281 142.003906 364.453125 C 143.546875 364.921875 145.105469 365.3125 146.6875 365.625 C 148.265625 365.941406 149.855469 366.175781 151.457031 366.335938 C 153.0625 366.492188 154.667969 366.570312 156.277344 366.570312 L 230.027344 366.570312 C 231.640625 366.570312 233.246094 366.492188 234.847656 366.335938 C 236.449219 366.175781 238.042969 365.941406 239.621094 365.625 C 241.199219 365.3125 242.761719 364.921875 244.300781 364.453125 C 245.84375 363.988281 247.355469 363.445312 248.84375 362.828125 C 250.332031 362.210938 251.785156 361.523438 253.207031 360.765625 C 254.625 360.007812 256.003906 359.179688 257.34375 358.285156 C 258.683594 357.390625 259.976562 356.433594 261.21875 355.410156 C 262.464844 354.390625 263.65625 353.308594 264.796875 352.171875 C 265.933594 351.03125 267.015625 349.839844 268.035156 348.597656 C 269.058594 347.351562 270.015625 346.058594 270.910156 344.71875 C 271.804688 343.382812 272.632812 342 273.390625 340.582031 C 274.148438 339.160156 274.835938 337.707031 275.453125 336.21875 C 276.070312 334.730469 276.613281 333.21875 277.078125 331.675781 C 277.546875 330.136719 277.9375 328.574219 278.25 326.996094 C 278.566406 325.417969 278.800781 323.824219 278.960938 322.222656 C 279.117188 320.621094 279.195312 319.015625 279.195312 317.40625 L 279.195312 243.652344 C 279.195312 242.042969 279.117188 240.4375 278.960938 238.835938 C 278.800781 237.230469 278.566406 235.640625 278.25 234.0625 C 277.9375 232.480469 277.546875 230.921875 277.078125 229.382812 C 276.613281 227.839844 276.070312 226.324219 275.453125 224.839844 C 274.835938 223.351562 274.148438 221.898438 273.390625 220.476562 C 272.632812 219.054688 271.804688 217.675781 270.910156 216.335938 C 270.015625 215 269.058594 213.707031 268.035156 212.460938 C 267.015625 211.21875 265.933594 210.027344 264.796875 208.886719 C 263.65625 207.75 262.464844 206.667969 261.21875 205.648438 C 259.976562 204.625 258.683594 203.667969 257.34375 202.773438 C 256.003906 201.878906 254.625 201.050781 253.207031 200.292969 C 251.785156 199.53125 250.332031 198.84375 248.84375 198.230469 C 247.355469 197.613281 245.84375 197.070312 244.300781 196.605469 C 242.761719 196.136719 241.199219 195.746094 239.621094 195.429688 C 238.042969 195.117188 236.449219 194.882812 234.847656 194.722656 C 233.246094 194.566406 231.640625 194.488281 230.027344 194.488281 Z M 156.277344 231.363281 C 157.082031 231.363281 157.886719 231.402344 158.6875 231.480469 C 159.488281 231.558594 160.285156 231.675781 161.074219 231.835938 C 161.863281 231.992188 162.644531 232.1875 163.414062 232.421875 C 164.183594 232.652344 164.941406 232.925781 165.6875 233.234375 C 166.429688 233.542969 167.15625 233.886719 167.867188 234.265625 C 168.578125 234.644531 169.265625 235.058594 169.9375 235.503906 C 170.605469 235.953125 171.25 236.429688 171.875 236.941406 C 172.496094 237.453125 173.09375 237.992188 173.660156 238.5625 C 174.230469 239.132812 174.769531 239.726562 175.28125 240.351562 C 175.792969 240.972656 176.269531 241.617188 176.71875 242.289062 C 177.164062 242.957031 177.578125 243.648438 177.957031 244.355469 C 178.339844 245.066406 178.683594 245.792969 178.992188 246.539062 C 179.296875 247.28125 179.570312 248.039062 179.804688 248.808594 C 180.035156 249.578125 180.230469 250.359375 180.390625 251.148438 C 180.546875 251.9375 180.664062 252.734375 180.742188 253.535156 C 180.820312 254.335938 180.863281 255.140625 180.863281 255.945312 C 180.863281 256.75 180.820312 257.554688 180.742188 258.355469 C 180.664062 259.15625 180.546875 259.953125 180.390625 260.742188 C 180.230469 261.53125 180.035156 262.3125 179.804688 263.082031 C 179.570312 263.851562 179.296875 264.609375 178.992188 265.351562 C 178.683594 266.097656 178.339844 266.824219 177.957031 267.535156 C 177.578125 268.242188 177.164062 268.933594 176.71875 269.601562 C 176.269531 270.273438 175.792969 270.917969 175.28125 271.542969 C 174.769531 272.164062 174.230469 272.757812 173.660156 273.328125 C 173.09375 273.898438 172.496094 274.4375 171.875 274.949219 C 171.25 275.460938 170.605469 275.9375 169.9375 276.386719 C 169.265625 276.832031 168.578125 277.246094 167.867188 277.625 C 167.15625 278.003906 166.429688 278.347656 165.6875 278.65625 C 164.941406 278.964844 164.183594 279.238281 163.414062 279.46875 C 162.644531 279.703125 161.863281 279.898438 161.074219 280.054688 C 160.285156 280.214844 159.488281 280.332031 158.6875 280.410156 C 157.886719 280.488281 157.082031 280.527344 156.277344 280.527344 C 155.472656 280.527344 154.667969 280.488281 153.867188 280.410156 C 153.066406 280.332031 152.273438 280.214844 151.480469 280.054688 C 150.691406 279.898438 149.914062 279.703125 149.140625 279.46875 C 148.371094 279.238281 147.613281 278.964844 146.871094 278.65625 C 146.125 278.347656 145.398438 278.003906 144.691406 277.625 C 143.980469 277.246094 143.289062 276.832031 142.621094 276.386719 C 141.949219 275.9375 141.304688 275.460938 140.683594 274.949219 C 140.058594 274.4375 139.464844 273.898438 138.894531 273.328125 C 138.324219 272.757812 137.785156 272.164062 137.273438 271.542969 C 136.765625 270.917969 136.285156 270.273438 135.835938 269.601562 C 135.390625 268.933594 134.976562 268.242188 134.597656 267.535156 C 134.21875 266.824219 133.875 266.097656 133.566406 265.351562 C 133.257812 264.609375 132.988281 263.851562 132.753906 263.082031 C 132.519531 262.3125 132.324219 261.53125 132.167969 260.742188 C 132.011719 259.953125 131.890625 259.15625 131.8125 258.355469 C 131.734375 257.554688 131.695312 256.75 131.695312 255.945312 C 131.695312 255.140625 131.734375 254.335938 131.8125 253.535156 C 131.890625 252.734375 132.011719 251.9375 132.167969 251.148438 C 132.324219 250.359375 132.519531 249.578125 132.753906 248.808594 C 132.988281 248.039062 133.257812 247.28125 133.566406 246.539062 C 133.875 245.792969 134.21875 245.066406 134.597656 244.355469 C 134.976562 243.648438 135.390625 242.957031 135.835938 242.289062 C 136.285156 241.617188 136.765625 240.972656 137.273438 240.351562 C 137.785156 239.726562 138.324219 239.132812 138.894531 238.5625 C 139.464844 237.992188 140.058594 237.453125 140.683594 236.941406 C 141.304688 236.429688 141.949219 235.953125 142.621094 235.503906 C 143.289062 235.058594 143.980469 234.644531 144.691406 234.265625 C 145.398438 233.886719 146.125 233.542969 146.871094 233.234375 C 147.613281 232.925781 148.371094 232.652344 149.140625 232.421875 C 149.914062 232.1875 150.691406 231.992188 151.480469 231.835938 C 152.273438 231.675781 153.066406 231.558594 153.867188 231.480469 C 154.667969 231.402344 155.472656 231.363281 156.277344 231.363281 Z M 254.613281 317.40625 C 254.601562 319.570312 254.304688 321.695312 253.722656 323.777344 C 253.144531 325.863281 252.300781 327.835938 251.191406 329.695312 L 135.117188 329.695312 C 134.007812 327.835938 133.164062 325.863281 132.582031 323.777344 C 132.003906 321.695312 131.707031 319.570312 131.695312 317.40625 L 131.695312 305.113281 L 254.613281 305.113281 Z M 230.027344 280.527344 C 229.222656 280.527344 228.421875 280.488281 227.621094 280.410156 C 226.816406 280.332031 226.023438 280.214844 225.234375 280.054688 C 224.441406 279.898438 223.664062 279.703125 222.894531 279.46875 C 222.121094 279.238281 221.363281 278.964844 220.621094 278.65625 C 219.878906 278.347656 219.148438 278.003906 218.441406 277.625 C 217.730469 277.246094 217.039062 276.832031 216.371094 276.386719 C 215.703125 275.9375 215.054688 275.460938 214.433594 274.949219 C 213.8125 274.4375 213.214844 273.898438 212.644531 273.328125 C 212.078125 272.757812 211.535156 272.164062 211.027344 271.542969 C 210.515625 270.917969 210.035156 270.273438 209.589844 269.601562 C 209.140625 268.933594 208.726562 268.242188 208.347656 267.535156 C 207.96875 266.824219 207.625 266.097656 207.316406 265.351562 C 207.007812 264.609375 206.738281 263.851562 206.503906 263.082031 C 206.269531 262.3125 206.074219 261.53125 205.917969 260.742188 C 205.761719 259.953125 205.640625 259.15625 205.5625 258.355469 C 205.484375 257.554688 205.445312 256.75 205.445312 255.945312 C 205.445312 255.140625 205.484375 254.335938 205.5625 253.535156 C 205.640625 252.734375 205.761719 251.9375 205.917969 251.148438 C 206.074219 250.359375 206.269531 249.578125 206.503906 248.808594 C 206.738281 248.039062 207.007812 247.28125 207.316406 246.539062 C 207.625 245.792969 207.96875 245.066406 208.347656 244.355469 C 208.726562 243.648438 209.140625 242.957031 209.589844 242.289062 C 210.035156 241.617188 210.515625 240.972656 211.027344 240.351562 C 211.535156 239.726562 212.078125 239.132812 212.644531 238.5625 C 213.214844 237.992188 213.8125 237.453125 214.433594 236.941406 C 215.054688 236.429688 215.703125 235.953125 216.371094 235.503906 C 217.039062 235.058594 217.730469 234.644531 218.441406 234.265625 C 219.148438 233.886719 219.878906 233.542969 220.621094 233.234375 C 221.363281 232.925781 222.121094 232.652344 222.894531 232.421875 C 223.664062 232.1875 224.441406 231.992188 225.234375 231.835938 C 226.023438 231.675781 226.816406 231.558594 227.621094 231.480469 C 228.421875 231.402344 229.222656 231.363281 230.027344 231.363281 C 230.835938 231.363281 231.636719 231.402344 232.4375 231.480469 C 233.238281 231.558594 234.035156 231.675781 234.824219 231.835938 C 235.613281 231.992188 236.394531 232.1875 237.164062 232.421875 C 237.9375 232.652344 238.691406 232.925781 239.4375 233.234375 C 240.179688 233.542969 240.90625 233.886719 241.617188 234.265625 C 242.328125 234.644531 243.015625 235.058594 243.6875 235.503906 C 244.355469 235.953125 245.003906 236.429688 245.625 236.941406 C 246.246094 237.453125 246.84375 237.992188 247.410156 238.5625 C 247.980469 239.132812 248.519531 239.726562 249.03125 240.351562 C 249.542969 240.972656 250.023438 241.617188 250.46875 242.289062 C 250.917969 242.957031 251.332031 243.648438 251.710938 244.355469 C 252.089844 245.066406 252.433594 245.792969 252.742188 246.539062 C 253.050781 247.28125 253.320312 248.039062 253.554688 248.808594 C 253.789062 249.578125 253.984375 250.359375 254.140625 251.148438 C 254.296875 251.9375 254.414062 252.734375 254.492188 253.535156 C 254.574219 254.335938 254.613281 255.140625 254.613281 255.945312 C 254.613281 256.75 254.574219 257.554688 254.492188 258.355469 C 254.414062 259.15625 254.296875 259.953125 254.140625 260.742188 C 253.984375 261.53125 253.789062 262.3125 253.554688 263.082031 C 253.320312 263.851562 253.050781 264.609375 252.742188 265.351562 C 252.433594 266.097656 252.089844 266.824219 251.710938 267.535156 C 251.332031 268.242188 250.917969 268.933594 250.46875 269.601562 C 250.023438 270.273438 249.542969 270.917969 249.03125 271.542969 C 248.519531 272.164062 247.980469 272.757812 247.410156 273.328125 C 246.84375 273.898438 246.246094 274.4375 245.625 274.949219 C 245.003906 275.460938 244.355469 275.9375 243.6875 276.386719 C 243.015625 276.832031 242.328125 277.246094 241.617188 277.625 C 240.90625 278.003906 240.179688 278.347656 239.4375 278.65625 C 238.691406 278.964844 237.9375 279.238281 237.164062 279.46875 C 236.394531 279.703125 235.613281 279.898438 234.824219 280.054688 C 234.035156 280.214844 233.238281 280.332031 232.4375 280.410156 C 231.636719 280.488281 230.835938 280.527344 230.027344 280.527344 Z M 316.070312 243.652344 L 316.070312 317.40625 C 316.070312 318.210938 315.992188 319.011719 315.835938 319.800781 C 315.679688 320.59375 315.445312 321.363281 315.136719 322.109375 C 314.828125 322.855469 314.449219 323.5625 314 324.234375 C 313.550781 324.90625 313.042969 325.523438 312.472656 326.097656 C 311.902344 326.667969 311.28125 327.175781 310.609375 327.625 C 309.9375 328.074219 309.230469 328.453125 308.484375 328.761719 C 307.738281 329.070312 306.96875 329.300781 306.175781 329.460938 C 305.386719 329.617188 304.585938 329.695312 303.78125 329.695312 L 296.457031 329.695312 C 297.226562 325.636719 297.617188 321.539062 297.632812 317.40625 L 297.632812 243.652344 C 297.617188 239.519531 297.226562 235.421875 296.457031 231.363281 L 303.78125 231.363281 C 304.585938 231.363281 305.386719 231.441406 306.175781 231.597656 C 306.96875 231.753906 307.738281 231.988281 308.484375 232.296875 C 309.230469 232.605469 309.9375 232.984375 310.609375 233.433594 C 311.28125 233.882812 311.902344 234.390625 312.472656 234.960938 C 313.042969 235.53125 313.550781 236.152344 314 236.824219 C 314.449219 237.496094 314.828125 238.203125 315.136719 238.949219 C 315.445312 239.695312 315.679688 240.464844 315.835938 241.253906 C 315.992188 242.046875 316.070312 242.847656 316.070312 243.652344 Z M 88.671875 243.652344 L 88.671875 317.40625 C 88.6875 321.539062 89.082031 325.636719 89.847656 329.695312 L 82.527344 329.695312 C 81.71875 329.695312 80.921875 329.617188 80.128906 329.460938 C 79.335938 329.300781 78.570312 329.070312 77.824219 328.761719 C 77.078125 328.453125 76.371094 328.074219 75.699219 327.625 C 75.027344 327.175781 74.40625 326.667969 73.835938 326.097656 C 73.265625 325.523438 72.753906 324.90625 72.308594 324.234375 C 71.859375 323.5625 71.480469 322.855469 71.171875 322.109375 C 70.863281 321.363281 70.628906 320.59375 70.472656 319.800781 C 70.3125 319.011719 70.234375 318.210938 70.234375 317.40625 L 70.234375 243.652344 C 70.234375 242.847656 70.3125 242.046875 70.472656 241.253906 C 70.628906 240.464844 70.863281 239.695312 71.171875 238.949219 C 71.480469 238.203125 71.859375 237.496094 72.308594 236.824219 C 72.753906 236.152344 73.265625 235.53125 73.835938 234.960938 C 74.40625 234.390625 75.027344 233.882812 75.699219 233.433594 C 76.371094 232.984375 77.078125 232.605469 77.824219 232.296875 C 78.570312 231.988281 79.335938 231.753906 80.128906 231.597656 C 80.921875 231.441406 81.71875 231.363281 82.527344 231.363281 L 89.847656 231.363281 C 89.082031 235.421875 88.6875 239.519531 88.671875 243.652344 Z M 88.671875 243.652344 " fill-opacity="1" fill-rule="nonzero"/></g><g fill="#ffffff" fill-opacity="1"><g transform="translate(154.640742, 105.48071)"><g><path d="M 29.453125 -76.546875 C 34.191406 -76.546875 38.53125 -75.4375 42.46875 -73.21875 C 46.40625 -71 49.554688 -67.988281 51.921875 -64.1875 C 54.296875 -60.382812 55.484375 -56.117188 55.484375 -51.390625 C 55.484375 -46.804688 54.40625 -41.695312 52.25 -36.0625 C 50.101562 -30.4375 47.628906 -24.648438 44.828125 -18.703125 L 35.90625 0 L 24.515625 0 L 24.078125 -1.078125 L 37.625 -29.78125 C 35.90625 -28.632812 34.0625 -27.738281 32.09375 -27.09375 C 30.125 -26.445312 28.0625 -26.125 25.90625 -26.125 C 21.820312 -26.125 18.0625 -27.195312 14.625 -29.34375 C 11.1875 -31.5 8.425781 -34.367188 6.34375 -37.953125 C 4.257812 -41.535156 3.21875 -45.441406 3.21875 -49.671875 C 3.21875 -54.898438 4.382812 -59.539062 6.71875 -63.59375 C 9.050781 -67.644531 12.203125 -70.816406 16.171875 -73.109375 C 20.148438 -75.398438 24.578125 -76.546875 29.453125 -76.546875 Z M 28.59375 -65.796875 C 25.007812 -65.796875 21.875 -64.503906 19.1875 -61.921875 C 16.5 -59.347656 15.15625 -55.726562 15.15625 -51.0625 C 15.15625 -48.769531 15.710938 -46.53125 16.828125 -44.34375 C 17.941406 -42.164062 19.5 -40.375 21.5 -38.96875 C 23.507812 -37.570312 25.804688 -36.875 28.390625 -36.875 C 31.460938 -36.875 34.070312 -37.535156 36.21875 -38.859375 C 38.375 -40.191406 40.039062 -41.929688 41.21875 -44.078125 C 42.40625 -46.234375 43 -48.53125 43 -50.96875 C 43 -53.613281 42.425781 -56.046875 41.28125 -58.265625 C 40.132812 -60.492188 38.484375 -62.304688 36.328125 -63.703125 C 34.179688 -65.097656 31.601562 -65.796875 28.59375 -65.796875 Z M 28.59375 -65.796875 "/></g></g></g></svg>