<svg xmlns="http://www.w3.org/2000/svg" xmlns:xlink="http://www.w3.org/1999/xlink" width="500" zoomAndPan="magnify" viewBox="0 0 375 374.999991" height="500" preserveAspectRatio="xMidYMid meet" version="1.0"><defs><g/></defs><g fill="#1f628e" fill-opacity="1"><g transform="translate(115.670625, 222.848779)"><g><path d="M 63.921875 -139.0625 C 76.992188 -139.0625 88.453125 -136.425781 98.296875 -131.15625 C 108.148438 -125.894531 115.835938 -118.085938 121.359375 -107.734375 C 126.878906 -97.378906 129.640625 -84.5625 129.640625 -69.28125 C 129.640625 -54.332031 127.132812 -41.507812 122.125 -30.8125 C 117.113281 -20.113281 110.066406 -11.878906 100.984375 -6.109375 C 91.898438 -0.335938 81.332031 2.546875 69.28125 2.546875 C 57.726562 2.546875 47.707031 0 39.21875 -5.09375 C 30.726562 -10.1875 24.234375 -17.359375 19.734375 -26.609375 C 15.234375 -35.867188 12.984375 -46.695312 12.984375 -59.09375 L 12.984375 -72.59375 L 106.453125 -72.59375 C 106.117188 -88.039062 102.171875 -99.796875 94.609375 -107.859375 C 87.054688 -115.921875 76.488281 -119.953125 62.90625 -119.953125 C 54.25 -119.953125 46.566406 -119.144531 39.859375 -117.53125 C 33.148438 -115.925781 26.234375 -113.59375 19.109375 -110.53125 L 19.109375 -130.140625 C 26.066406 -133.203125 32.941406 -135.453125 39.734375 -136.890625 C 46.523438 -138.335938 54.585938 -139.0625 63.921875 -139.0625 Z M 105.953125 -54.765625 L 36.421875 -54.765625 C 36.585938 -43.210938 39.300781 -33.828125 44.5625 -26.609375 C 49.832031 -19.398438 58.15625 -15.796875 69.53125 -15.796875 C 80.226562 -15.796875 88.675781 -19.234375 94.875 -26.109375 C 101.070312 -32.984375 104.765625 -42.535156 105.953125 -54.765625 Z M 105.953125 -54.765625 "/></g></g></g><g fill="#1f628e" fill-opacity="1"><g transform="translate(80.175006, 315.523894)"><g><path d="M 33.707031 -55.519531 C 33.808594 -52.25 38.863281 -52.25 38.765625 -55.519531 C 38.367188 -66.027344 29.046875 -73.859375 18.539062 -71.382812 C 8.328125 -68.902344 3.46875 -57.402344 7.832031 -48.085938 C 12.691406 -37.675781 24.785156 -33.113281 29.84375 -22.804688 C 33.410156 -15.664062 32.222656 -5.453125 22.804688 -4.5625 C 14.476562 -3.667969 6.941406 -10.210938 9.714844 -18.835938 C 10.707031 -21.910156 5.847656 -23.296875 4.859375 -20.226562 C 1.386719 -9.519531 9.417969 -0.0976562 20.226562 0.496094 C 31.230469 1.191406 38.167969 -7.335938 36.582031 -18.042969 C 34.996094 -29.644531 24.886719 -35.890625 17.351562 -43.621094 C 12.09375 -48.976562 8.328125 -57.105469 14.476562 -63.453125 C 21.515625 -70.789062 33.3125 -65.136719 33.707031 -55.519531 Z M 33.707031 -55.519531 "/></g></g></g><g fill="#1f628e" fill-opacity="1"><g transform="translate(123.102925, 315.523894)"><g><path d="M 29.84375 -23.597656 C 29.046875 -17.050781 19.234375 -16.359375 14.671875 -18.835938 C 9.21875 -21.910156 9.320312 -29.644531 9.121094 -35.195312 C 9.023438 -40.054688 8.722656 -46.695312 11.300781 -51.058594 C 13.1875 -54.132812 16.753906 -55.421875 20.226562 -55.519531 C 23.296875 -55.617188 29.445312 -54.726562 29.742188 -50.761719 C 29.941406 -47.488281 34.996094 -47.488281 34.800781 -50.761719 C 34.203125 -60.179688 21.515625 -62.0625 14.277344 -59.484375 C 4.261719 -55.816406 3.867188 -44.21875 4.066406 -35.195312 C 4.363281 -26.171875 5.550781 -15.664062 15.761719 -13.085938 C 23.792969 -11.003906 33.707031 -14.375 34.898438 -23.597656 C 35.292969 -26.867188 30.238281 -26.769531 29.84375 -23.597656 Z M 29.84375 -23.597656 "/></g></g></g><g fill="#1f628e" fill-opacity="1"><g transform="translate(162.263505, 315.523894)"><g><path d="M 34.898438 -58.394531 C 34.800781 -61.667969 29.742188 -61.667969 29.84375 -58.394531 C 30.039062 -51.851562 30.238281 -45.308594 30.238281 -38.765625 C 23.398438 -38.566406 16.558594 -38.566406 9.714844 -38.664062 C 9.617188 -45.207031 9.519531 -51.851562 9.320312 -58.394531 C 9.21875 -61.667969 4.164062 -61.667969 4.261719 -58.394531 C 4.757812 -43.921875 4.859375 -29.445312 4.066406 -14.96875 C 3.867188 -11.699219 8.921875 -11.699219 9.121094 -14.96875 C 9.417969 -21.117188 9.617188 -27.363281 9.714844 -33.609375 C 16.558594 -33.511719 23.398438 -33.511719 30.238281 -33.707031 C 30.140625 -27.460938 30.039062 -21.214844 29.644531 -14.96875 C 29.445312 -11.699219 34.601562 -11.699219 34.699219 -14.96875 C 35.492188 -29.445312 35.394531 -43.921875 34.898438 -58.394531 Z M 34.898438 -58.394531 "/></g></g></g><g fill="#1f628e" fill-opacity="1"><g transform="translate(201.721507, 315.523894)"><g><path d="M 43.722656 -58.792969 C 41.738281 -46.398438 39.160156 -34.105469 36.386719 -21.910156 C 33.609375 -26.867188 30.636719 -31.726562 27.957031 -36.78125 C 27.460938 -37.773438 26.667969 -38.070312 25.875 -38.070312 C 24.984375 -38.167969 24.191406 -37.773438 23.597656 -36.78125 C 21.117188 -31.925781 18.738281 -27.066406 16.257812 -22.207031 C 13.484375 -34.304688 10.90625 -46.496094 9.023438 -58.792969 C 8.425781 -62.0625 3.570312 -60.675781 4.066406 -57.503906 C 6.445312 -42.929688 9.519531 -28.554688 12.886719 -14.277344 C 13.1875 -12.988281 14.277344 -12.394531 15.269531 -12.492188 C 16.160156 -12.394531 16.953125 -12.789062 17.546875 -13.683594 C 20.421875 -19.132812 23.101562 -24.6875 25.875 -30.140625 C 28.949219 -24.6875 32.121094 -19.332031 35.097656 -13.878906 C 35.492188 -13.085938 36.085938 -12.691406 36.683594 -12.589844 C 37.972656 -12.195312 39.457031 -12.691406 39.855469 -14.277344 C 43.226562 -28.652344 46.300781 -42.929688 48.578125 -57.503906 C 49.074219 -60.675781 44.21875 -62.0625 43.722656 -58.792969 Z M 43.722656 -58.792969 "/></g></g></g><g fill="#1f628e" fill-opacity="1"><g transform="translate(254.563499, 315.523894)"><g><path d="M 35.59375 -39.65625 C 35.492188 -45.40625 35.890625 -51.652344 31.726562 -56.214844 C 24.390625 -64.34375 10.507812 -62.957031 4.5625 -54.132812 C 2.675781 -51.453125 7.039062 -48.878906 8.921875 -51.554688 C 11.898438 -55.917969 17.746094 -57.503906 22.703125 -56.015625 C 28.453125 -54.332031 30.238281 -49.867188 30.4375 -44.21875 C 30.535156 -43.027344 30.535156 -41.839844 30.535156 -40.648438 C 27.066406 -43.820312 22.40625 -45.605469 17.648438 -44.910156 C 9.320312 -43.722656 3.570312 -36.582031 4.066406 -28.253906 C 4.5625 -20.324219 10.507812 -13.085938 18.738281 -12.789062 C 23.496094 -12.589844 27.761719 -14.175781 30.933594 -17.152344 C 30.933594 -16.359375 30.933594 -15.664062 30.933594 -14.871094 C 31.03125 -11.601562 36.085938 -11.601562 35.988281 -14.871094 C 35.890625 -23.101562 35.789062 -31.429688 35.59375 -39.65625 Z M 9.121094 -28.253906 C 8.128906 -42.433594 28.453125 -43.621094 30.734375 -30.238281 C 30.734375 -30.238281 30.734375 -30.238281 30.734375 -30.140625 C 30.734375 -29.046875 30.832031 -27.957031 30.832031 -26.867188 C 27.957031 -14.671875 10.113281 -15.070312 9.121094 -28.253906 Z M 9.121094 -28.253906 "/></g></g></g></svg>